<svg width="73" height="74" viewBox="0 0 73 74" fill="none" xmlns="http://www.w3.org/2000/svg">
<path d="M25.8535 64.75C28.3733 64.75 30.416 62.6793 30.416 60.125C30.416 57.5707 28.3733 55.5 25.8535 55.5C23.3337 55.5 21.291 57.5707 21.291 60.125C21.291 62.6793 23.3337 64.75 25.8535 64.75Z" fill="#5DB5A5"/>
<path d="M47.1465 64.75C49.6663 64.75 51.709 62.6793 51.709 60.125C51.709 57.5707 49.6663 55.5 47.1465 55.5C44.6267 55.5 42.584 57.5707 42.584 60.125C42.584 62.6793 44.6267 64.75 47.1465 64.75Z" fill="#5DB5A5"/>
<path d="M54.1797 38.5598C53.8488 39.736 53.1314 40.7735 52.1377 41.513C51.1441 42.2525 49.9291 42.6529 48.6796 42.6528H25.5888C25.4023 42.6513 25.223 42.582 25.0859 42.4585C24.9489 42.335 24.8638 42.1661 24.8474 41.9847L22.8946 27.0648H33.0781C33.9857 27.0648 34.856 26.7129 35.4978 26.0865C36.1395 25.46 36.5 24.6104 36.5 23.7245C36.5 22.8386 36.1395 21.989 35.4978 21.3626C34.856 20.7362 33.9857 20.3843 33.0781 20.3843H22.0209L21.4232 15.7947C21.2064 13.9919 20.319 12.3296 18.9296 11.1231C17.5403 9.91671 15.7455 9.25016 13.886 9.25H12.5469C11.6393 9.25 10.769 9.60192 10.1272 10.2283C9.48552 10.8548 9.125 11.7044 9.125 12.5903C9.125 13.4762 9.48552 14.3258 10.1272 14.9522C10.769 15.5786 11.6393 15.9306 12.5469 15.9306H13.886C14.0725 15.9321 14.2518 16.0013 14.3888 16.1248C14.5259 16.2483 14.6109 16.4172 14.6274 16.5986L18.0493 42.7864C18.2656 44.59 19.1531 46.2532 20.543 47.4601C21.9329 48.667 23.7285 49.3337 25.5888 49.3333H48.6796C51.4264 49.3318 54.0967 48.4504 56.2808 46.8244C58.4649 45.1984 60.0421 42.9178 60.7702 40.3324L60.8067 40.1988C60.9463 39.7037 60.9671 39.1839 60.8674 38.6797C60.7678 38.1756 60.5504 37.7006 60.2322 37.2918C59.914 36.8829 59.5035 36.5512 59.0326 36.3223C58.5617 36.0935 58.0432 35.9737 57.5172 35.9722C56.7685 35.9721 56.0405 36.2116 55.4447 36.654C54.8488 37.0965 54.4181 37.7174 54.2185 38.4218L54.1797 38.5598ZM60.4531 15.9306H57.0313V12.5903C57.0313 11.7044 56.6707 10.8548 56.029 10.2283C55.3873 9.60192 54.5169 9.25 53.6094 9.25C52.7018 9.25 51.8315 9.60192 51.1897 10.2283C50.548 10.8548 50.1875 11.7044 50.1875 12.5903V15.9306H46.7656C45.8581 15.9306 44.9877 16.2825 44.346 16.9089C43.7043 17.5353 43.3438 18.3849 43.3438 19.2708C43.3438 20.1567 43.7043 21.0063 44.346 21.6328C44.9877 22.2592 45.8581 22.6111 46.7656 22.6111H50.1875V25.9514C50.1875 26.8373 50.548 27.6869 51.1897 28.3133C51.8315 28.9397 52.7018 29.2917 53.6094 29.2917C54.5169 29.2917 55.3873 28.9397 56.029 28.3133C56.6707 27.6869 57.0313 26.8373 57.0313 25.9514V22.6111H60.4531C61.3607 22.6111 62.231 22.2592 62.8728 21.6328C63.5145 21.0063 63.875 20.1567 63.875 19.2708C63.875 18.3849 63.5145 17.5353 62.8728 16.9089C62.231 16.2825 61.3607 15.9306 60.4531 15.9306Z" fill="#5DB5A5"/>
</svg>
