<svg width="25" height="24" viewBox="0 0 25 24" fill="none" xmlns="http://www.w3.org/2000/svg">
<rect x="0.5" width="24" height="24" fill="white"/>
<path d="M8.14713 19.3643C7.22858 19.3643 6.48926 20.111 6.48926 21.0296C6.48926 21.9482 7.23605 22.6949 8.1546 22.6949C9.07315 22.6949 9.81248 21.9482 9.81248 21.0296C9.80501 20.111 9.05822 19.3643 8.14713 19.3643ZM8.14713 22.0228C7.59451 22.0228 7.1539 21.5748 7.1539 21.0221C7.1539 20.4695 7.60198 20.0289 8.1546 20.0289C8.70723 20.0289 9.14783 20.477 9.14783 21.0296C9.14037 21.5822 8.69229 22.0228 8.14713 22.0228Z" fill="#333333"/>
<path d="M19.5357 19.3643C18.6172 19.3643 17.8704 20.111 17.8704 21.0296C17.8704 21.9482 18.6172 22.6949 19.5357 22.6949C20.4543 22.6949 21.201 21.9482 21.201 21.0296C21.1936 20.111 20.4543 19.3643 19.5357 19.3643ZM19.5357 22.0228C18.9831 22.0228 18.5425 21.5748 18.535 21.0296C18.535 20.477 18.9831 20.0364 19.5282 20.0289C20.0809 20.0289 20.5289 20.477 20.5289 21.0221C20.5289 21.5822 20.0883 22.0228 19.5357 22.0228Z" fill="#333333"/>
<path d="M5.98891 16.0859L8.40852 14.7118H13.8377C14.6293 14.7118 15.3089 14.1592 15.4657 13.3825H18.9308C19.9912 13.3825 20.9247 12.6656 21.1861 11.635L23.18 3.83104C23.2249 3.65181 23.1203 3.47258 22.9411 3.42777C22.9112 3.4203 22.8888 3.4203 22.8589 3.4203H6.54154L6.36978 2.74819C5.95904 1.13512 4.49533 0 2.82999 0H1.5007C0.948075 0 0.5 0.448075 0.5 0.993232C0.5 1.53839 0.948075 1.99393 1.49323 1.99393H2.82252C3.58425 1.99393 4.24889 2.50922 4.43559 3.24107L6.98961 13.2257L5.00315 14.3533C3.88296 14.9881 3.48716 16.407 4.12194 17.5197C4.53267 18.2516 5.30933 18.6996 6.14574 18.6996H20.8575C21.4102 18.6996 21.8582 18.2516 21.8582 17.7064C21.8582 17.1538 21.4102 16.7057 20.865 16.7057H6.15321C5.96651 16.7057 5.81715 16.5564 5.81715 16.3771C5.81715 16.2576 5.88436 16.1456 5.98891 16.0859ZM18.311 9.61867H16.2648L16.3917 7.18413H18.6844L18.311 9.61867ZM19.3565 7.17666H21.6342L21.0144 9.6112H18.9831L19.3565 7.17666ZM18.2064 10.2833L17.833 12.7179H16.1079L16.2349 10.2833H18.2064ZM15.6001 9.61867H13.5539L13.427 7.18413H15.7196L15.6001 9.61867ZM16.4216 6.51202L16.5485 4.07748H19.1548L18.7814 6.51202H16.4216ZM15.7569 6.51202H13.3971L13.2701 4.07748H15.8839L15.7569 6.51202ZM12.725 6.51202H11.4106C11.2239 6.51202 11.082 6.66138 11.082 6.84061C11.082 7.0273 11.2314 7.17666 11.4106 7.17666H12.7623L12.8893 9.6112H10.8505L9.99918 4.07001H12.6055L12.725 6.51202ZM10.1709 9.61867H8.12474L7.5049 7.17666H9.80502L10.1709 9.61867ZM10.2755 10.2833L10.6489 12.7179H8.9238L8.2965 10.2833H10.2755ZM11.321 12.7179L10.9476 10.2833H12.9191L13.0461 12.7179H11.321ZM13.7107 12.7179L13.5838 10.2833H15.5628L15.4358 12.7179H13.7107ZM20.5364 11.4707C20.3497 12.21 19.6851 12.7179 18.9233 12.7179H18.5051L18.8785 10.2833H20.8426L20.5364 11.4707ZM21.806 6.51202H19.461L19.8344 4.07748H22.4333L21.806 6.51202ZM9.32707 4.07748L9.70047 6.51202H7.33314L6.70583 4.07748H9.32707ZM2.82999 1.32929H1.5007C1.314 1.32929 1.17211 1.17993 1.17211 1.0007C1.17211 0.82147 1.32147 0.664644 1.5007 0.664644H2.82999C3.50957 0.664644 4.16674 0.896149 4.69697 1.32182L4.21902 1.7923C3.81575 1.49358 3.33034 1.32929 2.82999 1.32929ZM6.15321 17.3704H20.865C21.0517 17.3704 21.201 17.5197 21.201 17.6989C21.201 17.8856 21.0517 18.035 20.8725 18.035H6.15321C5.23466 18.035 4.48786 17.2882 4.48786 16.3771C4.48786 15.7797 4.80898 15.2271 5.33174 14.9284L7.53477 13.6812C7.66919 13.6065 7.72894 13.4572 7.6916 13.3078L5.07783 3.07678C5.00315 2.78553 4.86873 2.50922 4.68203 2.26278L5.16744 1.7923C5.42882 2.12089 5.62299 2.50175 5.72754 2.91249L8.34131 13.1361C8.37865 13.2854 8.51307 13.3825 8.66243 13.3825H14.7786C14.6368 13.7783 14.2634 14.0471 13.8377 14.0471H8.3189C8.25916 14.0471 8.20688 14.0621 8.15461 14.0919L5.66033 15.5109C5.18238 15.7797 5.01062 16.3846 5.27946 16.87C5.45123 17.1762 5.78728 17.3778 6.15321 17.3704Z" fill="#333333"/>
</svg>
