<svg xmlns="http://www.w3.org/2000/svg" width="18" height="18" viewBox="0 0 18 18">
  <defs>
    <style>
      .cls-1 {
        fill: #919191;
      }
    </style>
  </defs>
  <g id="shopping-bag" transform="translate(-0.247 0)">
    <path id="Path_4045" data-name="Path 4045" class="cls-1" d="M81.761,259.055a.528.528,0,0,0-.529.527v2.049a1.545,1.545,0,0,1-3.089,0v-2.049a.528.528,0,0,0-1.057,0v2.049a2.6,2.6,0,0,0,5.2,0v-2.049A.528.528,0,0,0,81.761,259.055Z" transform="translate(-74.137 -249.953)"/>
    <path id="Path_4046" data-name="Path 4046" class="cls-1" d="M17.718,0H2.5a.528.528,0,0,0-.528.527V6.664H.775a.528.528,0,0,0-.528.527V17.473A.528.528,0,0,0,.775,18h9.552l7.392-.009a.528.528,0,0,0,.528-.527V.527A.528.528,0,0,0,17.718,0ZM17.19,1.053V4.578h-2.8v-1.7a.529.529,0,0,0-1.057,0v1.7H6.89v-1.7a.529.529,0,0,0-1.057,0v1.7h-2.8V1.053ZM10.326,6.664H6.89V5.632h6.44v.952a3.329,3.329,0,0,1-.85,2.279,2.857,2.857,0,0,1-1.626.877V7.191a.528.528,0,0,0-.528-.527Zm-7.3-1.033h2.8V6.664h-2.8ZM1.3,7.717H9.8v9.229H1.3Zm9.551,9.229V10.805a3.911,3.911,0,0,0,2.4-1.229,4.377,4.377,0,0,0,1.13-2.993V5.632h2.8V16.938Z" transform="translate(0 0)"/>
  </g>
</svg>
