<svg xmlns="http://www.w3.org/2000/svg" width="27.054" height="12.655" viewBox="0 0 27.054 12.655">
  <defs>
    <style>
      .cls-1 {
        fill: #c75ba1;
      }
    </style>
  </defs>
  <g id="kF44rB" transform="translate(0 -20.351)">
    <g id="Group_171" data-name="Group 171" transform="translate(0 20.351)">
      <path id="Path_157" data-name="Path 157" class="cls-1" d="M2251.167,529.867h5.274c.449,0,.6.151.6.6q0,1.691,0,3.382a.467.467,0,0,1-.51.533,1.8,1.8,0,0,0-.061,3.6c.452.038.571.166.572.614q0,1.665,0,3.329c0,.407-.165.573-.574.573h-25.913c-.419,0-.565-.149-.566-.573q0-1.691,0-3.382c0-.4.128-.529.526-.56a1.747,1.747,0,0,0,1.569-1.088,1.712,1.712,0,0,0-.238-1.83,1.743,1.743,0,0,0-1.312-.68c-.408-.028-.545-.158-.545-.563q0-1.7,0-3.4c0-.4.149-.553.549-.553,1.2,0,2.394,0,3.591,0Zm-15.775,11.715h16.237V539.8h.907v1.786h3.587v-2.731a2.716,2.716,0,0,1,0-5.351v-2.719h-20.736v1.328h-.9v-1.327H2230.9a.94.94,0,0,0-.011.095c0,.835,0,1.67,0,2.506,0,.119.058.14.154.162a2.7,2.7,0,0,1,.011,5.262c-.126.031-.167.079-.166.208.006.8,0,1.6,0,2.4,0,.055.009.111.013.166h3.584v-.431h.9Zm1.429-11.711c.14,0,11.466-.067,11.41,0,.437,0,.838,0,1.238,0C2249.59,529.872,2236.427,529.861,2236.821,529.87Zm10.011-.006Z" transform="translate(-2229.989 -529.84)"/>
      <path id="Path_158" data-name="Path 158" class="cls-1" d="M2333.254,696.159h4.853c.391,0,.52.12.556.514a.9.9,0,0,0,.851.826.476.476,0,0,1,.505.54q0,2.619,0,5.238a.457.457,0,0,1-.467.536.918.918,0,0,0-.9.939.452.452,0,0,1-.44.418c-.052,0-.105,0-.158,0h-9.618c-.439,0-.567-.117-.612-.558a.9.9,0,0,0-.727-.775c-.074-.014-.15-.022-.225-.033a.418.418,0,0,1-.382-.41c0-.052,0-.1,0-.158q0-2.575,0-5.151c0-.424.121-.556.537-.591a.9.9,0,0,0,.8-.8c.036-.419.167-.539.589-.539Zm-4.558.889c-.013.029-.021.044-.026.06a1.755,1.755,0,0,1-1.173,1.2c-.1.034-.106.1-.106.188,0,1.442,0,2.884,0,4.326a.186.186,0,0,0,.156.207,1.434,1.434,0,0,1,.718.48c.174.228.312.483.484.756h.073q4.423,0,8.846,0a.186.186,0,0,0,.207-.155,1.717,1.717,0,0,1,1.087-1.088.2.2,0,0,0,.155-.223c0-1.267,0-2.534,0-3.8v-.646a1.778,1.778,0,0,1-1.231-1.13.227.227,0,0,0-.259-.182q-4.37.007-8.74,0Z" transform="translate(-2319.729 -694.321)"/>
      <path id="Path_159" data-name="Path 159" class="cls-1" d="M2294.343,715.457h.884v1.791h-.884Z" transform="translate(-2289.833 -712.267)"/>
      <path id="Path_160" data-name="Path 160" class="cls-1" d="M2294.41,754.091h.882v1.784h-.882Z" transform="translate(-2289.895 -748.194)"/>
      <path id="Path_161" data-name="Path 161" class="cls-1" d="M2539.735,775.194h-.88V773.41h.88Z" transform="translate(-2517.208 -766.159)"/>
      <path id="Path_162" data-name="Path 162" class="cls-1" d="M2538.8,698.03v-1.777h.885v1.777Z" transform="translate(-2517.158 -694.409)"/>
      <path id="Path_163" data-name="Path 163" class="cls-1" d="M2538.8,736.617v-1.775h.885v1.775Z" transform="translate(-2517.158 -730.294)"/>
      <path id="Path_164" data-name="Path 164" class="cls-1" d="M2295.278,794.523h-.881v-1.784h.881Z" transform="translate(-2289.883 -784.133)"/>
    </g>
  </g>
</svg>
