<svg id="Group_13" data-name="Group 13" xmlns="http://www.w3.org/2000/svg" width="43.039" height="28.678" viewBox="0 0 43.039 28.678">
  <defs>
    <style>
      .cls-1 {
        fill: #002649;
      }

      .cls-2 {
        fill: #cd1126;
      }

      .cls-3 {
        fill: #fefefe;
      }
    </style>
  </defs>
  <path id="Path_27" data-name="Path 27" class="cls-1" d="M752.948,15.869v9.519a.381.381,0,0,1-.294.109c-.1,0-.2,0-.294,0q-20.928,0-41.854,0c-.2,0-.416.058-.589-.109V15.869a.381.381,0,0,1,.294-.109c.1,0,.2,0,.294,0q20.928,0,41.854,0C752.558,15.761,752.776,15.7,752.948,15.869Z" transform="translate(-709.913 -6.29)"/>
  <path id="Path_28" data-name="Path 28" class="cls-2" d="M709.919,15.5c0-1.532,0-3.066,0-4.6,0-.161.032-.193.191-.193q21.327.006,42.656,0c.159,0,.193.032.191.193-.008,1.532,0,3.066,0,4.6a.381.381,0,0,1-.294.109c-.1,0-.2,0-.294,0q-20.928,0-41.854,0C710.309,15.6,710.091,15.663,709.919,15.5Z" transform="translate(-709.915 -10.705)"/>
  <path id="Path_29" data-name="Path 29" class="cls-3" d="M709.917,13.262c.081,0,.161,0,.242,0h42.547c.081,0,.161,0,.242,0v4.789c-.1-.006-.2-.013-.294-.013q-21.22,0-42.443,0c-.1,0-.2.007-.294.013Z" transform="translate(-709.913 -8.471)"/>
  <path id="Path_30" data-name="Path 30" class="cls-3" d="M709.917,20.891c.1.006.2.013.294.013h42.443c.1,0,.2-.008.294-.013V25.68a.386.386,0,0,1-.294.107c-.1,0-.2,0-.294,0q-20.928,0-41.854,0c-.2,0-.416.058-.589-.107Z" transform="translate(-709.913 -1.792)"/>
  <path id="Path_31" data-name="Path 31" class="cls-2" d="M709.919,23.445c.09,0,.178.006.268.006h42.495c.09,0,.178,0,.268-.006,0,1.532,0,3.066,0,4.6,0,.161-.032.193-.191.193q-21.327-.006-42.656,0c-.159,0-.193-.032-.191-.193C709.923,26.511,709.919,24.977,709.919,23.445Z" transform="translate(-709.915 0.442)"/>
</svg>
