<svg id="Component_4_1" data-name="Component 4 – 1" xmlns="http://www.w3.org/2000/svg" width="22.76" height="16.468" viewBox="0 0 22.76 16.468">
  <defs>
    <style>
      .cls-1 {
        fill: #c45e9f;
      }
    </style>
  </defs>
  <g id="Group_87" data-name="Group 87">
    <g id="Group_85" data-name="Group 85" transform="translate(15.33 0)">
      <g id="Group_84" data-name="Group 84">
        <path id="Path_63" data-name="Path 63" class="cls-1" d="M263.955,104.9l7.43-4.29-7.43-4.29Z" transform="translate(-263.955 -96.321)"/>
      </g>
    </g>
    <g id="Group_86" data-name="Group 86" transform="translate(0 3.519)">
      <path id="Path_64" data-name="Path 64" class="cls-1" d="M70.968,138.527h-19a.964.964,0,1,1,0-1.929h19a.964.964,0,0,1,0,1.929Z" transform="translate(-51 -136.598)"/>
    </g>
  </g>
  <g id="Group_91" data-name="Group 91" transform="translate(0 7.888)">
    <g id="Group_89" data-name="Group 89" transform="translate(0 0)">
      <g id="Group_88" data-name="Group 88">
        <path id="Path_65" data-name="Path 65" class="cls-1" d="M58.43,195.183,51,190.892l7.43-4.29Z" transform="translate(-51 -186.602)"/>
      </g>
    </g>
    <g id="Group_90" data-name="Group 90" transform="translate(1.827 3.519)">
      <path id="Path_66" data-name="Path 66" class="cls-1" d="M110.368,228.808h19a.964.964,0,1,0,0-1.929h-19a.964.964,0,1,0,0,1.929Z" transform="translate(-109.404 -226.879)"/>
    </g>
  </g>
</svg>
