<svg width="22" height="28" viewBox="0 0 22 28" fill="none" xmlns="http://www.w3.org/2000/svg">
<path d="M22.0001 19.2951C21.954 22.4217 20.8593 25.1089 18.6325 27.3125C17.7972 28.1406 16.6124 28.2068 15.6672 27.5024C14.4538 26.5971 13.0975 26.107 11.5807 26.0054C9.60017 25.8729 7.84162 26.405 6.25892 27.593C5.47637 28.1803 4.33551 28.1273 3.6123 27.4649C1.69328 25.7051 0.559018 23.5147 0.183128 20.9423C-0.271897 17.8444 0.482082 15.0269 2.37252 12.5627C4.26516 10.0985 6.78648 8.6589 9.89252 8.32548C12.8161 8.01194 15.4561 8.77371 17.762 10.5865C20.1647 12.4744 21.5363 14.9784 21.9298 18.0233C21.9826 18.445 21.9957 18.8667 22.0001 19.2951ZM16.4783 19.3724C16.5069 16.4577 14.4296 13.8213 11.0268 13.8169C7.95592 13.8147 5.57968 16.0735 5.58188 19.3856C5.58408 22.4747 7.82183 24.813 11.0532 24.8395C14.1174 24.8638 16.4717 22.4791 16.4783 19.3724Z" fill="#006957"/>
<path d="M13.7262 3.67305C13.5614 3.70838 13.4668 3.81657 13.3635 3.91373C12.57 4.67771 12.1259 5.64263 11.7962 6.67159C11.7588 6.79082 11.7281 6.91447 11.6885 7.03371C11.6665 7.09774 11.6621 7.19269 11.572 7.1949C11.4863 7.1949 11.4731 7.10216 11.4401 7.04254C10.7675 5.81928 10.9301 4.34871 11.8248 3.28664C12.2249 2.81191 12.6931 2.40562 13.1151 1.95518C13.4976 1.54669 13.8339 1.1095 14.1241 0.630347C14.212 0.486823 14.2274 0.325635 14.2846 0.177696C14.3109 0.113662 14.3175 0.0209237 14.3967 0.00325922C14.4978 -0.0188213 14.533 0.076125 14.5703 0.142367C14.8363 0.601642 15.0825 1.07417 15.2738 1.56656C15.5441 2.2621 15.7617 2.97089 15.8409 3.72383C16.0057 5.29155 15.2847 6.52144 13.8185 7.08229C13.3481 7.26114 12.8623 7.38037 12.3611 7.4422C12.1391 7.4709 12.0886 7.39583 12.1281 7.19048C12.3721 5.95176 12.8316 4.81461 13.6449 3.83865C13.6823 3.7967 13.7328 3.76579 13.7262 3.67305Z" fill="#006957"/>
<path d="M8.78028 4.99341C8.89239 4.9912 8.97152 5.0464 9.05286 5.09498C9.68374 5.47035 10.119 6.03119 10.4883 6.64945C10.5322 6.72231 10.5696 6.79739 10.6136 6.86805C10.6377 6.90558 10.6553 6.96741 10.7125 6.95416C10.7674 6.94091 10.763 6.87909 10.7762 6.83493C11.029 5.93625 10.7015 5.00445 9.95851 4.45022C9.62658 4.20292 9.25949 4.01082 8.91877 3.78118C8.60882 3.57363 8.32306 3.33957 8.06147 3.0724C7.98234 2.99291 7.94936 2.88913 7.88782 2.80301C7.86144 2.76548 7.84385 2.70586 7.7889 2.70807C7.72075 2.70807 7.71196 2.77652 7.69657 2.82509C7.59326 3.16514 7.50533 3.50959 7.45477 3.85846C7.38443 4.35086 7.34926 4.84547 7.41301 5.34669C7.5427 6.39111 8.19776 7.08223 9.23531 7.22354C9.56723 7.26991 9.90136 7.27212 10.2377 7.23679C10.3872 7.22133 10.4069 7.16393 10.3498 7.03807C10.0047 6.26966 9.53426 5.60062 8.85722 5.08835C8.82644 5.06627 8.78907 5.05523 8.78028 4.99341Z" fill="#006957"/>
</svg>
