<svg width="20" height="20" viewBox="0 0 20 20" fill="none" xmlns="http://www.w3.org/2000/svg">
<path d="M9.69409 13.4055C9.11331 13.4055 8.64868 13.8701 8.64868 14.4509C8.64868 15.0317 9.11331 15.4963 9.69409 15.4963C10.2749 15.4963 10.7395 15.0317 10.7395 14.4509C10.7395 13.8701 10.2749 13.4055 9.69409 13.4055Z" fill="#333333"/>
<path d="M9.87356 5.4646C8.03618 5.4646 7.19141 6.55225 7.19141 7.29142C7.19141 7.72437 7.53987 8.07284 7.97282 8.07284C7.98338 8.07284 7.99394 8.07284 8.0045 8.07284C8.74368 8.07284 8.43745 7.02743 9.83132 7.02743C10.5071 7.02743 11.0562 7.3231 11.0562 7.95668C11.0562 8.69586 10.2959 9.11824 9.84188 9.49839C9.22942 10.0053 8.88095 10.7761 8.93375 11.5681C8.93375 12.2756 9.12382 12.4762 9.68349 12.4762C10.3487 12.4762 10.486 12.1805 10.486 11.9166C10.3804 11.2513 10.6761 10.586 11.2463 10.2164C12.0911 9.64623 12.6508 8.7381 12.7669 7.72437C12.7669 6.43609 11.6159 5.4646 9.87356 5.4646Z" fill="#333333"/>
<path d="M10.0002 0.00537109C15.5124 0.00537109 19.9897 4.47211 20.0002 9.98425V9.99481V19.2134C20.0002 19.6463 19.6518 19.9948 19.2188 19.9948H10.0002C4.47754 19.9948 0.000244141 15.5175 0.000244141 9.99481C0.000244141 4.47211 4.47754 0.00537109 10.0002 0.00537109ZM10.0002 18.432H18.4374V9.99481C18.4374 5.338 14.6571 1.55764 10.0002 1.55764C5.34343 1.55764 1.56307 5.338 1.56307 9.99481C1.57363 14.6516 5.34343 18.432 10.0002 18.432Z" fill="#333333"/>
</svg>
