<svg width="76" height="77" viewBox="0 0 76 77" fill="none" xmlns="http://www.w3.org/2000/svg">
<rect x="17.292" y="17.7812" width="44.9579" height="41.4751" fill="white"/>
<path d="M35.1399 0.574432C29.508 1.10907 25.3175 2.29716 20.5772 4.70303C14.9602 7.5693 9.92269 12.084 6.23744 17.5492C4.69201 19.866 2.78994 23.7718 1.86863 26.5341C1.1405 28.7618 0.546101 31.3014 0.189464 33.8112C-0.0631545 35.5636 -0.0631545 41.415 0.189464 43.1674C0.813579 47.5485 1.97265 51.38 3.78556 55.0483C5.82136 59.2066 7.82744 61.9986 11.1263 65.3104C14.4104 68.5776 17.2486 70.6122 21.2459 72.5726C24.0396 73.9389 25.8376 74.6072 28.6759 75.32C36.1058 77.1913 43.5655 76.8348 50.8171 74.2656C53.0312 73.4785 56.8651 71.5627 58.8414 70.2409C63.2845 67.2856 67.3561 63.1124 70.2687 58.5383C71.3386 56.8601 73.0623 53.2958 73.7607 51.3206C77.2528 41.4892 76.6436 30.9449 72.0519 21.7224C70.2092 18.0096 68.1437 15.084 65.246 12.0989C62.0363 8.77224 58.886 6.48517 54.6807 4.40601C50.2821 2.23775 46.1808 1.06451 41.3068 0.61898C39.7911 0.485321 36.3584 0.45562 35.1399 0.574432ZM56.6422 25.5094C57.8161 26.1926 58.3956 27.7074 58.0241 29.0885C57.8458 29.7568 57.1177 30.5142 47.117 40.5387C40.5638 47.1178 36.1652 51.4097 35.8086 51.588C35.0508 51.9889 33.7728 52.0186 33.0595 51.6474C32.3463 51.2761 21.6769 40.6427 21.2756 39.9001C20.6664 38.7418 20.9636 37.0636 21.9443 36.1577C22.7616 35.4003 24.4111 35.1329 25.377 35.6082C25.6444 35.7418 27.7694 37.7616 30.1173 40.0932L34.3969 44.3555L43.937 34.8359C54.324 24.4698 53.8336 24.9005 55.3494 25.0639C55.7209 25.1084 56.3004 25.3164 56.6422 25.5094Z" fill="#34C38F"/>
</svg>
