<svg xmlns="http://www.w3.org/2000/svg" width="22.17" height="18.099" viewBox="0 0 22.17 18.099">
    <defs>
        <style>
            .cls-1{fill:#FF6900;stroke:#FF6900;stroke-width:.5px}
        </style>
    </defs>
    <g id="Group_2752" data-name="Group 2752" transform="translate(.25 .25)">
        <g id="Group_2753" data-name="Group 2753">
            <g id="Group_2752-2" data-name="Group 2752">
                <path id="Path_3589" d="M20.674 65.06h-.361v-9.417a2.946 2.946 0 0 0 1.357-2.479.318.318 0 0 0-.042-.157L19.109 48.6a1 1 0 0 0-.865-.5H3.425a1 1 0 0 0-.865.5L.042 53.006a.318.318 0 0 0-.042.157 2.946 2.946 0 0 0 1.357 2.479v9.418H1a.317.317 0 0 0 0 .635h19.674a.317.317 0 0 0 0-.635zM.657 53.481h1.017a.317.317 0 1 0 0-.635h-.81l2.247-3.933a.362.362 0 0 1 .314-.182h14.819a.362.362 0 0 1 .314.182l2.247 3.933H20a.317.317 0 1 0 0 .635h1.018a2.312 2.312 0 0 1-4.58 0h2.2a.317.317 0 1 0 0-.635H3.032a.317.317 0 1 0 0 .635h2.2a2.312 2.312 0 0 1-4.58 0zm15.1 0a2.311 2.311 0 0 1-4.579 0zm-5.259 0a2.311 2.311 0 0 1-4.579 0zm7.484 11.579h-3.437V64h3.436zm0-1.7h-3.437v-5.808h3.436zm1.7 1.7h-1.066v-7.825a.317.317 0 0 0-.317-.317h-4.071a.317.317 0 0 0-.317.317v7.825H1.992v-9.11a2.944 2.944 0 0 0 3.584-1.457 2.946 2.946 0 0 0 5.259 0 2.946 2.946 0 0 0 5.259 0 2.944 2.944 0 0 0 3.584 1.457z" class="cls-1" data-name="Path 3589" transform="translate(0 -48.096)"/>
            </g>
        </g>
        <g id="Group_2755" data-name="Group 2755" transform="translate(3.053 8.821)">
            <g id="Group_2754" data-name="Group 2754">
                <path id="Path_3590" d="M81.623 256.516h-9.16a.317.317 0 0 0-.317.317v6.446a.317.317 0 0 0 .317.317h9.16a.317.317 0 0 0 .317-.317v-6.446a.317.317 0 0 0-.317-.317zm-.317 6.446H72.78v-5.811h8.526z" class="cls-1" data-name="Path 3590" transform="translate(-72.145 -256.516)"/>
            </g>
        </g>
    </g>
</svg>
