<svg xmlns="http://www.w3.org/2000/svg" id="Group_2750" width="17.599" height="17.599" data-name="Group 2750" viewBox="0 0 17.599 17.599">
    <defs>
        <style>
            .cls-1{fill:#c45e9f}
        </style>
    </defs>
    <path id="Path_3585" d="M15.837 15.1a7.241 7.241 0 0 0-2.169-11.174 7.235 7.235 0 1 0-11.907 8.041L.154 13.554a.516.516 0 0 0 .36.883l3.883.018a7.228 7.228 0 0 0 5.966 3.145l6.722-.034a.516.516 0 0 0 .36-.883zM2.845 11.618a6.2 6.2 0 1 1 4.189 1.818l-5.268-.025 1.076-1.061a.516.516 0 0 0 0-.731zm7.518 4.949A6.172 6.172 0 0 1 5.7 14.461l1.532.01a7.243 7.243 0 0 0 7.036-8.924 6.2 6.2 0 0 1 .483 9.2.516.516 0 0 0 0 .731l1.076 1.061-5.469.028z" class="cls-1" data-name="Path 3585"/>
    <path id="Path_3586" d="M106.522 137.031h6.187a.516.516 0 0 0 0-1.031h-6.187a.516.516 0 0 0 0 1.031z" class="cls-1" data-name="Path 3586" transform="translate(-102.362 -131.325)"/>
    <path id="Path_3587" d="M106.522 197.031h6.187a.516.516 0 0 0 0-1.031h-6.187a.516.516 0 0 0 0 1.031z" class="cls-1" data-name="Path 3587" transform="translate(-102.362 -189.263)"/>
    <path id="Path_3588" d="M106.522 257.031h6.187a.516.516 0 0 0 0-1.031h-6.187a.516.516 0 0 0 0 1.031z" class="cls-1" data-name="Path 3588" transform="translate(-102.362 -247.201)"/>
</svg>
