<svg xmlns="http://www.w3.org/2000/svg" id="prefix__Group_33" width="21.16" height="20.30" data-name="Group 33" viewBox="0 0 31.74 30.464">
    <defs>
        <style>
            .prefix__cls-1{fill:#c75ba1}
        </style>
    </defs>
    <g id="prefix__Group_26" data-name="Group 26" transform="translate(26.855 26.195)">
        <path id="prefix__Path_42" d="M624.615 28.04a13.39 13.39 0 0 0 2.218-1.83 21.053 21.053 0 0 0 2.438-1.958c.049-.054-.114-.238-.195-.212a8.5 8.5 0 0 0-2.576 1.66 6.911 6.911 0 0 0-2.1 2.134c-.032.064.154.242.218.208z" class="prefix__cls-1" data-name="Path 42" transform="translate(-624.394 -24.038)"/>
    </g>
    <g id="prefix__Group_32" data-name="Group 32">
        <g id="prefix__Group_27" data-name="Group 27" transform="translate(29.533 1.547)">
            <path id="prefix__Path_43" d="M626.247 11.147a80.042 80.042 0 0 0-.383 11.767c.062 4.078.195 8.209.662 12.263.058.519.861.491.821-.039-.3-3.992-.637-7.954-.692-11.961s.27-7.982.253-11.972c0-.373-.611-.437-.662-.058z" class="prefix__cls-1" data-name="Path 43" transform="translate(-625.823 -10.892)"/>
        </g>
        <g id="prefix__Group_28" data-name="Group 28" transform="translate(27.433 14.97)">
            <path id="prefix__Path_44" d="M625.318 31.382c.206-2.081.026-4.236.024-6.328 0-2.276.227-4.6.069-6.868a.148.148 0 0 0-.291-.024 38.466 38.466 0 0 0-.388 6.622 33.3 33.3 0 0 0 .285 6.613.157.157 0 0 0 .3-.015z" class="prefix__cls-1" data-name="Path 44" transform="translate(-624.702 -18.051)"/>
        </g>
        <g id="prefix__Group_29" data-name="Group 29" transform="translate(3.374)">
            <path id="prefix__Path_45" d="M638.513 11.113a32.354 32.354 0 0 0-6.011-.546c-2.273-.124-4.549-.21-6.825-.285q-6.68-.219-13.365-.216c-.632 0-.555.921.047.962 2.164.148 4.286.634 6.441.788.493.034.465-.669.069-.8a26.313 26.313 0 0 0-6.557-.947l.047.962q6.533-.008 13.067.189 3.265.1 6.529.255a40.905 40.905 0 0 0 6.514.163.266.266 0 0 0 .045-.523z" class="prefix__cls-1" data-name="Path 45" transform="translate(-611.871 -10.067)"/>
        </g>
        <g id="prefix__Group_30" data-name="Group 30" transform="translate(0 1.061)">
            <path id="prefix__Path_46" d="M619.171 19.284h-.034c.043.906.066 1.6.066 2.1v2.182h2.857l-1.579-2.237q-.635-.881-1.31-2.045z" class="prefix__cls-1" data-name="Path 46" transform="translate(-602.139 -3.063)"/>
            <path id="prefix__Path_47" d="M617.761 19.423v4.521h1.3v-5.089h-.728a.568.568 0 0 0-.572.568z" class="prefix__cls-1" data-name="Path 47" transform="translate(-603.343 -3.439)"/>
            <path id="prefix__Path_48" d="M620.286 18.941h-6.232a.949.949 0 0 0-.692.238.891.891 0 0 0-.244.667.861.861 0 0 0 .249.662.949.949 0 0 0 .677.234h3.39a2.488 2.488 0 0 1 1.718.529 2.067 2.067 0 0 1 .585 1.609 2.575 2.575 0 0 1-.142.866c-.015.041-.034.081-.051.122h.921v-4.521a.559.559 0 0 0-.179-.406z" class="prefix__cls-1" data-name="Path 48" transform="translate(-607.406 -3.363)"/>
            <path id="prefix__Path_49" d="M636.564 12.59a.791.791 0 0 0-.12-.514.8.8 0 0 0-.6-.2l-5.2-.272-11.946-.9-.013.274-6.566-.343c-.229 9.358-.452 18.832-2.014 28.063a.778.778 0 0 0 .849 1.132q12.859.385 25.727.054-.053-13.647-.117-27.294zm-5.674 9.021v.563a.715.715 0 0 0-.009.111zm-11.865-9.3a.824.824 0 0 1 .788.859.814.814 0 0 1-.3.6c.2 1.371 1.048 4.564 4.6 4.716 3.508.148 4.9-2.927 5.34-4.288a.822.822 0 1 1 .821.188c-.488 1.521-2.079 5.115-6.2 4.941s-5.139-3.851-5.391-5.43a.821.821 0 0 1 .339-1.584zm-2.333 22.536a.983.983 0 1 1 .983-.982.982.982 0 0 1-.982.984zm12.608 0a.983.983 0 1 1 .983-.982.981.981 0 0 1-.983.984zm5.2-12h-2.239V31.6a.745.745 0 0 1-.574.69.663.663 0 0 1-.193.032h-10.817c-.1 0-.195 0-.289-.011s-.187.011-.289.011h-6a.647.647 0 1 1 0-1.294h6a1.124 1.124 0 0 0 .8-.264.925.925 0 0 0 .279-.7.892.892 0 0 0-.279-.716 1.2 1.2 0 0 0-.8-.24h-3.4a2.679 2.679 0 0 1-.941-.157 2.023 2.023 0 0 1-.713-.439 1.913 1.913 0 0 1-.448-.667 2.212 2.212 0 0 1-.157-.844 2.3 2.3 0 0 1 .146-.831 1.786 1.786 0 0 1 .439-.656 2.057 2.057 0 0 1 .718-.433 2.816 2.816 0 0 1 .977-.158H626.904l.043.006.056.009a.681.681 0 0 1 .4.268l3.561 5-.051-7.943a.783.783 0 0 1 .688-.757l1.444.009 1.442-.009a.674.674 0 0 1 .015 1.348z" class="prefix__cls-1" data-name="Path 49" transform="translate(-610.071 -10.633)"/>
        </g>
        <g id="prefix__Group_31" data-name="Group 31" transform="translate(22.163 .918)">
            <path id="prefix__Path_50" d="M625.941 11.988a31.464 31.464 0 0 1-3.459-1.386l-.171.774a59.95 59.95 0 0 0 7.826.1c.292-.034.367-.486.047-.542a60.125 60.125 0 0 0-7.912-.382c-.418-.017-.514.6-.171.773a7.312 7.312 0 0 0 3.761 1.024c.178-.011.266-.292.079-.366z" class="prefix__cls-1" data-name="Path 50" transform="translate(-621.892 -10.557)"/>
        </g>
    </g>
</svg>
