<svg id="Group_17" data-name="Group 17" xmlns="http://www.w3.org/2000/svg" width="23.658" height="22.5" viewBox="0 0 23.658 22.5">
  <g id="Group_15" data-name="Group 15" transform="translate(5.062)">
    <path id="Path_36" data-name="Path 36" d="M935.62,25.824a6.91,6.91,0,1,1,4.888-2.025A6.864,6.864,0,0,1,935.62,25.824Zm0-12.06a5.147,5.147,0,1,0,5.147,5.147A5.153,5.153,0,0,0,935.62,13.764Z" transform="translate(-928.709 -12)" fill="#c75ba1"/>
  </g>
  <g id="Group_16" data-name="Group 16" transform="translate(0 10.824)">
    <path id="Path_37" data-name="Path 37" d="M948.777,29.449H926.924a.882.882,0,0,1-.878-.789c-.482-4.594,3.943-8.743,4.131-8.917a.883.883,0,1,1,1.2,1.3h0a14.811,14.811,0,0,0-1.98,2.387,8.909,8.909,0,0,0-1.614,4.26h20.083a8.743,8.743,0,0,0-.531-2.168,11.247,11.247,0,0,0-1.671-2.921,15.69,15.69,0,0,0-3.5-3.214.882.882,0,1,1,1-1.455,17.323,17.323,0,0,1,3.947,3.647,12.861,12.861,0,0,1,1.924,3.431,9.094,9.094,0,0,1,.628,3.643A.884.884,0,0,1,948.777,29.449Z" transform="translate(-926.009 -17.773)" fill="#c75ba1"/>
  </g>
</svg>
