<svg width="20" height="20" viewBox="0 0 20 20" fill="none" xmlns="http://www.w3.org/2000/svg">
<path d="M10.0051 0.420166C4.49564 0.420166 0 4.08632 0 8.5922C0 12.627 3.5535 16.0064 8.36661 16.6516C8.69431 16.7233 9.13466 16.8666 9.2473 17.1431C9.32923 17.4401 9.33947 17.7473 9.27803 18.0443L9.1449 18.8943C9.10393 19.1503 8.94009 19.8876 10.0154 19.437C12.9237 17.9009 15.576 15.9245 17.8802 13.5896C19.2115 12.2584 19.9693 10.4662 20 8.58196C20.0102 4.08632 15.5146 0.420166 10.0051 0.420166ZM6.09318 11.265H4.1065C3.81976 11.265 3.58423 11.0295 3.58423 10.7427V6.73864C3.58423 6.45191 3.81976 6.21637 4.1065 6.21637C4.39324 6.21637 4.62877 6.45191 4.62877 6.73864V10.2102H6.09318C6.37992 10.2205 6.61546 10.4662 6.59498 10.7632C6.58474 11.0397 6.35944 11.2548 6.09318 11.265ZM8.14131 10.7427C8.14131 11.0295 7.90578 11.265 7.61904 11.265C7.3323 11.265 7.09677 11.0295 7.09677 10.7427V6.73864C7.09677 6.45191 7.3323 6.21637 7.61904 6.21637C7.90578 6.21637 8.14131 6.45191 8.14131 6.73864V10.7427ZM12.9339 10.7427C12.9339 10.968 12.7906 11.1728 12.5755 11.2445C12.5243 11.265 12.4629 11.2753 12.4117 11.265C12.2478 11.265 12.084 11.1933 11.9816 11.0602L9.94367 8.27474V10.7427C9.95391 11.0295 9.72861 11.2752 9.44188 11.2855C9.15514 11.2957 8.90936 11.0704 8.89912 10.7837C8.89912 10.7632 8.89912 10.753 8.89912 10.7325V6.73864C8.89912 6.51335 9.04249 6.30854 9.25754 6.23685C9.30875 6.21637 9.35995 6.20613 9.42139 6.20613C9.58524 6.21637 9.72861 6.28806 9.83102 6.42118L11.8792 9.21688V6.73864C11.8792 6.45191 12.1147 6.21637 12.4014 6.21637C12.6882 6.21637 12.9237 6.45191 12.9237 6.73864L12.9339 10.7427ZM16.1393 8.2133C16.4362 8.2133 16.6718 8.44883 16.6718 8.74581C16.6718 9.04279 16.4362 9.27832 16.1393 9.27832H14.6748V10.2205H16.1393C16.426 10.2307 16.6615 10.4765 16.6411 10.7735C16.6308 11.05 16.4055 11.265 16.1393 11.2753H14.1526C13.8658 11.2753 13.6303 11.0397 13.6303 10.753V6.73864C13.6303 6.45191 13.8658 6.21637 14.1526 6.20613H16.1393C16.426 6.20613 16.6718 6.44167 16.6718 6.73864C16.6718 7.02538 16.4362 7.27116 16.1393 7.27116H14.6748V8.2133H16.1393Z" fill="#333333"/>
</svg>
