<svg width="20" height="20" viewBox="0 0 20 20" fill="none" xmlns="http://www.w3.org/2000/svg">
<path d="M9.98599 0.0192871C4.45461 0.0403992 -0.0211598 4.54784 -4.76873e-05 10.0898C0.0210644 14.9561 3.52568 19.1046 8.31813 19.9386V12.1482H5.90079V9.34029H8.31813V7.2713C8.12812 5.41343 9.48985 3.75613 11.3477 3.57668C11.5377 3.55557 11.7277 3.55557 11.9283 3.56612C12.6461 3.56612 13.3745 3.59779 14.0923 3.67168V6.18403H12.6144C11.4533 6.18403 11.2316 6.73294 11.2316 7.54576V9.32973H14.0078L13.6489 12.1271H11.2316V19.9808C16.7208 19.2841 20.6159 14.2594 19.9192 8.77026C19.2648 3.7878 15.0212 0.0403992 9.98599 0.0192871Z" fill="#333333"/>
</svg>
