<svg xmlns="http://www.w3.org/2000/svg" width="45.067" height="52.173" viewBox="0 0 45.067 52.173">
  <g id="Icon_Notification" data-name="Icon / Notification" transform="translate(2.4 2.4)">
    <g id="Shape" transform="translate(0 0)" fill="none" stroke-linecap="round" stroke-linejoin="round" stroke-miterlimit="10">
      <path d="M20.133,47.373A4.742,4.742,0,0,1,15.4,42.635H24.87A4.743,4.743,0,0,1,20.133,47.373Zm20.134-7.106H0V37.9l4.738-4.736V20.133A15.1,15.1,0,0,1,8.083,10.54a15.677,15.677,0,0,1,8.5-5.33V3.553a3.553,3.553,0,0,1,7.106,0V5.21a15.681,15.681,0,0,1,8.5,5.33,15.1,15.1,0,0,1,3.346,9.592V33.161L40.267,37.9v2.37Z" stroke="none"/>
      <path d="M 20.13260650634766 47.37277603149414 C 22.74415969848633 47.37277603149414 24.87042999267578 45.248291015625 24.87042999267578 42.63496398925781 L 15.39657211303711 42.63496398925781 C 15.39657211303711 45.24739837646484 17.52116012573242 47.37277603149414 20.13260650634766 47.37277603149414 M 40.26700592041016 40.26695251464844 L 40.26700592041016 40.26497268676758 L 40.26700592041016 37.89715194702148 L 35.52918243408203 33.16111373901367 L 35.52918243408203 20.1325855255127 C 35.52918243408203 16.57002067565918 34.37223052978516 13.25308036804199 32.18344116210938 10.54038619995117 C 30.06584167480469 7.915927410125732 27.04735946655273 6.022327423095703 23.68552398681641 5.21035099029541 L 23.68552398681641 3.552915573120117 C 23.68552398681641 1.66023313999176 22.02528953552246 -2.126895651599625e-06 20.13260650634766 -2.126895651599625e-06 C 18.23993682861328 -2.126895651599625e-06 16.57968902587891 1.66023313999176 16.57968902587891 3.552915573120117 L 16.57968902587891 5.21035099029541 C 13.21863079071045 6.022350788116455 10.20124244689941 7.915256500244141 8.083324432373047 10.54038619995117 C 5.894665718078613 13.25319766998291 4.737818717956543 16.57013893127441 4.737818717956543 20.1325855255127 L 4.737818717956543 33.16111373901367 L -4.829496447200654e-06 37.89715194702148 L -4.829496447200654e-06 40.26695251464844 L 40.26502990722656 40.26695251464844 L 40.26700592041016 40.26695251464844 M 20.13260650634766 49.77277374267578 C 16.20835113525391 49.77277374267578 13.01377296447754 46.58823394775391 12.99664306640625 42.66695022583008 L -4.829496447200654e-06 42.66695022583008 C -1.32548713684082 42.66695022583008 -2.400004863739014 41.59243392944336 -2.400004863739014 40.26695251464844 L -2.400004863739014 37.89715194702148 C -2.400004863739014 37.26046752929688 -2.14702844619751 36.6498908996582 -1.696745991706848 36.19977569580078 L 2.337818622589111 32.16673278808594 L 2.337818622589111 20.1325855255127 C 2.337818622589111 16.01571464538574 3.678677558898926 12.17768001556396 6.215442180633545 9.033397674560547 C 8.269736289978027 6.487131595611572 11.05140113830566 4.537989139556885 14.18113803863525 3.424114942550659 C 14.25232982635498 0.253773957490921 16.94873046875 -2.400002241134644 20.13260650634766 -2.400002241134644 C 23.31628608703613 -2.400002241134644 26.01255989074707 0.2538962066173553 26.08407211303711 3.423977136611938 C 29.21467590332031 4.537771701812744 31.99657440185547 6.486832618713379 34.05125427246094 9.033304214477539 C 36.58821868896484 12.17751598358154 37.92918395996094 16.01558685302734 37.92918395996094 20.1325855255127 L 37.92918395996094 32.16673278808594 L 41.96374893188477 36.19977569580078 C 42.41403198242188 36.6498908996582 42.66700744628906 37.26046752929688 42.66700744628906 37.89715194702148 L 42.66700744628906 40.26497268676758 C 42.66700744628906 41.59045791625977 41.59249114990234 42.66695022583008 40.26700592041016 42.66695022583008 L 40.26502990722656 42.66695022583008 L 27.27035903930664 42.66695022583008 C 27.25322532653809 46.58823394775391 24.05784797668457 49.77277374267578 20.13260650634766 49.77277374267578 Z" stroke="none" fill="#0f0f0f"/>
    </g>
  </g>
</svg>
