<svg width="12" height="12" viewBox="0 0 12 12" fill="none" xmlns="http://www.w3.org/2000/svg">
<g clip-path="url(#clip0_2522_6608)">
<path d="M1.37128 10.875C1.37128 11.1734 1.4932 11.4595 1.7102 11.6705C1.92721 11.8815 2.22153 12 2.52842 12H9.47128C9.77818 12 10.0725 11.8815 10.2895 11.6705C10.5065 11.4595 10.6284 11.1734 10.6284 10.875V3H1.37128V10.875ZM7.92842 4.875C7.92842 4.77555 7.96906 4.68017 8.0414 4.60984C8.11373 4.53951 8.21184 4.5 8.31414 4.5C8.41644 4.5 8.51455 4.53951 8.58688 4.60984C8.65922 4.68017 8.69985 4.77555 8.69985 4.875V10.125C8.69985 10.2245 8.65922 10.3198 8.58688 10.3902C8.51455 10.4605 8.41644 10.5 8.31414 10.5C8.21184 10.5 8.11373 10.4605 8.0414 10.3902C7.96906 10.3198 7.92842 10.2245 7.92842 10.125V4.875ZM5.61414 4.875C5.61414 4.77555 5.65478 4.68017 5.72711 4.60984C5.79945 4.53951 5.89756 4.5 5.99985 4.5C6.10215 4.5 6.20026 4.53951 6.27259 4.60984C6.34493 4.68017 6.38557 4.77555 6.38557 4.875V10.125C6.38557 10.2245 6.34493 10.3198 6.27259 10.3902C6.20026 10.4605 6.10215 10.5 5.99985 10.5C5.89756 10.5 5.79945 10.4605 5.72711 10.3902C5.65478 10.3198 5.61414 10.2245 5.61414 10.125V4.875ZM3.29985 4.875C3.29985 4.77555 3.34049 4.68017 3.41283 4.60984C3.48516 4.53951 3.58327 4.5 3.68557 4.5C3.78787 4.5 3.88597 4.53951 3.95831 4.60984C4.03064 4.68017 4.07128 4.77555 4.07128 4.875V10.125C4.07128 10.2245 4.03064 10.3198 3.95831 10.3902C3.88597 10.4605 3.78787 10.5 3.68557 10.5C3.58327 10.5 3.48516 10.4605 3.41283 10.3902C3.34049 10.3198 3.29985 10.2245 3.29985 10.125V4.875ZM11.0141 0.750004H8.12128L7.89468 0.311723C7.84667 0.218023 7.77273 0.139205 7.68116 0.084135C7.5896 0.0290653 7.48404 -7.09679e-05 7.37637 4.10923e-06H4.62092C4.5135 -0.000397388 4.40813 0.0286302 4.31689 0.0837612C4.22565 0.138892 4.15222 0.217897 4.10503 0.311723L3.87843 0.750004H0.985568C0.88327 0.750004 0.785162 0.789513 0.712827 0.859839C0.640491 0.930165 0.599854 1.02555 0.599854 1.125L0.599854 1.875C0.599854 1.97446 0.640491 2.06984 0.712827 2.14017C0.785162 2.2105 0.88327 2.25 0.985568 2.25H11.0141C11.1164 2.25 11.2145 2.2105 11.2869 2.14017C11.3592 2.06984 11.3999 1.97446 11.3999 1.875V1.125C11.3999 1.02555 11.3592 0.930165 11.2869 0.859839C11.2145 0.789513 11.1164 0.750004 11.0141 0.750004Z" fill="white"/>
</g>
<defs>
<clipPath id="clip0_2522_6608">
<rect width="10.8" height="12" fill="white" transform="translate(0.599854)"/>
</clipPath>
</defs>
</svg>
