<svg width="26" height="25" viewBox="0 0 26 25" fill="none" xmlns="http://www.w3.org/2000/svg">
<path d="M11.8765 0.0488319C9.4644 0.283207 7.23783 1.17188 5.28471 2.67579C4.33256 3.40821 3.09721 4.78516 2.38432 5.90821C2.0767 6.39161 1.47612 7.62207 1.26127 8.20801C-0.794392 13.8184 1.46147 20.1465 6.61772 23.2373C8.6392 24.4482 11.0757 25.0732 13.439 24.9805C16.0415 24.8828 18.4585 24.0234 20.5679 22.4463C21.1831 21.9824 22.4087 20.7568 22.8921 20.1172C25.2749 16.9678 26.066 13.0762 25.0845 9.33106C24.8501 8.45215 24.6353 7.88086 24.2056 7.00684C23.5611 5.69336 22.8921 4.76075 21.8179 3.68164C20.7388 2.60743 19.8062 1.93848 18.4927 1.29395C17.2915 0.703129 16.1783 0.351566 14.8794 0.146488C14.1617 0.0341835 12.5601 -0.0195274 11.8765 0.0488319ZM14.6597 0.952152C17.9703 1.44043 20.9292 3.33496 22.7749 6.15235C23.1705 6.75782 23.7124 7.83692 23.9615 8.51563C24.1958 9.15039 24.4449 10.1367 24.5523 10.8643C24.6597 11.5625 24.6744 13.208 24.5816 13.8916C24.3863 15.3223 24.0103 16.5527 23.4048 17.7393C23.1265 18.2959 22.5406 19.2383 22.4771 19.2383C22.4576 19.2383 22.4039 19.1211 22.355 18.9795C22.0425 18.0859 21.2759 16.8115 20.5435 15.9619C19.6109 14.8877 18.2339 13.8672 17.0474 13.374C16.8472 13.291 16.6763 13.2129 16.6665 13.2031C16.6568 13.1934 16.7642 13.0615 16.9058 12.9053C17.4917 12.2656 18.0093 11.3574 18.2193 10.5957C18.732 8.75977 18.1802 6.69922 16.8228 5.36133C16.6128 5.15137 16.3199 4.89258 16.1734 4.78028C15.773 4.48243 14.8941 4.07227 14.3423 3.9209C13.9029 3.80371 13.771 3.78907 12.9996 3.78907C12.2281 3.78907 12.0962 3.80371 11.6568 3.9209C11.105 4.07227 10.2261 4.48243 9.82573 4.78028C9.67924 4.89258 9.38627 5.15137 9.17631 5.36133C7.81889 6.69922 7.26713 8.75977 7.77983 10.5957C7.98979 11.3574 8.50737 12.2656 9.0933 12.9053C9.23491 13.0615 9.34233 13.1934 9.33256 13.2031C9.3228 13.2129 9.1519 13.291 8.9517 13.374C7.731 13.8818 6.30033 14.9561 5.37748 16.0547C4.66459 16.9092 3.94682 18.1201 3.64408 18.9844C3.59526 19.1211 3.54155 19.2383 3.52201 19.2383C3.45854 19.2383 2.8726 18.2959 2.59428 17.7393C1.98881 16.5527 1.61284 15.3223 1.41752 13.8916C1.32475 13.208 1.3394 11.5625 1.44682 10.8643C1.63725 9.6045 1.98393 8.4961 2.55033 7.34375C4.33256 3.72559 7.83842 1.30371 11.9009 0.883793C12.521 0.815434 13.9956 0.854496 14.6597 0.952152ZM13.8345 4.66797C15.4849 4.98047 16.8667 6.20606 17.3648 7.80762C18.1363 10.2734 16.6812 12.9053 14.1714 13.584C13.5708 13.7451 12.4283 13.7451 11.8277 13.584C9.31791 12.9053 7.86283 10.2734 8.63432 7.80762C9.31791 5.61036 11.5884 4.24317 13.8345 4.66797ZM10.5484 13.9844C11.3394 14.3799 12.1158 14.5654 12.9996 14.5654C13.8833 14.5654 14.6597 14.3799 15.4507 13.9844C15.6314 13.8916 15.8169 13.8184 15.8658 13.8184C15.9146 13.8184 16.1929 13.916 16.481 14.0332C18.9322 15.0342 20.8706 17.124 21.7105 19.668L21.8472 20.0684L21.6958 20.2539C21.5054 20.4981 20.729 21.2354 20.2945 21.5918C19.0982 22.5635 17.4624 23.3936 15.9634 23.7744C13.9419 24.292 12.0572 24.292 10.0357 23.7744C8.54155 23.3936 6.89604 22.5635 5.70463 21.5918C5.27006 21.2354 4.49369 20.4981 4.30326 20.2539L4.1519 20.0684L4.28862 19.668C5.00639 17.4951 6.52983 15.6397 8.54155 14.5068C9.0103 14.2383 9.98198 13.8184 10.1333 13.8184C10.1822 13.8184 10.3677 13.8916 10.5484 13.9844Z" fill="#020202"/>
</svg>
