<svg width="26" height="25" viewBox="0 0 22 25" fill="none" xmlns="http://www.w3.org/2000/svg">
<path d="M21.5335 18.6766C21.2981 17.9707 21.0791 17.2597 20.8476 16.5525C20.7976 16.4005 20.7943 16.2622 20.845 16.1076C21.0784 15.4011 21.2955 14.6893 21.5315 13.9841C21.616 13.7317 21.5673 13.5536 21.3476 13.3964C20.7352 12.958 20.1325 12.5046 19.5221 12.0623C19.4116 11.982 19.3433 11.89 19.301 11.7583C19.0709 11.0341 18.8297 10.3133 18.597 9.59044C18.5378 9.40582 18.4403 9.25904 18.2381 9.24534C18.1042 9.23621 18.1088 9.16771 18.1075 9.07181C18.0997 8.5036 17.9631 7.96736 17.7278 7.45068C17.2747 6.45713 16.8326 5.45835 16.3801 4.46415C16.308 4.30497 16.2755 4.1471 16.2761 3.97226C16.2813 3.00415 16.2631 2.03604 16.2846 1.06858C16.2956 0.551902 16.1201 0.189186 15.6312 0C11.286 0 6.94005 0 2.59478 0C2.11111 0.212672 1.94664 0.588435 1.95899 1.10772C1.98304 2.09149 1.96484 3.07591 1.96744 4.06033C1.96809 4.18493 1.94534 4.29714 1.89333 4.41065C1.43566 5.41986 0.984488 6.43168 0.526818 7.44024C0.348041 7.83362 0.192667 8.23939 0.173164 8.66995C0.117256 9.89706 0.156262 11.1261 0.150411 12.3539C0.149761 12.5059 0.217371 12.6194 0.351291 12.6892C0.617182 12.8288 0.886323 12.6292 0.887623 12.2854C0.890224 11.2357 0.891524 10.1867 0.887623 9.13705C0.885673 8.67452 0.982538 8.23809 1.17302 7.81796C1.61638 6.83746 2.05975 5.85695 2.49207 4.87188C2.55968 4.71792 2.64289 4.68138 2.80022 4.68138C7.02391 4.68595 11.247 4.68595 15.4707 4.68138C15.6228 4.68138 15.6936 4.72444 15.756 4.86535C16.1942 5.8563 16.6428 6.84333 17.0887 7.83101C17.2643 8.22047 17.3455 8.63016 17.3702 9.0555C17.378 9.19446 17.339 9.23882 17.1986 9.23621C16.7526 9.22708 16.3067 9.22512 15.8614 9.23295C15.7151 9.23556 15.5987 9.19641 15.4824 9.11096C14.8752 8.66539 14.2608 8.22895 13.6543 7.78143C13.4475 7.62878 13.2668 7.63204 13.0601 7.78469C12.4607 8.2283 11.8522 8.65886 11.2522 9.10052C11.1286 9.1912 11.0077 9.2336 10.853 9.23295C10.1073 9.22838 9.36167 9.23817 8.616 9.23425C8.35206 9.23295 8.19279 9.33863 8.11738 9.59762C8.01791 9.93946 7.8983 10.2748 7.79233 10.6147C7.75722 10.7262 7.71757 10.7862 7.5817 10.7406C7.14873 10.5957 6.72357 10.6349 6.31075 10.8326C6.30555 10.6127 6.314 10.5905 6.51228 10.3041C6.64945 10.1052 6.6293 9.89118 6.46093 9.76267C6.2945 9.6348 6.10597 9.66025 5.94345 9.83443C5.75687 10.0347 5.6184 10.2741 5.58329 10.539C5.55534 10.7517 5.47863 10.7386 5.32195 10.6969C5.14252 10.6492 4.95725 10.6349 4.76872 10.6675C3.81307 10.8319 3.32095 11.3936 3.25398 12.4237C3.24423 12.5731 3.22278 12.6377 3.06676 12.5789C2.91138 12.5209 2.76121 12.5639 2.61819 12.6213C1.95054 12.8882 1.54227 13.6129 1.62549 14.3762C1.697 15.0325 2.28014 15.694 2.94649 15.7501C3.83127 15.8251 4.72451 15.8838 5.608 15.6992C5.65415 15.6894 5.71851 15.6477 5.73151 15.7077C5.78937 15.9686 5.98375 16.1989 5.88494 16.4957C5.67821 17.1168 5.47602 17.7398 5.2862 18.3667C5.24264 18.5109 5.18413 18.5533 5.03721 18.5527C3.72401 18.5468 2.41081 18.5455 1.09761 18.5533C0.924679 18.5546 0.886973 18.507 0.887623 18.3393C0.894775 16.9726 0.891524 15.6059 0.891524 14.2399C0.891524 14.1668 0.898675 14.0918 0.886323 14.0207C0.837566 13.7362 0.509266 13.6064 0.288232 13.7799C0.14781 13.8902 0.151061 14.0455 0.151061 14.2014C0.151061 16.9589 0.149761 19.7165 0.151711 22.474C0.152361 23.1055 0.482612 23.4304 1.11191 23.4304C4.3546 23.4304 7.59665 23.4311 10.8393 23.4278C10.9921 23.4278 11.115 23.465 11.2398 23.5563C11.8281 23.9869 12.423 24.409 13.0152 24.8343C13.3214 25.0541 13.4053 25.0561 13.7056 24.8389C14.3031 24.4063 14.9012 23.9758 15.4941 23.538C15.6052 23.4558 15.7151 23.4245 15.851 23.4252C16.5966 23.4278 17.3423 23.4239 18.088 23.4206C18.4046 23.4193 18.5034 23.3476 18.6009 23.0481C18.8297 22.3488 19.0599 21.6501 19.2841 20.9495C19.3355 20.789 19.4168 20.6683 19.5578 20.5678C20.1579 20.1392 20.7456 19.6936 21.3449 19.2644C21.5595 19.1078 21.6186 18.9317 21.5335 18.6766ZM13.6198 3.22139C14.1952 3.22269 14.7711 3.22856 15.3465 3.21747C15.5123 3.21421 15.5428 3.26901 15.5415 3.42166C15.5376 3.954 15.5435 3.954 15.0214 3.954C13.0516 3.954 11.0818 3.954 9.11203 3.954C7.06942 3.954 5.02681 3.95139 2.98419 3.95791C2.77746 3.95856 2.6884 3.92855 2.7001 3.68913C2.7222 3.22269 2.7066 3.22204 3.17142 3.22204C5.9922 3.22204 8.81298 3.22204 11.6338 3.22204C11.6988 3.22204 11.7638 3.22465 11.8281 3.22139C12.0485 3.21095 12.2059 3.0609 12.2091 2.85998C12.2124 2.6597 12.055 2.50052 11.8366 2.49139C11.6988 2.48552 11.561 2.49008 11.4231 2.49008C8.61015 2.49008 5.79782 2.48617 2.98484 2.49661C2.74171 2.49726 2.6897 2.43007 2.7014 2.20109C2.7209 1.79531 2.7131 1.38758 2.70465 0.98116C2.70075 0.789364 2.77486 0.729346 2.96339 0.729346C7.07332 0.73326 11.1826 0.73326 15.2925 0.729346C15.485 0.729346 15.5474 0.791973 15.5422 0.983117C15.5311 1.42216 15.5292 1.86185 15.5435 2.3009C15.5493 2.47443 15.4824 2.49465 15.3367 2.49269C14.7614 2.48552 14.1854 2.48878 13.6101 2.49008C13.3338 2.49074 13.1608 2.63687 13.1654 2.86063C13.1687 3.08439 13.3383 3.22074 13.6198 3.22139ZM5.06776 15.0397C4.76807 15.0475 4.46837 15.041 4.16867 15.041C4.16867 15.0403 4.16867 15.0403 4.16867 15.0397C3.85273 15.0397 3.53678 15.0455 3.22148 15.0384C2.81452 15.0286 2.48167 14.7605 2.37115 14.3671C2.27103 14.0102 2.44461 13.5855 2.77421 13.3748C2.83727 13.3344 2.89968 13.2978 2.97769 13.3233C3.23058 13.4055 3.48217 13.489 3.73506 13.5712C3.83517 13.6038 3.81242 13.6664 3.79292 13.7454C3.72271 14.0259 3.79032 14.1825 4.00355 14.262C4.21223 14.3397 4.37801 14.2555 4.48592 13.9887C4.53533 13.8667 4.58084 13.8752 4.69916 13.8935C5.11327 13.9574 5.2992 14.1942 5.38566 14.5954C5.47538 15.0142 5.49488 15.0292 5.06776 15.0397ZM5.59304 13.2385C5.47732 13.3252 5.38176 13.352 5.24134 13.2972C4.9566 13.1863 4.66275 13.0995 4.37281 13.0017C3.99705 12.8745 3.99705 12.8738 3.99705 12.4876C3.9964 11.7596 4.41766 11.346 5.08987 11.4125C5.32 11.4353 5.50138 11.5443 5.65285 11.7119C5.92589 12.0133 6.09622 12.0153 6.36471 11.7185C6.63125 11.4236 7.01871 11.3264 7.38147 11.4503C7.46533 11.479 7.49588 11.4999 7.46663 11.5952C7.40422 11.7967 7.33596 11.9748 7.14288 12.1073C6.61565 12.4706 6.10402 12.8542 5.59304 13.2385ZM7.73837 22.6985C5.55859 22.6985 3.3788 22.6952 1.19967 22.7037C0.957834 22.7043 0.873321 22.643 0.883073 22.3912C0.902576 21.9039 0.896075 21.4152 0.884373 20.9279C0.881122 20.7727 0.927279 20.7407 1.07355 20.7427C1.67294 20.7511 2.27298 20.7472 2.87238 20.7459C3.14932 20.7453 3.3203 20.6037 3.3203 20.3799C3.3203 20.1562 3.14997 20.0153 2.87238 20.0146C2.27298 20.0133 1.67294 20.0094 1.07355 20.0179C0.926629 20.0198 0.883723 19.9872 0.883723 19.8326C0.885023 19.282 0.878522 19.282 1.43501 19.282C2.691 19.282 3.94699 19.2846 5.20298 19.2787C5.35056 19.2781 5.46432 19.3179 5.57874 19.4066C5.83098 19.603 6.09167 19.7876 6.39917 20.014C5.80368 20.014 5.27254 20.0133 4.74076 20.014C4.44757 20.0146 4.29414 20.1353 4.28829 20.3682C4.28179 20.6148 4.43717 20.7453 4.74206 20.7459C5.55209 20.7466 6.36276 20.7498 7.17278 20.7427C7.31906 20.7414 7.37887 20.7838 7.42242 20.9279C7.6012 21.5144 7.79818 22.095 7.99516 22.6991C7.8957 22.6985 7.81703 22.6985 7.73837 22.6985ZM20.0844 16.589C20.3022 17.2407 20.4985 17.8996 20.7183 18.5501C20.7735 18.7138 20.7345 18.7921 20.6038 18.886C20.05 19.2814 19.5065 19.691 18.9545 20.089C18.8037 20.1979 18.7036 20.3271 18.647 20.5078C18.4423 21.1634 18.2186 21.8132 18.0164 22.4701C17.9657 22.6339 17.8838 22.6776 17.7239 22.6724C17.3761 22.6613 17.027 22.6691 16.6785 22.6691C16.6785 22.6737 16.6785 22.6782 16.6785 22.6828C16.5167 22.6828 16.3522 22.7017 16.1929 22.6795C15.6332 22.6019 15.1781 22.7898 14.7523 23.1499C14.3635 23.4787 13.9273 23.7501 13.521 24.0586C13.3955 24.1539 13.3156 24.1474 13.1908 24.0547C12.644 23.6496 12.0849 23.2621 11.5376 22.8583C11.3789 22.7415 11.219 22.6919 11.022 22.6945C10.3414 22.7043 9.66071 22.6939 8.98006 22.7017C8.82989 22.7037 8.75838 22.6704 8.70962 22.5112C8.50094 21.8315 8.2682 21.1589 8.05367 20.4804C8.00426 20.3245 7.9256 20.2103 7.79363 20.1151C7.22284 19.7015 6.65986 19.2774 6.08777 18.8664C5.96945 18.7816 5.9415 18.7158 5.99025 18.5709C6.21584 17.8964 6.42257 17.2153 6.64295 16.5388C6.69041 16.392 6.68911 16.2589 6.64165 16.1128C6.43037 15.4676 6.23924 14.8152 6.01366 14.1753C5.93565 13.9535 5.9922 13.8504 6.16773 13.7264C6.71056 13.3442 7.23844 12.9403 7.77803 12.5522C7.9165 12.4524 8.00426 12.3363 8.05562 12.1712C8.2591 11.5234 8.47948 10.8815 8.68231 10.2337C8.73822 10.0556 8.81363 9.9773 9.01777 9.98121C9.68997 9.99295 10.3628 9.97469 11.035 9.97599C11.221 9.97665 11.3757 9.92641 11.5271 9.81421C12.0804 9.40387 12.6453 9.01049 13.1966 8.5982C13.3266 8.50099 13.4046 8.51404 13.5256 8.60407C14.0651 9.00527 14.6158 9.39147 15.1547 9.79398C15.3263 9.92185 15.5012 9.9786 15.7144 9.9773C16.3951 9.97338 17.0757 9.98774 17.7564 9.98382C17.904 9.98317 17.9677 10.0334 18.0106 10.1704C18.2193 10.8332 18.4403 11.4927 18.6503 12.1556C18.7042 12.3258 18.7966 12.453 18.9415 12.5581C19.5065 12.9658 20.0623 13.3859 20.6298 13.7904C20.7527 13.8778 20.7683 13.958 20.7248 14.0905C20.5076 14.7507 20.3022 15.4154 20.0825 16.0743C20.022 16.2518 20.0252 16.4109 20.0844 16.589Z" fill="#020202"/>
<path d="M12.8596 6.08458C12.6541 5.64097 12.2823 5.43873 11.8064 5.43482C10.9145 5.42764 10.0232 5.43286 9.13125 5.43286C8.25557 5.43286 7.38054 5.43352 6.50486 5.43221C6.34948 5.43221 6.19736 5.44722 6.05044 5.49614C5.54856 5.6625 5.21506 6.17982 5.27942 6.68736C5.35288 7.26667 5.81575 7.69462 6.43139 7.69788C8.23087 7.70832 10.031 7.7044 11.8305 7.69853C12.1854 7.69723 12.4968 7.56284 12.7204 7.27449C13.0045 6.90786 13.0533 6.5034 12.8596 6.08458ZM11.7752 6.94505C10.0095 6.94701 8.24322 6.94701 6.47755 6.94505C6.18371 6.9444 6.01533 6.79696 6.01858 6.56081C6.02183 6.32465 6.18826 6.18961 6.4873 6.18961C7.36234 6.1883 8.23737 6.18896 9.11175 6.18896C9.99459 6.18896 10.8774 6.1883 11.7609 6.18961C12.0626 6.19026 12.2251 6.32008 12.2296 6.5582C12.2335 6.79696 12.0684 6.9444 11.7752 6.94505Z" fill="#020202"/>
<path d="M16.6671 16.1331C16.7542 15.7449 16.8244 15.4259 16.8979 15.1075C16.9564 14.8557 17.1391 14.7148 17.3413 14.7605C17.5604 14.8101 17.6767 14.9869 17.6208 15.2478C17.4537 16.0306 17.2711 16.8109 17.0975 17.5924C17.0539 17.7875 16.9278 17.8931 16.7425 17.8997C16.5521 17.9062 16.4292 17.7862 16.37 17.6068C16.2322 17.1932 16.0963 16.7796 15.9585 16.3627C15.8786 16.3842 15.8844 16.4553 15.8656 16.5108C15.7407 16.8781 15.6127 17.2447 15.4917 17.6133C15.4306 17.7986 15.3045 17.9075 15.1173 17.8997C14.9184 17.8912 14.8013 17.7614 14.7571 17.563C14.5868 16.7887 14.4119 16.0156 14.241 15.2419C14.1902 15.0136 14.2975 14.829 14.5088 14.7683C14.709 14.7109 14.8937 14.8251 14.9554 15.0651C15.0419 15.4011 15.1147 15.741 15.2064 16.135C15.3325 15.756 15.4423 15.4324 15.547 15.1069C15.6088 14.9144 15.7102 14.7572 15.9273 14.7559C16.1542 14.7546 16.2595 14.9099 16.3219 15.1167C16.4194 15.4383 16.5371 15.7534 16.6671 16.1331Z" fill="#020202"/>
<path d="M9.80882 16.3659C9.80882 16.7292 9.81207 17.0926 9.80752 17.4566C9.80427 17.7339 9.6554 17.9087 9.43632 17.9048C9.21593 17.9009 9.06901 17.7235 9.06836 17.4482C9.06641 16.6999 9.06966 15.951 9.06641 15.2027C9.06576 14.9926 9.13662 14.8361 9.34595 14.7708C9.55334 14.7069 9.6827 14.8243 9.79257 14.9789C10.1046 15.4193 10.4167 15.8596 10.771 16.36C10.771 15.9125 10.7697 15.5348 10.7716 15.1577C10.7723 14.9783 10.8509 14.8498 11.0226 14.78C11.1708 14.72 11.2897 14.7695 11.4009 14.8648C11.4887 14.9405 11.5095 15.0429 11.5095 15.1512C11.5108 15.9321 11.5101 16.7129 11.5108 17.4945C11.5108 17.6856 11.4341 17.8239 11.2442 17.8826C11.0492 17.9433 10.9185 17.8481 10.8119 17.6987C10.4927 17.2505 10.1742 16.8023 9.85498 16.3541C9.84003 16.3581 9.82443 16.362 9.80882 16.3659Z" fill="#020202"/>
<path d="M11.9866 16.3033C11.9866 15.9373 11.9847 15.5713 11.9873 15.206C11.9899 14.9 12.1283 14.7558 12.4287 14.7506C12.7206 14.7461 13.0118 14.7467 13.3037 14.7506C13.5852 14.7539 13.7445 14.8935 13.7445 15.1264C13.7445 15.3606 13.5917 15.493 13.3037 15.5028C13.1581 15.5074 13.0118 15.5061 12.8662 15.5035C12.6452 15.4995 12.744 15.6672 12.7303 15.767C12.7167 15.8688 12.6991 15.9869 12.8747 15.9706C12.9949 15.9595 13.1178 15.9666 13.2387 15.9686C13.4981 15.9738 13.6678 16.1121 13.6788 16.3261C13.6905 16.544 13.517 16.7019 13.2465 16.7156C13.1575 16.7201 13.0684 16.7162 12.9793 16.7169C12.7479 16.7175 12.6471 16.8695 12.729 17.0861C12.7615 17.1729 12.8305 17.1513 12.8903 17.1526C13.0521 17.1559 13.2153 17.1455 13.3759 17.1585C13.6125 17.1781 13.7445 17.319 13.7438 17.5304C13.7438 17.7463 13.5943 17.8983 13.3518 17.9048C13.0359 17.9133 12.7199 17.9127 12.404 17.9055C12.1329 17.899 11.9905 17.7496 11.9873 17.4749C11.9834 17.0841 11.9866 16.694 11.9866 16.3033Z" fill="#020202"/>
</svg>
