<svg width="26" height="25" viewBox="0 0 26 25" fill="none" xmlns="http://www.w3.org/2000/svg">
<path d="M12.6068 0.107422C12.3924 0.219727 0.766397 10.9375 0.613222 11.1621C0.373247 11.5088 0.531528 12.0752 0.929784 12.29C1.11359 12.3926 1.19529 12.4023 2.01222 12.4023H2.89043V18.2373C2.89043 22.207 2.90575 24.1455 2.94659 24.3115C3.01297 24.6143 3.15083 24.79 3.42144 24.9072C3.62056 24.9902 3.8248 25 6.86278 25C9.49229 25 10.1254 24.9854 10.2582 24.9316C10.4573 24.8535 10.6768 24.6338 10.7483 24.4482C10.7892 24.3555 10.8045 23.1836 10.8045 20.8691V17.4316H13H15.1955V20.8691C15.1955 23.1836 15.2108 24.3555 15.2517 24.4482C15.3232 24.6338 15.5427 24.8535 15.7418 24.9316C15.8746 24.9854 16.5077 25 19.1372 25C22.1752 25 22.3794 24.9902 22.5786 24.9072C22.8492 24.79 22.987 24.6143 23.0534 24.3115C23.0943 24.1455 23.1096 22.207 23.1096 18.2373V12.4023H23.9929C24.8047 12.4023 24.8864 12.3926 25.0702 12.29C25.4685 12.0752 25.6268 11.5088 25.3868 11.1621C25.2336 10.9375 13.6076 0.219727 13.3932 0.107422C13.2808 0.0488281 13.1021 0 13 0C12.8979 0 12.7192 0.0488281 12.6068 0.107422Z" fill="#020202"/>
</svg>
