<svg width="26" height="25" viewBox="0 0 25 25" fill="none" xmlns="http://www.w3.org/2000/svg">

<path d="M7.96621 20.1711C7.00939 20.1711 6.23926 20.949 6.23926 21.9059C6.23926 22.8627 7.01716 23.6406 7.97399 23.6406C8.93082 23.6406 9.70095 22.8627 9.70095 21.9059C9.69317 20.949 8.91526 20.1711 7.96621 20.1711ZM7.96621 22.9405C7.39056 22.9405 6.93159 22.4737 6.93159 21.8981C6.93159 21.3224 7.39834 20.8635 7.97399 20.8635C8.54964 20.8635 9.00861 21.3302 9.00861 21.9059C9.00083 22.4815 8.53408 22.9405 7.96621 22.9405Z" fill="#020202"/>
<path d="M19.8285 20.1711C18.8717 20.1711 18.0938 20.949 18.0938 21.9059C18.0938 22.8627 18.8717 23.6406 19.8285 23.6406C20.7853 23.6406 21.5632 22.8627 21.5632 21.9059C21.5554 20.949 20.7853 20.1711 19.8285 20.1711ZM19.8285 22.9405C19.2528 22.9405 18.7939 22.4737 18.7861 21.9059C18.7861 21.3302 19.2528 20.8713 19.8207 20.8635C20.3964 20.8635 20.8631 21.3302 20.8631 21.8981C20.8631 22.4815 20.4041 22.9405 19.8285 22.9405Z" fill="#020202"/>
<path d="M5.71762 16.7561L8.23804 15.3248H13.8934C14.718 15.3248 15.4259 14.7491 15.5893 13.9401H19.1988C20.3034 13.9401 21.2758 13.1933 21.548 12.1198L23.625 3.99066C23.6717 3.80397 23.5628 3.61727 23.3761 3.57059C23.345 3.56282 23.3217 3.56282 23.2905 3.56282H6.29327L6.11435 2.8627C5.6865 1.18242 4.1618 0 2.42707 0H1.0424C0.466744 0 0 0.466744 0 1.03462C0 1.60249 0.466744 2.07701 1.03462 2.07701H2.41929C3.21276 2.07701 3.90509 2.61377 4.09957 3.37612L6.76001 13.7767L4.69078 14.9514C3.52392 15.6126 3.11163 17.0906 3.77285 18.2497C4.2007 19.0121 5.00972 19.4788 5.88098 19.4788H21.2058C21.7814 19.4788 22.2481 19.0121 22.2481 18.4442C22.2481 17.8685 21.7814 17.4018 21.2135 17.4018H5.88876C5.69428 17.4018 5.5387 17.2462 5.5387 17.0595C5.5387 16.935 5.60871 16.8184 5.71762 16.7561ZM18.5531 10.0194H16.4216L16.5539 7.48347H18.942L18.5531 10.0194ZM19.6422 7.47569H22.0148L21.3691 10.0117H19.2532L19.6422 7.47569ZM18.4442 10.7118L18.0552 13.2478H16.2583L16.3905 10.7118H18.4442ZM15.7293 10.0194H13.5978L13.4656 7.48347H15.8538L15.7293 10.0194ZM16.585 6.78335L16.7172 4.24737H19.4321L19.0432 6.78335H16.585ZM15.8926 6.78335H13.4345L13.3022 4.24737H16.0249L15.8926 6.78335ZM12.7343 6.78335H11.3652C11.1707 6.78335 11.0229 6.93893 11.0229 7.12563C11.0229 7.32011 11.1785 7.47569 11.3652 7.47569H12.7732L12.9055 10.0117H10.7818L9.89498 4.23959H12.6099L12.7343 6.78335ZM10.0739 10.0194H7.94243L7.29677 7.47569H9.69273L10.0739 10.0194ZM10.1828 10.7118L10.5718 13.2478H8.77479L8.12135 10.7118H10.1828ZM11.2719 13.2478L10.8829 10.7118H12.9366L13.0688 13.2478H11.2719ZM13.7612 13.2478L13.6289 10.7118H15.6904L15.5581 13.2478H13.7612ZM20.8713 11.9487C20.6768 12.7188 19.9844 13.2478 19.191 13.2478H18.7553L19.1443 10.7118H21.1902L20.8713 11.9487ZM22.1937 6.78335H19.7511L20.14 4.24737H22.8471L22.1937 6.78335ZM9.19486 4.24737L9.58382 6.78335H7.11785L6.46441 4.24737H9.19486ZM2.42707 1.38468H1.0424C0.847919 1.38468 0.700117 1.22909 0.700117 1.0424C0.700117 0.855698 0.855698 0.692338 1.0424 0.692338H2.42707C3.13497 0.692338 3.81952 0.933489 4.37184 1.3769L3.87398 1.86698C3.45391 1.55581 2.94827 1.38468 2.42707 1.38468ZM5.88876 18.0941H21.2135C21.408 18.0941 21.5636 18.2497 21.5636 18.4364C21.5636 18.6309 21.408 18.7865 21.2213 18.7865H5.88876C4.93193 18.7865 4.15403 18.0086 4.15403 17.0595C4.15403 16.4372 4.48852 15.8615 5.03306 15.5504L7.32789 14.2513C7.46791 14.1735 7.53014 14.0179 7.49125 13.8623L4.76857 3.20498C4.69078 2.90159 4.55076 2.61377 4.35628 2.35706L4.86192 1.86698C5.13419 2.20926 5.33644 2.60599 5.44535 3.03384L8.16803 13.6834C8.20692 13.839 8.34695 13.9401 8.50253 13.9401H14.8736C14.7258 14.3524 14.3368 14.6324 13.8934 14.6324H8.14469C8.08246 14.6324 8.028 14.648 7.97355 14.6791L5.37534 16.1571C4.87748 16.4372 4.69856 17.0673 4.97861 17.5729C5.15753 17.8919 5.50758 18.1019 5.88876 18.0941Z" fill="#020202"/>
</svg>
