<?xml version="1.0"?>
<svg xmlns="http://www.w3.org/2000/svg" xmlns:xlink="http://www.w3.org/1999/xlink" version="1.1" id="Capa_1" x="0px" y="0px" viewBox="0 0 480 480" style="enable-background:new 0 0 480 480;" xml:space="preserve" width="512px" height="512px" class=""><g><g>
	<g>
		<g>
			<path d="M459.352,66.4L357.048,33.256c-2.447-0.846-5.019-1.271-7.608-1.256H348L326.4,3.2c-1.299-1.732-3.244-2.863-5.392-3.136     c-0.337,0-0.674,0.024-1.008,0.072V0H160v0.136c-0.334-0.048-0.671-0.072-1.008-0.072c-2.148,0.273-4.093,1.404-5.392,3.136     L132,32h-1.44c-2.524-0.02-5.033,0.383-7.424,1.192L20.176,66.56C7.964,71.334-0.053,83.128,0,96.24V224c0,4.418,3.582,8,8,8h72     v240c0,4.418,3.582,8,8,8h304c4.418,0,8-3.582,8-8V232h72c4.418,0,8-3.582,8-8V96.24C480.007,82.963,471.78,71.074,459.352,66.4z      M333.176,38.912L272.32,93.008L252,72.664L318.576,19.4L333.176,38.912z M297.192,16L240,61.752L182.808,16H297.192z      M161.448,19.4L228,72.664l-20.32,20.344l-60.856-54.096L161.448,19.4z M464,216h-64v-48h-16v296H96V168H80v48H16V96.24     c-0.067-6.376,3.726-12.16,9.6-14.64l102.648-33.256c0.747-0.239,1.528-0.355,2.312-0.344h2.4l69.728,61.984     c3.167,2.81,7.975,2.666,10.968-0.328L240,83.312l26.344,26.344c2.993,2.994,7.801,3.138,10.968,0.328L347.04,48h2.4     c0.847-0.008,1.688,0.13,2.488,0.408L453.944,81.44c6.087,2.383,10.083,8.263,10.056,14.8V216z" data-original="#000000" class="active-path" data-old_color="#000000" fill="#062254"/>
			<path d="M344,168h-48c-4.418,0-8,3.582-8,8v48c0,13.255,10.745,24,24,24h16c13.255,0,24-10.745,24-24v-48     C352,171.582,348.419,168,344,168z M336,224c0,4.418-3.582,8-8,8h-16c-4.418,0-8-3.582-8-8v-40h32V224z" data-original="#000000" class="active-path" data-old_color="#000000" fill="#062254"/>
			<rect x="232" y="128" width="16" height="16" data-original="#000000" class="active-path" data-old_color="#000000" fill="#062254"/>
			<rect x="232" y="176" width="16" height="16" data-original="#000000" class="active-path" data-old_color="#000000" fill="#062254"/>
		</g>
	</g>
</g></g> </svg>
