<svg id="Group_3052" data-name="Group 3052" xmlns="http://www.w3.org/2000/svg" width="76.331" height="56.178" viewBox="0 0 76.331 56.178">
  <g id="Group_264" data-name="Group 264" transform="translate(5.405)">
    <path id="Path_234" data-name="Path 234" d="M765.316,4353.526H702.745a1.476,1.476,0,0,1-1.475-1.478v-40.564a4.58,4.58,0,0,1,4.575-4.576h57.146a3.806,3.806,0,0,1,3.8,3.8v41.339A1.476,1.476,0,0,1,765.316,4353.526Zm-61.095-2.952H763.84V4310.71a.851.851,0,0,0-.85-.851H705.845a1.627,1.627,0,0,0-1.624,1.625Z" transform="translate(-701.27 -4306.908)" fill="#062254"/>
  </g>
  <g id="Group_265" data-name="Group 265" transform="translate(13.177 7.234)">
    <path id="Path_235" data-name="Path 235" d="M762.94,4353.381H715.915a1.476,1.476,0,0,1-1.475-1.475v-31.265a1.475,1.475,0,0,1,1.475-1.476H762.94a1.474,1.474,0,0,1,1.476,1.476v31.265A1.476,1.476,0,0,1,762.94,4353.381Zm-45.55-2.95h44.075v-28.313H717.39Z" transform="translate(-714.439 -4319.166)" fill="#062254"/>
  </g>
  <g id="Group_266" data-name="Group 266" transform="translate(0 43.667)">
    <path id="Path_236" data-name="Path 236" d="M762.187,4393.405h-63.82a6.263,6.263,0,0,1-6.256-6.257v-4.779a1.474,1.474,0,0,1,1.475-1.475h73.38a1.474,1.474,0,0,1,1.476,1.475v4.779A6.263,6.263,0,0,1,762.187,4393.405Zm-67.124-9.561v3.3a3.309,3.309,0,0,0,3.3,3.307h63.82a3.309,3.309,0,0,0,3.3-3.307v-3.3Z" transform="translate(-692.112 -4380.895)" fill="#062254"/>
  </g>
  <g id="Group_267" data-name="Group 267" transform="translate(25.192 48.446)">
    <path id="Path_237" data-name="Path 237" d="M759.269,4391.944h-23a1.476,1.476,0,1,1,0-2.951h23a1.476,1.476,0,0,1,0,2.951Z" transform="translate(-734.797 -4388.993)" fill="#062254"/>
  </g>
</svg>
