<?xml version="1.0"?>
<svg xmlns="http://www.w3.org/2000/svg" height="512px" viewBox="0 0 128 128" width="512px"><g><g><path d="m92.559 103.036a202.617 202.617 0 0 1 0-38.073l.489-5.168a13.625 13.625 0 0 0 -6.348-12.895 1.807 1.807 0 0 0 .049-.4v-6a1.751 1.751 0 0 0 -1.749-1.75h-2.75v-1.69a7.744 7.744 0 0 0 -3.5-6.473v-1.557a5.852 5.852 0 0 0 -5.85-5.84 2.343 2.343 0 0 1 -2.34-2.34c0-.044 0-.088 0-.175l.59-8.227a7.172 7.172 0 1 0 -14.32-.528c0 .172 0 .358.014.525l.591 8.23a2.343 2.343 0 0 1 -2.335 2.515 5.847 5.847 0 0 0 -5.85 5.84v1.557a7.744 7.744 0 0 0 -3.5 6.473v1.69h-2.75a1.751 1.751 0 0 0 -1.75 1.75v6a1.807 1.807 0 0 0 .049.4 13.625 13.625 0 0 0 -6.347 12.9l.489 5.169a202.617 202.617 0 0 1 0 38.073l-.489 5.168a13.751 13.751 0 0 0 13.689 15.04h30.718a13.751 13.751 0 0 0 13.689-15.045zm-39.809-74.006a2.347 2.347 0 0 1 2.35-2.34 5.844 5.844 0 0 0 5.826-6.265l-.591-8.237c-.007-.086-.005-.181-.005-.268a3.674 3.674 0 0 1 3.67-3.67 3.678 3.678 0 0 1 3.665 3.95l-.587 8.185c-.015.157-.018.313-.018.47a5.847 5.847 0 0 0 5.84 5.84 2.348 2.348 0 0 1 2.35 2.34v.318c-.247-.024-.5-.038-.75-.038h-21c-.253 0-.5.014-.75.038zm-3.5 8.03a4.255 4.255 0 0 1 4.25-4.25h21a4.255 4.255 0 0 1 4.25 4.25v1.69h-29.5zm-4.5 7.69v-2.5h38.5v2.5zm44.325 58.616.488 5.169a10.249 10.249 0 0 1 -10.2 11.215h-30.722a10.249 10.249 0 0 1 -10.2-11.216l.488-5.168a206.071 206.071 0 0 0 0-38.732l-.488-5.169a10.249 10.249 0 0 1 10.2-11.215h30.718a10.249 10.249 0 0 1 10.2 11.216l-.488 5.168a206.071 206.071 0 0 0 .004 38.732z" data-original="#000000" class="active-path" data-old_color="#000000" fill="#062254"/><path d="m44.067 87.417a1.743 1.743 0 0 0 -1.793 1.707c-.063 2.557-.173 5.142-.33 7.681a1.75 1.75 0 0 0 1.639 1.854h.109a1.75 1.75 0 0 0 1.745-1.643c.16-2.582.272-5.21.336-7.81a1.75 1.75 0 0 0 -1.706-1.789z" data-original="#000000" class="active-path" data-old_color="#000000" fill="#062254"/><path d="m64 62.346a1.751 1.751 0 0 0 -1.75 1.75v39.804a1.75 1.75 0 0 0 3.5 0v-39.8a1.751 1.751 0 0 0 -1.75-1.754z" data-original="#000000" class="active-path" data-old_color="#000000" fill="#062254"/><path d="m76 70.167h-6a1.75 1.75 0 0 0 0 3.5h6a1.75 1.75 0 0 0 0-3.5z" data-original="#000000" class="active-path" data-old_color="#000000" fill="#062254"/><path d="m76 82.25h-6a1.75 1.75 0 0 0 0 3.5h6a1.75 1.75 0 0 0 0-3.5z" data-original="#000000" class="active-path" data-old_color="#000000" fill="#062254"/><path d="m76 94.333h-6a1.75 1.75 0 0 0 0 3.5h6a1.75 1.75 0 0 0 0-3.5z" data-original="#000000" class="active-path" data-old_color="#000000" fill="#062254"/><path d="m70 67.625h3a1.75 1.75 0 0 0 0-3.5h-3a1.75 1.75 0 0 0 0 3.5z" data-original="#000000" class="active-path" data-old_color="#000000" fill="#062254"/><path d="m70 79.708h3a1.75 1.75 0 0 0 0-3.5h-3a1.75 1.75 0 0 0 0 3.5z" data-original="#000000" class="active-path" data-old_color="#000000" fill="#062254"/><path d="m70 91.792h3a1.75 1.75 0 0 0 0-3.5h-3a1.75 1.75 0 0 0 0 3.5z" data-original="#000000" class="active-path" data-old_color="#000000" fill="#062254"/><path d="m73 100.375h-3a1.75 1.75 0 0 0 0 3.5h3a1.75 1.75 0 0 0 0-3.5z" data-original="#000000" class="active-path" data-old_color="#000000" fill="#062254"/></g></g> </svg>
