<?xml version="1.0"?>
<svg xmlns="http://www.w3.org/2000/svg" id="Capa_1" enable-background="new 0 0 512 512" height="512px" viewBox="0 0 512 512" width="512px" class=""><g><g><path d="m436.143 340.08-89.467-37.412h-62.133c-8.943 0-17.456-4.293-22.719-11.41l-181.342-248.369-11.467 5.968c-12.966 6.749-25.3 18.15-36.662 33.887-21.165 29.318-32.353 64.438-32.353 101.565v38.849l61.672 245.108h72.358l.712-151.403c10.866 11.208 20.998 23.214 30.314 35.953l54.561 74.609c17.151 25.566 45.737 40.875 76.539 40.977l215.844.709v-15.089c0-49.948-29.776-94.673-75.857-113.942zm-331.769 38.565h-34.237l-33.162-131.799c24.315 11.515 47.055 25.827 67.819 42.631zm-19.255 59.543-7.414-29.465h26.527l-.139 29.465zm211.137.136c-20.87-.069-40.232-10.481-51.794-27.854l-.184-.277-54.945-75.133c-40.664-55.605-95.563-98.332-159.256-124.064v-26.688c0-30.766 9.22-59.798 26.663-83.959 5.157-7.143 10.391-13.008 15.647-17.541l165.2 226.259c10.964 14.826 28.518 23.677 46.956 23.677h66.098l83.898 35.084c30.14 12.604 51.059 39.6 56.171 71.101z" data-original="#000000" class="active-path" data-old_color="#000000" fill="#062254"/></g></g> </svg>
