<?xml version="1.0"?>
<svg xmlns="http://www.w3.org/2000/svg" height="512px" viewBox="0 0 64 64" width="512px"><g><g id="outline"><path d="m44 12h-1v-2h1a1 1 0 0 0 1-1v-6a1 1 0 0 0 -1-1h-24a1 1 0 0 0 -1 1v6a1 1 0 0 0 1 1h1v2h-1a5.006 5.006 0 0 0 -5 5v40a5.006 5.006 0 0 0 5 5h24a5.006 5.006 0 0 0 5-5v-40a5.006 5.006 0 0 0 -5-5zm-23-8h2v2h2v-2h2v2h2v-2h2v2h2v-2h2v2h2v-2h2v2h2v-2h2v4h-22zm20 6v2h-18v-2zm-24 18.09a5.985 5.985 0 0 1 3.36 1.8l-3.36 2.241zm4.473 3.463a5.945 5.945 0 0 1 0 4.894l-3.673-2.447zm-4.473 4.316 3.36 2.24a5.985 5.985 0 0 1 -3.36 1.801zm0 6.069a8 8 0 0 0 0-15.876v-2.012a10 10 0 0 1 0 19.9zm30 15.062a3 3 0 0 1 -3 3h-24a3 3 0 0 1 -3-3v-5h30zm0-7h-30v-4.051a11.99 11.99 0 0 0 0-23.9v-2.049h30zm0-32h-30v-1a3 3 0 0 1 3-3h24a3 3 0 0 1 3 3z" data-original="#000000" class="active-path" data-old_color="#000000" fill="#062254"/><path d="m31 40h13a1 1 0 0 0 1-1v-16a1 1 0 0 0 -1-1h-13a1 1 0 0 0 -1 1v16a1 1 0 0 0 1 1zm1-16h11v14h-11z" data-original="#000000" class="active-path" data-old_color="#000000" fill="#062254"/><path d="m38 26h-1a3 3 0 0 0 -3 3v4a3 3 0 0 0 3 3h1a3 3 0 0 0 3-3v-1h-2v1a1 1 0 0 1 -1 1h-1a1 1 0 0 1 -1-1v-4a1 1 0 0 1 1-1h1a1 1 0 0 1 1 1v1h2v-1a3 3 0 0 0 -3-3z" data-original="#000000" class="active-path" data-old_color="#000000" fill="#062254"/><path d="m28 42h4v2h-4z" data-original="#000000" class="active-path" data-old_color="#000000" fill="#062254"/><path d="m34 42h11v2h-11z" data-original="#000000" class="active-path" data-old_color="#000000" fill="#062254"/><path d="m25 46h11v2h-11z" data-original="#000000" class="active-path" data-old_color="#000000" fill="#062254"/><path d="m38 46h7v2h-7z" data-original="#000000" class="active-path" data-old_color="#000000" fill="#062254"/><path d="m20 58h4v-2h-3v-2h-2v3a1 1 0 0 0 1 1z" data-original="#000000" class="active-path" data-old_color="#000000" fill="#062254"/><path d="m26 56h2v2h-2z" data-original="#000000" class="active-path" data-old_color="#000000" fill="#062254"/><path d="m30 56h2v2h-2z" data-original="#000000" class="active-path" data-old_color="#000000" fill="#062254"/></g></g> </svg>
