<?xml version="1.0"?>
<svg xmlns="http://www.w3.org/2000/svg" id="Capa_1" enable-background="new 0 0 512.04 512.04" height="512px" viewBox="0 0 512.04 512.04" width="512px"><g><g><path d="m364.434 378c-36.493 32.566-83.542 50.502-132.479 50.502-109.762 0-199.06-89.298-199.06-199.061 0-50.583 19.005-98.804 53.515-135.778 2.826-3.028 2.662-7.773-.366-10.601-3.028-2.825-7.773-2.663-10.601.366-37.11 39.762-57.548 91.617-57.548 146.013 0 57.178 22.266 110.933 62.696 151.363s94.186 62.697 151.363 62.697c52.626 0 103.222-19.288 142.467-54.311 3.091-2.758 3.36-7.499.603-10.589-2.756-3.089-7.497-3.359-10.59-.601z" data-original="#000000" class="active-path" data-old_color="#000000" fill="#062254"/><path d="m377.867 83.063c-3.028 2.826-3.192 7.572-.366 10.601 5.904 6.326 11.476 13.144 16.559 20.262 1.464 2.05 3.77 3.143 6.11 3.143 1.508 0 3.03-.454 4.352-1.397 3.371-2.407 4.152-7.091 1.745-10.462-5.462-7.648-11.45-14.977-17.799-21.779-2.827-3.03-7.572-3.194-10.601-.368z" data-original="#000000" class="active-path" data-old_color="#000000" fill="#062254"/><path d="m361.384 120.812c1.483 1.764 3.606 2.673 5.744 2.673 1.703 0 3.417-.577 4.823-1.76 3.17-2.665 3.579-7.396.913-10.567-8.926-10.615-19.056-20.235-30.108-28.594-3.306-2.499-8.009-1.845-10.506 1.459-2.498 3.304-1.845 8.007 1.459 10.506 10.159 7.681 19.47 16.524 27.675 26.283z" data-original="#000000" class="active-path" data-old_color="#000000" fill="#062254"/><path d="m231.954 413.502c55.066 0 106.824-24.447 142.001-67.073 2.637-3.194 2.185-7.922-1.011-10.558-3.193-2.637-7.921-2.186-10.558 1.011-32.318 39.16-79.859 61.62-130.433 61.62-49.2 0-95.901-21.468-128.131-58.899-2.703-3.14-7.439-3.492-10.577-.79-3.139 2.703-3.492 7.438-.79 10.577 35.083 40.744 85.928 64.112 139.499 64.112z" data-original="#000000" class="active-path" data-old_color="#000000" fill="#062254"/><path d="m130.2 94.528c3.304-2.498 3.957-7.202 1.459-10.506-2.497-3.304-7.202-3.958-10.506-1.459-22.243 16.82-40.673 38.799-53.297 63.564-13.245 25.982-19.961 54.014-19.961 83.314 0 32.581 8.676 64.628 25.088 92.677 1.396 2.384 3.904 3.713 6.48 3.713 1.287 0 2.591-.331 3.781-1.027 3.575-2.093 4.777-6.687 2.686-10.262-15.07-25.753-23.035-55.18-23.035-85.101 0-26.91 6.165-52.649 18.324-76.501 11.601-22.755 28.537-42.954 48.981-58.412z" data-original="#000000" class="active-path" data-old_color="#000000" fill="#062254"/><path d="m57.656 66.046h348.599c6.007 0 10.895-4.888 10.895-10.895v-25.444c-.001-16.381-13.327-29.707-29.708-29.707h-22.719c-4.143 0-7.5 3.357-7.5 7.5s3.357 7.5 7.5 7.5h22.719c8.109 0 14.707 6.598 14.707 14.707v21.339h-340.388v-21.339c0-8.109 6.598-14.707 14.707-14.707h256.292c4.143 0 7.5-3.357 7.5-7.5s-3.357-7.5-7.5-7.5h-256.292c-16.381 0-29.707 13.326-29.707 29.707v25.444c0 6.007 4.888 10.895 10.895 10.895z" data-original="#000000" class="active-path" data-old_color="#000000" fill="#062254"/><path d="m488.814 148.286-5.455-2.535c-21.424-9.956-45.249-14.959-68.851-14.526-23.619.453-47.218 6.387-68.244 17.16-4.337 2.223-6.202 7.461-4.243 11.928l25.569 58.253v39.765c0 10.381 8.445 18.826 18.825 18.826h2.331l6.324 210.989c.401 13.398 11.217 23.895 24.622 23.895 13.404 0 24.22-10.496 24.621-23.895l4.594-153.276c.124-4.141-3.132-7.597-7.272-7.722-4.115-.11-7.598 3.132-7.722 7.272l-4.594 153.276c-.156 5.239-4.386 9.344-9.628 9.344-5.241 0-9.471-4.104-9.627-9.344l-6.31-210.54h31.876l-.759 25.301c-.124 4.14 3.132 7.597 7.272 7.722.076.002.152.003.229.003 4.038 0 7.371-3.212 7.493-7.275l.775-25.833c9.618-.832 17.193-8.914 17.193-18.743v-39.765l25.543-58.194c2.003-4.562-.044-9.983-4.562-12.086zm-39.807 113.87h-62.592c-2.109 0-3.825-1.717-3.825-3.826v-27.364h70.243v27.364c0 2.109-1.716 3.826-3.826 3.826zm4.459-48.178c-.279.635-.459 1.305-.553 1.988h-25.72v-36.706c0-4.143-3.357-7.5-7.5-7.5s-7.5 3.357-7.5 7.5v36.706h-29.682c-.094-.684-.275-1.354-.553-1.988l-23.976-54.623c6.341-2.942 12.913-5.401 19.629-7.376l4.608 19.875c.804 3.465 3.889 5.808 7.3 5.808.561 0 1.131-.063 1.701-.195 4.035-.936 6.548-4.966 5.612-9.001l-4.628-19.958c7.46-1.364 15.024-2.139 22.591-2.285 10.786-.202 21.616.859 32.191 3.115l-4.435 19.128c-.936 4.035 1.577 8.065 5.612 9.001.57.132 1.14.195 1.701.195 3.411 0 6.496-2.343 7.3-5.808l4.316-18.614c5.303 1.731 10.504 3.767 15.555 6.115l.337.156z" data-original="#000000" class="active-path" data-old_color="#000000" fill="#062254"/></g></g> </svg>
