<?xml version="1.0"?>
<svg xmlns="http://www.w3.org/2000/svg" id="Layer_1" enable-background="new 0 0 480.1 480.1" viewBox="0 0 480.1 480.1" width="512px" height="512px"><g><path d="m142.1 464.1h-26v-448h247v100c0 4.4 3.6 8 8 8s8-3.6 8-8v-108c0-4.4-3.6-8-8-8h-363c-4.4 0-8 3.6-8 8v464c0 4.4 3.6 8 8 8h134c4.4 0 8-3.6 8-8s-3.6-8-8-8zm-42-230.4-84-84v-8.7h84zm-4.8 17.8-79.2 79.2v-158.4zm4.8 17.9v161.5l-80.7-80.7zm0-253.3v109h-84v-109zm-84 353.4 84 84v10.6h-84z" data-original="#000000" class="active-path" data-old_color="#000000" fill="#062254"/><path d="m311.4 238.4c0 8.3 6.8 15 15 15 13.3 0 20.1-16.1 10.6-25.6-9.4-9.4-25.6-2.9-25.6 10.6zm14.3-.8c.4-.4 1-.4 1.4 0l-1.4 1.4c-.4-.3-.4-1 0-1.4zm1.4 1.5c-.4.4-1 .4-1.4 0l1.4-1.4c.4.3.4 1 0 1.4z" data-original="#000000" class="active-path" data-old_color="#000000" fill="#062254"/><path d="m357.5 215.2c7.1 0 10.7-8.6 5.7-13.7-20.3-20.3-53.2-20.3-73.5 0-3.1 3.1-3.1 8.2 0 11.3s8.2 3.1 11.3 0c14.1-14.1 36.8-14.1 50.9 0 1.5 1.7 3.6 2.4 5.6 2.4z" data-original="#000000" class="active-path" data-old_color="#000000" fill="#062254"/><path d="m259.9 171.9c-5.1 5.1-1.4 13.7 5.7 13.7 2 0 4.1-.8 5.7-2.3 30.4-30.4 79.9-30.4 110.3 0 3.1 3.1 8.2 3.1 11.3 0s3.1-8.2 0-11.3c-36.7-36.8-96.3-36.8-133-.1z" data-original="#000000" class="active-path" data-old_color="#000000" fill="#062254"/><path d="m476.9 404.9-26.5-75.8c-7.1-20.3-23.7-36-44.4-42-52.4-15.3-107.7-15.2-160.1.2-20.4 6-36.7 21.7-43.8 41.9l-26.5 75.8c-12.9 36.8 14.7 75.2 53.3 75.2 21.4 0 42.6-12.4 52-34.4 16.5-38.6 75.4-35.3 90.5 0 12.4 29.2 46.4 42.4 75.3 29.3 26.8-12.1 39.8-42.5 30.2-70.2zm-36.7 55.5c-20.7 9.4-45.1-.1-54-21-20.6-48.4-98-51.5-119.9 0-8.9 20.9-33.3 30.4-54 21-19.3-8.7-28.5-30.3-21.6-50.3l26.5-75.8c5.4-15.4 17.8-27.2 33.2-31.8 49.4-14.5 101.6-14.6 151.1-.2 15.8 4.6 28.4 16.6 33.8 32l26.5 75.8c6.9 20-2.3 41.6-21.6 50.3z" data-original="#000000" class="active-path" data-old_color="#000000" fill="#062254"/><path d="m276.1 355.1h-12v-12c0-4.4-3.6-8-8-8s-8 3.6-8 8v12h-13c-4.4 0-8 3.6-8 8s3.6 8 8 8h13v13c0 4.4 3.6 8 8 8s8-3.6 8-8v-13h12c4.4 0 8-3.6 8-8s-3.6-8-8-8z" data-original="#000000" class="active-path" data-old_color="#000000" fill="#062254"/><path d="m395.6 375.1c-4.7 0-8.5 3.8-8.5 8.5s3.8 8.5 8.5 8.5 8.5-3.8 8.5-8.5-3.9-8.5-8.5-8.5z" data-original="#000000" class="active-path" data-old_color="#000000" fill="#062254"/><path d="m375.6 355.1c-4.7 0-8.5 3.8-8.5 8.5s3.8 8.5 8.5 8.5 8.5-3.8 8.5-8.5-3.9-8.5-8.5-8.5z" data-original="#000000" class="active-path" data-old_color="#000000" fill="#062254"/><path d="m395.6 335.1c-4.7 0-8.5 3.8-8.5 8.5s3.8 8.5 8.5 8.5 8.5-3.8 8.5-8.5-3.9-8.5-8.5-8.5z" data-original="#000000" class="active-path" data-old_color="#000000" fill="#062254"/><path d="m415.6 355.1c-4.7 0-8.5 3.8-8.5 8.5s3.8 8.5 8.5 8.5 8.5-3.8 8.5-8.5-3.9-8.5-8.5-8.5z" data-original="#000000" class="active-path" data-old_color="#000000" fill="#062254"/></g> </svg>
