<?xml version="1.0"?>
<svg xmlns="http://www.w3.org/2000/svg" id="Capa_1" enable-background="new 0 0 512 512" height="512px" viewBox="0 0 512 512" width="512px"><g><g id="XMLID_959_"><g id="XMLID_142_"><path id="XMLID_143_" d="m391.961 243.97c-2.475-4.938-8.482-6.935-13.421-4.459-4.937 2.475-6.934 8.484-4.458 13.421 9.235 18.425 13.918 38.298 13.918 59.068 0 72.785-59.215 132-132 132s-132.001-59.215-132.001-132 59.216-132.001 132.001-132.001c21.073 0 41.207 4.814 59.842 14.31 4.92 2.506 10.942.551 13.45-4.37 2.507-4.921.551-10.942-4.37-13.45-21.474-10.942-44.662-16.49-68.922-16.49-83.814 0-152.001 68.187-152.001 152.001s68.187 152 152.001 152 152-68.187 152-152c0-23.91-5.397-46.798-16.039-68.03z" data-original="#000000" class="active-path" data-old_color="#000000" fill="#062254"/><path id="XMLID_155_" d="m278.945 113.324 54.771-54.772c3.905-3.905 3.905-10.237 0-14.143l-41.481-41.48c-1.876-1.875-4.419-2.929-7.071-2.929h-58.074c-2.652 0-5.196 1.054-7.071 2.929 0 0-42.327 42.401-42.725 42.996-2.651 3.967-2.131 9.254 1.243 12.628l54.745 54.745c-99.621 11.316-177.282 96.103-177.282 198.702 0 110.28 89.72 200 200 200s200-89.72 200-200c0-102.52-77.542-187.256-177.055-198.676zm-22.818-5.466-46.377-46.377h92.752zm-24.895-87.858h49.789l21.481 21.481h-92.752zm24.768 472c-99.252 0-180-80.748-180-180s80.748-180 180-180 180 80.748 180 180-80.748 180-180 180z" data-original="#000000" class="active-path" data-old_color="#000000" fill="#062254"/><path id="XMLID_158_" d="m356.74 221.92c2.63 0 5.21-1.06 7.069-2.93 1.86-1.86 2.931-4.44 2.931-7.07s-1.07-5.21-2.931-7.07c-1.859-1.86-4.44-2.93-7.069-2.93-2.641 0-5.21 1.07-7.07 2.93s-2.93 4.44-2.93 7.07 1.069 5.21 2.93 7.07c1.86 1.87 4.439 2.93 7.07 2.93z" data-original="#000000" class="active-path" data-old_color="#000000" fill="#062254"/></g></g></g> </svg>
