<?xml version="1.0" encoding="utf-8"?>
<!-- Generator: Adobe Illustrator 23.0.0, SVG Export Plug-In . SVG Version: 6.00 Build 0)  -->
<svg version="1.1" id="Layer_1" xmlns:svgjs="http://svgjs.com/svgjs"
	 xmlns="http://www.w3.org/2000/svg" xmlns:xlink="http://www.w3.org/1999/xlink" x="0px" y="0px" viewBox="0 0 512 512"
	 style="enable-background:new 0 0 512 512;" xml:space="preserve">
<style type="text/css">
	.st0{fill:#062254;}
</style>
<g>
	<g>
		<path class="st0" d="M437.4,326.1c-6-1.7-12.2,1.9-13.8,8c-1.7,6.1,1.8,12.5,7.8,14.2c45.9,13.2,58.2,27.5,58.2,34
			c0,18.9-80.2,54.3-233.6,54.3c-25.6,0-50.8-1.1-74.9-3.2c-6.2-0.6-11.6,4-12.2,10.4c-0.6,6.3,3.9,11.9,10.1,12.5
			c0.1,0,0.1,0,0.2,0c24.7,2.2,50.6,3.3,76.8,3.3c127.2,0,256-26.6,256-77.3C512,359.2,486.9,340.3,437.4,326.1L437.4,326.1z"/>
		<path class="st0" d="M256,363.8c3.9,4.2,8.2,8,12.8,11.2c26,17.9,68.9,21.2,97,21.2c15.5,0,26.5-1,27.7-1.1
			c6.2-0.6,10.7-6.2,10.1-12.5c-0.1-0.8-0.2-1.6-0.4-2.3c-5.2-16.6-11.6-32.8-19.1-48.5c1.6-1.4,3.1-2.8,4.6-4.4
			c45-46.2,56.5-155.7,56.9-160.3c0.6-6.3-3.8-12-10-12.6c-0.8-0.1-1.5-0.1-2.3,0c-18,2.1-35.8,5.4-53.4,9.6
			c-0.7-20.6-2.9-41.1-6.6-61.4c-1.2-6.2-7.2-10.3-13.2-9c-0.8,0.2-1.5,0.4-2.2,0.7c-21.7,9.9-42.4,21.9-62,35.6
			c-9.5-15.8-19.9-31-31.1-45.5c-3.9-4.9-11-5.7-15.8-1.7c-0.6,0.5-1.1,1.1-1.6,1.7c-11.2,14.5-21.6,29.7-31.1,45.5
			c-19.6-13.8-40.3-25.7-62-35.6c-5.7-2.5-12.3,0.2-14.7,6c-0.3,0.7-0.5,1.5-0.7,2.2c-3.7,20.3-5.9,40.8-6.6,61.4
			c-17.6-4.3-35.4-7.5-53.4-9.6c-3.4-0.4-6.7,0.8-9.1,3.3c-2.4,2.5-3.6,5.9-3.2,9.3c0.4,4.3,10.4,99.4,48.1,149.8
			C64.4,326.2,0,345.4,0,382.3c0,32.3,50.4,50.9,92.7,60.8c6,1.4,12.1-2.5,13.4-8.7c1.4-6.2-2.4-12.4-8.4-13.8l0,0
			c-59.5-13.9-75.3-31.2-75.3-38.4c0-10.5,28.1-30.9,102.4-43.9c-6.2,13.6-11.5,27.6-16,41.8c-1.8,6.1,1.5,12.5,7.5,14.4
			c0.7,0.2,1.5,0.4,2.2,0.5c1.2,0.1,12.2,1.1,27.7,1.1c28.1,0,71-3.3,97-21.2C247.8,371.8,252.1,368,256,363.8L256,363.8z
			 M376.9,373c-20,0.7-56.4,0.1-82.2-10.2c24.6-0.5,48.7-6.6,70.7-17.8C370.2,355.5,374.1,365.4,376.9,373L376.9,373z M372.8,311.1
			c-23.3,23.9-60.9,28.7-86.9,28.8c21.2-21.6,49-58.2,49-100.7c-0.2-11.6-1.9-23.2-5.1-34.3c29.4-12.4,60.1-21,91.5-25.6
			C416.8,209.8,403.3,279.8,372.8,311.1L372.8,311.1z M353.6,121.9c2.3,16,3.6,32.1,4,48.2c-11.9,3.6-23.7,7.9-35.1,12.9
			c-4.5-11.3-9.6-22.3-15.4-33C321.9,139.5,337.4,130.1,353.6,121.9L353.6,121.9z M256,110.8c17.8,24.9,56.5,84.2,56.5,128.4
			c0,43-37.7,81-54.8,96c-1.2-0.3-2.4-0.3-3.6-0.2c-17.2-15.1-54.6-53-54.6-95.9c0.3-12.2,2.5-24.2,6.5-35.7c0.3-0.6,0.5-1.3,0.7-2
			C218.7,165.8,242.9,129,256,110.8L256,110.8z M158.3,121.9c16.1,8.2,31.7,17.6,46.5,28.1c-5.7,10.7-10.9,21.7-15.4,33
			c-11.4-5-23.1-9.4-35.1-12.9C154.7,154,156,137.9,158.3,121.9L158.3,121.9z M182.2,204.9c-3.2,11.1-4.9,22.7-5.1,34.3
			c0,42.5,27.9,79.1,49,100.7c-26-0.1-63.6-5-86.9-28.8c-30.5-31.3-44-101.4-48.6-131.8C122,183.9,152.8,192.5,182.2,204.9
			L182.2,204.9z M135,373c2.8-7.6,6.7-17.5,11.5-28c22,11.3,46.1,17.4,70.7,17.8C191.4,373.1,155,373.7,135,373L135,373z"/>
	</g>
</g>
</svg>
