<?xml version="1.0" encoding="utf-8"?>
<!-- Generator: Adobe Illustrator 25.2.3, SVG Export Plug-In . SVG Version: 6.00 Build 0)  -->
<svg version="1.1" id="Layer_1" xmlns="http://www.w3.org/2000/svg" xmlns:xlink="http://www.w3.org/1999/xlink" x="0px" y="0px"
	 viewBox="0 0 512 512" style="enable-background:new 0 0 512 512;" xml:space="preserve">
<style type="text/css">
	.st0{fill:#1F1F1F;}
</style>
<g id="KvV1xN_1_">
	<g>
		<path class="st0" d="M263.99,448.73c-18.91-12.68-26.2-31.52-29.15-52.73c-1.2-8.58,0.36-11.19,8.74-12.99
			c35.05-7.55,69.37-6.08,102.57,8.57c0.63,0.28,1.32,0.42,2.39,0.74c21.79-27.38,39.71-56.56,44.34-92.1
			c4.77-36.54-24.52-71.17-61.42-72.3c-19.26-0.59-38.54-0.09-57.81-0.28c-3.68-0.04-4.42,1.56-4.81,4.75
			c-1.29,10.77,0.03,21.17,3.71,31.31c0.25,0.68,0.56,1.33,0.77,2.01c1.47,4.82-0.12,8.63-4.38,10.08c-4.62,1.57-7.8-0.51-9.55-4.63
			c-4.65-10.93-6.63-22.37-6.02-34.24c0.15-2.84,0.41-5.66,0.67-9.16c-8.81,0-17.18,0-26,0c-3.16,10.61-2.2,21.5,0.18,32.54
			c0.6,2.76,0.03,6.73-1.65,8.82c-3.81,4.75-10.77,2.19-12.62-4.37c-3.63-12.86-4.22-25.87-1.04-39.36
			c-8.35-2.36-16.52-4.67-25.06-7.08c-3.62,9.79-3.89,19.72-2.65,29.78c0.26,2.14,0.87,4.23,1.19,6.36
			c0.67,4.41-1.73,8.13-5.75,9.03c-4.02,0.89-7.77-1.39-8.89-5.86c-3.45-13.72-3.2-27.43,0.62-41.06c0.39-1.38,0.77-2.76,1.24-4.48
			c-1.11-0.74-2.22-1.59-3.44-2.25c-33.8-18.53-57.27-45.9-70.14-82.22c-1.25-3.54-2.91-4.5-6.54-4.51
			c-14.03-0.06-28.2,0.63-42.05-1.1C22.09,118.3,0.01,91.79-0.09,61.83C-0.19,31.61,21.95,5.46,51.52,1.01
			c4.07-0.61,8.23-0.93,12.35-0.94C104.4,0,144.92,0.03,185.45,0.03c1.62,0,3.29-0.15,4.85,0.19c3.75,0.82,6.09,3.25,6.19,7.14
			c0.1,4.16-2.28,6.74-6.27,7.6c-1.73,0.37-3.59,0.18-5.39,0.19c-41.07,0.01-82.13-0.12-123.2,0.06
			c-26.88,0.12-47.42,21.68-46.55,48.35c0.74,22.74,18.68,42.22,41.83,44.14c12.14,1,24.43,0.18,37.3,0.18
			c-0.54-3.53-1.04-6.8-1.63-10.63c-10.7,0-21.3,0.29-31.88-0.07c-14.14-0.49-24.82-7.19-31.1-19.86
			c-6.19-12.48-5.08-24.88,2.89-36.29c6.7-9.59,16.25-14.87,27.97-14.95c32.24-0.24,64.48-0.12,96.72-0.08
			c5.37,0.01,8.78,3,8.88,7.39c0.1,4.56-3.46,7.68-9.13,7.69c-31.7,0.04-63.4-0.02-95.1,0.05c-9.36,0.02-16.96,5.56-19.77,13.98
			c-2.72,8.15-0.44,17.29,6.61,22.24c3.5,2.45,8.09,4.24,12.32,4.58c8.77,0.7,17.64,0.29,26.46,0.15c1.4-0.02,2.82-0.96,4.19-1.56
			c2.94-1.29,5.85-3.79,8.77-3.79c85.2-0.17,170.4-0.54,255.59,0.07c75.88,0.54,143.04,59.89,154.08,135.03
			c7.64,52.02-6.73,98.3-37.54,139.98c-26.02,35.2-59.64,61.72-97.31,83.39c-3.91,2.25-6.5,4.87-8.42,9.11
			c-16.53,36.48-45.63,56.97-84.29,64.43c-10.54,2.04-21.42,2.58-32.17,3.24c-8.11,0.5-11.17-3.61-9.22-11.55
			c4.09-16.73,10.73-32.39,19.98-46.93C262.04,451.98,262.93,450.47,263.99,448.73z M322.32,91.94c-72.66,0-143.7,0-215.17,0
			c0.67,4.2,1.22,8.07,1.9,11.92c10.2,57.72,61.79,104.5,120.34,107.85c25.3,1.45,50.74,0.42,76.11,1.03
			c5.78,0.14,7.72-1.89,8.81-7.09c5.41-25.81,7.6-51.93,7.97-78.23C322.46,115.77,322.32,104.11,322.32,91.94z M336.76,91.97
			c1.79,40.66,0.22,80.62-8.46,120.27c1.71,0.19,2.93,0.4,4.17,0.46c14.94,0.76,28.52,5.53,40.83,13.94
			c10.84,7.4,10.82,7.43,21.79-0.19c1.18-0.82,2.37-1.64,3.48-2.55c28.59-23.38,43.88-54.52,52.07-89.72
			c0.33-1.44-0.7-3.83-1.89-4.9C417.08,100.77,379.64,89.3,336.76,91.97z M464.07,145.16c-13.01,41.52-32.39,77.65-70.98,100.7
			c12.63,17.8,17.23,37.62,14.57,59.32c26.82,7.44,52.07,5.19,76.14-7.92c1.64-0.89,2.97-3.05,3.63-4.91
			c9.41-26.44,12.24-53.55,7.25-81.23C490.29,186.81,480.24,165,464.07,145.16z M249.55,397.14c2.46,7.3,4.23,14.08,7,20.42
			c4.01,9.16,10.47,16.23,19.98,20.2c7.87,3.29,9.04,7.81,3.81,14.66c-8.81,11.53-15.62,24.11-20.45,37.78
			c-0.68,1.93-1.2,3.91-1.86,6.07c40.59-0.82,78.65-21.08,93.77-56.09c-16.29-9.05-19.54-17.15-14.12-35.78
			C309.55,393.2,280.74,390.47,249.55,397.14z M405.11,320.27c-3.24,8.64-5.88,16.66-9.2,24.4c-10.38,24.19-25.12,45.58-42.66,65.13
			c-3.98,4.43-4.18,8.87-1.06,12.61c3.03,3.63,7.27,4.3,12.17,1.56c35.52-19.86,67.22-44.41,92.44-76.63
			c7-8.94,12.96-18.68,19.4-28.06c-0.36-0.42-0.73-0.84-1.09-1.25C451.95,326.13,428.57,326.27,405.11,320.27z"/>
		<path class="st0" d="M202.32,138.76c-11.45,0.14-20.73-8.88-20.83-20.24c-0.1-11.36,9.06-20.58,20.45-20.61
			c11.4-0.02,20.58,9.13,20.57,20.51C222.5,129.52,213.46,138.62,202.32,138.76z M208.09,119.56c0.03-0.8,0.06-1.59,0.09-2.39
			c-2.11-1.36-4.28-3.86-6.31-3.74c-1.82,0.1-4.57,2.85-4.97,4.82c-0.65,3.2,1.89,5.66,5.21,5.11
			C204.25,123,206.1,120.89,208.09,119.56z"/>
		<path class="st0" d="M242.83,202.23c-7.87-0.82-15.75-1.49-23.6-2.51c-5.75-0.75-8.91-4.29-8.33-8.67
			c0.61-4.62,4.26-6.74,10.11-6.37c12.02,0.77,24.04,1.4,36.07,1.94c6.33,0.28,9.76,2.82,9.7,7.6c-0.06,4.73-3.58,7.46-9.87,7.54
			c-4.68,0.06-9.36,0.01-14.04,0.01C242.86,201.93,242.85,202.08,242.83,202.23z"/>
	</g>
</g>
</svg>
