<?xml version="1.0" encoding="utf-8"?>
<!-- Generator: Adobe Illustrator 25.2.3, SVG Export Plug-In . SVG Version: 6.00 Build 0)  -->
<svg version="1.1" id="Layer_1" xmlns="http://www.w3.org/2000/svg" xmlns:xlink="http://www.w3.org/1999/xlink" x="0px" y="0px"
	 viewBox="0 0 512 512" style="enable-background:new 0 0 512 512;" xml:space="preserve">
<style type="text/css">
	.st0{fill:#1F1F1F;}
</style>
<g id="R95tkf_1_">
	<g>
		<path class="st0" d="M269.47,82.5c17.79-0.18,32.01,6.25,42.51,20.13c12.14,16.05,13.2,37.3,2.73,54.78
			c-1.65,2.76-1.62,4.6,0.05,7.3c5.8,9.37,7.89,19.66,6.81,30.64c-0.15,1.57,0.52,3.23,0.75,4.5c6.78-3.57,12.8-6.75,19.69-10.38
			c-1.06-11.55-2.18-24.18-3.4-36.79c-1.51-15.54,5.74-28.69,19.09-34.45c13.41-5.79,29.3-2.42,38.74,8.29
			c6.95,7.89,8.78,17.18,7.66,27.42c-1.31,11.95-2.24,23.95-3.29,35.38c6.67,3.25,12.91,6.28,19.87,9.67
			c0.36-0.26,1.6-1.11,2.81-2.01c12.68-9.37,29.23-9.66,41.78-0.06c29.53,22.58,45.2,52.55,46.47,89.77
			c0.65,18.94,0.49,37.85-6.11,56.07c-4.72,13.03-11.32,24.98-20.34,36.06c1.33,0.87,2.25,1.53,3.23,2.11
			c17.98,10.86,26.36,29.82,22.23,50.27c-3.82,18.9-19.57,33.38-39.51,36.45c-68.8,10.59-137.59,21.24-206.39,31.81
			c-26.33,4.04-52.61,8.57-79.05,11.72c-36.19,4.32-65.38-8.8-86.93-38.25c-2.36-3.23-4.36-3.91-7.97-3.04
			c-11.86,2.85-23.94,4.88-35.65,8.21c-15.63,4.45-33.72-6.59-30.4-28.82c0.13-0.84,0.37-1.67,0.66-2.97
			c-8.5-0.54-16.34-3.17-20.69-10.59c-2.73-4.66-4.67-10.52-4.74-15.87c-0.16-12.76,9.05-20.97,24.48-23.8
			c0.28-5.2-0.15-10.42,0.97-15.29c2.78-12.09,14.66-19.39,26.79-16.84c12.78,2.69,25.52,5.56,38.22,8.55
			c3.7,0.87,5.84,0.41,8.48-3.02c5.21-6.76,11.36-12.83,17.46-18.85c1.97-1.94,2.87-3.22,1.84-6.01
			c-5.41-14.67-10.51-29.45-16.02-44.07c-0.67-1.77-3.01-3.69-4.88-4.09c-26.2-5.63-43.24-30.13-39.19-56.45
			c0.27-1.76-0.11-4.34-1.25-5.48c-15.91-15.93-19.64-34.4-12.17-55.41c0.05-0.14-0.04-0.34-0.1-0.74
			c-2.35-1.98-4.94-3.96-7.31-6.17C3.18,140.34,11.94,84.08,54.29,64.21c3.61-1.7,5.33-3.89,6.78-7.48
			c7.39-18.27,21.15-28.63,40.54-31.87c2.16-0.36,4.66-1.88,5.97-3.64c11.32-15.12,26.34-22.64,45.09-21
			c18.97,1.66,32.66,11.79,40.78,29.06c1.27,2.7,2.52,3.76,5.6,3.8c13.55,0.18,24.95,5.47,34.52,15.04
			c1.98,1.98,4.49,3.66,7.07,4.74C254.43,58.62,263.94,68.44,269.47,82.5z M173.91,346.1c-0.05,0.18-0.09,0.36-0.14,0.53
			c-3.76,0.37-7.54,0.61-11.27,1.13c-39.17,5.51-68.12,42.52-63.33,80.93c5.24,41.98,41.95,71.7,82.83,66.51
			c21.14-2.68,42.16-6.3,63.22-9.53c41.11-6.31,82.22-12.65,123.33-18.98c33.81-5.2,67.63-10.3,101.41-15.63
			c14.9-2.35,25.4-15.1,25.3-30.07c-0.09-14.71-10.58-27.27-25.27-29.57c-38.2-6-76.44-11.8-114.66-17.68
			c-45.87-7.06-91.73-14.14-137.6-21.16C203.14,350.35,188.52,348.26,173.91,346.1z M305.12,190.51
			c0.44-12.78-6.27-21.45-15.01-29.45c13.95-12.56,20.43-27.12,11.12-44.37c-9.67-17.91-25.8-20.41-44.38-14.89
			c-0.46-2.36-0.88-4.16-1.17-5.98c-1.35-8.41-4.65-15.8-11.15-21.52c-17.1-15.02-42.87-8.98-52.4,12.29
			c-1.16,2.58-1.47,5.26-5.84,4.81c-19.58-2-33.85,8.75-37.3,28c-0.67,3.75-2.14,5.4-5.72,6.47c-20.33,6.09-34.11,22.79-36.01,43.22
			c-1.89,20.27,8.8,38.99,27.87,48.89c2.38,1.24,4.73,2.54,7.28,3.92c-1.99,3.05-3.73,5.59-5.34,8.21c-4.94,8-6.47,16.58-4.11,25.73
			c2.1,8.17,6.48,15.11,13.82,19.14c5.71,3.13,6.62,6.49,3.59,11.7c-0.26,0.44-0.41,0.95-0.55,1.44c-5.83,19.63,8,40.36,28,42.32
			c9.4,0.92,18.75,2.35,28.11,3.67c9.78,1.39,19.54,2.92,29.89,4.48c-6.03-21.11-5.48-41.86-4.02-62.68
			c0.1-1.41-1.34-3.66-2.66-4.32c-7.35-3.66-14.6-7.93-22.41-10.12c-10.8-3.03-22.07-4.4-33.11-6.47c0-4.87,0-10.1,0-15.51
			c19.38,0.75,37.69,4.4,56.53,13.07c-4.7-13.3-9.38-24.91-12.86-36.88c-3.03-10.43-10.15-15.96-19.53-19.46
			c-4.65-1.73-9.44-3.5-14.31-4.14c-11.2-1.46-22.48-2.23-34.27-3.34c-0.44-4.46-0.96-9.67-1.51-15.17
			c18.42-1.35,36.02,0.27,54.08,4.94c-8.86-16.75-17.72-33.51-26.72-50.51c4.34-2.79,8.66-5.56,14.12-9.07
			c11.4,22.04,22.62,43.76,33.64,65.06c4.88-8.54,9.36-17.82,15.17-26.17c5.92-8.51,13.14-16.12,20.24-24.66
			c4.2,5.2,7.51,9.29,11.27,13.95c-1.49,1.19-2.8,2.02-3.87,3.1c-15.98,16.13-26.94,35.07-31.85,57.35
			c-0.32,1.46-0.69,3.17-0.24,4.5c2.91,8.59,6.04,17.11,9.3,26.22c1.11-1.98,1.94-3.46,2.77-4.94c7.43-13.19,17.07-24.47,28.8-34.07
			C283.24,192.01,293.1,188.67,305.12,190.51z M147.51,333.92c-0.69-0.91-1.04-1.48-1.49-1.97c-11.35-12.25-15.96-26.53-13.41-43.17
			c0.27-1.74-0.93-4.24-2.26-5.62c-14.13-14.75-18.34-31.82-12.2-51.28c0.92-2.92,0.58-4.39-1.88-6.34
			c-39.45-31.26-32.19-91.42,13.39-112.48c2.14-0.99,4.24-3.37,5.1-5.59c5.37-13.92,14.66-24.04,28.51-29.49
			c5.2-2.04,11.64-1.54,16.25-4.31c4.6-2.77,7.15-8.74,11.43-12.3c4.74-3.95,10.43-6.76,16.93-10.84c-5.05-0.35-9.06-1.02-13-0.78
			c-4.04,0.25-8.02,1.41-12.45,2.25c-0.42-2.2-0.8-4.02-1.1-5.84c-1.31-8.02-4.38-15.16-10.44-20.79
			c-16.99-15.8-43.45-9.97-53.12,11.72c-1.16,2.6-1.52,5.22-5.87,4.75c-19.6-2.11-33.96,8.9-37.37,28.54
			c-0.6,3.48-1.96,4.82-5.15,5.78c-20.83,6.31-34.58,22.8-36.47,43.39c-1.88,20.43,8.92,39.14,28.34,49.13
			c2.23,1.14,4.43,2.33,6.83,3.6c-1.74,2.68-3.13,4.82-4.53,6.98c-10.63,16.44-7.03,35.94,9.33,46.46
			c5.04,3.24,5.29,5.78,3.41,10.94c-7.11,19.53,4.44,39.47,24.85,43.47c3.84,0.75,7.83,0.7,11.88,1.03
			c6.93,19.33,13.86,38.66,20.82,58.05C138.68,337.33,142.83,335.73,147.51,333.92z M365.27,265.05c-0.22,1.14-0.82,2.8-0.84,4.46
			c-0.25,22-0.65,44-0.49,65.99c0.05,6.64,1.53,13.31,2.79,19.88c0.28,1.49,2.2,3.56,3.62,3.8c19.84,3.27,39.73,6.23,59.59,9.39
			c2.94,0.47,4.55-0.43,5.45-3.15c2.75-8.29,7.21-16.41,7.99-24.88c1.72-18.61,2.82-37.45,1.94-56.08
			c-1.41-29.82-14.44-54.47-37.8-73.35c-2.22-1.79-5.04-2.84-7.83-4.37c-2.28,11.62-2.28,11.62,5.37,18.11
			c10.15,8.61,10.47,20.99-0.09,29.08c-4.9,3.75-10.99,6.54-16.97,8.11C380.8,263.95,373.14,264.09,365.27,265.05z M349.58,356.16
			c-4.2-28.33-3.89-55.99-1.77-83.58c0.62-8,0.92-14.15-8.03-17.03c-1.65-0.53-3-2.26-4.29-3.63c-7.18-7.59-7.24-17.34,0.01-24.9
			c1.99-2.08,4.64-3.51,6.8-5.45c1-0.9,2.18-2.31,2.17-3.48c-0.02-3.5-0.58-6.99-1.02-11.43c-3.03,1.87-5.31,3.02-7.29,4.55
			c-14.34,11.05-24.79,25.07-31.74,41.77c-10.37,24.91-7.25,51.02-6.76,76.87c0.1,5.25,1.57,10.51,2.75,15.69
			c0.3,1.32,1.8,3.15,2.99,3.35C318.59,351.43,333.83,353.72,349.58,356.16z M450.68,371.58c4.44,0.75,8.18,1.25,11.85,2.05
			c3.42,0.74,5.72-0.34,8-3c10.62-12.34,18.24-26.22,21.95-42.11c4.24-18.18,4.12-36.67,1.43-54.9
			c-3.83-25.96-16.92-46.97-37.82-62.92c-8.09-6.17-17.32-5.62-23.78,1.22c12.69,14.59,21.53,31.27,26.43,50.05
			c4.06,15.54,3.24,31.38,3.59,47.19C462.8,330.59,460.44,351.4,450.68,371.58z M310.96,212.2c-6.17-6.81-15.95-8.17-23.29-2.01
			c-7.71,6.46-15.16,13.55-21.32,21.47c-19.38,24.93-20.67,54.22-18.17,84c0.63,7.44,3.07,14.74,4.85,22.07
			c0.33,1.38,1.32,3.5,2.29,3.68c9.15,1.68,18.36,3.02,26.28,4.26c-0.35-19.31-0.84-37.99-0.98-56.68
			c-0.1-12.82,2.44-25.25,6.75-37.32C292.63,236.93,300.66,223.84,310.96,212.2z M396.61,238.67c-3.3-1.76-6.14-3.64-9.24-4.85
			c-7.19-2.82-7.11-2.68-6.36-10.46c2.33-24.46,4.7-48.91,6.75-73.39c1.1-13.1-10.85-21.56-23.08-16.71
			c-7.41,2.94-10.46,9.57-9.49,19.6c2.36,24.45,4.48,48.93,6.9,73.38c0.39,3.93-0.57,5.82-4.52,6.99c-3.91,1.16-7.5,3.42-11.26,5.21
			C352.48,249.92,388.28,250.84,396.61,238.67z M82.31,412.99c-18.94,0-37.33-0.02-55.71,0.01c-6.5,0.01-10.29,3.1-10.29,8.24
			c-0.01,5.14,3.79,8.25,10.28,8.26c17.03,0.03,34.06,0.02,51.09,0c1.5,0,3-0.17,4.64-0.27C82.31,423.8,82.31,418.71,82.31,412.99z
			 M87.76,388.68c-12.22-2.7-24.25-5.26-36.23-8.05c-3.41-0.79-7.1-1.34-8.72,1.97c-1.36,2.77-2.01,6.95-0.85,9.57
			c0.96,2.15,4.98,3.97,7.73,4.11c9.92,0.48,19.89-0.17,29.81,0.33C85.24,396.9,87.55,394.71,87.76,388.68z M89.59,453.34
			c-2.56-3.12-4.2-6.94-6.02-7.02c-11.97-0.54-23.97-0.42-35.96-0.19c-5.03,0.1-7.38,4.16-6.53,10.13c0.61,4.29,4.1,6.97,8.49,6.03
			C62.26,459.57,74.9,456.64,89.59,453.34z"/>
		<path class="st0" d="M165.27,380.19c5.47,0,10.57,0,15.91,0c0,27.34,0,54.44,0,81.95c-5.12,0-10.33,0-15.91,0
			C165.27,435.03,165.27,407.8,165.27,380.19z"/>
		<path class="st0" d="M247.19,462.44c-5.42,0-10.39,0-15.78,0c0-27.28,0-54.5,0-82.11c5.02,0,10.23,0,15.78,0
			C247.19,407.52,247.19,434.74,247.19,462.44z"/>
		<path class="st0" d="M313.16,462.43c-5.4,0-10.36,0-15.71,0c0-27.34,0-54.56,0-82.14c5.13,0,10.35,0,15.71,0
			C313.16,407.72,313.16,435.06,313.16,462.43z"/>
		<path class="st0" d="M379.3,445.8c-5.45,0-10.54,0-15.89,0c0-16.32,0-32.41,0-48.91c5.1,0,10.31,0,15.89,0
			C379.3,412.96,379.3,429.17,379.3,445.8z"/>
		<path class="st0" d="M429.48,404.96c5.35,0,10.44,0,15.89,0c0,10.75,0,21.45,0,32.49c-5.2,0-10.4,0-15.89,0
			C429.48,426.73,429.48,416.15,429.48,404.96z"/>
	</g>
</g>
</svg>
