<?xml version="1.0" encoding="utf-8"?>
<!-- Generator: Adobe Illustrator 25.2.3, SVG Export Plug-In . SVG Version: 6.00 Build 0)  -->
<svg version="1.1" id="Layer_1" xmlns="http://www.w3.org/2000/svg" xmlns:xlink="http://www.w3.org/1999/xlink" x="0px" y="0px"
	 viewBox="0 0 512 512" style="enable-background:new 0 0 512 512;" xml:space="preserve">
<style type="text/css">
	.st0{fill:#1F1F1F;}
</style>
<g id="zvESAE_1_">
	<g>
		<path class="st0" d="M460.77,324.08c13.79,0,26.92-0.02,40.04,0.01c8.32,0.02,11.36,2.98,11.11,11.23
			c-1.09,35.07-14.05,65.83-35.49,92.96c-37.34,47.26-86.12,74.98-146,82.22c-38.83,4.7-76.11-1.98-111.64-18.22
			c-3.48-1.59-5.39-1.15-8.23,1.28c-20.99,17.98-44.72,23.43-70.93,13.63c-7.96-2.97-14.79-3.21-22.88-0.2
			c-33.42,12.43-67.93-0.33-86.75-31.71c-13.83-23.04-21.26-48.29-24.76-74.82c-1.51-11.45-3.89-22.81-4.77-34.3
			c-2.6-33.86,6.86-63.04,36.7-82.04c25.14-16.01,51.13-14.62,76.54,0.56c1.52,0.91,3.03,1.86,4.6,2.68
			c0.77,0.4,1.66,0.56,3.13,1.03c1.09-7.52,1.63-14.93,3.33-22.06c2.75-11.52,6.2-22.88,9.54-34.26c0.64-2.16,1.98-4.17,3.26-6.08
			c3.03-4.52,7.85-5.68,11.98-3.06c3.97,2.52,5.16,7.14,2.61,11.7c-8.47,15.12-10.49,31.89-12.62,48.63
			c-0.08,0.66,0.09,1.34,0.1,1.48c10.15-3.95,20.29-7.89,30.83-12c0.22-20.75,4.47-41.27,13.52-60.75
			c7.34-15.81,17.09-29.92,29.62-42.01c2.66-2.56,2.95-4.58,1.47-7.8c-8.96-19.37-22.37-35.34-37.6-49.97
			c-1.28-1.23-2.66-2.36-3.91-3.62c-2.73-2.75-3.89-5.93-2.27-9.69c1.58-3.68,4.5-5.34,8.44-5.31c19.92,0.14,39.26,3.17,57.54,11.52
			c1.38,0.63,2.79,1.16,4.19,1.74c0.43-0.44,0.87-0.88,1.3-1.32c-7.84-9.5-15.55-19.1-23.57-28.44c-3.23-3.76-7.08-6.99-10.7-10.4
			c-3.09-2.9-4.86-6.17-3.07-10.44c1.76-4.19,5.17-5.43,9.48-5.38c20.3,0.26,39.93,3.67,58.77,12.54
			c1.23-5.46,2.18-10.65,3.59-15.71c5.29-19.07,14.39-35.47,32.19-45.84c4.33-2.53,8.13-2.54,12.45-0.03
			c15.29,8.87,24.4,22.51,29.92,38.77c2.49,7.34,4.04,14.99,6.07,22.73c18.17-8.52,37.41-12.05,57.35-12.46
			c4.82-0.1,8.96,0.72,10.82,5.77c1.79,4.87-1.01,8.06-4.32,11.06c-12.55,11.38-23.57,24.05-32.95,39.24
			c7.71-2.84,14.41-6.28,21.51-7.7c12.66-2.53,25.56-3.92,38.38-5.6c4.85-0.63,9.4,0.16,11.46,5.5c1.97,5.13-1.11,8.32-4.52,11.46
			c-13.94,12.84-26.2,27.06-35.42,43.72c-6.17,11.16-6.1,11.15,2.25,20.37c25.03,27.65,37.79,60.16,38.28,97.42
			C460.96,289.22,460.77,306.27,460.77,324.08z M120.32,306.85c-5.51-2.71-10.84-4.75-15.57-7.76
			c-21.88-13.94-49.71-11.43-68.09,6.82c-16.63,16.52-21.39,37.12-19.12,59.73c0.89,8.83,2.6,17.56,3.7,26.37
			c3.11,24.85,8.98,48.86,21.3,70.93c9.54,17.09,23.32,28.36,43.1,31.42c10.78,1.67,20.83-1.15,30.59-5.19
			c7.83-3.25,15.31-3.03,23.26-0.12c6.94,2.53,14.26,5.12,21.52,5.45c22.57,1.04,39.35-9.77,50.38-28.81
			c5.92-10.21,11.41-21.19,14.24-32.53c5.15-20.6,8.52-41.68,11.98-62.66c3.46-20.93,0.3-40.77-12.74-58.18
			c-13.7-18.3-36.98-26.6-58.12-19.85c-9.69,3.09-18.71,8.29-27.98,12.65c-0.71,0.33-1.26,1.65-1.34,2.55
			c-0.41,4.93-0.65,9.87-1.02,16.11c4.29-2.24,7.81-3.78,11.01-5.81c5.15-3.28,9.64-3.1,12.76,0.92c3.11,4.01,2.24,8.82-2.27,12.6
			c-15.36,12.85-45.02,12.81-60.21-0.09c-4.42-3.75-5.22-8.7-2.06-12.66c3.05-3.82,7.56-4.06,12.36-1.04
			c3.37,2.12,7.01,3.82,11.23,6.08C119.66,317.22,120.01,311.78,120.32,306.85z M240.49,445.67
			c53.87,23.4,105.66,19.97,154.59-12.57c33-21.94,55.72-51.72,64.19-91.7c-68.7,0-136.34,0-203.63,0
			C256.34,376.91,249.77,411.06,240.49,445.67z M476.95,341.39c-11.43,54.69-44.01,93.16-92.88,117.84
			c-49.45,24.97-100.09,24.35-150.6,2c-2.83,5.36-5.38,10.16-7.89,14.9c0.48,0.43,0.7,0.74,1.01,0.89c1.27,0.62,2.56,1.22,3.86,1.77
			c33.3,14.09,67.9,19.58,103.72,13.92c62.69-9.9,110.82-41.98,143.2-96.78c9.83-16.63,15.65-34.81,17.03-54.54
			C488.37,341.39,482.73,341.39,476.95,341.39z M315.65,98.21c7.59-7.5,15.65-15.4,23.58-23.43c0.96-0.97,1.79-2.74,1.65-4.03
			c-1.63-14.95-4.53-29.72-14.12-41.75c-10.98-13.78-11.2-13.78-22.2,0c-9.6,12.02-12.5,26.8-14.11,41.75
			c-0.14,1.29,0.69,3.07,1.65,4.05C300.03,82.83,308.1,90.73,315.65,98.21z M364,270.5c12.04-13.1,23.26-25.32,33.53-36.5
			c-10.03-10.91-21.19-23.06-33.08-35.99c-12.08,13.16-23.31,25.39-33.39,36.37C341.09,245.37,352.2,257.55,364,270.5z
			 M281.33,282.94c10.76,10.41,22.58,21.84,35.24,34.08c11.54-12.65,22.64-24.8,32.36-35.44c-10.2-11.15-21.31-23.3-33.14-36.24
			C303.97,258.23,292.85,270.36,281.33,282.94z M267.21,197.91c-12.21,13.27-23.35,25.38-32.91,35.77
			c10.35,11.41,21.4,23.59,33.25,36.66c11.88-12.93,23.02-25.05,33.06-35.97C290.49,223.32,279.36,211.17,267.21,197.91z
			 M315.78,223.16c11.99-12.94,23.24-25.08,32.72-35.32c-10.22-11.26-21.26-23.41-33.11-36.45c-11.77,12.78-22.91,24.86-32.75,35.54
			C292.93,198.18,304.02,210.3,315.78,223.16z M412.19,245.85c-11.38,12.57-22.41,24.75-32.16,35.53
			c9.77,10.73,20.83,22.88,32.21,35.38c10.54-10.19,20.71-19.33,29.86-29.41c2.05-2.26,2.26-9.37,0.3-11.53
			C433.17,265.58,422.91,256.28,412.19,245.85z M309.97,126.97c-9.83-28.84-38.97-53.04-73.39-56.55
			c16.29,19.04,30.15,38.99,34.86,63.3C284.58,131.41,297.13,129.21,309.97,126.97z M395.4,69.69
			c-30.91,5.36-54.14,19.52-68.99,46.07c-0.66,1.17-0.62,3.01-0.3,4.4c1.27,5.48,3.52,9.04,10.46,9.36
			c7.78,0.36,15.46,2.92,23.37,4.57C364.71,109.12,378.53,89.48,395.4,69.69z M236.35,299.1c5.9-6.51,11.55-12.76,17.36-19.17
			c-10.86-10.51-22.68-21.94-35.11-33.97c-8.87,9.64-17.47,19-25.82,28.06C209.48,276.94,224.31,285.38,236.35,299.1z M219.49,222.7
			c11.31-12.36,22.52-24.62,32.91-35.98c-3.82-4.27-8.88-9.92-14.08-15.74c-13.78,10.53-24.71,22.89-32.8,36.82
			C210.18,212.76,214.51,217.39,219.49,222.7z M392.79,171.16c-5.24,5.56-10.33,10.96-14.03,14.89
			c10.95,11.9,22.21,24.13,33.61,36.52c4.89-5.08,9.17-9.52,13.55-14.07C420.37,196.82,405.27,179.58,392.79,171.16z M335.77,323.69
			c18.44,0,38.69,0,57.11,0c-8.86-9.72-18.4-20.19-28.56-31.33C354.11,303.55,344.57,314.02,335.77,323.69z M231.58,154.2
			c6.13-3.52,13-7.54,19.95-11.42c4.24-2.36,4.86-4.49,0.85-7.4c-7.29-5.3-14.62-10.82-22.69-14.66c-8.25-3.93-17.4-5.94-26.85-9.02
			C212.98,126.7,222.28,140.45,231.58,154.2z M428.19,112.14c-6.97,1.99-13.68,3.6-20.18,5.83c-10.86,3.73-20.61,9.5-29.08,17.31
			c-2.14,1.98-4.53,4.32-0.5,6.69c7.32,4.3,14.77,8.41,21.39,12.16C409.05,140.46,418.35,126.7,428.19,112.14z M267.72,292.68
			c-7.35,7.87-13.97,14.97-20.97,22.47c0.13,0.29,0.91,1.52,1.22,2.86c1.12,4.99,4.06,6.35,9.11,6.19
			c12.4-0.4,24.82-0.12,37.23-0.15c1.23,0,2.47-0.26,3.7-0.4c-0.51,0.28-1.01,0.57-1.52,0.85
			C286.98,314,277.48,303.49,267.72,292.68z M294.11,146.8c-13.43,1.88-27.45,6.83-39.99,13.95c4.41,4.99,8.6,9.74,13.27,15.02
			C276.84,165.53,285.8,155.81,294.11,146.8z M363.72,175.47c4.94-5.18,9.37-9.84,13.94-14.64c-12.98-6.98-26.74-12.26-40.21-13.97
			C345.83,155.98,354.7,165.64,363.72,175.47z M189.5,249.23c0.27,0.16,0.55,0.32,0.82,0.49c5.05-5.31,10.11-10.61,15.44-16.21
			c-2.54-2.38-5.53-5.17-9.23-8.65C193.98,233.71,191.74,241.47,189.5,249.23z M434.88,225.24c-3.71,3.54-6.67,6.36-9.63,9.18
			c0.63-0.34,1.27-0.69,1.9-1.03c4.75,5.22,9.49,10.43,14.94,16.42C439.57,241.27,437.32,233.59,434.88,225.24z M443.35,323.91
			c0-4.44,0-8.51,0-12.49c-4.33,4.16-8.5,8.17-13,12.49C434.82,323.91,438.83,323.91,443.35,323.91z"/>
		<path class="st0" d="M426.59,366.94c-0.11,4.62-4.07,8.42-8.68,8.31c-4.63-0.11-8.41-4.06-8.3-8.68c0.11-4.64,4.04-8.41,8.67-8.3
			C422.91,358.37,426.7,362.32,426.59,366.94z"/>
		<path class="st0" d="M290.03,383.58c0.14,4.6-3.63,8.6-8.24,8.75c-4.61,0.14-8.6-3.62-8.74-8.25c-0.14-4.63,3.59-8.6,8.24-8.74
			C285.9,375.19,289.88,378.95,290.03,383.58z"/>
		<path class="st0" d="M341.24,383.89c-0.04,4.62-3.94,8.47-8.56,8.44c-4.63-0.04-8.46-3.93-8.42-8.56
			c0.04-4.65,3.91-8.46,8.55-8.43C337.44,375.37,341.27,379.26,341.24,383.89z"/>
		<path class="st0" d="M375.68,417.93c-4.61,0.15-8.6-3.61-8.74-8.24c-0.15-4.63,3.59-8.6,8.23-8.75c4.62-0.15,8.6,3.6,8.75,8.23
			C384.06,413.78,380.29,417.79,375.68,417.93z"/>
		<path class="st0" d="M315.63,435.11c-0.04,4.62-3.95,8.47-8.56,8.43c-4.63-0.04-8.46-3.93-8.42-8.56
			c0.04-4.64,3.91-8.46,8.55-8.43C311.84,426.59,315.67,430.48,315.63,435.11z"/>
	</g>
</g>
</svg>
