<?xml version="1.0" encoding="utf-8"?>
<!-- Generator: Adobe Illustrator 25.2.3, SVG Export Plug-In . SVG Version: 6.00 Build 0)  -->
<svg version="1.1" id="Layer_1" xmlns="http://www.w3.org/2000/svg" xmlns:xlink="http://www.w3.org/1999/xlink" x="0px" y="0px"
	 viewBox="0 0 512 512" style="enable-background:new 0 0 512 512;" xml:space="preserve">
<style type="text/css">
	.st0{fill:#1F1F1F;}
</style>
<g id="_x38_ttV0i_1_">
	<g>
		<path class="st0" d="M178.8,129.17c-0.6-15.78-1.17-17.43-1.74-32.53c-0.88-23.55-2.05-36.65-2.53-60.21
			c-0.36-17.88,14.35-32.11,32.14-32.01c17.73,0.09,32.2,14.41,31.72,32.44c-0.87,32.33-2.37,36.74-3.52,69.06
			c-0.22,6.17-0.03,16.35-0.03,23.26c1.64,0,3.63,0,5.62,0c72.76,0,145.53,0,218.29,0c32.47,0,53.23,20.73,53.23,53.17
			c0.01,86.37,0.03,187.74-0.02,274.12c-0.01,24.09-14.39,43.38-36.88,49.33c-4.59,1.21-9.5,1.71-14.26,1.72
			c-136.58,0.09-273.17,0.1-409.75,0.05c-29.6-0.01-51.02-21.54-51.04-51.21c-0.05-87.06-0.06-189.12,0-276.18
			c0.02-29.39,21.27-50.66,50.75-50.92c3.07-0.03,4.78-0.78,6.42-3.63c22.63-39.37,77.68-39.28,100.42,0.14
			c1.51,2.62,3.05,3.61,5.98,3.48C168.38,129.01,173.18,129.17,178.8,129.17z M495.38,418.31c-159.84,0-319.16,0-478.84,0
			c0,9.58,0.51,25.87-0.1,35.09c-1.52,23,15.72,37.98,37.51,37.9c134.65-0.47,269.31-0.24,403.97-0.24c2.06,0,4.13,0.04,6.19-0.06
			c16.35-0.77,30.28-13.88,31.15-30.24C495.88,449.12,495.38,430.41,495.38,418.31z M233.33,164.21c6.91,0,13.58-0.01,20.25,0
			c17.13,0.03,27.18,10.11,27.19,27.32c0.02,56.09,0.01,112.17,0,168.26c0,12.71-6.36,19.15-18.93,19.15
			c-70.01,0.01-140.02,0.01-210.03,0c-12.29,0-18.75-6.49-18.76-18.8c-0.01-56.43-0.01-112.86,0.02-169.29
			c0-2.39,0.14-4.83,0.65-7.16c2-9.17,8.14-14.81,16.19-18.25c0-5.97,0-13.59,0-19.73c-2.1,0.16-3.96,0.14-5.75,0.47
			c-16.69,3.1-27.59,16.25-27.61,33.57c-0.05,69.68-0.02,147.36-0.01,217.04c0,1.48,0.19,2.96,0.28,4.28c159.78,0,319.12,0,478.65,0
			c0-1.78,0-3.15,0-4.52c0-69.33,0.02-146.67-0.01-216c-0.01-20.94-14.02-34.84-35.05-34.84c-73.79-0.02-147.59-0.01-221.38-0.01
			c-1.81,0-3.61,0-5.7,0C233.33,151.46,233.33,158.43,233.33,164.21z M230.77,230.04c-0.94-8.49-5.21-14.14-12.4-17.52
			c-2.9-1.36-3.88-3.08-3.74-6.32c1-22.51,1.78-47.03,2.65-69.55c1.56-40.57,3.17-57.23,4.64-97.8c0.39-10.79-6.01-17.86-15.55-17.8
			c-9.53,0.07-15.66,7.1-15.36,17.99c0.37,13.24,0.95,30.57,1.46,43.8c1.91,49.68,3.79,73.36,5.84,123.03
			c0.15,3.71-1.1,5.43-4.34,6.98c-7,3.34-10.92,9.1-11.83,17.18C198.34,230.04,214.29,230.04,230.77,230.04z M107.03,195.23
			c22.79,0.15,41.52-18.35,41.61-41.08c0.08-22.59-18.2-41.23-40.68-41.48c-22.83-0.25-41.67,18.12-41.86,40.81
			C65.9,176.29,84.33,195.08,107.03,195.23z M156.94,290.92c1.76-2.3,3.1-4.06,4.45-5.8c5.26-6.78,5.38-7.04,0.54-14.4
			c-19.27-29.32-46.18-47.66-80.5-54.55c-10.28-2.06-20.95-2.12-31.59-3.11c0,6.65,0,11.91,0,17.37
			C94.6,234.3,130.11,254.3,156.94,290.92z M181.65,247.05c0,16.48,0,32.72,0,48.9c-8.95,0.92-8.94,0.93-13.84,8.67
			c-7.42,11.72-12.74,24.34-15.78,37.85c-1.45,6.41-2.15,12.99-3.22,19.74c6.1,0,11.2,0,16.42,0c0.27-0.99,0.61-1.79,0.7-2.62
			c2.6-24.85,12.85-46.07,30.05-64.1c1.33-1.4,2.09-3.87,2.13-5.87c0.22-9.45,0.1-18.91,0.1-28.37c0-4.74,0-9.47,0-14.19
			C192.36,247.05,187.27,247.05,181.65,247.05z M49.87,263.53c40.73,4.72,70.41,25.59,89.25,62.6c2.68-6.21,5.31-11.94,7.57-17.81
			c0.42-1.08-0.3-2.94-1.04-4.08c-22.61-34.41-54.62-53.08-95.77-57.27C49.87,252.62,49.87,257.89,49.87,263.53z M131.38,362.22
			c-4.02-51.13-49.93-81.44-81.43-81.15c0,5.24,0,10.47,0,15.47c37.1,7.09,58.72,29.07,65.55,65.68
			C120.84,362.22,125.95,362.22,131.38,362.22z M198.71,362.24c2.3-17.37,9.32-31.98,21.38-44.06
			c12.17-12.21,27.05-19.04,43.78-21.4c0-5.74,0-10.95,0-16.69c-5.63,1.09-10.77,2.08-16.24,3.13c0,4.62,0,8.68,0,12.86
			c-5.7,0-10.94,0-16.16,0c-0.2-2.04-0.38-3.8-0.57-5.69c-31.83,15.29-48.58,50.51-48.06,71.86
			C187.95,362.24,193.06,362.24,198.71,362.24z M98.05,362.23c-3.23-29.02-30.81-48.11-48.22-47.86c0,5.26,0,10.52,0,15.78
			c17.17,4.5,27.65,15.47,32.13,32.07C87.51,362.23,92.63,362.23,98.05,362.23z M231.95,362.24c4.51-17.14,15.39-27.72,31.97-32.16
			c0-5.62,0-10.85,0-16.1c-26.99,2.68-47.41,28.62-47.81,48.26C221.24,362.24,226.37,362.24,231.95,362.24z M164.33,244.31
			c1.1-9.24,2.35-19.78,3.58-30.14c-13.33,0-27.72,0-40.76,0C139.39,224.09,152.23,234.51,164.33,244.31z M232.31,180.73
			c-0.25,5.74-0.48,10.93-0.71,16.23c11.18,0,21.72,0,32.67,0c0-2.3,0.03-4.32-0.01-6.35c-0.12-6.77-3.02-9.79-9.68-9.86
			C247.39,180.66,240.21,180.73,232.31,180.73z M231.23,247.19c-5.91,0-11.11,0-16.11,0c0,11.04,0,21.67,0,32.52
			c4.95-2.53,9.55-4.75,14-7.24c0.96-0.54,1.99-1.97,2.02-3.01C231.31,262.13,231.23,254.79,231.23,247.19z M149.05,196.82
			c10.83,0,21.48,0,32.34,0c-0.29-5.51-0.56-10.58-0.86-16.09c-6.48,0-12.61-0.09-18.73,0.08c-1.1,0.03-2.53,0.88-3.18,1.8
			C155.38,187.19,152.33,191.91,149.05,196.82z M263.94,230.39c0-5.86,0-11.07,0-16.38c-6.9,0-13.47,0-20.03,0
			c1.59,6.22,3.12,12.21,4.67,18.29C253.66,231.66,258.72,231.03,263.94,230.39z M247.97,266.04c5.54-0.87,10.75-1.7,16.02-2.53
			c0-5.55,0-10.8,0-16.48c-5.51,0.75-10.69,1.45-16.02,2.17C247.97,255,247.97,260.27,247.97,266.04z M164.98,145.96
			c0,5.47,0,12.58,0,17.9c4.92,0,9.8,0,14.49,0c0-5.45,0-12.54,0-17.9C174.49,145.96,169.92,145.96,164.98,145.96z M55.18,181.74
			c-5.66,2.57-6.69,5.68-4.99,15.27c5.16,0,10.35,0,15.85,0C62.25,191.68,58.72,186.71,55.18,181.74z M49.93,347.81
			c0,5.1,0,9.73,0,14.29c4.86,0,9.36,0,14.53,0C61.33,355.12,57.05,350.34,49.93,347.81z M264.14,347.43
			c-7.22,3.22-11.96,7.54-14.53,14.62c5.15,0,9.78,0,14.53,0C264.14,357.25,264.14,352.84,264.14,347.43z"/>
		<path class="st0" d="M297.29,270.93c0-29.25-0.01-58.5,0-87.74c0.01-12.55,6.48-18.98,19.09-18.98c47.82-0.01,95.64-0.01,143.46,0
			c12.7,0,19.11,6.35,19.11,18.97c0.01,59.01,0.01,118.02,0,177.03c0,12.26-6.51,18.73-18.84,18.73c-47.99,0.01-95.98,0.01-143.97,0
			c-12.35,0-18.84-6.44-18.85-18.72C297.28,330.46,297.29,300.7,297.29,270.93z M314.04,362.06c49.65,0,98.89,0,148,0
			c0-60.63,0-120.89,0-181.06c-49.53,0-98.65,0-148,0C314.04,241.41,314.04,301.55,314.04,362.06z"/>
		<path class="st0" d="M198.61,37.63c5.3,0,10.38,0,15.78,0c0,5.38,0,10.58,0,16.06c-5.21,0-10.29,0-15.78,0
			C198.61,48.6,198.61,43.39,198.61,37.63z"/>
		<path class="st0" d="M107.61,143.66c0-3.92,0-9.04,0-14.15c13.43-0.3,24.66,10.98,24.13,24.21c-5.11,0-10.23,0-14.19,0
			C114.17,150.3,111.33,147.43,107.61,143.66z"/>
		<path class="st0" d="M363.16,197.45c0,5.48,0,10.6,0,15.68c-11.83,3.46-17.31,9.93-16.23,19.08c0.93,7.85,7.74,14.2,15.64,14.56
			c8.96,0.41,15.3-5.39,17.64-16.49c2.63,0,5.35,0,8.08,0c2.55,0,5.09,0,7.6,0c1.33,16.4-13.3,32-30.46,32.97
			c-18.47,1.05-34.45-13.35-35.07-31.59C329.73,213,344.38,197.47,363.16,197.45z"/>
		<path class="st0" d="M420.91,263.64c0,5.11,0,10.23,0,15.39c-6.51,3.3-9.43,6.74-7.59,10.69c1.25,2.69,4.31,5.68,7.05,6.29
			c5.24,1.16,8.01-2.72,9.35-7.69c5.26,0,10.52,0,15.77,0c0.68,12.74-10.22,24.07-23.36,24.53c-13.94,0.49-25.63-10.69-25.72-24.57
			C396.32,274.63,407.37,263.41,420.91,263.64z"/>
		<path class="st0" d="M354.85,296.68c0,5.11,0,10.22,0,15.7c-4.58,1.54-8.69,4.03-7.85,9.97c0.57,3.98,3.21,6.56,7.26,6.9
			c5.43,0.47,8.06-2.94,9.39-7.9c5.26,0,10.52,0,15.77,0c0.65,12.76-10.23,24.08-23.38,24.53c-13.94,0.48-25.63-10.7-25.71-24.58
			C330.26,307.66,341.33,296.43,354.85,296.68z"/>
		<path class="st0" d="M429.22,197.64c0,5.35,0,10.43,0,15.81c-5.39,0-10.59,0-16.06,0c0-5.25,0-10.33,0-15.81
			C418.29,197.64,423.5,197.64,429.22,197.64z"/>
		<path class="st0" d="M396.58,345.51c0-5.35,0-10.43,0-15.81c5.39,0,10.59,0,16.06,0c0,5.25,0,10.33,0,15.81
			C407.51,345.51,402.3,345.51,396.58,345.51z"/>
	</g>
</g>
</svg>
