<?xml version="1.0" encoding="utf-8"?>
<!-- Generator: Adobe Illustrator 24.3.0, SVG Export Plug-In . SVG Version: 6.00 Build 0)  -->
<svg version="1.1" id="Layer_1" xmlns="http://www.w3.org/2000/svg" xmlns:xlink="http://www.w3.org/1999/xlink" x="0px" y="0px"
	 viewBox="0 0 128 128" style="enable-background:new 0 0 128 128;" xml:space="preserve">
<style type="text/css">
	.st0{fill:#705F5F;}
	.st1{fill:#FFDC00;}
</style>
<rect x="-0.4" y="-0.2" class="st0" width="128.9" height="128.5"/>
<g>
	<path class="st1" d="M45.94,52.99c1.74,3.73,3.81,7.37,6.55,10.44c0.99-1.82,1.74-3.73,2.57-5.63c3.23-8.45,4.97-17.4,6.13-26.26
		c0.83-6.71,1.41-13.59,1.33-20.3c-7.71,0.17-15.58,2.15-22.54,5.63c-0.17,0.08-0.41,0.25-0.58,0.41c-0.17,1.33,0,2.73-0.08,4.06
		C39.56,32.11,41.46,43.05,45.94,52.99z"/>
	<path class="st1" d="M71.12,52.58c1.16,3.65,2.49,7.37,4.31,10.77c1.99-2.32,3.65-4.89,5.14-7.54c4.39-8.2,6.71-17.48,7.62-26.76
		c0.33-3.89,0.58-7.87,0.41-11.76c-1.74-1.08-3.73-1.82-5.55-2.65c-5.63-2.15-11.6-3.31-17.65-3.48c-0.08,3.31,0.08,6.63,0.33,9.86
		C66.48,31.7,67.98,42.3,71.12,52.58z"/>
	<path class="st1" d="M26.55,57.79c3.98-5.88,6.38-12.68,7.95-19.55c1.41-6.38,2.15-12.92,2.15-19.47
		c-0.41,0.17-0.83,0.41-1.16,0.66c-6.71,4.31-12.51,10.11-16.74,16.98c-6.21,10.02-8.87,22.37-7.37,34.05
		C17.6,67.9,22.82,63.26,26.55,57.79z"/>
	<path class="st1" d="M110.81,39.32c-3.73-7.13-9.2-13.42-15.74-18.14c-1.24-0.83-2.4-1.74-3.73-2.4c0,5.22,0.5,10.52,1.41,15.74
		c1.41,7.87,3.89,15.74,8.2,22.45c3.73,5.88,9.11,10.85,15.66,13.5C117.93,59.87,115.86,48.76,110.81,39.32z"/>
	<path class="st1" d="M48.09,73.04c-0.33-0.66-0.99-1.16-1.49-1.74c-2.24-2.57-4.06-5.47-5.63-8.45c-1.24-2.4-2.15-4.97-2.98-7.46
		c-0.5,0.75-0.75,1.57-0.99,2.4c-1.49,4.23-3.65,8.29-6.38,11.85c-4.23,5.47-9.86,10.11-16.4,12.51c0.08,0.5,0.25,0.99,0.41,1.41
		c1.66,4.14,3.81,8.12,6.46,11.68c1.08,1.33,2.07,2.82,3.31,3.98c0.83-0.25,1.49-0.75,2.24-1.16c7.95-5.14,14.25-12.59,19.06-20.63
		C46.6,76.02,47.51,74.61,48.09,73.04z"/>
	<path class="st1" d="M64.66,58.13c-0.25-0.91-0.17-1.91-0.75-2.65c-0.58,0.75-0.5,1.82-0.75,2.65c-1.74,8.95-4.39,17.81-7.95,26.18
		c-4.06,9.45-9.36,18.56-16.82,25.77c-0.33,0.41,0.41,0.58,0.66,0.75c7.46,3.89,15.91,6.05,24.36,6.13
		c9.03,0.08,18.23-2.15,26.1-6.63c-7.46-7.37-13.01-16.57-17.07-26.18C69.14,75.77,66.4,67.07,64.66,58.13z"/>
	<path class="st1" d="M90.93,57.71c-0.25-0.75-0.41-1.57-0.91-2.24c-0.5,0.83-0.75,1.82-1.08,2.73c-1.99,5.39-4.97,10.36-8.87,14.58
		c-0.41,0.33-0.08,0.75,0.08,1.08c1.74,3.31,3.73,6.46,5.88,9.45c4.23,5.72,9.28,10.94,15.33,14.91c0.66,0.41,1.33,0.91,2.07,1.08
		c0.58-0.41,0.99-1.08,1.41-1.57c2.82-3.4,5.14-7.13,7.04-11.1c0.66-1.41,1.33-2.9,1.74-4.39c-3.56-1.33-6.79-3.23-9.69-5.63
		C97.97,71.63,93.49,65,90.93,57.71z"/>
</g>
</svg>
