<?xml version="1.0" encoding="utf-8"?>
<!-- Generator: Adobe Illustrator 24.3.0, SVG Export Plug-In . SVG Version: 6.00 Build 0)  -->
<svg version="1.1" id="Layer_1" xmlns="http://www.w3.org/2000/svg" xmlns:xlink="http://www.w3.org/1999/xlink" x="0px" y="0px"
	 viewBox="0 0 128 128" style="enable-background:new 0 0 128 128;" xml:space="preserve">
<style type="text/css">
	.st0{fill:#0E0484;}
	.st1{fill:#FFFFFF;}
</style>
<path class="st0" d="M-10-10h148v148H-10V-10z"/>
<path class="st1" d="M83.07,35.45L64,10.52L44.93,35.45c-14.32,18.79-20,27.25-20,39.81c0,10.7,2.79,15.9,12.74,23.16L64,117.48
	l26.32-19.07c10.04-7.25,12.74-12.46,12.74-23.16C103.06,62.7,97.39,54.23,83.07,35.45z M58.14,97.3l-0.19,5.21
	c0,0.65-0.37,0.74-0.84,0.37c-6.88-4.93-14.88-10.79-14.88-10.79c-8.37-6.05-8.84-12.56-8.84-16.93c0-2.98,0.37-6.23,1.86-9.58
	c0.09-0.28,0.28-0.65,0.47-0.65s0.28,0.09,0.37,0.28c2.88,4.28,7.63,11.16,12.28,16.83C57.4,92.83,58.33,91.9,58.14,97.3z M64,87.44
	c-0.09,0-0.19-0.09-0.28-0.09L45.31,65.49c-2.05-2.51-3.26-5.3-3.26-8c0-1.86,0.65-3.72,2.05-5.49l19.62-27.06
	c0.09-0.09,0.19-0.19,0.28-0.19s0.19,0.09,0.28,0.19L84,52c1.21,1.77,2.05,3.72,2.05,5.49c0,2.79-1.12,5.49-3.26,8L64.28,87.44
	C64.19,87.44,64.09,87.44,64,87.44z M85.76,92.09c0,0-8.09,5.86-14.88,10.79c-0.37,0.37-0.74,0.28-0.84-0.37l-0.19-5.21
	c-0.19-5.39,0.74-4.46,9.77-15.35c4.65-5.67,9.39-12.56,12.28-16.83c0.09-0.19,0.28-0.28,0.37-0.28c0.19,0,0.37,0.37,0.47,0.65
	c1.3,3.35,1.86,6.6,1.86,9.58C94.6,79.53,94.04,86.04,85.76,92.09z"/>
</svg>
