<?xml version="1.0" encoding="utf-8"?>
<!-- Generator: Adobe Illustrator 24.3.0, SVG Export Plug-In . SVG Version: 6.00 Build 0)  -->
<svg version="1.1" id="Layer_1" xmlns="http://www.w3.org/2000/svg" xmlns:xlink="http://www.w3.org/1999/xlink" x="0px" y="0px"
	 viewBox="0 0 128 128" style="enable-background:new 0 0 128 128;" xml:space="preserve">
<style type="text/css">
	.st0{fill:#FF8400;}
	.st1{fill:#FFFFFF;}
</style>
<rect x="-10" y="-8" class="st0" width="146" height="146"/>
<g>
	<path class="st1" d="M15.61,87.85c0-5.14,0.08-10.2,0-15.34c0-1.69,0.59-2.11,2.11-2.11c2.87,0.08,5.73,0,8.6,0.08
		c1.69,0.08,2.11-0.59,2.11-2.19c-0.08-3.2-0.08-6.41,0-9.61c0-1.43-0.42-2.11-1.94-2.02c-3.03,0.08-5.98,0-9.02,0.08
		c-1.35,0-1.77-0.42-1.77-1.77c0.08-5.98,0.08-11.97,0-18.04c0-1.43,0.76-2.02,1.77-2.7C29.85,27,42.32,19.83,54.71,12.59
		c0.25-0.17,0.51-0.25,0.67-0.42c3.62-3.37,6.74-2.44,10.7,0.17c14.58,9.52,29.5,18.71,44.25,27.9c1.43,0.93,2.02,1.85,2.02,3.62
		c-0.08,9.1-0.08,18.29,0,27.39c0,1.69-0.51,2.28-2.19,2.19c-3.03-0.08-5.98,0-9.02-0.08c-1.35,0-2.02,0.34-1.94,1.85
		c0.08,3.37,0.08,6.66,0,10.03c0,1.43,0.51,1.94,1.94,1.94c3.03-0.08,5.98,0,9.02,0c1.26,0,1.85,0.34,1.77,1.77
		c-0.08,4.72-0.08,9.44,0,14.16c0,1.6-0.67,2.11-2.02,2.53c-12.3,3.88-24.61,7.75-36.91,11.8c-2.7,0.84-4.8,0.67-7.33-0.34
		c-9.44-3.79-18.88-7.42-28.32-11.12c-1.01-0.42-2.11-0.59-3.2-0.59c-5.48-0.08-10.96-0.08-16.35,0c-1.94,0.08-2.44-0.67-2.36-2.44
		C15.69,97.88,15.61,92.82,15.61,87.85z M23.19,44.36c0.93-0.25,1.69-0.42,2.44-0.67c9.35-3.12,18.71-6.15,28.06-9.44
		c2.19-0.76,3.88-0.51,5.73,0.76c5.39,3.88,10.96,7.59,16.52,11.29c1.85,1.26,2.28,2.87,1.1,4.89c-1.35,2.36-2.87,2.87-5.06,1.6
		c-2.28-1.35-4.47-2.87-6.74-4.3c-2.53-1.6-4.3-1.1-6.15,1.6c-1.69,2.44-1.43,4.21,1.01,5.9c5.73,4.05,11.55,8.01,17.36,11.88
		c0.76,0.51,1.85,0.84,2.87,0.84c7.5,0.08,15,0,22.5,0.08c1.6,0,2.28-0.34,2.28-2.11c-0.08-6.57-0.08-13.23,0-19.81
		c0-1.26-0.42-1.94-1.43-2.61C89.6,35.93,75.45,27.5,61.37,19.08c-1.35-0.84-2.44-0.76-3.71,0c-10.62,6.24-21.24,12.47-31.86,18.71
		C22.43,39.56,22.18,40.23,23.19,44.36z M80.59,92.65c-7.59,0-15.17,0-22.76,0c-2.44,0-3.71-1.52-3.71-4.13
		c0.08-2.44,1.01-3.37,3.54-3.37c3.62,0,7.25,0.08,10.87-0.08c2.7-0.08,3.96-1.6,3.96-4.38c0-2.44-1.85-4.38-4.21-4.38
		c-14.5,0-29.08,0-43.57,0c-1.43,0-1.94,0.42-1.94,1.85c0.08,6.32,0.08,12.73,0,19.05c0,1.52,0.51,2.02,2.02,2.02
		c4.8-0.08,9.69-0.08,14.5,0c1.1,0,2.19,0.17,3.2,0.59c8.26,3.2,16.52,6.41,24.69,9.69c1.69,0.67,3.03,0.67,4.72,0.17
		c10.28-3.46,20.65-6.83,31.01-10.2c1.85-0.59,2.78-1.43,2.44-3.46c-0.08-0.42-0.08-0.84,0-1.26c0.17-1.6-0.42-2.11-2.02-2.11
		C95.67,92.74,88.09,92.65,80.59,92.65z"/>
</g>
</svg>
