<?xml version="1.0" encoding="utf-8"?>
<!-- Generator: Adobe Illustrator 21.0.2, SVG Export Plug-In . SVG Version: 6.00 Build 0)  -->
<svg version="1.1" id="Layer_1" xmlns="http://www.w3.org/2000/svg" xmlns:xlink="http://www.w3.org/1999/xlink" x="0px" y="0px"
	 viewBox="0 0 128 128" style="enable-background:new 0 0 128 128;" xml:space="preserve">
<style type="text/css">
	.st0{fill:#00AA4C;}
	.st1{fill:#FFFFFF;}
</style>
<path class="st0" d="M10.3,0.3h107.4c5.5,0,10,4.5,10,10v107.4c0,5.5-4.5,10-10,10H10.3c-5.5,0-10-4.5-10-10V10.3
	C0.3,4.8,4.8,0.3,10.3,0.3z"/>
<g>
	<g>
		<g>
			<path class="st1" d="M91.1,91.9c-2.4-1.3-5-2.5-8.9-2.5c-3.4,0-6.2,1.3-8.8,2.5c-2.8,1.3-5.7,2.6-9.5,2.6c-3.4,0-5.9-1.2-8.6-2.4
				c-2.8-1.3-5.7-2.6-9.6-2.6c-3.4,0-6.2,1.3-8.9,2.4c-2.8,1.3-5.7,2.6-9.5,2.6c-0.2,0-0.4,0-0.6,0c0.4,0.4,0.8,1,1.2,1.4
				c3.9-0.1,6.7-1.4,9.5-2.7c2.7-1.2,5.1-2.3,8.3-2.3c3.6,0,6.2,1.3,9,2.5c2.7,1.3,5.6,2.6,9.3,2.6C68,96,71,94.5,74,93.2
				c2.6-1.2,5.1-2.3,8.3-2.3c3.5,0,5.8,1.2,8.3,2.4c2.6,1.3,5.4,2.7,9.9,2.7c0.4-0.4,0.8-1,1.3-1.5c-0.4,0-0.8,0.1-1.2,0.1
				C96.3,94.4,93.6,93.1,91.1,91.9"/>
			<path class="st1" d="M82.2,92c-3.4,0-6.2,1.3-8.8,2.5c-2.8,1.3-5.7,2.6-9.5,2.6c-3.4,0-5.9-1.2-8.6-2.4c-2.8-1.3-5.7-2.6-9.6-2.6
				c-3.4,0-6.2,1.3-8.9,2.4c-2.3,1.1-4.9,2.2-7.8,2.5c0.4,0.4,0.8,0.9,1.3,1.3c2.8-0.4,5-1.4,7.2-2.4c2.7-1.2,5.1-2.3,8.3-2.3
				c3.6,0,6.2,1.3,9,2.5c2.7,1.3,5.6,2.6,9.3,2.6c4.1,0,7.2-1.4,10.2-2.8c2.6-1.3,5.1-2.3,8.3-2.3c3.5,0,5.8,1.2,8.3,2.4
				c2.2,1.1,4.3,2.2,7.5,2.6c0.4-0.4,0.9-0.9,1.3-1.3c-3.5-0.2-5.8-1.4-8.1-2.5C88.6,93.3,86.1,92,82.2,92"/>
			<path class="st1" d="M82.2,94.7c-3.4,0-6.2,1.3-8.8,2.5c-2.8,1.3-5.7,2.6-9.5,2.6c-3.4,0-5.9-1.2-8.6-2.4
				c-2.8-1.3-5.7-2.6-9.6-2.6c-3.4,0-6.2,1.3-8.9,2.4c-1.7,0.8-3.5,1.6-5.6,2.1c0.4,0.4,0.8,0.8,1.3,1.2c1.7-0.5,3.3-1.3,4.9-1.9
				c2.7-1.2,5.1-2.3,8.3-2.3c3.6,0,6.2,1.3,9,2.5c2.7,1.3,5.6,2.6,9.3,2.6c4.1,0,7.2-1.4,10.2-2.8c2.6-1.2,5.1-2.3,8.3-2.3
				c3.5,0,5.8,1.2,8.3,2.3c1.5,0.8,3.1,1.5,5,2.1c0.4-0.4,0.9-0.8,1.3-1.2c-2.2-0.4-4-1.3-5.7-2.2C88.6,96.1,86.1,94.7,82.2,94.7"/>
			<path class="st1" d="M82.2,97.5c-3.4,0-6.2,1.3-8.8,2.5c-2.8,1.3-5.7,2.6-9.5,2.6c-3.4,0-5.9-1.2-8.6-2.4
				c-2.8-1.3-5.7-2.6-9.6-2.6c-3.4,0-6.2,1.3-8.9,2.4c-1.1,0.4-2.1,1-3.2,1.3c0.4,0.4,0.9,0.7,1.3,1.1c0.9-0.4,1.7-0.7,2.5-1.1
				c2.7-1.2,5.1-2.3,8.3-2.3c3.6,0,6.2,1.3,9,2.5c2.7,1.3,5.6,2.6,9.3,2.6c4.1,0,7.2-1.4,10.2-2.8c2.6-1.3,5.1-2.3,8.3-2.3
				c3.5,0,5.8,1.2,8.3,2.4c0.8,0.4,1.7,0.9,2.6,1.3c0.4-0.4,0.9-0.7,1.3-1.1c-1.2-0.4-2.2-1-3.3-1.5C88.6,98.8,86.1,97.5,82.2,97.5"
				/>
			<path class="st1" d="M82.2,100.2c-3.4,0-6.2,1.3-8.8,2.5c-2.8,1.3-5.7,2.6-9.5,2.6c-3.4,0-5.9-1.2-8.6-2.4
				c-2.8-1.3-5.7-2.6-9.6-2.6c-3.4,0-6.2,1.3-8.9,2.4c-0.3,0.2-0.6,0.3-0.9,0.4c0.4,0.4,0.9,0.6,1.3,1c0.1,0,0.1,0,0.2-0.1
				c2.7-1.2,5.1-2.3,8.3-2.3c3.6,0,6.2,1.3,9,2.5c2.7,1.3,5.6,2.6,9.3,2.6c4.1,0,7.2-1.4,10.2-2.8c2.6-1.3,5.1-2.3,8.3-2.3
				c3.5,0,5.8,1.2,8.3,2.4c0.1,0.1,0.2,0.1,0.4,0.2c0.4-0.3,0.9-0.6,1.3-0.9c-0.4-0.2-0.7-0.4-1-0.5
				C88.6,101.6,86.1,100.2,82.2,100.2"/>
			<path class="st1" d="M73.3,105.4c-2.8,1.3-5.7,2.6-9.5,2.6c-3.4,0-5.9-1.2-8.6-2.4c-2.8-1.3-5.7-2.6-9.6-2.6
				c-2.8,0-5.1,0.8-7.4,1.8c0.5,0.4,1,0.6,1.5,0.9c1.8-0.7,3.7-1.3,5.8-1.3c3.6,0,6.2,1.3,9,2.5c2.7,1.3,5.6,2.6,9.3,2.6
				c4.1,0,7.2-1.4,10.2-2.8c2.6-1.2,5.1-2.3,8.3-2.3c2.5,0,4.4,0.5,6.1,1.3c0.5-0.3,1-0.6,1.4-0.9c-2.1-1-4.4-1.9-7.5-1.9
				C78.8,103,75.9,104.2,73.3,105.4"/>
		</g>
		<path class="st1" d="M64,6.5C32.3,6.5,6.5,32.3,6.5,64s25.8,57.5,57.5,57.5s57.5-25.8,57.5-57.5S95.7,6.5,64,6.5L64,6.5z
			 M64,112.3c-26.7,0-48.3-21.7-48.3-48.3S37.3,15.7,64,15.7s48.3,21.7,48.3,48.3S90.7,112.3,64,112.3"/>
	</g>
	<g>
		<path class="st1" d="M90.9,49.8c-0.4,1.8-2.2,3.7-3.1,4.5c-2.2,1.8-17.2,10.9-18.9,12.9s-2,5.2-2,7.5v17.5h2.3c0-1.5,0-4.1,0-4.5
			c0-1.5,0.9-4,2.7-5.8c3.1-3.2,10.2-7.2,14.9-10.6c3.9-2.9,4.1-6.7,4.1-10.1c0-2.8,0-10.5,0-11.9L90.9,49.8z"/>
		<path class="st1" d="M67,66.2c1.6-2.1,17.1-11.4,19.2-13.2c2.2-1.8,4.8-4.5,4.8-8c0-3,0-17.5,0-19.6c0,2.8-1.5,4.9-3.5,7.5
			c-2.2,3-12.6,8.5-17.7,12.1s-6.8,7.1-6.8,11.5c0,3.7,0,27.9,0,35.8h2.2c0-5.1,0-16.9,0-18.7C65.1,71.2,65.3,68.2,67,66.2z"/>
		<path class="st1" d="M55.3,45.9c-4.7-3.6-14.2-11.2-15.4-12.8c-1.2-1.5-3.6-4.2-3.6-7.5c0,2.4,0,16,0,18.2c0,2.6,1.3,7.3,5.8,10.6
			s10.9,8.1,12.8,10.1c1.9,1.9,3.7,5.4,3.7,10.3c0,3.6,0,13.2,0,17.6h2.2c0-7.5,0-30.4,0-34.9C61,51.7,60,49.4,55.3,45.9z"/>
	</g>
</g>
</svg>
