<?xml version="1.0" encoding="utf-8"?>
<!-- Generator: Adobe Illustrator 24.3.0, SVG Export Plug-In . SVG Version: 6.00 Build 0)  -->
<svg version="1.1" id="Layer_1" xmlns="http://www.w3.org/2000/svg" xmlns:xlink="http://www.w3.org/1999/xlink" x="0px" y="0px"
	 viewBox="0 0 128 128" style="enable-background:new 0 0 128 128;" xml:space="preserve">
<style type="text/css">
	.st0{fill:#269DC3;}
	.st1{fill:#FFFFFF;}
</style>
<rect x="-8" y="-8" class="st0" width="145" height="145"/>
<g>
	<path class="st1" d="M64,17.19c-25.82,0-46.81,20.99-46.81,46.81S38.18,110.81,64,110.81S110.81,89.82,110.81,64
		S89.82,17.19,64,17.19z M53.39,44.32c0-0.8,0.95-1.9,1.68-2.27c7.83-3.73,15.8-7.31,23.63-10.97c3.07-1.39,6-1.02,8.49,1.24
		c2.85,2.71,5.63,5.49,8.34,8.41c0.59,0.59,0.66,1.76,0.95,2.63c-0.8,0.22-1.61,0.44-2.49,0.66c-1.61,0.37-3.29,0.51-4.75,1.24
		c-10.83,5.12-21.65,10.46-32.55,15.65c-0.95,0.44-1.83,0.8-3.36,1.54C53.32,55.95,53.25,50.18,53.39,44.32z M90.77,79.43
		c-3.66,0.15-7.31,0.15-10.9,0c-0.8-0.07-1.97-0.8-2.34-1.61C74.17,71.39,70.95,64.88,67.51,58c5.41-2.63,10.46-5.05,15.8-7.68
		c3.95,7.61,7.97,14.92,11.63,22.46C96.48,75.92,94.36,79.21,90.77,79.43z M38.11,34.45c4.1-3.36,8.34-6.36,13.53-7.53
		c0,17.77,0,34.96,0,52.37c-5.85,0-11.26,0-17.12,0c0-1.1,0-2.12,0-3.22c0-11.26,0.07-22.46,0-33.72
		C34.52,39.06,35.62,36.5,38.11,34.45z M77.17,97.79c-4.39,0-8.7,0-13.09,0c-4.24,0-8.56-0.29-12.8,0.07
		c-6.22,0.51-11.12-2.05-15.14-6.8c-2.05-2.49-4.02-5.05-5.92-7.68c-0.44-0.59-0.44-1.68-0.22-2.34c0.07-0.29,1.24-0.37,1.9-0.29
		c1.83,0.15,3.66,0.59,5.56,0.59c17.56,0.07,35.18,0.07,52.74,0c2.05,0,4.1-0.44,6.14-0.66c0.59-0.07,1.54,0,1.68,0.29
		c0.29,0.59,0.29,1.54,0.07,2.12C95.01,90.99,85.29,97.79,77.17,97.79z"/>
</g>
</svg>
