<?xml version="1.0" encoding="utf-8"?>
<!-- Generator: Adobe Illustrator 24.3.0, SVG Export Plug-In . SVG Version: 6.00 Build 0)  -->
<svg version="1.1" id="Layer_1" xmlns="http://www.w3.org/2000/svg" xmlns:xlink="http://www.w3.org/1999/xlink" x="0px" y="0px"
	 viewBox="0 0 128 128" style="enable-background:new 0 0 128 128;" xml:space="preserve">
<style type="text/css">
	.st0{fill:#00A4EC;}
	.st1{fill:#FFFFFF;}
</style>
<rect x="-6.38" y="-6.38" class="st0" width="140.76" height="140.76"/>
<g id="g6429_1_" transform="matrix(1.25,0,0,-1.25,363.7077,521.25435)">
	<path id="path6431_1_" class="st1" d="M-225.98,345.27c0,0,0.42,0.7,0.63-0.28c0,0,0.42-5.68-2.87-9.18
		c-2.24-2.31-7.43-5.61-13.25-4.13c0,0,9.32,0.63,11.7,9.88l0.28,1.05C-229.63,342.6-227.32,343.24-225.98,345.27 M-204.75,373.86
		c0,0.14,0,0.21-0.07,0.35c0,0-0.14,0.56-0.49,1.54c-0.07,0.14-0.14,0.28-0.14,0.42l0,0c0,0.07-0.07,0.14-0.07,0.14
		c-0.63,1.47-1.82,3.57-3.85,5.61c0,0,2.17,0.14-0.21,2.8c0,0-3.92,4.63-11.56,8.2c-4.06,1.89-8.69,1.12-8.27-3.43
		c0.28-3.15-2.66-4.42-4.98-4.13c-2.73,0.35-4.42,2.59-3.92,4.42c0.49,1.96,1.47,3.5,3.01,4.7c1.05,0.84,1.75,1.4,3.64,1.75
		c1.12,0.21,2.66,0.63,3.08-0.7c0.77,0.42,2.17,3.08-2.38,3.08c0,0-0.7,1.47-2.24,1.19c0,0-4.56,4.49-9.67-1.05c0,0-1.96-0.77-2.1,0
		c0.42-0.35,1.19,0.7,0.21,1.12c-0.49,0.21-1.05-0.35-1.12-0.77c-0.07-0.35,0.07-1.19,1.05-1.33c0.28-0.07,0.77,0,0.77,0l-0.35-0.42
		c-1.54-0.63-2.94-0.14-3.22,0.91c0.35-0.21,0.77,0.07,0.84,0.42c0.14,0.42-0.14,0.98-0.77,1.05c-0.84,0.14-1.19-0.84-1.05-1.68
		c0.28-1.33,1.54-2.24,3.22-1.96l-0.28-0.42c0,0-1.68-2.1-3.01-4.49c-1.4-2.38-7.08-5.05-6.1,0.7c0.28,1.82-2.73,3.99-8.13,0.35
		c-2.8-1.96-6.31-4.91-8.97-9.67c0,0-1.12-1.82,0.77-1.89c0,0-3.85-1.82-4.06-10.58l0,0c0,0,0-0.35,0-0.84c0-0.28,0-0.63,0-0.91
		c0-0.98,0.07-2.1,0.14-2.73c0,0,0.42-5.26,1.33-6.17c0,0,0.07,0,0.14,0c0.28-0.21,0.63-0.28,1.12,0.21l0,0
		c0-0.07,1.19-5.96,3.57-10.93c1.96-3.92,5.54-9.67,4.14-11.07c-1.4-1.4-3.36,1.4-3.08,0.28c0.63-2.31,3.08-2.66,4.35-1.68
		c3.36,2.66-1.54,9.04-3.08,17.1c3.22,1.4,3.08,6.45,3.08,6.45s4.56,0.14,5.96,5.54c0,0,5.54-1.61,8.2,3.22c0,0,0,0,0,0.07
		l0.07,0.07c0.56-1.68,1.61-3.15,3.08-4.49c0,0-0.28-2.31-2.87-3.15c0,0-3.15,1.33-6.66,0c-3.15-1.26-1.89-4.63,0.42-3.78
		c-0.7,0.35-0.91,1.47,0.21,1.75c0.28-0.21,0.56-0.35,0.91-0.42l0,0c0.07,0,2.8-0.49,4.77,0.28c0.14,0.07,0.28,0.07,0.42,0.21h0.07
		l0,0c0.21,0.14,0.35,0.28,0.49,0.42c0.7-0.07,1.19-1.12,0.21-1.61c1.89-0.42,2.59,1.61,1.82,2.66c0,0,0.42,0.28,0.98,0.7
		c0,0,0.63,0.56,1.05,1.26c0,0,1.89-1.47,5.33-2.31c0,0-1.82-3.01-4.49-3.57c0,0-3.78,1.26-6.38-0.35c0,0-1.4-0.77-1.19-2.24
		c0.14-1.12,1.12-1.96,2.45-1.75c-0.56,0.28-1.82,1.68-0.21,2.31c0.28-0.42,0.63-0.7,1.12-0.77l0,0c0,0,2.38-0.56,5.33,0.7
		c0.14,0.07,0.21,0.07,0.35,0.14c0,0,0.07,0,0.14,0.07l0,0c0.21,0.14,0.35,0.28,0.42,0.42c0.77,0.14,1.82-0.21,1.4-1.68
		c0.91,0.14,2.38,1.75,0.21,3.08c0,0,1.26,0.63,2.31,1.54l1.54,1.54c3.01-0.42,5.26-3.29,5.26-6.8c0-2.87-2.45-6.24-5.05-6.94
		c0.07,0,0.21,0.07,0.28,0.07l-0.35-0.07h0.07c-0.42-0.07-0.84-0.14-1.4-0.14c-2.66,0.07-1.05,3.15-1.05,3.15
		c-0.42,0.07-0.84-0.07-1.19-0.49c-0.42-0.49-0.56-1.4-0.42-2.38c-0.14,0.07-0.28,0.07-0.35,0.14c-2.31,0.98-2.17,2.73-2.17,2.73
		c-0.63-0.28-1.05-1.05-0.84-2.38c0.35-1.75,2.59-2.52,4.42-2.73c1.05-1.05,2.73-2.1,6.59-1.47c0,0-1.68-8.97-13.04-8.55
		c0,0-3.43,1.26-3.29,4.13c0.14,3.85,2.8,5.19,2.8,5.19c-0.98,0.14-3.36-0.14-4.42-3.29c-0.49-1.4-0.35-3.78,0.91-5.4
		c-4.28,1.12-7.5,4.35-6.17,8.83c0.21,0.7,0.63,1.4,1.19,2.03c3.22,3.01,7.99,1.19,7.99,1.19c-0.21,1.05-1.54,2.45-3.92,2.59
		c-2.45,0.14-7.15-1.33-7.5-7.01c-0.35-5.19,2.94-8.97,11.14-10.16l0.14-0.07c0,0,4.98-3.5,11.98-1.61c0,0,14.16,2.87,11.14,19.06
		c0,0,3.29,10.79-3.64,16.89c4.28-3.5,9.53-1.47,9.53-1.47c-0.35-9.81,3.78-11.07,3.78-11.07l0.14,0.07c0,0-7.78-16.75-3.22-18.92
		c1.54-0.7,3.36-0.35,4.28,1.61c0.77,1.61-1.68-1.54-3.08-0.21c-1.68,1.68,0.42,5.68,2.45,9.95c2.87,5.75,4.77,10.02,5.12,12.9
		c0,0,0.42-0.28,0.91-0.07l0.07-0.07c1.12,0.28,1.82,4.91,1.96,5.68C-204.05,368.68-204.33,371.83-204.75,373.86"/>
</g>
</svg>
