<?xml version="1.0" encoding="utf-8"?>
<!-- Generator: Adobe Illustrator 24.3.0, SVG Export Plug-In . SVG Version: 6.00 Build 0)  -->
<svg version="1.1" id="Layer_1" xmlns="http://www.w3.org/2000/svg" xmlns:xlink="http://www.w3.org/1999/xlink" x="0px" y="0px"
	 viewBox="0 0 128 128" style="enable-background:new 0 0 128 128;" xml:space="preserve">
<style type="text/css">
	.st0{fill:#4E2683;}
	.st1{fill:#FFAE00;}
</style>
<path class="st0" d="M-9-9h145.9v145.9H-9V-9z"/>
<path class="st1" d="M13.1,103.8c8.4,3.9,16.8,7.9,25.2,12c0.4,0.3,1,0.3,1.5,0.3c6.4,0,12.8,0,19.2,0c1.1,0,1.3-0.4,1.3-1.4
	c-0.1-5.7,0-11.3,0-17c0-0.4-0.1-0.5-0.1-1.1c-0.5,0.3-0.9,0.4-1.3,0.5c-5.8,2.6-11.9,4.7-18.4,3.8c-2.6-0.4-4.8-1.2-6.8-3
	c-3.4-3.2-4.3-7.4-4.4-11.8c-0.1-3.7,0.3-7.3,0.7-11c0.5-4.3,1.6-8.4,3.4-12.3C38.2,52.1,45.4,43,53.8,35c2.7-2.6,6-4.7,9.1-7.1
	c0.7-0.5,1.5-0.5,2.3,0c2.5,1.8,5,3.5,7.3,5.4c5.9,5.2,11,11.1,15.3,17.6c4.5,6.5,8.2,13.4,9.7,21.3c1.1,5.7,1.8,11.6,0.8,17.4
	c-1.5,7.8-6.1,11.2-13.1,11.4c-3.5,0.1-6.8-0.6-10.1-1.8c-2.4-0.8-4.7-1.8-7.1-2.7c0,0.4,0,0.5,0,0.8c0,5.7,0,11.3,0,16.9
	c0,1.2,0.4,1.5,1.6,1.5c6.2-0.1,12.3,0,18.5-0.1c0.8,0,1.6-0.3,2.4-0.5c8.1-3.8,16.2-7.8,24.3-11.6c1.6-0.8,1.6-0.7,1.2-2.6
	c-4.6-17.9-9-35.7-13.6-53.6c-0.2-0.5-0.5-1.2-1-1.7c-1.8-1.8-3.7-3.6-5.6-5.3c-3.6-3.3-7.1-6.6-10.8-9.9c-5-4.4-9.8-8.7-14.6-13.1
	c-1.8-1.7-3.8-3.5-5.7-5.3c-0.6-0.5-1.1-0.5-1.7,0.1c-0.8,0.8-1.7,1.6-2.6,2.3c-3.7,3.5-7.5,6.9-11.2,10.3c-4,3.7-7.9,7.3-12,11
	c-2.9,2.6-5.8,5.3-8.8,7.9c-1.1,1.1-2.5,2-2.9,3.7C21,65.1,16.5,83,12,100.8C11.8,102.7,12,103.3,13.1,103.8z"/>
</svg>
