<?xml version="1.0" encoding="utf-8"?>
<!-- Generator: Adobe Illustrator 24.3.0, SVG Export Plug-In . SVG Version: 6.00 Build 0)  -->
<svg version="1.1" id="Layer_1" xmlns="http://www.w3.org/2000/svg" xmlns:xlink="http://www.w3.org/1999/xlink" x="0px" y="0px"
	 viewBox="0 0 128 128" style="enable-background:new 0 0 128 128;" xml:space="preserve">
<style type="text/css">
	.st0{fill:#F9502C;}
	.st1{fill:#FFFFFF;}
	.st2{opacity:0.7;fill:#FFFFFF;enable-background:new    ;}
</style>
<rect x="-8" y="-8" class="st0" width="144" height="144"/>
<g>
	<path class="st1" d="M89.5,58.54c-1.66-1.11-3.48-1.98-5.3-2.61c-6.33-2.22-7.99-1.66-11.32,4.27c-2.45,4.35-4.59,8.79-7.04,13.14
		c-1.03,1.9-2.22,3.8-3.8,5.3c-8.23,8.15-18.6,9.58-29.6,8.86c3.32-1.9,5.54-4.75,7.44-7.99c2.45-4.27,4.91-8.63,7.2-13.06
		c2.53-4.83,6.09-8.55,11.08-10.84c0.87-0.4,1.66-0.71,2.53-1.03c-0.08-0.08-0.08-0.16-0.16-0.24c-0.24,0-0.47,0-0.71,0
		c-11.95,1.74-23.19,5.38-33.32,12.11c-4.43,2.85-8.31,6.33-11.08,10.92c-3.88,6.49-2.14,13.06,4.59,16.46
		c2.3,1.19,4.83,2.06,7.28,2.69c7.99,1.9,16.07,1.42,24.06,0c11.08-1.98,21.61-5.7,30.95-12.11c4.43-3.01,8.47-6.57,10.92-11.56
		C95.99,67.41,94.65,62.03,89.5,58.54z"/>
	<path class="st2" d="M112.14,30.29c-16.7,0-33.48-0.08-50.18,0.08c-4.67,0-9.42,0.4-14.09,1.11c-7.52,1.11-14.56,3.8-20.34,8.94
		c-2.93,2.53-5.22,5.62-6.65,9.5c0.87,0.08,1.42,0.16,2.06,0.16c18.13,0,36.33,0.08,54.46-0.08c8.31-0.08,16.46-1.58,23.9-5.46
		c6.02-3.09,10.53-7.52,13.46-14.25C113.56,30.29,112.85,30.29,112.14,30.29z"/>
</g>
</svg>
