<?xml version="1.0" encoding="utf-8"?>
<!-- Generator: Adobe Illustrator 24.3.0, SVG Export Plug-In . SVG Version: 6.00 Build 0)  -->
<svg version="1.1" id="Layer_1" xmlns="http://www.w3.org/2000/svg" xmlns:xlink="http://www.w3.org/1999/xlink" x="0px" y="0px"
	 viewBox="0 0 128 128" style="enable-background:new 0 0 128 128;" xml:space="preserve">
<style type="text/css">
	.st0{fill-rule:evenodd;clip-rule:evenodd;fill:#19569D;}
	.st1{fill-rule:evenodd;clip-rule:evenodd;fill:#FFFFFF;}
</style>
<rect x="-7.99" y="-7.99" class="st0" width="143.97" height="143.97"/>
<g>
	<g>
		<path class="st1" d="M11.79,40.47c6.28,0,12.64-0.08,18.84,0.08c0,3.67,0,7.26,0,10.93c-1.14,0-2.37,0-3.51,0
			c0,11.91,0,23.9,0,35.81c-3.92,0-7.99,0.08-11.83-0.08c0-11.91,0-23.82,0-35.81c-1.14,0-2.28,0-3.51,0
			C11.79,47.82,11.79,44.15,11.79,40.47z"/>
		<path class="st1" d="M33.33,40.56c3.92,0,7.83,0,11.75,0c0,15.58,0,31.16,0,46.74c-3.92,0-7.91,0-11.83,0c0-15.5,0-31.08,0-46.58
			C33.33,40.64,33.25,40.56,33.33,40.56z"/>
		<path class="st1" d="M66.45,41.86c0,3.26,0,6.53,0,9.71c-0.24,0.08-0.41-0.33-0.65-0.49c-1.79-1.31-4.49,0-4.73,2.12
			c-0.08,0.98,0.24,2.12,0.41,3.18c0.65,3.02,1.47,5.87,2.28,8.56c1.14,3.59,2.77,7.42,2.45,11.99c-0.33,4.32-2.28,7.42-5.38,9.14
			c-1.55,0.9-3.59,1.39-5.87,1.22c-2.2-0.16-3.92-0.65-5.79-1.47c0-3.59,0-7.1,0-10.69c0.16-0.08,0.49,0.16,0.73,0.33
			c0.24,0.16,0.49,0.33,0.82,0.41c1.88,0.65,4.16-0.24,4.32-2.2c0.16-1.71-0.41-3.67-0.9-5.22c-1.47-4.65-3.51-8.65-4.4-14.03
			c-0.65-4-0.08-7.34,1.88-9.87c0.9-1.14,2.04-2.12,3.34-2.77c1.31-0.73,2.77-1.31,4.65-1.47C62.45,40.31,64.41,41.21,66.45,41.86z"
			/>
		<path class="st1" d="M85.37,40.56c0,3.34,0,6.69,0,10.03c-3.02-0.33-4.98,0.41-5.63,2.53c-0.41,1.31-0.16,3.51-0.16,5.22
			c0,3.67,0,7.1,0,10.77c0,1.79-0.24,3.83,0.16,5.22c0.57,2.28,2.69,3.1,5.71,2.77c0,3.34,0,6.69,0,10.03
			c-6.44,0.33-10.6-1.96-13.21-5.63c-1.39-1.88-2.28-4.08-2.61-6.77c-0.16-1.39-0.08-3.02-0.08-4.65c0-4.65,0-9.38,0-14.11
			c0-1.63,0-3.1,0.24-4.49c0.73-3.67,2.94-6.69,5.55-8.56C77.78,41.29,80.97,40.23,85.37,40.56z"/>
		<path class="st1" d="M101.77,40.56c5.87-0.41,9.87,2.77,12.15,6.28c1.31,2.04,2.12,4.24,2.2,7.01c0.16,3.34,0,6.12,0,9.22
			c0,3.02,0,6.12,0,9.22c0,3.02-0.49,5.63-1.63,7.59c-2.12,3.92-5.87,6.85-11.17,7.26c-2.94,0.24-5.47-0.65-7.42-1.71
			c-1.88-1.06-3.59-2.61-4.73-4.49c-1.22-1.88-2.12-4.24-2.2-7.01c-0.16-6.12,0-12.4,0-18.43c0-3.34,0.49-5.38,1.63-7.59
			c1.55-2.94,3.92-5.3,7.34-6.53C99.07,40.96,100.38,40.72,101.77,40.56z M99.32,52.87c-0.57,1.39-0.33,3.67-0.33,5.22
			c0,3.67,0,7.5,0,11.17c0,1.96-0.24,4.08,0.16,5.38c0.65,1.96,2.77,3.18,4.73,2.28c0.73-0.33,1.63-1.22,1.96-2.28
			c0.41-1.31,0.16-3.67,0.16-5.22c0-3.83,0-7.26,0-10.85c0-1.88,0.24-4-0.16-5.3c-0.49-1.55-1.88-2.85-3.83-2.53
			C100.62,50.83,99.81,51.81,99.32,52.87z"/>
	</g>
</g>
</svg>
