<?xml version="1.0" encoding="utf-8"?>
<!-- Generator: Adobe Illustrator 24.3.0, SVG Export Plug-In . SVG Version: 6.00 Build 0)  -->
<svg version="1.1" id="Layer_1" xmlns="http://www.w3.org/2000/svg" xmlns:xlink="http://www.w3.org/1999/xlink" x="0px" y="0px"
	 viewBox="0 0 128 128" style="enable-background:new 0 0 128 128;" xml:space="preserve">
<style type="text/css">
	.st0{fill:#1D7ABC;}
	.st1{fill:#FFFFFF;}
</style>
<rect x="-8" y="-8" class="st0" width="144" height="144"/>
<g id="g2831_1_">
	<path id="path3186_1_" class="st1" d="M49.79,37.74c-3.1,0-5.77,2.5-5.77,5.77c0,3.19,2.58,5.77,5.77,5.77
		c3.19,0,5.77-2.58,5.77-5.77C55.48,40.32,52.89,37.74,49.79,37.74z M78.12,37.74c-3.1,0-5.77,2.5-5.77,5.77
		c0,3.19,2.5,5.77,5.77,5.77s5.77-2.58,5.77-5.77S81.3,37.74,78.12,37.74L78.12,37.74z M44.2,54.01v36.25h7.92v-25.4h0.09l8.61,25.4
		h6.2l8.7-25.48v25.48h8.01V54.01H72.18l-8.01,24.88h-0.09l-8.44-24.88H44.2L44.2,54.01z"/>
	<path id="path3194_1_" class="st1" d="M8.9,60.73v-6.72h29.96v6.72H27.84v29.44h-8.01V60.73H8.9L8.9,60.73z"/>
	<path id="path3198_1_" class="st1" d="M106.27,54.01c1.64,0,3.19,0.17,4.65,0.43c1.38,0.34,2.58,0.77,3.53,1.46
		c0.95,0.69,1.72,1.64,2.24,2.76c0.52,1.12,0.77,2.58,0.77,4.3c0,1.81-0.43,3.36-1.21,4.56c-0.77,1.21-1.98,2.24-3.53,2.93
		c2.15,0.6,3.7,1.72,4.82,3.36c1.03,1.55,1.55,3.53,1.55,5.85c0,1.81-0.34,3.36-1.03,4.82c-0.69,1.29-1.64,2.41-2.75,3.27
		c-1.12,0.86-2.5,1.46-3.96,1.89c-1.46,0.43-3.01,0.6-4.65,0.6H89.83V54.01H106.27L106.27,54.01z M105.32,68.74
		c1.38,0,2.5-0.34,3.36-1.03s1.29-1.72,1.29-3.27c0-0.86-0.17-1.55-0.43-2.07s-0.69-0.95-1.21-1.29s-1.03-0.52-1.72-0.6
		c-0.6-0.09-1.29-0.17-1.98-0.17h-7.32v8.44H105.32L105.32,68.74z M105.76,84.06c0.77,0,1.46-0.09,2.15-0.26
		c0.69-0.17,1.29-0.43,1.81-0.77c0.52-0.34,0.95-0.86,1.29-1.46s0.43-1.38,0.43-2.32c0-1.81-0.52-3.19-1.55-3.96
		c-1.03-0.77-2.32-1.21-3.96-1.21h-8.44v9.99H105.76"/>
</g>
</svg>
