<svg id="Icon_Waiting_Green" data-name="Icon/Waiting/Green" xmlns="http://www.w3.org/2000/svg" width="43.957" height="43.952" viewBox="0 0 43.957 43.952">
  <defs>
    <style>
      .cls-1 {
        fill: #23c197;
      }
    </style>
  </defs>
  <path id="Path_171" data-name="Path 171" class="cls-1" d="M-414.487,477.947a22.591,22.591,0,0,0-2.274-.114h-.023a2.289,2.289,0,0,0-2.251,2.308v9.06a2.152,2.152,0,0,0,.182.887,2.266,2.266,0,0,0,2.369,1.371,2.343,2.343,0,0,0,2-2.36v-6.566a17.436,17.436,0,0,1,15.16,16.787,17.436,17.436,0,0,1-14.17,17.63,17.436,17.436,0,0,1-19.654-11.194,17.436,17.436,0,0,1,7.936-21.181,2.257,2.257,0,0,0,.969-2.838l0-.006a2.277,2.277,0,0,0-1.353-1.279,2.279,2.279,0,0,0-1.855.158,21.977,21.977,0,0,0-9.907,26.844,21.976,21.976,0,0,0,25.021,13.882,21.977,21.977,0,0,0,17.533-22.613A21.977,21.977,0,0,0-414.487,477.947Z" transform="translate(438.741 -477.833)"/>
  <path id="Path_172" data-name="Path 172" class="cls-1" d="M-329.294,588.418c.914,2.408,3.906,8.094,6.144,10.515a3.91,3.91,0,0,0,5.353.474,3.792,3.792,0,0,0,1.351-2.738,3.793,3.793,0,0,0-1.106-2.846c-2.341-2.34-8.281-5.441-10.772-6.387a.757.757,0,0,0-.8.176A.756.756,0,0,0-329.294,588.418Z" transform="translate(342.969 -573.744)"/>
</svg>
