<svg width="72" height="72" viewBox="0 0 72 72" fill="none" xmlns="http://www.w3.org/2000/svg">
<g clip-path="url(#clip0_463_4137)">
<path d="M50.4988 8.35782C49.327 7.66084 48.3464 6.67684 47.6533 5.50253C47.408 5.08705 46.8082 5.08705 46.5629 5.50253C45.8698 6.67684 44.8892 7.66084 43.7174 8.35782C43.3053 8.60305 43.3053 9.19966 43.7174 9.44488C44.889 10.1419 45.8698 11.1259 46.5629 12.3002C46.8082 12.7157 47.408 12.7157 47.6533 12.3002C48.3464 11.1259 49.327 10.1419 50.4988 9.44488C50.9109 9.19966 50.9109 8.60305 50.4988 8.35782Z" fill="url(#paint0_linear_463_4137)"/>
<path d="M20.6989 67.746C19.5271 67.049 18.5465 66.065 17.8533 64.8907C17.6081 64.4752 17.0082 64.4752 16.763 64.8907C16.0698 66.065 15.0892 67.049 13.9175 67.746C13.5054 67.9912 13.5054 68.5878 13.9175 68.8331C15.0891 69.5301 16.0698 70.5141 16.763 71.6884C17.0082 72.1038 17.6081 72.1038 17.8533 71.6884C18.5465 70.5141 19.5271 69.5301 20.6989 68.8331C21.111 68.5878 21.111 67.9912 20.6989 67.746Z" fill="url(#paint1_linear_463_4137)"/>
<path d="M71.5238 65.4466C69.7187 64.3728 68.208 62.8569 67.1401 61.0478C66.7623 60.4079 65.8382 60.4079 65.4604 61.0478C64.3925 62.8569 62.8818 64.3728 61.0767 65.4466C60.4419 65.8243 60.4419 66.7436 61.0767 67.1212C62.8818 68.195 64.3925 69.711 65.4604 71.52C65.8382 72.16 66.7623 72.16 67.1401 71.52C68.208 69.711 69.7187 68.195 71.5238 67.1212C72.1587 66.7436 72.1587 65.8243 71.5238 65.4466Z" fill="url(#paint2_linear_463_4137)"/>
<path d="M10.9235 4.87923C9.11837 3.80544 7.60764 2.28949 6.53979 0.480453C6.162 -0.1595 5.23786 -0.1595 4.86007 0.480453C3.79221 2.28949 2.28148 3.80544 0.476397 4.87923C-0.158474 5.25688 -0.158474 6.17622 0.476397 6.55386C2.28148 7.62765 3.79221 9.14361 4.86007 10.9526C5.23786 11.5926 6.162 11.5926 6.53979 10.9526C7.60764 9.14361 9.11837 7.62765 10.9235 6.55386C11.5583 6.17608 11.5583 5.25688 10.9235 4.87923Z" fill="url(#paint3_linear_463_4137)"/>
<path d="M57.3558 53.3606L50.4206 46.4254C44.6629 40.6675 44.6629 31.3324 50.4206 25.5745L57.3079 18.6872C58.391 17.6041 58.4712 15.8393 57.4273 14.7185C56.3314 13.5416 54.4882 13.5169 53.3607 14.6443L46.4256 21.5795C40.6677 27.3372 31.3326 27.3372 25.5747 21.5795L18.6395 14.6443C17.5364 13.5412 15.7477 13.5412 14.6445 14.6443C13.5414 15.7475 13.5414 17.5362 14.6445 18.6394L21.5797 25.5745C27.3374 31.3324 27.3374 40.6675 21.5797 46.4254L14.6924 53.3127C13.6093 54.3958 13.5289 56.1605 14.5729 57.2815C15.6689 58.4583 17.5122 58.483 18.6395 57.3556L25.5747 50.4204C31.3326 44.6626 40.6677 44.6626 46.4256 50.4204L53.3607 57.3556C54.4639 58.4587 56.2526 58.4587 57.3558 57.3556C58.4589 56.2524 58.4589 54.4637 57.3558 53.3606ZM43.6335 37.2235C40.9957 38.7929 38.7879 41.0081 37.2274 43.6517C36.6754 44.587 35.3247 44.587 34.7726 43.6517C33.212 41.0081 31.0043 38.7927 28.3664 37.2235C27.4386 36.6715 27.4386 35.3282 28.3664 34.7762C31.0043 33.2071 33.212 30.9917 34.7726 28.3481C35.3246 27.4128 36.6752 27.4128 37.2274 28.3481C38.7879 30.9917 40.9957 33.2071 43.6335 34.7762C44.5614 35.3282 44.5614 36.6717 43.6335 37.2235Z" fill="url(#paint4_linear_463_4137)"/>
<path d="M37.2268 43.6519C36.6748 44.5879 35.3252 44.5879 34.7732 43.6519C34.601 43.361 34.4217 43.0759 34.2353 42.7963C34.1196 42.6227 33.9995 42.4504 33.8781 42.281C32.4113 40.2382 30.5337 38.513 28.3666 37.2241C27.4391 36.6721 27.4391 35.3281 28.3666 34.7761C30.5337 33.4871 32.4113 31.762 33.8781 29.7191C33.9995 29.5497 34.1196 29.3775 34.2353 29.2039C34.4217 28.9243 34.601 28.6391 34.7732 28.3483C35.3252 27.4123 36.6748 27.4123 37.2268 28.3483C38.5977 30.6693 40.4654 32.6584 42.6847 34.1704C42.7948 33.2768 42.9868 32.3916 43.2621 31.5276C40.7718 30.2373 38.6951 28.2566 37.289 25.8396C36.2725 25.93 35.249 25.9144 34.2339 25.7916C32.273 25.5573 30.3501 24.9276 28.5939 23.9055C27.5139 23.2787 26.4988 22.5036 25.5741 21.5789L18.6396 14.6443C17.6104 13.6166 15.9854 13.5474 14.8772 14.4368C14.9577 14.5003 15.0339 14.5695 15.1087 14.6443L22.0433 21.5789C22.7081 22.2431 23.4205 22.831 24.1693 23.3422C26.3091 24.8028 26.4723 27.9268 24.5064 29.6144C24.492 29.6268 24.4776 29.6391 24.4631 29.6514C25.152 31.0914 25.5911 32.6189 25.7831 34.1719C25.8113 34.3864 25.8325 34.601 25.8494 34.8156C25.913 35.6034 25.913 36.3968 25.8494 37.1846C25.8325 37.3991 25.8113 37.6137 25.7831 37.8283C25.5911 39.3813 25.152 40.9088 24.4631 42.3488C24.4776 42.3611 24.492 42.3735 24.5064 42.3859C26.4723 44.0734 26.3091 47.1975 24.1693 48.6581C23.4205 49.1693 22.7081 49.757 22.0433 50.4214L15.1087 57.356C15.0339 57.4308 14.9577 57.5 14.8772 57.5635C15.9868 58.4543 17.6104 58.3852 18.6396 57.356L25.5741 50.4214C26.4988 49.4967 27.5139 48.7216 28.5939 48.0948C30.3501 47.0727 32.273 46.4431 34.2339 46.2087C35.249 46.0859 36.2725 46.0703 37.289 46.1607C38.6951 43.7438 40.7718 41.7631 43.2621 40.4727C42.9868 39.6087 42.7948 38.7235 42.6847 37.8299C40.4654 39.3417 38.5977 41.3309 37.2268 43.6519Z" fill="url(#paint5_linear_463_4137)"/>
<path d="M50.4211 25.5742L57.3077 18.6876C58.3906 17.6047 58.471 15.84 57.4277 14.7191C56.4028 13.6193 54.727 13.5248 53.592 14.4368C53.6993 14.5215 53.8009 14.616 53.8969 14.7191C54.9402 15.84 54.8597 17.6047 53.7769 18.6876L46.8889 25.5742C45.1623 27.3007 43.9524 29.3492 43.2621 31.5276C44.2687 32.0513 45.3416 32.4593 46.4668 32.7389C47.0583 30.113 48.3769 27.6184 50.4211 25.5742Z" fill="url(#paint6_linear_463_4137)"/>
<path d="M57.3557 53.3605L50.4211 46.4259C48.3769 44.3817 47.0583 41.8871 46.4668 39.2612C45.3416 39.5408 44.2687 39.9488 43.2621 40.4725C43.9524 42.6509 45.1623 44.6993 46.8889 46.4259L53.8249 53.3605C54.3755 53.9125 54.6522 54.6353 54.6522 55.3582C54.6522 56.081 54.3755 56.8038 53.8249 57.3558C53.7501 57.4306 53.6738 57.4998 53.5934 57.5633C54.703 58.4528 56.328 58.3836 57.3557 57.3558C57.9077 56.8038 58.183 56.081 58.183 55.3582C58.183 54.6353 57.9077 53.9125 57.3557 53.3605Z" fill="url(#paint7_linear_463_4137)"/>
<path d="M63.3766 33.175H53.5688C45.426 33.175 38.825 26.574 38.825 18.4312V8.69105C38.825 7.15928 37.6339 5.85467 36.103 5.80018C34.4958 5.743 33.175 7.02898 33.175 8.62328V18.4311C33.175 26.5739 26.574 33.1749 18.4312 33.1749H8.62353C7.06338 33.1749 5.79858 34.4397 5.79858 35.9998C5.79858 37.5599 7.06338 38.8247 8.62353 38.8247H18.4313C26.5741 38.8247 33.1751 45.4257 33.1751 53.5685V63.3086C33.1751 64.8403 34.3662 66.1449 35.8971 66.1994C37.5043 66.2566 38.8251 64.9706 38.8251 63.3763V53.5685C38.8251 45.4257 45.4261 38.8247 53.5689 38.8247H63.3767C64.9368 38.8247 66.2016 37.5599 66.2016 35.9998C66.2015 34.4398 64.9368 33.175 63.3766 33.175ZM42.7815 37.087C40.4381 38.4811 38.4767 40.449 37.0905 42.7976C36.6 43.6284 35.4002 43.6284 34.9097 42.7976C33.5234 40.449 31.5622 38.4811 29.2188 37.087C28.3946 36.5967 28.3946 35.4032 29.2188 34.9129C31.5622 33.5189 33.5235 31.5509 34.9097 29.2023C35.4002 28.3715 36.6 28.3715 37.0905 29.2023C38.4768 31.5509 40.4381 33.5189 42.7815 34.9129C43.6056 35.4032 43.6056 36.5967 42.7815 37.087Z" fill="url(#paint8_linear_463_4137)"/>
<path d="M71.3817 6.33371C69.0383 4.93973 67.0771 2.97173 65.6908 0.623118C65.2003 -0.207706 64.0005 -0.207706 63.51 0.623118C62.1237 2.97173 60.1624 4.93973 57.8191 6.33371C56.9947 6.82401 56.9947 8.01738 57.8191 8.50782C60.1624 9.90194 62.1237 11.8698 63.51 14.2184C64.0005 15.0492 65.2003 15.0492 65.6908 14.2184C67.0771 11.8698 69.0383 9.90194 71.3817 8.50782C72.2061 8.01738 72.2061 6.82401 71.3817 6.33371Z" fill="url(#paint9_linear_463_4137)"/>
<path d="M29.2468 52.0024C28.7086 51.7753 28.0869 52.0274 27.8597 52.5664L22.9651 64.1678C22.7378 64.7065 22.9904 65.3275 23.5291 65.5548C23.6634 65.6114 23.8029 65.6384 23.9402 65.6384C24.3532 65.6384 24.7456 65.3953 24.9162 64.9908L29.8108 53.3895C30.0382 52.8506 29.7855 52.2297 29.2468 52.0024Z" fill="url(#paint10_linear_463_4137)"/>
<path d="M42.7532 19.9978C42.8874 20.0544 43.0269 20.0813 43.1643 20.0813C43.5772 20.0813 43.9696 19.8382 44.1402 19.4338L45.7679 15.576C45.9952 15.0374 45.7426 14.4162 45.2039 14.1889C44.6657 13.9619 44.0441 14.2139 43.8168 14.7529L42.1892 18.6107C41.9617 19.1494 42.2144 19.7705 42.7532 19.9978Z" fill="url(#paint11_linear_463_4137)"/>
<path d="M11.7228 24.6069L5.34278 21.915C4.80461 21.6879 4.18315 21.94 3.95572 22.479C3.72842 23.0176 3.98099 23.6388 4.51972 23.8661L10.8998 26.5579C11.034 26.6145 11.1735 26.6415 11.3109 26.6415C11.7238 26.6415 12.1161 26.3984 12.2868 25.9939C12.5143 25.4553 12.2617 24.8342 11.7228 24.6069Z" fill="url(#paint12_linear_463_4137)"/>
<path d="M19.4337 27.8599L16.1777 26.4863C15.6396 26.2593 15.0178 26.5113 14.7907 27.0503C14.5634 27.589 14.8159 28.21 15.3547 28.4373L18.6106 29.811C18.7449 29.8676 18.8844 29.8946 19.0217 29.8946C19.4347 29.8946 19.8271 29.6515 19.9977 29.247C20.2251 28.7083 19.9726 28.0872 19.4337 27.8599Z" fill="url(#paint13_linear_463_4137)"/>
<path d="M61.0121 45.4054L53.3894 42.1894C52.8512 41.9624 52.2295 42.2144 52.0023 42.7534C51.7751 43.2921 52.0276 43.9132 52.5663 44.1405L60.189 47.3565C60.3233 47.4131 60.4628 47.44 60.6001 47.44C61.0131 47.44 61.4055 47.1969 61.5761 46.7925C61.8034 46.2537 61.5508 45.6327 61.0121 45.4054Z" fill="url(#paint14_linear_463_4137)"/>
<path d="M67.4804 48.134L65.0119 47.0924C64.4732 46.8651 63.8521 47.1173 63.6247 47.6562C63.3974 48.1949 63.6498 48.8161 64.1885 49.0434L66.657 50.085C66.7914 50.1416 66.9309 50.1686 67.0683 50.1686C67.4812 50.1686 67.8735 49.9255 68.0442 49.5212C68.2717 48.9824 68.0192 48.3614 67.4804 48.134Z" fill="url(#paint15_linear_463_4137)"/>
<path d="M45.7678 56.4238L44.1404 52.5664C43.913 52.0274 43.2912 51.7753 42.7534 52.0024C42.2146 52.2297 41.9621 52.8508 42.1894 53.3895L43.8167 57.2469C43.9874 57.6513 44.3797 57.8944 44.7927 57.8944C44.93 57.8944 45.0695 57.8676 45.2038 57.8109C45.7425 57.5836 45.9951 56.9625 45.7678 56.4238Z" fill="url(#paint16_linear_463_4137)"/>
<path d="M47.3422 60.1559C47.1148 59.6169 46.493 59.3646 45.9551 59.5919C45.4164 59.8192 45.1638 60.4402 45.3911 60.9789L48.1342 67.4804C48.3049 67.8849 48.6972 68.128 49.1102 68.128C49.2475 68.128 49.387 68.1011 49.5213 68.0444C50.06 67.8171 50.3126 67.1961 50.0853 66.6573L47.3422 60.1559Z" fill="url(#paint17_linear_463_4137)"/>
<path d="M23.8659 4.51959C23.6384 3.98044 23.0167 3.72844 22.4788 3.95559C21.9401 4.18289 21.6875 4.80392 21.9148 5.34265L27.8598 19.4336C28.0304 19.8381 28.4228 20.0812 28.8357 20.0812C28.9731 20.0812 29.1126 20.0544 29.2468 19.9976C29.7856 19.7703 30.0381 19.1493 29.8108 18.6106L23.8659 4.51959Z" fill="url(#paint18_linear_463_4137)"/>
<path d="M52.9783 29.8946C53.1157 29.8946 53.2551 29.8678 53.3894 29.811L67.4804 23.8661C68.0191 23.6388 68.2717 23.0178 68.0444 22.479C67.8169 21.94 67.1953 21.6879 66.6573 21.915L52.5663 27.86C52.0276 28.0873 51.7751 28.7083 52.0023 29.247C52.173 29.6515 52.5654 29.8946 52.9783 29.8946Z" fill="url(#paint19_linear_463_4137)"/>
<path d="M18.6106 42.189L14.0338 44.12C13.495 44.3473 13.2425 44.9683 13.4698 45.507C13.6404 45.9115 14.0328 46.1546 14.4457 46.1546C14.5831 46.1546 14.7226 46.1278 14.8568 46.071L19.4336 44.14C19.9723 43.9127 20.2249 43.2917 19.9976 42.753C19.7702 42.214 19.1484 41.9618 18.6106 42.189Z" fill="url(#paint20_linear_463_4137)"/>
<path d="M14.1809 48.6467C11.8376 47.2527 9.87633 45.2847 8.48998 42.9361C7.99953 42.1053 6.79967 42.1053 6.30923 42.9361C4.92287 45.2847 2.96165 47.2527 0.618263 48.6467C-0.205925 49.137 -0.205925 50.3304 0.618263 50.8208C2.96165 52.2149 4.92287 54.1828 6.30923 56.5314C6.79967 57.3622 7.99953 57.3622 8.48998 56.5314C9.87633 54.1828 11.8376 52.2149 14.1809 50.8208C15.0053 50.3304 15.0053 49.137 14.1809 48.6467Z" fill="url(#paint21_linear_463_4137)"/>
<path d="M63.3766 33.1753H57.7267C59.2868 33.1753 60.5516 34.4401 60.5516 36.0002C60.5516 37.5604 59.2868 38.8252 57.7267 38.8252H63.3766C64.9367 38.8252 66.2015 37.5604 66.2015 36.0002C66.2015 34.4401 64.9368 33.1753 63.3766 33.1753Z" fill="url(#paint22_linear_463_4137)"/>
<path d="M38.825 18.4312V8.69105C38.825 7.15928 37.6338 5.85467 36.1029 5.80018C34.4958 5.743 33.1749 7.02898 33.1749 8.62328V8.69105V18.4311C33.1749 26.5739 39.7759 33.1749 47.9187 33.1749H53.5686C45.4259 33.175 38.825 26.574 38.825 18.4312Z" fill="url(#paint23_linear_463_4137)"/>
<path d="M33.175 53.5685V63.3085C33.175 64.8403 34.3662 66.1449 35.8971 66.1994C37.5042 66.2566 38.8251 64.9706 38.8251 63.3763V53.5685C38.8251 45.4257 45.4261 38.8247 53.5688 38.8247H47.919C39.776 38.8247 33.175 45.4257 33.175 53.5685Z" fill="url(#paint24_linear_463_4137)"/>
</g>
<defs>
<linearGradient id="paint0_linear_463_4137" x1="43.5262" y1="8.90135" x2="52.2838" y2="8.90135" gradientUnits="userSpaceOnUse">
<stop stop-color="#97D729"/>
<stop offset="0.575" stop-color="#02905D"/>
<stop offset="0.676" stop-color="#02885D"/>
<stop offset="0.839" stop-color="#01705B"/>
<stop offset="1" stop-color="#01525A"/>
</linearGradient>
<linearGradient id="paint1_linear_463_4137" x1="13.7265" y1="68.2895" x2="22.4839" y2="68.2895" gradientUnits="userSpaceOnUse">
<stop stop-color="#97D729"/>
<stop offset="0.575" stop-color="#02905D"/>
<stop offset="0.676" stop-color="#02885D"/>
<stop offset="0.839" stop-color="#01705B"/>
<stop offset="1" stop-color="#01525A"/>
</linearGradient>
<linearGradient id="paint2_linear_463_4137" x1="60.7822" y1="66.2839" x2="74.2738" y2="66.2839" gradientUnits="userSpaceOnUse">
<stop stop-color="#FEF056"/>
<stop offset="0.521" stop-color="#F4D902"/>
<stop offset="1" stop-color="#FE9738"/>
</linearGradient>
<linearGradient id="paint3_linear_463_4137" x1="-1.41156" y1="5.71655" x2="13.7739" y2="5.71655" gradientUnits="userSpaceOnUse">
<stop stop-color="#FFDCBD"/>
<stop offset="0.003" stop-color="#FFDCBD"/>
<stop offset="1" stop-color="#FFA9B1"/>
</linearGradient>
<linearGradient id="paint4_linear_463_4137" x1="14.0572" y1="36" x2="76.525" y2="36" gradientUnits="userSpaceOnUse">
<stop stop-color="#FBC56D"/>
<stop offset="0.584" stop-color="#FE9738"/>
<stop offset="0.998" stop-color="#FB2B3A"/>
</linearGradient>
<linearGradient id="paint5_linear_463_4137" x1="-5.36469" y1="36.0007" x2="71.9006" y2="36.0007" gradientUnits="userSpaceOnUse">
<stop stop-color="#FBC56D"/>
<stop offset="0.584" stop-color="#FE9738"/>
<stop offset="0.998" stop-color="#FB2B3A"/>
</linearGradient>
<linearGradient id="paint6_linear_463_4137" x1="-5.36474" y1="23.2779" x2="71.9006" y2="23.2779" gradientUnits="userSpaceOnUse">
<stop stop-color="#FBC56D"/>
<stop offset="0.584" stop-color="#FE9738"/>
<stop offset="0.998" stop-color="#FB2B3A"/>
</linearGradient>
<linearGradient id="paint7_linear_463_4137" x1="-5.36474" y1="48.7217" x2="71.9006" y2="48.7217" gradientUnits="userSpaceOnUse">
<stop stop-color="#FBC56D"/>
<stop offset="0.584" stop-color="#FE9738"/>
<stop offset="0.998" stop-color="#FB2B3A"/>
</linearGradient>
<linearGradient id="paint8_linear_463_4137" x1="-0.847017" y1="35.9999" x2="71.1801" y2="35.9999" gradientUnits="userSpaceOnUse">
<stop stop-color="#FEF056"/>
<stop offset="0.521" stop-color="#F4D902"/>
<stop offset="1" stop-color="#FE9738"/>
</linearGradient>
<linearGradient id="paint9_linear_463_4137" x1="57.4369" y1="7.42076" x2="74.9518" y2="7.42076" gradientUnits="userSpaceOnUse">
<stop stop-color="#FE646F"/>
<stop offset="0.521" stop-color="#E41F2D"/>
<stop offset="1" stop-color="#C41926"/>
</linearGradient>
<linearGradient id="paint10_linear_463_4137" x1="5.647" y1="58.7786" x2="80.2417" y2="58.7786" gradientUnits="userSpaceOnUse">
<stop stop-color="#FEF056"/>
<stop offset="0.521" stop-color="#F4D902"/>
<stop offset="1" stop-color="#FE9738"/>
</linearGradient>
<linearGradient id="paint11_linear_463_4137" x1="5.64705" y1="17.0933" x2="80.2417" y2="17.0933" gradientUnits="userSpaceOnUse">
<stop stop-color="#FEF056"/>
<stop offset="0.521" stop-color="#F4D902"/>
<stop offset="1" stop-color="#FE9738"/>
</linearGradient>
<linearGradient id="paint12_linear_463_4137" x1="5.64701" y1="24.2364" x2="80.2417" y2="24.2364" gradientUnits="userSpaceOnUse">
<stop stop-color="#FEF056"/>
<stop offset="0.521" stop-color="#F4D902"/>
<stop offset="1" stop-color="#FE9738"/>
</linearGradient>
<linearGradient id="paint13_linear_463_4137" x1="5.6471" y1="28.1486" x2="80.2418" y2="28.1486" gradientUnits="userSpaceOnUse">
<stop stop-color="#FEF056"/>
<stop offset="0.521" stop-color="#F4D902"/>
<stop offset="1" stop-color="#FE9738"/>
</linearGradient>
<linearGradient id="paint14_linear_463_4137" x1="5.64705" y1="44.7729" x2="80.2417" y2="44.7729" gradientUnits="userSpaceOnUse">
<stop stop-color="#FEF056"/>
<stop offset="0.521" stop-color="#F4D902"/>
<stop offset="1" stop-color="#FE9738"/>
</linearGradient>
<linearGradient id="paint15_linear_463_4137" x1="5.64701" y1="48.5887" x2="80.2417" y2="48.5887" gradientUnits="userSpaceOnUse">
<stop stop-color="#FEF056"/>
<stop offset="0.521" stop-color="#F4D902"/>
<stop offset="1" stop-color="#FE9738"/>
</linearGradient>
<linearGradient id="paint16_linear_463_4137" x1="5.64712" y1="54.9066" x2="80.2418" y2="54.9066" gradientUnits="userSpaceOnUse">
<stop stop-color="#FEF056"/>
<stop offset="0.521" stop-color="#F4D902"/>
<stop offset="1" stop-color="#FE9738"/>
</linearGradient>
<linearGradient id="paint17_linear_463_4137" x1="5.647" y1="63.818" x2="80.2417" y2="63.818" gradientUnits="userSpaceOnUse">
<stop stop-color="#FEF056"/>
<stop offset="0.521" stop-color="#F4D902"/>
<stop offset="1" stop-color="#FE9738"/>
</linearGradient>
<linearGradient id="paint18_linear_463_4137" x1="5.64706" y1="11.9765" x2="80.2417" y2="11.9765" gradientUnits="userSpaceOnUse">
<stop stop-color="#FEF056"/>
<stop offset="0.521" stop-color="#F4D902"/>
<stop offset="1" stop-color="#FE9738"/>
</linearGradient>
<linearGradient id="paint19_linear_463_4137" x1="5.64706" y1="25.863" x2="80.2417" y2="25.863" gradientUnits="userSpaceOnUse">
<stop stop-color="#FEF056"/>
<stop offset="0.521" stop-color="#F4D902"/>
<stop offset="1" stop-color="#FE9738"/>
</linearGradient>
<linearGradient id="paint20_linear_463_4137" x1="5.64703" y1="44.13" x2="80.2417" y2="44.13" gradientUnits="userSpaceOnUse">
<stop stop-color="#FEF056"/>
<stop offset="0.521" stop-color="#F4D902"/>
<stop offset="1" stop-color="#FE9738"/>
</linearGradient>
<linearGradient id="paint21_linear_463_4137" x1="0.236099" y1="49.7338" x2="17.751" y2="49.7338" gradientUnits="userSpaceOnUse">
<stop stop-color="#08A9F1"/>
<stop offset="0.089" stop-color="#079FE1"/>
<stop offset="0.324" stop-color="#0689BD"/>
<stop offset="0.449" stop-color="#0681AF"/>
<stop offset="0.471" stop-color="#067EAB"/>
<stop offset="0.699" stop-color="#046386"/>
<stop offset="0.883" stop-color="#03526F"/>
<stop offset="1" stop-color="#024C67"/>
</linearGradient>
<linearGradient id="paint22_linear_463_4137" x1="-19.2" y1="36.0002" x2="59.0272" y2="36.0002" gradientUnits="userSpaceOnUse">
<stop stop-color="#FEF056"/>
<stop offset="0.521" stop-color="#F4D902"/>
<stop offset="1" stop-color="#FE9738"/>
</linearGradient>
<linearGradient id="paint23_linear_463_4137" x1="-19.2" y1="19.4867" x2="59.0272" y2="19.4867" gradientUnits="userSpaceOnUse">
<stop stop-color="#FEF056"/>
<stop offset="0.521" stop-color="#F4D902"/>
<stop offset="1" stop-color="#FE9738"/>
</linearGradient>
<linearGradient id="paint24_linear_463_4137" x1="-19.2" y1="52.513" x2="59.0271" y2="52.513" gradientUnits="userSpaceOnUse">
<stop stop-color="#FEF056"/>
<stop offset="0.521" stop-color="#F4D902"/>
<stop offset="1" stop-color="#FE9738"/>
</linearGradient>
<clipPath id="clip0_463_4137">
<rect width="72" height="72" fill="white"/>
</clipPath>
</defs>
</svg>
