<svg width="24" height="24" viewBox="0 0 24 24" fill="none" xmlns="http://www.w3.org/2000/svg">
<path d="M12 23C9.82441 23 7.69767 22.3549 5.88873 21.1462C4.07979 19.9375 2.66989 18.2195 1.83733 16.2095C1.00477 14.1995 0.786929 11.9878 1.21137 9.85401C1.6358 7.72022 2.68345 5.76021 4.22183 4.22183C5.76021 2.68345 7.72022 1.6358 9.85401 1.21137C11.9878 0.786929 14.1995 1.00477 16.2095 1.83733C18.2195 2.66989 19.9375 4.07979 21.1462 5.88873C22.3549 7.69767 23 9.82441 23 12C22.9967 14.9164 21.8367 17.7123 19.7745 19.7745C17.7123 21.8367 14.9164 22.9967 12 23ZM12 3.00001C10.22 3.00001 8.47992 3.52785 6.99987 4.51678C5.51983 5.50571 4.36628 6.91132 3.68509 8.55585C3.0039 10.2004 2.82567 12.01 3.17294 13.7558C3.5202 15.5016 4.37737 17.1053 5.63604 18.364C6.89472 19.6226 8.49836 20.4798 10.2442 20.8271C11.99 21.1743 13.7996 20.9961 15.4442 20.3149C17.0887 19.6337 18.4943 18.4802 19.4832 17.0001C20.4722 15.5201 21 13.78 21 12C20.9974 9.61387 20.0483 7.32622 18.361 5.63897C16.6738 3.95171 14.3861 3.00265 12 3.00001Z" fill="#161616"/>
<path d="M15.293 10.707L13 8.41409V18C13 18.2652 12.8946 18.5196 12.7071 18.7071C12.5195 18.8946 12.2652 19 12 19C11.7347 19 11.4804 18.8946 11.2929 18.7071C11.1053 18.5196 11 18.2652 11 18V8.41409L8.70696 10.707C8.61471 10.8025 8.50437 10.8787 8.38236 10.9311C8.26036 10.9835 8.12914 11.0111 7.99636 11.0122C7.86358 11.0134 7.7319 10.9881 7.60901 10.9378C7.48611 10.8875 7.37446 10.8133 7.28056 10.7194C7.18667 10.6255 7.11242 10.5138 7.06214 10.3909C7.01186 10.2681 6.98655 10.1364 6.98771 10.0036C6.98886 9.87081 7.01645 9.73959 7.06886 9.61759C7.12127 9.49559 7.19745 9.38524 7.29296 9.29299L11.293 5.29299C11.3858 5.20011 11.496 5.12642 11.6173 5.07615C11.7386 5.02588 11.8686 5 12 5C12.1313 5 12.2613 5.02588 12.3826 5.07615C12.5039 5.12642 12.6141 5.20011 12.707 5.29299L16.707 9.29299C16.8891 9.4816 16.9899 9.7342 16.9876 9.9964C16.9854 10.2586 16.8802 10.5094 16.6948 10.6948C16.5094 10.8802 16.2586 10.9854 15.9964 10.9877C15.7342 10.9899 15.4816 10.8892 15.293 10.707Z" fill="#161616"/>
</svg>
