<svg width="16" height="20" viewBox="0 0 16 20" fill="none" xmlns="http://www.w3.org/2000/svg">
<path d="M8 20C7.39942 20 6.79868 19.7716 6.34137 19.3149L1.15293 14.1327C0.590488 13.571 0.424473 12.731 0.729954 11.9928C1.03452 11.2572 1.74298 10.7819 2.53492 10.7819H7.25782V0.78125C7.25782 0.349731 7.60755 0 8.03907 0C8.47058 0 8.82032 0.349731 8.82032 0.78125V10.7819C8.82032 11.6435 8.11933 12.3445 7.25782 12.3445H2.53492C2.30085 12.3445 2.20441 12.5165 2.17374 12.5903C2.14261 12.6656 2.08844 12.8587 2.25721 13.0272L7.44565 18.2094C7.75129 18.5146 8.24872 18.5146 8.55436 18.2094L13.7428 13.0272C13.9116 12.8587 13.8572 12.6656 13.8261 12.5903C13.7956 12.5165 13.6992 12.3445 13.4651 12.3445H11.7842C11.3527 12.3445 11.0029 11.9946 11.0029 11.5631C11.0029 11.1316 11.3527 10.7819 11.7842 10.7819H13.4651C14.257 10.7819 14.9655 11.2572 15.2699 11.9928C15.5755 12.731 15.4095 13.571 14.8471 14.1327L9.65863 19.3149C9.20133 19.7716 8.60074 20 8 20Z" fill="#346751"/>
</svg>
