<svg width="20" height="20" viewBox="0 0 20 20" fill="none" xmlns="http://www.w3.org/2000/svg">
<path d="M0.78125 20C0.58136 20 0.381317 19.9237 0.228882 19.7711C-0.0762939 19.4661 -0.0762939 18.9714 0.228882 18.6664L12.2533 6.64185L8.93539 3.33832C8.37311 2.77603 8.20694 1.93985 8.51059 1.20682C8.81424 0.473633 9.52316 0 10.3165 0H17.654C18.9476 0 20 1.0524 20 2.34604V9.68353C20 10.477 19.5264 11.1858 18.7933 11.4894C18.0617 11.7926 17.227 11.6275 16.666 11.0687L15.4684 9.89349C15.1605 9.59137 15.1558 9.09668 15.4581 8.78876C15.7602 8.48068 16.2549 8.4761 16.5628 8.77823L17.7626 9.9556C17.7643 9.95743 17.7661 9.95911 17.7678 9.96094C17.9352 10.1282 18.1226 10.076 18.1953 10.0459C18.2681 10.0157 18.4375 9.92004 18.4375 9.68353V2.34604C18.4375 1.91391 18.0861 1.5625 17.654 1.5625H10.3165C10.08 1.5625 9.98428 1.73187 9.95407 1.80466C9.92401 1.87744 9.87183 2.06497 10.0392 2.23221L13.3559 5.53467C13.652 5.82947 13.8155 6.22223 13.8159 6.64017C13.8162 7.05811 13.6537 7.45117 13.3582 7.74673L1.33362 19.7711C1.18118 19.9237 0.981293 20 0.78125 20Z" fill="white"/>
</svg>
