<svg width="24" height="24" viewBox="0 0 24 24" fill="none" xmlns="http://www.w3.org/2000/svg">
<path d="M7.83328 2H5.33331C4.44926 2 3.60142 2.35119 2.9763 2.97631C2.35119 3.60143 2 4.44928 2 5.33333L2 7.83333C2 8.71739 2.35119 9.56523 2.9763 10.1904C3.60142 10.8155 4.44926 11.1667 5.33331 11.1667H7.83328C8.71733 11.1667 9.56517 10.8155 10.1903 10.1904C10.8154 9.56523 11.1666 8.71739 11.1666 7.83333V5.33333C11.1666 4.44928 10.8154 3.60143 10.1903 2.97631C9.56517 2.35119 8.71733 2 7.83328 2V2ZM9.49994 7.83333C9.49994 8.27536 9.32434 8.69928 9.01179 9.01184C8.69923 9.3244 8.27531 9.5 7.83328 9.5H5.33331C4.89128 9.5 4.46736 9.3244 4.1548 9.01184C3.84225 8.69928 3.66665 8.27536 3.66665 7.83333V5.33333C3.66665 4.89131 3.84225 4.46738 4.1548 4.15482C4.46736 3.84226 4.89128 3.66667 5.33331 3.66667H7.83328C8.27531 3.66667 8.69923 3.84226 9.01179 4.15482C9.32434 4.46738 9.49994 4.89131 9.49994 5.33333V7.83333ZM7.83328 12.8333H5.33331C4.44926 12.8333 3.60142 13.1845 2.9763 13.8096C2.35119 14.4348 2 15.2826 2 16.1667L2 18.6667C2 19.5507 2.35119 20.3986 2.9763 21.0237C3.60142 21.6488 4.44926 22 5.33331 22H7.83328C8.71733 22 9.56517 21.6488 10.1903 21.0237C10.8154 20.3986 11.1666 19.5507 11.1666 18.6667V16.1667C11.1666 15.2826 10.8154 14.4348 10.1903 13.8096C9.56517 13.1845 8.71733 12.8333 7.83328 12.8333ZM9.49994 18.6667C9.49994 19.1087 9.32434 19.5326 9.01179 19.8452C8.69923 20.1577 8.27531 20.3333 7.83328 20.3333H5.33331C4.89128 20.3333 4.46736 20.1577 4.1548 19.8452C3.84225 19.5326 3.66665 19.1087 3.66665 18.6667V16.1667C3.66665 15.7246 3.84225 15.3007 4.1548 14.9882C4.46736 14.6756 4.89128 14.5 5.33331 14.5H7.83328C8.27531 14.5 8.69923 14.6756 9.01179 14.9882C9.32434 15.3007 9.49994 15.7246 9.49994 16.1667V18.6667ZM20.5773 17.8742L18.6665 19.7825V4.19417L20.5773 6.1025C20.6548 6.17987 20.7467 6.24123 20.8478 6.28308C20.949 6.32494 21.0573 6.34646 21.1668 6.34642C21.2763 6.34638 21.3846 6.32478 21.4857 6.28286C21.5869 6.24094 21.6787 6.17951 21.7561 6.10208C21.8335 6.02466 21.8948 5.93275 21.9367 5.83161C21.9785 5.73047 22 5.62208 22 5.51262C22 5.40316 21.9784 5.29479 21.9364 5.19368C21.8945 5.09257 21.8331 5.0007 21.7557 4.92333L19.5999 2.77083C19.1311 2.30267 18.4957 2.0397 17.8332 2.0397C17.1707 2.0397 16.5353 2.30267 16.0665 2.77083L13.9107 4.92333C13.8333 5.0007 13.7719 5.09257 13.73 5.19368C13.688 5.29479 13.6664 5.40316 13.6664 5.51262C13.6664 5.62208 13.6879 5.73047 13.7297 5.83161C13.7716 5.93275 13.8329 6.02466 13.9103 6.10208C13.9877 6.17951 14.0795 6.24094 14.1807 6.28286C14.2818 6.32478 14.3901 6.34638 14.4996 6.34642C14.6091 6.34646 14.7174 6.32494 14.8186 6.28308C14.9197 6.24123 15.0116 6.17987 15.0891 6.1025L16.9999 4.19417V19.7825L15.0891 17.8742C15.0116 17.7968 14.9197 17.7354 14.8186 17.6936C14.7174 17.6517 14.6091 17.6302 14.4996 17.6302C14.3901 17.6303 14.2818 17.6519 14.1807 17.6938C14.0795 17.7357 13.9877 17.7972 13.9103 17.8746C13.8329 17.952 13.7716 18.0439 13.7297 18.1451C13.6879 18.2462 13.6664 18.3546 13.6664 18.464C13.6664 18.5735 13.688 18.6819 13.73 18.783C13.7719 18.8841 13.8333 18.976 13.9107 19.0533L16.0665 21.2058C16.5353 21.674 17.1707 21.937 17.8332 21.937C18.4957 21.937 19.1311 21.674 19.5999 21.2058L21.7557 19.0533C21.8331 18.976 21.8945 18.8841 21.9364 18.783C21.9784 18.6819 22 18.5735 22 18.464C22 18.3546 21.9785 18.2462 21.9367 18.1451C21.8948 18.0439 21.8335 17.952 21.7561 17.8746C21.6787 17.7972 21.5869 17.7357 21.4857 17.6938C21.3846 17.6519 21.2763 17.6303 21.1668 17.6302C21.0573 17.6302 20.949 17.6517 20.8478 17.6936C20.7467 17.7354 20.6548 17.7968 20.5773 17.8742Z" fill="white"/>
</svg>
