<svg xmlns="http://www.w3.org/2000/svg" width="28" height="28" viewBox="0 0 28 28">
    <defs>
        <style>
            .cls-1{fill:#c45e9f}
        </style>
    </defs>
    <g id="dashboard" transform="translate(-1 -1)">
        <path id="Path_4068" d="M27.645 1H2.355A1.356 1.356 0 0 0 1 2.355v18.064a1.356 1.356 0 0 0 1.355 1.355h12.193a7.226 7.226 0 1 0 14.452 0V2.355A1.356 1.356 0 0 0 27.645 1zm-25.29.9h25.29a.452.452 0 0 1 .452.452v2.261H1.9V2.355a.452.452 0 0 1 .455-.455zm18.968 19.687L17 25.908a6.307 6.307 0 0 1 4.321-10.434zm-3.682 4.96l4.134-4.134 4.134 4.134a6.288 6.288 0 0 1-8.268 0zm8.907-.639l-4.321-4.321v-6.112a6.307 6.307 0 0 1 4.321 10.434zm-4.773-11.36a7.232 7.232 0 0 0-7.163 6.323H2.355a.452.452 0 0 1-.452-.452V5.516H28.1v12.768a7.23 7.23 0 0 0-6.326-3.736z" class="cls-1"/>
        <path id="Path_4069" d="M35.9 40.667a4.532 4.532 0 0 1 3.284-4.346l-.246-.869A5.439 5.439 0 0 0 35 40.667z" class="cls-1" transform="translate(-18.645 -18.892)"/>
        <path id="Path_4070" d="M35.2 48.982a5.379 5.379 0 0 0 .28.986l.841-.329a4.51 4.51 0 0 1-.233-.821z" class="cls-1" transform="translate(-18.754 -26.223)"/>
        <path id="Path_4071" d="M56.215 42.716l.866-.257a5.38 5.38 0 0 0-.366-.914l-.8.411a4.471 4.471 0 0 1 .3.76z" class="cls-1" transform="translate(-30.112 -22.234)"/>
        <path id="Path_4072" d="M56.969 46.29q0 .168-.012.332l.9.066c.009-.131.014-.265.014-.4a5.477 5.477 0 0 0-.031-.585l-.9.1a4.713 4.713 0 0 1 .029.487z" class="cls-1" transform="translate(-30.678 -24.516)"/>
        <path id="Path_4073" d="M56.062 50.3l.818.383a5.427 5.427 0 0 0 .334-.926l-.874-.227a4.472 4.472 0 0 1-.278.77z" class="cls-1" transform="translate(-30.195 -26.612)"/>
        <path id="Path_4074" d="M9 5h.9v.9H9z" class="cls-1" transform="translate(-4.387 -2.194)"/>
        <path id="Path_4075" d="M5 5h.9v.9H5z" class="cls-1" transform="translate(-2.194 -2.194)"/>
        <path id="Path_4076" d="M13 5h.9v.9H13z" class="cls-1" transform="translate(-6.581 -2.194)"/>
        <path id="Path_4077" d="M12.677 13H6.355A1.356 1.356 0 0 0 5 14.355v3.613a1.356 1.356 0 0 0 1.355 1.355h6.323a1.356 1.356 0 0 0 1.355-1.355v-3.613A1.356 1.356 0 0 0 12.677 13zm.452 4.968a.452.452 0 0 1-.452.452H6.355a.452.452 0 0 1-.452-.452v-3.613a.452.452 0 0 1 .452-.452h6.323a.452.452 0 0 1 .452.452z" class="cls-1" transform="translate(-2.194 -6.581)"/>
        <path id="Path_4078" d="M12.677 29H6.355A1.356 1.356 0 0 0 5 30.355v3.613a1.356 1.356 0 0 0 1.355 1.355h6.323a1.356 1.356 0 0 0 1.355-1.355v-3.613A1.356 1.356 0 0 0 12.677 29zm.452 4.968a.452.452 0 0 1-.452.452H6.355a.452.452 0 0 1-.452-.452v-3.613a.452.452 0 0 1 .452-.452h6.323a.452.452 0 0 1 .452.452z" class="cls-1" transform="translate(-2.194 -15.355)"/>
        <path id="Path_4079" d="M11.774 18.232l-1.355-1.355L8.293 19l.639.639 1.487-1.487 1.355 1.355 2.577-2.577-.639-.639z" class="cls-1" transform="translate(-3.999 -8.386)"/>
        <path id="Path_4080" d="M13.516 33h-.9v1.806h-.9v-.9h-.9v.9H9.9V33H9v2.71h5.419v-.9h-.9z" class="cls-1" transform="translate(-4.387 -17.548)"/>
        <path id="Path_4081" d="M29 13h.9v.9H29z" class="cls-1" transform="translate(-15.355 -6.581)"/>
        <path id="Path_4082" d="M33 13h11.742v.9H33z" class="cls-1" transform="translate(-17.548 -6.581)"/>
        <path id="Path_4083" d="M29 17h13.548v.9H29z" class="cls-1" transform="translate(-15.355 -8.774)"/>
        <path id="Path_4084" d="M29 21h2.71v.9H29z" class="cls-1" transform="translate(-15.355 -10.968)"/>
        <path id="Path_4085" d="M37 21h9.935v.9H37z" class="cls-1" transform="translate(-19.742 -10.968)"/>
        <path id="Path_4086" d="M29 25h8.129v.9H29z" class="cls-1" transform="translate(-15.355 -13.161)"/>
        <path id="Path_4087" d="M49 25h.9v.9H49z" class="cls-1" transform="translate(-26.323 -13.161)"/>
        <path id="Path_4088" d="M53 25h.9v.9H53z" class="cls-1" transform="translate(-28.516 -13.161)"/>
        <path id="Path_4089" d="M57 25h.9v.9H57z" class="cls-1" transform="translate(-30.71 -13.161)"/>
    </g>
</svg>
