<svg xmlns="http://www.w3.org/2000/svg" width="20.003" height="20" viewBox="0 0 20.003 20">
  <defs>
    <style>
      .cls-1 {
        fill: #c45e9f;
      }
    </style>
  </defs>
  <g id="gWMDxP" transform="translate(-19.678 -19.705)">
    <g id="Group_515" data-name="Group 515" transform="translate(19.678 19.705)">
      <path id="Path_175" data-name="Path 175" class="cls-1" d="M21.512,34.086l-.593,4.371.711-.094c.778-.1,1.556-.211,2.335-.31a.568.568,0,0,1,.634.489.578.578,0,0,1-.514.656q-1.778.242-3.556.477a1.912,1.912,0,0,1-.3.029.555.555,0,0,1-.548-.578c.025-.345.083-.687.129-1.03q.167-1.25.336-2.5c.122-.906.248-1.812.366-2.719a.9.9,0,0,1,.282-.539q2.783-2.776,5.561-5.556Q29.2,23.942,32.038,21.1a4.505,4.505,0,0,1,2.377-1.309,4.278,4.278,0,0,1,2.8.381A4.229,4.229,0,0,1,39.5,22.92a4.307,4.307,0,0,1-1.2,4.4q-4.542,4.554-9.1,9.1l-2.2,2.2a.591.591,0,0,1-.969,0l-4.391-4.391C21.617,34.185,21.578,34.149,21.512,34.086Zm12.738-9.73-1.914-1.917c-.018.017-.05.043-.079.072q-5.122,5.122-10.245,10.242c-.084.084-.075.131,0,.21q.852.843,1.694,1.7c.1.1.153.095.25,0q5.1-5.105,10.2-10.2C34.2,24.416,34.229,24.379,34.25,24.356ZM26.571,37.477a.957.957,0,0,1,.1-.139q.689-.693,1.381-1.383,4.406-4.406,8.814-8.81c.093-.093.1-.145,0-.24-.55-.541-1.093-1.089-1.639-1.634-.125-.125-.125-.125-.255.005l-10.2,10.2c-.038.038-.073.078-.1.1ZM37.79,26.162a3.247,3.247,0,0,0-4.566-4.571Z" transform="translate(-19.678 -19.705)"/>
    </g>
  </g>
</svg>
