<svg xmlns="http://www.w3.org/2000/svg" width="20.464" height="20.464" viewBox="0 0 20.464 20.464">
  <defs>
    <style>
      .cls-1 {
        fill: #c45e9f;
      }
    </style>
  </defs>
  <g id="Group_2750" data-name="Group 2750" transform="translate(0)">
    <path id="Path_3585" data-name="Path 3585" class="cls-1" d="M18.415,17.552A8.42,8.42,0,0,0,15.893,4.566a8.412,8.412,0,1,0-13.845,9.35L.179,15.76A.6.6,0,0,0,.6,16.787l4.515.022a8.4,8.4,0,0,0,6.938,3.656l7.816-.04a.6.6,0,0,0,.418-1.026ZM3.308,13.51a7.214,7.214,0,1,1,4.871,2.114l-6.125-.029L3.3,14.36a.6.6,0,0,0,0-.85Zm8.742,5.755a7.176,7.176,0,0,1-5.418-2.449l1.781.011A8.422,8.422,0,0,0,16.594,6.45a7.213,7.213,0,0,1,.561,10.7.6.6,0,0,0,0,.85l1.251,1.234-6.359.033Z" transform="translate(0)"/>
    <path id="Path_3586" data-name="Path 3586" class="cls-1" d="M106.605,137.2H113.8a.6.6,0,0,0,0-1.2h-7.194a.6.6,0,0,0,0,1.2Z" transform="translate(-101.769 -130.564)"/>
    <path id="Path_3587" data-name="Path 3587" class="cls-1" d="M106.605,197.2H113.8a.6.6,0,0,0,0-1.2h-7.194a.6.6,0,0,0,0,1.2Z" transform="translate(-101.769 -188.166)"/>
    <path id="Path_3588" data-name="Path 3588" class="cls-1" d="M106.605,257.2H113.8a.6.6,0,0,0,0-1.2h-7.194a.6.6,0,0,0,0,1.2Z" transform="translate(-101.769 -245.768)"/>
  </g>
</svg>
