<svg id="Group_65" data-name="Group 65" xmlns="http://www.w3.org/2000/svg" width="54.73" height="49.881" viewBox="0 0 54.73 49.881">
  <defs>
    <style>
      .cls-1 {
        fill: #212121;
      }

      .cls-2 {
        fill: #c75ba1;
      }

      .cls-3 {
        fill: #d82a2a;
      }

      .cls-4 {
        fill: #fff;
        font-size: 17px;
        font-family: DBHeavent-Med, DB Heavent;
      }
    </style>
  </defs>
  <g id="Group_12" data-name="Group 12" transform="translate(0 6.255)">
    <path id="Path_24" data-name="Path 24" class="cls-1" d="M983.194,67.92a3.222,3.222,0,0,0-2.328-.785c-5,.012-10,.005-15.005.005-5.792,0-11.584-.007-17.377.011-.566,0-.84-.083-.946-.743a7.141,7.141,0,0,0-.6-2.661c-.6-1.007-1.246-1.986-1.842-3a1.419,1.419,0,0,0-1.373-.766c-2.143.025-4.286.005-6.43.009-.888,0-1.337.341-1.348,1s.422,1,1.317,1c1.888.005,3.776,0,5.666.005.218,0,.5-.1.637.14.583.983,1.483,1.845,1.7,2.962.7,3.545,1.268,7.118,1.887,10.68q1.477,8.5,2.956,17.007c.2,1.158.427,1.321,1.642,1.321h13.779q7.042,0,14.086,0c.877,0,1.353-.349,1.378-.986.025-.657-.468-1.02-1.394-1.021q-2.182,0-4.363,0-11.216,0-22.43.013c-.6,0-.863-.137-.92-.772a15.7,15.7,0,0,0-.411-2.33c-.168-.694,0-.888.744-.885q13.627.04,27.251.017a2.836,2.836,0,0,0,3.063-2.664c.148-1.136.232-2.281.346-3.422q.581-5.859,1.163-11.716A2.734,2.734,0,0,0,983.194,67.92Zm-17.52,1.22c.967.019,1.934.007,2.9.007.917,0,1.834.013,2.75-.005.366-.008.56.052.55.489-.028,1.119-.024,2.241,0,3.36.007.4-.13.522-.529.519-1.884-.019-3.768-.015-5.653,0-.341,0-.5-.065-.5-.459q.034-1.718,0-3.437C965.188,69.239,965.315,69.132,965.674,69.14Zm-.476,6.905c0-.346.016-.539.477-.531,1.883.034,3.769.022,5.653.007.375,0,.556.074.547.5-.024,1.069-.029,2.139,0,3.208.013.47-.2.542-.595.534-.941-.021-1.884-.008-2.826-.008-.917,0-1.834-.019-2.75.008-.4.011-.522-.1-.511-.506C965.222,78.186,965.212,77.115,965.2,76.045Zm-16.49-2.989q-.291-1.728-.612-3.451c-.075-.4.083-.472.444-.462.891.022,1.781.007,2.672.007.917,0,1.833.013,2.748-.005.359-.008.564.037.552.481-.028,1.144-.02,2.29-.005,3.436.005.324-.09.448-.427.445q-2.442-.018-4.886,0C948.865,73.507,948.757,73.349,948.708,73.056Zm5.806,9.3c-.026.534-.007,1.069-.007,1.6h0c0,.56-.019,1.12.008,1.679.017.387-.091.542-.507.526q-1.258-.046-2.518,0c-.4.015-.521-.136-.576-.5-.172-1.128-.353-2.257-.584-3.375-.094-.456.062-.526.449-.521,1.069.015,2.138.026,3.207,0C954.445,81.749,954.534,81.951,954.514,82.353Zm-.012-4.24c.007,1.64,0,1.64-1.666,1.64-.817,0-1.633-.017-2.448.009-.383.012-.545-.119-.6-.5-.173-1.106-.361-2.211-.576-3.309-.075-.383.078-.435.39-.431.765.011,1.53,0,2.464,0,.684.055,1.834-.361,2.308.149C954.8,76.135,954.5,77.275,954.5,78.113Zm1.986-2.08c-.011-.41.127-.521.519-.511.969.024,1.94.008,2.908.008v0c.92,0,1.838.016,2.756-.007.4-.009.543.116.535.522-.021,1.072-.026,2.143,0,3.215.009.424-.164.506-.54.5-1.888-.015-3.776-.019-5.665,0-.4,0-.526-.106-.515-.511Q956.528,77.641,956.488,76.033Zm6.718,9.619c.009.422-.159.515-.539.507-.943-.021-1.888-.007-2.832-.008s-1.888-.019-2.832.009c-.4.012-.525-.107-.515-.513q.04-1.683,0-3.367c-.008-.4.12-.523.519-.519,1.888.019,3.776.016,5.663,0,.383,0,.546.106.536.521Q963.169,83.969,963.206,85.653Zm0-12.666c.008.407-.145.529-.535.521-.967-.02-1.935-.007-2.9-.007-.917,0-1.834-.013-2.751.008-.373.008-.543-.066-.533-.494.029-1.144.021-2.291,0-3.437-.005-.334.1-.435.432-.433q2.9.02,5.8,0c.373,0,.488.123.482.482C963.191,70.745,963.187,71.866,963.207,72.986Zm8.669,9.367c-.033,1.1-.026,2.193,0,3.289.009.407-.133.529-.527.519-.917-.022-1.835-.007-2.754-.007-.943,0-1.887-.018-2.83.008-.415.012-.58-.091-.568-.54.029-1.1.026-2.192,0-3.289-.009-.422.1-.577.55-.571q2.753.036,5.507,0C971.7,81.759,971.891,81.864,971.876,82.353Zm8.971-.1c-.115,1.011-.18,2.027-.308,3.036a.908.908,0,0,1-.986.865c-1.732,0-3.465-.011-5.2.008-.365,0-.5-.112-.494-.473.01-1.147.017-2.294-.005-3.439-.009-.451.231-.485.576-.482.994.011,1.987,0,2.981,0v0c.994,0,1.987.012,2.981-.007C980.765,81.76,980.889,81.875,980.847,82.251Zm.616-6.225c-.122,1.113-.222,2.226-.315,3.34-.025.3-.157.388-.437.388q-3.207-.008-6.414,0c-.337,0-.439-.127-.435-.449.012-1.094.017-2.189,0-3.284-.008-.418.173-.511.551-.506,1.094.018,2.188.007,3.284.008s2.189.024,3.284-.011C981.4,75.5,981.505,75.629,981.463,76.027Zm.571-5.826c-.1.937-.211,1.872-.27,2.811-.025.424-.219.5-.577.494-1.12-.012-2.242,0-3.363,0v0c-1.147,0-2.294-.013-3.44.007-.4.008-.534-.129-.526-.529q.032-1.681,0-3.363c-.007-.373.131-.476.489-.473,2.267.015,4.535,0,6.8.016C981.825,69.161,982.1,69.536,982.034,70.2Z" transform="translate(-935.941 -59.984)"/>
    <path id="Path_25" data-name="Path 25" class="cls-2" d="M951.646,86.984a3.975,3.975,0,1,0,3.874,3.979A3.9,3.9,0,0,0,951.646,86.984Zm-.044,5.945A1.973,1.973,0,0,1,949.648,91a1.936,1.936,0,1,1,1.954,1.927Z" transform="translate(-932.181 -51.307)"/>
    <path id="Path_26" data-name="Path 26" class="cls-2" d="M965.169,86.984a3.974,3.974,0,1,0-.063,7.948,3.974,3.974,0,0,0,.063-7.948Zm-.011,5.941a2.043,2.043,0,0,1-2.053-1.938,1.985,1.985,0,0,1,1.9-2,2.007,2.007,0,0,1,2.056,1.924A2.034,2.034,0,0,1,965.158,92.925Z" transform="translate(-927.85 -51.308)"/>
  </g>
  <circle id="Ellipse_3" data-name="Ellipse 3" class="cls-3" cx="7.928" cy="7.928" r="7.928" transform="translate(38.873 2.312)"/>
  <text id="_0" data-name="0" class="cls-4" transform="translate(43.537 14)"><tspan x="0" y="0">0</tspan></text>
</svg>
