<svg width="20" height="19" viewBox="0 0 20 19" fill="none" xmlns="http://www.w3.org/2000/svg">
<path d="M16.78 13.4752H14.193V17.613H16.78V13.4752ZM16.1359 16.9797H14.8478V14.1086H16.1359V16.9797Z" fill="white"/>
<path d="M16.7799 17.7291H14.1928C14.1284 17.7291 14.0748 17.6764 14.0748 17.613V13.4752C14.0748 13.4119 14.1284 13.3591 14.1928 13.3591H16.7799C16.8443 13.3591 16.8979 13.4119 16.8979 13.4752V17.6025C16.8979 17.6764 16.855 17.7291 16.7799 17.7291ZM14.3109 17.4969H16.6618V13.5914H14.3109V17.4969ZM16.1358 17.0958H14.8476C14.7832 17.0958 14.7296 17.043 14.7296 16.9797V14.1086C14.7296 14.0452 14.7832 13.9925 14.8476 13.9925H16.1358C16.1787 13.9925 16.2002 14.0136 16.2217 14.0347C16.2431 14.0558 16.2539 14.0875 16.2539 14.1191V16.9797C16.2646 17.043 16.2109 17.0958 16.1358 17.0958ZM14.9657 16.8636H16.0177V14.2352H14.9657V16.8636Z" fill="white"/>
<path d="M10.9673 10.6125H3.20627C2.66955 10.6125 2.24017 11.0348 2.24017 11.5625V17.6003H11.9441V11.5625C11.9334 11.0348 11.504 10.6125 10.9673 10.6125ZM11.2893 16.9775H2.87351V12.8398H11.2786V16.9775H11.2893ZM11.2893 12.2064H2.87351V11.5731C2.87351 11.3937 3.01305 11.2564 3.19554 11.2564H10.9566C11.139 11.2564 11.2786 11.3937 11.2786 11.5731L11.2893 12.2064Z" fill="white"/>
<path d="M11.9332 17.727H2.22922C2.16482 17.727 2.11115 17.6742 2.11115 17.6109V11.5731C2.11115 10.982 2.5942 10.4965 3.20606 10.4965H10.9671C11.5682 10.4965 12.0513 10.982 12.0513 11.5731V17.6109C12.0513 17.6742 11.9976 17.727 11.9332 17.727ZM2.3473 17.4948H11.8151V11.5731C11.8151 11.1087 11.4394 10.7392 10.9671 10.7392H3.19533C2.72301 10.7392 2.3473 11.1192 2.3473 11.5731V17.4948ZM11.2891 17.0937H2.87329C2.80889 17.0937 2.75521 17.0409 2.75521 16.9776V12.8398C2.75521 12.7765 2.80889 12.7237 2.87329 12.7237H11.2784C11.3428 12.7237 11.3965 12.7765 11.3965 12.8398V16.9776C11.3965 17.0092 11.3857 17.0409 11.3643 17.062C11.3535 17.0831 11.3213 17.0937 11.2891 17.0937ZM2.99137 16.8615H11.1603V12.9559H2.99137V16.8615ZM11.2891 12.3226H2.87329C2.80889 12.3226 2.75521 12.2698 2.75521 12.2065V11.5731C2.75521 11.3303 2.94843 11.1403 3.19533 11.1403H10.9563C11.2032 11.1403 11.3965 11.3409 11.3965 11.5731V12.2065C11.3965 12.2381 11.3857 12.2698 11.3643 12.2909C11.3428 12.312 11.3213 12.3226 11.2891 12.3226ZM2.99137 12.0903H11.1603V11.5626C11.1603 11.457 11.0744 11.362 10.9563 11.362H3.19533C3.07725 11.362 2.99137 11.457 2.99137 11.5626V12.0903Z" fill="white"/>
<path d="M19.35 4.46498C19.35 4.45442 19.3392 4.44387 19.3392 4.43331C19.3392 4.42275 19.3393 4.42275 19.3285 4.4122L17.7505 1.62553V0.432756C17.7505 0.253311 17.611 0.116089 17.4285 0.116089H2.22852C2.04603 0.116089 1.90648 0.253311 1.90648 0.432756V1.63609L0.639816 4.43331V4.44387C0.629082 4.47553 0.618347 4.51776 0.618347 4.54942V18.8839H19.3822V4.55998C19.3822 4.52831 19.3715 4.49664 19.35 4.46498ZM18.502 4.25387H14.7556L14.0042 2.02664H17.246L18.502 4.25387ZM14.1974 4.8872V8.07498C14.1974 8.7822 13.6178 9.34164 12.9093 9.3522H11.6212C10.902 9.3522 10.333 8.7822 10.333 8.07498V4.89775L14.1974 4.8872ZM10.3223 4.25387V2.02664H13.328L14.0794 4.25387H10.3223ZM2.55055 0.749422H17.1065V1.38276H2.55055V0.749422ZM5.92117 4.25387L6.67258 2.02664H9.67823V4.25387H5.92117ZM9.67823 4.8872V7.74776C9.67823 8.62387 8.94829 9.34164 8.05733 9.34164H7.41326C6.5223 9.33109 5.80309 8.62387 5.80309 7.74776V4.8872H9.67823ZM2.44321 2.02664H5.98558L5.23417 4.25387H1.43417L2.44321 2.02664ZM1.26241 4.8872H5.14829V7.62109C5.14829 8.57109 4.36467 9.34164 3.39857 9.34164H2.88332C1.99236 9.34164 1.27315 8.62387 1.26241 7.74776V4.8872ZM17.4393 18.24H13.5534V12.8355H17.4393V18.24ZM17.4393 12.2022H13.5534V11.8222C13.5534 11.5055 13.811 11.2522 14.133 11.2522H16.8489C17.1709 11.2522 17.4285 11.5055 17.4285 11.8222L17.4393 12.2022ZM18.7274 18.24H18.0833V11.8222C18.0833 11.1572 17.5359 10.6083 16.8489 10.6083H14.133C13.4568 10.6083 12.8986 11.1466 12.8986 11.8116V18.24H1.26241V9.29942C1.69179 9.7322 2.27145 9.97498 2.88332 9.97498H3.39857C4.23586 9.97498 5.00874 9.5422 5.43812 8.83498C5.8353 9.53164 6.58671 9.96442 7.40253 9.96442H8.0466C8.79801 9.96442 9.49575 9.59498 9.91439 8.99331C10.2686 9.59498 10.9127 9.96442 11.6104 9.97498H12.8986C13.5963 9.97498 14.2404 9.60553 14.5839 9.00387C15.0025 9.61609 15.7003 9.97498 16.4517 9.97498H17.1065C17.7183 9.97498 18.298 9.7322 18.7274 9.29942V18.24ZM18.7274 7.74776C18.7274 8.62387 18.0082 9.33109 17.1172 9.34164H16.4731C15.5822 9.34164 14.863 8.62387 14.8522 7.74776V4.8872H18.7274V7.74776Z" fill="white"/>
<path d="M19.3819 19H0.618079C0.553672 19 0.5 18.9472 0.5 18.8839V4.57056C0.5 4.51778 0.510734 4.47556 0.521469 4.43333C0.521469 4.42278 0.521469 4.41222 0.532203 4.39111L1.78814 1.615V0.432778C1.78814 0.200556 1.98136 0 2.22825 0H17.439C17.6859 0 17.8791 0.200556 17.8791 0.432778V1.59389L19.4356 4.35944C19.4463 4.38056 19.4571 4.39111 19.4571 4.41222C19.4785 4.45444 19.4893 4.50722 19.5 4.54944V18.8733C19.5 18.9472 19.4463 19 19.3819 19ZM0.736158 18.7678H19.2531V4.56C19.2531 4.53889 19.2424 4.52833 19.2316 4.50722C19.2316 4.49667 19.2209 4.49667 19.2209 4.48611L19.2102 4.47556L17.6537 1.68889C17.6429 1.66778 17.6429 1.64667 17.6429 1.63611V0.443333C17.6429 0.327222 17.5571 0.242778 17.439 0.242778H2.22825C2.11017 0.242778 2.02429 0.337778 2.02429 0.443333V1.64667C2.02429 1.66778 2.02429 1.67833 2.01356 1.68889L0.757627 4.47556C0.746893 4.49667 0.746893 4.52833 0.746893 4.56L0.736158 18.7678ZM18.7271 18.3667H18.083C18.0186 18.3667 17.965 18.3139 17.965 18.2506V11.8222C17.965 11.2206 17.4712 10.735 16.8593 10.735H14.1328C13.5209 10.735 13.0271 11.2206 13.0271 11.8222V18.2506C13.0271 18.3139 12.9734 18.3667 12.909 18.3667H1.26215C1.19774 18.3667 1.14407 18.3139 1.14407 18.2506V9.31C1.14407 9.24667 1.19774 9.19389 1.26215 9.19389C1.29435 9.19389 1.32655 9.20444 1.34802 9.22556C1.75593 9.62667 2.30339 9.85889 2.88305 9.85889H3.3983C4.19266 9.85889 4.9226 9.44722 5.34124 8.78222C5.37345 8.72944 5.44859 8.70833 5.50226 8.74C5.52373 8.75056 5.53446 8.76111 5.5452 8.78222C5.9209 9.44722 6.64011 9.84833 7.41299 9.85889H8.05706C8.76554 9.85889 9.43107 9.51056 9.82825 8.94056C9.84972 8.90889 9.89265 8.88778 9.93559 8.88778C9.97853 8.88778 10.0107 8.90889 10.0322 8.95111C10.3542 9.5 10.9554 9.84833 11.6209 9.84833H12.909C13.5638 9.84833 14.1757 9.5 14.4977 8.94056C14.5192 8.90889 14.5514 8.87722 14.5943 8.87722C14.6373 8.87722 14.6802 8.89833 14.7017 8.93C15.0989 9.51056 15.7644 9.84833 16.4729 9.84833H17.1277C17.7073 9.84833 18.2548 9.61611 18.6627 9.215C18.7056 9.17278 18.7808 9.17278 18.8345 9.215C18.8559 9.23611 18.8667 9.26778 18.8667 9.29945V18.24C18.8667 18.3033 18.813 18.3561 18.7486 18.3561C18.7379 18.3667 18.7271 18.3667 18.7271 18.3667ZM18.2011 18.1344H18.609V9.57389C18.1797 9.91167 17.6537 10.1017 17.1062 10.1017H16.4514C15.7322 10.1017 15.0452 9.77444 14.5943 9.215C14.2079 9.76389 13.5746 10.0911 12.8983 10.1017H11.6102C10.9339 10.1017 10.3006 9.77444 9.91412 9.215C9.45254 9.77444 8.76554 10.1017 8.03559 10.1017H7.39153C6.60791 10.1017 5.86723 9.71111 5.42712 9.06722C4.9548 9.71111 4.19266 10.0911 3.38757 10.1017H2.87232C2.32486 10.1017 1.79887 9.91167 1.36949 9.57389V18.1344H12.7802V11.8222C12.7802 11.0939 13.3814 10.4922 14.1328 10.4922H16.8486C17.5893 10.4922 18.2011 11.0833 18.2011 11.8222V18.1344ZM17.4282 18.3667H13.5531C13.4887 18.3667 13.435 18.3139 13.435 18.2506V12.8461C13.435 12.7828 13.4887 12.73 13.5531 12.73H17.439C17.5034 12.73 17.5571 12.7828 17.5571 12.8461V18.2506C17.5571 18.3139 17.5034 18.3667 17.4282 18.3667ZM13.6712 18.1344H17.3102V12.9622H13.6712V18.1344ZM17.4282 12.3289H13.5531C13.4887 12.3289 13.435 12.2761 13.435 12.2128V11.8222C13.435 11.4422 13.7463 11.1361 14.1328 11.1361H16.8486C17.235 11.1361 17.5463 11.4422 17.5463 11.8222V12.2022C17.5463 12.2656 17.5034 12.3183 17.4282 12.3289ZM13.6712 12.0861H17.3102V11.8222C17.3102 11.5689 17.1062 11.3683 16.8486 11.3683H14.1328C13.8751 11.3683 13.6712 11.5689 13.6712 11.8222V12.0861ZM17.1169 9.46833H16.4729C15.5175 9.46833 14.7446 8.69778 14.7339 7.75833V4.88722C14.7339 4.82389 14.7876 4.77111 14.852 4.77111H18.7271C18.7915 4.77111 18.8452 4.82389 18.8452 4.88722V7.74778C18.8452 8.69778 18.0723 9.45778 17.1169 9.46833ZM14.9701 5.01389V7.75833C14.9701 8.57111 15.6463 9.23611 16.4729 9.23611H17.1169C17.9435 9.22556 18.609 8.57111 18.609 7.75833V5.01389H14.9701ZM12.909 9.45778H11.6209C10.8373 9.45778 10.2147 8.835 10.204 8.06444V4.88722C10.204 4.82389 10.2576 4.77111 10.322 4.77111H14.2079C14.2723 4.77111 14.326 4.82389 14.326 4.88722V8.06444C14.3153 8.84556 13.6819 9.46833 12.909 9.45778ZM10.4401 5.00333V8.06444C10.4401 8.69778 10.9661 9.215 11.6102 9.215H12.8983C13.5424 9.215 14.0684 8.69778 14.0684 8.06444V5.00333H10.4401ZM8.05706 9.45778H7.41299C6.45763 9.45778 5.68475 8.69778 5.67401 7.75833V4.88722C5.67401 4.82389 5.72768 4.77111 5.79209 4.77111H9.67797C9.74237 4.77111 9.79604 4.82389 9.79604 4.88722V7.74778C9.79604 8.69778 9.01243 9.45778 8.05706 9.45778ZM5.91017 5.00333V7.74778C5.91017 8.56056 6.57571 9.22556 7.40226 9.22556H8.04633C8.87288 9.22556 9.54915 8.56056 9.54915 7.74778V5.00333H5.91017ZM3.3983 9.45778H2.88305C1.92768 9.45778 1.1548 8.68722 1.14407 7.74778V4.88722C1.14407 4.82389 1.19774 4.77111 1.26215 4.77111H5.14802C5.21243 4.77111 5.2661 4.82389 5.2661 4.88722V7.62111C5.25537 8.63444 4.42881 9.45778 3.3983 9.45778ZM1.38023 5.00333V7.74778C1.38023 8.56056 2.0565 9.22556 2.88305 9.22556H3.3983C4.3 9.22556 5.01921 8.50778 5.02994 7.62111V5.01389L1.38023 5.00333ZM18.5017 4.37H14.7554C14.7017 4.37 14.6588 4.33833 14.6373 4.28556L13.8859 2.05833C13.8644 1.995 13.8966 1.93167 13.961 1.91056C13.9718 1.91056 13.9825 1.9 14.004 1.9H17.2458C17.2887 1.9 17.3316 1.92111 17.3531 1.96333L18.609 4.19056C18.6412 4.24333 18.6198 4.31722 18.5661 4.34889C18.5446 4.37 18.5232 4.38056 18.5017 4.37ZM14.8412 4.13778H18.2977L17.1706 2.14278H14.165L14.8412 4.13778ZM14.0791 4.37H10.322C10.2576 4.37 10.204 4.31722 10.204 4.25389V2.02667C10.204 1.96333 10.2576 1.91056 10.322 1.91056H13.3277C13.3814 1.91056 13.4243 1.94222 13.4458 1.995L14.1864 4.22222C14.1972 4.25389 14.1972 4.29611 14.165 4.32778C14.1435 4.35944 14.1113 4.37 14.0791 4.37ZM10.4401 4.13778H13.9073L13.2311 2.14278H10.4401V4.13778ZM9.67797 4.37H5.9209C5.87797 4.37 5.84576 4.34889 5.82429 4.31722C5.79209 4.29611 5.79209 4.25389 5.80282 4.22222L6.55424 1.995C6.57571 1.94222 6.61864 1.91056 6.67232 1.91056H9.67797C9.74237 1.91056 9.79604 1.96333 9.79604 2.02667V4.25389C9.78531 4.31722 9.73164 4.37 9.67797 4.37ZM6.08192 4.13778H9.54915V2.15333H6.75819L6.08192 4.13778ZM5.2339 4.37H1.4339C1.39096 4.37 1.35876 4.34889 1.33729 4.31722C1.31582 4.28556 1.31582 4.24333 1.32655 4.21167L2.33559 1.98444C2.35706 1.94222 2.4 1.91056 2.44294 1.91056H5.98531C6.02825 1.91056 6.06045 1.93167 6.08192 1.96333C6.10339 1.995 6.11412 2.03722 6.10339 2.06889L5.35198 4.29611C5.33051 4.33833 5.28757 4.37 5.2339 4.37ZM1.61638 4.13778H5.14802L5.82429 2.14278H2.51808L1.61638 4.13778ZM17.1169 1.50944H2.56102C2.49661 1.50944 2.44294 1.45667 2.44294 1.39333V0.76C2.44294 0.696667 2.49661 0.643889 2.56102 0.643889H17.1169C17.1814 0.643889 17.235 0.696667 17.235 0.76V1.39333C17.2243 1.45667 17.1814 1.50944 17.1169 1.50944ZM2.6791 1.27722H16.9989V0.876111H2.6791V1.27722Z" fill="white"/>
</svg>
