<svg xmlns="http://www.w3.org/2000/svg" id="Icon_Waiting_Green" width="40" height="39.995" data-name="Icon/Waiting/Green" viewBox="0 0 40 39.995">
    <defs>
        <style>
            .cls-1{fill:#23c197}
        </style>
    </defs>
    <path id="Path_171" d="M-416.671 477.936a20.545 20.545 0 0 0-2.069-.1h-.021a2.082 2.082 0 0 0-2.048 2.1v8.244a1.958 1.958 0 0 0 .165.807 2.062 2.062 0 0 0 2.156 1.247 2.132 2.132 0 0 0 1.816-2.148v-5.975a15.867 15.867 0 0 1 13.8 15.275 15.866 15.866 0 0 1-12.894 16.043 15.866 15.866 0 0 1-17.885-10.187 15.867 15.867 0 0 1 7.221-19.274 2.054 2.054 0 0 0 .882-2.582v-.006a2.072 2.072 0 0 0-1.232-1.164 2.073 2.073 0 0 0-1.688.144 20 20 0 0 0-9.015 24.427 20 20 0 0 0 22.768 12.633 20 20 0 0 0 15.955-20.577 20 20 0 0 0-17.911-18.907z" class="cls-1" data-name="Path 171" transform="translate(438.741 -477.833)"/>
    <path id="Path_172" d="M-329.3 588.325c.832 2.191 3.555 7.365 5.591 9.568a3.558 3.558 0 0 0 4.871.432 3.451 3.451 0 0 0 1.229-2.492 3.451 3.451 0 0 0-1.006-2.589c-2.13-2.13-7.536-4.951-9.8-5.812a.689.689 0 0 0-.732.16.688.688 0 0 0-.153.733z" class="cls-1" data-name="Path 172" transform="translate(341.743 -574.972)"/>
</svg>
