<svg xmlns="http://www.w3.org/2000/svg" width="35.627" height="45.743" viewBox="0 0 35.627 45.743">
  <defs>
    <style>
      .cls-1 {
        fill: none;
        stroke-linecap: round;
        stroke-linejoin: round;
        stroke-miterlimit: 10;
      }

      .cls-2 {
        fill: #d82a2a;
      }

      .cls-3 {
        fill: #fff;
        font-size: 17px;
        font-family: DBHeavent-Med, DB Heavent;
      }

      .cls-4, .cls-5 {
        stroke: none;
      }

      .cls-5 {
        fill: #0f0f0f;
      }
    </style>
  </defs>
  <g id="Group_514" data-name="Group 514" transform="translate(2.4)">
    <g id="Icon_Notification" data-name="Icon / Notification" transform="translate(0 9.959)">
      <g id="Shape" class="cls-1" transform="translate(0 0)">
        <path class="cls-4" d="M14.188,33.384a3.342,3.342,0,0,1-3.338-3.339h6.676A3.343,3.343,0,0,1,14.188,33.384Zm14.189-5.008H0v-1.67l3.339-3.338V14.188A10.642,10.642,0,0,1,5.7,7.428a11.048,11.048,0,0,1,5.988-3.756V2.5a2.5,2.5,0,0,1,5.008,0V3.672A11.051,11.051,0,0,1,22.68,7.428a10.641,10.641,0,0,1,2.358,6.76v9.181l3.339,3.338v1.669Z"/>
        <path class="cls-5" d="M 14.18783283233643 33.38449859619141 C 16.02824401855469 33.38449859619141 17.52666282653809 31.8873291015625 17.52666282653809 30.04567909240723 L 10.85025310516357 30.04567909240723 C 10.85025310516357 31.88670921325684 12.34749317169189 33.38449859619141 14.18783283233643 33.38449859619141 M 28.37692260742188 28.37689018249512 L 28.37692260742188 28.3754997253418 L 28.37692260742188 26.70685005187988 L 25.03809356689453 23.3692798614502 L 25.03809356689453 14.187819480896 C 25.03809356689453 11.67720890045166 24.2227725982666 9.339699745178223 22.68028259277344 7.428009510040283 C 21.18797302246094 5.578509330749512 19.06079292297363 4.244049072265625 16.69164276123047 3.671829223632812 L 16.69164276123047 2.503809213638306 C 16.69164276123047 1.169999241828918 15.52164363861084 -7.019042982392421e-07 14.18783283233643 -7.019042982392421e-07 C 12.85403347015381 -7.019042982392421e-07 11.68402290344238 1.169999241828918 11.68402290344238 2.503809213638306 L 11.68402290344238 3.671829223632812 C 9.315423011779785 4.244059085845947 7.189002990722656 5.578039169311523 5.696473121643066 7.428009510040283 C 4.154083251953125 9.339778900146484 3.338833093643188 11.67728900909424 3.338833093643188 14.187819480896 L 3.338833093643188 23.3692798614502 L 3.211059492969071e-06 26.70685005187988 L 3.211059492969071e-06 28.37689018249512 L 28.37553405761719 28.37689018249512 L 28.37692260742188 28.37689018249512 M 14.18783283233643 35.78450012207031 C 11.27167415618896 35.78450012207031 8.856683731079102 33.59738159179688 8.496603012084961 30.77688980102539 L 3.211059492969071e-06 30.77688980102539 C -1.325476765632629 30.77688980102539 -2.399996757507324 29.70236968994141 -2.399996757507324 28.37689018249512 L -2.399996757507324 26.70685005187988 C -2.399996757507324 26.07016944885254 -2.147016763687134 25.4595890045166 -1.696736812591553 25.00946998596191 L 0.9388332366943359 22.37489318847656 L 0.9388332366943359 14.187819480896 C 0.9388332366943359 11.12287902832031 1.938093185424805 8.264259338378906 3.828583240509033 5.921029090881348 C 5.262413501739502 4.14381217956543 7.170859813690186 2.75764799118042 9.321784019470215 1.908429384231567 C 9.626054763793945 -0.4813379943370819 11.73070812225342 -2.400000810623169 14.18783283233643 -2.400000810623169 C 16.64479637145996 -2.400000810623169 18.74937629699707 -0.4812556207180023 19.05386543273926 1.908291816711426 C 21.20516777038574 2.757485151290894 23.11411285400391 4.143720149993896 24.54809379577637 5.920929431915283 C 26.43874359130859 8.264119148254395 27.4380931854248 11.12275886535645 27.4380931854248 14.187819480896 L 27.4380931854248 22.37489318847656 L 30.07366371154785 25.00946998596191 C 30.5239429473877 25.4595890045166 30.77692413330078 26.07016944885254 30.77692413330078 26.70685005187988 L 30.77692413330078 28.3754997253418 C 30.77692413330078 29.70097923278809 29.7024040222168 30.77688980102539 28.37692260742188 30.77688980102539 L 28.37553405761719 30.77688980102539 L 19.88030433654785 30.77688980102539 C 19.52014350891113 33.59738159179688 17.10462760925293 35.78450012207031 14.18783283233643 35.78450012207031 Z"/>
      </g>
    </g>
    <circle id="Ellipse_14" data-name="Ellipse 14" class="cls-2" cx="7.928" cy="7.928" r="7.928" transform="translate(17.371 2.312)"/>
    <text id="_4" data-name="4" class="cls-3" transform="translate(22.034 14)"><tspan x="0" y="0">4</tspan></text>
  </g>
</svg>
