<svg xmlns="http://www.w3.org/2000/svg" id="Icon_Select_Blue" width="33.195" height="33.195" data-name="Icon/Select/Blue" viewBox="0 0 33.195 33.195">
    <g id="Group_86" data-name="Group 86">
        <g id="Group_85" data-name="Group 85">
            <g id="Group_84" data-name="Group 84">
                <path id="Path_113" fill="#23c197" d="M15.653 32.25a16.6 16.6 0 1 1 16.6-16.6 16.616 16.616 0 0 1-16.6 16.6z" data-name="Path 113" transform="translate(.945 .945)"/>
            </g>
        </g>
    </g>
    <g id="Group_87" data-name="Group 87" transform="translate(10.473 10.047)">
        <path id="Path_114" fill="#fff" d="M91.224 96.363a1.452 1.452 0 0 1-1.026-.425l-2.428-2.427a1.452 1.452 0 0 1 2.053-2.053l1.244 1.242 6.278-8.37a1.452 1.452 0 1 1 2.322 1.742l-7.282 9.709a1.451 1.451 0 0 1-1.058.577q-.052.005-.103.005z" data-name="Path 114" transform="translate(-87.345 -83.751)"/>
    </g>
</svg>
