<?xml version="1.0" encoding="utf-8"?>
<!-- Generator: Adobe Illustrator 25.2.1, SVG Export Plug-In . SVG Version: 6.00 Build 0)  -->
<svg version="1.1" id="Layer_1" xmlns="http://www.w3.org/2000/svg" xmlns:xlink="http://www.w3.org/1999/xlink" x="0px" y="0px"
	 viewBox="0 0 2192 1080" style="enable-background:new 0 0 2192 1080;" xml:space="preserve">
<style type="text/css">
	.st0{fill:#333;}
	.st1{fill:url(#SVGID_1_);}
	.st2{fill:#333;}
</style>
<g>
	<g>
		<g>
			<path class="st0" d="M60.19,416.7c0,0,57.83,30.13,92.55,47.55c25.93,13.01,118.32,50.63,125.97,88.49s-23.2,81.04-23.2,81.04
				s21.3-36.88-3.26-72.71s-98.91-43.36-98.91-43.36S83.64,508.95,60.19,416.7z"/>
			<path class="st0" d="M120.82,512.71c0,0,9.48,7.44,20.66,11.93c11.18,4.49,104.32,16.96,110.88,60.11s-7.55,78.42-86.14,126.01
				c0,0,92.18-61.53,69.16-110.24S124.53,577.82,120.82,512.71z"/>
			<path class="st0" d="M285.92,460.99c0,0,10.36-75.97,63.3-96.68c52.95-20.72,90.35-5.18,122-23.02
				c23.66-13.34,63.3-37.98,63.3-37.98s-70.21,49.49-67.91,101.29c2.3,51.79,34.53,127.76-8.06,172.65s-97.26,63.88-166.89,29.93
				c0,0,37.41-42.01,32.8-82.3C319.87,484.59,285.92,460.99,285.92,460.99z"/>
			<path class="st0" d="M410.23,630.19c0,0-25.99,60.74-100.14,75.97c-72.07,14.8-91.36,31.67-139.57,63.01
				c0,0,14.46-16.87,31.34-69.91c0,0,79.46-57.55,84.06-84.03C285.92,615.23,319.3,657.81,410.23,630.19z"/>
			<path class="st0" d="M117.48,747.01c0,0,47.88,2.79,67.67-27.96c0,0-3.73,28.02-28.19,36.43
				C132.51,763.9,121.08,750.46,117.48,747.01z"/>
			<path class="st0" d="M85.92,760.35c0,0,67.67,4.72,94.65-30.26c0,0-4.39,32.33-38.65,41.31
				C107.66,780.37,91.11,764.45,85.92,760.35z"/>
			<path class="st0" d="M126.84,737.6c0,0,47.95-0.9,65.32-33.08c0,0-1.56,28.22-25.3,38.49S130.69,740.77,126.84,737.6z"/>
		</g>
		<path class="st0" d="M9,115.86L286.23,484.7c0,0,53.04,53.04,0,108.48c0,0,33.75-53.04-49.42-97.63
			c-65.62-35.19-155.49-22.9-177.19-78.35c-17.06-43.59-49.42-297.72-49.42-297.72"/>
	</g>
	<linearGradient id="SVGID_1_" gradientUnits="userSpaceOnUse" x1="396.195" y1="335.3311" x2="535.3702" y2="335.3311">
		<stop  offset="0" style="stop-color:#333"/>
		<stop  offset="1" style="stop-color:#333"/>
	</linearGradient>
	<path class="st1" d="M535.37,303.74c0,0-39.64,24.64-63.3,37.98c-21.58,12.16-45.84,8.82-75.87,12.02
		c26.2,7.23,53.51,10.97,81.14,13.18C496.2,331.36,535.37,303.74,535.37,303.74z"/>
	<g>
		<path class="st0" d="M417.57,801.52c5.22,1.6,9.52,4.64,12.93,9.13c3.4,4.49,5.11,10.29,5.11,17.38c0,5.94-0.91,11.77-2.72,17.49
			c-1.81,5.72-5.22,10.86-10.21,15.43c-5,4.56-11.84,8.26-20.53,11.08c-8.69,2.82-19.99,4.24-33.9,4.24H240.48l15.64-88.44h128.63
			c3.77,0,7.1-0.83,10-2.5c2.9-1.66,4.35-4.67,4.35-9.02c0-2.9-1.12-4.89-3.37-5.97c-2.25-1.09-4.82-1.63-7.71-1.63H259.38
			l37.37-37.81h96.26c15.79,0,28.14,2.86,37.05,8.58c8.91,5.72,13.36,14.23,13.36,25.53c0,5.22-0.76,9.85-2.28,13.91
			c-1.52,4.06-3.51,7.6-5.98,10.65c-2.46,3.04-5.21,5.54-8.26,7.5C423.87,799.02,420.75,800.51,417.57,801.52z M295.67,818.9
			l-3.48,19.99h82.79c5.5,0,9.56-1.01,12.17-3.04c2.61-2.03,3.91-4.92,3.91-8.69c0-5.5-4.2-8.26-12.6-8.26H295.67z"/>
		<path class="st0" d="M495.57,876.27h-44.98l25.86-145.37h44.76L495.57,876.27z"/>
		<path class="st0" d="M729.8,876.27h-60.19l-25.64-38.46h-69.1l-6.74,38.46h-44.98l13.04-74.31h126.46c3.76,0,7.35-0.43,10.76-1.3
			c3.4-0.87,6.37-2.1,8.91-3.69c2.53-1.59,4.56-3.59,6.08-5.97c1.52-2.39,2.28-5.03,2.28-7.93c0-4.78-1.95-8.37-5.87-10.76
			c-3.91-2.39-9.34-3.59-16.3-3.59H542.07l36.07-37.81h93.43c7.53,0,15.24,0.65,23.14,1.96c7.89,1.3,15.06,3.66,21.51,7.06
			c6.44,3.41,11.7,7.93,15.75,13.58c4.05,5.65,6.08,12.82,6.08,21.51c0,6.52-1.12,12.75-3.37,18.69c-2.25,5.94-5.43,11.3-9.56,16.08
			c-4.13,4.78-9.09,8.84-14.88,12.17c-5.8,3.33-12.17,5.65-19.12,6.95c2.03,1.88,4.31,4.27,6.84,7.17c2.53,2.9,5.83,6.88,9.89,11.95
			L729.8,876.27z"/>
		<path class="st0" d="M944.92,792.61c0,11.73-2.68,22.67-8.04,32.81c-5.36,10.14-12.68,18.98-21.95,26.51
			c-9.27,7.53-20.07,13.47-32.38,17.82c-12.31,4.35-25.42,6.52-39.33,6.52h-97.35l16.08-90.61h44.98l-9.34,53.24h52.15
			c6.95,0,13.43-0.94,19.45-2.82c6.01-1.88,11.23-4.56,15.64-8.04c4.42-3.48,7.93-7.64,10.54-12.49c2.61-4.85,3.91-10.18,3.91-15.97
			c0-4.49-0.91-8.62-2.72-12.38c-1.81-3.76-4.35-7.02-7.6-9.78c-3.26-2.75-7.17-4.89-11.73-6.41s-9.6-2.28-15.1-2.28h-97.35
			l35.42-37.81h68.66c11.44,0,21.84,1.52,31.18,4.56c9.34,3.04,17.35,7.28,24.01,12.71c6.66,5.43,11.8,11.92,15.43,19.45
			C943.1,775.16,944.92,783.48,944.92,792.61z"/>
	</g>
</g>
<g>
	<g>
		<path class="st2" d="M1146.38,842.46v31.58h-96.56v-141.7h95.35v31.38h-62.15v23.69h47.98v29.55h-47.98v25.51H1146.38z"/>
		<path class="st2" d="M1270.28,830.11l-2.63,2.63c-0.81,1.42-1.62,3.24-2.63,5.26s-2.02,4.05-3.04,6.07s-1.82,3.64-2.43,4.86
			l-15.18,25.1h-39.47l44.74-72.68l-42.11-68.83h39.27l15.59,27.73c0.61,1.01,1.21,2.43,2.02,4.05c0.81,1.62,1.62,3.24,2.43,4.66
			c0.81,1.42,1.42,2.63,2.02,3.85l0.81,1.62h0.2l0.81-1.82c0.61-1.22,1.22-2.63,2.02-4.05l2.43-4.66l2.02-4.05l15.59-27.73h39.27
			l-42.31,68.83l44.74,72.88h-39.27l-15.18-25.3c-0.61-1.22-1.42-2.84-2.43-4.86c-1.01-2.02-2.02-4.05-3.04-6.07
			c-1.01-2.02-2.02-3.85-2.83-5.26l-1.22-2.23H1270.28z"/>
		<path class="st2" d="M1440.23,732.54l-0.2,0.2c8.1,0,15.38,1.01,21.86,3.24c6.48,2.23,12.15,5.47,16.8,9.51
			c4.66,4.05,8.1,9.11,10.53,15.18c2.43,6.07,3.64,12.75,3.64,20.24c0,7.49-1.22,14.17-3.64,20.24
			c-2.43,6.07-5.87,11.13-10.53,15.39c-4.66,4.25-10.12,7.49-16.6,9.72c-6.48,2.23-13.77,3.24-21.86,3.24h-17.41v44.53h-33.2v-141.5
			H1440.23z M1439.42,797.93v0.2c6.07,0,10.73-1.42,14.17-4.45c3.44-3.04,5.06-7.29,5.06-12.75c0-5.47-1.62-9.72-5.06-12.75
			c-3.44-3.04-8.1-4.66-14.17-4.66h-16.6v34.41H1439.42z"/>
		<path class="st2" d="M1630.43,874.24l-24.29-45.95h-14.98v46.16h-33.2v-141.5h50.2c8.1,0,15.59,1.22,22.27,3.44
			c6.68,2.23,12.35,5.47,17,9.72c4.66,4.25,8.3,9.31,10.93,15.18c2.63,5.87,3.85,12.55,3.85,19.84c0,9.51-2.02,17.61-6.27,24.49
			c-4.25,6.88-10.12,12.14-17.82,15.99l29.56,52.63H1630.43z M1591.36,797.93l20.24,0.41c2.83,0,5.26-0.61,7.29-1.62
			c2.02-1.01,3.64-2.43,4.86-4.05c1.22-1.62,2.23-3.44,2.84-5.47c0.61-2.02,1.01-4.05,1.01-6.28c0-2.23-0.41-4.25-1.01-6.27
			c-0.61-2.02-1.62-3.84-2.84-5.47c-1.21-1.62-2.83-3.04-4.86-4.05c-2.02-1.01-4.45-1.62-7.29-1.62h-20.24V797.93z"/>
		<path class="st2" d="M1832.68,842.46v31.58h-96.56v-141.7h95.35v31.38h-62.15v23.69h47.98v29.55h-47.98v25.51H1832.68z"/>
		<path class="st2" d="M1978.44,776.67l-0.61,0.81c-1.82-6.27-4.86-10.93-9.31-13.97c-4.45-3.04-8.91-4.45-13.56-4.45
			c-4.66,0-8.3,1.01-10.93,3.04c-2.63,2.02-3.85,4.45-3.85,7.29c0,2.23,0.81,4.05,2.23,5.67c1.42,1.62,3.44,3.24,6.07,4.66
			c2.63,1.42,5.87,3.04,9.51,4.65c3.64,1.62,7.69,3.44,11.94,5.26c4.66,2.02,9.51,4.25,14.37,6.88c4.86,2.63,9.11,5.67,12.96,9.11
			c3.85,3.44,7.08,7.49,9.51,11.94c2.43,4.45,3.64,9.72,3.64,15.59c0,6.27-1.21,12.15-3.64,17.41c-2.43,5.26-5.87,9.92-10.53,13.76
			c-4.66,3.84-10.12,6.88-16.6,9.11c-6.48,2.02-13.56,3.04-21.26,3.04c-7.49,0-14.37-1.01-20.45-2.84
			c-6.07-2.02-11.54-5.06-16.2-8.91c-4.66-3.84-8.7-8.3-12.15-13.56c-3.44-5.26-6.07-11.13-8.1-17.41l31.78-8.5
			c0.81,2.84,2.02,5.47,3.64,8.1c1.62,2.63,3.44,4.86,5.67,6.88c2.23,2.02,4.86,3.65,7.69,4.86c2.83,1.21,6.07,1.82,9.51,1.82
			c5.26,0,9.31-1.22,12.15-3.44c2.84-2.23,4.25-5.06,4.25-8.5c0-2.63-0.81-4.86-2.43-6.68c-1.62-1.82-3.85-3.64-6.88-5.26
			c-3.04-1.62-6.48-3.24-10.53-4.66c-4.05-1.42-8.3-3.04-12.96-5.26c-4.45-2.02-8.91-4.66-13.36-7.09c-4.45-2.43-8.3-5.26-11.74-8.5
			c-3.44-3.24-6.27-7.09-8.3-11.54c-2.02-4.45-3.04-9.72-3.04-15.79c0-5.06,1.21-10.12,3.64-14.98c2.43-4.86,5.87-9.31,10.33-13.16
			c4.45-3.84,9.72-6.88,15.79-9.11c6.07-2.23,12.96-3.44,20.45-3.44c6.48,0,12.55,1.01,18.22,3.04c5.67,2.02,10.73,4.66,15.39,8.1
			c4.66,3.44,8.7,7.49,11.94,12.15c3.24,4.66,5.67,9.72,7.29,15.18L1978.44,776.67z"/>
		<path class="st2" d="M2150.02,776.67l-0.61,0.81c-1.82-6.27-4.86-10.93-9.31-13.97c-4.45-3.04-8.91-4.45-13.56-4.45
			s-8.3,1.01-10.93,3.04c-2.63,2.02-3.85,4.45-3.85,7.29c0,2.23,0.81,4.05,2.23,5.67c1.42,1.62,3.44,3.24,6.07,4.66
			s5.87,3.04,9.51,4.65c3.65,1.62,7.69,3.44,11.95,5.26c4.66,2.02,9.51,4.25,14.37,6.88c4.86,2.63,9.11,5.67,12.96,9.11
			c3.84,3.44,7.08,7.49,9.51,11.94c2.43,4.45,3.64,9.72,3.64,15.59c0,6.27-1.22,12.15-3.64,17.41c-2.43,5.26-5.87,9.92-10.53,13.76
			c-4.66,3.84-10.12,6.88-16.6,9.11c-6.48,2.02-13.56,3.04-21.26,3.04c-7.49,0-14.37-1.01-20.45-2.84
			c-6.07-2.02-11.54-5.06-16.2-8.91c-4.66-3.84-8.71-8.3-12.15-13.56c-3.44-5.26-6.07-11.13-8.1-17.41l31.78-8.5
			c0.81,2.84,2.02,5.47,3.64,8.1c1.62,2.63,3.44,4.86,5.67,6.88c2.23,2.02,4.86,3.65,7.69,4.86c2.83,1.21,6.07,1.82,9.51,1.82
			c5.26,0,9.31-1.22,12.15-3.44c2.83-2.23,4.25-5.06,4.25-8.5c0-2.63-0.81-4.86-2.43-6.68c-1.62-1.82-3.84-3.64-6.88-5.26
			c-3.04-1.62-6.48-3.24-10.53-4.66c-4.05-1.42-8.3-3.04-12.96-5.26c-4.45-2.02-8.91-4.66-13.36-7.09c-4.45-2.43-8.3-5.26-11.74-8.5
			c-3.44-3.24-6.27-7.09-8.3-11.54c-2.02-4.45-3.04-9.72-3.04-15.79c0-5.06,1.21-10.12,3.64-14.98c2.43-4.86,5.87-9.31,10.32-13.16
			c4.45-3.84,9.72-6.88,15.79-9.11c6.07-2.23,12.96-3.44,20.45-3.44c6.48,0,12.55,1.01,18.22,3.04c5.67,2.02,10.73,4.66,15.38,8.1
			c4.66,3.44,8.71,7.49,11.95,12.15c3.24,4.66,5.67,9.72,7.29,15.18L2150.02,776.67z"/>
	</g>
</g>
</svg>
