<svg id="Group_11" data-name="Group 11" xmlns="http://www.w3.org/2000/svg" xmlns:xlink="http://www.w3.org/1999/xlink" width="297.498" height="71.25" viewBox="0 0 297.498 71.25">
  <defs>
    <style>
      .cls-1 {
        fill: #666;
      }

      .cls-2 {
        fill: #5e3a77;
      }

      .cls-3 {
        fill: url(#linear-gradient);
      }

      .cls-4 {
        fill: url(#linear-gradient-2);
      }

      .cls-5 {
        fill: url(#linear-gradient-3);
      }

      .cls-6 {
        fill: url(#linear-gradient-4);
      }

      .cls-7 {
        fill: url(#linear-gradient-6);
      }

      .cls-8 {
        fill: #f8f8ff;
      }

      .cls-9 {
        fill: #fff;
      }
    </style>
    <linearGradient id="linear-gradient" x1="0.5" x2="0.5" y2="1" gradientUnits="objectBoundingBox">
      <stop offset="0" stop-color="#c75ba1"/>
      <stop offset="1" stop-color="#42294f"/>
    </linearGradient>
    <linearGradient id="linear-gradient-2" x1="0.5" y1="0" x2="0.5" y2="1" xlink:href="#linear-gradient"/>
    <linearGradient id="linear-gradient-3" x1="0.5" y1="0" x2="0.5" y2="1" xlink:href="#linear-gradient"/>
    <linearGradient id="linear-gradient-4" x1="0.5" y1="0" x2="0.5" y2="1" xlink:href="#linear-gradient"/>
    <linearGradient id="linear-gradient-6" x1="0.5" y1="0" x2="0.5" y2="1" xlink:href="#linear-gradient"/>
  </defs>
  <g id="Group_1" data-name="Group 1" transform="translate(88.424 23.751)">
    <path id="Path_1" data-name="Path 1" class="cls-1" d="M97.606,93a13.6,13.6,0,0,1-3.375-1.035v-3.7a16.022,16.022,0,0,0,3.562,1.221,17.11,17.11,0,0,0,3.662.409,5.91,5.91,0,0,0,3.459-.849,2.714,2.714,0,0,0,1.189-2.34,2.758,2.758,0,0,0-.544-1.747,4.574,4.574,0,0,0-1.594-1.221q-1.052-.526-3.223-1.372a13.076,13.076,0,0,1-4.815-3.021,5.956,5.956,0,0,1-1.493-4.138,5.8,5.8,0,0,1,1.05-3.426,6.785,6.785,0,0,1,2.951-2.306,11.042,11.042,0,0,1,4.376-.814,18.232,18.232,0,0,1,3.611.322,15.129,15.129,0,0,1,3.1,1v3.594a13.63,13.63,0,0,0-5.97-1.425,6,6,0,0,0-3.358.8,2.564,2.564,0,0,0-1.187,2.256,2.613,2.613,0,0,0,.542,1.714A4.435,4.435,0,0,0,101,78.046q.9.458,3.24,1.442a20.73,20.73,0,0,1,3.748,1.933,6.527,6.527,0,0,1,2.068,2.222,6.4,6.4,0,0,1,.7,3.1,5.825,5.825,0,0,1-2.272,4.9q-2.272,1.747-6.716,1.748A22.312,22.312,0,0,1,97.606,93Z" transform="translate(-94.231 -68.667)"/>
    <path id="Path_2" data-name="Path 2" class="cls-1" d="M106.207,68.939h4.307v9.834h11.4V68.939h4.275V92.646H121.91V82.336h-11.4V92.646h-4.307Z" transform="translate(-83.752 -68.429)"/>
    <path id="Path_3" data-name="Path 3" class="cls-1" d="M126.184,91.851a11.362,11.362,0,0,1-4.511-4.359,13.437,13.437,0,0,1,0-12.889,11.479,11.479,0,0,1,4.511-4.376,13.952,13.952,0,0,1,12.821,0,11.516,11.516,0,0,1,4.511,4.376,13.417,13.417,0,0,1,0,12.872,11.551,11.551,0,0,1-4.511,4.359,13.174,13.174,0,0,1-6.394,1.56A13.349,13.349,0,0,1,126.184,91.851Zm10.566-3.392a7.681,7.681,0,0,0,2.966-2.951,9.572,9.572,0,0,0,.017-8.887,7.684,7.684,0,0,0-2.949-2.968,8.367,8.367,0,0,0-4.172-1.05,8.464,8.464,0,0,0-4.191,1.05,7.655,7.655,0,0,0-2.968,2.968,9.579,9.579,0,0,0,.019,8.887,7.635,7.635,0,0,0,2.983,2.951,8.49,8.49,0,0,0,4.157,1.033A8.392,8.392,0,0,0,136.75,88.459Z" transform="translate(-71.66 -68.667)"/>
    <path id="Path_4" data-name="Path 4" class="cls-1" d="M136.6,68.939h9.5a9.137,9.137,0,0,1,6.257,2.068,7.151,7.151,0,0,1,2.359,5.664,6.973,6.973,0,0,1-2.34,5.681,9.544,9.544,0,0,1-6.309,1.95H140.9v8.344H136.6Zm8.953,11.8q4.852,0,4.851-4.071,0-4.174-4.851-4.172H140.9v8.243Z" transform="translate(-57.16 -68.429)"/>
    <path id="Path_5" data-name="Path 5" class="cls-1" d="M155.043,72.5h-7.157V68.939h18.621V72.5H159.35V92.646h-4.307Z" transform="translate(-47.283 -68.429)"/>
    <path id="Path_6" data-name="Path 6" class="cls-1" d="M160.621,68.939h16.044V72.5H164.93v6.512h8.717v3.563H164.93v6.512h11.736v3.561H160.621Z" transform="translate(-36.14 -68.429)"/>
    <path id="Path_7" data-name="Path 7" class="cls-1" d="M172.163,68.939h16.043V72.5H176.47v6.512h8.717v3.563H176.47v6.512h11.736v3.561H172.163Z" transform="translate(-26.04 -68.429)"/>
    <path id="Path_8" data-name="Path 8" class="cls-1" d="M183.7,68.939h4.071l11.091,16.517V68.939h4.307V92.646H199.1L188.011,76.094V92.646H183.7Z" transform="translate(-15.942 -68.429)"/>
    <path id="Path_9" data-name="Path 9" class="cls-1" d="M197.615,68.939h4.307V92.646h-4.307Z" transform="translate(-3.77 -68.429)"/>
    <path id="Path_10" data-name="Path 10" class="cls-1" d="M203.44,68.939h4.307V92.646H203.44Z" transform="translate(1.327 -68.429)"/>
  </g>
  <g id="Group_2" data-name="Group 2" transform="translate(22.178 12.489)">
    <path id="Path_11" data-name="Path 11" class="cls-2" d="M58.9,62.661" transform="translate(-58.9 -62.661)"/>
    <path id="Path_12" data-name="Path 12" class="cls-2" d="M71.955,63.093" transform="translate(-47.477 -62.283)"/>
  </g>
  <g id="Group_9" data-name="Group 9">
    <g id="Group_3" data-name="Group 3" transform="translate(62.809 61.263)">
      <path id="Path_13" data-name="Path 13" class="cls-3" d="M81.084,98.036c2.034-1.08,3.488-2.852,5.188-4.284,1.851-1.556,4.119-2.764,5.7-4.575.112-.129-.268-.559-.458-.5-2.428.789-4.2,2.437-6.03,3.879s-3.836,2.854-4.911,4.989c-.075.148.36.564.506.488Z" transform="translate(-80.569 -88.674)"/>
    </g>
    <g id="Group_8" data-name="Group 8">
      <g id="Group_4" data-name="Group 4" transform="translate(69.073 3.618)">
        <path id="Path_14" data-name="Path 14" class="cls-4" d="M84.9,58.526c-1.217,9.03-1.029,18.429-.894,27.523.143,9.536.454,19.2,1.545,28.676.141,1.217,2.016,1.151,1.92-.094-.709-9.334-1.491-18.6-1.614-27.971-.124-9.345.628-18.667.592-28,0-.87-1.431-1.02-1.549-.133Z" transform="translate(-83.91 -57.93)"/>
      </g>
      <g id="Group_5" data-name="Group 5" transform="translate(64.161 35.01)">
        <path id="Path_15" data-name="Path 15" class="cls-5" d="M82.731,105.855c.482-4.871.058-9.908.056-14.8,0-5.325.533-10.757.161-16.063a.344.344,0,0,0-.677-.058c-.96,5.034-.836,10.38-.909,15.489-.073,5.083-.283,10.457.666,15.467a.368.368,0,0,0,.7-.034Z" transform="translate(-81.291 -74.672)"/>
      </g>
      <g id="Group_6" data-name="Group 6" transform="translate(7.892)">
        <path id="Path_16" data-name="Path 16" class="cls-6" d="M113.591,58.449c-4.5-1.119-9.446-1.031-14.059-1.281-5.317-.287-10.643-.488-15.964-.662Q67.945,55.992,52.313,56c-1.479,0-1.3,2.152.109,2.25,5.061.347,10.024,1.481,15.062,1.839,1.153.083,1.089-1.564.163-1.877C62.835,56.591,57.356,56.339,52.313,56l.109,2.25q15.28-.02,30.559.443,7.639.236,15.27.6c4.98.231,10.281.962,15.236.382a.622.622,0,0,0,.105-1.223Z" transform="translate(-51.281 -56)"/>
      </g>
      <path id="Path_17" data-name="Path 17" class="cls-3" d="M109.034,61.9a1.4,1.4,0,0,0-1.678-1.672l-12.148-.636L67.268,57.487c-.009.214-.019.428-.03.641l-15.356-.8c-.536,21.887-1.057,44.046-4.714,65.631a2.439,2.439,0,0,0,.33,2.179,2.409,2.409,0,0,0,1.658.473q30.077.9,60.172.126Q109.182,93.815,109.034,61.9Z" transform="translate(-47.071 -54.842)"/>
      <g id="Group_7" data-name="Group 7" transform="translate(51.833 2.146)">
        <path id="Path_18" data-name="Path 18" class="cls-7" d="M84.187,60.492a73.982,73.982,0,0,1-8.093-3.238l-.4,1.809c5.978.137,12.366.909,18.3.244.682-.075.859-1.134.109-1.266-5.961-1.043-12.459-.662-18.5-.9-.981-.037-1.2,1.4-.4,1.811,2.779,1.425,5.633,2.573,8.794,2.391.42-.024.624-.681.188-.855Z" transform="translate(-74.716 -57.145)"/>
      </g>
    </g>
  </g>
  <path id="Path_19" data-name="Path 19" class="cls-8" d="M72.732,69.829V68.517L72.71,70.09a1.513,1.513,0,0,1,.022-.261Z" transform="translate(-24.638 -45.048)"/>
  <path id="Path_20" data-name="Path 20" class="cls-8" d="M72.732,69.829V68.517L72.71,70.09a1.513,1.513,0,0,1,.022-.261Z" transform="translate(-24.638 -45.048)"/>
  <path id="Path_21" data-name="Path 21" class="cls-9" d="M85.485,64.268c-1.14,3.557-4.862,11.966-14.494,11.556-9.617-.409-12.019-9-12.607-12.7a1.923,1.923,0,1,1,2.638-1.7,1.9,1.9,0,0,1-.712,1.4c.471,3.206,2.452,10.676,10.764,11.031,8.207.349,11.454-6.846,12.491-10.031a1.922,1.922,0,1,1,1.92.439Z" transform="translate(-38.236 -53.008)"/>
  <g id="Group_10" data-name="Group 10" transform="translate(7.9 27.898)">
    <circle id="Ellipse_1" data-name="Ellipse 1" class="cls-8" cx="2.297" cy="2.297" r="2.297" transform="translate(34.777 26.625)"/>
    <circle id="Ellipse_2" data-name="Ellipse 2" class="cls-8" cx="2.297" cy="2.297" r="2.297" transform="translate(5.289 26.625)"/>
    <path id="Path_22" data-name="Path 22" class="cls-8" d="M73.051,72.332V71.018l-.024,1.575a1.5,1.5,0,0,1,.024-.261Z" transform="translate(-32.261 -70.757)"/>
    <path id="Path_23" data-name="Path 23" class="cls-8" d="M100.489,70.879l-3.375.021-3.377-.021a1.825,1.825,0,0,0-1.607,1.772l.114,18.576L83.919,79.538a1.571,1.571,0,0,0-.936-.628c-.043-.009-.086-.017-.129-.024l-.1-.009c-.032,0-.06-.009-.092-.009l-6.315,0H58.933a6.589,6.589,0,0,0-2.286.369,4.836,4.836,0,0,0-1.68,1.013,4.141,4.141,0,0,0-1.024,1.536,5.334,5.334,0,0,0-.345,1.941,5.167,5.167,0,0,0,.369,1.978,4.5,4.5,0,0,0,1.048,1.56,4.755,4.755,0,0,0,1.667,1.024,6.264,6.264,0,0,0,2.2.369h7.956a2.8,2.8,0,0,1,1.869.559,2.094,2.094,0,0,1,.654,1.68,2.159,2.159,0,0,1-.654,1.643,2.622,2.622,0,0,1-1.869.621H52.8a1.512,1.512,0,0,0,0,3.024H66.842c.233,0,.458-.009.675-.026.217.017.443.026.675.026h25.3a1.49,1.49,0,0,0,.45-.077,1.737,1.737,0,0,0,1.341-1.614V74.035h5.237v0a1.577,1.577,0,0,0-.034-3.154ZM83.216,83.4q1.583,2.723,3.066,4.789l3.694,5.229H83.293v-5.1q0-1.741-.154-4.916ZM66.842,86.11H58.911a2.226,2.226,0,0,1-1.584-.548,2.02,2.02,0,0,1-.583-1.549,2.077,2.077,0,0,1,.572-1.56,2.216,2.216,0,0,1,1.618-.561H73.509a1.318,1.318,0,0,1,.412.956l0,10.569H71.771c.041-.094.084-.186.118-.283a5.936,5.936,0,0,0,.334-2.025,4.826,4.826,0,0,0-1.369-3.763A5.8,5.8,0,0,0,66.842,86.11Zm10.268,7.309,0-10.571a1.329,1.329,0,0,1,1.331-1.326h1.7v11.9Z" transform="translate(-51.285 -70.879)"/>
  </g>
</svg>
