<svg width="230" height="32" viewBox="0 0 230 32" fill="none" xmlns="http://www.w3.org/2000/svg">
<g clip-path="url(#clip0_2945:15485)">
<path d="M0.935791 11.1038C0.935791 10.9042 0.991558 10.7427 1.10309 10.6239C1.21463 10.5051 1.38193 10.4434 1.61007 10.4434H11.5265C12.581 10.4434 13.5696 10.6287 14.4873 10.9993C15.41 11.3699 16.211 11.8687 16.8954 12.5007C17.5798 13.1326 18.1223 13.8738 18.5127 14.7243C18.9081 15.5748 19.1058 16.4775 19.1058 17.4373C19.1058 18.0882 19.0095 18.7106 18.8219 19.2998C18.6343 19.8889 18.3707 20.4401 18.031 20.9532C17.6914 21.4664 17.2909 21.932 16.8244 22.3501C16.358 22.7682 15.851 23.1246 15.2984 23.4239L19.2427 30.3893C19.3137 30.5224 19.405 30.6839 19.5216 30.8644C19.6331 31.045 19.6889 31.2065 19.6889 31.3396C19.6889 31.4916 19.6331 31.6104 19.5266 31.6912C19.4202 31.7719 19.2731 31.8147 19.0906 31.8147H13.8333C13.6609 31.8147 13.5037 31.7672 13.3669 31.6722C13.23 31.5771 13.1387 31.4489 13.0982 31.2826L9.36681 24.7068H6.87756V31.197C6.87756 31.6104 6.64435 31.8147 6.17286 31.8147H1.61007C1.40728 31.8147 1.23998 31.7624 1.1183 31.6627C0.996628 31.5534 0.935791 31.4013 0.935791 31.1875V11.1038ZM12.9562 17.4895C12.9562 17.1997 12.9004 16.9146 12.7889 16.6248C12.6774 16.335 12.5151 16.0736 12.3123 15.8313C12.1096 15.5938 11.8611 15.3895 11.5772 15.2279C11.2883 15.0664 10.9739 14.9618 10.6241 14.9096C10.3351 14.8906 10.0664 14.8716 9.81802 14.8573C9.5696 14.8431 9.29584 14.8336 8.99672 14.8336H6.87756V20.1123H9.70142C9.88393 20.1123 10.0512 20.1075 10.1932 20.098C10.3351 20.0885 10.4974 20.0742 10.6697 20.0552C11.0297 20.0172 11.3491 19.9175 11.6381 19.7607C11.927 19.6039 12.1653 19.4043 12.358 19.1715C12.5506 18.9387 12.7027 18.6726 12.8041 18.378C12.9055 18.0977 12.9562 17.7984 12.9562 17.4895Z" fill="#333333"/>
<path d="M26.3454 11.1038C26.3454 10.9042 26.4062 10.7427 26.5228 10.6239C26.6394 10.5051 26.8068 10.4434 27.0197 10.4434H42.2493C42.4723 10.4434 42.6498 10.5051 42.7714 10.6287C42.8931 10.7522 42.954 10.9185 42.954 11.1323V14.691C42.954 14.8526 42.8931 15.0094 42.7714 15.1566C42.6498 15.3039 42.4673 15.38 42.2341 15.38H32.2821V18.9482H39.9577C40.1504 18.9482 40.3126 18.9909 40.4394 19.0765C40.5661 19.162 40.632 19.3045 40.632 19.5088V22.6162C40.632 22.7492 40.5762 22.8823 40.4647 23.0058C40.3532 23.1293 40.1859 23.1911 39.9729 23.1911H32.2821V26.8734H42.5991C43.0604 26.8734 43.2886 27.0919 43.2886 27.5338V31.1495C43.2886 31.2445 43.248 31.3301 43.1669 31.4061C43.1263 31.6722 42.9185 31.81 42.5382 31.81H27.0146C26.8118 31.81 26.6445 31.7577 26.5228 31.6579C26.4012 31.5581 26.3403 31.4013 26.3403 31.1923V11.1038H26.3454Z" fill="#333333"/>
<path d="M52.2825 11.1038C52.2825 10.9042 52.3433 10.7427 52.4599 10.6239C52.5765 10.5051 52.7438 10.4434 52.9568 10.4434H63.1521C64.0545 10.4434 64.9011 10.6049 65.7021 10.9232C66.4981 11.2463 67.1977 11.6834 67.796 12.2489C68.3942 12.8095 68.8657 13.4652 69.2155 14.2206C69.5653 14.9761 69.7377 15.7838 69.7377 16.6438C69.7377 17.3613 69.616 18.0312 69.3777 18.6489C69.1394 19.2665 68.7947 19.8224 68.3587 20.3118C69.0938 20.9437 69.6768 21.6992 70.1078 22.5687C70.5387 23.4429 70.7516 24.3694 70.7516 25.3434C70.7516 26.2177 70.5742 27.0444 70.2142 27.8236C69.8543 28.6076 69.3727 29.2918 68.7643 29.8809C68.1559 30.4701 67.4461 30.9405 66.6299 31.2826C65.8188 31.6294 64.9569 31.8005 64.0595 31.8005H52.9618C52.759 31.8005 52.5917 31.7482 52.4701 31.6484C52.3484 31.5486 52.2875 31.3918 52.2875 31.1828V11.1038H52.2825ZM63.8415 16.7721C63.8415 16.4823 63.7858 16.2162 63.6742 15.9644C63.5627 15.7173 63.4005 15.494 63.1977 15.3039C62.9898 15.1139 62.7465 14.9618 62.4575 14.8526C62.1685 14.7433 61.8593 14.6863 61.5196 14.6863H58.2242V18.8579H61.474C61.8238 18.8579 62.1432 18.8056 62.4372 18.7059C62.7313 18.6061 62.9797 18.4636 63.1825 18.2735C63.3853 18.0882 63.5475 17.8649 63.6692 17.6131C63.7858 17.3613 63.8415 17.0809 63.8415 16.7721ZM64.6578 25.1296C64.6578 24.8398 64.5969 24.5547 64.4803 24.2649C64.3637 23.9751 64.1964 23.7185 63.9886 23.4952C63.7756 23.2719 63.5272 23.0866 63.2332 22.9393C62.9391 22.7967 62.6248 22.7255 62.2851 22.7255H58.2242V27.529H62.2851C62.6248 27.529 62.9341 27.4625 63.223 27.3295C63.512 27.1964 63.7604 27.0159 63.9784 26.7878C64.1914 26.5645 64.3587 26.3079 64.4803 26.0181C64.5969 25.733 64.6578 25.4385 64.6578 25.1296Z" fill="#333333"/>
<path d="M108.207 11.1038C108.207 10.9042 108.263 10.7427 108.374 10.6239C108.486 10.5051 108.658 10.4434 108.881 10.4434H118.798C119.852 10.4434 120.841 10.6287 121.758 10.9993C122.681 11.3699 123.482 11.8687 124.167 12.5007C124.851 13.1326 125.393 13.8738 125.784 14.7243C126.179 15.5748 126.377 16.4775 126.377 17.4373C126.377 18.0882 126.281 18.7106 126.093 19.2998C125.905 19.8889 125.642 20.4401 125.302 20.9532C124.962 21.4664 124.562 21.932 124.096 22.3501C123.629 22.7682 123.122 23.1246 122.57 23.4239L126.514 30.3893C126.585 30.5224 126.676 30.6839 126.788 30.8644C126.899 31.045 126.955 31.2065 126.955 31.3396C126.955 31.4916 126.899 31.6104 126.793 31.6912C126.686 31.7719 126.539 31.8147 126.357 31.8147H121.089C120.917 31.8147 120.76 31.7672 120.623 31.6722C120.486 31.5771 120.395 31.4489 120.354 31.2826L116.623 24.7068H114.133V31.197C114.133 31.6104 113.9 31.8147 113.429 31.8147H108.871C108.668 31.8147 108.501 31.7624 108.379 31.6627C108.258 31.5629 108.197 31.4061 108.197 31.197V11.1038H108.207ZM120.227 17.4895C120.227 17.1997 120.172 16.9146 120.06 16.6248C119.948 16.335 119.786 16.0736 119.583 15.8313C119.381 15.5938 119.132 15.3895 118.848 15.2279C118.559 15.0664 118.245 14.9618 117.895 14.9096C117.606 14.8906 117.338 14.8716 117.089 14.8573C116.841 14.8431 116.567 14.8336 116.268 14.8336H114.149V20.1123H116.973C117.155 20.1123 117.322 20.1075 117.464 20.098C117.606 20.0885 117.768 20.0742 117.941 20.0552C118.301 20.0172 118.62 19.9175 118.909 19.7607C119.193 19.6039 119.436 19.4043 119.629 19.1715C119.822 18.9387 119.974 18.6726 120.075 18.378C120.177 18.0977 120.227 17.7984 120.227 17.4895Z" fill="#333333"/>
<path d="M134.326 11.0753C134.326 10.9042 134.382 10.7522 134.494 10.6287C134.605 10.5051 134.773 10.4434 135.001 10.4434H140.02C140.162 10.4434 140.314 10.4766 140.466 10.5431C140.618 10.6097 140.755 10.7237 140.866 10.89C142.164 12.857 143.457 14.7956 144.735 16.7008C146.012 18.6108 147.31 20.5494 148.618 22.5117V10.9898C148.659 10.8187 148.74 10.6809 148.861 10.5859C148.983 10.4909 149.125 10.4434 149.292 10.4434H153.668C153.881 10.4434 154.063 10.5004 154.205 10.6097C154.347 10.7189 154.418 10.8757 154.418 11.0753V31.2445C154.418 31.4346 154.357 31.5771 154.235 31.6674C154.114 31.7577 153.941 31.8052 153.728 31.8052H148.831C148.699 31.8052 148.583 31.7624 148.476 31.6769C148.375 31.5914 148.268 31.4774 148.152 31.3301C146.793 29.2205 145.444 27.1347 144.116 25.0726C142.788 23.0105 141.434 20.9247 140.065 18.8151V31.1733C140.065 31.3823 140.015 31.5439 139.913 31.6484C139.812 31.7529 139.624 31.8052 139.361 31.8052H135.001C134.767 31.8052 134.595 31.7434 134.489 31.6247C134.382 31.5059 134.326 31.3586 134.326 31.1875V11.0753Z" fill="#333333"/>
<path d="M102.063 22.0508C102.007 25.6238 100.663 28.6931 97.9408 31.216C96.9167 32.1615 95.4668 32.2376 94.3058 31.4346C92.8203 30.4036 91.1575 29.8382 89.3019 29.7241C86.8786 29.5721 84.7239 30.1802 82.7822 31.5391C81.824 32.209 80.4298 32.152 79.5426 31.3918C77.1903 29.382 75.8011 26.8781 75.3398 23.937C74.7821 20.3973 75.7048 17.1759 78.0217 14.3584C80.3386 11.5409 83.4261 9.89696 87.2335 9.51685C90.8127 9.1605 94.0472 10.03 96.8711 12.1016C99.8115 14.2586 101.495 17.1237 101.976 20.6016C102.037 21.0815 102.057 21.5614 102.063 22.0508ZM95.2995 22.141C95.3349 18.8104 92.7899 15.7981 88.6226 15.7933C84.8608 15.7886 81.9508 18.3685 81.9558 22.1553C81.9609 25.6855 84.6986 28.3605 88.6581 28.389C92.4046 28.4175 95.2893 25.6903 95.2995 22.141Z" fill="#333333"/>
<path d="M91.9282 4.20016C91.7254 4.23817 91.6088 4.36171 91.4871 4.47574C90.5137 5.34998 89.9713 6.45228 89.5657 7.62585C89.5201 7.76364 89.4846 7.90142 89.4339 8.03921C89.4085 8.11048 89.4035 8.21976 89.2919 8.22451C89.1855 8.22451 89.1702 8.11998 89.1297 8.04871C88.3033 6.65183 88.5061 4.96987 89.6012 3.75829C90.0929 3.21664 90.6658 2.75102 91.1829 2.23788C91.6494 1.77225 92.0651 1.26861 92.42 0.722211C92.5264 0.555916 92.5467 0.375366 92.6177 0.204319C92.6481 0.128299 92.6582 0.0285214 92.7546 0.00476488C92.8762 -0.0189916 92.9219 0.0902883 92.9675 0.161558C93.292 0.684201 93.5961 1.22585 93.8293 1.79125C94.1589 2.58472 94.4276 3.39719 94.5239 4.25718C94.7267 6.04842 93.8395 7.4548 92.0499 8.09623C91.4719 8.30053 90.8788 8.43832 90.2653 8.50959C89.9915 8.54285 89.9307 8.45733 89.9814 8.21976C90.2805 6.80387 90.8433 5.50677 91.8369 4.39021C91.8724 4.3427 91.9383 4.30469 91.9282 4.20016Z" fill="#333333"/>
<path d="M85.8696 5.70633C86.0065 5.70158 86.1028 5.7681 86.2042 5.82036C86.9799 6.24798 87.5071 6.88941 87.9634 7.59735C88.0141 7.67812 88.0648 7.76365 88.1155 7.84917C88.1459 7.89193 88.1662 7.9632 88.2372 7.94895C88.3031 7.93469 88.298 7.86342 88.3132 7.81116C88.6225 6.78488 88.2219 5.72059 87.3094 5.08866C86.9038 4.80359 86.4526 4.58503 86.0369 4.32371C85.6566 4.08614 85.3068 3.82007 84.9874 3.51598C84.8911 3.42571 84.8506 3.30693 84.7745 3.20715C84.7441 3.16439 84.7187 3.09787 84.6528 3.09787C84.5666 3.09787 84.5565 3.17389 84.5413 3.23091C84.4146 3.62051 84.3081 4.01012 84.2422 4.41398C84.156 4.97938 84.1154 5.54004 84.1915 6.11494C84.3486 7.30752 85.1547 8.09624 86.4222 8.25778C86.8278 8.31004 87.2384 8.3148 87.6491 8.27203C87.8316 8.25303 87.8569 8.19126 87.7859 8.04397C87.3652 7.16498 86.7872 6.40002 85.9558 5.81561C85.9253 5.79186 85.8797 5.7776 85.8696 5.70633Z" fill="#333333"/>
</g>
<path d="M162.398 18.868C162.496 20.492 163.924 21.612 165.982 21.612C168.082 21.612 169.468 20.534 169.468 18.826C169.468 17.482 168.614 16.712 166.612 16.278L165.59 16.054C164.064 15.718 163.406 15.186 163.406 14.22C163.406 13.058 164.484 12.288 165.856 12.288C167.424 12.288 168.32 13.212 168.446 14.472H169.258C169.174 12.918 168.068 11.588 165.856 11.588C164.008 11.588 162.552 12.694 162.552 14.276C162.552 15.606 163.364 16.32 165.282 16.768L166.318 17.006C167.956 17.384 168.6 17.916 168.6 18.924C168.6 20.114 167.564 20.898 165.996 20.898C164.428 20.898 163.35 20.072 163.21 18.868H162.398ZM180.067 12.386V11.7H173.921V21.5H180.067V20.814H174.761V16.936H179.409V16.25H174.761V12.386H180.067ZM184.687 21.5H190.497V20.814H185.527V11.7H184.687V21.5ZM194.741 21.5H200.551V20.814H195.581V11.7H194.741V21.5ZM210.942 12.386V11.7H204.796V21.5H210.942V20.814H205.636V16.936H210.284V16.25H205.636V12.386H210.942ZM222.338 21.5L219.706 16.852C221.344 16.74 222.184 15.788 222.184 14.304C222.184 12.526 221.05 11.7 219.132 11.7H215.562V21.5H216.402V16.964H218.894L221.428 21.5H222.338ZM216.402 12.386H218.978C220.518 12.386 221.372 12.918 221.372 14.304C221.372 15.69 220.518 16.278 218.978 16.278H216.402V12.386Z" fill="#333333"/>
<defs>
<clipPath id="clip0_2945:15485">
<rect width="153.487" height="32" fill="white" transform="translate(0.935791)"/>
</clipPath>
</defs>
</svg>
