<?xml version="1.0" encoding="utf-8"?>
<!-- Generator: Adobe Illustrator 26.1.0, SVG Export Plug-In . SVG Version: 6.00 Build 0)  -->
<svg version="1.1" id="Layer_1" xmlns="http://www.w3.org/2000/svg" xmlns:xlink="http://www.w3.org/1999/xlink" x="0px" y="0px"
	 viewBox="0 0 21.7 27.1" style="enable-background:new 0 0 21.7 27.1;" xml:space="preserve">
<style type="text/css">
	.st0{fill:#FF6900;}
</style>
<g id="Group_5411" transform="translate(-80.681 -680.334)">
	<g id="Group_78" transform="translate(80.681 680.334)">
		<path id="Path_122" class="st0" d="M7.9,23.3l5.1-4.1c0,0.8,0,1.4,0,2.1c0,0.4,0.1,0.5,0.5,0.4c4.5-1.4,7.1-6.2,5.7-10.7
			c-0.7-2.3-2.3-4.2-4.4-5.2l-0.4-0.2c0.5-0.5,1-0.9,1.4-1.4c0.2-0.2,0.3,0,0.4,0.1c1.9,1.1,3.4,2.7,4.4,4.6
			C23.2,14,21,20.4,15.7,23c-0.6,0.3-1.3,0.6-2,0.7c-0.5,0.1-0.6,0.3-0.6,0.8c0.1,0.8,0,1.6,0,2.5L7.9,23.3z"/>
		<path id="Path_123" class="st0" d="M7.7,21.5c-0.5,0.5-0.9,0.9-1.3,1.3C6.2,23,6,23,5.9,22.9c-2.9-1.4-5-4-5.6-7.2
			C-1,9.9,2.6,4.3,8.4,3c0,0,0,0,0,0c0.4-0.1,0.5-0.2,0.5-0.6c0-0.8,0-1.6,0-2.4L14,3.8L8.9,7.6c0-0.8,0-1.5,0-2.2
			c0-0.4-0.1-0.5-0.5-0.4c-3.5,1.1-6,4.2-6.3,7.9c-0.2,3.6,2,7,5.3,8.4L7.7,21.5z"/>
		<path id="Path_124" class="st0" d="M8.8,15.1H9c0.8,0,0.8,0,0.9,0.8c0,0.5,0.4,1,0.9,1c0.1,0,0.2,0,0.3,0c0.5-0.1,0.8-0.5,0.7-0.9
			c0-0.1-0.1-0.3-0.2-0.4c-0.2-0.3-0.6-0.6-0.9-0.8c-0.7-0.4-1.4-1-2-1.5C7.8,12.3,7.6,11,8.1,9.9c0.3-0.6,0.8-1,1.4-1.1
			c0.3-0.1,0.4-0.2,0.4-0.5c0-0.8,0-0.8,0.8-0.8c0.3,0,0.7-0.1,1,0c0.2,0.2,0.1,0.6,0.1,0.9c0,0.2,0.1,0.3,0.3,0.4
			c1.1,0.4,1.8,1.5,1.7,2.7c0,0.2-0.1,0.3-0.3,0.2c-0.4,0-0.8,0-1.2,0c-0.3,0-0.4-0.1-0.4-0.4c0-0.8-0.4-1.1-1.1-1.1
			c-0.4,0-0.8,0.3-0.8,0.7c0,0.2,0.1,0.4,0.2,0.5c0.3,0.4,0.7,0.7,1.1,1c0.8,0.5,1.5,1.1,2.1,1.8c0.4,0.5,0.6,1.2,0.6,1.8
			c0,1-0.7,1.9-1.7,2.2c-0.3,0.1-0.4,0.2-0.4,0.5c0,0.8,0,0.8-0.8,0.8h-0.1c-0.9,0-0.9,0-1-0.9c0-0.2-0.1-0.4-0.3-0.4c0,0,0,0,0,0
			c-1.6-0.4-1.8-1.9-1.8-3c0-0.2,0.1-0.2,0.2-0.2C8.3,15.1,8.6,15.1,8.8,15.1z"/>
	</g>
</g>
</svg>
