<svg xmlns="http://www.w3.org/2000/svg" width="21.7" height="27.076" viewBox="0 0 21.7 27.076">
  <defs>
    <style>
      .cls-1 {
        fill: #fafafa;
      }
    </style>
  </defs>
  <g id="Group_5411" data-name="Group 5411" transform="translate(-80.681 -680.334)">
    <g id="Group_78" data-name="Group 78" transform="translate(80.681 680.334)">
      <path id="Path_122" data-name="Path 122" class="cls-1" d="M1155.491,888.255l5.147-4.127c0,.765.025,1.443-.007,2.117-.021.417.066.5.477.359a8.6,8.6,0,0,0,1.257-15.945l-.449-.235c.5-.481.966-.926,1.42-1.383.192-.194.32-.017.449.056a10.447,10.447,0,0,1,4.375,4.634,10.667,10.667,0,0,1-6.92,15c-.474.124-.646.286-.615.787.051.811.015,1.627.015,2.547Z" transform="translate(-1147.543 -864.993)"/>
      <path id="Path_123" data-name="Path 123" class="cls-1" d="M1158.925,888.34c-.468.475-.9.9-1.321,1.345-.171.182-.308.126-.49.03a10.29,10.29,0,0,1-5.606-7.18,10.641,10.641,0,0,1,8.155-12.667c.353-.079.483-.2.466-.575-.034-.78-.01-1.561-.01-2.448l5.142,3.806-5.142,3.81c0-.789-.024-1.484.01-2.177.02-.421-.079-.49-.481-.364a9,9,0,0,0-6.331,7.883,8.66,8.66,0,0,0,5.322,8.407Z" transform="translate(-1151.26 -866.845)"/>
      <path id="Path_124" data-name="Path 124" class="cls-1" d="M1156.415,878.5h.141c.765,0,.765,0,.862.774a.97.97,0,0,0,1.261.947.837.837,0,0,0,.577-1.321,3.074,3.074,0,0,0-.909-.8,14.991,14.991,0,0,1-2.025-1.512,2.909,2.909,0,0,1-.586-3.286,2.077,2.077,0,0,1,1.379-1.114c.308-.083.419-.2.409-.535-.024-.834,0-.836.814-.832.329,0,.738-.107.96.049.246.173.079.609.088.928a.316.316,0,0,0,.276.351,2.537,2.537,0,0,1,1.693,2.72c0,.225-.115.252-.295.25-.406-.008-.813-.025-1.219,0-.33.025-.411-.09-.428-.413-.041-.808-.413-1.14-1.142-1.093a.767.767,0,0,0-.631,1.242,3.755,3.755,0,0,0,1.108,1,8.565,8.565,0,0,1,2.144,1.8,2.623,2.623,0,0,1,.593,1.828,2.267,2.267,0,0,1-1.724,2.192c-.3.085-.389.2-.383.505.013.838,0,.838-.817.838h-.094c-.917,0-.926,0-.954-.93a.337.337,0,0,0-.3-.378c-1.617-.419-1.818-1.86-1.785-3.017,0-.177.1-.2.242-.2C1155.914,878.5,1156.163,878.5,1156.415,878.5Z" transform="translate(-1147.606 -863.384)"/>
    </g>
  </g>
</svg>
