<svg width="100" height="100" viewBox="0 0 100 100" fill="none" xmlns="http://www.w3.org/2000/svg">
<path d="M0 5C0 2.23858 2.23858 0 5 0H95C97.7614 0 100 2.23858 100 5V95C100 97.7614 97.7614 100 95 100H5C2.23858 100 0 97.7614 0 95V5Z" fill="white"/>
<g clip-path="url(#clip0_2742:25158)">
<path d="M50.747 27.3018C50.3447 26.8995 49.6896 26.8995 49.2873 27.3018L45.3792 31.2098C44.9769 31.6121 44.9769 32.2673 45.3792 32.6696C45.7815 33.0719 46.4367 33.0719 46.839 32.6696L48.9769 30.5317L48.9769 41.8305C48.9769 42.4052 49.4367 42.865 50.0114 42.865C50.5861 42.865 51.0459 42.4052 51.0459 41.8305L51.0459 30.5317L53.1838 32.6696C53.5861 33.0719 54.2413 33.0719 54.6436 32.6696C55.0459 32.2673 55.0459 31.6121 54.6436 31.2098L50.747 27.3018Z" fill="#CED4DA"/>
<path d="M58.977 35.9656C58.4023 35.9656 57.9425 36.4253 57.9425 37.0001V44.9311H42.069V37.0001C42.069 36.4253 41.6092 35.9656 41.0345 35.9656C40.4598 35.9656 40 36.4253 40 37.0001V45.2759C40 46.2299 40.7701 47.0001 41.7241 47.0001H58.2759C59.2299 47.0001 60 46.2299 60 45.2759V37.0001C60 36.4368 59.5402 35.9771 58.977 35.9656Z" fill="#CED4DA"/>
</g>
<path d="M15.4415 61.028C15.9215 61.028 16.3575 61.104 16.7495 61.256C17.1495 61.408 17.4855 61.632 17.7575 61.928C18.0375 62.224 18.2535 62.588 18.4055 63.02C18.5575 63.452 18.6335 63.952 18.6335 64.52C18.6335 65.664 18.3575 66.548 17.8055 67.172C17.2535 67.788 16.4775 68.096 15.4775 68.096C14.9815 68.096 14.5455 68.032 14.1695 67.904C13.8015 67.768 13.4895 67.588 13.2335 67.364C12.9855 67.132 12.7975 66.864 12.6695 66.56C12.5495 66.256 12.4895 65.932 12.4895 65.588C12.4895 65.412 12.5055 65.236 12.5375 65.06C12.5775 64.876 12.6455 64.712 12.7415 64.568C12.8375 64.416 12.9735 64.296 13.1495 64.208C13.3335 64.112 13.5695 64.064 13.8575 64.064H15.4175V64.832H14.1575C14.0375 64.832 13.9415 64.86 13.8695 64.916C13.7975 64.972 13.7415 65.044 13.7015 65.132C13.6615 65.212 13.6335 65.3 13.6175 65.396C13.6095 65.484 13.6055 65.56 13.6055 65.624C13.6055 66.064 13.7735 66.424 14.1095 66.704C14.4535 66.976 14.9095 67.112 15.4775 67.112C15.8695 67.112 16.1935 67.04 16.4495 66.896C16.7135 66.744 16.9215 66.548 17.0735 66.308C17.2255 66.068 17.3295 65.792 17.3855 65.48C17.4495 65.168 17.4815 64.848 17.4815 64.52C17.4815 64.168 17.4375 63.84 17.3495 63.536C17.2695 63.224 17.1455 62.956 16.9775 62.732C16.8095 62.508 16.5975 62.332 16.3415 62.204C16.0855 62.076 15.7815 62.012 15.4295 62.012C15.2455 62.012 15.0575 62.036 14.8655 62.084C14.6735 62.132 14.4935 62.208 14.3255 62.312C14.1575 62.416 14.0055 62.544 13.8695 62.696C13.7415 62.848 13.6455 63.032 13.5815 63.248H12.4415C12.4975 62.888 12.6175 62.568 12.8015 62.288C12.9935 62.008 13.2255 61.776 13.4975 61.592C13.7775 61.408 14.0855 61.268 14.4215 61.172C14.7575 61.076 15.0975 61.028 15.4415 61.028ZM18.9085 59.168V59.924H15.5845C15.1925 59.924 14.8805 59.884 14.6485 59.804C14.4085 59.716 14.2285 59.6 14.1085 59.456C13.9805 59.312 13.9005 59.148 13.8685 58.964C13.8285 58.772 13.8085 58.568 13.8085 58.352V58.196H14.8405V58.352C14.8405 58.512 14.8565 58.648 14.8885 58.76C14.9125 58.864 14.9645 58.948 15.0445 59.012C15.1245 59.068 15.2325 59.108 15.3685 59.132C15.5045 59.156 15.6805 59.168 15.8965 59.168H18.9085ZM25.8531 59V65.048C25.8531 66.072 25.5931 66.836 25.0731 67.34C24.5611 67.844 23.8131 68.096 22.8291 68.096C21.8371 68.096 21.0811 67.844 20.5611 67.34C20.0411 66.836 19.7811 66.072 19.7811 65.048V61.076H20.9811V64.904C20.9811 65.232 21.0091 65.532 21.0651 65.804C21.1291 66.076 21.2291 66.308 21.3651 66.5C21.5091 66.692 21.6971 66.844 21.9291 66.956C22.1691 67.06 22.4691 67.112 22.8291 67.112C23.1811 67.112 23.4731 67.06 23.7051 66.956C23.9451 66.844 24.1331 66.692 24.2691 66.5C24.4131 66.308 24.5131 66.076 24.5691 65.804C24.6251 65.532 24.6531 65.232 24.6531 64.904V59H25.8531ZM29.5276 68C28.9996 68 28.5716 67.84 28.2436 67.52C27.9156 67.2 27.7516 66.712 27.7516 66.056V61.652C27.7516 61.356 27.7076 61.116 27.6196 60.932C27.5316 60.74 27.4236 60.588 27.2956 60.476C27.1676 60.356 27.0276 60.268 26.8756 60.212C26.7236 60.148 26.5836 60.096 26.4556 60.056V59.756C26.4556 59.556 26.4916 59.364 26.5636 59.18C26.6436 58.996 26.7556 58.832 26.8996 58.688C27.0516 58.544 27.2356 58.432 27.4516 58.352C27.6756 58.264 27.9316 58.22 28.2196 58.22H30.5116V59.084H28.4356C28.1396 59.084 27.9076 59.156 27.7396 59.3C27.5716 59.444 27.4876 59.596 27.4876 59.756C27.7036 59.828 27.8996 59.916 28.0756 60.02C28.2596 60.116 28.4156 60.236 28.5436 60.38C28.6716 60.524 28.7716 60.696 28.8436 60.896C28.9156 61.096 28.9516 61.328 28.9516 61.592V66.128C28.9516 66.464 29.0316 66.716 29.1916 66.884C29.3516 67.052 29.5556 67.136 29.8036 67.136H30.2716V68H29.5276ZM35.7566 65.768C35.7566 65.528 35.7046 65.328 35.6006 65.168C35.5046 65.008 35.3766 64.884 35.2166 64.796C35.0646 64.7 34.8966 64.636 34.7126 64.604C34.5366 64.572 34.3686 64.568 34.2086 64.592L32.3366 64.796V68H31.1366V61.076H32.3366V63.944L33.7526 63.788C34.0886 63.748 34.3806 63.692 34.6286 63.62C34.8846 63.54 35.0966 63.436 35.2646 63.308C35.4326 63.172 35.5566 63.008 35.6366 62.816C35.7166 62.616 35.7566 62.376 35.7566 62.096V61.076H36.9566V62.096C36.9566 62.656 36.8046 63.1 36.5006 63.428C36.1966 63.748 35.8086 63.964 35.3366 64.076C35.5526 64.108 35.7566 64.16 35.9486 64.232C36.1406 64.304 36.3126 64.408 36.4646 64.544C36.6166 64.68 36.7366 64.852 36.8246 65.06C36.9126 65.268 36.9566 65.528 36.9566 65.84V68H35.7566V65.768ZM44.0107 68H42.8227V64.832L41.0347 64.94C40.7787 64.956 40.5427 64.988 40.3267 65.036C40.1187 65.076 39.9347 65.14 39.7747 65.228C39.6227 65.316 39.5027 65.432 39.4147 65.576C39.3347 65.72 39.2947 65.9 39.2947 66.116C39.2947 66.796 39.6987 67.136 40.5067 67.136H41.0947V68H40.2547C39.5747 68 39.0387 67.848 38.6467 67.544C38.2547 67.232 38.0587 66.776 38.0587 66.176C38.0587 65.808 38.1307 65.5 38.2747 65.252C38.4267 65.004 38.6307 64.808 38.8867 64.664C39.1507 64.512 39.4507 64.4 39.7867 64.328C40.1307 64.256 40.4947 64.208 40.8787 64.184L42.8227 64.064V63.716C42.8227 63.468 42.7907 63.24 42.7267 63.032C42.6707 62.824 42.5747 62.644 42.4387 62.492C42.3107 62.34 42.1427 62.224 41.9347 62.144C41.7267 62.056 41.4707 62.012 41.1667 62.012C40.7347 62.012 40.3547 62.112 40.0267 62.312C39.6987 62.504 39.4747 62.816 39.3547 63.248H38.2027C38.2667 62.888 38.3827 62.572 38.5507 62.3C38.7267 62.02 38.9467 61.788 39.2107 61.604C39.4747 61.412 39.7707 61.268 40.0987 61.172C40.4347 61.076 40.7907 61.028 41.1667 61.028C41.6067 61.028 42.0027 61.08 42.3547 61.184C42.7067 61.288 43.0027 61.456 43.2427 61.688C43.4907 61.912 43.6787 62.2 43.8067 62.552C43.9427 62.904 44.0107 63.328 44.0107 63.824V68ZM48.4 61.988C48.048 61.988 47.752 62.044 47.512 62.156C47.272 62.268 47.076 62.424 46.924 62.624C46.78 62.816 46.676 63.044 46.612 63.308C46.548 63.564 46.516 63.844 46.516 64.148V67.28C46.724 67.168 46.928 67.032 47.128 66.872C47.328 66.712 47.508 66.532 47.668 66.332C47.828 66.124 47.956 65.904 48.052 65.672C48.148 65.432 48.196 65.184 48.196 64.928H47.404V64.172H49.072V64.616C49.072 65.08 48.988 65.504 48.82 65.888C48.652 66.272 48.436 66.608 48.172 66.896C47.916 67.184 47.628 67.424 47.308 67.616C46.988 67.8 46.672 67.928 46.36 68H45.328V64.04C45.328 63.008 45.592 62.248 46.12 61.76C46.656 61.272 47.416 61.028 48.4 61.028C49.392 61.028 50.148 61.272 50.668 61.76C51.196 62.248 51.46 63.008 51.46 64.04V68H50.284V64.148C50.284 63.844 50.252 63.564 50.188 63.308C50.124 63.044 50.016 62.816 49.864 62.624C49.72 62.424 49.528 62.268 49.288 62.156C49.048 62.044 48.752 61.988 48.4 61.988ZM53.8611 63.008C53.8611 63.288 53.9971 63.504 54.2691 63.656C54.5491 63.8 54.9971 63.948 55.6131 64.1C55.9331 64.172 56.2371 64.256 56.5251 64.352C56.8131 64.44 57.0651 64.556 57.2811 64.7C57.5051 64.844 57.6811 65.024 57.8091 65.24C57.9371 65.456 58.0011 65.728 58.0011 66.056C58.0011 66.392 57.9251 66.688 57.7731 66.944C57.6291 67.192 57.4331 67.4 57.1851 67.568C56.9451 67.736 56.6651 67.864 56.3451 67.952C56.0251 68.032 55.6931 68.072 55.3491 68.072C54.9971 68.072 54.6611 68.028 54.3411 67.94C54.0211 67.852 53.7371 67.72 53.4891 67.544C53.2491 67.368 53.0491 67.148 52.8891 66.884C52.7371 66.62 52.6491 66.308 52.6251 65.948H53.6811C53.7611 66.332 53.9491 66.624 54.2451 66.824C54.5411 67.024 54.9011 67.124 55.3251 67.124C55.5331 67.124 55.7291 67.104 55.9131 67.064C56.0971 67.016 56.2571 66.948 56.3931 66.86C56.5291 66.772 56.6371 66.66 56.7171 66.524C56.7971 66.388 56.8371 66.228 56.8371 66.044C56.8371 65.884 56.7931 65.748 56.7051 65.636C56.6251 65.516 56.4931 65.412 56.3091 65.324C56.1331 65.228 55.9091 65.14 55.6371 65.06C55.3651 64.972 55.0371 64.876 54.6531 64.772C54.3571 64.692 54.0891 64.604 53.8491 64.508C53.6091 64.404 53.4051 64.284 53.2371 64.148C53.0691 64.012 52.9411 63.852 52.8531 63.668C52.7651 63.476 52.7211 63.256 52.7211 63.008C52.7211 62.696 52.7851 62.416 52.9131 62.168C53.0491 61.92 53.2331 61.712 53.4651 61.544C53.6971 61.376 53.9691 61.248 54.2811 61.16C54.5931 61.072 54.9291 61.028 55.2891 61.028C55.6411 61.028 55.9731 61.072 56.2851 61.16C56.5971 61.24 56.8691 61.368 57.1011 61.544C57.3411 61.72 57.5331 61.944 57.6771 62.216C57.8291 62.48 57.9091 62.792 57.9171 63.152H56.8491C56.8091 62.76 56.6491 62.464 56.3691 62.264C56.0891 62.064 55.7331 61.964 55.3011 61.964C54.8851 61.964 54.5411 62.056 54.2691 62.24C53.9971 62.424 53.8611 62.68 53.8611 63.008ZM57.2845 69.032V70.016C57.2845 70.296 57.2325 70.524 57.1285 70.7C57.0245 70.876 56.8925 71.016 56.7325 71.12C56.5645 71.224 56.3845 71.292 56.1925 71.324C55.9925 71.364 55.8045 71.384 55.6285 71.384C55.4605 71.384 55.2885 71.364 55.1125 71.324C54.9285 71.292 54.7605 71.228 54.6085 71.132C54.4565 71.044 54.3325 70.92 54.2365 70.76C54.1325 70.6 54.0805 70.4 54.0805 70.16V69.8H53.2765V69.032H55.0045V69.896C55.0045 70.168 55.0645 70.364 55.1845 70.484C55.2965 70.604 55.4445 70.664 55.6285 70.664C55.8285 70.664 55.9885 70.604 56.1085 70.484C56.2285 70.364 56.2885 70.168 56.2885 69.896V69.032H57.2845ZM65.2164 59V65.048C65.2164 66.072 64.9564 66.836 64.4364 67.34C63.9244 67.844 63.1764 68.096 62.1924 68.096C61.2004 68.096 60.4444 67.844 59.9244 67.34C59.4044 66.836 59.1444 66.072 59.1444 65.048V61.076H60.3444V64.904C60.3444 65.232 60.3724 65.532 60.4284 65.804C60.4924 66.076 60.5924 66.308 60.7284 66.5C60.8724 66.692 61.0604 66.844 61.2924 66.956C61.5324 67.06 61.8324 67.112 62.1924 67.112C62.5444 67.112 62.8364 67.06 63.0684 66.956C63.3084 66.844 63.4964 66.692 63.6324 66.5C63.7764 66.308 63.8764 66.076 63.9324 65.804C63.9884 65.532 64.0164 65.232 64.0164 64.904V59H65.2164ZM66.4909 63.8C66.4909 62.904 66.7509 62.22 67.2709 61.748C67.7909 61.268 68.5309 61.028 69.4909 61.028C70.4909 61.028 71.2469 61.268 71.7589 61.748C72.2789 62.228 72.5389 62.896 72.5389 63.752V68H71.3269V63.86C71.3269 63.276 71.1749 62.82 70.8709 62.492C70.5749 62.156 70.1149 61.988 69.4909 61.988C68.9149 61.988 68.4629 62.124 68.1349 62.396C67.8069 62.668 67.6229 63.052 67.5829 63.548L69.2389 63.86V64.22C68.9349 64.316 68.6949 64.468 68.5189 64.676C68.3429 64.876 68.2549 65.156 68.2549 65.516V66.56C68.2549 67.04 68.1229 67.4 67.8589 67.64C67.5949 67.88 67.2269 68 66.7549 68H66.1069V67.136H66.4549C66.8869 67.136 67.1029 66.88 67.1029 66.368V65.54C67.1029 65.228 67.1989 64.944 67.3909 64.688C67.5909 64.424 67.8909 64.26 68.2909 64.196L66.4909 63.896V63.8ZM75.7951 61.028C76.1391 61.028 76.4591 61.076 76.7551 61.172C77.0511 61.26 77.3071 61.4 77.5231 61.592C77.7391 61.784 77.9071 62.028 78.0271 62.324C78.1471 62.62 78.2071 62.972 78.2071 63.38V68H77.0071V63.452C77.0071 62.932 76.8631 62.56 76.5751 62.336C76.2871 62.104 75.9271 61.988 75.4951 61.988C75.1911 61.988 74.8911 62.024 74.5951 62.096C74.2991 62.168 73.9671 62.276 73.5991 62.42V61.544C74.3031 61.2 75.0351 61.028 75.7951 61.028ZM87.8387 61.076L86.2787 68H85.2227L83.4707 62.456L81.6947 68H80.6387L79.1027 61.076H80.3387L81.3467 66.26L83.0147 61.232H83.9507L85.5947 66.26L86.6147 61.076H87.8387Z" fill="#CED4DA"/>
<path d="M5 99.5C4.38892 99.5 3.80748 99.3785 3.27759 99.1587L2.89453 100.082C3.54372 100.352 4.25517 100.5 5 100.5V99.5ZM0.841266 96.7224C0.621529 96.1925 0.5 95.6111 0.5 95H-0.5C-0.5 95.7448 -0.351667 96.4563 -0.0824603 97.1055L0.841266 96.7224ZM0.5 95V91.25H-0.5V95H0.5ZM0.5 83.75V76.25H-0.5V83.75H0.5ZM0.5 68.75V61.25H-0.5V68.75H0.5ZM0.5 53.75V46.25H-0.5V53.75H0.5ZM0.5 38.75V31.25H-0.5V38.75H0.5ZM0.5 23.75V16.25H-0.5V23.75H0.5ZM0.5 8.75V5H-0.5V8.75H0.5ZM0.5 5C0.5 4.38892 0.621529 3.80748 0.841266 3.27759L-0.0824603 2.89453C-0.351667 3.54372 -0.5 4.25517 -0.5 5H0.5ZM3.27759 0.841266C3.80748 0.621529 4.38892 0.5 5 0.5V-0.5C4.25517 -0.5 3.54372 -0.351667 2.89453 -0.0824603L3.27759 0.841266ZM5 0.5H8.75V-0.5H5V0.5ZM16.25 0.5H23.75V-0.5H16.25V0.5ZM31.25 0.5H38.75V-0.5H31.25V0.5ZM46.25 0.5H53.75V-0.5H46.25V0.5ZM61.25 0.5H68.75V-0.5H61.25V0.5ZM76.25 0.5H83.75V-0.5H76.25V0.5ZM91.25 0.5H95V-0.5H91.25V0.5ZM95 0.5C95.6111 0.5 96.1925 0.621529 96.7224 0.841266L97.1055 -0.0824603C96.4563 -0.351667 95.7448 -0.5 95 -0.5V0.5ZM99.1587 3.27759C99.3785 3.80748 99.5 4.38892 99.5 5H100.5C100.5 4.25517 100.352 3.54372 100.082 2.89453L99.1587 3.27759ZM99.5 5V8.75H100.5V5H99.5ZM99.5 16.25V23.75H100.5V16.25H99.5ZM99.5 31.25V38.75H100.5V31.25H99.5ZM99.5 46.25V53.75H100.5V46.25H99.5ZM99.5 61.25V68.75H100.5V61.25H99.5ZM99.5 76.25V83.75H100.5V76.25H99.5ZM99.5 91.25V95H100.5V91.25H99.5ZM99.5 95C99.5 95.6111 99.3785 96.1925 99.1587 96.7224L100.082 97.1055C100.352 96.4563 100.5 95.7448 100.5 95H99.5ZM96.7224 99.1587C96.1925 99.3785 95.6111 99.5 95 99.5V100.5C95.7448 100.5 96.4563 100.352 97.1055 100.082L96.7224 99.1587ZM95 99.5H91.25V100.5H95V99.5ZM83.75 99.5H76.25V100.5H83.75V99.5ZM68.75 99.5H61.25V100.5H68.75V99.5ZM53.75 99.5H46.25V100.5H53.75V99.5ZM38.75 99.5H31.25V100.5H38.75V99.5ZM23.75 99.5H16.25V100.5H23.75V99.5ZM8.75 99.5H5V100.5H8.75V99.5ZM5 99C4.45579 99 3.93936 98.8919 3.46912 98.6969L2.70301 100.544C3.41184 100.838 4.18829 101 5 101V99ZM1.30313 96.5309C1.10813 96.0606 1 95.5442 1 95H-1C-1 95.8117 -0.838265 96.5882 -0.544323 97.297L1.30313 96.5309ZM1 95V91.25H-1V95H1ZM1 83.75V76.25H-1V83.75H1ZM1 68.75V61.25H-1V68.75H1ZM1 53.75V46.25H-1V53.75H1ZM1 38.75V31.25H-1V38.75H1ZM1 23.75V16.25H-1V23.75H1ZM1 8.75V5H-1V8.75H1ZM1 5C1 4.45579 1.10813 3.93936 1.30313 3.46912L-0.544323 2.70301C-0.838265 3.41184 -1 4.18829 -1 5H1ZM3.46912 1.30313C3.93936 1.10813 4.45579 1 5 1V-1C4.18829 -1 3.41184 -0.838265 2.70301 -0.544323L3.46912 1.30313ZM5 1H8.75V-1H5V1ZM16.25 1H23.75V-1H16.25V1ZM31.25 1H38.75V-1H31.25V1ZM46.25 1H53.75V-1H46.25V1ZM61.25 1H68.75V-1H61.25V1ZM76.25 1H83.75V-1H76.25V1ZM91.25 1H95V-1H91.25V1ZM95 1C95.5442 1 96.0606 1.10813 96.5309 1.30313L97.297 -0.544323C96.5882 -0.838265 95.8117 -1 95 -1V1ZM98.6969 3.46912C98.8919 3.93936 99 4.45579 99 5H101C101 4.18829 100.838 3.41184 100.544 2.70301L98.6969 3.46912ZM99 5V8.75H101V5H99ZM99 16.25V23.75H101V16.25H99ZM99 31.25V38.75H101V31.25H99ZM99 46.25V53.75H101V46.25H99ZM99 61.25V68.75H101V61.25H99ZM99 76.25V83.75H101V76.25H99ZM99 91.25V95H101V91.25H99ZM99 95C99 95.5442 98.8919 96.0606 98.6969 96.5309L100.544 97.297C100.838 96.5882 101 95.8117 101 95H99ZM96.5309 98.6969C96.0606 98.8919 95.5442 99 95 99V101C95.8117 101 96.5882 100.838 97.297 100.544L96.5309 98.6969ZM95 99H91.25V101H95V99ZM83.75 99H76.25V101H83.75V99ZM68.75 99H61.25V101H68.75V99ZM53.75 99H46.25V101H53.75V99ZM38.75 99H31.25V101H38.75V99ZM23.75 99H16.25V101H23.75V99ZM8.75 99H5V101H8.75V99Z" fill="#C6C6C6"/>
<defs>
<clipPath id="clip0_2742:25158">
<rect width="20" height="20" fill="white" transform="translate(40 27)"/>
</clipPath>
</defs>
</svg>
