<?xml version="1.0" encoding="utf-8"?>
<!-- Generator: Adobe Illustrator 22.0.1, SVG Export Plug-In . SVG Version: 6.00 Build 0)  -->
<svg version="1.1" id="Layer_1" xmlns="http://www.w3.org/2000/svg" xmlns:xlink="http://www.w3.org/1999/xlink" x="0px" y="0px"
	 viewBox="0 0 130.1 132.1" style="enable-background:new 0 0 130.1 132.1;" xml:space="preserve">
<style type="text/css">
	.st0{fill:#42294F;}
</style>
<path class="st0" d="M113.3,0L10.4,0l-0.3,0.4C7.7,3.6,4,5.5,0,5.5V10c1.7,0,3,1.3,3,3v4c0,1.7-1.3,3-3,3v7c1.7,0,3,1.3,3,3v4
	c0,1.7-1.3,3-3,3v7c1.7,0,3,1.3,3,3v4c0,1.7-1.3,3-3,3v7c1.7,0,3,1.3,3,3v4c0,1.7-1.3,3-3,3v7c1.7,0,3,1.3,3,3v4c0,1.7-1.3,3-3,3v7
	c1.7,0,3,1.3,3,3v4c0,1.7-1.3,3-3,3v7c1.7,0,3,1.3,3,3v4c0,1.7-1.3,3-3,3v4.7c3.5,0.1,6.8,1.8,8.9,4.7l0.4,0.7h104
	c9.3,0,16.8-6.3,16.8-14.2V14.4C130.1,6.5,122.6,0,113.3,0z"/>
</svg>
