<svg id="Pinterest" xmlns="http://www.w3.org/2000/svg" width="59.053" height="58.859" viewBox="0 0 59.053 58.859">
  <defs>
    <style>
      .cls-1 {
        fill: #fff;
      }

      .cls-2 {
        fill: #e60019;
      }
    </style>
  </defs>
  <ellipse id="Oval" class="cls-1" cx="29.526" cy="29.405" rx="29.526" ry="29.405"/>
  <path id="Shape" class="cls-2" d="M29.526,0A29.4,29.4,0,0,0,18.761,56.8a28.2,28.2,0,0,1,.1-8.446c.535-2.3,3.451-14.618,3.451-14.618a10.675,10.675,0,0,1-.875-4.356c0-4.09,2.382-7.14,5.346-7.14,2.527,0,3.742,1.888,3.742,4.139,0,2.517-1.6,6.292-2.454,9.8a4.282,4.282,0,0,0,4.374,5.324c5.249,0,9.283-5.518,9.283-13.456,0-7.043-5.079-11.956-12.345-11.956-8.408,0-13.342,6.268-13.342,12.754a11.447,11.447,0,0,0,2.187,6.7.873.873,0,0,1,.194.847c-.219.92-.729,2.928-.826,3.34-.122.532-.437.653-1,.387-3.694-1.718-6-7.067-6-11.4,0-9.269,6.756-17.788,19.514-17.788,10.231,0,18.2,7.261,18.2,16.99,0,10.141-6.416,18.3-15.31,18.3-2.989,0-5.808-1.549-6.756-3.388L24.4,49.832a31.978,31.978,0,0,1-3.67,7.72,29.769,29.769,0,0,0,8.749,1.307A29.43,29.43,0,1,0,29.526,0Z"/>
</svg>
