<svg id="Visa_large" xmlns="http://www.w3.org/2000/svg" width="154" height="108" viewBox="0 0 154 108">
  <defs>
    <style>
      .cls-1 {
        fill: none;
      }

      .cls-2 {
        fill: #15195a;
      }
    </style>
  </defs>
  <rect id="Rectangle_1771" data-name="Rectangle 1771" class="cls-1" width="154" height="108"/>
  <rect id="Rectangle_1773" data-name="Rectangle 1773" class="cls-1" width="108" height="77" transform="translate(116) rotate(90)"/>
  <rect id="Rectangle_1772" data-name="Rectangle 1772" class="cls-1" width="108.245" height="85.12" transform="translate(131.616 96.929) rotate(180)"/>
  <path id="Path_3584" data-name="Path 3584" class="cls-2" d="M3163.048-550.725c-.043,3.415,3.043,5.321,5.369,6.454,2.39,1.163,3.192,1.908,3.182,2.948-.018,1.592-1.906,2.294-3.672,2.321a12.812,12.812,0,0,1-6.3-1.5l-1.111,5.2a18.474,18.474,0,0,0,6.821,1.258c6.443,0,10.658-3.18,10.681-8.111.025-6.258-8.656-6.6-8.6-9.4.021-.848.83-1.753,2.6-1.983a11.545,11.545,0,0,1,6.048,1.06l1.078-5.027a16.437,16.437,0,0,0-5.74-1.053c-6.064,0-10.329,3.224-10.364,7.838m26.467-7.4a2.8,2.8,0,0,0-2.611,1.74l-9.2,21.975h6.438l1.281-3.541h7.867l.743,3.541h5.675l-4.952-23.714h-5.238m.9,6.406,1.858,8.9h-5.088l3.23-8.9m-35.172-6.406-5.075,23.714h6.135l5.073-23.714h-6.133m-9.076,0-6.386,16.141-2.583-13.724a2.859,2.859,0,0,0-2.828-2.417H3123.93l-.146.689a25.545,25.545,0,0,1,6.052,2.018,2.594,2.594,0,0,1,1.457,2.084l4.893,18.925h6.484l9.939-23.714h-6.442" transform="translate(-3084.094 601.093)"/>
</svg>
