<svg id="Mastecard_large" xmlns="http://www.w3.org/2000/svg" width="154" height="108" viewBox="0 0 154 108">
  <defs>
    <style>
      .cls-1 {
        fill: none;
      }

      .cls-2 {
        fill: #231f20;
      }

      .cls-3 {
        fill: #ff5f00;
      }

      .cls-4 {
        fill: #eb001b;
      }

      .cls-5 {
        fill: #f79e1b;
      }
    </style>
  </defs>
  <rect id="Rectangle_1774" data-name="Rectangle 1774" class="cls-1" width="154" height="108"/>
  <rect id="Rectangle_1775" data-name="Rectangle 1775" class="cls-1" width="108" height="77" transform="translate(116) rotate(90)"/>
  <rect id="Rectangle_1776" data-name="Rectangle 1776" class="cls-1" width="108.245" height="85.12" transform="translate(131.616 96.929) rotate(180)"/>
  <g id="Group_2745" data-name="Group 2745" transform="translate(38.87 24.569)">
    <g id="Group_2509" data-name="Group 2509" transform="translate(3.905 50.539)">
      <path id="Path_3364" data-name="Path 3364" class="cls-2" d="M2728.6-742.112a1.891,1.891,0,0,1,1.911-2.016,1.889,1.889,0,0,1,1.9,2.016,1.888,1.888,0,0,1-1.9,2.017,1.89,1.89,0,0,1-1.911-2.017m5.1,0v-3.149h-1.37v.765a2.391,2.391,0,0,0-1.99-.923,3.157,3.157,0,0,0-3.151,3.307,3.156,3.156,0,0,0,3.151,3.308,2.391,2.391,0,0,0,1.99-.923v.765h1.37Zm46.279,0a1.891,1.891,0,0,1,1.911-2.016,1.888,1.888,0,0,1,1.9,2.016,1.888,1.888,0,0,1-1.9,2.017,1.89,1.89,0,0,1-1.911-2.017m5.1,0v-5.678h-1.37v3.294a2.387,2.387,0,0,0-1.99-.923,3.156,3.156,0,0,0-3.151,3.307,3.156,3.156,0,0,0,3.151,3.308,2.388,2.388,0,0,0,1.99-.923v.765h1.37Zm-34.38-2.081a1.564,1.564,0,0,1,1.594,1.528h-3.268a1.622,1.622,0,0,1,1.674-1.528m.027-1.226a3.078,3.078,0,0,0-3.137,3.307,3.107,3.107,0,0,0,3.229,3.308,3.826,3.826,0,0,0,2.582-.883l-.67-1.015a3.014,3.014,0,0,1-1.832.659,1.75,1.75,0,0,1-1.885-1.543h4.678c.013-.171.027-.342.027-.527a3.021,3.021,0,0,0-2.991-3.307m16.537,3.307a1.89,1.89,0,0,1,1.91-2.016,1.889,1.889,0,0,1,1.9,2.016,1.889,1.889,0,0,1-1.9,2.017,1.89,1.89,0,0,1-1.91-2.017m5.1,0v-3.149H2771v.765a2.391,2.391,0,0,0-1.99-.923,3.157,3.157,0,0,0-3.151,3.307,3.157,3.157,0,0,0,3.151,3.308,2.391,2.391,0,0,0,1.99-.923v.765h1.369Zm-12.834,0a3.182,3.182,0,0,0,3.361,3.308,3.3,3.3,0,0,0,2.265-.751l-.658-1.107a2.763,2.763,0,0,1-1.647.567,1.881,1.881,0,0,1-1.9-2.017,1.882,1.882,0,0,1,1.9-2.016,2.767,2.767,0,0,1,1.647.567l.658-1.107a3.3,3.3,0,0,0-2.265-.751,3.182,3.182,0,0,0-3.361,3.307m17.657-3.307a1.858,1.858,0,0,0-1.66.923v-.765h-1.357v6.3h1.371v-3.531c0-1.042.448-1.621,1.344-1.621a2.216,2.216,0,0,1,.856.158l.423-1.291a2.919,2.919,0,0,0-.976-.172m-36.712.659a4.712,4.712,0,0,0-2.568-.659c-1.6,0-2.623.764-2.623,2.016,0,1.027.764,1.661,2.173,1.858l.647.092c.75.106,1.105.3,1.105.659,0,.487-.5.764-1.436.764a3.353,3.353,0,0,1-2.1-.659l-.646,1.066a4.544,4.544,0,0,0,2.726.818c1.819,0,2.874-.857,2.874-2.056,0-1.107-.83-1.687-2.2-1.884l-.645-.093c-.593-.079-1.069-.2-1.069-.619,0-.462.448-.737,1.2-.737a4.069,4.069,0,0,1,1.964.54Zm17.671-.659a1.857,1.857,0,0,0-1.66.923v-.765h-1.357v6.3h1.37v-3.531c0-1.042.448-1.621,1.344-1.621a2.217,2.217,0,0,1,.857.158l.423-1.291a2.922,2.922,0,0,0-.976-.172m-11.688.158h-2.24v-1.911h-1.384v1.911h-1.278v1.252h1.278v2.873c0,1.461.567,2.332,2.187,2.332a3.212,3.212,0,0,0,1.713-.487l-.4-1.174a2.534,2.534,0,0,1-1.212.356c-.685,0-.909-.423-.909-1.055v-2.846h2.24Zm-20.478,6.3v-3.953a2.345,2.345,0,0,0-2.479-2.5,2.439,2.439,0,0,0-2.214,1.12,2.31,2.31,0,0,0-2.081-1.12,2.082,2.082,0,0,0-1.844.935v-.777h-1.371v6.3h1.383v-3.491a1.474,1.474,0,0,1,1.542-1.675c.91,0,1.37.593,1.37,1.661v3.505h1.384v-3.491a1.487,1.487,0,0,1,1.542-1.675c.936,0,1.384.593,1.384,1.661v3.505Z" transform="translate(-2715.992 747.79)"/>
    </g>
    <path id="Path_3365" data-name="Path 3365" class="cls-3" d="M2788.863-808.857h-20.756v-37.3h20.756Z" transform="translate(-2740.116 851.234)"/>
    <g id="Group_2510" data-name="Group 2510" transform="translate(0 0)">
      <path id="Path_3366" data-name="Path 3366" class="cls-4" d="M2736.863-833.416a23.684,23.684,0,0,1,9.061-18.651,23.621,23.621,0,0,0-14.66-5.072,23.722,23.722,0,0,0-23.721,23.724,23.722,23.722,0,0,0,23.721,23.723,23.618,23.618,0,0,0,14.66-5.073,23.684,23.684,0,0,1-9.061-18.651" transform="translate(-2707.543 857.14)"/>
    </g>
    <g id="Group_2511" data-name="Group 2511" transform="translate(38.358 0)">
      <path id="Path_3367" data-name="Path 3367" class="cls-5" d="M2828.921-833.416a23.722,23.722,0,0,1-23.72,23.723,23.623,23.623,0,0,1-14.662-5.073,23.679,23.679,0,0,0,9.061-18.651,23.68,23.68,0,0,0-9.061-18.651,23.626,23.626,0,0,1,14.662-5.072,23.721,23.721,0,0,1,23.72,23.724" transform="translate(-2790.538 857.14)"/>
    </g>
  </g>
</svg>
