<svg id="americanexpress_large" xmlns="http://www.w3.org/2000/svg" width="154" height="109" viewBox="0 0 154 109">
  <defs>
    <style>
      .cls-1 {
        fill: none;
      }

      .cls-2 {
        fill: #016fd0;
      }
    </style>
  </defs>
  <rect id="Rectangle_1771" data-name="Rectangle 1771" class="cls-1" width="154" height="108"/>
  <rect id="Rectangle_1773" data-name="Rectangle 1773" class="cls-1" width="108" height="77" transform="translate(116) rotate(90)"/>
  <rect id="Rectangle_1772" data-name="Rectangle 1772" class="cls-1" width="108.245" height="85.12" transform="translate(131.616 96.929) rotate(180)"/>
  <g id="Group_2743" data-name="Group 2743" transform="translate(30.025 39.673)">
    <path id="Path_3417" data-name="Path 3417" class="cls-2" d="M449.387,817.085l1.215-2.732H444.17c-2.651,0-4.22,1.618-4.22,3.828,0,2.3,1.485,3.62,3.8,3.62h2.887a1,1,0,0,1,1.1,1.009.992.992,0,0,1-1.1.992h-6.314v2.732h6.28c2.65,0,4.221-1.6,4.221-3.95,0-2.21-1.384-3.5-3.8-3.5h-2.886a1,1,0,0,1-1.1-1.009.992.992,0,0,1,1.1-.992Zm-17.506.992a.991.991,0,0,1,1.1-.992h5.251l1.216-2.732h-6.432c-2.651,0-4.221,1.618-4.221,3.828,0,2.3,1.485,3.62,3.8,3.62h2.888a1,1,0,0,1,1.1,1.009.991.991,0,0,1-1.1.992h-6.315v2.732h6.281c2.65,0,4.22-1.6,4.22-3.95,0-2.21-1.384-3.5-3.8-3.5h-2.887a1,1,0,0,1-1.1-1.009Zm-14.029,8.458h9.927V823.8h-6.838v-2.071h6.669v-2.662h-6.669v-1.984h6.838v-2.732h-9.927v12.181Zm-.489,0-3.95-4.437a3.788,3.788,0,0,0,3.191-3.811c0-2.332-1.621-3.933-4.221-3.933h-6.77v12.181H408.7v-4.315h1.2l3.647,4.315Zm-5.3-6.961H408.7v-2.488h3.359a1.273,1.273,0,0,1,1.435,1.253c0,.7-.49,1.235-1.435,1.235Zm-7.781-1.114a3.914,3.914,0,0,0-4.22-4.107h-6.854v12.181H396.3v-3.968h3.663a4.007,4.007,0,0,0,4.322-4.107Zm-3.106.017a1.311,1.311,0,0,1-1.435,1.358H396.3v-2.75h3.444a1.328,1.328,0,0,1,1.435,1.392Zm-8.238,8.057-4.9-6.143,4.862-6.038h-3.781l-2.87,3.741-2.87-3.741H379.5l4.879,6.108-4.862,6.073H383.3l2.87-3.776,2.887,3.776Zm-23.6,0h9.927V823.8h-6.837v-2.071h6.668v-2.662h-6.668v-1.984h6.837v-2.732h-9.927v12.181Z" transform="translate(-354.59 -798.044)"/>
    <path id="Path_3418" data-name="Path 3418" class="cls-2" d="M292.591,637.231V625.05h-3.072V632.6l-4.862-7.552H280.74v12.181h3.089V629.4l5.014,7.831Zm-15.666,0h3.5L275.2,625.05h-4.017l-5.217,12.181h3.41l1-2.488h5.538l1.012,2.488Zm-2.093-5.134h-3.377l1.689-4.176,1.689,4.176Zm-9.964-4.228h3.275V625.05h-3.512c-3.832,0-5.891,2.541-5.891,6v.174c0,3.741,2.161,6,5.655,6h.253l1.266-2.732h-1c-1.941,0-3.089-1.183-3.089-3.271v-.174a2.879,2.879,0,0,1,3.039-3.184Zm-10.716,9.362h3.089V625.05h-3.089v12.181Zm-.489,0-3.95-4.437a3.788,3.788,0,0,0,3.191-3.811c0-2.332-1.621-3.933-4.22-3.933h-6.77v12.181H245v-4.316h1.2l3.646,4.316Zm-5.3-6.961H245v-2.488h3.36a1.272,1.272,0,0,1,1.435,1.252c0,.7-.49,1.236-1.435,1.236Zm-18.131,6.961h9.927V634.5h-6.837v-2.071h6.668v-2.662h-6.668v-1.983h6.837V625.05h-9.927v12.181Zm-5.115,0h3.056V625.05h-4.862l-2.718,7.778-2.735-7.778h-4.913v12.181H216v-9.014l3.207,9.014h2.7l3.207-9.014v9.014Zm-15.986,0h3.494l-5.216-12.181h-4.018l-5.216,12.181h3.41l1-2.488h5.537l1.013,2.488Zm-2.093-5.134h-3.376l1.688-4.176,1.688,4.176Z" transform="translate(-198.175 -625.05)"/>
  </g>
</svg>
