<svg id="Dinersclub_large" xmlns="http://www.w3.org/2000/svg" width="154" height="108" viewBox="0 0 154 108">
  <defs>
    <style>
      .cls-1 {
        fill: none;
      }

      .cls-2 {
        fill: #004a98;
      }

      .cls-3 {
        fill: #fff;
      }
    </style>
  </defs>
  <rect id="Rectangle_1771" data-name="Rectangle 1771" class="cls-1" width="154" height="108"/>
  <rect id="Rectangle_1773" data-name="Rectangle 1773" class="cls-1" width="108" height="77" transform="translate(116) rotate(90)"/>
  <rect id="Rectangle_1772" data-name="Rectangle 1772" class="cls-1" width="108.245" height="85.12" transform="translate(131.616 96.929) rotate(180)"/>
  <g id="Group_2498" data-name="Group 2498" transform="translate(32.701 21.76)">
    <path id="Path_3316" data-name="Path 3316" class="cls-2" d="M3919.042-815.35c9.978.048,19.088-8.135,19.088-18.095,0-10.888-9.11-18.414-19.088-18.409h-8.589a18,18,0,0,0-18.409,18.409,18.29,18.29,0,0,0,18.409,18.095Z" transform="translate(-3869.645 851.854)"/>
    <path id="Path_3317" data-name="Path 3317" class="cls-3" d="M3915.829-822.413v-19.771a10.6,10.6,0,0,1,6.8,9.886,10.606,10.606,0,0,1-6.8,9.886m-14.38-9.886a10.612,10.612,0,0,1,6.8-9.886v19.769a10.608,10.608,0,0,1-6.8-9.883m10.591-16.712a16.714,16.714,0,0,0-16.708,16.712,16.711,16.711,0,0,0,16.708,16.708A16.71,16.71,0,0,0,3928.75-832.3a16.713,16.713,0,0,0-16.709-16.712" transform="translate(-3871.19 850.518)"/>
    <path id="Path_3318" data-name="Path 3318" class="cls-2" d="M3853.584-769.421c0,1.488,1.063,1.66,2.007,1.66,4.169,0,5.538-3.145,5.538-6.021,0-3.608-2.315-6.213-6.039-6.213-.794,0-1.157.056-1.506.078Zm-1.893-9.052c0-1.735-.906-1.62-1.772-1.639v-.5c.751.038,1.523.038,2.279.038.808,0,1.908-.038,3.338-.038,5,0,7.719,3.337,7.719,6.756,0,1.91-1.121,6.715-7.952,6.715-.983,0-1.893-.038-2.8-.038-.869,0-1.72.018-2.586.038v-.5c1.156-.117,1.718-.155,1.772-1.467Z" transform="translate(-3849.852 818.381)"/>
    <path id="Path_3319" data-name="Path 3319" class="cls-2" d="M3878.415-779.124a.992.992,0,0,1-.948-.966.985.985,0,0,1,.948-.929.946.946,0,0,1,.944.929.966.966,0,0,1-.944.966m-2.067,11.29h.367c.54,0,.926,0,.926-.639v-5.23c0-.848-.288-.965-1-1.35v-.308c.907-.273,1.991-.637,2.065-.693a.66.66,0,0,1,.348-.1c.1,0,.136.117.136.271v7.409c0,.639.425.639.965.639h.328v.5c-.657,0-1.333-.037-2.026-.037s-1.389.019-2.1.037Z" transform="translate(-3862.269 818.571)"/>
    <path id="Path_3320" data-name="Path 3320" class="cls-2" d="M3886.466-769.275c0-.713-.214-.9-1.117-1.271v-.368a25.735,25.735,0,0,0,2.544-.927c.058,0,.114.04.114.193v1.254a5.671,5.671,0,0,1,3.343-1.447c1.64,0,2.218,1.2,2.218,2.7v4.979c0,.639.425.639.964.639h.348v.5c-.677,0-1.351-.038-2.045-.038s-1.389.019-2.086.038v-.5h.35c.539,0,.922,0,.922-.639v-5c0-1.1-.671-1.642-1.772-1.642a5.138,5.138,0,0,0-2.241.929v5.709c0,.639.428.639.968.639h.348v.5c-.677,0-1.353-.038-2.047-.038s-1.39.019-2.087.038v-.5h.351c.538,0,.925,0,.925-.639Z" transform="translate(-3866.425 814.259)"/>
    <path id="Path_3321" data-name="Path 3321" class="cls-2" d="M3908.284-768.964c.484,0,.54-.252.54-.483a1.635,1.635,0,0,0-1.678-1.776c-1.177,0-1.987.868-2.218,2.259Zm-3.416.618a4.919,4.919,0,0,0,0,1.119c.116,1.834,1.3,3.339,2.838,3.339a3.709,3.709,0,0,0,2.607-1.292l.267.268a4.515,4.515,0,0,1-3.567,2.18c-3.072,0-3.688-2.971-3.688-4.206,0-3.784,2.546-4.9,3.9-4.9a3.063,3.063,0,0,1,3.261,3.031,2.433,2.433,0,0,1-.017.347l-.175.117Z" transform="translate(-3874.945 814.259)"/>
    <path id="Path_3322" data-name="Path 3322" class="cls-2" d="M3917.67-763.521h.52c.54,0,.925,0,.925-.639v-5.421c0-.6-.713-.715-1-.87v-.289c1.409-.6,2.182-1.1,2.357-1.1.115,0,.171.059.171.253v1.736h.042c.479-.753,1.292-1.99,2.47-1.99a1.052,1.052,0,0,1,1.1,1.022.937.937,0,0,1-.909.985c-.6,0-.6-.463-1.271-.463a1.629,1.629,0,0,0-1.408,1.6v4.534c0,.639.384.639.927.639h1.078v.5c-1.061-.019-1.869-.038-2.7-.038-.793,0-1.6.019-2.295.038Z" transform="translate(-3881.686 814.259)"/>
    <path id="Path_3323" data-name="Path 3323" class="cls-2" d="M3931.376-765.7a2.543,2.543,0,0,0,2.432,2.356,1.364,1.364,0,0,0,1.562-1.371c0-2.277-4.207-1.544-4.207-4.652,0-1.081.871-2.47,2.991-2.47a5.073,5.073,0,0,1,2.2.56l.136,1.967h-.446a1.98,1.98,0,0,0-2.1-1.908,1.357,1.357,0,0,0-1.506,1.274c0,2.259,4.478,1.562,4.478,4.592,0,1.274-1.022,2.625-3.32,2.625a5.069,5.069,0,0,1-2.353-.654l-.214-2.218Z" transform="translate(-3887.961 814.259)"/>
    <path id="Path_3324" data-name="Path 3324" class="cls-2" d="M3964.316-777.379h-.482c-.368-2.256-1.97-3.163-4.129-3.163-2.222,0-5.445,1.485-5.445,6.118,0,3.9,2.78,6.7,5.75,6.7a3.927,3.927,0,0,0,3.884-3.34l.443.115-.443,2.817a10.826,10.826,0,0,1-4.269,1.023c-4.515,0-7.37-2.912-7.37-7.255,0-3.957,3.531-6.794,7.312-6.794a13.938,13.938,0,0,1,4.556,1.024Z" transform="translate(-3897.936 818.638)"/>
    <path id="Path_3325" data-name="Path 3325" class="cls-2" d="M3976.319-768.772h.366c.542,0,.926,0,.926-.639v-10.747c0-1.256-.288-1.294-1.021-1.506v-.309a12.165,12.165,0,0,0,1.986-.831,1.952,1.952,0,0,1,.424-.212c.12,0,.158.116.158.271v13.334c0,.639.422.639.965.639h.324v.5c-.654,0-1.327-.037-2.025-.037s-1.389.018-2.1.037Z" transform="translate(-3909.242 819.51)"/>
    <path id="Path_3326" data-name="Path 3326" class="cls-2" d="M3992.37-763.825c0,.349.21.366.54.366.231,0,.521-.017.772-.017v.406a19.99,19.99,0,0,0-2.78.6l-.1-.056v-1.563c-1.157.946-2.045,1.619-3.418,1.619a2.08,2.08,0,0,1-2.123-2.294v-4.942c0-.5-.076-.985-1.155-1.08v-.366c.694-.02,2.236-.136,2.487-.136.215,0,.215.136.215.56v4.979c0,.579,0,2.238,1.679,2.238a4.314,4.314,0,0,0,2.333-1.175v-5.193c0-.385-.927-.6-1.621-.79v-.348c1.735-.115,2.816-.27,3.01-.27.156,0,.156.136.156.349Z" transform="translate(-3912.903 814.002)"/>
    <path id="Path_3327" data-name="Path 3327" class="cls-2" d="M4004.659-770.451a2.074,2.074,0,0,0,1.984,1.97c2.067,0,2.933-2.028,2.933-3.747,0-2.083-1.578-3.82-3.085-3.82a2.964,2.964,0,0,0-1.833.909Zm0-5.25a4.868,4.868,0,0,1,2.875-1.389c2.237,0,3.589,1.951,3.589,4.053a4.875,4.875,0,0,1-4.614,5.056,5.683,5.683,0,0,1-2.679-.673l-.583.443-.4-.212a22.554,22.554,0,0,0,.272-3.436v-8.3c0-1.256-.291-1.294-1.026-1.506v-.309a12.12,12.12,0,0,0,1.988-.831,1.959,1.959,0,0,1,.427-.211c.115,0,.155.115.155.27Z" transform="translate(-3921.351 819.509)"/>
    <path id="Path_3328" data-name="Path 3328" class="cls-2" d="M3849.874-740.251h.15c.378,0,.777-.054.777-.6v-5.5c0-.548-.4-.6-.777-.6h-.15v-.316c.41,0,1.042.042,1.557.042s1.155-.042,1.647-.042v.316h-.148c-.374,0-.775.053-.775.6v5.5c0,.548.4.6.775.6h.148v.316c-.5,0-1.135-.043-1.659-.043s-1.135.043-1.545.043Z" transform="translate(-3849.83 802.713)"/>
    <path id="Path_3329" data-name="Path 3329" class="cls-2" d="M3852.994-740.024v-.224h-.1c-.375,0-.821-.063-.822-.646v-5.5c0-.582.446-.647.822-.647h.1v-.224c-.483,0-1.092.043-1.6.043s-1.1-.041-1.51-.043v.224h.1c.375,0,.822.065.822.647v5.5c0,.583-.447.646-.822.646h-.1v.224c.407,0,1-.042,1.5-.042s1.117.04,1.612.042m.045.09c-.505,0-1.135-.041-1.657-.041s-1.13.041-1.545.041h-.043v-.406h.191c.381-.009.728-.038.734-.553v-5.5c-.006-.516-.353-.548-.734-.556h-.191v-.407h.043c.415,0,1.042.041,1.557.041s1.151-.041,1.645-.041h.049v.407h-.194c-.38.007-.729.04-.729.556v5.5c0,.515.348.545.729.553h.194v.406Z" transform="translate(-3849.793 802.754)"/>
    <path id="Path_3330" data-name="Path 3330" class="cls-2" d="M3863.488-742.006l.02-.022v-3.937a.867.867,0,0,0-.915-.988h-.23v-.316c.493,0,.977.042,1.47.042.43,0,.864-.042,1.291-.042v.316h-.155c-.443,0-.938.084-.938,1.334v4.779a7.006,7.006,0,0,0,.063,1.06h-.4l-5.411-6.028v4.326c0,.916.176,1.23.988,1.23h.179v.316c-.452,0-.9-.043-1.356-.043-.471,0-.956.043-1.428.043v-.316h.146c.725,0,.946-.495.946-1.334v-4.423a.943.943,0,0,0-.955-.944h-.137v-.316c.4,0,.807.042,1.205.042.317,0,.62-.042.937-.042Z" transform="translate(-3853.025 802.713)"/>
    <path id="Path_3331" data-name="Path 3331" class="cls-2" d="M3863.423-742.067v0l-.012-.009Zm.023.022.033-.031Zm.211,2.18H3864a6.669,6.669,0,0,1-.056-1.013v-4.78c0-1.258.527-1.378.982-1.378h.11v-.224c-.416,0-.829.043-1.249.043-.48,0-.946-.041-1.421-.043v.224h.183a.917.917,0,0,1,.959,1.034l-.011,3.97-.021.02-.035.033-4.672-5.28c-.313,0-.616.043-.937.043-.384,0-.779-.041-1.162-.043v.224h.091a.989.989,0,0,1,1,.99v4.423c0,.839-.234,1.377-.991,1.38l-.1,0v.225c.457,0,.925-.042,1.384-.042.438,0,.876.039,1.306.042v-.223h-.13c-.828,0-1.033-.361-1.033-1.276v-4.445Zm.4.091-.434-.015-5.329-5.94v4.209c.012.915.151,1.173.942,1.182h.225v.406h-.045c-.455,0-.908-.041-1.356-.041-.472,0-.955.041-1.427.041h-.046v-.406h.193c.7,0,.891-.448.9-1.286v-4.423a.9.9,0,0,0-.913-.9h-.181v-.4h.046c.4,0,.811.039,1.205.039.313,0,.618-.039.971-.024l4.617,5.2V-746c-.007-.836-.566-.936-.871-.943h-.276v-.4h.046c.494,0,.98.039,1.468.039.429,0,.861-.039,1.293-.039h.048v.4h-.2c-.436.013-.88.049-.892,1.287v4.78a6.846,6.846,0,0,0,.061,1.051l.01.053Z" transform="translate(-3852.984 802.752)"/>
    <path id="Path_3332" data-name="Path 3332" class="cls-2" d="M3874.442-747.03c-.788,0-.819.188-.977.955h-.314c.041-.293.1-.587.128-.892a6.654,6.654,0,0,0,.062-.891h.251c.085.315.348.3.631.3h5.42c.283,0,.544-.009.566-.325l.252.043c-.042.282-.086.567-.116.85s-.021.568-.021.851l-.315.118c-.021-.388-.075-1.01-.777-1.01h-1.722v5.588c0,.81.369.9.871.9h.2v.316c-.41,0-1.146-.043-1.711-.043-.631,0-1.367.043-1.778.043v-.316h.2c.581,0,.871-.053.871-.882v-5.609Z" transform="translate(-3860.767 803.001)"/>
    <path id="Path_3333" data-name="Path 3333" class="cls-2" d="M3878.533-740.228c-.413,0-1.146-.041-1.712-.041-.629,0-1.364.041-1.776.041H3875v-.406h.242c.582-.012.815-.02.825-.834v-5.563h-1.674v-.092h1.767v5.656c0,.842-.339.926-.918.928h-.151v.221c.413,0,1.12-.04,1.729-.04.548,0,1.249.039,1.664.04v-.221h-.153c-.508,0-.916-.125-.916-.949v-5.635h1.767c.7,0,.8.6.821.991l.226-.083c0-.274,0-.549.02-.825s.069-.537.109-.805l-.16-.027c-.05.3-.344.32-.608.316h-5.469c-.249,0-.518-.009-.612-.3h-.173a6.861,6.861,0,0,1-.063.851c-.031.289-.08.565-.117.845h.222c.14-.732.23-.97,1.015-.959v.092c-.777.015-.761.144-.933.921l-.008.036h-.406l.008-.054c.041-.3.1-.588.127-.893a6.064,6.064,0,0,0,.063-.884v-.045h.333l.006.031c.072.266.268.267.537.271h5.469c.292,0,.5-.008.524-.283l0-.048.049.009.293.048-.007.045c-.04.282-.081.565-.111.847s-.022.563-.022.847v.032l-.03.013-.37.134,0-.061c-.031-.393-.071-.964-.734-.964h-1.675v5.542c.008.792.322.845.823.855h.245v.406Z" transform="translate(-3860.719 803.048)"/>
    <path id="Path_3334" data-name="Path 3334" class="cls-2" d="M3887.57-740.251h.146c.378,0,.778-.054.778-.6v-5.5c0-.548-.4-.6-.778-.6h-.146v-.316c.64,0,1.733.042,2.61.042s1.977-.042,2.69-.042c-.018.451-.007,1.147.021,1.607l-.313.085c-.052-.683-.176-1.227-1.282-1.227h-1.458v2.749h1.249c.63,0,.767-.356.83-.925h.313c-.02.411-.03.82-.03,1.229s.01.8.03,1.2l-.313.061c-.063-.628-.094-1.037-.819-1.037h-1.259v2.444c0,.683.607.683,1.279.683,1.26,0,1.817-.084,2.133-1.28l.293.071c-.137.558-.262,1.115-.355,1.673-.674,0-1.882-.043-2.827-.043s-2.193.043-2.791.043Z" transform="translate(-3867.543 802.713)"/>
    <path id="Path_3335" data-name="Path 3335" class="cls-2" d="M3893.106-740.023c.093-.529.214-1.061.341-1.589l-.207-.052c-.315,1.176-.923,1.281-2.163,1.272-.662,0-1.325,0-1.325-.729v-2.49h1.3c.732-.008.806.433.858,1.031l.227-.049c-.019-.385-.03-.772-.03-1.158s.011-.788.03-1.184h-.227c-.057.549-.229.931-.869.925h-1.294v-2.843h1.5c1.093-.007,1.274.556,1.322,1.216l.228-.06c-.02-.3-.031-.677-.031-1.028,0-.179,0-.35.009-.5-.713,0-1.777.043-2.643.043s-1.924-.041-2.568-.043v.224h.1c.376,0,.821.065.822.647v5.5c0,.583-.446.645-.822.647h-.1v.221c.612,0,1.826-.04,2.748-.04s2.109.04,2.786.04m.041.091c-.676,0-1.882-.041-2.827-.041s-2.192.041-2.791.041h-.046v-.406h.192c.38-.006.725-.038.73-.553v-5.5c-.006-.513-.351-.547-.73-.556h-.192v-.4h.046c.64,0,1.733.039,2.611.039s1.975-.039,2.689-.039h.048l0,.046c-.009.159-.013.345-.013.542,0,.365.013.76.034,1.059v.039l-.035.009-.368.1,0-.054c-.062-.681-.152-1.176-1.234-1.185h-1.414v2.657h1.205c.6-.005.712-.314.784-.881l0-.042h.4l0,.049c-.02.408-.031.817-.031,1.226s.012.8.031,1.195l0,.04-.039.006-.365.075,0-.051c-.072-.642-.076-.991-.773-1h-1.216v2.4c0,.639.553.635,1.237.639,1.262-.01,1.772-.069,2.086-1.25l.012-.041.045.008.336.085-.008.045c-.139.553-.265,1.111-.356,1.669l-.009.034Z" transform="translate(-3867.501 802.752)"/>
    <path id="Path_3336" data-name="Path 3336" class="cls-2" d="M3902.027-743.72h.513c1.052,0,1.616-.4,1.616-1.636a1.431,1.431,0,0,0-1.532-1.532,5.387,5.387,0,0,0-.6.04Zm-1.345-2.435c0-.766-.42-.8-.747-.8h-.188v-.316c.336,0,.986.042,1.628.042s1.134-.042,1.691-.042c1.322,0,2.5.356,2.5,1.85a1.98,1.98,0,0,1-1.459,1.849l1.795,2.687a1.173,1.173,0,0,0,1.02.631v.316c-.347,0-.686-.043-1.031-.043-.324,0-.661.043-.984.043a29.107,29.107,0,0,1-2.186-3.405h-.693v2.249c0,.809.378.84.858.84h.19v.316c-.6,0-1.206-.043-1.806-.043-.505,0-1,.043-1.521.043v-.316h.188c.392,0,.747-.179.747-.568Z" transform="translate(-3873.264 802.713)"/>
    <path id="Path_3337" data-name="Path 3337" class="cls-2" d="M3902.5-743.8c1.041-.009,1.564-.371,1.573-1.591a1.389,1.389,0,0,0-1.489-1.49,4.452,4.452,0,0,0-.555.038v3.043Zm-.512.09h-.048v-3.215l.039,0a4.886,4.886,0,0,1,.6-.04,1.483,1.483,0,0,1,1.579,1.578c0,1.254-.6,1.68-1.664,1.681Zm0,.286h.717l.011.024a32.168,32.168,0,0,0,2.149,3.38c.319,0,.656-.042.984-.042s.661.035.984.04v-.229a1.2,1.2,0,0,1-1.009-.644l-1.828-2.733.052-.023a1.934,1.934,0,0,0,1.432-1.8c0-1.458-1.134-1.8-2.454-1.8-.554,0-1.058.043-1.689.043s-1.241-.041-1.584-.043v.224h.144c.327,0,.79.054.79.844v5.335c0,.422-.394.613-.79.614h-.144v.221c.505,0,.984-.04,1.475-.04.59,0,1.182.04,1.764.04v-.221h-.145c-.48,0-.906-.058-.906-.887v-2.294Zm4.892,3.494c-.352,0-.687-.041-1.031-.041-.32,0-.656.041-1.023.024a29.229,29.229,0,0,1-2.172-3.383h-.624v2.2c.014.789.331.784.817.794h.236v.406h-.049c-.6,0-1.211-.041-1.806-.041-.5,0-.993.041-1.52.041h-.047v-.406h.236c.379,0,.7-.164.7-.52V-746.2c-.01-.744-.374-.741-.7-.752h-.236v-.407h.047c.341,0,.986.041,1.629.041.627,0,1.128-.041,1.689-.041,1.324,0,2.542.369,2.545,1.9a2.012,2.012,0,0,1-1.436,1.868l1.764,2.642a1.118,1.118,0,0,0,.986.609l.039.006v.4Z" transform="translate(-3873.223 802.754)"/>
    <path id="Path_3338" data-name="Path 3338" class="cls-2" d="M3920.688-742.006l.019-.022v-3.937a.867.867,0,0,0-.915-.988h-.229v-.316c.492,0,.975.042,1.47.042.432,0,.858-.042,1.293-.042v.316h-.16c-.438,0-.935.084-.935,1.334v4.779a7.2,7.2,0,0,0,.064,1.06h-.4l-5.407-6.028v4.326c0,.916.178,1.23.987,1.23h.179v.316c-.451,0-.9-.043-1.354-.043-.474,0-.958.043-1.428.043v-.316h.144c.727,0,.948-.495.948-1.334v-4.423a.943.943,0,0,0-.954-.944h-.138v-.316c.4,0,.808.042,1.2.042.314,0,.622-.042.937-.042Z" transform="translate(-3879.901 802.713)"/>
    <path id="Path_3339" data-name="Path 3339" class="cls-2" d="M3920.617-742.069h0l-.008-.009Zm.027.022.031-.031Zm.208,2.18h.344a7.231,7.231,0,0,1-.056-1.013v-4.781c0-1.258.533-1.375.982-1.378h.111v-.224c-.413,0-.827.043-1.244.043-.483,0-.951-.041-1.425-.043v.224h.185a.92.92,0,0,1,.96,1.033l-.017,3.971-.018.02-.032.033-4.673-5.28c-.309,0-.616.043-.935.043-.39,0-.781-.041-1.165-.043v.224h.1a.989.989,0,0,1,1,.99v4.421c0,.843-.237,1.38-.99,1.382h-.1v.222c.456,0,.923-.04,1.384-.04.44,0,.877.039,1.312.04v-.221h-.134c-.826,0-1.031-.36-1.036-1.276v-4.444Zm.4.091-.434-.015-5.328-5.94v4.209c.013.916.152,1.172.941,1.182h.224v.406h-.047c-.452,0-.905-.041-1.355-.041-.468,0-.954.041-1.424.041h-.051v-.406h.194c.693,0,.894-.449.9-1.288v-4.421a.9.9,0,0,0-.906-.9h-.187v-.407h.051c.4,0,.811.041,1.2.041.31,0,.614-.041.963-.027l4.619,5.2v-3.864c0-.835-.562-.937-.868-.942h-.277v-.407h.046c.5,0,.98.041,1.472.041.428,0,.858-.041,1.291-.041h.046v.407h-.2c-.432.012-.878.049-.889,1.287v4.781a7.136,7.136,0,0,0,.06,1.053l.006.051Z" transform="translate(-3879.856 802.754)"/>
    <path id="Path_3340" data-name="Path 3340" class="cls-2" d="M3933-746.324h-.022L3932-743.35h1.96Zm-1.531,4.652a4.051,4.051,0,0,0-.236.819c0,.315.442.369.789.369h.115v.316c-.421-.024-.85-.043-1.272-.043-.379,0-.754.018-1.133.043v-.316h.064a.952.952,0,0,0,.912-.685l1.68-4.819a8.563,8.563,0,0,0,.393-1.3,5.3,5.3,0,0,0,.954-.449.282.282,0,0,1,.083-.021.073.073,0,0,1,.075.033c.031.082.063.178.1.261l1.931,5.492c.127.368.251.755.388,1.072a.669.669,0,0,0,.7.419h.062v.316c-.472-.024-.944-.043-1.447-.043s-1.042.018-1.576.043v-.316h.115c.24,0,.651-.043.651-.3a3.241,3.241,0,0,0-.214-.759l-.405-1.217H3931.8Z" transform="translate(-3887.353 802.945)"/>
    <path id="Path_3341" data-name="Path 3341" class="cls-2" d="M3932.913-746.351l.023-.008Zm-.892,2.911h1.84l-.912-2.812Zm-.125.091,1.006-3.062h.057v.046l-.01,0,.01,0v-.046h.031l1,3.062Zm2.149,3.089c.517-.018,1.028-.039,1.53-.039.486,0,.942.021,1.4.039v-.221h-.014a.71.71,0,0,1-.737-.447c-.137-.318-.265-.706-.389-1.075L3933.9-747.5c-.033-.083-.064-.178-.09-.253-.01-.01,0-.01-.014-.01h-.022a.243.243,0,0,0-.061.013,3.887,3.887,0,0,1-.933.421,8.786,8.786,0,0,1-.392,1.31l-1.68,4.821a.993.993,0,0,1-.955.712h-.017v.221c.359-.018.723-.039,1.087-.039.407,0,.824.021,1.223.039v-.221h-.068c-.343,0-.821-.042-.833-.412a4.184,4.184,0,0,1,.234-.833l.047.013-.047-.014.344-1.123h2.45l.422,1.249a3.3,3.3,0,0,1,.212.773c-.016.322-.46.343-.7.348h-.068Zm2.974.093c-.472-.018-.943-.041-1.444-.041-.516,0-1.038.023-1.575.041l-.049,0v-.412h.162c.242,0,.6-.053.605-.254a3.535,3.535,0,0,0-.208-.743l-.4-1.189h-2.316l-.325,1.061a4.459,4.459,0,0,0-.231.806c0,.258.4.317.745.317h.161v.412l-.049,0c-.42-.018-.848-.041-1.268-.041-.375,0-.755.023-1.13.041l-.051,0v-.412h.11a.893.893,0,0,0,.867-.647l1.682-4.821a12.257,12.257,0,0,0,.419-1.331,5.624,5.624,0,0,0,.953-.451.268.268,0,0,1,.1-.025.123.123,0,0,1,.116.062c.03.085.064.18.1.264l1.934,5.493c.124.367.25.756.387,1.065a.612.612,0,0,0,.651.39h.108v.412Z" transform="translate(-3887.312 802.987)"/>
    <path id="Path_3342" data-name="Path 3342" class="cls-2" d="M3943.285-747.03c-.787,0-.82.188-.978.955h-.315c.042-.293.1-.587.127-.892a6.346,6.346,0,0,0,.062-.891h.253c.083.315.347.3.629.3h5.419c.282,0,.545-.009.568-.325l.25.043c-.041.282-.083.567-.114.85s-.023.568-.023.851l-.314.118c-.021-.388-.07-1.01-.776-1.01h-1.72v5.588c0,.81.367.9.869.9h.2v.316c-.409,0-1.144-.043-1.71-.043-.629,0-1.366.043-1.776.043v-.316h.2c.58,0,.873-.053.873-.882v-5.609Z" transform="translate(-3893.113 803.001)"/>
    <path id="Path_3343" data-name="Path 3343" class="cls-2" d="M3947.374-740.228c-.412,0-1.147-.041-1.71-.041-.628,0-1.366.041-1.776.041h-.048v-.406h.247c.579-.012.813-.02.826-.834v-5.563h-1.674v-.092h1.768v5.656c0,.842-.343.926-.919.926h-.155v.224c.416,0,1.121-.042,1.732-.042.546,0,1.25.039,1.665.042v-.224h-.155c-.5,0-.914-.122-.916-.947v-5.635h1.768c.707,0,.8.6.819.991l.229-.083c0-.274,0-.549.021-.824s.068-.539.106-.806l-.16-.027c-.046.3-.342.32-.6.316h-5.472c-.247,0-.517-.009-.612-.305h-.174a5.7,5.7,0,0,1-.063.852c-.028.29-.078.567-.119.845h.226c.138-.732.231-.97,1.015-.959v.092c-.78.013-.763.144-.933.921l-.008.036h-.406l.007-.052c.044-.3.095-.59.127-.893a6.174,6.174,0,0,0,.064-.886v-.045h.332l.007.031c.075.266.266.267.536.271l.051,0h5.421c.29-.007.5-.01.52-.284v-.05l.052.009.3.048-.01.045c-.044.282-.082.565-.114.847s-.021.564-.021.847v.032l-.03.013-.372.134v-.061c-.028-.393-.069-.964-.734-.964h-1.675v5.542c.011.792.324.845.823.855h.248v.406Z" transform="translate(-3893.066 803.048)"/>
    <path id="Path_3344" data-name="Path 3344" class="cls-2" d="M3956.511-740.251h.146c.381,0,.775-.054.775-.6v-5.5c0-.548-.395-.6-.775-.6h-.146v-.316c.408,0,1.039.042,1.551.042.528,0,1.159-.042,1.651-.042v.316h-.144c-.382,0-.781.053-.781.6v5.5c0,.548.4.6.781.6h.144v.316c-.5,0-1.134-.043-1.66-.043s-1.135.043-1.543.043Z" transform="translate(-3899.935 802.713)"/>
    <path id="Path_3345" data-name="Path 3345" class="cls-2" d="M3959.625-740.023v-.223h-.1c-.377,0-.824-.063-.824-.646v-5.5c0-.582.447-.647.824-.647h.1v-.224c-.482,0-1.091.043-1.6.043-.5,0-1.1-.041-1.506-.043v.224h.1c.376,0,.824.065.824.647v5.5c0,.583-.448.646-.824.646h-.1v.223c.405,0,1-.04,1.5-.04s1.116.039,1.611.04m.047.091c-.509,0-1.135-.041-1.659-.041s-1.134.041-1.543.041h-.047v-.406h.191c.38-.006.731-.038.731-.553v-5.5c0-.513-.351-.548-.731-.556h-.191v-.4h.047c.409,0,1.041.039,1.55.039.526,0,1.154-.039,1.651-.039h.044v.4h-.188c-.386.007-.732.042-.736.556v5.5c0,.515.35.548.736.553h.188v.406Z" transform="translate(-3899.894 802.752)"/>
    <path id="Path_3346" data-name="Path 3346" class="cls-2" d="M3967.178-740.38c2.038,0,2.39-1.8,2.39-3.327s-.824-3.393-2.57-3.393c-1.838,0-2.385,1.638-2.385,3.044,0,1.88.861,3.676,2.565,3.676m-.16-7.182c2.24,0,4.024,1.388,4.024,3.624a3.851,3.851,0,0,1-3.968,4.021,3.712,3.712,0,0,1-3.931-3.77,3.821,3.821,0,0,1,3.874-3.875" transform="translate(-3903.051 802.852)"/>
    <path id="Path_3347" data-name="Path 3347" class="cls-2" d="M3964.526-744.1c0-1.414.556-3.09,2.432-3.09,1.783,0,2.615,1.9,2.617,3.44s-.361,3.371-2.438,3.371v-.088c2,0,2.343-1.752,2.347-3.283s-.82-3.345-2.526-3.349c-1.8,0-2.334,1.6-2.339,3,0,1.87.854,3.627,2.518,3.632v.088c-1.744,0-2.608-1.829-2.612-3.72m-1.467.369a3.874,3.874,0,0,1,3.919-3.922v.093a3.775,3.775,0,0,0-3.832,3.829,3.668,3.668,0,0,0,3.886,3.724,3.809,3.809,0,0,0,3.925-3.977c0-2.208-1.759-3.574-3.979-3.575v-.093c2.255,0,4.062,1.406,4.067,3.669a3.9,3.9,0,0,1-4.013,4.068,3.763,3.763,0,0,1-3.973-3.814" transform="translate(-3903.012 802.894)"/>
    <path id="Path_3348" data-name="Path 3348" class="cls-2" d="M3985.347-742.006l.022-.022v-3.937a.867.867,0,0,0-.916-.988h-.227v-.316c.493,0,.975.042,1.467.042.432,0,.862-.042,1.295-.042v.316h-.157c-.443,0-.938.084-.938,1.334v4.779a6.493,6.493,0,0,0,.067,1.06h-.4l-5.409-6.028v4.326c0,.916.178,1.23.986,1.23h.179v.316c-.452,0-.9-.043-1.353-.043-.475,0-.958.043-1.432.043v-.316h.15c.727,0,.945-.495.945-1.334v-4.423a.942.942,0,0,0-.955-.944h-.14v-.316c.4,0,.81.042,1.208.042.315,0,.62-.042.934-.042Z" transform="translate(-3910.281 802.713)"/>
    <path id="Path_3349" data-name="Path 3349" class="cls-2" d="M3985.284-742.067h0l-.006-.009Zm.024.022.035-.031Zm.212,2.18h.342a7.614,7.614,0,0,1-.053-1.013v-4.78c0-1.262.531-1.375.981-1.378h.111v-.224c-.415,0-.828.043-1.25.043-.479,0-.947-.041-1.42-.043v.224h.181a.92.92,0,0,1,.96,1.034l-.011,3.97-.02.02-.035.033-4.674-5.28c-.309,0-.617.043-.935.043-.386,0-.78-.041-1.164-.043v.224h.1a.992.992,0,0,1,1,.99v4.423c0,.839-.236,1.377-.99,1.38l-.105,0v.223c.458,0,.925-.04,1.385-.04.44,0,.875.039,1.309.04v-.221h-.135c-.824,0-1.031-.361-1.031-1.276v-4.445Zm.4.091-.435-.015-5.33-5.94v4.209c.013.915.154,1.172.942,1.179h.228v.409h-.047c-.456,0-.906-.041-1.355-.041-.47,0-.953.041-1.429.041h-.046v-.409h.195c.692,0,.891-.446.9-1.283v-4.423a.9.9,0,0,0-.908-.9h-.185v-.4h.046c.4,0,.812.039,1.207.039.312,0,.614-.039.972-.024l4.613,5.2V-746c0-.836-.562-.936-.87-.943h-.275v-.4h.047c.494,0,.979.039,1.466.039.431,0,.859-.039,1.3-.039h.043v.4h-.2c-.434.013-.881.051-.889,1.287v4.78a6.936,6.936,0,0,0,.059,1.053l.009.051Z" transform="translate(-3910.242 802.752)"/>
    <path id="Path_3350" data-name="Path 3350" class="cls-2" d="M3997.665-746.324h-.02l-.979,2.974h1.967Zm-1.535,4.652a4.364,4.364,0,0,0-.23.819c0,.315.443.369.788.369h.116v.316c-.422-.024-.853-.043-1.272-.043-.378,0-.756.018-1.132.043v-.316h.058a.952.952,0,0,0,.916-.685l1.681-4.819a8.449,8.449,0,0,0,.386-1.3,5.393,5.393,0,0,0,.958-.449.271.271,0,0,1,.086-.021.069.069,0,0,1,.072.033c.03.082.065.178.095.261l1.93,5.492c.127.368.254.755.392,1.072a.663.663,0,0,0,.691.419h.064v.316c-.472-.024-.946-.043-1.45-.043s-1.041.018-1.575.043v-.316h.116c.241,0,.653-.043.653-.3a3.266,3.266,0,0,0-.214-.759l-.406-1.217h-2.386Z" transform="translate(-3917.737 802.945)"/>
    <path id="Path_3351" data-name="Path 3351" class="cls-2" d="M3997.583-746.35l.02-.008Zm-.892,2.911h1.837l-.916-2.811Zm-.128.091,1.008-3.063h.053v.046l-.01,0,.01,0v-.046h.034l.991,3.063Zm2.145,3.09c.521-.02,1.032-.04,1.531-.04s.946.021,1.4.039l0-.221h-.017a.716.716,0,0,1-.733-.448c-.14-.318-.263-.706-.389-1.074l-1.933-5.494c-.029-.083-.064-.178-.087-.25-.01-.012-.009-.012-.015-.012h-.022a.222.222,0,0,0-.06.013,3.886,3.886,0,0,1-.935.422,9.006,9.006,0,0,1-.391,1.31l-1.679,4.821a1,1,0,0,1-.959.712h-.015v.221c.362-.018.724-.039,1.088-.039.405,0,.822.021,1.224.039v-.221h-.069c-.341,0-.82-.04-.836-.414a4.428,4.428,0,0,1,.236-.832l.043.013-.043-.014.346-1.123h2.45l.419,1.248a3.2,3.2,0,0,1,.211.773c-.016.322-.457.343-.694.348h-.073Zm2.979.091c-.474-.018-.946-.041-1.448-.041s-1.036.023-1.573.041l-.046,0v-.409h.161c.243,0,.6-.056.6-.256a3.461,3.461,0,0,0-.21-.743l-.4-1.189h-2.319l-.323,1.062a4.28,4.28,0,0,0-.229.8c0,.259.392.321.742.321h.16v.409l-.048,0c-.42-.018-.849-.041-1.268-.041-.377,0-.753.023-1.132.041l-.046,0v-.409h.1a.91.91,0,0,0,.874-.65l1.68-4.821a12.686,12.686,0,0,0,.415-1.331,5.628,5.628,0,0,0,.957-.451.244.244,0,0,1,.1-.024.116.116,0,0,1,.115.064c.031.08.062.176.095.261l1.935,5.493c.124.367.25.757.387,1.067a.618.618,0,0,0,.648.391h.112v.409Z" transform="translate(-3917.698 802.986)"/>
    <path id="Path_3352" data-name="Path 3352" class="cls-2" d="M4011.2-740.966c0,.422.292.545.627.589a7.505,7.505,0,0,0,1.388-.023,1.5,1.5,0,0,0,1.007-.566,2.388,2.388,0,0,0,.325-.757h.3c-.112.6-.261,1.189-.388,1.787-.92,0-1.847-.043-2.771-.043s-1.848.043-2.771.043v-.316h.143c.38,0,.791-.054.791-.7v-5.4c0-.548-.411-.6-.791-.6h-.143v-.316c.556,0,1.1.042,1.659.042.537,0,1.06-.042,1.6-.042v.316h-.261c-.4,0-.713.011-.713.568Z" transform="translate(-3924.558 802.713)"/>
    <path id="Path_3353" data-name="Path 3353" class="cls-2" d="M4014.381-740.023c.121-.568.26-1.126.371-1.692h-.216a2.389,2.389,0,0,1-.324.739,1.553,1.553,0,0,1-1.041.584c-.276.028-.545.044-.8.044-.2,0-.4-.01-.588-.024-.344-.037-.676-.184-.674-.633v-5.419c0-.585.37-.613.763-.613h.215v-.224c-.515,0-1.026.043-1.549.043-.545,0-1.076-.041-1.614-.043v.224h.1c.375,0,.834.065.834.645v5.4c0,.679-.456.749-.834.749h-.1v.223c.906,0,1.814-.04,2.727-.04s1.823.04,2.734.04m.036.091c-.926,0-1.847-.041-2.771-.041s-1.848.041-2.774.041h-.044v-.406h.191c.379-.008.739-.034.744-.656v-5.4c-.005-.512-.363-.547-.744-.554h-.191v-.4h.044c.558,0,1.106.039,1.661.039.534,0,1.057-.039,1.595-.039h.044v.4h-.3c-.407.012-.662-.007-.67.522V-741c0,.39.261.5.588.541.186.013.38.022.582.022a7.8,7.8,0,0,0,.8-.04,1.477,1.477,0,0,0,.977-.551,2.389,2.389,0,0,0,.316-.739l.01-.036h.4l-.009.055c-.119.6-.262,1.188-.391,1.786l-.009.034Z" transform="translate(-3924.517 802.752)"/>
  </g>
</svg>
