<svg id="Paypal_large" xmlns="http://www.w3.org/2000/svg" width="154" height="108" viewBox="0 0 154 108">
  <defs>
    <style>
      .cls-1 {
        fill: none;
      }

      .cls-2 {
        fill: #003087;
      }

      .cls-3 {
        fill: #002f86;
      }

      .cls-4 {
        fill: #009cde;
      }

      .cls-5 {
        fill: #012069;
      }
    </style>
  </defs>
  <rect id="Rectangle_1607" data-name="Rectangle 1607" class="cls-1" width="154" height="108"/>
  <rect id="Rectangle_1665" data-name="Rectangle 1665" class="cls-1" width="108" height="77" transform="translate(116) rotate(90)"/>
  <rect id="Rectangle_1676" data-name="Rectangle 1676" class="cls-1" width="108" height="85" transform="translate(131 97) rotate(180)"/>
  <g id="Gruppe_2384" data-name="Gruppe 2384" transform="translate(22.633 40.641)">
    <path id="path14499" class="cls-2" d="M210.6,514.685c-1.272-1.45-3.57-2.071-6.51-2.071h-8.533a1.223,1.223,0,0,0-1.211,1.031l-3.553,22.532a.733.733,0,0,0,.724.847h5.268l1.322-8.39-.041.26a1.218,1.218,0,0,1,1.2-1.03h2.508c4.918,0,8.769-2,9.893-7.776.034-.173.062-.339.087-.5h0a5.448,5.448,0,0,0-1.158-4.905" transform="translate(-190.783 -512.614)"/>
    <path id="path14519" class="cls-3" d="M297.373,532.579h-2.834a.819.819,0,0,0-.677.359l-3.912,5.759-1.657-5.535a.82.82,0,0,0-.785-.585H284.72a.491.491,0,0,0-.491.491.486.486,0,0,0,.026.158l3.122,9.164-2.936,4.143a.491.491,0,0,0,.4.779h2.832a.819.819,0,0,0,.673-.352l9.427-13.608a.491.491,0,0,0-.4-.771m-18.954,5.49a3.145,3.145,0,0,1-3.184,2.694,2.185,2.185,0,0,1-2.335-2.742,3.155,3.155,0,0,1,3.16-2.715,2.376,2.376,0,0,1,1.88.769,2.43,2.43,0,0,1,.478,2m3.932-5.49h-2.818a.491.491,0,0,0-.485.414l-.124.788-.2-.284c-.612-.887-1.973-1.184-3.333-1.184a6.487,6.487,0,0,0-6.3,5.673,5.324,5.324,0,0,0,1.05,4.334,4.411,4.411,0,0,0,3.552,1.434,5.4,5.4,0,0,0,3.905-1.614l-.126.784a.491.491,0,0,0,.408.561.435.435,0,0,0,.077.006h2.54a.818.818,0,0,0,.809-.692l1.525-9.655a.493.493,0,0,0-.412-.562.511.511,0,0,0-.074-.006m-16.926.068c-.322,2.114-1.938,2.114-3.5,2.114h-.888l.623-3.947a.49.49,0,0,1,.485-.414h.407c1.063,0,2.067,0,2.585.606a1.964,1.964,0,0,1,.285,1.643m-.679-5.518h-5.891a.819.819,0,0,0-.809.692l-2.381,15.1a.49.49,0,0,0,.408.56.485.485,0,0,0,.076.006h2.812a.82.82,0,0,0,.809-.692l.642-4.075a.819.819,0,0,1,.808-.692h1.864c3.881,0,6.12-1.878,6.7-5.6a4.535,4.535,0,0,0-.752-3.8,5.462,5.462,0,0,0-4.293-1.5" transform="translate(-223.135 -519.853)"/>
    <path id="path14523" class="cls-4" d="M369.481,527.543l-2.422,15.381a.492.492,0,0,0,.41.562.486.486,0,0,0,.076.006h2.431a.818.818,0,0,0,.808-.692l2.384-15.1a.49.49,0,0,0-.407-.561.511.511,0,0,0-.078-.006H369.97a.49.49,0,0,0-.485.415m-7.256,10.524a3.146,3.146,0,0,1-3.184,2.694,2.185,2.185,0,0,1-2.335-2.743,3.155,3.155,0,0,1,3.16-2.715,2.377,2.377,0,0,1,1.88.769,2.43,2.43,0,0,1,.478,2m3.932-5.49H363.34a.491.491,0,0,0-.485.414l-.124.788-.2-.285c-.611-.886-1.972-1.184-3.331-1.184a6.486,6.486,0,0,0-6.3,5.673,5.328,5.328,0,0,0,1.051,4.334,4.411,4.411,0,0,0,3.552,1.434,5.4,5.4,0,0,0,3.905-1.614l-.126.785a.49.49,0,0,0,.409.561.5.5,0,0,0,.077.006h2.54a.818.818,0,0,0,.809-.692l1.525-9.655a.493.493,0,0,0-.411-.562.523.523,0,0,0-.074-.006m-16.927.068c-.322,2.114-1.937,2.114-3.5,2.114h-.888l.623-3.947a.49.49,0,0,1,.485-.414h.407c1.063,0,2.067,0,2.585.606a1.967,1.967,0,0,1,.285,1.643m-.679-5.518h-5.891a.819.819,0,0,0-.809.692l-2.382,15.1a.49.49,0,0,0,.408.56.481.481,0,0,0,.076.006h3.023a.572.572,0,0,0,.565-.483l.676-4.282a.818.818,0,0,1,.808-.692h1.864c3.88,0,6.119-1.878,6.7-5.6a4.535,4.535,0,0,0-.75-3.8,5.464,5.464,0,0,0-4.293-1.5" transform="translate(-264.928 -519.851)"/>
    <path id="path14527" class="cls-2" d="M210.6,514.685c-1.272-1.45-3.57-2.071-6.51-2.071h-8.533a1.223,1.223,0,0,0-1.211,1.031l-3.553,22.532a.733.733,0,0,0,.724.847h5.268l1.322-8.39-.041.26a1.218,1.218,0,0,1,1.2-1.03h2.508c4.918,0,8.769-2,9.893-7.776.034-.173.062-.339.087-.5h0a5.448,5.448,0,0,0-1.158-4.905" transform="translate(-190.783 -512.614)"/>
    <path id="path14531" class="cls-3" d="M199.527,519.618a1.065,1.065,0,0,1,1.055-.9h6.69a14.013,14.013,0,0,1,2.206.16q.29.047.563.107t.53.136c.086.025.173.051.253.078a6.048,6.048,0,0,1,.925.391,5.449,5.449,0,0,0-1.158-4.905c-1.272-1.45-3.569-2.07-6.509-2.07H195.55a1.223,1.223,0,0,0-1.211,1.03l-3.547,22.533a.731.731,0,0,0,.607.838.755.755,0,0,0,.116.009h5.268l1.322-8.39,1.422-9.014Z" transform="translate(-190.783 -512.614)"/>
    <path id="path14535" class="cls-4" d="M217.354,526.53h0c-.027.163-.054.329-.086.5-1.124,5.777-4.975,7.775-9.893,7.775h-2.508a1.216,1.216,0,0,0-1.2,1.03l-1.282,8.13-.364,2.306a.641.641,0,0,0,.534.734.652.652,0,0,0,.1.008h4.44a1.069,1.069,0,0,0,1.055-.9l.043-.227.837-5.3.054-.293a1.068,1.068,0,0,1,1.055-.9h.664c4.3,0,7.671-1.748,8.654-6.8.411-2.112.2-3.876-.888-5.115a4.232,4.232,0,0,0-1.216-.937" transform="translate(-196.382 -519.554)"/>
    <path id="path14539" class="cls-5" d="M217.824,525.189c-.173-.05-.346-.1-.531-.136s-.371-.076-.563-.107a13.854,13.854,0,0,0-2.207-.162h-6.689a1.042,1.042,0,0,0-.461.106,1.066,1.066,0,0,0-.595.8l-1.421,9.014-.041.259a1.215,1.215,0,0,1,1.2-1.03h2.5c4.917,0,8.768-2,9.894-7.776.034-.173.061-.336.086-.5a6.046,6.046,0,0,0-.925-.39c-.086-.028-.167-.054-.253-.08" transform="translate(-198.031 -518.683)"/>
  </g>
</svg>
