<svg id="Group_2747" data-name="Group 2747" xmlns="http://www.w3.org/2000/svg" width="97.851" height="42.321" viewBox="0 0 97.851 42.321">
  <defs>
    <style>
      .cls-1 {
        fill: #fff;
      }

      .cls-2 {
        fill: #0b3677;
      }

      .cls-3 {
        fill: #e20613;
      }
    </style>
  </defs>
  <g id="Group_2643" data-name="Group 2643" transform="translate(0 0)">
    <g id="Group_2641" data-name="Group 2641" transform="translate(54.266 15.426)">
      <path id="Path_3525" data-name="Path 3525" class="cls-1" d="M409.5,485.119c0,3.123-1.682,5.717-4.826,5.717a3.668,3.668,0,0,1-3.35-1.72h-.041v5.737h-3.652V480.031h3.368v1.907h.041a4.165,4.165,0,0,1,3.938-2.149C407.9,479.789,409.5,482.566,409.5,485.119Z" transform="translate(-397.626 -479.789)"/>
      <path id="Path_3526" data-name="Path 3526" class="cls-1" d="M431.889,488.1a12.921,12.921,0,0,0,.2,2.494h-3.347c-.021-.567-.083-1.116-.083-1.661h-.042a3.625,3.625,0,0,1-3.347,1.906c-2.09,0-3.955-1.036-3.955-3.326,0-3.223,3.509-3.61,5.458-3.61a10.9,10.9,0,0,1,1.7.142c-.021-1.441-1.1-1.824-2.415-1.824a6.888,6.888,0,0,0-3.368.791l-.062-2.473a10.915,10.915,0,0,1,4.221-.75c2.7,0,5.033,1.154,5.033,4.377Z" transform="translate(-407.868 -479.789)"/>
    </g>
    <g id="Group_2642" data-name="Group 2642">
      <path id="Path_3527" data-name="Path 3527" class="cls-2" d="M421.647,488.1v-3.934c0-3.223-2.332-4.377-5.033-4.377a10.915,10.915,0,0,0-4.221.75l.062,2.473a6.888,6.888,0,0,1,3.368-.791c1.319,0,2.394.383,2.415,1.824a10.9,10.9,0,0,0-1.7-.142c-1.948,0-5.458.387-5.458,3.61,0,2.29,1.865,3.326,3.955,3.326a3.625,3.625,0,0,0,3.347-1.906h.041c0,.546.063,1.095.083,1.661h3.347A12.933,12.933,0,0,1,421.647,488.1Zm-16.674-8.311a4.165,4.165,0,0,0-3.938,2.149h-.041v-1.907h-3.368v14.822h3.652v-5.737h.041a3.668,3.668,0,0,0,3.35,1.72c3.143,0,4.826-2.594,4.826-5.717C409.5,482.566,407.9,479.789,404.974,479.789Z" transform="translate(-343.36 -464.363)"/>
      <path id="Path_3528" data-name="Path 3528" class="cls-2" d="M392.591,452.617H309.344a7.3,7.3,0,0,0-7.3,7.3v27.731a7.3,7.3,0,0,0,7.3,7.3h83.247a7.3,7.3,0,0,0,7.3-7.3V459.912A7.3,7.3,0,0,0,392.591,452.617Zm-39.748,39.2h-43.5a4.184,4.184,0,0,1-4.18-4.176V459.912a4.182,4.182,0,0,1,4.18-4.176h43.5Zm10.508-12.729a3.668,3.668,0,0,1-3.35-1.72h-.041v5.737h-3.652V468.285h3.368v1.907h.041a4.165,4.165,0,0,1,3.938-2.149c2.922,0,4.521,2.777,4.521,5.33C368.177,476.5,366.494,479.09,363.351,479.09Zm13.834-.242c-.02-.567-.083-1.116-.083-1.661h-.041a3.625,3.625,0,0,1-3.347,1.907c-2.09,0-3.955-1.036-3.955-3.326,0-3.223,3.509-3.61,5.458-3.61a10.911,10.911,0,0,1,1.7.141c-.021-1.44-1.1-1.824-2.415-1.824a6.888,6.888,0,0,0-3.368.791l-.062-2.473a10.916,10.916,0,0,1,4.221-.75c2.7,0,5.033,1.154,5.033,4.377v3.934a12.931,12.931,0,0,0,.2,2.494Zm12.978-2.1-.542,1.375c-1.037,2.653-1.828,5.23-5.175,5.23a10.682,10.682,0,0,1-2.273-.242l.245-2.781a4.261,4.261,0,0,0,1.44.225,1.855,1.855,0,0,0,1.845-1.461l-4.28-10.8h3.934l2.273,6.9h.041l2.169-6.9H393.5Z" transform="translate(-302.042 -452.617)"/>
    </g>
    <path id="Path_3529" data-name="Path 3529" class="cls-1" d="M404.974,479.789a4.165,4.165,0,0,0-3.938,2.149h-.041v-1.907h-3.368v14.822h3.652v-5.737h.041a3.668,3.668,0,0,0,3.35,1.72c3.143,0,4.826-2.594,4.826-5.717C409.5,482.566,407.9,479.789,404.974,479.789Zm-1.461,8.252a2.477,2.477,0,0,1-2.234-2.7c0-1.582.894-2.756,2.234-2.756a2.337,2.337,0,0,1,2.211,2.614C405.723,486.884,404.891,488.041,403.512,488.041Z" transform="translate(-343.36 -464.363)"/>
    <path id="Path_3530" data-name="Path 3530" class="cls-1" d="M431.889,488.1v-3.934c0-3.223-2.332-4.377-5.033-4.377a10.915,10.915,0,0,0-4.221.75l.062,2.473a6.888,6.888,0,0,1,3.368-.791c1.319,0,2.393.383,2.415,1.824a10.9,10.9,0,0,0-1.7-.142c-1.948,0-5.458.387-5.458,3.61,0,2.29,1.865,3.326,3.955,3.326a3.625,3.625,0,0,0,3.347-1.906h.042c0,.546.062,1.095.083,1.661h3.347A12.921,12.921,0,0,1,431.889,488.1Zm-5.661.3c-.853,0-1.5-.425-1.5-1.154,0-1.015.974-1.4,2.214-1.4.546,0,1.074.038,1.541.059A2.378,2.378,0,0,1,426.227,488.4Z" transform="translate(-353.602 -464.363)"/>
    <path id="Path_3531" data-name="Path 3531" class="cls-1" d="M453.938,480.215l-3.333,8.46-.542,1.374c-1.037,2.653-1.828,5.23-5.175,5.23a10.68,10.68,0,0,1-2.273-.242l.245-2.781a4.261,4.261,0,0,0,1.44.225,1.855,1.855,0,0,0,1.844-1.461l-4.28-10.805H445.8l2.273,6.9h.041l2.169-6.9Z" transform="translate(-362.484 -464.547)"/>
    <path id="Path_3532" data-name="Path 3532" class="cls-3" d="M320.431,485.22c0-1.439.71-2.635,2.069-2.635a2.311,2.311,0,0,1,2.333,2.493A2.468,2.468,0,0,1,322.5,487.8c-1.1,0-2.069-.933-2.069-2.575Zm7.933-5.19h-3.308v1.905h-.04a4.128,4.128,0,0,0-3.592-2.148c-3.287,0-4.768,2.352-4.768,5.495,0,3.123,1.805,5.311,4.708,5.311a4.113,4.113,0,0,0,3.55-1.8h.041v.569c0,2.068-1.135,3.061-3.246,3.061a7.269,7.269,0,0,1-3.571-.872l-.183,2.879a12.346,12.346,0,0,0,4.038.67c4.261,0,6.371-1.4,6.371-5.738Z" transform="translate(-308.36 -464.362)"/>
    <path id="Path_3533" data-name="Path 3533" class="cls-3" d="M345.37,472.465h-3.652v2.676h3.652Zm-3.652,14.963h3.652V476.865h-3.652Z" transform="translate(-319.193 -461.197)"/>
    <path id="Path_3534" data-name="Path 3534" class="cls-3" d="M360.178,479.907a7.85,7.85,0,0,0-1.238-.12,3.261,3.261,0,0,0-3.125,2.189h-.04V480.03h-3.328v10.563H356.1v-4.459c0-2.069.954-3.305,2.659-3.305a4.232,4.232,0,0,1,1.237.121Z" transform="translate(-323.831 -464.362)"/>
    <path id="Path_3535" data-name="Path 3535" class="cls-3" d="M372.46,488.282c-1.684,0-2.374-1.4-2.374-2.96,0-1.582.69-2.981,2.374-2.981s2.374,1.4,2.374,2.981c0,1.561-.69,2.96-2.374,2.96Zm0,2.555c3.489,0,6.147-2.027,6.147-5.514,0-3.509-2.658-5.535-6.147-5.535s-6.148,2.027-6.148,5.535c0,3.487,2.658,5.514,6.148,5.514Z" transform="translate(-329.824 -464.362)"/>
  </g>
</svg>
