<svg id="Maestro_large" xmlns="http://www.w3.org/2000/svg" width="155" height="108" viewBox="0 0 155 108">
  <defs>
    <style>
      .cls-1 {
        fill: none;
      }

      .cls-2 {
        fill: #6c6bbd;
      }

      .cls-3 {
        fill: #d32011;
      }

      .cls-4 {
        fill: #0099df;
      }

      .cls-5 {
        fill: #110f0d;
      }
    </style>
  </defs>
  <rect id="Rectangle_1770" data-name="Rectangle 1770" class="cls-1" width="154" height="108"/>
  <rect id="Rectangle_1768" data-name="Rectangle 1768" class="cls-1" width="108.245" height="85.12" transform="translate(131.616 96.929) rotate(180)"/>
  <rect id="Rectangle_1769" data-name="Rectangle 1769" class="cls-1" width="108" height="77" transform="translate(116) rotate(90)"/>
  <g id="Group_2746" data-name="Group 2746" transform="translate(39.143 24.302)">
    <path id="Path_3425" data-name="Path 3425" class="cls-2" d="M2596.626,1119.179h-20.681v-37.166h20.681Z" transform="translate(-2548.045 -1076.96)"/>
    <path id="Path_3426" data-name="Path 3426" class="cls-3" d="M2544.615,1094.685a23.6,23.6,0,0,1,9.028-18.584,23.637,23.637,0,1,0,0,37.166,23.594,23.594,0,0,1-9.028-18.582" transform="translate(-2515.403 -1071.048)"/>
    <path id="Path_3427" data-name="Path 3427" class="cls-4" d="M2636.624,1094.685a23.636,23.636,0,0,1-38.243,18.582,23.638,23.638,0,0,0,0-37.166,23.636,23.636,0,0,1,38.243,18.584" transform="translate(-2560.141 -1071.048)"/>
    <path id="Path_3428" data-name="Path 3428" class="cls-5" d="M2585.626,1183.405a2.9,2.9,0,0,1,.971.171l-.42,1.286a2.213,2.213,0,0,0-.854-.158c-.892,0-1.338.577-1.338,1.614v3.519h-1.366v-6.276h1.351v.763a1.857,1.857,0,0,1,1.656-.92Zm-5.047,1.405h-2.232v2.836c0,.63.223,1.05.907,1.05a2.514,2.514,0,0,0,1.206-.354l.394,1.167a3.194,3.194,0,0,1-1.707.488c-1.615,0-2.178-.867-2.178-2.325v-2.861H2575.7v-1.248h1.274v-1.9h1.377v1.9h2.232v1.248Zm-17.475,1.338a1.617,1.617,0,0,1,1.668-1.523,1.557,1.557,0,0,1,1.588,1.523Zm4.674.552a3.009,3.009,0,0,0-2.98-3.3,3.3,3.3,0,0,0,.093,6.59,3.815,3.815,0,0,0,2.573-.879l-.67-1.012a2.984,2.984,0,0,1-1.824.657,1.743,1.743,0,0,1-1.877-1.536h4.66c.014-.171.026-.342.026-.524Zm6-1.536a4.017,4.017,0,0,0-1.955-.539c-.748,0-1.195.276-1.195.736,0,.419.472.538,1.063.616l.642.091c1.368.2,2.193.776,2.193,1.879,0,1.194-1.05,2.048-2.861,2.048a4.53,4.53,0,0,1-2.718-.814l.643-1.064a3.351,3.351,0,0,0,2.089.657c.931,0,1.43-.275,1.43-.761,0-.354-.354-.552-1.1-.655l-.645-.092c-1.4-.2-2.167-.828-2.167-1.851,0-1.247,1.024-2.009,2.614-2.009a4.69,4.69,0,0,1,2.559.657l-.591,1.1Zm16.838-.463a2.058,2.058,0,0,0-.782.148,1.86,1.86,0,0,0-.625.414,1.914,1.914,0,0,0-.417.638,2.328,2.328,0,0,0,0,1.639,1.924,1.924,0,0,0,.417.639,1.875,1.875,0,0,0,.625.415,2.157,2.157,0,0,0,1.565,0,1.881,1.881,0,0,0,1.048-1.053,2.311,2.311,0,0,0,0-1.639,1.9,1.9,0,0,0-.42-.638,1.883,1.883,0,0,0-.628-.414,2.06,2.06,0,0,0-.783-.148Zm0-1.3a3.547,3.547,0,0,1,1.354.254,3.3,3.3,0,0,1,1.075.7,3.187,3.187,0,0,1,.711,1.049,3.5,3.5,0,0,1,0,2.633,3.192,3.192,0,0,1-.711,1.05,3.313,3.313,0,0,1-1.075.7,3.748,3.748,0,0,1-2.705,0,3.279,3.279,0,0,1-1.072-.7,3.225,3.225,0,0,1-.708-1.05,3.5,3.5,0,0,1,0-2.633,3.219,3.219,0,0,1,.708-1.049,3.262,3.262,0,0,1,1.072-.7,3.532,3.532,0,0,1,1.352-.254Zm-35.488,3.3a1.9,1.9,0,1,1,1.9,2.007,1.883,1.883,0,0,1-1.9-2.007Zm5.08,0v-3.139h-1.363v.763a2.382,2.382,0,0,0-1.983-.92,3.3,3.3,0,0,0,0,6.591,2.383,2.383,0,0,0,1.983-.92v.762h1.363Zm-7.692,3.138V1185.9a2.337,2.337,0,0,0-2.468-2.494,2.429,2.429,0,0,0-2.205,1.116,2.306,2.306,0,0,0-2.075-1.116,2.076,2.076,0,0,0-1.838.932v-.775h-1.365v6.276h1.379v-3.479a1.468,1.468,0,0,1,1.535-1.668c.906,0,1.366.59,1.366,1.654v3.493h1.377v-3.479a1.481,1.481,0,0,1,1.536-1.668c.933,0,1.378.59,1.378,1.654v3.493Z" transform="translate(-2530.047 -1130.684)"/>
  </g>
</svg>
