<svg width="16" height="16" viewBox="0 0 16 16" fill="none" xmlns="http://www.w3.org/2000/svg">
<path d="M4.14075 4.14087C3.45552 4.8261 3.07812 5.73717 3.07812 6.70624C3.07812 7.02987 3.34046 7.29221 3.66409 7.29221C3.98772 7.29221 4.25006 7.02987 4.25006 6.70624C4.25006 6.05019 4.50554 5.43343 4.96943 4.96955C5.43331 4.50567 6.0501 4.25018 6.70612 4.25018C7.02975 4.25018 7.29209 3.98785 7.29209 3.66422C7.29209 3.34059 7.02975 3.07825 6.70612 3.07825C5.73707 3.07825 4.82598 3.45561 4.14075 4.14087Z" fill="white"/>
<path d="M14.9809 12.4708L13.7919 11.2817C13.9676 11.052 13.9504 10.7221 13.7403 10.5119C13.5114 10.2831 13.1404 10.2831 12.9116 10.5119L12.1275 11.296L11.1036 10.2614C10.9937 10.1503 10.844 10.0878 10.6877 10.0876H10.6871C10.5311 10.0876 10.3815 10.1499 10.2715 10.2606L10.266 10.266C8.30317 12.2289 5.10935 12.2289 3.14647 10.266C2.19562 9.31519 1.67194 8.05096 1.67194 6.70625C1.67194 5.36155 2.19562 4.09732 3.14647 3.14647C4.09732 2.19562 5.36155 1.67194 6.70626 1.67194C8.05097 1.67194 9.31519 2.19562 10.266 3.14647C11.5216 4.40202 12.0186 6.18266 11.5955 7.90969C11.5184 8.224 11.7108 8.54124 12.0252 8.61827C12.3395 8.69538 12.6567 8.50289 12.7337 8.18858C12.9831 7.17081 12.9709 6.09825 12.6985 5.08681C12.4174 4.04344 11.8629 3.08594 11.0947 2.31782C9.92255 1.14556 8.36399 0.5 6.70626 0.5C5.04849 0.5 3.48996 1.14556 2.31779 2.31776C1.14556 3.48996 0.5 5.04849 0.5 6.70625C0.5 8.36402 1.14556 9.92252 2.31776 11.0947C3.52767 12.3047 5.11696 12.9096 6.70623 12.9096C8.11413 12.9096 9.52195 12.4349 10.6661 11.4854L11.2988 12.1248L10.5119 12.9116C10.2831 13.1405 10.2831 13.5115 10.5119 13.7403C10.6263 13.8547 10.7763 13.9119 10.9263 13.9119C11.0517 13.9119 11.1771 13.8719 11.2817 13.7919L12.4707 14.9809C12.8168 15.327 13.2713 15.5 13.7258 15.5C14.1803 15.5 14.6348 15.327 14.9809 14.9809C15.673 14.2889 15.673 13.1628 14.9809 12.4708ZM14.1522 14.1522C13.9172 14.3873 13.5345 14.3873 13.2995 14.1522L12.1141 12.9669L12.9669 12.1141L14.1522 13.2995C14.3874 13.5346 14.3874 13.9171 14.1522 14.1522Z" fill="white"/>
</svg>
