<svg width="20" height="20" viewBox="0 0 20 20" fill="none" xmlns="http://www.w3.org/2000/svg">
<path d="M18.9279 18.4375H7.36965C6.50734 18.4375 5.71453 18.0043 5.24879 17.2786C5.24558 17.2736 5.24234 17.2687 5.23906 17.2638L2.14863 12.6801C1.86711 12.2554 1.64445 11.4885 2.18246 11.1104C2.53359 10.8636 3.00304 10.895 3.31937 11.1797L6.06449 15.0784C6.56187 15.8139 7.3866 16.2537 8.27445 16.2571C8.27804 16.2571 12.8391 16.2571 12.8391 16.2571C13.2706 16.2571 13.6203 15.9074 13.6203 15.4759C13.6203 15.0444 13.2706 14.6946 12.8391 14.6946H8.29129C8.28929 14.6946 8.2873 14.6946 8.28531 14.6946C7.76957 14.6946 7.35 14.2656 7.35 13.7382C7.35 13.2109 7.76957 12.7818 8.28562 12.7818L15.6255 12.7788H15.6266C16.2995 12.7788 16.9322 13.0408 17.4081 13.5165C17.8843 13.9925 18.1466 14.6255 18.1466 15.2988C18.1466 15.7303 18.4964 16.0801 18.9278 16.0801C19.3593 16.0801 19.7091 15.7303 19.7091 15.2988C19.7091 14.208 19.2842 13.1826 18.5127 12.4114C17.7417 11.6407 16.7168 11.2163 15.6266 11.2163H15.6249L8.28523 11.2193C7.36969 11.2193 6.56762 11.7186 6.13273 12.4614L4.55394 10.2192C4.52914 10.1839 4.5014 10.1508 4.47113 10.1201C3.61726 9.25527 2.27676 9.13418 1.28394 9.83211C0.677732 10.2581 0.325857 10.9097 0.293044 11.6669C0.265623 12.2993 0.463005 12.9671 0.848748 13.5472C0.849646 13.5486 0.850622 13.55 0.851521 13.5514L3.93875 18.1303C4.69394 19.3012 5.97578 20 7.36965 20H18.9279C19.3594 20 19.7091 19.6502 19.7091 19.2188C19.7091 18.7873 19.3594 18.4375 18.9279 18.4375ZM6.04246 9.24535H12.9881C14.1235 9.24535 15.0472 8.32164 15.0472 7.18625V2.0591C15.0472 0.923711 14.1235 0 12.9881 0H6.04246C4.90707 0 3.98332 0.923711 3.98332 2.0591V7.18621C3.98336 8.32164 4.90707 9.24535 6.04246 9.24535ZM10.3007 1.5625V3.4216L9.86386 3.20379C9.7541 3.14906 9.63468 3.12168 9.51523 3.12168C9.39578 3.12168 9.27637 3.14906 9.1666 3.20379L8.7298 3.4216V1.5625H10.3007ZM5.54586 2.0591C5.54586 1.78527 5.76863 1.5625 6.0425 1.5625H7.16738V4.68418C7.16738 4.9548 7.30742 5.20613 7.53758 5.34852C7.76769 5.49094 8.05511 5.5041 8.29726 5.38332L9.51531 4.77594L10.7334 5.38332C10.8434 5.4382 10.9628 5.46543 11.082 5.46543C11.2249 5.46543 11.3676 5.42621 11.493 5.34852C11.7232 5.20613 11.8632 4.95477 11.8632 4.68418V1.5625H12.9882C13.262 1.5625 13.4848 1.78527 13.4848 2.0591V7.18621C13.4848 7.46004 13.262 7.68281 12.9882 7.68281H6.04246C5.76859 7.68281 5.54582 7.46004 5.54582 7.18621V2.0591H5.54586Z" fill="#346751"/>
</svg>
