<svg width="20" height="20" viewBox="0 0 20 20" fill="none" xmlns="http://www.w3.org/2000/svg">
<path d="M13.9743 15.6784C13.7419 15.3148 13.2589 15.2085 12.8953 15.4407C12.5317 15.673 12.4253 16.1561 12.6576 16.5197L13.3778 17.6469H11.8178V14.0823C11.8178 13.6587 11.4884 13.2979 11.0651 13.2829C10.6206 13.2671 10.2553 13.6227 10.2553 14.0636V17.3685L6.69011 16.265V2.63223L10.2553 3.73574V7.14324C10.2553 7.56687 10.5848 7.92765 11.0081 7.94269C11.4526 7.95847 11.8178 7.60289 11.8178 7.16195V3.94098H13.8205C14.4084 3.94098 14.9411 4.26597 15.2107 4.78914C15.4084 5.17265 15.8795 5.3234 16.2631 5.12562C16.6466 4.92793 16.7973 4.4568 16.5996 4.07328C16.0607 3.02789 14.9959 2.37848 13.8205 2.37848H11.1547L6.13992 0.826328C6.13992 0.826328 6.13988 0.826328 6.13984 0.826289C5.99047 0.778125 5.82953 0.778633 5.67976 0.825703C5.67914 0.825898 5.67851 0.826094 5.67793 0.826289L2.20098 1.90246C0.884531 2.30996 0 3.50969 0 4.88777V15.2118C0 16.2171 0.465468 17.1735 1.27586 17.7685C1.82234 18.1697 2.46223 18.377 3.11558 18.377C3.42656 18.377 3.74066 18.33 4.04902 18.2346L5.90894 17.6589L10.7879 19.169C10.8305 19.1833 10.9279 19.2019 10.9295 19.2021C10.9655 19.2071 11.0013 19.2096 11.0369 19.2096C11.0427 19.2096 11.0485 19.2096 11.0543 19.2094H13.8206C14.2177 19.2094 14.6046 19.1358 14.9711 18.9906C15.1198 18.9317 15.2514 18.833 15.3411 18.7006C15.5216 18.4343 15.5194 18.0968 15.3544 17.8385L13.9743 15.6784ZM3.58699 16.7419C3.10789 16.8902 2.60148 16.8046 2.19777 16.5069C1.79406 16.2093 1.5625 15.7509 1.5625 15.2493V4.88777C1.5625 4.19871 2.00473 3.59887 2.66301 3.39516L5.12769 2.63226V16.2651L3.58699 16.7419Z" fill="#346751"/>
<path d="M16.1643 6.76965C14.0493 6.76965 12.3286 8.49215 12.3286 10.6094C12.3286 12.2597 13.3743 13.7087 14.9085 14.2386L15.506 15.1737C15.6495 15.3984 15.8977 15.5343 16.1643 15.5343C16.4309 15.5343 16.6791 15.3984 16.8227 15.1737L17.4202 14.2386C18.9542 13.7087 19.9999 12.2597 19.9999 10.6094C19.9999 8.49215 18.2792 6.76965 16.1643 6.76965ZM16.7253 12.817C16.5328 12.8659 16.3661 12.9862 16.2592 13.1536L16.1642 13.3021L16.0693 13.1536C15.9624 12.9863 15.7958 12.8659 15.6033 12.817C14.5951 12.561 13.891 11.6532 13.891 10.6095C13.891 9.35375 14.9108 8.33219 16.1642 8.33219C17.4176 8.33219 18.4374 9.35375 18.4374 10.6094C18.4374 11.6532 17.7334 12.561 16.7253 12.817Z" fill="#346751"/>
<path d="M16.9301 10.5191C16.8668 10.2069 16.6157 9.95977 16.302 9.90294C15.9727 9.84329 15.6326 10.0091 15.4754 10.3039C15.3241 10.5876 15.3651 10.9448 15.5769 11.1868C15.7946 11.4356 16.1579 11.5201 16.4633 11.3933C16.8025 11.2525 17.0034 10.88 16.9301 10.5191Z" fill="#346751"/>
</svg>
