<svg width="20" height="18" viewBox="0 0 20 18" fill="none" xmlns="http://www.w3.org/2000/svg">
<path d="M19.2188 15.6986H13.8751V6.17551C13.8751 5.5152 14.4123 4.97801 15.0726 4.97801H16.0527C16.713 4.97801 17.2502 5.5152 17.2502 6.17551V12.5736C17.2502 13.0051 17.6 13.3548 18.0315 13.3548C18.463 13.3548 18.8127 13.0051 18.8127 12.5736V6.17551C18.8127 4.65364 17.5746 3.41551 16.0527 3.41551H15.0726C13.5507 3.41551 12.3126 4.65364 12.3126 6.17551V7.32176H10.1349C8.61305 7.32176 7.37492 8.55989 7.37492 10.0818V11.228H5.58789C4.06602 11.228 2.82789 12.4661 2.82789 13.988V15.6873C2.11543 15.5979 1.5625 14.9884 1.5625 14.2521V2.00208C1.5625 1.57059 1.21273 1.22083 0.78125 1.22083C0.349766 1.22083 0 1.57059 0 2.00208V14.2521C0 15.9113 1.34984 17.2611 3.00898 17.2611H19.2188C19.6502 17.2611 20 16.9113 20 16.4798C20 16.0483 19.6502 15.6986 19.2188 15.6986V15.6986ZM4.39039 13.988C4.39039 13.3277 4.92758 12.7905 5.58789 12.7905H7.37492V15.6986H4.39039V13.988ZM8.93742 10.0818C8.93742 9.42145 9.47461 8.88426 10.1349 8.88426H12.3126V15.6986H8.93742V10.0818Z" fill="#346751"/>
<path d="M3.37528 7.90764C3.53102 7.90764 3.68841 7.8612 3.82532 7.76448L9.76051 3.5726C9.66911 3.96905 9.89911 4.3742 10.2942 4.49463C10.3701 4.5178 10.4468 4.52881 10.5223 4.52881C10.857 4.52881 11.1666 4.31194 11.2693 3.97514L11.9176 1.84827C11.988 1.61737 11.9477 1.36694 11.8084 1.16975C11.6692 0.972602 11.4466 0.850884 11.2055 0.840024L8.9843 0.739829C8.55387 0.720298 8.18805 1.05405 8.16864 1.48506C8.15001 1.89764 8.45497 2.24991 8.85911 2.29635L2.92387 6.48819C2.57145 6.73709 2.48751 7.2246 2.73645 7.57706C2.88868 7.79256 3.13009 7.90764 3.37528 7.90764Z" fill="#346751"/>
</svg>
