<svg width="20" height="20" viewBox="0 0 20 20" fill="none" xmlns="http://www.w3.org/2000/svg">
<path d="M18.4375 16.0938C18.006 16.0938 17.6562 16.4435 17.6562 16.875C17.6562 17.7366 16.9553 18.4375 16.0938 18.4375H3.90625C3.04469 18.4375 2.34375 17.7366 2.34375 16.875V8.20312C2.34375 7.77164 1.99398 7.42188 1.5625 7.42188C1.13102 7.42188 0.78125 7.77164 0.78125 8.20312V16.875C0.78125 18.5981 2.18313 20 3.90625 20H16.0938C17.8169 20 19.2188 18.5981 19.2188 16.875C19.2188 16.4435 18.869 16.0938 18.4375 16.0938ZM17.6562 0H2.34375C1.05141 0 0 1.05141 0 2.34375V4.6875C0 5.11898 0.349766 5.46875 0.78125 5.46875H17.6562V12.9297C17.6562 13.3612 18.006 13.7109 18.4375 13.7109C18.869 13.7109 19.2188 13.3612 19.2188 12.9297V5.46875C19.6502 5.46875 20 5.11898 20 4.6875V2.34375C20 1.05141 18.9486 0 17.6562 0ZM18.4375 3.90625H1.5625V2.34375C1.5625 1.91297 1.91297 1.5625 2.34375 1.5625H17.6562C18.087 1.5625 18.4375 1.91297 18.4375 2.34375V3.90625Z" fill="#346751"/>
<path d="M11.7188 8.59375C12.1502 8.59375 12.5 8.24398 12.5 7.8125C12.5 7.38102 12.1502 7.03125 11.7188 7.03125H8.20312C7.77164 7.03125 7.42188 7.38102 7.42188 7.8125C7.42188 8.24398 7.77164 8.59375 8.20312 8.59375H11.7188Z" fill="#346751"/>
</svg>
