<svg width="20" height="20" viewBox="0 0 20 20" fill="none" xmlns="http://www.w3.org/2000/svg">
<path d="M19.9981 10.0051C19.9981 11.9787 19.4122 13.8982 18.3039 15.5559C17.6921 16.395 16.464 15.5706 17.0051 14.6876C20.775 9.18232 16.6599 1.51259 9.99892 1.56841C5.34707 1.56837 1.56235 5.35308 1.56235 10.0051C1.50642 16.5022 8.84228 20.6344 14.3634 17.2268C14.7324 17.0032 15.2128 17.1212 15.4362 17.4902C15.6598 17.8592 15.5418 18.3396 15.1728 18.5631C11.3572 20.9355 6.06258 20.309 2.92863 17.0754C-3.34124 10.7928 1.12435 0.014417 9.99912 0.00605844C15.3734 -0.10479 20.1094 4.6303 19.9981 10.0051ZM9.99904 12.3486C10.4305 12.3486 10.7802 11.9988 10.7802 11.5674V10.7862H14.3346C15.371 10.745 15.3702 9.26477 14.3346 9.22388H10.7802V3.75566C10.739 2.7192 9.25876 2.71998 9.21786 3.75566V9.22388H8.43669C7.40023 9.26513 7.40101 10.7453 8.43669 10.7862H9.21786V11.5674C9.21786 11.9988 9.5676 12.3486 9.99904 12.3486Z" fill="#346751"/>
</svg>
