<svg width="20" height="16" viewBox="0 0 20 16" fill="none" xmlns="http://www.w3.org/2000/svg">
<path d="M12.7497 15.4212C12.4955 15.4212 12.2385 15.3717 11.9928 15.27C11.2572 14.9655 10.7819 14.2571 10.7819 13.4651V11.7842C10.7819 11.3527 11.1316 11.0028 11.5632 11.0028C11.9947 11.0028 12.3446 11.3527 12.3446 11.7842V13.4651C12.3446 13.6992 12.5165 13.7955 12.5904 13.8262C12.6656 13.8573 12.8588 13.9115 13.0272 13.7429L18.2094 8.55423C18.5148 8.2486 18.5148 7.75131 18.2094 7.44568L13.0272 2.25721C12.8588 2.0886 12.6656 2.14262 12.5905 2.17375C12.5165 2.20442 12.3446 2.30085 12.3446 2.53492V7.25769C12.3446 8.11936 11.6436 8.82035 10.7819 8.82035H0.781253C0.349733 8.82035 0 8.47062 0 8.03909C0 7.60757 0.349733 7.25769 0.781253 7.25769H10.7819V2.53492C10.7819 1.74299 11.2572 1.03437 11.9928 0.729954C12.7311 0.424472 13.5711 0.590488 14.1327 1.15293L19.315 6.3414C20.2283 7.25601 20.2283 8.74405 19.315 9.65867L14.1327 14.8471C13.758 15.2224 13.2593 15.421 12.7497 15.4212Z" fill="white"/>
</svg>
