<svg width="20" height="16" viewBox="0 0 20 16" fill="none" xmlns="http://www.w3.org/2000/svg">
<path d="M7.25039 15.4211C6.74075 15.4211 6.24209 15.2223 5.86734 14.8471L0.685156 9.65846C-0.228385 8.74401 -0.228385 7.25597 0.685156 6.34136L5.86734 1.15293C6.42901 0.590488 7.26901 0.424473 8.00723 0.729953C8.74285 1.03437 9.21816 1.74298 9.21816 2.53491V7.25765H19.2188C19.6503 7.25765 20 7.60753 20 8.03905C20 8.47057 19.6503 8.8203 19.2188 8.8203H9.21816C8.3565 8.8203 7.65551 8.11931 7.65551 7.25765V2.53491C7.65551 2.30084 7.48354 2.20441 7.40969 2.17374C7.33431 2.14261 7.14129 2.08844 6.97283 2.2572L1.79065 7.44564C1.48533 7.75127 1.48533 8.24856 1.79065 8.55434L6.97283 13.7428C7.14129 13.9114 7.33431 13.8572 7.40954 13.8261C7.48354 13.7956 7.65551 13.6991 7.65551 13.4651V11.7842C7.65551 11.3526 8.00524 11.0028 8.43676 11.0028C8.86828 11.0028 9.21801 11.3526 9.21801 11.7842V13.4651C9.21801 14.257 8.7427 14.9655 8.00707 15.2699C7.76156 15.3716 7.5046 15.4211 7.25039 15.4211Z" fill="white"/>
</svg>
