<svg width="32" height="32" viewBox="0 0 32 32" fill="none" xmlns="http://www.w3.org/2000/svg">
<g clip-path="url(#clip0_2450_5950)">
<path d="M15.9999 14.5453C16.8032 14.5453 17.4545 13.8941 17.4545 13.0908C17.4545 12.2874 16.8032 11.6362 15.9999 11.6362C15.1966 11.6362 14.5454 12.2874 14.5454 13.0908C14.5454 13.8941 15.1966 14.5453 15.9999 14.5453Z" fill="#F7F7F7"/>
<path d="M16 0C7.16346 0 0 7.16346 0 16C0 24.8366 7.16346 32.0001 16 32.0001C24.8366 32.0001 32 24.8366 32 16C31.9947 7.16564 24.8344 0.00531819 16 0ZM21.8182 23.2727C21.0149 23.2727 20.3637 22.6215 20.3637 21.8182C20.3637 19.4082 18.41 17.4546 16 17.4546C13.5901 17.4546 11.6364 19.4082 11.6364 21.8182C11.6364 22.6215 10.9852 23.2727 10.1819 23.2727C9.37855 23.2727 8.72728 22.6215 8.72728 21.8182C8.73607 19.2203 10.1345 16.8257 12.3927 15.5414C11.0367 13.5491 11.5524 10.8348 13.5446 9.47871C15.5369 8.12264 18.2512 8.63837 19.6073 10.6306C20.6157 12.1122 20.6157 14.0598 19.6073 15.5414C21.8655 16.8256 23.2639 19.2203 23.2727 21.8182C23.2727 22.6215 22.6215 23.2727 21.8182 23.2727Z" fill="#F7F7F7"/>
</g>
<defs>
<clipPath id="clip0_2450_5950">
<rect width="32" height="32" fill="white"/>
</clipPath>
</defs>
</svg>
