<svg width="42" height="42" viewBox="0 0 42 42" fill="none" xmlns="http://www.w3.org/2000/svg">
<path d="M21.0348 40.9306C32.0613 40.9306 41 31.9918 41 20.9653C41 9.93877 32.0613 1 21.0348 1C10.0082 1 1.06946 9.93877 1.06946 20.9653C1.06946 31.9918 10.0082 40.9306 21.0348 40.9306Z" stroke="#5DB5A5" stroke-width="1.77" stroke-miterlimit="10"/>
<path d="M23.4832 33.5329C21.4685 34.164 19.6468 34.8016 18.0441 35.4045C12.0801 34.0881 7.58863 33.4526 5.2681 33.2509C5.14665 33.0579 4.98399 32.8476 4.87122 32.648C4.30518 31.6417 3.53745 30.6962 3.29456 29.6118C10.1343 30.2682 16.895 31.5812 23.4832 33.5329Z" fill="#5DB5A5"/>
<path d="M6.28516 34.2446C8.46906 34.5027 11.4901 34.9365 15.0511 35.6456C12.7349 36.6497 11.1843 37.4327 10.5489 37.7645C8.96631 36.8016 7.53039 35.6162 6.28516 34.2446Z" fill="#5DB5A5"/>
<path d="M20.8916 40.7614C19.408 40.8641 17.9174 40.7752 16.4565 40.4968C20.627 38.3823 28.1677 34.8798 36.5888 33.4854C31.2841 40.3125 21.7179 40.9306 20.8916 40.7614Z" fill="#5DB5A5"/>
<path d="M38.2175 31.4925C38.083 31.8199 37.5538 32.2277 37.4042 32.5378C26.1897 34.1969 19.7768 37.7189 15.5586 40.2433C14.3593 39.8095 12.8369 39.2804 11.6094 38.5213C14.7779 36.461 24.6825 30.7659 39.1522 29.6772C38.9852 30.3561 38.4842 30.8462 38.2175 31.4925Z" fill="#5DB5A5"/>
<path d="M21.8914 26.5693H20.1781L19.6945 33.5266H22.375L21.8914 26.5693Z" fill="#5DB5A5"/>
<path d="M22.3749 33.5266H21.0347V26.5693H21.9022L21.9542 27.2915L22.3749 33.5266Z" fill="#5DB5A5"/>
<path d="M21.0347 24.7473C13.6784 22.34 9.77466 28.9265 9.77466 28.9265C9.77466 28.9265 16.1572 32.0364 21.0347 26.6276C25.9121 32.0343 32.2882 28.9243 32.2882 28.9243C32.2882 28.9243 28.3845 22.3379 21.0347 24.7473Z" fill="#5DB5A5"/>
<path d="M32.2882 28.9243C32.2882 28.9243 26.6604 31.6656 21.9369 27.5211C21.6159 27.2415 21.3124 26.9424 21.0282 26.6255V24.7473C21.701 24.5227 22.395 24.3672 23.0993 24.2832C29.1219 23.5697 32.2882 28.9243 32.2882 28.9243Z" fill="#5DB5A5"/>
<path d="M6.21362 21.1646C6.21362 21.1646 11.0737 28.7855 21.0672 26.6298L21.5487 25.4326C15.3722 18.0655 6.21362 21.1646 6.21362 21.1646Z" fill="#5DB5A5"/>
<path d="M35.8557 21.165C35.8557 21.165 31.0065 28.7707 21.0347 26.6389V24.8519C27.1873 18.2416 35.8557 21.165 35.8557 21.165Z" fill="#5DB5A5"/>
<path d="M8.82262 12.6719C8.82262 12.6719 8.61876 23.3615 20.4036 26.0291L21.7179 24.9751C20.3971 13.9037 8.82262 12.6719 8.82262 12.6719Z" fill="#5DB5A5"/>
<path d="M33.2468 12.6719C33.2468 12.6719 33.4507 23.3615 21.6658 26.0291L20.3602 24.9751C21.6723 13.9037 33.2468 12.6719 33.2468 12.6719Z" fill="#5DB5A5"/>
<path d="M21.0348 5.18799C21.0348 5.18799 12.3599 15.0861 20.0653 26.0316H22.0042C29.7075 15.0861 21.0348 5.18799 21.0348 5.18799Z" fill="#5DB5A5"/>
</svg>
