<svg xmlns="http://www.w3.org/2000/svg" width="20.697" height="23.82" viewBox="0 0 20.697 23.82">
  <defs>
    <style>
      .cls-1 {
        fill: none;
        stroke-linecap: round;
        stroke-linejoin: round;
        stroke-miterlimit: 10;
      }

      .cls-2, .cls-3 {
        stroke: none;
      }

      .cls-3 {
        fill: #c45e9f;
      }
    </style>
  </defs>
  <g id="Icon_Notification" data-name="Icon / Notification" transform="translate(1.5 1.5)">
    <g id="Shape" class="cls-1" transform="translate(0 0)">
      <path class="cls-2" d="M8.848,20.82a2.084,2.084,0,0,1-2.081-2.082h4.164A2.085,2.085,0,0,1,8.848,20.82ZM17.7,17.7H0V16.656l2.082-2.081V8.848a6.637,6.637,0,0,1,1.47-4.216A6.89,6.89,0,0,1,7.287,2.29V1.562a1.562,1.562,0,0,1,3.123,0V2.29a6.892,6.892,0,0,1,3.735,2.343,6.636,6.636,0,0,1,1.47,4.216v5.726L17.7,16.656V17.7Z"/>
      <path class="cls-3" d="M 8.848286628723145 20.82034111022949 C 9.996067047119141 20.82034111022949 10.93055629730225 19.88663101196289 10.93055629730225 18.73807144165039 L 6.766796588897705 18.73807144165039 C 6.766796588897705 19.88624000549316 7.700546741485596 20.82034111022949 8.848286628723145 20.82034111022949 M 17.69735717773438 17.69733047485352 L 17.69735717773438 17.69646072387695 L 17.69735717773438 16.65581130981445 L 15.61508655548096 14.57432079315186 L 15.61508655548096 8.848270416259766 C 15.61508655548096 7.282530784606934 15.10660648345947 5.824730396270752 14.14462661743164 4.632500648498535 C 13.21394634246826 3.479050636291504 11.88731670379639 2.646810531616211 10.40979671478271 2.289950609207153 L 10.40979671478271 1.561510562896729 C 10.40979671478271 0.7296705842018127 9.680116653442383 5.551147523874533e-07 8.848286628723145 5.551147523874533e-07 C 8.016456604003906 5.551147523874533e-07 7.286776542663574 0.7296705842018127 7.286776542663574 1.561510562896729 L 7.286776542663574 2.289950609207153 C 5.809586524963379 2.646820545196533 4.483446598052979 3.478760480880737 3.552626609802246 4.632500648498535 C 2.590706586837769 5.824780464172363 2.082266569137573 7.282580375671387 2.082266569137573 8.848270416259766 L 2.082266569137573 14.57432079315186 L -3.318481503811199e-06 16.65581130981445 L -3.318481503811199e-06 17.69733047485352 L 17.69648742675781 17.69733047485352 L 17.69735717773438 17.69733047485352 M 8.848286628723145 22.32034111022949 C 7.028936386108398 22.32034111022949 5.522099018096924 20.95657730102539 5.296091556549072 19.19733047485352 L -3.318481503811199e-06 19.19733047485352 C -0.8284333348274231 19.19733047485352 -1.500003337860107 18.52576065063477 -1.500003337860107 17.69733047485352 L -1.500003337860107 16.65581130981445 C -1.500003337860107 16.25789070129395 -1.341893315315247 15.87627029418945 -1.060463309288025 15.59495067596436 L 0.5822666883468628 13.95283603668213 L 0.5822666883468628 8.848270416259766 C 0.5822666883468628 6.936070442199707 1.205706715583801 5.152580738067627 2.385196685791016 3.690630435943604 C 3.279340028762817 2.58234977722168 4.469418048858643 1.717781662940979 5.810595512390137 1.187899231910706 C 6.001505851745605 -0.3031009435653687 7.314981937408447 -1.499999403953552 8.848286628723145 -1.499999403953552 C 10.38159084320068 -1.499999403953552 11.69505596160889 -0.3031910359859467 11.88596630096436 1.187809228897095 C 13.22751426696777 1.717663764953613 14.41769981384277 2.582205772399902 15.31200695037842 3.690580606460571 C 16.49158668518066 5.152490615844727 17.11508750915527 6.936000347137451 17.11508750915527 8.848270416259766 L 17.11508750915527 13.95283603668213 L 18.75781631469727 15.59495067596436 C 19.03924751281738 15.87627029418945 19.19735717773438 16.25789070129395 19.19735717773438 16.65581130981445 L 19.19735717773438 17.69646072387695 C 19.19735717773438 18.5248908996582 18.52578735351562 19.19733047485352 17.69735717773438 19.19733047485352 L 17.69648742675781 19.19733047485352 L 12.40125560760498 19.19733047485352 C 12.17519855499268 20.95657730102539 10.6680326461792 22.32034111022949 8.848286628723145 22.32034111022949 Z"/>
    </g>
  </g>
</svg>
