<svg xmlns="http://www.w3.org/2000/svg" id="prefix__Group_130" width="43.907" height="48.525" data-name="Group 130" viewBox="0 0 43.907 48.525">
    <defs>
        <style>
            .prefix__cls-1{fill:#c1272d}
        </style>
    </defs>
    <path id="prefix__Path_180" d="M384.478 88.309c.333.079.678.135 1 .242a4.594 4.594 0 0 1 3.153 4.323c.008 1.075 0 2.146 0 3.22v.3h10.284a1.177 1.177 0 0 1 1.194.75 1.152 1.152 0 0 1-1.1 1.563c-1.511.008-3.022 0-4.529 0h-.293c-.052.52-.107 1.027-.155 1.531q-.268 2.748-.532 5.493-.256 2.683-.515 5.366c-.171 1.789-.349 3.577-.52 5.37-.159 1.606-.309 3.216-.468 4.823-.155 1.634-.317 3.268-.472 4.9-.159 1.618-.309 3.232-.472 4.85a16.536 16.536 0 0 1-.282 2.352 4.521 4.521 0 0 1-3.883 3.4.621.621 0 0 0-.139.044H369.72a8.7 8.7 0 0 1-1.118-.282 4.561 4.561 0 0 1-3.07-4.16c-.151-1.769-.329-3.53-.5-5.295q-.226-2.427-.464-4.85l-.524-5.37-.464-4.823q-.238-2.439-.472-4.878-.238-2.421-.468-4.85c-.119-1.2-.234-2.4-.353-3.625h-.294c-1.511 0-3.022.008-4.529 0a1.15 1.15 0 0 1-1.063-1.654 1.136 1.136 0 0 1 1.1-.654h10.335v-.274-3.169a4.608 4.608 0 0 1 4.018-4.6 1.412 1.412 0 0 0 .139-.04zM364.6 98.72c.079.849.159 1.686.242 2.522q.232 2.433.472 4.874l.464 4.827.524 5.37c.159 1.618.309 3.232.468 4.85.171 1.789.349 3.581.524 5.37s.337 3.577.516 5.366a4.93 4.93 0 0 0 .206 1.162 2.264 2.264 0 0 0 2.276 1.46h15.9c.087 0 .179 0 .27-.008a2.321 2.321 0 0 0 2.177-2.146c.076-.976.175-1.955.27-2.931.155-1.642.317-3.284.476-4.926l.464-4.8.476-4.9q.232-2.415.468-4.831.232-2.433.472-4.874t.476-4.9c.048-.488.091-.98.139-1.483zm5.557-2.344h16.153c.008-.079.016-.143.016-.206v-3.169a2.282 2.282 0 0 0-2.388-2.38q-5.693-.012-11.386 0a2.286 2.286 0 0 0-2.392 2.4v2.574z" class="prefix__cls-1" data-name="Path 180" transform="translate(-356.283 -88.309)"/>
    <path id="prefix__Path_181" d="M365.865 105.391l-.381 8.134q-.1 2.023-.194 4.053a1.154 1.154 0 0 1-2.3-.115q.119-2.582.242-5.168.143-2.867.278-5.735.2-4 .385-8.007.125-2.659.254-5.314a1.148 1.148 0 1 1 2.292.087c-.087 2-.186 4.006-.282 6.009l-.285 6.056z" class="prefix__cls-1" data-name="Path 181" transform="translate(-336.405 -77.077)"/>
    <path id="prefix__Path_182" d="M362.654 105.362q.2 3.992.385 7.984c.068 1.376.135 2.748.194 4.125a1.153 1.153 0 0 1-2.3.1l-.4-8.6-.476-9.836q-.137-2.909-.266-5.81a1.134 1.134 0 0 1 .805-1.17 1.122 1.122 0 0 1 1.3.476 1.26 1.26 0 0 1 .182.551c.107 2.035.2 4.069.3 6.1s.194 4.057.293 6.084z" class="prefix__cls-1" data-name="Path 182" transform="translate(-345.905 -77.077)"/>
    <path id="prefix__Path_183" d="M363.826 105.4v12.005a1.151 1.151 0 1 1-2.292.2c-.008-.1 0-.2 0-.3V93.442a2.016 2.016 0 0 1 .056-.535 1.144 1.144 0 0 1 2.237.286c.008.107 0 .214 0 .321z" class="prefix__cls-1" data-name="Path 183" transform="translate(-340.723 -77.074)"/>
</svg>
