<svg xmlns="http://www.w3.org/2000/svg" width="26.326" height="23.257" viewBox="0 0 26.326 23.257">
    <defs>
        <style>
            .prefix__cls-1{fill:#c45e9f}
        </style>
    </defs>
    <g id="prefix__kF44rB" transform="translate(-6.989 -29.489)">
        <g id="prefix__Group_512" data-name="Group 512" transform="translate(6.989 29.489)">
            <path id="prefix__Path_167" d="M27.4 40.458h5.33c.437 0 .585.147.585.581v3.291a.455.455 0 0 1-.5.518 1.754 1.754 0 0 0-.06 3.5c.44.037.556.161.556.6v3.239c0 .4-.161.558-.559.558H7.54c-.408 0-.55-.145-.551-.557v-3.291c0-.386.124-.515.512-.545a1.7 1.7 0 0 0 1.526-1.058 1.665 1.665 0 0 0-.227-1.78 1.7 1.7 0 0 0-1.276-.662c-.4-.027-.53-.154-.53-.548v-3.308c0-.392.145-.538.534-.538h3.5a.38.38 0 0 0 .3-.124q5.3-5.308 10.607-10.611c.028-.028.055-.057.085-.084a.436.436 0 0 1 .666 0q.969.96 1.928 1.93a.443.443 0 0 1-.03.666 1.7 1.7 0 0 0-.426 1.58 1.647 1.647 0 0 0 1.156 1.285A1.676 1.676 0 0 0 27 34.757c.316-.273.508-.276.8.018l2.206 2.206c.3.3.3.509.005.809q-1.247 1.248-2.5 2.495a1.468 1.468 0 0 1-.149.115zm-15.154 11.4h15.8v-1.737h.883v1.738h3.49V49.2a2.643 2.643 0 0 1 0-5.207v-2.644H12.243v1.293h-.879V41.35H7.877a.865.865 0 0 0-.011.092v2.438c0 .116.056.136.15.158a2.626 2.626 0 0 1 .011 5.121c-.122.03-.162.077-.161.2.006.779 0 1.557 0 2.336 0 .054.008.108.012.161h3.488v-.416h.88zm.226-11.4c.4 0 .781-.006 1.164 0a.407.407 0 0 0 .326-.136q3.112-3.12 6.23-6.234a.471.471 0 0 1 .786 0l.675.675 3.978 3.978c.3.3.3.511 0 .813l-.771.772c-.034.034-.063.072-.117.134h1.205a.353.353 0 0 0 .283-.115q1.416-1.429 2.838-2.852c.035-.035.065-.074.1-.118l-.9-.9-.887-.888a2.641 2.641 0 0 1-3.711-3.642l-1.328-1.33zm2.639-.01a.369.369 0 0 0 .054.009h8.214a.257.257 0 0 0 .162-.067c.422-.405.839-.815 1.253-1.219l-4.2-4.2z" class="prefix__cls-1" data-name="Path 167" transform="translate(-6.989 -29.489)"/>
            <path id="prefix__Path_168" d="M110.072 216.159h4.722c.381 0 .505.117.541.5a.876.876 0 0 0 .827.8.464.464 0 0 1 .492.526v5.1a.445.445 0 0 1-.454.521.893.893 0 0 0-.871.914.439.439 0 0 1-.429.407h-9.512c-.427 0-.552-.114-.6-.543a.871.871 0 0 0-.707-.754c-.072-.013-.146-.021-.219-.032a.407.407 0 0 1-.372-.4v-.153-5.012c0-.412.118-.541.523-.575a.873.873 0 0 0 .779-.777c.035-.407.163-.525.573-.525zm-4.435.865c-.012.028-.02.043-.025.059a1.709 1.709 0 0 1-1.141 1.169c-.1.033-.1.1-.1.183v4.21a.181.181 0 0 0 .153.2 1.394 1.394 0 0 1 .7.467c.169.222.3.47.471.736H114.374a.181.181 0 0 0 .2-.151 1.671 1.671 0 0 1 1.057-1.058.19.19 0 0 0 .15-.217V218.3a1.73 1.73 0 0 1-1.2-1.1.221.221 0 0 0-.252-.177q-4.253.006-8.505 0z" class="prefix__cls-1" data-name="Path 168" transform="translate(-96.911 -203.428)"/>
            <path id="prefix__Path_169" d="M71.342 235.457h.86v1.743h-.86z" class="prefix__cls-1" data-name="Path 169" transform="translate(-66.953 -221.41)"/>
            <path id="prefix__Path_170" d="M71.41 274.091h.859v1.736h-.859z" class="prefix__cls-1" data-name="Path 170" transform="translate(-67.017 -257.409)"/>
            <path id="prefix__Path_171" d="M316.711 295.146h-.856v-1.736h.856z" class="prefix__cls-1" data-name="Path 171" transform="translate(-294.791 -275.411)"/>
            <path id="prefix__Path_172" d="M315.8 217.982v-1.729h.862v1.729z" class="prefix__cls-1" data-name="Path 172" transform="translate(-294.74 -203.516)"/>
            <path id="prefix__Path_173" d="M315.8 256.569v-1.727h.862v1.727z" class="prefix__cls-1" data-name="Path 173" transform="translate(-294.739 -239.473)"/>
            <path id="prefix__Path_174" d="M72.254 314.476H71.4v-1.737h.857z" class="prefix__cls-1" data-name="Path 174" transform="translate(-67.004 -293.422)"/>
        </g>
    </g>
</svg>
