<svg xmlns="http://www.w3.org/2000/svg" id="prefix__Group_2819" width="21.696" height="19.953" data-name="Group 2819" viewBox="0 0 21.696 19.953">
    <defs>
        <style>
            .prefix__cls-1{fill:#c75ba1}
        </style>
    </defs>
    <path id="prefix__Path_34" d="M847.028 19.026a6.608 6.608 0 0 0-10.4-4.185.476.476 0 0 1-.688 0 6.587 6.587 0 0 0-10.23 3.532 6.332 6.332 0 0 0 1.719 6.51c2.749 2.775 5.52 5.528 8.284 8.289.433.435.713.435 1.147 0l8.312-8.314a6.486 6.486 0 0 0 1.944-4.687 4.552 4.552 0 0 0-.088-1.145zm-2.667 4.874c-2.619 2.636-5.254 5.257-7.877 7.89-.152.152-.231.171-.394.008-2.623-2.633-5.274-5.237-7.871-7.9a5.057 5.057 0 0 1-1.236-5.453 5.358 5.358 0 0 1 8.745-2.184c.427.4.677.392 1.1.007a5.375 5.375 0 0 1 8.974 2.991 7.54 7.54 0 0 1 .088.81 5.384 5.384 0 0 1-1.529 3.831z" class="prefix__cls-1" data-name="Path 34" transform="translate(-825.429 -13.544)"/>
    <path id="prefix__Path_35" d="M826.507 19.137a4.567 4.567 0 0 1 3.255-4.386c.446-.135.806.009.908.366.107.379-.081.662-.54.812a3.371 3.371 0 0 0-2.286 4.061.633.633 0 0 1-.412.8.621.621 0 0 1-.784-.482 3.777 3.777 0 0 1-.141-1.171z" class="prefix__cls-1" data-name="Path 35" transform="translate(-824.485 -12.532)"/>
</svg>
