<svg width="246" height="125" viewBox="0 0 246 125" fill="none" xmlns="http://www.w3.org/2000/svg">
<path d="M60.69 10.3C60.69 11.64 59.61 12.72 58.27 12.72C56.93 12.72 55.85 11.64 55.85 10.3C55.85 8.96 56.93 7.88 58.27 7.88C59.61 7.88 60.69 8.96 60.69 10.3ZM60.69 16.12C60.69 17.46 59.61 18.54 58.27 18.54C56.93 18.54 55.85 17.46 55.85 16.12C55.85 14.78 56.93 13.7 58.27 13.7C59.61 13.7 60.69 14.78 60.69 16.12ZM60.69 21.94C60.69 23.28 59.61 24.36 58.27 24.36C56.93 24.36 55.85 23.28 55.85 21.94C55.85 20.6 56.93 19.52 58.27 19.52C59.61 19.52 60.69 20.6 60.69 21.94ZM60.69 27.76C60.69 29.1 59.61 30.18 58.27 30.18C56.93 30.18 55.85 29.1 55.85 27.76C55.85 26.42 56.93 25.34 58.27 25.34C59.61 25.34 60.69 26.42 60.69 27.76ZM60.69 33.58C60.69 34.92 59.61 36 58.27 36C56.93 36 55.85 34.92 55.85 33.58C55.85 32.24 56.93 31.16 58.27 31.16C59.61 31.16 60.69 32.24 60.69 33.58ZM60.69 39.4C60.69 40.74 59.61 41.82 58.27 41.82C56.93 41.82 55.85 40.74 55.85 39.4C55.85 38.06 56.93 36.98 58.27 36.98C59.61 36.98 60.69 38.06 60.69 39.4ZM60.69 45.22C60.69 46.56 59.61 47.64 58.27 47.64C56.93 47.64 55.85 46.56 55.85 45.22C55.85 43.88 56.93 42.8 58.27 42.8C59.61 42.8 60.69 43.88 60.69 45.22ZM60.69 51.04C60.69 52.38 59.61 53.46 58.27 53.46C56.93 53.46 55.85 52.38 55.85 51.04C55.85 49.7 56.93 48.62 58.27 48.62C59.61 48.62 60.69 49.7 60.69 51.04ZM60.69 56.86C60.69 58.2 59.61 59.28 58.27 59.28C56.93 59.28 55.85 58.2 55.85 56.86C55.85 55.52 56.93 54.44 58.27 54.44C59.61 54.44 60.69 55.52 60.69 56.86ZM60.69 62.68C60.69 64.02 59.61 65.1 58.27 65.1C56.93 65.1 55.85 64.02 55.85 62.68C55.85 61.34 56.93 60.26 58.27 60.26C59.61 60.26 60.69 61.34 60.69 62.68ZM60.69 68.5C60.69 69.84 59.61 70.92 58.27 70.92C56.93 70.92 55.85 69.84 55.85 68.5C55.85 67.16 56.93 66.08 58.27 66.08C59.61 66.08 60.69 67.16 60.69 68.5ZM60.69 74.32C60.69 75.66 59.61 76.74 58.27 76.74C56.93 76.74 55.85 75.66 55.85 74.32C55.85 72.98 56.93 71.9 58.27 71.9C59.61 71.9 60.69 72.98 60.69 74.32ZM60.69 80.14C60.69 81.48 59.61 82.56 58.27 82.56C56.93 82.56 55.85 81.48 55.85 80.14C55.85 78.8 56.93 77.72 58.27 77.72C59.61 77.72 60.69 78.8 60.69 80.14ZM60.69 85.96C60.69 87.3 59.61 88.38 58.27 88.38C56.93 88.38 55.85 87.3 55.85 85.96C55.85 84.62 56.93 83.54 58.27 83.54C59.61 83.54 60.69 84.62 60.69 85.96ZM60.69 91.78C60.69 93.12 59.61 94.2 58.27 94.2C56.93 94.2 55.85 93.12 55.85 91.78C55.85 90.44 56.93 89.36 58.27 89.36C59.61 89.36 60.69 90.44 60.69 91.78ZM60.69 97.6C60.69 98.94 59.61 100.02 58.27 100.02C56.93 100.02 55.85 98.94 55.85 97.6C55.85 96.26 56.93 95.18 58.27 95.18C59.61 95.18 60.69 96.26 60.69 97.6ZM60.69 103.42C60.69 104.76 59.61 105.84 58.27 105.84C56.93 105.84 55.85 104.76 55.85 103.42C55.85 102.08 56.93 101 58.27 101C59.61 101 60.69 102.08 60.69 103.42ZM60.69 109.24C60.69 110.58 59.61 111.66 58.27 111.66C56.93 111.66 55.85 110.58 55.85 109.24C55.85 107.9 56.93 106.82 58.27 106.82C59.61 106.82 60.69 107.9 60.69 109.24ZM60.69 115.06C60.69 116.4 59.61 117.48 58.27 117.48C56.93 117.48 55.85 116.4 55.85 115.06C55.85 113.72 56.93 112.64 58.27 112.64C59.61 112.64 60.69 113.72 60.69 115.06ZM3.42 121.22C3.58359 121.384 3.74695 121.547 3.91106 121.711C5.78643 123.586 8.32997 124.64 10.9821 124.64H47.3179C49.97 124.64 52.5136 123.586 54.3889 121.711L57.44 118.66C57.9 118.2 58.64 118.2 59.1 118.66L62.1511 121.711C64.0264 123.586 66.57 124.64 69.2221 124.64H235.018C237.67 124.64 240.214 123.586 242.089 121.711L243.071 120.729C244.946 118.854 246 116.31 246 113.658V10.9821C246 8.32998 244.946 5.78632 243.071 3.91095C242.742 3.58239 242.418 3.25761 242.089 2.92905C240.214 1.05368 237.67 0 235.018 0H69.2221C66.57 0 64.0264 1.05357 62.1511 2.92893L59.1 5.98C58.88 6.2 58.58 6.32 58.27 6.32C57.96 6.32 57.66 6.2 57.44 5.98L54.3889 2.92893C52.5136 1.05357 49.97 0 47.3179 0H10.22C8.05581 0 5.98029 0.859709 4.45 2.39V2.39C3.93385 2.90615 3.43593 3.40407 2.92898 3.91102C1.05362 5.78638 0 8.32997 0 10.9821V113.678C0 116.33 1.05357 118.874 2.92894 120.749C3.09305 120.913 3.25641 121.076 3.42 121.24V121.22Z" fill="#5DB5A5"/>
<path fill-rule="evenodd" clip-rule="evenodd" d="M16.5484 101C16.5484 107.325 21.6754 112.452 28 112.452C34.3246 112.452 39.4516 107.325 39.4516 101C39.4516 94.6754 34.3246 89.5484 28 89.5484C21.6754 89.5484 16.5484 94.6754 16.5484 101ZM28 114C20.8203 114 15 108.18 15 101C15 93.8203 20.8203 88 28 88C35.1797 88 41 93.8203 41 101C41 108.18 35.1797 114 28 114Z" fill="#346751"/>
<path d="M35.8399 99.6994C36.2648 100.867 36.694 101.923 37.1 102.852C36.2137 106.308 35.7858 108.911 35.65 110.256C35.5201 110.326 35.3785 110.42 35.2441 110.486C34.5666 110.814 33.93 111.259 33.2 111.399C33.6418 107.436 34.5259 103.517 35.8399 99.6994V99.6994Z" fill="#346751"/>
<path d="M35.7998 110.101C35.9904 108.805 36.3108 107.013 36.8347 104.901C37.5764 106.275 38.1547 107.194 38.3998 107.571C37.6885 108.51 36.8129 109.362 35.7998 110.101V110.101Z" fill="#346751"/>
<path d="M39.6778 101.023C39.7325 101.885 39.6851 102.752 39.5368 103.601C38.4098 101.177 36.543 96.7946 35.7998 91.9006C39.4385 94.9834 39.7679 100.543 39.6778 101.023Z" fill="#346751"/>
<path d="M34.3166 89.8737C34.5181 89.9562 34.7689 90.2809 34.9597 90.3727C35.9803 97.2538 38.147 101.189 39.7 103.777C39.4331 104.513 39.1076 105.447 38.6406 106.2C37.3732 104.256 33.8697 98.1787 33.2 89.3002C33.6175 89.4027 33.9191 89.7101 34.3166 89.8737Z" fill="#346751"/>
<path d="M31.8999 100.169L31.8999 101.831L35.7999 102.3L35.7999 99.6998L31.8999 100.169Z" fill="#346751"/>
<path d="M35.8001 99.7L35.8001 101L31.9001 101L31.9001 100.159L32.305 100.108L35.8001 99.7Z" fill="#346751"/>
<path d="M30.846 100.998C29.7281 105.246 32.7867 107.5 32.7867 107.5C32.7867 107.5 34.2309 103.815 31.7192 100.998C34.2299 98.1817 32.7857 94.5 32.7857 94.5C32.7857 94.5 29.7271 96.7541 30.846 100.998Z" fill="#346751"/>
<path d="M32.7867 94.5C32.7867 94.5 34.0605 97.7487 32.1348 100.475C32.0048 100.661 31.8659 100.836 31.7186 101L30.8459 101C30.7415 100.612 30.6693 100.211 30.6303 99.8044C30.2987 96.3278 32.7867 94.5 32.7867 94.5Z" fill="#346751"/>
<path d="M28.3884 110.101C28.3884 110.101 32.9636 107.217 31.6694 101.286L30.9507 101.001C26.5279 104.666 28.3884 110.101 28.3884 110.101Z" fill="#346751"/>
<path d="M28.3867 91.9C28.3867 91.9 32.9538 94.8774 31.6736 101L30.6006 101C26.6313 97.2223 28.3867 91.9 28.3867 91.9Z" fill="#346751"/>
<path d="M22.7998 108.8C22.7998 108.8 29.0421 108.923 30.5998 101.795L29.9843 101C23.5191 101.799 22.7998 108.8 22.7998 108.8Z" fill="#346751"/>
<path d="M22.8 93.2001C22.8 93.2001 29.0423 93.0767 30.6 100.21L29.9846 101C23.5194 100.206 22.8 93.2001 22.8 93.2001Z" fill="#346751"/>
<path d="M18.8999 101C18.8999 101 24.4559 106.423 30.5999 101.606L30.5999 100.394C24.4559 95.5787 18.8999 101 18.8999 101Z" fill="#346751"/>
<path d="M29.6901 79.9246C29.7746 78.3952 29.8169 77.3597 29.8169 76.8183C29.8169 76.6899 29.7803 76.5894 29.707 76.5169C29.6282 76.4387 29.5239 76.3996 29.3944 76.3996L28.6338 76.3996L28.6338 78.3254C28.6338 78.9115 28.5014 79.3385 28.2366 79.6065C27.9662 79.8688 27.5352 80 26.9437 80L26.6901 80C26.0986 80 25.6704 79.8688 25.4056 79.6065C25.1352 79.3385 25 78.9115 25 78.3254L25 75.3865L26.1831 75.3865L26.1831 77.9905C26.1831 78.3254 26.3521 78.4929 26.6901 78.4929L26.8592 78.4929C27.1972 78.4929 27.3662 78.3254 27.3662 77.9905L27.3662 76.4834C27.3662 75.9363 27.4958 75.5344 27.7549 75.2777C28.0141 75.0209 28.4197 74.8925 28.9718 74.8925L29.3944 74.8925C29.9465 74.8925 30.3521 75.0209 30.6113 75.2777C30.8704 75.5344 31 75.9363 31 76.4834C31 76.7681 30.9944 77.0695 30.9831 77.3877L30.9493 78.158C30.9211 78.7273 30.8817 79.3162 30.831 79.9246L29.6901 79.9246Z" fill="white"/>
<path d="M30.9155 71.3766L30.9155 74.3908L29.7324 74.3908L29.7324 73.6372L26.1831 73.6372L26.1831 74.3908L25 74.3908L25 71.3766L26.1831 71.3766L26.1831 72.1301L29.7324 72.1301L29.7324 71.3766L30.9155 71.3766Z" fill="white"/>
<path d="M30.9155 69.577L30.9155 71.2097L25 68.9909L25 67.3163L30.9155 65.0975L30.9155 66.7302L29.8592 67.107L29.8592 69.2003L30.9155 69.577ZM28.7606 68.8235L28.7606 67.4838L26.7746 68.1536L28.7606 68.8235Z" fill="white"/>
<path d="M27.6197 59.6555L29.7324 60.8277L29.7324 61.9999L27.6197 63.1721L30.9155 63.1721L30.9155 64.6792L25 64.6792L25 63.0884L28.1268 61.4138L25 59.7392L25 58.1483L30.9155 58.1483L30.9155 59.6555L27.6197 59.6555Z" fill="white"/>
<path d="M30.831 50.1087C30.9437 51.3535 31 52.3861 31 53.2067C31 53.7537 30.8704 54.1556 30.6113 54.4124C30.3521 54.6691 29.9465 54.7975 29.3944 54.7975L26.6901 54.7975C26.0986 54.7975 25.6704 54.6664 25.4056 54.404C25.1352 54.1361 25 53.7091 25 53.123L25 50.1087L26.1831 50.1087L26.1831 52.788C26.1831 53.1229 26.3521 53.2904 26.6901 53.2904L29.3944 53.2904C29.5239 53.2904 29.6282 53.2541 29.707 53.1816C29.7803 53.1034 29.8169 53.0057 29.8169 52.8885C29.8169 52.7713 29.8169 52.6429 29.8169 52.5034C29.8113 52.3638 29.8056 52.2187 29.8 52.068C29.7944 51.9173 29.7887 51.7665 29.7831 51.6158C29.7775 51.4595 29.7662 51.2614 29.7493 51.0213C29.7324 50.7757 29.7127 50.4715 29.6901 50.1087L30.831 50.1087Z" fill="white"/>
<path d="M30.9155 48.3913L30.9155 50.024L25 47.8052L25 46.1306L30.9155 43.9118L30.9155 45.5445L29.8592 45.9213L29.8592 48.0145L30.9155 48.3913ZM28.7606 47.6377L28.7606 46.298L26.7746 46.9679L28.7606 47.6377Z" fill="white"/>
<path d="M30.9155 38.386L30.9155 39.9768L27.3662 41.9863L30.9155 41.9863L30.9155 43.4934L25 43.4934L25 41.9026L28.5493 39.8931L25 39.8931L25 38.386L30.9155 38.386Z" fill="white"/>
<path d="M30.9155 32.2698L30.9155 33.8607L27.3662 35.8702L30.9155 35.8702L30.9155 37.3773L25 37.3773L25 35.7864L28.5493 33.7769L25 33.7769L25 32.2698L30.9155 32.2698Z" fill="white"/>
<path d="M30.9155 30.2145L30.9155 31.8472L25 29.6284L25 27.9538L30.9155 25.735L30.9155 27.3677L29.8592 27.7445L29.8592 29.8377L30.9155 30.2145ZM28.7606 29.461L28.7606 28.1213L26.7746 28.7911L28.7606 29.461Z" fill="white"/>
<path d="M25 25.3167L25 21.9675C25 21.4205 25.1268 21.0186 25.3803 20.7618C25.6282 20.5051 26.0084 20.3767 26.5211 20.3767C26.8592 20.3767 27.1352 20.4493 27.3493 20.5944C27.5577 20.7395 27.7042 20.9181 27.7887 21.1302C27.9127 20.6781 28.2169 20.3711 28.7014 20.2092C28.8761 20.1534 29.0789 20.1255 29.3099 20.1255C29.862 20.1255 30.2676 20.2539 30.5268 20.5107C30.7859 20.7674 30.9155 21.1693 30.9155 21.7164L30.9155 25.3167L25 25.3167ZM29.0563 21.6326C28.7183 21.6326 28.5493 21.8001 28.5493 22.135L28.5493 23.8096L29.7324 23.8096L29.7324 22.135C29.7324 21.8001 29.5634 21.6326 29.2254 21.6326L29.0563 21.6326ZM26.6901 21.8838C26.3521 21.8838 26.1831 22.0513 26.1831 22.3862L26.1831 23.8096L27.3662 23.8096L27.3662 22.3862C27.3662 22.0513 27.1972 21.8838 26.8592 21.8838L26.6901 21.8838Z" fill="white"/>
<path d="M30.9155 16.6092L30.9155 19.6234L29.7324 19.6234L29.7324 18.8699L26.1831 18.8699L26.1831 19.6234L25 19.6234L25 16.6092L26.1831 16.6092L26.1831 17.3628L29.7324 17.3628L29.7324 16.6092L30.9155 16.6092Z" fill="white"/>
<path d="M29.6901 16.0321C29.7746 14.5027 29.8169 13.4672 29.8169 12.9258C29.8169 12.7974 29.7803 12.6969 29.707 12.6243C29.6282 12.5462 29.5239 12.5071 29.3944 12.5071L28.6338 12.5071L28.6338 14.4329C28.6338 15.019 28.5014 15.446 28.2366 15.714C27.9662 15.9763 27.5352 16.1075 26.9437 16.1075L26.6901 16.1075C26.0986 16.1075 25.6704 15.9763 25.4056 15.714C25.1352 15.446 25 15.019 25 14.4329L25 11.494L26.1831 11.494L26.1831 14.098C26.1831 14.4329 26.3521 14.6004 26.6901 14.6004L26.8592 14.6004C27.1972 14.6004 27.3662 14.4329 27.3662 14.098L27.3662 12.5909C27.3662 12.0438 27.4958 11.6419 27.7549 11.3852C28.0141 11.1284 28.4197 11 28.9718 11L29.3944 11C29.9465 11 30.3521 11.1284 30.6113 11.3852C30.8704 11.6419 31 12.0438 31 12.5909C31 12.8755 30.9944 13.177 30.9831 13.4951L30.9493 14.2654C30.9211 14.8348 30.8817 15.4237 30.831 16.0321L29.6901 16.0321Z" fill="white"/>
<mask id="mask0_2672_6376" style="mask-type:alpha" maskUnits="userSpaceOnUse" x="136" y="-33" width="143" height="143">
<g opacity="0.2">
<path d="M275.682 28.877L269.275 20.5411C269.164 19.8074 269.182 18.3567 269.193 17.4445C269.198 17.0457 269.203 16.6561 269.203 16.2829V5.73749C269.203 -1.1525 264.519 -6.78202 256.979 -8.95328L246.44 -11.9887C245.415 -12.2836 244.522 -12.9252 243.924 -13.7952L237.746 -22.7768C233.702 -28.6558 226.168 -31.0876 219.426 -28.6909L209.064 -25.0067C208.055 -24.6484 206.945 -24.6484 205.936 -25.0067L195.574 -28.6904C188.832 -31.087 181.299 -28.6555 177.255 -22.7763L171.077 -13.7946C170.51 -12.9699 169.677 -12.3504 168.718 -12.0367L157.74 -9.73028C157.606 -9.70207 157.474 -9.66912 157.342 -9.63141C150.356 -7.61907 145.62 -1.26869 145.797 5.83273V16.6594C145.797 17.0359 145.805 17.4303 145.813 17.8358C145.83 18.6388 145.857 19.9507 145.72 20.4875L139.312 28.8851C134.895 34.5543 134.896 42.4537 139.317 48.1209L145.736 56.4803C145.853 56.9883 145.831 58.2728 145.814 59.2266C145.806 59.7153 145.797 60.2153 145.797 60.7247V71.5704C145.637 78.2266 150.312 83.7324 158.021 85.9526L168.56 88.9877C169.585 89.2829 170.479 89.9242 171.077 90.7942L177.254 99.7755C180.256 104.14 185.18 106.605 190.278 106.604C192.046 106.604 193.837 106.307 195.574 105.69L205.936 102.006C206.945 101.648 208.055 101.648 209.064 102.006L219.426 105.69C221.163 106.307 222.953 106.604 224.722 106.604C229.819 106.604 234.743 104.14 237.745 99.7755L243.923 90.7939C244.521 89.9244 245.415 89.2829 246.44 88.9877L256.978 85.9526C263.83 83.9793 269.428 76.1408 269.2 68.8364C269.104 65.7532 266.516 63.3236 263.443 63.4275C260.36 63.5236 257.938 66.1007 258.034 69.1844C258.101 71.3358 255.814 74.6628 253.886 75.2178L243.348 78.2529C239.844 79.2623 236.779 81.4676 234.719 84.4631L228.541 93.4447C227.36 95.1618 225.151 95.8687 223.168 95.1641L212.805 91.4804C209.385 90.2643 205.616 90.2641 202.194 91.4804L191.832 95.1641C189.849 95.869 187.64 95.1621 186.459 93.4447L180.281 84.4633C178.221 81.4679 175.156 79.2623 171.652 78.2532L161.114 75.218C160.682 75.0935 156.9 73.9425 156.966 71.8209C156.968 71.7631 156.968 71.705 156.968 71.6469V60.725C156.968 60.282 156.977 59.8466 156.984 59.4215C157.035 56.5118 157.098 52.893 154.671 49.7738L148.165 41.3004C148.154 41.2862 148.143 41.2719 148.132 41.258C146.86 39.6339 146.86 37.3654 148.132 35.7416C148.146 35.7231 148.161 35.7044 148.175 35.6857L154.677 27.1646C157.115 24.0237 157.035 20.1629 156.982 17.6051C156.975 17.2792 156.968 16.9619 156.968 16.6594V5.75508C156.968 5.69727 156.968 5.63918 156.966 5.58108C156.905 3.63522 158.288 1.79772 160.275 1.15226L171.255 -1.15445C171.388 -1.18266 171.521 -1.21562 171.652 -1.25332C175.156 -2.26271 178.221 -4.46804 180.281 -7.4635L186.459 -16.4452C187.64 -18.1626 189.849 -18.8697 191.832 -18.1645L202.195 -14.4809C205.615 -13.2648 209.384 -13.2648 212.806 -14.4809L223.168 -18.1645C225.151 -18.8695 227.36 -18.1623 228.541 -16.4452L234.719 -7.46378C236.779 -4.46804 239.844 -2.26243 243.348 -1.25332L253.886 1.7818C255.435 2.22756 258.031 3.33442 258.031 5.73777V16.2832C258.031 16.6114 258.027 16.9538 258.023 17.3043C257.982 20.5559 257.931 24.5716 260.477 27.4269L266.837 35.7014C266.847 35.7148 266.858 35.7284 266.868 35.7419C268.14 37.366 268.14 39.6341 266.868 41.2583C264.966 43.6868 265.393 47.1978 267.821 49.0998C270.25 51.0018 273.76 50.5756 275.663 48.1466C280.106 42.4757 280.112 34.5562 275.682 28.877Z" fill="#F1FFFC"/>
<path d="M190.268 71.3808C191.113 71.8374 192.022 72.0539 192.919 72.0539C194.905 72.0539 196.828 70.9923 197.838 69.1232L228.03 13.2676C229.497 10.5543 228.486 7.16499 225.773 5.69812C223.059 4.23069 219.669 5.24203 218.203 7.95569L188.011 63.8113C186.544 66.5246 187.555 69.9139 190.268 71.3808ZM198.284 18.9899C198.284 11.2902 192.019 5.02585 184.32 5.02585C176.62 5.02585 170.356 11.2899 170.356 18.9899C170.356 26.6898 176.62 32.9536 184.32 32.9536C192.019 32.9536 198.284 26.6896 198.284 18.9899ZM184.32 21.7826C182.78 21.7826 181.527 20.5297 181.527 18.9899C181.527 17.4501 182.78 16.1972 184.32 16.1972C185.86 16.1972 187.112 17.4501 187.112 18.9899C187.112 20.5297 185.86 21.7826 184.32 21.7826ZM230.4 72.0525C238.1 72.0525 244.364 65.7884 244.364 58.0885C244.364 50.3885 238.1 44.1247 230.4 44.1247C222.701 44.1247 216.437 50.3888 216.437 58.0885C216.437 65.7881 222.701 72.0525 230.4 72.0525ZM230.4 55.296C231.941 55.296 233.193 56.549 233.193 58.0887C233.193 59.6285 231.94 60.8814 230.4 60.8814C228.86 60.8814 227.608 59.6285 227.608 58.0887C227.608 56.549 228.861 55.296 230.4 55.296Z" fill="#F1FFFC"/>
</g>
</mask>
<g mask="url(#mask0_2672_6376)">
<rect x="61" width="185" height="125" fill="#2C3635"/>
</g>
</svg>
