<svg width="24" height="24" viewBox="0 0 24 24" fill="none" xmlns="http://www.w3.org/2000/svg">
<path fill-rule="evenodd" clip-rule="evenodd" d="M16.2427 15.18C16.536 15.4725 16.536 15.9525 16.2427 16.245C15.9502 16.5375 15.4748 16.5375 15.1815 16.245L12.0045 13.065L8.80499 16.2675C8.50949 16.56 8.03102 16.56 7.73552 16.2675C7.44077 15.9675 7.44077 15.4875 7.73552 15.195L10.935 11.9925L7.758 8.82001C7.46475 8.52751 7.46475 8.04747 7.758 7.75497C8.04975 7.46247 8.52525 7.46247 8.8185 7.75497L11.9955 10.935L15.219 7.71002C15.5145 7.41752 15.9922 7.41752 16.2877 7.71002C16.5825 8.01002 16.5825 8.48247 16.2877 8.78247L13.065 12.0075L16.2427 15.18ZM12 0C5.37225 0 0 5.37 0 12C0 18.63 5.37225 24 12 24C18.6277 24 24 18.63 24 12C24 5.37 18.6277 0 12 0Z" fill="#5DB5A5"/>
</svg>
