<svg width="20" height="17" viewBox="0 0 20 17" fill="none" xmlns="http://www.w3.org/2000/svg">
<path d="M6.18043 0.583008H3.88878C3.0784 0.583008 2.30122 0.861033 1.7282 1.35592C1.15517 1.85081 0.833252 2.52202 0.833252 3.2219L0.833252 5.20106C0.833252 5.90094 1.15517 6.57215 1.7282 7.06704C2.30122 7.56193 3.0784 7.83995 3.88878 7.83995H6.18043C6.99081 7.83995 7.76799 7.56193 8.34102 7.06704C8.91404 6.57215 9.23596 5.90094 9.23596 5.20106V3.2219C9.23596 2.52202 8.91404 1.85081 8.34102 1.35592C7.76799 0.861033 6.99081 0.583008 6.18043 0.583008V0.583008ZM7.70819 5.20106C7.70819 5.551 7.54723 5.88661 7.26072 6.13405C6.97421 6.38149 6.58562 6.52051 6.18043 6.52051H3.88878C3.48359 6.52051 3.095 6.38149 2.80849 6.13405C2.52198 5.88661 2.36102 5.551 2.36102 5.20106V3.2219C2.36102 2.87196 2.52198 2.53635 2.80849 2.28891C3.095 2.04146 3.48359 1.90245 3.88878 1.90245H6.18043C6.58562 1.90245 6.97421 2.04146 7.26072 2.28891C7.54723 2.53635 7.70819 2.87196 7.70819 3.2219V5.20106ZM6.18043 9.1594H3.88878C3.0784 9.1594 2.30122 9.43742 1.7282 9.93231C1.15517 10.4272 0.833252 11.0984 0.833252 11.7983L0.833252 13.7775C0.833252 14.4773 1.15517 15.1485 1.7282 15.6434C2.30122 16.1383 3.0784 16.4163 3.88878 16.4163H6.18043C6.99081 16.4163 7.76799 16.1383 8.34102 15.6434C8.91404 15.1485 9.23596 14.4773 9.23596 13.7775V11.7983C9.23596 11.0984 8.91404 10.4272 8.34102 9.93231C7.76799 9.43742 6.99081 9.1594 6.18043 9.1594ZM7.70819 13.7775C7.70819 14.1274 7.54723 14.463 7.26072 14.7104C6.97421 14.9579 6.58562 15.0969 6.18043 15.0969H3.88878C3.48359 15.0969 3.095 14.9579 2.80849 14.7104C2.52198 14.463 2.36102 14.1274 2.36102 13.7775V11.7983C2.36102 11.4483 2.52198 11.1127 2.80849 10.8653C3.095 10.6179 3.48359 10.4788 3.88878 10.4788H6.18043C6.58562 10.4788 6.97421 10.6179 7.26072 10.8653C7.54723 11.1127 7.70819 11.4483 7.70819 11.7983V13.7775ZM17.8625 13.1501L16.1109 14.6608V2.32006L17.8625 3.83082C17.9335 3.89207 18.0177 3.94065 18.1104 3.97378C18.2031 4.00692 18.3025 4.02395 18.4028 4.02392C18.5032 4.02389 18.6025 4.00679 18.6952 3.9736C18.7879 3.94042 18.8721 3.89179 18.943 3.83049C19.0139 3.7692 19.0702 3.69644 19.1085 3.61637C19.1469 3.5363 19.1666 3.45049 19.1666 3.36383C19.1665 3.27718 19.1468 3.19138 19.1083 3.11134C19.0699 3.03129 19.0136 2.95856 18.9426 2.89731L16.9665 1.19325C16.5368 0.822618 15.9543 0.614437 15.347 0.614437C14.7397 0.614437 14.1573 0.822618 13.7276 1.19325L11.7514 2.89731C11.6805 2.95856 11.6241 3.03129 11.5857 3.11134C11.5473 3.19138 11.5275 3.27718 11.5275 3.36383C11.5274 3.45049 11.5471 3.5363 11.5855 3.61637C11.6239 3.69644 11.6801 3.7692 11.751 3.83049C11.822 3.89179 11.9062 3.94042 11.9989 3.9736C12.0915 4.00679 12.1909 4.02389 12.2912 4.02392C12.3916 4.02395 12.4909 4.00692 12.5836 3.97378C12.6763 3.94065 12.7606 3.89207 12.8316 3.83082L14.5831 2.32006V14.6608L12.8316 13.1501C12.7606 13.0888 12.6763 13.0402 12.5836 13.0071C12.4909 12.974 12.3916 12.9569 12.2912 12.957C12.1909 12.957 12.0915 12.9741 11.9989 13.0073C11.9062 13.0405 11.822 13.0891 11.751 13.1504C11.6801 13.2117 11.6239 13.2844 11.5855 13.3645C11.5471 13.4446 11.5274 13.5304 11.5275 13.617C11.5275 13.7037 11.5473 13.7895 11.5857 13.8695C11.6241 13.9496 11.6805 14.0223 11.7514 14.0836L13.7276 15.7876C14.1573 16.1583 14.7397 16.3664 15.347 16.3664C15.9543 16.3664 16.5368 16.1583 16.9665 15.7876L18.9426 14.0836C19.0136 14.0223 19.0699 13.9496 19.1083 13.8695C19.1468 13.7895 19.1665 13.7037 19.1666 13.617C19.1666 13.5304 19.1469 13.4446 19.1085 13.3645C19.0702 13.2844 19.0139 13.2117 18.943 13.1504C18.8721 13.0891 18.7879 13.0405 18.6952 13.0073C18.6025 12.9741 18.5032 12.957 18.4028 12.957C18.3025 12.9569 18.2031 12.974 18.1104 13.0071C18.0177 13.0402 17.9335 13.0888 17.8625 13.1501Z" fill="#2C3635"/>
</svg>
