<svg id="Group_2958" data-name="Group 2958" xmlns="http://www.w3.org/2000/svg" width="20.147" height="20.165" viewBox="0 0 20.147 20.165">
  <defs>
    <style>
      .cls-1 {
        fill: #05ce79;
      }
    </style>
  </defs>
  <path id="Path_117" data-name="Path 117" class="cls-1" d="M1134.609,626.579a9.958,9.958,0,0,1,12.337-3.13,9.844,9.844,0,0,1,5.811,9.336,1.318,1.318,0,0,1-.6,1.225,1.281,1.281,0,0,1-1.97-1.081,7.8,7.8,0,0,0-.308-2.506,7.348,7.348,0,0,0-3.288-4.267,7.494,7.494,0,1,0-1.385,13.463,1.227,1.227,0,0,1,1.4.347,1.208,1.208,0,0,1,.224,1.368,1.256,1.256,0,0,1-.789.715,10.086,10.086,0,0,1-12.246-14.222,7.2,7.2,0,0,1,.376-.645C1134.3,626.974,1134.461,626.78,1134.609,626.579Z" transform="translate(-1132.612 -622.468)"/>
  <g id="Group_59" data-name="Group 59" transform="translate(7.298 6.029)">
    <path id="Path_118" data-name="Path 118" class="cls-1" d="M1213.579,690.216a.811.811,0,0,1,.073-.344.841.841,0,0,1,.2-.273.912.912,0,0,1,.292-.178.994.994,0,0,1,.361-.064l2.968,0a4.076,4.076,0,0,1,1.258.176,2.361,2.361,0,0,1,.9.515,2.132,2.132,0,0,1,.541.829,3.2,3.2,0,0,1,.18,1.112,3.1,3.1,0,0,1-.18,1.1,2.018,2.018,0,0,1-.541.8,2.359,2.359,0,0,1-.9.49,4.14,4.14,0,0,1-1.258.157h-2.044v2.439a.809.809,0,0,1-.073.346.875.875,0,0,1-.2.273.9.9,0,0,1-.292.18,1.042,1.042,0,0,1-.721,0,.9.9,0,0,1-.292-.18.874.874,0,0,1-.2-.273.807.807,0,0,1-.073-.346Zm3.522,2.877a2.086,2.086,0,0,0,.627-.069,1.19,1.19,0,0,0,.438-.221.887.887,0,0,0,.255-.35,1.212,1.212,0,0,0,.084-.46,1.2,1.2,0,0,0-.084-.455.922.922,0,0,0-.255-.354,1.178,1.178,0,0,0-.438-.228,2.206,2.206,0,0,0-.627-.079h-1.675v2.216Z" transform="translate(-1213.579 -689.357)"/>
  </g>
  <circle id="Ellipse_15" data-name="Ellipse 15" class="cls-1" cx="1.262" cy="1.262" r="1.262" transform="translate(15.793 14.063)"/>
</svg>
