<svg id="Group_2959" data-name="Group 2959" xmlns="http://www.w3.org/2000/svg" width="20.147" height="20.165" viewBox="0 0 20.147 20.165">
  <defs>
    <style>
      .cls-1 {
        fill: #ffd629;
      }
    </style>
  </defs>
  <path id="Path_119" data-name="Path 119" class="cls-1" d="M829.609,626.579a9.958,9.958,0,0,1,12.338-3.13,9.844,9.844,0,0,1,5.811,9.336,1.318,1.318,0,0,1-.6,1.225,1.281,1.281,0,0,1-1.97-1.081,7.8,7.8,0,0,0-.309-2.505,7.347,7.347,0,0,0-3.288-4.267,7.493,7.493,0,1,0-1.385,13.463,1.227,1.227,0,0,1,1.4.347,1.208,1.208,0,0,1,.224,1.368,1.256,1.256,0,0,1-.79.715,10.085,10.085,0,0,1-12.246-14.222,7.183,7.183,0,0,1,.376-.645C829.3,626.974,829.461,626.779,829.609,626.579Z" transform="translate(-827.612 -622.468)"/>
  <g id="Group_62" data-name="Group 62" transform="translate(5.963 5.75)">
    <path id="Path_120" data-name="Path 120" class="cls-1" d="M901.322,692.879a3.716,3.716,0,0,1-.547.9,3.425,3.425,0,0,1-.767.685,3.583,3.583,0,0,1-.966.438,4.113,4.113,0,0,1-1.151.155,4.507,4.507,0,0,1-1.207-.155,3.888,3.888,0,0,1-1.016-.438,3.679,3.679,0,0,1-.812-.681,4.018,4.018,0,0,1-.6-.883,4.527,4.527,0,0,1-.367-1.044,5.324,5.324,0,0,1-.125-1.164,5.553,5.553,0,0,1,.125-1.192,4.618,4.618,0,0,1,.367-1.061,4.056,4.056,0,0,1,.6-.893,3.669,3.669,0,0,1,.812-.687,3.838,3.838,0,0,1,1.016-.44,4.507,4.507,0,0,1,1.207-.155,4.225,4.225,0,0,1,1.05.129,3.654,3.654,0,0,1,.934.378,3.321,3.321,0,0,1,.769.614,3.226,3.226,0,0,1,.558.833.879.879,0,0,1,.086.382.83.83,0,0,1-.069.337.891.891,0,0,1-.187.275.849.849,0,0,1-.279.185.886.886,0,0,1-.341.066.843.843,0,0,1-.485-.146.853.853,0,0,1-.313-.378,1.776,1.776,0,0,0-.277-.447,1.9,1.9,0,0,0-.4-.356,1.984,1.984,0,0,0-.492-.236,1.794,1.794,0,0,0-.554-.086,2.316,2.316,0,0,0-.743.112,1.932,1.932,0,0,0-.582.309,2.008,2.008,0,0,0-.432.468,2.75,2.75,0,0,0-.3.591,3.519,3.519,0,0,0-.17.676,4.842,4.842,0,0,0-.054.722,4.514,4.514,0,0,0,.054.693,3.349,3.349,0,0,0,.17.657,2.71,2.71,0,0,0,.3.578,2.005,2.005,0,0,0,.432.462,1.959,1.959,0,0,0,.582.307,2.314,2.314,0,0,0,.743.112,1.837,1.837,0,0,0,1.183-.4,1.855,1.855,0,0,0,.391-.429,2.488,2.488,0,0,0,.26-.515.728.728,0,0,1,.122-.213.8.8,0,0,1,.187-.165.9.9,0,0,1,.232-.105.928.928,0,0,1,.262-.037.876.876,0,0,1,.623.251.865.865,0,0,1,.189.277.867.867,0,0,1,.045.539A1.055,1.055,0,0,1,901.322,692.879Z" transform="translate(-893.768 -686.261)"/>
  </g>
  <circle id="Ellipse_16" data-name="Ellipse 16" class="cls-1" cx="1.262" cy="1.262" r="1.262" transform="translate(15.793 14.063)"/>
</svg>
