<svg width="42" height="42" viewBox="0 0 42 42" fill="none" xmlns="http://www.w3.org/2000/svg">
<path d="M21.0346 40.9653C32.0612 40.9653 40.9999 32.0265 40.9999 21C40.9999 9.97343 32.0612 1.03467 21.0346 1.03467C10.0081 1.03467 1.06934 9.97343 1.06934 21C1.06934 32.0265 10.0081 40.9653 21.0346 40.9653Z" stroke="#346751" stroke-width="1.77" stroke-miterlimit="10"/>
<path d="M23.4836 33.5678C21.4688 34.1989 19.6471 34.8365 18.0444 35.4394C12.0804 34.123 7.589 33.4875 5.26846 33.2859C5.14701 33.0928 4.98436 32.8825 4.87159 32.6829C4.30555 31.6767 3.53782 30.7311 3.29492 29.6467C10.1347 30.3031 16.8954 31.6161 23.4836 33.5678Z" fill="#346751"/>
<path d="M6.28516 34.2791C8.46906 34.5371 11.4901 34.9709 15.0511 35.6801C12.7349 36.6842 11.1843 37.4671 10.5489 37.7989C8.96631 36.836 7.53039 35.6506 6.28516 34.2791Z" fill="#346751"/>
<path d="M20.8911 40.7961C19.4075 40.8988 17.9169 40.8099 16.4561 40.5315C20.6265 38.417 28.1672 34.9145 36.5883 33.52C31.2836 40.3472 21.7174 40.9653 20.8911 40.7961Z" fill="#346751"/>
<path d="M38.2175 31.5269C38.083 31.8544 37.5538 32.2621 37.4042 32.5722C26.1897 34.2313 19.7768 37.7533 15.5586 40.2777C14.3593 39.844 12.8369 39.3148 11.6094 38.5557C14.7779 36.4954 24.6825 30.8004 39.1522 29.7117C38.9852 30.3905 38.4842 30.8806 38.2175 31.5269Z" fill="#346751"/>
<path d="M21.8913 26.604H20.178L19.6943 33.5613H22.3749L21.8913 26.604Z" fill="#346751"/>
<path d="M22.3754 33.5613H21.0352V26.604H21.9026L21.9547 27.3262L22.3754 33.5613Z" fill="#346751"/>
<path d="M21.0344 24.7822C13.6781 22.375 9.77441 28.9614 9.77441 28.9614C9.77441 28.9614 16.157 32.0713 21.0344 26.6625C25.9119 32.0692 32.288 28.9592 32.288 28.9592C32.288 28.9592 28.3843 22.3728 21.0344 24.7822Z" fill="#346751"/>
<path d="M32.2883 28.9592C32.2883 28.9592 26.6605 31.7005 21.937 27.5561C21.616 27.2764 21.3125 26.9773 21.0283 26.6604V24.7823C21.7011 24.5576 22.3951 24.4021 23.0995 24.3181C29.122 23.6046 32.2883 28.9592 32.2883 28.9592Z" fill="#346751"/>
<path d="M6.21387 21.1995C6.21387 21.1995 11.074 28.8204 21.0675 26.6647L21.5489 25.4675C15.3724 18.1004 6.21387 21.1995 6.21387 21.1995Z" fill="#346751"/>
<path d="M35.8562 21.1994C35.8562 21.1994 31.007 28.8052 21.0352 26.6733V24.8863C27.1878 18.276 35.8562 21.1994 35.8562 21.1994Z" fill="#346751"/>
<path d="M8.82249 12.7068C8.82249 12.7068 8.61863 23.3964 20.4035 26.064L21.7177 25.01C20.397 13.9386 8.82249 12.7068 8.82249 12.7068Z" fill="#346751"/>
<path d="M33.2469 12.7068C33.2469 12.7068 33.4508 23.3964 21.6659 26.064L20.3604 25.01C21.6724 13.9386 33.2469 12.7068 33.2469 12.7068Z" fill="#346751"/>
<path d="M21.0346 5.22241C21.0346 5.22241 12.3597 15.1205 20.0652 26.066H22.0041C29.7074 15.1205 21.0346 5.22241 21.0346 5.22241Z" fill="#346751"/>
</svg>
