<svg xmlns="http://www.w3.org/2000/svg" width="342.055" height="83.5" viewBox="0 0 342.055 83.5">
    <defs>
        <style>
            .prefix__cls-1{fill:#333}
        </style>
    </defs>
    <g id="prefix__Group_118" data-name="Group 118" transform="translate(-233.071 -911.479)">
        <g id="prefix__Group_108" data-name="Group 108" transform="translate(330.107 937.116)">
            <path id="prefix__Path_73" d="M415.8 987.232a15.866 15.866 0 0 1-3.955-1.213v-4.332a18.932 18.932 0 0 0 4.174 1.431 20.084 20.084 0 0 0 4.293.477 6.939 6.939 0 0 0 4.054-.994 3.186 3.186 0 0 0 1.392-2.743 3.233 3.233 0 0 0-.636-2.047 5.371 5.371 0 0 0-1.868-1.43q-1.233-.616-3.776-1.61a15.32 15.32 0 0 1-5.645-3.538 6.988 6.988 0 0 1-1.748-4.849 6.8 6.8 0 0 1 1.232-4.015 7.923 7.923 0 0 1 3.459-2.7 12.917 12.917 0 0 1 5.128-.954 21.318 21.318 0 0 1 4.233.377 17.7 17.7 0 0 1 3.637 1.172v4.214a15.945 15.945 0 0 0-7-1.67 7.025 7.025 0 0 0-3.935.934 3 3 0 0 0-1.391 2.643 3.063 3.063 0 0 0 .636 2.007 5.2 5.2 0 0 0 1.69 1.312q1.053.536 3.8 1.689a24.179 24.179 0 0 1 4.392 2.266 7.633 7.633 0 0 1 2.425 2.6 7.5 7.5 0 0 1 .815 3.637 6.83 6.83 0 0 1-2.663 5.744q-2.664 2.048-7.87 2.047a26.041 26.041 0 0 1-4.873-.455z" class="prefix__cls-1" data-name="Path 73" transform="translate(-411.844 -958.711)"/>
            <path id="prefix__Path_74" d="M460.325 959.81h5.047v11.527h13.357V959.81h5.008v27.79h-5.008v-12.089h-13.357V987.6h-5.047z" class="prefix__cls-1" data-name="Path 74" transform="translate(-434.01 -959.214)"/>
            <path id="prefix__Path_75" d="M523.49 985.881a13.329 13.329 0 0 1-5.287-5.109 15.761 15.761 0 0 1 0-15.105 13.479 13.479 0 0 1 5.287-5.128 16.351 16.351 0 0 1 15.025 0 13.493 13.493 0 0 1 5.287 5.128 15.723 15.723 0 0 1 0 15.086 13.521 13.521 0 0 1-5.287 5.108 15.408 15.408 0 0 1-7.493 1.829 15.633 15.633 0 0 1-7.532-1.809zm12.382-3.975a8.988 8.988 0 0 0 3.478-3.459 11.216 11.216 0 0 0 .021-10.414 9 9 0 0 0-3.459-3.478 9.785 9.785 0 0 0-4.889-1.233 9.9 9.9 0 0 0-4.91 1.233 8.951 8.951 0 0 0-3.478 3.478 11.218 11.218 0 0 0 .02 10.414 8.946 8.946 0 0 0 3.5 3.459 9.937 9.937 0 0 0 4.87 1.213 9.825 9.825 0 0 0 4.847-1.214z" class="prefix__cls-1" data-name="Path 75" transform="translate(-459.591 -958.711)"/>
            <path id="prefix__Path_76" d="M583.358 959.81h11.13a10.719 10.719 0 0 1 7.334 2.424 8.378 8.378 0 0 1 2.763 6.639 8.171 8.171 0 0 1-2.743 6.658 11.186 11.186 0 0 1-7.394 2.286h-6.042v9.783h-5.048zm10.494 13.833q5.684 0 5.684-4.77 0-4.89-5.684-4.889h-5.446v9.659z" class="prefix__cls-1" data-name="Path 76" transform="translate(-490.262 -959.214)"/>
            <path id="prefix__Path_77" d="M637.443 963.984h-8.387v-4.174h21.823v4.174h-8.387V987.6h-5.048z" class="prefix__cls-1" data-name="Path 77" transform="translate(-511.156 -959.214)"/>
            <path id="prefix__Path_78" d="M680.613 959.81h18.8v4.174H685.66v7.632h10.216v4.174H685.66v7.633h13.754v4.177h-18.8z" class="prefix__cls-1" data-name="Path 78" transform="translate(-534.729 -959.214)"/>
            <path id="prefix__Path_79" d="M727.335 959.81h18.8v4.174h-13.752v7.632H742.6v4.174h-10.217v7.633h13.754v4.177h-18.8z" class="prefix__cls-1" data-name="Path 79" transform="translate(-556.09 -959.214)"/>
            <path id="prefix__Path_80" d="M774.058 959.81h4.77l13 19.358V959.81h5.048v27.79H792.1l-13-19.4v19.4h-5.048z" class="prefix__cls-1" data-name="Path 80" transform="translate(-577.453 -959.214)"/>
            <path id="prefix__Path_81" d="M830.373 959.81h5.048v27.79h-5.048z" class="prefix__cls-1" data-name="Path 81" transform="translate(-603.201 -959.214)"/>
            <path id="prefix__Path_82" d="M853.954 959.81H859v27.79h-5.048z" class="prefix__cls-1" data-name="Path 82" transform="translate(-613.982 -959.214)"/>
        </g>
        <g id="prefix__Group_109" data-name="Group 109" transform="translate(259.062 926.115)"/>
        <g id="prefix__Group_117" data-name="Group 117" transform="translate(233.071 911.479)">
            <g id="prefix__Group_110" data-name="Group 110" transform="translate(73.607 71.796)">
                <path id="prefix__Path_85" d="M369.284 1054.724c2.385-1.267 4.088-3.342 6.081-5.02 2.168-1.825 4.826-3.239 6.683-5.363.131-.151-.315-.653-.535-.582-2.845.926-4.924 2.858-7.068 4.546s-4.5 3.345-5.756 5.848c-.087.173.423.662.594.571z" class="prefix__cls-1" data-name="Path 85" transform="translate(-368.681 -1043.752)"/>
            </g>
            <g id="prefix__Group_116" data-name="Group 116">
                <g id="prefix__Group_111" data-name="Group 111" transform="translate(80.949 4.241)">
                    <path id="prefix__Path_86" d="M383.37 919.99c-1.426 10.583-1.206 21.6-1.046 32.256.167 11.175.53 22.5 1.809 33.606.164 1.427 2.362 1.35 2.251-.109-.832-10.939-1.748-21.8-1.893-32.781-.144-10.953.737-21.879.694-32.815 0-1.02-1.676-1.2-1.816-.157z" class="prefix__cls-1" data-name="Path 86" transform="translate(-382.207 -919.292)"/>
                </g>
                <g id="prefix__Group_112" data-name="Group 112" transform="translate(75.192 41.03)">
                    <path id="prefix__Path_87" d="M373.29 1023.613c.566-5.708.069-11.61.065-17.346 0-6.239.624-12.606.189-18.823a.4.4 0 0 0-.793-.069c-1.125 5.9-.981 12.165-1.067 18.153-.085 5.956-.331 12.253.782 18.126a.43.43 0 0 0 .823-.04z" class="prefix__cls-1" data-name="Path 87" transform="translate(-371.601 -987.07)"/>
                </g>
                <g id="prefix__Group_113" data-name="Group 113" transform="translate(9.249)">
                    <path id="prefix__Path_88" d="M323.136 914.348c-5.269-1.312-11.07-1.208-16.476-1.5-6.232-.336-12.472-.572-18.709-.777q-18.309-.6-36.629-.593c-1.733 0-1.525 2.523.127 2.637 5.932.407 11.749 1.736 17.652 2.156 1.35.1 1.277-1.833.191-2.2-5.637-1.9-12.059-2.2-17.969-2.594l.127 2.637q17.91-.022 35.814.518 8.951.276 17.9.7c5.835.27 12.048 1.126 17.854.447a.729.729 0 0 0 .124-1.432z" class="prefix__cls-1" data-name="Path 88" transform="translate(-250.111 -911.479)"/>
                </g>
                <g id="prefix__Group_114" data-name="Group 114" transform="translate(0 2.909)">
                    <path id="prefix__Path_89" d="M319 998.746h-.1q.182 3.722.182 5.763v5.978h7.831l-4.329-6.129q-1.733-2.419-3.584-5.612z" class="prefix__cls-1" data-name="Path 89" transform="translate(-272.315 -954.287)"/>
                    <path id="prefix__Path_90" d="M305.879 996.245v12.388h3.55V994.69h-1.989a1.558 1.558 0 0 0-1.561 1.555z" class="prefix__cls-1" data-name="Path 90" transform="translate(-266.36 -952.433)"/>
                    <path id="prefix__Path_91" d="M281.562 995.5h-17.081a2.6 2.6 0 0 0-1.9.656 2.441 2.441 0 0 0-.67 1.828 2.368 2.368 0 0 0 .683 1.815 2.6 2.6 0 0 0 1.856.642h9.295a6.8 6.8 0 0 1 4.7 1.451 5.654 5.654 0 0 1 1.6 4.41 6.971 6.971 0 0 1-.391 2.372c-.041.115-.091.223-.138.332h2.522v-12.387a1.542 1.542 0 0 0-.476-1.119z" class="prefix__cls-1" data-name="Path 91" transform="translate(-246.258 -952.801)"/>
                    <path id="prefix__Path_92" d="M305.688 922.2a1.637 1.637 0 0 0-1.967-1.959l-14.238-.746-32.743-2.466-.036.75-18-.942c-.627 25.651-1.238 51.618-5.523 76.916a2.858 2.858 0 0 0 .386 2.553 2.821 2.821 0 0 0 1.942.553q35.248 1.06 70.519.149-.168-37.408-.34-74.808zm-15.554 24.73v1.539a1.818 1.818 0 0 0-.027.3zm-32.52-25.486a2.248 2.248 0 0 1 1.326 4c.551 3.757 2.874 12.512 12.615 12.926 9.617.409 13.424-8.022 14.638-11.755a2.252 2.252 0 1 1 2.25.514c-1.336 4.169-5.7 14.023-16.987 13.543-11.269-.48-14.084-10.553-14.774-14.88a2.252 2.252 0 0 1 .931-4.343zm-6.393 61.767a2.693 2.693 0 1 1 2.692-2.692 2.693 2.693 0 0 1-2.692 2.692zm34.558 0a2.693 2.693 0 1 1 2.693-2.692 2.692 2.692 0 0 1-2.693 2.692zm14.255-32.891H293.9v23.98a2.035 2.035 0 0 1-1.571 1.891 1.75 1.75 0 0 1-.528.089h-29.658c-.273 0-.536-.011-.791-.03-.255.02-.518.03-.791.03H244.1a1.772 1.772 0 1 1 0-3.544h16.458a3.068 3.068 0 0 0 2.191-.726 2.527 2.527 0 0 0 .767-1.926 2.447 2.447 0 0 0-.767-1.968 3.282 3.282 0 0 0-2.191-.656h-9.322a7.337 7.337 0 0 1-2.582-.433 5.571 5.571 0 0 1-1.953-1.2 5.27 5.27 0 0 1-1.227-1.827 6.068 6.068 0 0 1-.433-2.317 6.242 6.242 0 0 1 .4-2.275 4.847 4.847 0 0 1 1.2-1.8 5.677 5.677 0 0 1 1.968-1.187 7.715 7.715 0 0 1 2.68-.433H279.1c.036 0 .071.008.106.01s.078.007.116.012a1.421 1.421 0 0 1 .153.028 1.849 1.849 0 0 1 1.1.735l9.757 13.7-.132-21.773a2.142 2.142 0 0 1 1.885-2.076l3.956.024 3.956-.024a1.848 1.848 0 0 1 .04 3.7z" class="prefix__cls-1" data-name="Path 92" transform="translate(-233.071 -916.838)"/>
                </g>
                <g id="prefix__Group_115" data-name="Group 115" transform="translate(60.745 2.515)">
                    <path id="prefix__Path_93" d="M356.085 920.036c-3.187-1.27-6.445-2.151-9.485-3.8l-.466 2.122c7.007.16 14.491 1.066 21.45.286.8-.09 1.007-1.33.129-1.484-6.986-1.222-14.6-.777-21.688-1.05-1.148-.045-1.409 1.638-.466 2.122 3.256 1.67 6.6 3.015 10.306 2.8.491-.028.732-.8.22-1z" class="prefix__cls-1" data-name="Path 93" transform="translate(-344.985 -916.113)"/>
                </g>
            </g>
        </g>
        <path id="prefix__Path_94" d="M336.89 963.689v-1.539l-.027 1.844a1.821 1.821 0 0 1 .027-.3z" class="prefix__cls-1" data-name="Path 94" transform="translate(-47.455 -23.167)"/>
        <path id="prefix__Path_95" d="M336.89 963.689v-1.539l-.027 1.844a1.821 1.821 0 0 1 .027-.3z" class="prefix__cls-1" data-name="Path 95" transform="translate(-47.455 -23.167)"/>
    </g>
</svg>
