<svg xmlns="http://www.w3.org/2000/svg" width="27.57" height="27.57" viewBox="0 0 27.57 27.57">
    <g id="prefix__Group_2809" data-name="Group 2809" transform="translate(-288.857 -88.891)">
        <g id="prefix__Group_131" data-name="Group 131" transform="translate(288.857 88.891)">
            <path id="prefix__Path_184" fill="#333" d="M314.813 90.507a5.517 5.517 0 0 0-7.8 0l-15.417 15.417a1.1 1.1 0 0 0-.276.473l-2.421 8.7a1.08 1.08 0 0 0 1.332 1.325l8.7-2.473a1.076 1.076 0 0 0 .468-1.8l-5.484-5.5 12.779-12.779 4.752 4.755-9.783 9.756a1.077 1.077 0 0 0 1.522 1.524l11.631-11.6a5.52 5.52 0 0 0 0-7.8zm-18.233 21.87l-5.093 1.447 1.427-5.123zm16.712-15.593l-.321.321-4.757-4.754.321-.321a3.363 3.363 0 0 1 4.757 4.754z" data-name="Path 184" transform="translate(-288.857 -88.891)"/>
        </g>
    </g>
</svg>
