<svg xmlns="http://www.w3.org/2000/svg" id="prefix__Group_119" width="61" height="61" data-name="Group 119" viewBox="0 0 61 61">
    <g id="prefix__Mail">
        <circle id="prefix__Oval" cx="30.5" cy="30.5" r="30.5" fill="#0971bd"/>
        <path id="prefix__Shape" fill="#fff" d="M26.017 23.621H2.364A2.366 2.366 0 0 1 0 21.259L.019 7.086c.008 0 2.994 1.592 6.221 3.158 5.38 2.609 7.293 3.157 7.951 3.157 2.5 0 14.056-6.251 14.173-6.315l.019 14.173a2.366 2.366 0 0 1-2.366 2.362zM14.19 10.153C11.91 10.153.119 3.482 0 3.415V2.362A2.366 2.366 0 0 1 2.364 0h23.653a2.366 2.366 0 0 1 2.365 2.362l-.019 1.181-.014.009c-1.209.675-11.872 6.601-14.159 6.601z" transform="translate(15.747 18.77)"/>
    </g>
</svg>
