<svg xmlns="http://www.w3.org/2000/svg" id="prefix__Google-_" width="59.053" height="59.053" data-name="Google-+" viewBox="0 0 59.053 59.053">
    <defs>
        <style>
            .prefix__cls-2{fill:#fff}
        </style>
    </defs>
    <g id="prefix__Group_120" data-name="Group 120">
        <path id="prefix__back" fill="#dc4e41" d="M0 29.526a29.526 29.526 0 1 1 29.526 29.527A29.526 29.526 0 0 1 0 29.526z"/>
        <path id="prefix__Combined-Shape-path" d="M11 9.455h10.384a10.175 10.175 0 0 1 .173 1.828c0 6.3-4.211 10.778-10.559 10.778A11.03 11.03 0 0 1 11 0a10.527 10.527 0 0 1 7.369 2.884l-2.987 2.883A6.18 6.18 0 0 0 11 4.065a6.9 6.9 0 0 0-6.821 6.965A6.9 6.9 0 0 0 11 18a5.944 5.944 0 0 0 6.238-4.759H11z" class="prefix__cls-2" transform="translate(11.403 18.988)"/>
        <path id="prefix__Combined-Shape-path-2" d="M9.427 3.152V6.3H6.285v3.155H3.142V6.3H0V3.152h3.142V0h3.143v3.152z" class="prefix__cls-2" data-name="Combined-Shape-path" transform="translate(36.542 25.291)"/>
    </g>
</svg>
