<svg xmlns="http://www.w3.org/2000/svg" width="53.134" height="46.102" viewBox="0 0 53.134 46.102">
  <defs>
    <style>
      .cls-1 {
        fill: #fafaff;
      }

      .cls-2 {
        fill: #c45e9f;
      }

      .cls-3 {
        fill: #f6c100;
      }

      .cls-4 {
        fill: #422a4e;
      }
    </style>
  </defs>
  <g id="Group_2843" data-name="Group 2843" transform="translate(-555.011 -847.543)">
    <g id="Group_2830" data-name="Group 2830" transform="translate(555.011 847.543)">
      <rect id="Rectangle_1810" data-name="Rectangle 1810" class="cls-1" width="35.819" height="24.408" rx="4" transform="translate(0 25.328) rotate(-45)"/>
      <rect id="Rectangle_1811" data-name="Rectangle 1811" class="cls-2" width="35.206" height="4.899" transform="translate(3.588 28.915) rotate(-45)"/>
      <rect id="Rectangle_1812" data-name="Rectangle 1812" class="cls-3" width="4.024" height="4.287" transform="translate(29.41 17.444) rotate(-45)"/>
      <g id="Group_2829" data-name="Group 2829" transform="translate(0.582 0.582)">
        <g id="Group_2820" data-name="Group 2820">
          <g id="Group_2819" data-name="Group 2819">
            <path id="Path_3603" data-name="Path 3603" d="M578.289,850.231l-20.59,20.59a4.143,4.143,0,0,0,0,5.851l12.872,12.872a4.143,4.143,0,0,0,5.851,0l20.59-20.59a4.143,4.143,0,0,0,0-5.851L584.14,850.231A4.143,4.143,0,0,0,578.289,850.231Zm17.553,14.042a2.486,2.486,0,0,1,0,3.51l-20.591,20.59a2.485,2.485,0,0,1-3.51,0L558.869,875.5a2.486,2.486,0,0,1,0-3.511l20.59-20.59a2.486,2.486,0,0,1,3.511,0l12.872,12.872Z" transform="translate(-556.49 -849.021)"/>
          </g>
        </g>
        <g id="Group_2822" data-name="Group 2822" transform="translate(2.137 2.137)">
          <g id="Group_2821" data-name="Group 2821">
            <path id="Path_3604" data-name="Path 3604" d="M587.433,854.694l-25.271,25.271a.828.828,0,0,0,0,1.17l3.511,3.511a.828.828,0,0,0,1.17,0l25.271-25.271a.827.827,0,0,0,0-1.17l-3.51-3.51A.828.828,0,0,0,587.433,854.694Zm2.925,4.1-24.1,24.1-2.34-2.34,24.1-24.1,2.34,2.34Z" transform="translate(-561.92 -854.451)"/>
          </g>
        </g>
        <g id="Group_2824" data-name="Group 2824" transform="translate(13.839 25.068)">
          <g id="Group_2823" data-name="Group 2823">
            <path id="Path_3605" data-name="Path 3605" d="M598.912,912.95l-7.021,7.021a.827.827,0,0,0,1.17,1.17l7.021-7.021a.827.827,0,1,0-1.17-1.17Z" transform="translate(-591.649 -912.707)"/>
          </g>
        </g>
        <g id="Group_2826" data-name="Group 2826" transform="translate(16.179 27.408)">
          <g id="Group_2825" data-name="Group 2825">
            <path id="Path_3606" data-name="Path 3606" d="M604.858,918.9l-7.021,7.021a.827.827,0,0,0,1.17,1.17l7.021-7.021a.827.827,0,1,0-1.17-1.17Z" transform="translate(-597.594 -918.653)"/>
          </g>
        </g>
        <g id="Group_2828" data-name="Group 2828" transform="translate(28.095 13.356)">
          <g id="Group_2827" data-name="Group 2827">
            <path id="Path_3607" data-name="Path 3607" d="M629.761,883.678l-1.17,1.17a2.485,2.485,0,0,0,0,3.51l1.17,1.17a2.485,2.485,0,0,0,3.511,0l1.17-1.17a2.485,2.485,0,0,0,0-3.51l-1.17-1.17A2.485,2.485,0,0,0,629.761,883.678Zm3.511,2.341a.827.827,0,0,1,0,1.17l-1.17,1.17a.827.827,0,0,1-1.17,0l-1.17-1.17a.827.827,0,0,1,0-1.17l1.17-1.17a.827.827,0,0,1,1.17,0Z" transform="translate(-627.866 -882.952)"/>
          </g>
        </g>
      </g>
    </g>
    <g id="Group_2842" data-name="Group 2842" transform="translate(570.752 867.167)">
      <rect id="Rectangle_1813" data-name="Rectangle 1813" class="cls-2" width="35.819" height="24.408" rx="3" transform="translate(0.787 0.816)"/>
      <rect id="Rectangle_1814" data-name="Rectangle 1814" class="cls-4" width="35.206" height="4.899" transform="translate(0.787 5.89)"/>
      <rect id="Rectangle_1815" data-name="Rectangle 1815" class="cls-3" width="4.024" height="4.287" transform="translate(27.158 16.038)"/>
      <g id="Group_2841" data-name="Group 2841">
        <g id="Group_2832" data-name="Group 2832">
          <g id="Group_2831" data-name="Group 2831">
            <path id="Path_3608" data-name="Path 3608" d="M628.257,897.4H599.138A4.143,4.143,0,0,0,595,901.535v18.2a4.143,4.143,0,0,0,4.137,4.137h29.119a4.143,4.143,0,0,0,4.137-4.137v-18.2A4.143,4.143,0,0,0,628.257,897.4Zm2.482,22.341a2.485,2.485,0,0,1-2.482,2.482H599.138a2.485,2.485,0,0,1-2.483-2.482v-18.2a2.486,2.486,0,0,1,2.483-2.483h29.119a2.485,2.485,0,0,1,2.482,2.483v18.2Z" transform="translate(-595.001 -897.398)"/>
          </g>
        </g>
        <g id="Group_2834" data-name="Group 2834" transform="translate(0 4.965)">
          <g id="Group_2833" data-name="Group 2833">
            <path id="Path_3609" data-name="Path 3609" d="M631.567,910.011H595.828a.828.828,0,0,0-.827.827V915.8a.828.828,0,0,0,.827.828h35.738a.828.828,0,0,0,.827-.828v-4.965A.827.827,0,0,0,631.567,910.011Zm-.827,4.964H596.656v-3.31h34.083v3.31Z" transform="translate(-595.001 -910.011)"/>
          </g>
        </g>
        <g id="Group_2836" data-name="Group 2836" transform="translate(4.965 16.549)">
          <g id="Group_2835" data-name="Group 2835">
            <path id="Path_3610" data-name="Path 3610" d="M618.371,939.441h-9.929a.827.827,0,1,0,0,1.655h9.929a.827.827,0,0,0,0-1.655Z" transform="translate(-607.614 -939.441)"/>
          </g>
        </g>
        <g id="Group_2838" data-name="Group 2838" transform="translate(4.965 19.858)">
          <g id="Group_2837" data-name="Group 2837">
            <path id="Path_3611" data-name="Path 3611" d="M618.371,947.849h-9.929a.828.828,0,0,0,0,1.655h9.929a.828.828,0,0,0,0-1.655Z" transform="translate(-607.614 -947.849)"/>
          </g>
        </g>
        <g id="Group_2840" data-name="Group 2840" transform="translate(25.809 14.894)">
          <g id="Group_2839" data-name="Group 2839">
            <path id="Path_3612" data-name="Path 3612" d="M664.707,935.236h-1.655a2.485,2.485,0,0,0-2.482,2.483v1.655a2.485,2.485,0,0,0,2.482,2.482h1.655a2.485,2.485,0,0,0,2.482-2.482v-1.655A2.485,2.485,0,0,0,664.707,935.236Zm.827,4.137a.828.828,0,0,1-.827.827h-1.655a.828.828,0,0,1-.827-.827v-1.655a.828.828,0,0,1,.827-.827h1.655a.827.827,0,0,1,.827.827Z" transform="translate(-660.57 -935.236)"/>
          </g>
        </g>
      </g>
    </g>
  </g>
</svg>
