<svg id="Group_157" data-name="Group 157" xmlns="http://www.w3.org/2000/svg" width="37.209" height="37.209" viewBox="0 0 37.209 37.209">
  <defs>
    <style>
      .cls-1 {
        fill: #418de5;
      }

      .cls-2 {
        fill: #fff;
      }
    </style>
  </defs>
  <rect id="Rectangle_27" data-name="Rectangle 27" class="cls-1" width="37.209" height="37.209" rx="8" transform="translate(0 0)"/>
  <g id="g6429" transform="translate(3.943 3.728)">
    <path id="path6431" class="cls-2" d="M-825.248,63.356s.174-.29.261.116a5.6,5.6,0,0,1-1.19,3.8,5.968,5.968,0,0,1-5.484,1.712,5.565,5.565,0,0,0,4.845-4.091l.116-.435a3.137,3.137,0,0,0,1.451-1.1m8.792-11.838a.261.261,0,0,0-.029-.145s-.058-.232-.2-.638a.413.413,0,0,1-.058-.174h0a.1.1,0,0,0-.029-.058,7.548,7.548,0,0,0-1.6-2.321s.9-.058-.087-1.161a15.066,15.066,0,0,0-4.787-3.395c-1.683-.783-3.6-.464-3.424,1.422a1.677,1.677,0,0,1-2.06,1.712c-1.132-.145-1.828-1.073-1.625-1.828a3.4,3.4,0,0,1,1.248-1.944,2.833,2.833,0,0,1,1.509-.725c.464-.087,1.1-.261,1.277.29.319-.174.9-1.277-.987-1.277a.892.892,0,0,0-.929-.493s-1.886-1.857-4,.435c0,0-.812.319-.87,0,.174.145.493-.29.087-.464-.2-.087-.435.145-.464.319a.477.477,0,0,0,.435.551,1.089,1.089,0,0,0,.319,0l-.145.174c-.638.261-1.219.058-1.335-.377a.243.243,0,0,0,.348-.174.345.345,0,0,0-.319-.435c-.348-.058-.493.348-.435.7a1.094,1.094,0,0,0,1.335.812l-.116.174a15.477,15.477,0,0,0-1.248,1.857c-.58.986-2.93,2.089-2.524-.29.116-.754-1.132-1.654-3.366-.145a11.965,11.965,0,0,0-3.714,4s-.464.754.319.783c0,0-1.6.754-1.683,4.381h0v.725c0,.406.029.87.058,1.132a7.792,7.792,0,0,0,.551,2.553h.058c.116.087.261.116.464-.087h0A21.671,21.671,0,0,0-843,61.935c.812,1.625,2.292,4,1.712,4.584s-1.393-.58-1.277-.116a1.159,1.159,0,0,0,1.8.7c1.393-1.1-.638-3.743-1.277-7.079,1.335-.58,1.277-2.669,1.277-2.669a2.8,2.8,0,0,0,2.466-2.292,2.988,2.988,0,0,0,3.395-1.335v-.029l.029-.029a4.375,4.375,0,0,0,1.277,1.857,1.683,1.683,0,0,1-1.19,1.306,4.018,4.018,0,0,0-2.756,0c-1.306.522-.783,1.915.174,1.567a.377.377,0,0,1,.087-.725.9.9,0,0,0,.377.174h0a4.4,4.4,0,0,0,1.973-.116c.058-.029.116-.029.174-.087h.029a1.266,1.266,0,0,0,.2-.174.345.345,0,0,1,.087.667.709.709,0,0,0,.754-1.1s.174-.116.406-.29a2.57,2.57,0,0,0,.435-.522,6.29,6.29,0,0,0,2.205.957,3.456,3.456,0,0,1-1.857,1.48,3.6,3.6,0,0,0-2.64.145.974.974,0,0,0-.493.928.843.843,0,0,0,1.016.725c-.232-.116-.754-.7-.087-.957a.658.658,0,0,0,.464.319h0a3.841,3.841,0,0,0,2.205-.29c.058-.029.087-.029.145-.058a.09.09,0,0,0,.058-.029h0a.492.492,0,0,0,.174-.174c.319-.058.754.087.58.7.377-.058.986-.725.087-1.277a5.267,5.267,0,0,0,.957-.638l.638-.638a2.713,2.713,0,0,1,2.176,2.814A3.271,3.271,0,0,1-829.31,63.1c.029,0,.087-.029.116-.029l-.145.029h.029a3.262,3.262,0,0,1-.58.058c-1.1-.029-.435-1.306-.435-1.306a.512.512,0,0,0-.493.2,1.3,1.3,0,0,0-.174.987c-.058-.029-.116-.029-.145-.058-.957-.406-.9-1.132-.9-1.132-.261.116-.435.435-.348.986.145.725,1.074,1.044,1.828,1.132a2.8,2.8,0,0,0,2.727.609s-.7,3.714-5.4,3.54c0,0-1.422-.522-1.364-1.712a2.455,2.455,0,0,1,1.161-2.147,1.72,1.72,0,0,0-1.828,1.364,2.562,2.562,0,0,0,.377,2.234c-1.77-.464-3.1-1.8-2.553-3.656a2.291,2.291,0,0,1,.493-.841,3.427,3.427,0,0,1,3.308-.493,1.656,1.656,0,0,0-1.625-1.074,2.942,2.942,0,0,0-3.1,2.9c-.145,2.147,1.219,3.714,4.613,4.207l.058.029a6.25,6.25,0,0,0,4.961.667s5.861-1.19,4.613-7.892c0,0,1.364-4.468-1.509-6.992a4.224,4.224,0,0,0,3.946.609c-.145,4.062,1.567,4.584,1.567,4.584l.058-.029s-3.221,6.934-1.335,7.834a1.27,1.27,0,0,0,1.77-.667c.319-.667-.7.638-1.277.087-.7-.7.174-2.35,1.016-4.12a19.989,19.989,0,0,0,2.118-5.339.421.421,0,0,0,.377.029l.029.029c.464-.116.754-2.031.812-2.35a9.173,9.173,0,0,0,.087-3.859" transform="translate(845.616 -40.073)"/>
  </g>
</svg>
