<svg xmlns="http://www.w3.org/2000/svg" width="46.543" height="45.388" viewBox="0 0 46.543 45.388">
  <defs>
    <style>
      .cls-1 {
        fill: #fafaff;
      }

      .cls-2 {
        fill: #ebecee;
      }

      .cls-3 {
        fill: #cfced0;
      }

      .cls-4 {
        fill: #9b9a9c;
      }

      .cls-5 {
        fill: #422a4e;
      }

      .cls-6 {
        fill: #311a3a;
      }

      .cls-7 {
        fill: #f6c100;
      }

      .cls-8 {
        fill: #a54e86;
      }

      .cls-9 {
        fill: #c8c2d5;
      }

      .cls-10 {
        fill: #c45e9f;
      }
    </style>
  </defs>
  <g id="Group_2845" data-name="Group 2845" transform="translate(18.63 -845.785)">
    <path id="Path_3613" data-name="Path 3613" class="cls-1" d="M24.543,894.108H5.008a2.367,2.367,0,0,1-2.361-2.361V853.583a2.368,2.368,0,0,1,2.361-2.361H24.543a2.368,2.368,0,0,1,2.361,2.361v38.165A2.368,2.368,0,0,1,24.543,894.108Z" transform="translate(-14.163 -3.619)"/>
    <path id="Path_3614" data-name="Path 3614" class="cls-2" d="M63.591,851.222h-2.28a2.368,2.368,0,0,1,2.361,2.361v38.165a2.368,2.368,0,0,1-2.361,2.361h2.28a2.368,2.368,0,0,0,2.361-2.361V853.583A2.368,2.368,0,0,0,63.591,851.222Z" transform="translate(-53.211 -3.619)"/>
    <path id="Path_3615" data-name="Path 3615" class="cls-3" d="M2.646,961.5v3.65a2.368,2.368,0,0,0,2.361,2.361H24.542a2.368,2.368,0,0,0,2.361-2.361V961.5Z" transform="translate(-14.162 -77.026)"/>
    <path id="Path_3616" data-name="Path 3616" class="cls-4" d="M65.952,965.154V961.5H63.672v3.65a2.368,2.368,0,0,1-2.361,2.361h2.281A2.368,2.368,0,0,0,65.952,965.154Z" transform="translate(-53.211 -77.026)"/>
    <path id="Path_3617" data-name="Path 3617" class="cls-3" d="M26.9,857.233v-3.65a2.368,2.368,0,0,0-2.361-2.361H5.008a2.368,2.368,0,0,0-2.361,2.361v3.65Z" transform="translate(-14.163 -3.619)"/>
    <path id="Path_3618" data-name="Path 3618" class="cls-4" d="M61.311,851.222a2.368,2.368,0,0,1,2.361,2.361v3.65h2.281v-3.65a2.368,2.368,0,0,0-2.361-2.361Z" transform="translate(-53.211 -3.619)"/>
    <path id="Path_3619" data-name="Path 3619" class="cls-5" d="M64.5,906.8H39.416a.823.823,0,0,1-.821-.821V890.558a.824.824,0,0,1,.821-.821H64.5a.823.823,0,0,1,.821.821v15.418A.823.823,0,0,1,64.5,906.8Z" transform="translate(-38.09 -29.256)"/>
    <path id="Path_3620" data-name="Path 3620" class="cls-6" d="M111.7,889.737h-2.189a.823.823,0,0,1,.821.821v15.418a.823.823,0,0,1-.821.821H111.7a.823.823,0,0,0,.821-.821V890.558A.823.823,0,0,0,111.7,889.737Z" transform="translate(-85.297 -29.256)"/>
    <path id="Path_3621" data-name="Path 3621" class="cls-7" d="M89.733,901.482a2.553,2.553,0,1,1-2.553-2.553A2.553,2.553,0,0,1,89.733,901.482Z" transform="translate(-68.731 -35.374)"/>
    <path id="Path_3622" data-name="Path 3622" class="cls-7" d="M99.8,901.482a2.553,2.553,0,1,1-2.553-2.553A2.553,2.553,0,0,1,99.8,901.482Z" transform="translate(-75.435 -35.374)"/>
    <path id="Path_3623" data-name="Path 3623" class="cls-8" d="M54.955,904.218H48.973a.823.823,0,0,1-.821-.821v-3.1a.823.823,0,0,1,.821-.821h5.982a.823.823,0,0,1,.821.821v3.1A.823.823,0,0,1,54.955,904.218Z" transform="translate(-44.452 -35.741)"/>
    <path id="Path_3624" data-name="Path 3624" class="cls-9" d="M67.467,924.511H47.614a.824.824,0,0,1-.822-.821v-1.022a.824.824,0,0,1,.822-.821H67.467a.823.823,0,0,1,.821.821v1.022A.823.823,0,0,1,67.467,924.511Z" transform="translate(-43.547 -50.629)"/>
    <path id="Path_3625" data-name="Path 3625" class="cls-10" d="M-4.564,853.841a6.01,6.01,0,0,1-6.01,6.01,6.01,6.01,0,0,1-6.01-6.01,6.01,6.01,0,0,1,6.01-6.01A6.01,6.01,0,0,1-4.564,853.841Z" transform="translate(-1.362 -1.362)"/>
    <path id="Path_3626" data-name="Path 3626" class="cls-8" d="M-.88,847.831a6.02,6.02,0,0,0-1.141.11,6.011,6.011,0,0,1,4.869,5.9,6.011,6.011,0,0,1-4.869,5.9,6.02,6.02,0,0,0,1.141.109,6.01,6.01,0,0,0,6.01-6.01A6.01,6.01,0,0,0-.88,847.831Z" transform="translate(-11.055 -1.362)"/>
    <path id="Path_3627" data-name="Path 3627" d="M26.408,859.8H13.426v-9.834a2.988,2.988,0,0,0-.016-.311,3.049,3.049,0,0,0-3.029-2.734H-8.213a6.654,6.654,0,0,0-3.723-1.134,6.7,6.7,0,0,0-6.694,6.694,6.7,6.7,0,0,0,6.43,6.687v6.383a.684.684,0,0,0,.684.684.685.685,0,0,0,.684-.684V859.08A6.713,6.713,0,0,0-5.5,854.3H12.057v5.5H1.325c-.046,0-.092,0-.136.007v-2.358H-.18v23.183H1.189v-2.411c.045,0,.09.007.136.007H12.057v5.569H-10.831V868.477a.684.684,0,0,0-.684-.684.684.684,0,0,0-.684.684v19.652a3.048,3.048,0,0,0,3.045,3.045H10.381a3.049,3.049,0,0,0,3.029-2.734,2.989,2.989,0,0,0,.016-.311v-9.9h4.136a.684.684,0,0,0,0-1.369H1.325a.138.138,0,0,1-.136-.137V861.3a.139.139,0,0,1,.136-.137H26.408a.139.139,0,0,1,.137.137V876.72a.138.138,0,0,1-.137.137H20.557a.684.684,0,1,0,0,1.369h5.851a1.507,1.507,0,0,0,1.505-1.505V861.3A1.507,1.507,0,0,0,26.408,859.8ZM-11.936,857.8a5.332,5.332,0,0,1-5.326-5.326,5.332,5.332,0,0,1,5.326-5.326,5.332,5.332,0,0,1,5.325,5.326A5.332,5.332,0,0,1-11.936,857.8Zm6.677-4.875c.01-.149.017-.3.017-.45a6.662,6.662,0,0,0-1.48-4.192h17.1a1.675,1.675,0,0,1,1.677,1.677v2.966Zm-3.9,36.876a1.679,1.679,0,0,1-1.677-1.677v-2.966H12.057v2.966a1.676,1.676,0,0,1-1.677,1.677Z" transform="translate(0)"/>
    <path id="Path_3628" data-name="Path 3628" d="M87.5,902.884a3.237,3.237,0,1,0,0-5.526,3.237,3.237,0,1,0,0,5.526Zm3.553-2.763a1.869,1.869,0,1,1-1.869-1.869A1.871,1.871,0,0,1,91.055,900.121Zm-7.105,0a1.871,1.871,0,0,1,1.869-1.869,1.852,1.852,0,0,1,.648.117,3.226,3.226,0,0,0,0,3.5,1.868,1.868,0,0,1-2.516-1.752Z" transform="translate(-67.369 -34.013)"/>
    <path id="Path_3629" data-name="Path 3629" d="M53.593,903.54a1.507,1.507,0,0,0,1.506-1.505v-3.1a1.507,1.507,0,0,0-1.506-1.505H47.61a1.507,1.507,0,0,0-1.505,1.505v3.1a1.507,1.507,0,0,0,1.505,1.505Zm-6.119-1.505v-3.1a.138.138,0,0,1,.137-.137h5.982a.139.139,0,0,1,.137.137v3.1a.139.139,0,0,1-.137.137H47.61A.138.138,0,0,1,47.474,902.035Z" transform="translate(-43.089 -34.379)"/>
    <path id="Path_3630" data-name="Path 3630" d="M44.747,921.305v1.022a1.507,1.507,0,0,0,1.505,1.505H66.106a1.507,1.507,0,0,0,1.505-1.505v-1.022a1.507,1.507,0,0,0-1.505-1.505H46.252A1.507,1.507,0,0,0,44.747,921.305Zm1.368,0a.139.139,0,0,1,.137-.137H66.106a.139.139,0,0,1,.137.137v1.022a.139.139,0,0,1-.137.137H46.252a.139.139,0,0,1-.137-.137Z" transform="translate(-42.185 -49.266)"/>
    <path id="Path_3631" data-name="Path 3631" d="M-2.44,859.829l-2.023,2.191-.906-1.129a.684.684,0,0,0-.962-.105.684.684,0,0,0-.1.962l1.4,1.748a.684.684,0,0,0,.51.255H-4.5a.683.683,0,0,0,.5-.22l2.563-2.775a.684.684,0,0,0-.039-.967A.685.685,0,0,0-2.44,859.829Z" transform="translate(-8.015 -9.202)"/>
  </g>
</svg>
