<svg id="Group_156" data-name="Group 156" xmlns="http://www.w3.org/2000/svg" width="37.209" height="37.209" viewBox="0 0 37.209 37.209">
  <defs>
    <style>
      .cls-1 {
        fill: #44a953;
      }

      .cls-2 {
        fill: #fff;
      }
    </style>
  </defs>
  <rect id="Rectangle_26" data-name="Rectangle 26" class="cls-1" width="37.209" height="37.209" rx="8" transform="translate(0 0)"/>
  <g id="Group_155" data-name="Group 155" transform="translate(6.803 5.022)">
    <g id="Group_153" data-name="Group 153" transform="translate(0 20.361)">
      <g id="Group_152" data-name="Group 152">
        <path id="Path_162" data-name="Path 162" class="cls-2" d="M-347.47,273.669a5.717,5.717,0,0,0-2.831-.8,6.294,6.294,0,0,0-2.8.8,6.975,6.975,0,0,1-3.031.829,6.141,6.141,0,0,1-2.745-.772,6.992,6.992,0,0,0-3.06-.829,6.925,6.925,0,0,0-2.831.772,7.088,7.088,0,0,1-3.031.829h-.2c.114.143.257.314.372.458a7.4,7.4,0,0,0,3.031-.858,6.353,6.353,0,0,1,2.631-.744,6.54,6.54,0,0,1,2.86.8,6.706,6.706,0,0,0,2.945.829,7.386,7.386,0,0,0,3.231-.886,6.235,6.235,0,0,1,2.631-.744,5.286,5.286,0,0,1,2.631.772,6.235,6.235,0,0,0,3.146.858c.143-.143.257-.315.4-.486-.114,0-.257.029-.372.029a6.669,6.669,0,0,1-2.974-.858" transform="translate(368.003 -272.868)"/>
        <path id="Path_163" data-name="Path 163" class="cls-2" d="M-343.052,282.09a6.292,6.292,0,0,0-2.8.8,6.975,6.975,0,0,1-3.031.829,6.138,6.138,0,0,1-2.745-.772,6.994,6.994,0,0,0-3.06-.829,6.926,6.926,0,0,0-2.831.772,8.2,8.2,0,0,1-2.488.8,5.29,5.29,0,0,0,.4.4,8.6,8.6,0,0,0,2.288-.772,6.354,6.354,0,0,1,2.631-.744,6.539,6.539,0,0,1,2.86.8,6.706,6.706,0,0,0,2.945.829,7.384,7.384,0,0,0,3.231-.886,5.848,5.848,0,0,1,2.631-.744,5.285,5.285,0,0,1,2.631.772,7.219,7.219,0,0,0,2.373.829,5.455,5.455,0,0,0,.4-.429,6.209,6.209,0,0,1-2.574-.8,5.454,5.454,0,0,0-2.86-.858" transform="translate(360.754 -281.232)"/>
        <path id="Path_164" data-name="Path 164" class="cls-2" d="M-336.082,291.313a6.292,6.292,0,0,0-2.8.8,6.976,6.976,0,0,1-3.031.829,6.139,6.139,0,0,1-2.745-.772,6.993,6.993,0,0,0-3.06-.829,6.924,6.924,0,0,0-2.831.772,8.123,8.123,0,0,1-1.773.658c.143.114.257.257.4.372.543-.172,1.058-.4,1.544-.6a6.357,6.357,0,0,1,2.631-.743,6.539,6.539,0,0,1,2.86.8,6.706,6.706,0,0,0,2.946.829,7.384,7.384,0,0,0,3.231-.887,6.236,6.236,0,0,1,2.631-.743,5.588,5.588,0,0,1,2.631.743,7.481,7.481,0,0,0,1.6.658c.143-.114.286-.257.429-.372a6.41,6.41,0,0,1-1.8-.715,6.364,6.364,0,0,0-2.86-.8" transform="translate(353.783 -289.597)"/>
        <path id="Path_165" data-name="Path 165" class="cls-2" d="M-328.832,300.843a6.291,6.291,0,0,0-2.8.8,6.976,6.976,0,0,1-3.031.829,6.138,6.138,0,0,1-2.745-.772,6.994,6.994,0,0,0-3.06-.829,6.924,6.924,0,0,0-2.831.772,11.087,11.087,0,0,1-1.03.429l.429.343c.286-.114.543-.229.8-.343a6.356,6.356,0,0,1,2.631-.743,6.539,6.539,0,0,1,2.86.8,6.705,6.705,0,0,0,2.945.829,7.384,7.384,0,0,0,3.231-.886,5.848,5.848,0,0,1,2.631-.743,5.285,5.285,0,0,1,2.631.772,7.4,7.4,0,0,0,.829.4l.429-.343c-.372-.143-.715-.315-1.058-.486a5.72,5.72,0,0,0-2.86-.829" transform="translate(346.534 -298.241)"/>
        <path id="Path_166" data-name="Path 166" class="cls-2" d="M-321.583,310.066a6.294,6.294,0,0,0-2.8.8,6.976,6.976,0,0,1-3.031.829,6.139,6.139,0,0,1-2.745-.772,6.627,6.627,0,0,0-3.06-.829,6.926,6.926,0,0,0-2.831.772c-.086.057-.2.086-.286.143.143.114.286.2.429.314.029,0,.029,0,.057-.029a6.355,6.355,0,0,1,2.631-.744,6.539,6.539,0,0,1,2.86.8,6.706,6.706,0,0,0,2.945.829,7.385,7.385,0,0,0,3.231-.887,5.848,5.848,0,0,1,2.631-.744,5.285,5.285,0,0,1,2.631.772c.029.029.057.029.114.057.143-.086.286-.2.429-.286a3.113,3.113,0,0,1-.315-.172,5.93,5.93,0,0,0-2.888-.858" transform="translate(339.284 -306.606)"/>
        <path id="Path_167" data-name="Path 167" class="cls-2" d="M-317.472,320.368a6.976,6.976,0,0,1-3.031.829,6.139,6.139,0,0,1-2.745-.772,6.993,6.993,0,0,0-3.06-.829,5.667,5.667,0,0,0-2.345.572,4.3,4.3,0,0,0,.486.286,4.908,4.908,0,0,1,1.859-.4,6.539,6.539,0,0,1,2.86.8,6.705,6.705,0,0,0,2.945.829,7.384,7.384,0,0,0,3.232-.887,6.235,6.235,0,0,1,2.631-.743,4.343,4.343,0,0,1,1.945.429c.172-.086.315-.2.457-.286a5.3,5.3,0,0,0-2.4-.6,7.052,7.052,0,0,0-2.831.772" transform="translate(332.313 -315.249)"/>
      </g>
    </g>
    <g id="Group_154" data-name="Group 154" transform="translate(3.088)">
      <path id="Path_168" data-name="Path 168" class="cls-2" d="M-222.644,136.209a3,3,0,0,1-1,1.43c-.715.572-5.462,3.46-6.005,4.118a3.857,3.857,0,0,0-.629,2.4v5.576h.744v-1.43a3.008,3.008,0,0,1,.858-1.859,42.049,42.049,0,0,1,4.747-3.374,3.561,3.561,0,0,0,1.315-3.2v-3.8Z" transform="translate(240.002 -128.431)"/>
      <path id="Path_169" data-name="Path 169" class="cls-2" d="M-242.519,66.968c.515-.658,5.433-3.632,6.12-4.2a3.531,3.531,0,0,0,1.516-2.545V53.985A3.959,3.959,0,0,1-236,56.359c-.715.944-4,2.717-5.634,3.861a4.188,4.188,0,0,0-2.173,3.66V75.261h.715V69.313A3.479,3.479,0,0,1-242.519,66.968Z" transform="translate(252.271 -53.985)"/>
      <path id="Path_170" data-name="Path 170" class="cls-2" d="M-328.768,61.063c-1.487-1.144-4.518-3.575-4.89-4.061a4.127,4.127,0,0,1-1.144-2.4v5.805a4.38,4.38,0,0,0,1.83,3.374c1.43,1.058,3.46,2.574,4.089,3.2a4.622,4.622,0,0,1,1.172,3.289v5.6h.715V64.752A3.622,3.622,0,0,0-328.768,61.063Z" transform="translate(334.802 -54.543)"/>
    </g>
  </g>
</svg>
