<svg xmlns="http://www.w3.org/2000/svg" width="70.396" height="31.741" viewBox="0 0 70.396 31.741">
  <defs>
    <style>
      .cls-1 {
        fill: #024e5b;
      }

      .cls-2 {
        fill: #f5851f;
      }
    </style>
  </defs>
  <g id="Group_2848" data-name="Group 2848" transform="translate(-29.696 -19.691)">
    <path id="Path_3632" data-name="Path 3632" class="cls-1" d="M59.475,23.7h7.245V49.13H61.913V28.468H56.674Z" transform="translate(-5.734 -0.851)"/>
    <g id="Group_2846" data-name="Group 2846" transform="translate(29.696 22.844)">
      <path id="Path_3633" data-name="Path 3633" class="cls-1" d="M52.37,23.7H29.7v4.772h7.918V49.13h4.911V28.468h7.045Z" transform="translate(-29.696 -23.696)"/>
    </g>
    <g id="Group_2847" data-name="Group 2847" transform="translate(62.051 19.691)">
      <path id="Path_3634" data-name="Path 3634" class="cls-1" d="M74.924,44.708l9.512-11.79,8.07,3.779,11.485-10.711-.09-.064Q100.433,23.54,93.677,23V19.691H91.335v3.183q-.918-.03-1.887-.029c-.4,0-.789,0-1.173.012V19.691H85.933v3.262a24.488,24.488,0,0,0-7.491,1.466,12.36,12.36,0,0,0-5.762,4.359,11.916,11.916,0,0,0-1.9,6.87,11.507,11.507,0,0,0,1.884,6.77A10.2,10.2,0,0,0,74.924,44.708Z" transform="translate(-70.784 -19.691)"/>
      <path id="Path_3635" data-name="Path 3635" class="cls-2" d="M106.855,27.923,96.282,43.866,88.29,40.373l-5.251,8.674a30.053,30.053,0,0,0,5.5.85v3.285H90.88V50.009c.495.013,1,.02,1.517.02s1.041-.007,1.543-.02v3.174h2.342V49.894a25.313,25.313,0,0,0,7.257-1.43,12.329,12.329,0,0,0,5.946-4.432A11.879,11.879,0,0,0,111.43,37.2,10.927,10.927,0,0,0,106.855,27.923Z" transform="translate(-73.389 -21.441)"/>
    </g>
  </g>
</svg>
