<svg xmlns="http://www.w3.org/2000/svg" width="36" height="36" viewBox="0 0 36 36">
  <defs>
    <style>
      .cls-1 {
        fill: #1308ad;
      }

      .cls-2 {
        fill: #fff;
      }
    </style>
  </defs>
  <g id="Group_149" data-name="Group 149" transform="translate(0.062 0)">
    <rect id="Rectangle_24" data-name="Rectangle 24" class="cls-1" width="36" height="36" rx="8" transform="translate(-0.062 0)"/>
    <g id="Group_148" data-name="Group 148" transform="translate(6.994 2.166)">
      <path id="Path_160" data-name="Path 160" class="cls-2" d="M-1243.684,43.481l-5.422-7.086-5.422,7.086c-4.09,5.35-5.707,7.752-5.707,11.343,0,3.044.785,4.518,3.638,6.587l7.49,5.422,7.491-5.422c2.854-2.069,3.638-3.543,3.638-6.587C-1237.977,51.233-1239.594,48.832-1243.684,43.481Zm-7.087,17.6-.047,1.474c0,.19-.119.214-.238.119-1.95-1.4-4.233-3.067-4.233-3.067a5.369,5.369,0,0,1-2.521-4.827,6.876,6.876,0,0,1,.523-2.735c.024-.071.071-.19.143-.19.048,0,.071.024.1.071.832,1.213,2.164,3.186,3.5,4.8C-1250.985,59.818-1250.723,59.556-1250.771,61.078Zm1.665-2.782c-.024,0-.047-.024-.071-.024l-5.255-6.23a3.6,3.6,0,0,1-.928-2.283,2.606,2.606,0,0,1,.571-1.569l5.612-7.7c.024-.024.048-.048.071-.048s.048.024.071.048l5.612,7.7a2.767,2.767,0,0,1,.571,1.569,3.48,3.48,0,0,1-.927,2.283l-5.255,6.23A.087.087,0,0,1-1249.106,58.3Zm6.183,1.308s-2.307,1.665-4.233,3.067c-.119.1-.214.071-.238-.119l-.047-1.474c-.048-1.522.214-1.26,2.782-4.352,1.332-1.617,2.663-3.567,3.5-4.8a.127.127,0,0,1,.095-.071c.048,0,.119.119.143.19a7.312,7.312,0,0,1,.523,2.735A5.369,5.369,0,0,1-1242.923,59.6Z" transform="translate(1260.235 -36.395)"/>
    </g>
  </g>
</svg>
