<svg xmlns="http://www.w3.org/2000/svg" width="46.287" height="44.388" viewBox="0 0 46.287 44.388">
  <defs>
    <style>
      .cls-1 {
        fill: #422a4e;
      }

      .cls-2 {
        fill: #c8c2d5;
      }

      .cls-3 {
        fill: #fafaff;
      }

      .cls-4 {
        fill: #c45e9f;
      }

      .cls-5 {
        fill: #a54e86;
      }

      .cls-6 {
        fill: #f6c100;
      }
    </style>
  </defs>
  <g id="Group_2890" data-name="Group 2890" transform="translate(-1713.397 -845.785)">
    <g id="Group_2900" data-name="Group 2900" transform="translate(1714.076 846.463)">
      <g id="Group_2899" data-name="Group 2899" transform="translate(0)">
        <g id="Group_2892" data-name="Group 2892" transform="translate(3.988 14.624)">
          <path id="Path_3641" data-name="Path 3641" class="cls-1" d="M1732.426,900.969h4.335v18.648h-4.335Z" transform="translate(-1730.87 -898.225)"/>
          <g id="Group_2891" data-name="Group 2891">
            <path id="Path_3642" data-name="Path 3642" class="cls-2" d="M1733.88,896.5H1728.9a1.235,1.235,0,0,1-1.235-1.234v-2.691h7.448v2.691a1.234,1.234,0,0,1-1.234,1.234Z" transform="translate(-1727.667 -892.578)"/>
            <path id="Path_3643" data-name="Path 3643" class="cls-2" d="M1733.88,951.992H1728.9a1.235,1.235,0,0,0-1.235,1.234v2.691h7.448v-2.691a1.234,1.234,0,0,0-1.234-1.234Z" transform="translate(-1727.667 -932.563)"/>
          </g>
        </g>
        <g id="Group_2894" data-name="Group 2894" transform="translate(33.493 14.624)">
          <path id="Path_3644" data-name="Path 3644" class="cls-1" d="M1822.653,900.969h4.335v18.648h-4.335Z" transform="translate(-1821.097 -898.225)"/>
          <g id="Group_2893" data-name="Group 2893">
            <path id="Path_3645" data-name="Path 3645" class="cls-2" d="M1824.107,896.5h-4.98a1.234,1.234,0,0,1-1.234-1.234v-2.691h7.448v2.691A1.234,1.234,0,0,1,1824.107,896.5Z" transform="translate(-1817.893 -892.578)"/>
            <path id="Path_3646" data-name="Path 3646" class="cls-2" d="M1824.107,951.992h-4.98a1.234,1.234,0,0,0-1.234,1.234v2.691h7.448v-2.691A1.234,1.234,0,0,0,1824.107,951.992Z" transform="translate(-1817.893 -932.563)"/>
          </g>
        </g>
        <g id="Group_2896" data-name="Group 2896" transform="translate(18.74 14.624)">
          <path id="Path_3647" data-name="Path 3647" class="cls-1" d="M1777.54,900.969h4.335v18.648h-4.335Z" transform="translate(-1775.984 -898.225)"/>
          <g id="Group_2895" data-name="Group 2895">
            <path id="Path_3648" data-name="Path 3648" class="cls-2" d="M1778.994,896.5h-4.979a1.234,1.234,0,0,1-1.234-1.234v-2.691h7.448v2.691A1.234,1.234,0,0,1,1778.994,896.5Z" transform="translate(-1772.78 -892.578)"/>
            <path id="Path_3649" data-name="Path 3649" class="cls-2" d="M1778.994,951.992h-4.979a1.234,1.234,0,0,0-1.234,1.234v2.691h7.448v-2.691A1.234,1.234,0,0,0,1778.994,951.992Z" transform="translate(-1772.78 -932.563)"/>
          </g>
        </g>
        <g id="Group_2898" data-name="Group 2898">
          <path id="Path_3650" data-name="Path 3650" class="cls-3" d="M1720.763,883.289v2.565a1.419,1.419,0,0,0,1.419,1.419h38.63a1.419,1.419,0,0,0,1.419-1.419v-2.565Z" transform="translate(-1719.032 -871.703)"/>
          <path id="Path_3651" data-name="Path 3651" class="cls-3" d="M1827.666,883.289v2.565a1.419,1.419,0,0,1-1.419,1.419h5.555a1.419,1.419,0,0,0,1.419-1.419v-2.565Z" transform="translate(-1790.022 -871.703)"/>
          <path id="Path_3652" data-name="Path 3652" class="cls-4" d="M1716.351,860.165a1.534,1.534,0,0,1,.027-2.788l20.95-9.385a1.534,1.534,0,0,1,1.255,0l20.913,9.384a1.534,1.534,0,0,1,.026,2.788h0a1.534,1.534,0,0,1-.654.147h-41.86a1.531,1.531,0,0,1-.655-.147Z" transform="translate(-1715.471 -847.858)"/>
          <g id="Group_2897" data-name="Group 2897" transform="translate(37.848 7.436)">
            <path id="Path_3653" data-name="Path 3653" class="cls-5" d="M1837.389,872.679l-4.641-2.082v3.51a1.483,1.483,0,0,1-.879,1.36h0a1.534,1.534,0,0,1-.654.147h5.547a1.535,1.535,0,0,0,.655-.147h0a1.534,1.534,0,0,0-.026-2.788Z" transform="translate(-1831.211 -870.597)"/>
          </g>
          <path id="Path_3654" data-name="Path 3654" class="cls-3" d="M1720.763,961.59v3.629h41.468V961.59a.786.786,0,0,0-.786-.786h-39.9a.786.786,0,0,0-.786.786Z" transform="translate(-1719.032 -923.87)"/>
          <path id="Path_3655" data-name="Path 3655" class="cls-3" d="M1833.737,960.8h-5.555a.786.786,0,0,1,.786.786v3.629h5.555V961.59A.787.787,0,0,0,1833.737,960.8Z" transform="translate(-1791.325 -923.87)"/>
          <path id="Path_3656" data-name="Path 3656" class="cls-4" d="M1715.588,971.276v1.056a.627.627,0,0,0,.628.628h43.638a.627.627,0,0,0,.627-.628v-1.056a1.472,1.472,0,0,0-1.471-1.472h-41.95a1.472,1.472,0,0,0-1.472,1.472Z" transform="translate(-1715.55 -929.927)"/>
          <path id="Path_3657" data-name="Path 3657" class="cls-5" d="M1836.445,969.8h-5.8a1.712,1.712,0,0,1,1.713,1.712v1.443h4.927a.628.628,0,0,0,.628-.628v-1.056A1.472,1.472,0,0,0,1836.445,969.8Z" transform="translate(-1792.985 -929.927)"/>
          <circle id="Ellipse_103" data-name="Ellipse 103" class="cls-6" cx="2.8" cy="2.8" r="2.8" transform="translate(19.664 4.185)"/>
        </g>
      </g>
    </g>
    <g id="Group_2903" data-name="Group 2903" transform="translate(1713.397 845.785)">
      <g id="Group_2902" data-name="Group 2902">
        <g id="Group_2901" data-name="Group 2901">
          <path id="Path_3658" data-name="Path 3658" d="M1757.952,885.7v-1.52a1.466,1.466,0,0,0-1.464-1.464h-.793v-.97a1.914,1.914,0,0,0-1.557-1.877V865.655a1.914,1.914,0,0,0,1.557-1.877V862.71h.161a2.1,2.1,0,0,0,2.1-2.1V859.54a2.213,2.213,0,0,0,.427-4.177l-20.913-9.384a2.215,2.215,0,0,0-1.81,0l-20.951,9.385a2.211,2.211,0,0,0,.423,4.177v1.074a2.1,2.1,0,0,0,2.1,2.1h.161v1.067a1.914,1.914,0,0,0,1.557,1.877v1.955a.678.678,0,0,0,1.355,0v-1.92h2.98v14.149h-2.98v-9.061a.678.678,0,0,0-1.355,0v9.1a1.914,1.914,0,0,0-1.557,1.877v.97h-.794a1.466,1.466,0,0,0-1.464,1.464v1.529a2.152,2.152,0,0,0-1.692,2.1v1.056a1.306,1.306,0,0,0,1.305,1.3h43.639a1.306,1.306,0,0,0,1.3-1.3v-1.056a2.152,2.152,0,0,0-1.733-2.108Zm-3.613-3.954v.97h-6.093v-.97a.557.557,0,0,1,.557-.557h4.979A.557.557,0,0,1,1754.339,881.75Zm-13.4.97v-.97a1.914,1.914,0,0,0-1.556-1.877V865.655a1.914,1.914,0,0,0,1.556-1.877V862.71h5.949v1.067a1.914,1.914,0,0,0,1.556,1.877v9.159a.678.678,0,0,0,1.355,0v-9.125h2.98v14.149h-2.98v-1.857a.678.678,0,1,0-1.355,0v1.892a1.914,1.914,0,0,0-1.556,1.877v.97Zm-7.448,0v-.97a.557.557,0,0,1,.557-.557h4.98a.557.557,0,0,1,.557.557v.97Zm-7.306,0v-.97a1.914,1.914,0,0,0-1.557-1.877V865.655a1.914,1.914,0,0,0,1.557-1.877V862.71h5.951v1.067a1.914,1.914,0,0,0,1.557,1.877v14.218a1.914,1.914,0,0,0-1.557,1.877v.97Zm13.4-20.01v1.067a.557.557,0,0,1-.557.557h-4.98a.557.557,0,0,1-.557-.557V862.71Zm-4.537,17.128V865.689h2.98v14.149Zm19.288-16.061a.557.557,0,0,1-.557.557h-4.98a.557.557,0,0,1-.557-.557V862.71h6.093v1.067Zm-39.08-7.177,20.951-9.385a.858.858,0,0,1,.7,0l20.913,9.384a.858.858,0,0,1-.354,1.64h-41.861a.86.86,0,0,1-.366-.082h0a.856.856,0,0,1,.015-1.557Zm1.224,4.014v-1.02H1756.6v1.02a.743.743,0,0,1-.742.742h-38.631a.742.742,0,0,1-.742-.742Zm2.258,3.163V862.71h6.093v1.067a.557.557,0,0,1-.557.557H1719.3A.557.557,0,0,1,1718.741,863.777Zm0,17.973a.558.558,0,0,1,.557-.557h4.979a.558.558,0,0,1,.557.557v.97h-6.093Zm-2.149,2.325h39.9a.109.109,0,0,1,.109.109v1.479h-40.114v-1.479a.109.109,0,0,1,.109-.109Zm41.738,4.744h-43.539v-1.006a.8.8,0,0,1,.794-.794h41.951a.8.8,0,0,1,.794.794Z" transform="translate(-1713.397 -845.785)"/>
          <path id="Path_3659" data-name="Path 3659" d="M1777.011,865.536a3.478,3.478,0,1,0-3.477-3.478,3.482,3.482,0,0,0,3.477,3.478Zm0-5.6a2.123,2.123,0,1,1-2.122,2.123A2.125,2.125,0,0,1,1777.011,859.936Z" transform="translate(-1753.869 -854.397)"/>
        </g>
      </g>
    </g>
  </g>
</svg>
