<svg xmlns="http://www.w3.org/2000/svg" id="Group_109" width="21.748" height="20" data-name="Group 109" viewBox="0 0 21.748 20">
    <defs>
        <style>
            .cls-1{fill:#c75ba1}
        </style>
    </defs>
    <path id="Path_34" d="M847.078 19.039a6.624 6.624 0 0 0-10.425-4.195.477.477 0 0 1-.69 0 6.6 6.6 0 0 0-10.254 3.541 6.347 6.347 0 0 0 1.723 6.525c2.755 2.782 5.533 5.541 8.3 8.309.434.436.714.436 1.15 0l8.331-8.333a6.5 6.5 0 0 0 1.949-4.7 4.562 4.562 0 0 0-.084-1.147zm-2.673 4.886c-2.625 2.642-5.266 5.27-7.9 7.909-.152.152-.231.171-.395.008-2.629-2.639-5.287-5.249-7.89-7.914a5.069 5.069 0 0 1-1.239-5.465 5.37 5.37 0 0 1 8.766-2.19c.428.4.678.393 1.107.008a5.388 5.388 0 0 1 8.995 3 7.548 7.548 0 0 1 .088.812 5.4 5.4 0 0 1-1.531 3.833z" class="cls-1" data-name="Path 34" transform="translate(-825.428 -13.544)"/>
    <path id="Path_35" d="M826.507 19.137a4.567 4.567 0 0 1 3.255-4.386c.446-.135.806.009.908.366.107.379-.081.662-.54.812a3.371 3.371 0 0 0-2.286 4.061.633.633 0 0 1-.412.8.621.621 0 0 1-.784-.482 3.777 3.777 0 0 1-.141-1.171z" class="cls-1" data-name="Path 35" transform="translate(-824.485 -12.532)"/>
</svg>
