<svg id="Group_151" data-name="Group 151" xmlns="http://www.w3.org/2000/svg" width="37.209" height="37.209" viewBox="0 0 37.209 37.209">
  <defs>
    <style>
      .cls-1 {
        fill: #461c86;
      }

      .cls-2 {
        fill: #f7b416;
      }
    </style>
  </defs>
  <rect id="Rectangle_25" data-name="Rectangle 25" class="cls-1" width="37.209" height="37.209" rx="8" transform="translate(0)"/>
  <g id="Group_150" data-name="Group 150" transform="translate(4.734 4.391)">
    <path id="Path_161" data-name="Path 161" class="cls-2" d="M51.206,72.323c2.287,1.069,4.574,2.163,6.861,3.256a.716.716,0,0,0,.4.075h5.22c.3,0,.348-.1.348-.373-.025-1.541,0-3.082,0-4.624,0-.1-.025-.149-.025-.3a3.627,3.627,0,0,1-.348.149,9.494,9.494,0,0,1-5.021,1.044,3.2,3.2,0,0,1-1.84-.82,4.28,4.28,0,0,1-1.193-3.207,20.05,20.05,0,0,1,.2-2.983,10.532,10.532,0,0,1,.92-3.356,24.566,24.566,0,0,1,5.543-7.582,27.634,27.634,0,0,1,2.486-1.939.487.487,0,0,1,.621,0c.671.5,1.367.945,1.989,1.467a24.742,24.742,0,0,1,4.176,4.8,15.144,15.144,0,0,1,2.635,5.792A13.265,13.265,0,0,1,74.4,68.47a3.393,3.393,0,0,1-3.58,3.107,7.526,7.526,0,0,1-2.759-.5c-.646-.224-1.293-.5-1.939-.746v4.822c0,.323.1.4.423.4,1.69-.025,3.356,0,5.046-.025a1.89,1.89,0,0,0,.646-.149c2.212-1.044,4.425-2.113,6.612-3.157.447-.224.447-.2.323-.7-1.243-4.872-2.461-9.72-3.7-14.592a1.164,1.164,0,0,0-.273-.472c-.5-.5-1.019-.969-1.516-1.442-.969-.895-1.939-1.79-2.933-2.685-1.317-1.193-2.61-2.362-3.928-3.58-.5-.472-1.044-.945-1.541-1.442a.291.291,0,0,0-.472.025c-.224.224-.472.423-.7.621-1.019.945-2.038,1.889-3.058,2.809-1.094.994-2.163,1.989-3.281,2.983l-2.386,2.163a2.326,2.326,0,0,0-.8,1.019c-1.218,4.847-2.436,9.719-3.679,14.567C50.858,72.025,50.907,72.2,51.206,72.323Z" transform="translate(-50.891 -47.207)"/>
  </g>
</svg>
