<svg xmlns="http://www.w3.org/2000/svg" xmlns:xlink="http://www.w3.org/1999/xlink" id="prefix__Group_11" width="175.411" height="42.25" data-name="Group 11" viewBox="0 0 175.411 42.25">
    <defs>
        <linearGradient id="prefix__linear-gradient" x1=".5" x2=".5" y2="1" gradientUnits="objectBoundingBox">
            <stop offset="0" stop-color="#c75ba1"/>
            <stop offset="1" stop-color="#42294f"/>
        </linearGradient>
        <linearGradient id="prefix__linear-gradient-2" x1=".5" x2=".5" y1="0" y2="1" xlink:href="#prefix__linear-gradient"/>
        <linearGradient id="prefix__linear-gradient-3" x1=".5" x2=".5" y1="0" y2="1" xlink:href="#prefix__linear-gradient"/>
        <linearGradient id="prefix__linear-gradient-4" x1=".5" x2=".5" y1="0" y2="1" xlink:href="#prefix__linear-gradient"/>
        <linearGradient id="prefix__linear-gradient-6" x1=".5" x2=".5" y1="0" y2="1" xlink:href="#prefix__linear-gradient"/>
        <style>
            .prefix__cls-1{fill:#666}.prefix__cls-2{fill:#5e3a77}.prefix__cls-3{fill:url(#prefix__linear-gradient)}.prefix__cls-8{fill:#f8f8ff}
        </style>
    </defs>
    <g id="prefix__Group_1" data-name="Group 1" transform="translate(51.434 6.084)">
        <path id="prefix__Path_1" d="M96.232 83.1a8.066 8.066 0 0 1-2-.614v-2.194a9.5 9.5 0 0 0 2.112.724 10.146 10.146 0 0 0 2.171.242 3.5 3.5 0 0 0 2.051-.5 1.609 1.609 0 0 0 .7-1.388 1.635 1.635 0 0 0-.322-1.036 2.712 2.712 0 0 0-.945-.724q-.624-.312-1.911-.814A7.754 7.754 0 0 1 95.237 75a3.532 3.532 0 0 1-.885-2.454 3.439 3.439 0 0 1 .623-2.031 4.023 4.023 0 0 1 1.75-1.368 6.548 6.548 0 0 1 2.6-.483 10.811 10.811 0 0 1 2.141.191 8.971 8.971 0 0 1 1.841.594v2.131a8.082 8.082 0 0 0-3.54-.845 3.558 3.558 0 0 0-1.991.473 1.52 1.52 0 0 0-.7 1.338 1.55 1.55 0 0 0 .321 1.016 2.63 2.63 0 0 0 .855.664q.534.272 1.921.855a12.294 12.294 0 0 1 2.223 1.146 3.871 3.871 0 0 1 1.226 1.318 3.792 3.792 0 0 1 .412 1.84 3.454 3.454 0 0 1-1.348 2.906A6.462 6.462 0 0 1 98.7 83.33a13.231 13.231 0 0 1-2.468-.23z" class="prefix__cls-1" data-name="Path 1" transform="translate(-94.231 -68.667)"/>
        <path id="prefix__Path_2" d="M106.207 68.939h2.554v5.832h6.758v-5.832h2.535V83h-2.535v-6.117h-6.758V83h-2.554z" class="prefix__cls-1" data-name="Path 2" transform="translate(-92.892 -68.637)"/>
        <path id="prefix__Path_3" d="M123.678 82.415A6.737 6.737 0 0 1 121 79.83a7.968 7.968 0 0 1 0-7.643 6.807 6.807 0 0 1 2.675-2.6 8.273 8.273 0 0 1 7.6 0 6.829 6.829 0 0 1 2.675 2.6 7.956 7.956 0 0 1 0 7.633 6.849 6.849 0 0 1-2.675 2.585 7.812 7.812 0 0 1-3.791.925 7.916 7.916 0 0 1-3.806-.915zm6.265-2.011a4.554 4.554 0 0 0 1.759-1.75 5.676 5.676 0 0 0 .01-5.27 4.556 4.556 0 0 0-1.749-1.76A4.962 4.962 0 0 0 127.49 71a5.019 5.019 0 0 0-2.485.623 4.539 4.539 0 0 0-1.76 1.76 5.68 5.68 0 0 0 .011 5.27 4.527 4.527 0 0 0 1.769 1.75 5.034 5.034 0 0 0 2.465.613 4.977 4.977 0 0 0 2.454-.616z" class="prefix__cls-1" data-name="Path 3" transform="translate(-91.346 -68.667)"/>
        <path id="prefix__Path_4" d="M136.6 68.939h5.631a5.418 5.418 0 0 1 3.71 1.226 4.24 4.24 0 0 1 1.4 3.359 4.135 4.135 0 0 1-1.388 3.369 5.66 5.66 0 0 1-3.741 1.156h-3.058V83H136.6zm5.309 7q2.877 0 2.876-2.414 0-2.475-2.876-2.474h-2.755v4.888z" class="prefix__cls-1" data-name="Path 4" transform="translate(-89.493 -68.637)"/>
        <path id="prefix__Path_5" d="M152.13 71.05h-4.244v-2.111h11.042v2.111h-4.244V83h-2.554z" class="prefix__cls-1" data-name="Path 5" transform="translate(-88.23 -68.637)"/>
        <path id="prefix__Path_6" d="M160.621 68.939h9.514v2.111h-6.959v3.861h5.169v2.113h-5.169v3.861h6.959V83h-9.514z" class="prefix__cls-1" data-name="Path 6" transform="translate(-86.806 -68.637)"/>
        <path id="prefix__Path_7" d="M172.163 68.939h9.513v2.111h-6.959v3.861h5.169v2.113h-5.169v3.861h6.959V83h-9.513z" class="prefix__cls-1" data-name="Path 7" transform="translate(-85.515 -68.637)"/>
        <path id="prefix__Path_8" d="M183.7 68.939h2.414l6.577 9.794v-9.794h2.554V83h-2.413l-6.578-9.815V83H183.7z" class="prefix__cls-1" data-name="Path 8" transform="translate(-84.224 -68.637)"/>
        <path id="prefix__Path_9" d="M197.615 68.939h2.554V83h-2.554z" class="prefix__cls-1" data-name="Path 9" transform="translate(-82.668 -68.637)"/>
        <path id="prefix__Path_10" d="M203.44 68.939h2.554V83h-2.554z" class="prefix__cls-1" data-name="Path 10" transform="translate(-82.017 -68.637)"/>
    </g>
    <g id="prefix__Group_2" data-name="Group 2" transform="translate(13.151 7.406)"/>
    <g id="prefix__Group_9" data-name="Group 9">
        <g id="prefix__Group_3" data-name="Group 3" transform="translate(37.244 36.328)">
            <path id="prefix__Path_13" d="M80.875 94.225a18.53 18.53 0 0 0 3.076-2.541 28.955 28.955 0 0 0 3.382-2.713c.067-.077-.159-.331-.271-.295a11.743 11.743 0 0 0-3.576 2.3 9.564 9.564 0 0 0-2.912 2.959c-.044.088.213.335.3.289z" class="prefix__cls-3" data-name="Path 13" transform="translate(-80.569 -88.674)"/>
        </g>
        <g id="prefix__Group_8" data-name="Group 8">
            <g id="prefix__Group_4" data-name="Group 4" transform="translate(40.959 2.146)">
                <path id="prefix__Path_14" fill="url(#prefix__linear-gradient-2)" d="M84.5 58.284a110.915 110.915 0 0 0-.53 16.321c.085 5.655.269 11.383.916 17 .083.722 1.2.683 1.139-.056-.42-5.535-.884-11.029-.957-16.586-.073-5.541.372-11.069.351-16.6 0-.516-.848-.6-.918-.079z" data-name="Path 14" transform="translate(-83.91 -57.93)"/>
            </g>
            <g id="prefix__Group_5" data-name="Group 5" transform="translate(38.046 20.76)">
                <path id="prefix__Path_15" fill="url(#prefix__linear-gradient-3)" d="M82.145 93.163c.286-2.889.034-5.875.033-8.777 0-3.158.316-6.379.1-9.525a.2.2 0 0 0-.4-.034 53.58 53.58 0 0 0-.539 9.185 46.372 46.372 0 0 0 .395 9.172.218.218 0 0 0 .417-.02z" data-name="Path 15" transform="translate(-81.291 -74.672)"/>
            </g>
            <g id="prefix__Group_6" data-name="Group 6" transform="translate(4.68)">
                <path id="prefix__Path_16" fill="url(#prefix__linear-gradient-4)" d="M88.23 57.452a45.016 45.016 0 0 0-8.337-.759c-3.153-.17-6.311-.289-9.466-.392Q61.163 56 51.893 56c-.877 0-.772 1.276.064 1.334 3 .206 5.944.878 8.931 1.091.684.049.646-.927.1-1.113A36.567 36.567 0 0 0 51.893 56l.064 1.334q9.061-.012 18.121.262 4.53.14 9.055.354c2.953.137 6.1.57 9.035.227a.369.369 0 0 0 .062-.725z" data-name="Path 16" transform="translate(-51.281 -56)"/>
            </g>
            <path id="prefix__Path_17" d="M83.814 60.038a.828.828 0 0 0-1-.992l-7.2-.377-16.566-1.248c-.006.127-.011.254-.018.38l-9.106-.477c-.318 12.979-.627 26.118-2.8 38.918a1.446 1.446 0 0 0 .2 1.292 1.428 1.428 0 0 0 .983.28q17.835.535 35.681.074l-.174-37.85z" class="prefix__cls-3" data-name="Path 17" transform="translate(-47.071 -55.852)"/>
            <g id="prefix__Group_7" data-name="Group 7" transform="translate(30.736 1.273)">
                <path id="prefix__Path_18" fill="url(#prefix__linear-gradient-6)" d="M80.332 59.13a43.87 43.87 0 0 1-4.8-1.92l-.232 1.072c3.545.081 7.333.539 10.854.145.4-.044.509-.673.064-.75-3.535-.618-7.388-.392-10.973-.531-.582-.022-.714.829-.237 1.074a10.126 10.126 0 0 0 5.215 1.418c.249-.014.37-.4.111-.507z" data-name="Path 18" transform="translate(-74.716 -57.145)"/>
            </g>
        </g>
    </g>
    <path id="prefix__Path_19" d="M72.723 69.3v-.778l-.013.933a.9.9 0 0 1 .013-.155z" class="prefix__cls-8" data-name="Path 19" transform="translate(-44.204 -54.6)"/>
    <path id="prefix__Path_20" d="M72.723 69.3v-.778l-.013.933a.9.9 0 0 1 .013-.155z" class="prefix__cls-8" data-name="Path 20" transform="translate(-44.204 -54.6)"/>
    <path id="prefix__Path_21" fill="#fff" d="M73.96 62.294c-.676 2.109-2.883 7.1-8.595 6.852s-7.127-5.339-7.476-7.528a1.141 1.141 0 1 1 1.564-1.008 1.128 1.128 0 0 1-.422.832c.279 1.9 1.454 6.331 6.383 6.541 4.867.207 6.792-4.059 7.407-5.948a1.14 1.14 0 1 1 1.139.26z" data-name="Path 21" transform="translate(-45.942 -55.618)"/>
    <g id="prefix__Group_10" data-name="Group 10" transform="translate(4.685 16.543)">
        <circle id="prefix__Ellipse_1" cx="1.362" cy="1.362" r="1.362" class="prefix__cls-8" data-name="Ellipse 1" transform="translate(20.622 15.788)"/>
        <circle id="prefix__Ellipse_2" cx="1.362" cy="1.362" r="1.362" class="prefix__cls-8" data-name="Ellipse 2" transform="translate(3.136 15.788)"/>
        <path id="prefix__Path_22" d="M73.041 71.8v-.779l-.014.934a.887.887 0 0 1 .014-.155z" class="prefix__cls-8" data-name="Path 22" transform="translate(-48.853 -70.863)"/>
        <path id="prefix__Path_23" d="M80.462 70.879l-2 .012-2-.012a1.082 1.082 0 0 0-.953 1.051l.068 11.015-4.937-6.931a.932.932 0 0 0-.555-.372l-.077-.014-.059-.006c-.019 0-.036-.006-.054-.006H55.82a3.907 3.907 0 0 0-1.355.219 2.868 2.868 0 0 0-1 .6 2.455 2.455 0 0 0-.607.911 3.163 3.163 0 0 0-.2 1.151 3.064 3.064 0 0 0 .219 1.173 2.671 2.671 0 0 0 .622.925 2.819 2.819 0 0 0 .988.607 3.714 3.714 0 0 0 1.306.219h4.717a1.66 1.66 0 0 1 1.109.331 1.242 1.242 0 0 1 .388 1 1.28 1.28 0 0 1-.388.974 1.555 1.555 0 0 1-1.109.368h-8.329a.9.9 0 0 0 0 1.793h8.329c.138 0 .271-.006.4-.016.129.01.262.016.4.016h15a.884.884 0 0 0 .267-.046 1.03 1.03 0 0 0 .795-.957V72.75h3.105a.935.935 0 0 0-.02-1.87zM70.22 78.3q.939 1.614 1.818 2.84l2.19 3.1h-3.963v-3.021q0-1.032-.091-2.915zm-9.71 1.607h-4.7a1.32 1.32 0 0 1-.94-.325 1.2 1.2 0 0 1-.346-.918 1.232 1.232 0 0 1 .339-.925 1.314 1.314 0 0 1 .96-.332h8.643a.782.782 0 0 1 .245.567v6.267h-1.278c.024-.056.05-.11.07-.168a3.52 3.52 0 0 0 .2-1.2 2.862 2.862 0 0 0-.812-2.231 3.44 3.44 0 0 0-2.381-.731zm6.09 4.337v-6.269a.788.788 0 0 1 .789-.786h1.008v7.055z" class="prefix__cls-8" data-name="Path 23" transform="translate(-51.285 -70.879)"/>
    </g>
    <text id="prefix__SALER" fill="#666" font-family="DBHeaventt-Light, DB Heavent" font-size="15px" font-weight="300" transform="translate(50.582 34.57)">
        <tspan x="0" y="0">SALER</tspan>
    </text>
</svg>
