<svg xmlns="http://www.w3.org/2000/svg" width="155.469" height="114.533" viewBox="0 0 155.469 114.533">
    <defs>
        <style>
            .prefix__cls-1{fill:#f4f4f4}.prefix__cls-2{fill:#e0e0e0}.prefix__cls-3{fill:none;stroke:#fff;stroke-miterlimit:10;stroke-width:2.275px}.prefix__cls-5{fill:#f9d4e4}.prefix__cls-6{fill:#e5c8c2}.prefix__cls-7{fill:#212f35}.prefix__cls-8{fill:#425a62}.prefix__cls-9{fill:#b9887a}.prefix__cls-10{fill:#a6695c}.prefix__cls-11{opacity:.3}.prefix__cls-12{fill:#f9f9f9}.prefix__cls-13{opacity:.5}.prefix__cls-14{fill:#fff}
        </style>
    </defs>
    <g id="prefix__Group_5063" data-name="Group 5063" transform="translate(-136.705 -546.646)">
        <g id="prefix__Group_5064" data-name="Group 5064">
            <g id="prefix__Group_5080" data-name="Group 5080">
                <g id="prefix__Group_5064-2" data-name="Group 5064-2">
                    <path id="prefix__Rectangle_3025" d="M0 0H34.883V51.363H0z" class="prefix__cls-1" data-name="Rectangle 3025" transform="rotate(-33.8 1055.162 64.934)"/>
                </g>
                <g id="prefix__Group_5067" data-name="Group 5067">
                    <g id="prefix__Group_5065" data-name="Group 5065">
                        <path id="prefix__Path_3914" d="M184.8 618.924l-.329 2.037-14.416-2.077.329-2.037z" class="prefix__cls-2" data-name="Path 3914"/>
                    </g>
                    <g id="prefix__Group_5066" data-name="Group 5066">
                        <path id="prefix__Path_3915" d="M177.537 611.658l2.069.3-2.294 14.193-2.069-.3z" class="prefix__cls-2" data-name="Path 3915"/>
                    </g>
                </g>
                <g id="prefix__Group_5069" data-name="Group 5069">
                    <g id="prefix__Group_5068" data-name="Group 5068"/>
                </g>
                <g id="prefix__Group_5071" data-name="Group 5071">
                    <g id="prefix__Group_5070" data-name="Group 5070">
                        <path id="prefix__Path_3917" d="M164.259 593.617c.021.031-2.885 2.011-6.49 4.422s-6.545 4.341-6.566 4.31 2.885-2.01 6.491-4.422 6.544-4.341 6.565-4.31z" class="prefix__cls-2" data-name="Path 3917"/>
                    </g>
                </g>
                <g id="prefix__Group_5073" data-name="Group 5073">
                    <g id="prefix__Group_5072" data-name="Group 5072">
                        <path id="prefix__Path_3918" d="M174.924 590.941c.021.031-4.812 3.3-10.793 7.3s-10.848 7.219-10.868 7.189 4.811-3.3 10.794-7.3 10.843-7.22 10.867-7.189z" class="prefix__cls-2" data-name="Path 3918"/>
                    </g>
                </g>
                <g id="prefix__Group_5075" data-name="Group 5075">
                    <g id="prefix__Group_5074" data-name="Group 5074">
                        <path id="prefix__Path_3919" d="M177.062 594.136c.021.031-4.812 3.3-10.793 7.3s-10.848 7.219-10.869 7.188 4.811-3.3 10.794-7.3 10.842-7.218 10.868-7.188z" class="prefix__cls-2" data-name="Path 3919"/>
                    </g>
                </g>
                <g id="prefix__Group_5077" data-name="Group 5077">
                    <g id="prefix__Group_5076" data-name="Group 5076">
                        <path id="prefix__Path_3920" d="M179.2 597.333c.021.031-4.812 3.3-10.793 7.3s-10.848 7.219-10.868 7.188 4.811-3.3 10.794-7.3 10.846-7.221 10.867-7.188z" class="prefix__cls-2" data-name="Path 3920"/>
                    </g>
                </g>
                <g id="prefix__Group_5079" data-name="Group 5079">
                    <g id="prefix__Group_5078" data-name="Group 5078">
                        <path id="prefix__Path_3921" d="M181.336 600.529c.021.031-4.812 3.3-10.792 7.3s-10.848 7.219-10.869 7.189 4.811-3.3 10.794-7.3 10.847-7.218 10.867-7.189z" class="prefix__cls-2" data-name="Path 3921"/>
                    </g>
                </g>
            </g>
            <g id="prefix__Group_5097" data-name="Group 5097">
                <g id="prefix__Group_5081" data-name="Group 5081">
                    <path id="prefix__Rectangle_3026" d="M0 0H29.3V43.143H0z" class="prefix__cls-1" data-name="Rectangle 3026" transform="rotate(-33.8 1148.019 -89.6)"/>
                </g>
                <g id="prefix__Group_5084" data-name="Group 5084">
                    <g id="prefix__Group_5082" data-name="Group 5082">
                        <path id="prefix__Path_3922" d="M279.591 641.026l-.276 1.711-12.107-1.744.277-1.711z" class="prefix__cls-2" data-name="Path 3922"/>
                    </g>
                    <g id="prefix__Group_5083" data-name="Group 5083">
                        <path id="prefix__Path_3923" d="M273.494 634.924l1.737.25-1.926 11.92-1.737-.25z" class="prefix__cls-2" data-name="Path 3923"/>
                    </g>
                </g>
                <g id="prefix__Group_5086" data-name="Group 5086">
                    <g id="prefix__Group_5085" data-name="Group 5085"/>
                </g>
                <g id="prefix__Group_5088" data-name="Group 5088">
                    <g id="prefix__Group_5087" data-name="Group 5087">
                        <path id="prefix__Path_3925" d="M262.343 619.774c.021.031-2.417 1.7-5.445 3.723s-5.5 3.642-5.52 3.611 2.417-1.7 5.445-3.723 5.499-3.642 5.52-3.611z" class="prefix__cls-2" data-name="Path 3925"/>
                    </g>
                </g>
                <g id="prefix__Group_5090" data-name="Group 5090">
                    <g id="prefix__Group_5089" data-name="Group 5089">
                        <path id="prefix__Path_3926" d="M271.3 617.525c.021.031-4.035 2.78-9.058 6.139s-9.113 6.059-9.134 6.028 4.034-2.779 9.059-6.14 9.111-6.058 9.133-6.027z" class="prefix__cls-2" data-name="Path 3926"/>
                    </g>
                </g>
                <g id="prefix__Group_5092" data-name="Group 5092">
                    <g id="prefix__Group_5091" data-name="Group 5091">
                        <path id="prefix__Path_3927" d="M273.1 620.21c.021.031-4.035 2.78-9.058 6.139s-9.113 6.059-9.134 6.028 4.034-2.779 9.059-6.14 9.107-6.058 9.133-6.027z" class="prefix__cls-2" data-name="Path 3927"/>
                    </g>
                </g>
                <g id="prefix__Group_5094" data-name="Group 5094">
                    <g id="prefix__Group_5093" data-name="Group 5093">
                        <path id="prefix__Path_3928" d="M274.89 622.889c.021.031-4.035 2.78-9.058 6.139s-9.113 6.059-9.134 6.028 4.034-2.779 9.059-6.14 9.112-6.053 9.133-6.027z" class="prefix__cls-2" data-name="Path 3928"/>
                    </g>
                </g>
                <g id="prefix__Group_5096" data-name="Group 5096">
                    <g id="prefix__Group_5095" data-name="Group 5095">
                        <path id="prefix__Path_3929" d="M276.685 625.578c.021.031-4.035 2.78-9.058 6.139s-9.113 6.059-9.134 6.028 4.034-2.779 9.059-6.14 9.112-6.056 9.133-6.027z" class="prefix__cls-2" data-name="Path 3929"/>
                    </g>
                </g>
            </g>
            <g id="prefix__Group_5114" data-name="Group 5114">
                <g id="prefix__Group_5098" data-name="Group 5098">
                    <path id="prefix__Rectangle_3027" d="M0 0H44.389V30.146H0z" class="prefix__cls-1" data-name="Rectangle 3027" transform="rotate(-61.847 595.822 150.344)"/>
                </g>
                <g id="prefix__Group_5101" data-name="Group 5101">
                    <g id="prefix__Group_5099" data-name="Group 5099">
                        <path id="prefix__Path_3930" d="M204.182 606.7l-1.686.577-4.279-11.83 1.686-.577z" class="prefix__cls-2" data-name="Path 3930"/>
                    </g>
                    <g id="prefix__Group_5100" data-name="Group 5100">
                        <path id="prefix__Path_3931" d="M206.765 598.214l.614 1.7-11.749 4.024-.614-1.7z" class="prefix__cls-2" data-name="Path 3931"/>
                    </g>
                </g>
                <g id="prefix__Group_5103" data-name="Group 5103">
                    <g id="prefix__Group_5102" data-name="Group 5102"/>
                </g>
                <g id="prefix__Group_5105" data-name="Group 5105">
                    <g id="prefix__Group_5104" data-name="Group 5104">
                        <path id="prefix__Path_3933" d="M215.114 580.759c-.021.039-2.716-1.362-6.019-3.129s-5.965-3.231-5.944-3.27 2.716 1.362 6.02 3.129 5.964 3.231 5.943 3.27z" class="prefix__cls-2" data-name="Path 3933"/>
                    </g>
                </g>
                <g id="prefix__Group_5107" data-name="Group 5107">
                    <g id="prefix__Group_5106" data-name="Group 5106">
                        <path id="prefix__Path_3934" d="M221.492 587.8c-.021.039-4.481-2.306-9.962-5.237s-9.908-5.34-9.887-5.378 4.48 2.306 9.963 5.238 9.907 5.336 9.886 5.377z" class="prefix__cls-2" data-name="Path 3934"/>
                    </g>
                </g>
                <g id="prefix__Group_5109" data-name="Group 5109">
                    <g id="prefix__Group_5108" data-name="Group 5108">
                        <path id="prefix__Path_3935" d="M219.925 590.726c-.021.039-4.481-2.306-9.962-5.237s-9.908-5.34-9.887-5.378 4.48 2.306 9.963 5.238 9.907 5.338 9.886 5.377z" class="prefix__cls-2" data-name="Path 3935"/>
                    </g>
                </g>
                <g id="prefix__Group_5111" data-name="Group 5111">
                    <g id="prefix__Group_5110" data-name="Group 5110">
                        <path id="prefix__Path_3936" d="M218.359 593.655c-.021.039-4.481-2.306-9.962-5.237s-9.908-5.34-9.887-5.378 4.48 2.306 9.963 5.238 9.907 5.338 9.886 5.377z" class="prefix__cls-2" data-name="Path 3936"/>
                    </g>
                </g>
                <g id="prefix__Group_5113" data-name="Group 5113">
                    <g id="prefix__Group_5112" data-name="Group 5112">
                        <path id="prefix__Path_3937" d="M216.793 596.584c-.021.039-4.481-2.306-9.962-5.237s-9.908-5.34-9.887-5.378 4.48 2.306 9.963 5.238 9.907 5.338 9.886 5.377z" class="prefix__cls-2" data-name="Path 3937"/>
                    </g>
                </g>
            </g>
            <path id="prefix__Rectangle_3028" d="M0 0H0.668V11.367H0z" data-name="Rectangle 3028" transform="translate(216.264 546.646)" style="isolation:isolate" opacity="0.2"/>
            <g id="prefix__Group_5117" data-name="Group 5117">
                <g id="prefix__Group_5116" data-name="Group 5116">
                    <g id="prefix__Group_5115" data-name="Group 5115">
                        <path id="prefix__Path_3938" d="M201.031 571.764h31.133s-2.875-13.758-15.8-13.758c-11.501 0-15.333 13.758-15.333 13.758z" class="prefix__cls-5" data-name="Path 3938"/>
                    </g>
                </g>
                <path id="prefix__Rectangle_3029" d="M0 0H0.668V11.367H0z" class="prefix__cls-6" data-name="Rectangle 3029" transform="translate(216.264 546.646)"/>
            </g>
            <g id="prefix__Group_5119" data-name="Group 5119">
                <g id="prefix__Group_5118" data-name="Group 5118">
                    <path id="prefix__Path_3939" d="M285.914 660.319c0 .037-33.4.067-74.6.067s-74.609-.03-74.609-.067 33.4-.067 74.609-.067 74.6.03 74.6.067z" class="prefix__cls-7" data-name="Path 3939"/>
                </g>
            </g>
            <g id="prefix__Group_5129" data-name="Group 5129">
                <g id="prefix__Group_5120" data-name="Group 5120">
                    <path id="prefix__Path_3940" d="M144.961 644.133a3.256 3.256 0 0 1 2.27 1.163 5.749 5.749 0 0 1 1.156 2.329 10.147 10.147 0 0 1-.3 5.189c-1.769-.632-2.86-2.519-3.354-3.511-.78-1.568-1.237-4.875.225-5.17" class="prefix__cls-6" data-name="Path 3940"/>
                </g>
                <g id="prefix__Group_5121" data-name="Group 5121">
                    <path id="prefix__Path_3941" d="M150.636 654.794a2.782 2.782 0 0 1-.13-2.788 3.693 3.693 0 0 1 2.223-1.787 1.552 1.552 0 0 1 1.308.063 1.188 1.188 0 0 1 .457 1.115 2.4 2.4 0 0 1-.509 1.143 4.779 4.779 0 0 1-3.35 2.254" class="prefix__cls-6" data-name="Path 3941"/>
                </g>
                <g id="prefix__Group_5123" data-name="Group 5123">
                    <g id="prefix__Group_5122" data-name="Group 5122">
                        <path id="prefix__Path_3942" d="M150.83 660.256a2 2 0 0 1-.079-.34l-.182-.931a9.761 9.761 0 0 1-.194-3.128 5.974 5.974 0 0 1 1.161-2.9 4.063 4.063 0 0 1 .671-.678 2.385 2.385 0 0 1 .211-.151c.05-.033.077-.048.079-.044a6.309 6.309 0 0 0-.892.927 6.166 6.166 0 0 0-1.108 2.858 10.54 10.54 0 0 0 .157 3.1c.063.4.114.716.144.938a1.778 1.778 0 0 1 .032.349z" class="prefix__cls-7" data-name="Path 3942"/>
                    </g>
                </g>
                <g id="prefix__Group_5125" data-name="Group 5125">
                    <g id="prefix__Group_5124" data-name="Group 5124">
                        <path id="prefix__Path_3943" d="M145.533 646.621a.69.69 0 0 1 .071.134l.182.394c.156.343.376.842.643 1.461.533 1.238 1.245 2.958 1.989 4.875s1.377 3.669 1.818 4.943c.221.637.4 1.154.51 1.512l.131.414a.675.675 0 0 1 .038.147.782.782 0 0 1-.061-.139l-.153-.406-.547-1.5c-.462-1.266-1.108-3.011-1.851-4.927s-1.443-3.64-1.955-4.886l-.606-1.476-.161-.4a.757.757 0 0 1-.048-.146z" class="prefix__cls-7" data-name="Path 3943"/>
                    </g>
                </g>
                <g id="prefix__Group_5126" data-name="Group 5126">
                    <path id="prefix__Path_3944" d="M148.73 656.642a6.5 6.5 0 0 0-5.045-3.135c-.523-.038-1.152.05-1.385.52a1.345 1.345 0 0 0 .435 1.413 5.554 5.554 0 0 0 6.015 1.343" class="prefix__cls-6" data-name="Path 3944"/>
                </g>
                <g id="prefix__Group_5128" data-name="Group 5128">
                    <g id="prefix__Group_5127" data-name="Group 5127">
                        <path id="prefix__Path_3945" d="M144.482 654.908a1.634 1.634 0 0 1 .328.012 3.27 3.27 0 0 1 .382.044 4.994 4.994 0 0 1 .5.094 5.676 5.676 0 0 1 .6.166 6.263 6.263 0 0 1 .664.253 7.186 7.186 0 0 1 1.4.83 7.039 7.039 0 0 1 1.157 1.145 6.031 6.031 0 0 1 .408.583 5.078 5.078 0 0 1 .3.54 4.626 4.626 0 0 1 .208.466 2.949 2.949 0 0 1 .13.362 1.638 1.638 0 0 1 .085.316c-.026.009-.152-.443-.5-1.1a5.331 5.331 0 0 0-.312-.525 6.336 6.336 0 0 0-.41-.567 7.292 7.292 0 0 0-1.144-1.119 7.488 7.488 0 0 0-1.372-.824 6.625 6.625 0 0 0-.65-.259 5.747 5.747 0 0 0-.584-.178c-.725-.185-1.193-.212-1.19-.239z" class="prefix__cls-7" data-name="Path 3945"/>
                    </g>
                </g>
            </g>
            <g id="prefix__Group_5295" data-name="Group 5295">
                <g id="prefix__Group_5133" data-name="Group 5133">
                    <g id="prefix__Group_5130" data-name="Group 5130">
                        <path id="prefix__Path_3946" d="M261.8 573.907c-.76.175-1.13 1.049-1.2 1.826a6.944 6.944 0 0 1-.3 2.3c-.367.8-1.244 1.385-1.273 2.262-.018.535.3 1.038.285 1.573-.025.879-.921 1.542-.968 2.42-.034.632.387 1.238.286 1.863a8.773 8.773 0 0 1-.617 1.335 2.27 2.27 0 0 0 1.15 2.474 3.768 3.768 0 0 0 5.2-1.185 3.7 3.7 0 0 0 .294-.57 7.7 7.7 0 0 0 .26-3.576q-.467-5.624-.694-11.263" class="prefix__cls-7" data-name="Path 3946"/>
                    </g>
                    <g id="prefix__Group_5132" data-name="Group 5132">
                        <g id="prefix__Group_5131" data-name="Group 5131">
                            <path id="prefix__Path_3947" d="M259.59 587.135a.913.913 0 0 0 .347-.413 1.444 1.444 0 0 0 .088-.631 3.476 3.476 0 0 0-.188-.837 2.4 2.4 0 0 1-.135-1.06 2.431 2.431 0 0 1 .616-1.058 2.3 2.3 0 0 0 .349-.53.853.853 0 0 0 .041-.62c-.133-.422-.547-.733-.737-1.22a1.319 1.319 0 0 1-.042-.754 3.075 3.075 0 0 1 .25-.677 5.8 5.8 0 0 0 .513-1.216c.181-.82.1-1.6.22-2.245a2.5 2.5 0 0 1 .653-1.377 1.465 1.465 0 0 1 .342-.243.58.58 0 0 1 .137-.051 2.1 2.1 0 0 0-.441.332 2.511 2.511 0 0 0-.6 1.356 8.679 8.679 0 0 0-.072 1.044 6.34 6.34 0 0 1-.121 1.213 5.778 5.778 0 0 1-.515 1.244 1.7 1.7 0 0 0-.2 1.327c.164.44.581.753.737 1.228a.987.987 0 0 1-.048.711 2.415 2.415 0 0 1-.371.557 1.7 1.7 0 0 0-.486 2.013 3.409 3.409 0 0 1 .172.86 1.472 1.472 0 0 1-.115.655.78.78 0 0 1-.265.326.437.437 0 0 1-.129.066z" class="prefix__cls-8" data-name="Path 3947"/>
                        </g>
                    </g>
                </g>
                <path id="prefix__Path_3948" d="M257.559 593.259l-2.333 6.725-9.729.522-1.623 3.61 10.157 1.028a3.837 3.837 0 0 0 5.013-2.081q.036-.086.066-.171l2.711-7.566z" class="prefix__cls-9" data-name="Path 3948"/>
                <g id="prefix__Group_5138" data-name="Group 5138">
                    <g id="prefix__Group_5136" data-name="Group 5136">
                        <g id="prefix__Group_5134" data-name="Group 5134">
                            <path id="prefix__Path_3949" d="M277.682 656.668s-7.13-22.645-7.281-23.38c-.137-.664 2.587-16.96 2.93-21.178l-9.634.359v.07l-4.1.227 3.667 46.312h4.436l-.44-15.365a149.976 149.976 0 0 0 6.651 14.818z" class="prefix__cls-9" data-name="Path 3949"/>
                        </g>
                        <g id="prefix__Group_5135" data-name="Group 5135">
                            <path id="prefix__Path_3950" d="M267.445 649.221c0-.141-.054-5.148-.054-5.148a28.167 28.167 0 0 1-1.66-4.63c.021-.143 1.714 9.778 1.714 9.778z" class="prefix__cls-10" data-name="Path 3950"/>
                        </g>
                    </g>
                    <g id="prefix__Group_5137" data-name="Group 5137">
                        <path id="prefix__Path_3951" d="M265.542 637.242a1.059 1.059 0 0 0-.028.281 7.567 7.567 0 0 0 .006.768c.006.162.023.339.044.53s.05.393.094.6a10.326 10.326 0 0 0 .362 1.349c.322.937.677 1.756.929 2.351l.308.7a.143.143 0 1 0 .053-.021c-.059-.171-.15-.416-.265-.718-.228-.6-.567-1.43-.886-2.359a11.727 11.727 0 0 1-.369-1.329c-.047-.207-.077-.406-.106-.592s-.049-.361-.061-.521c-.031-.32-.044-.58-.052-.76a1.047 1.047 0 0 0-.029-.279z" class="prefix__cls-10" data-name="Path 3951"/>
                    </g>
                </g>
                <g id="prefix__Group_5170" data-name="Group 5170">
                    <g id="prefix__Group_5169" data-name="Group 5169">
                        <g id="prefix__Group_5140" data-name="Group 5140">
                            <g id="prefix__Group_5139" data-name="Group 5139">
                                <path id="prefix__Path_3952" d="M263.187 659.309v-.417l4.541-.2.012 1.717-.28.019a53.379 53.379 0 0 1-7.177.033c-.932-.279 2.904-1.152 2.904-1.152z" class="prefix__cls-8" data-name="Path 3952"/>
                            </g>
                        </g>
                        <g id="prefix__Group_5142" data-name="Group 5142">
                            <g id="prefix__Group_5141" data-name="Group 5141">
                                <path id="prefix__Path_3953" d="M267.8 660.306a.507.507 0 0 1-.078.009l-.223.014-.821.038c-.693.027-1.652.053-2.711.057s-2.018-.012-2.712-.034l-.821-.031-.223-.012a.413.413 0 0 1-.078-.008.34.34 0 0 1 .078 0h.223l.821.014c.694.012 1.652.022 2.711.018s2.016-.024 2.71-.041l.821-.021h.224a.346.346 0 0 1 .079-.003z" class="prefix__cls-7" data-name="Path 3953"/>
                            </g>
                        </g>
                        <g id="prefix__Group_5144" data-name="Group 5144">
                            <g id="prefix__Group_5143" data-name="Group 5143">
                                <path id="prefix__Path_3954" d="M261.716 660.452a1.189 1.189 0 0 0-.436-.7.73.73 0 0 1 .436.7z" class="prefix__cls-7" data-name="Path 3954"/>
                            </g>
                        </g>
                        <g id="prefix__Group_5146" data-name="Group 5146">
                            <g id="prefix__Group_5145" data-name="Group 5145">
                                <path id="prefix__Path_3955" d="M263.048 659.77c-.013.008-.077-.069-.143-.173a.582.582 0 0 1-.1-.2.53.53 0 0 1 .143.173c.066.104.112.192.1.2z" class="prefix__cls-7" data-name="Path 3955"/>
                            </g>
                        </g>
                        <g id="prefix__Group_5148" data-name="Group 5148">
                            <g id="prefix__Group_5147" data-name="Group 5147">
                                <path id="prefix__Path_3956" d="M263.413 659.576c-.01.011-.081-.036-.16-.106s-.133-.135-.123-.147.082.036.16.106.132.136.123.147z" class="prefix__cls-7" data-name="Path 3956"/>
                            </g>
                        </g>
                        <g id="prefix__Group_5150" data-name="Group 5150">
                            <g id="prefix__Group_5149" data-name="Group 5149">
                                <path id="prefix__Path_3957" d="M263.642 659.149a1.027 1.027 0 1 1-.236-.024.524.524 0 0 1 .236.024z" class="prefix__cls-7" data-name="Path 3957"/>
                            </g>
                        </g>
                        <g id="prefix__Group_5152" data-name="Group 5152">
                            <g id="prefix__Group_5151" data-name="Group 5151">
                                <path id="prefix__Path_3958" d="M263.719 658.847a.662.662 0 0 1-.535.042 17.584 17.584 0 0 0 .535-.042z" class="prefix__cls-7" data-name="Path 3958"/>
                            </g>
                        </g>
                        <g id="prefix__Group_5154" data-name="Group 5154">
                            <g id="prefix__Group_5153" data-name="Group 5153">
                                <path id="prefix__Path_3959" d="M262.892 659.377a.832.832 0 0 1-.29 0 1.722 1.722 0 0 1-.309-.067.937.937 0 0 1-.177-.072.161.161 0 0 1-.072-.09.116.116 0 0 1 .044-.116.532.532 0 0 1 .659.153.5.5 0 0 1 .1.193.16.16 0 0 1 .008.078.82.82 0 0 0-.133-.247.522.522 0 0 0-.249-.16.452.452 0 0 0-.346.025c-.046.034-.028.088.024.119a.971.971 0 0 0 .163.069 2.068 2.068 0 0 0 .3.077c.168.029.279.029.278.038z" class="prefix__cls-7" data-name="Path 3959"/>
                            </g>
                        </g>
                        <g id="prefix__Group_5156" data-name="Group 5156">
                            <g id="prefix__Group_5155" data-name="Group 5155">
                                <path id="prefix__Path_3960" d="M262.817 659.392a.29.29 0 0 1-.034-.2.476.476 0 0 1 .079-.212.29.29 0 0 1 .241-.149.114.114 0 0 1 .09.134.307.307 0 0 1-.049.13.89.89 0 0 1-.136.176.424.424 0 0 1-.166.118c-.005-.007.058-.052.137-.145a1.05 1.05 0 0 0 .121-.175c.04-.061.066-.172-.006-.185s-.147.066-.191.124a.483.483 0 0 0-.081.189 1.06 1.06 0 0 0-.005.195z" class="prefix__cls-7" data-name="Path 3960"/>
                            </g>
                        </g>
                        <g id="prefix__Group_5158" data-name="Group 5158">
                            <g id="prefix__Group_5157" data-name="Group 5157">
                                <path id="prefix__Path_3961" d="M267.706 659.07c0 .01-.129-.012-.333.013a1.417 1.417 0 0 0-1.18.948c-.068.194-.074.324-.085.323a.278.278 0 0 1 0-.091 1.254 1.254 0 0 1 .048-.244 1.372 1.372 0 0 1 1.213-.974 1.211 1.211 0 0 1 .248.005.246.246 0 0 1 .089.02z" class="prefix__cls-7" data-name="Path 3961"/>
                            </g>
                        </g>
                        <g id="prefix__Group_5160" data-name="Group 5160">
                            <g id="prefix__Group_5159" data-name="Group 5159">
                                <path id="prefix__Path_3962" d="M265.531 659.946a3.705 3.705 0 0 1-1.32.007c0-.016.3 0 .66 0s.659-.023.66-.007z" class="prefix__cls-7" data-name="Path 3962"/>
                            </g>
                        </g>
                        <g id="prefix__Group_5162" data-name="Group 5162">
                            <g id="prefix__Group_5161" data-name="Group 5161">
                                <path id="prefix__Path_3963" d="M266.417 659.935c.011.011-.024.063-.054.13s-.046.128-.062.127-.024-.071.012-.149.094-.119.104-.108z" class="prefix__cls-7" data-name="Path 3963"/>
                            </g>
                        </g>
                        <g id="prefix__Group_5164" data-name="Group 5164">
                            <g id="prefix__Group_5163" data-name="Group 5163">
                                <path id="prefix__Path_3964" d="M266.748 659.519c.011.011-.018.058-.065.105s-.093.078-.1.067.018-.058.065-.1.09-.083.1-.072z" class="prefix__cls-7" data-name="Path 3964"/>
                            </g>
                        </g>
                        <g id="prefix__Group_5166" data-name="Group 5166">
                            <g id="prefix__Group_5165" data-name="Group 5165">
                                <path id="prefix__Path_3965" d="M267.225 659.328c0 .015-.063.015-.13.039s-.114.059-.126.049.026-.073.108-.1.152-.002.148.012z" class="prefix__cls-7" data-name="Path 3965"/>
                            </g>
                        </g>
                        <g id="prefix__Group_5168" data-name="Group 5168">
                            <g id="prefix__Group_5167" data-name="Group 5167">
                                <path id="prefix__Path_3966" d="M267.565 659.235c.005.014-.021.037-.058.052s-.072.015-.078 0 .021-.037.058-.052.072-.012.078 0z" class="prefix__cls-7" data-name="Path 3966"/>
                            </g>
                        </g>
                    </g>
                </g>
                <g id="prefix__Group_5202" data-name="Group 5202">
                    <g id="prefix__Group_5201" data-name="Group 5201">
                        <g id="prefix__Group_5172" data-name="Group 5172">
                            <g id="prefix__Group_5171" data-name="Group 5171">
                                <path id="prefix__Path_3967" d="M273.826 658.907l-.172-.379 4.061-2.04.715 1.562-.248.132a53.568 53.568 0 0 1-6.534 2.97c-.963.125 2.178-2.245 2.178-2.245z" class="prefix__cls-8" data-name="Path 3967"/>
                            </g>
                        </g>
                        <g id="prefix__Group_5174" data-name="Group 5174">
                            <g id="prefix__Group_5173" data-name="Group 5173">
                                <path id="prefix__Path_3968" d="M278.445 657.929a.411.411 0 0 1-.067.04l-.2.1-.733.371c-.621.309-1.485.725-2.449 1.163s-1.846.815-2.488 1.08l-.762.308-.209.08a.456.456 0 0 1-.074.025.381.381 0 0 1 .07-.035l.2-.09.755-.324c.637-.274 1.516-.656 2.48-1.094s1.83-.848 2.455-1.148l.741-.355.2-.1a.384.384 0 0 1 .081-.021z" class="prefix__cls-7" data-name="Path 3968"/>
                            </g>
                        </g>
                        <g id="prefix__Group_5176" data-name="Group 5176">
                            <g id="prefix__Group_5175" data-name="Group 5175">
                                <path id="prefix__Path_3969" d="M272.953 660.555a1.192 1.192 0 0 0-.686-.464.729.729 0 0 1 .686.464z" class="prefix__cls-7" data-name="Path 3969"/>
                            </g>
                        </g>
                        <g id="prefix__Group_5178" data-name="Group 5178">
                            <g id="prefix__Group_5177" data-name="Group 5177">
                                <path id="prefix__Path_3970" d="M273.888 659.388c-.008.013-.1-.032-.2-.1s-.18-.132-.171-.145.1.032.2.1.183.132.171.145z" class="prefix__cls-7" data-name="Path 3970"/>
                            </g>
                        </g>
                        <g id="prefix__Group_5180" data-name="Group 5180">
                            <g id="prefix__Group_5179" data-name="Group 5179">
                                <path id="prefix__Path_3971" d="M274.142 659.061c0 .014-.089 0-.189-.031s-.177-.069-.172-.083.089 0 .189.031.176.068.172.083z" class="prefix__cls-7" data-name="Path 3971"/>
                            </g>
                        </g>
                        <g id="prefix__Group_5182" data-name="Group 5182">
                            <g id="prefix__Group_5181" data-name="Group 5181">
                                <path id="prefix__Path_3972" d="M274.176 658.577c.006.014-.084.07-.2.125a.527.527 0 0 1-.225.075c-.007-.014.084-.069.2-.125a.536.536 0 0 1 .225-.075z" class="prefix__cls-7" data-name="Path 3972"/>
                            </g>
                        </g>
                        <g id="prefix__Group_5184" data-name="Group 5184">
                            <g id="prefix__Group_5183" data-name="Group 5183">
                                <path id="prefix__Path_3973" d="M274.124 658.27c.01.01-.073.1-.208.178a.459.459 0 0 1-.262.079c.158-.084.315-.169.47-.257z" class="prefix__cls-7" data-name="Path 3973"/>
                            </g>
                        </g>
                        <g id="prefix__Group_5186" data-name="Group 5186">
                            <g id="prefix__Group_5185" data-name="Group 5185">
                                <path id="prefix__Path_3974" d="M273.586 659.093a.844.844 0 0 1-.265.118 1.819 1.819 0 0 1-.31.066.868.868 0 0 1-.191.007.158.158 0 0 1-.1-.052.114.114 0 0 1-.008-.124.532.532 0 0 1 .664-.13.509.509 0 0 1 .166.137c.031.04.042.067.039.068a.789.789 0 0 0-.223-.171.514.514 0 0 0-.292-.044.453.453 0 0 0-.305.164c-.028.05.011.092.07.1a.875.875 0 0 0 .177 0 2.022 2.022 0 0 0 .3-.052 2.556 2.556 0 0 1 .278-.087z" class="prefix__cls-7" data-name="Path 3974"/>
                            </g>
                        </g>
                        <g id="prefix__Group_5188" data-name="Group 5188">
                            <g id="prefix__Group_5187" data-name="Group 5187">
                                <path id="prefix__Path_3975" d="M273.523 659.136a.291.291 0 0 1-.114-.17.48.48 0 0 1-.016-.226.291.291 0 0 1 .159-.234c.065-.02.216.11.227.159s-.076.024-.081.064a.858.858 0 0 1-.052.217.419.419 0 0 1-.1.176c-.008 0 .031-.071.066-.188a.929.929 0 0 0 .039-.209c.011-.072-.01-.184-.081-.166s-.107.12-.123.191a.478.478 0 0 0 0 .206 1.091 1.091 0 0 0 .076.18z" class="prefix__cls-7" data-name="Path 3975"/>
                            </g>
                        </g>
                        <g id="prefix__Group_5190" data-name="Group 5190">
                            <g id="prefix__Group_5189" data-name="Group 5189">
                                <path id="prefix__Path_3976" d="M277.851 656.84c0 .01-.123.042-.3.148a1.417 1.417 0 0 0-.688 1.348c.017.2.065.326.055.329a.272.272 0 0 1-.038-.083 1.2 1.2 0 0 1-.056-.242 1.375 1.375 0 0 1 .707-1.385 1.223 1.223 0 0 1 .229-.1.28.28 0 0 1 .091-.015z" class="prefix__cls-7" data-name="Path 3976"/>
                            </g>
                        </g>
                        <g id="prefix__Group_5192" data-name="Group 5192">
                            <g id="prefix__Group_5191" data-name="Group 5191">
                                <path id="prefix__Path_3977" d="M276.226 658.53a3.712 3.712 0 0 1-1.2.547c-.005-.015.272-.118.6-.27s.592-.291.6-.277z" class="prefix__cls-7" data-name="Path 3977"/>
                            </g>
                        </g>
                        <g id="prefix__Group_5194" data-name="Group 5194">
                            <g id="prefix__Group_5193" data-name="Group 5193">
                                <path id="prefix__Path_3978" d="M277.03 658.158c.014.005 0 .067 0 .141a.578.578 0 0 1 0 .141c-.01.006-.051-.055-.051-.141s.037-.147.051-.141z" class="prefix__cls-7" data-name="Path 3978"/>
                            </g>
                        </g>
                        <g id="prefix__Group_5196" data-name="Group 5196">
                            <g id="prefix__Group_5195" data-name="Group 5195">
                                <path id="prefix__Path_3979" d="M277.162 657.643c.014.005.007.06-.016.122s-.053.109-.067.1-.007-.06.016-.122.053-.105.067-.1z" class="prefix__cls-7" data-name="Path 3979"/>
                            </g>
                        </g>
                        <g id="prefix__Group_5198" data-name="Group 5198">
                            <g id="prefix__Group_5197" data-name="Group 5197">
                                <path id="prefix__Path_3980" d="M277.518 657.272c0 .015-.052.04-.1.088s-.08.1-.1.1-.006-.077.057-.136.142-.066.143-.052z" class="prefix__cls-7" data-name="Path 3980"/>
                            </g>
                        </g>
                        <g id="prefix__Group_5200" data-name="Group 5200">
                            <g id="prefix__Group_5199" data-name="Group 5199">
                                <path id="prefix__Path_3981" d="M277.791 657.049c.011.011 0 .043-.031.071s-.06.043-.07.033 0-.042.031-.071.059-.042.07-.033z" class="prefix__cls-7" data-name="Path 3981"/>
                            </g>
                        </g>
                    </g>
                </g>
                <g id="prefix__Group_5225" data-name="Group 5225">
                    <g id="prefix__Group_5215" data-name="Group 5215">
                        <g id="prefix__Group_5214" data-name="Group 5214">
                            <g id="prefix__Group_5207" data-name="Group 5207">
                                <g id="prefix__Group_5206" data-name="Group 5206">
                                    <g id="prefix__Group_5205" data-name="Group 5205">
                                        <g id="prefix__Group_5204" data-name="Group 5204">
                                            <g id="prefix__Group_5203" data-name="Group 5203">
                                                <path id="prefix__Path_3982" d="M272.707 604.449l-.756-9.226 3.884.069a15.407 15.407 0 0 0-.392-4.344 5.035 5.035 0 0 0-2.936-3.619v-.029l-.119-.031a11.085 11.085 0 0 0-3.558-.928l-4.767.055s-3.642-.454-5.658 2.142c-.776 1-3.179 7.845-3.179 7.845l5.722 2.756-.545-3.8a18.058 18.058 0 0 0 .459 3.624c.2.486.762 1.994.762 1.994l-.074 4.552z" class="prefix__cls-5" data-name="Path 3982"/>
                                            </g>
                                        </g>
                                    </g>
                                </g>
                            </g>
                            <g id="prefix__Group_5208" data-name="Group 5208">
                                <path id="prefix__Path_3983" d="M270.076 593.88l-.708 3.015h6.676l-.439-5.055z" class="prefix__cls-6" data-name="Path 3983"/>
                            </g>
                            <g id="prefix__Group_5210" data-name="Group 5210">
                                <g id="prefix__Group_5209" data-name="Group 5209">
                                    <path id="prefix__Path_3984" d="M276.046 596.894a4.944 4.944 0 0 0-.884-.088c-.547-.032-1.3-.059-2.141-.055s-1.594.04-2.141.084a4.76 4.76 0 0 0-.881.109 5.959 5.959 0 0 0 .887 0c.547-.017 1.3-.036 2.136-.04s1.589.007 2.137.012a5.706 5.706 0 0 0 .887-.022z" class="prefix__cls-7" data-name="Path 3984"/>
                                </g>
                            </g>
                            <g id="prefix__Group_5212" data-name="Group 5212">
                                <g id="prefix__Group_5211" data-name="Group 5211">
                                    <path id="prefix__Path_3985" d="M269.789 591.815a4.01 4.01 0 0 0-.022.767c.005.473.022 1.126.05 1.847s.062 1.374.093 1.846a.384.384 0 1 0 .1 0c-.005-.473-.022-1.126-.05-1.848s-.062-1.373-.093-1.845a3.945 3.945 0 0 0-.078-.767z" class="prefix__cls-7" data-name="Path 3985"/>
                                </g>
                            </g>
                            <g id="prefix__Group_5213" class="prefix__cls-11" data-name="Group 5213">
                                <path id="prefix__Path_3986" d="M263.714 594.426s1.484 11 5.655 10.71c0 0 1.878-.022 2.482-1.27v-.492z" data-name="Path 3986"/>
                            </g>
                        </g>
                    </g>
                    <g id="prefix__Group_5216" class="prefix__cls-11" data-name="Group 5216">
                        <path id="prefix__Path_3987" d="M269.789 592.463l-.8 5.393.517.946.851-1.851-.36-.009z" data-name="Path 3987"/>
                    </g>
                    <g id="prefix__Group_5218" data-name="Group 5218">
                        <g id="prefix__Group_5217" data-name="Group 5217">
                            <path id="prefix__Path_3988" d="M261.626 600.962a1.161 1.161 0 0 1-.113-.258c-.065-.169-.151-.415-.251-.722a22.11 22.11 0 0 1-.638-2.441 17.816 17.816 0 0 1-.316-2.5c-.016-.323-.02-.584-.016-.765a1.149 1.149 0 0 1 .019-.281c.021 0 .036.4.091 1.039a23.623 23.623 0 0 0 .354 2.485c.192.962.422 1.821.6 2.44l.209.734a1.083 1.083 0 0 1 .061.269z" class="prefix__cls-7" data-name="Path 3988"/>
                        </g>
                    </g>
                    <g id="prefix__Group_5220" data-name="Group 5220">
                        <g id="prefix__Group_5219" data-name="Group 5219">
                            <path id="prefix__Path_3989" d="M263.312 604.123c-.036.011-.139-.227-.231-.53a1.291 1.291 0 0 1-.1-.569c.036-.011.139.227.231.53a1.291 1.291 0 0 1 .1.569z" class="prefix__cls-7" data-name="Path 3989"/>
                        </g>
                    </g>
                    <g id="prefix__Group_5222" data-name="Group 5222">
                        <g id="prefix__Group_5221" data-name="Group 5221">
                            <path id="prefix__Path_3990" d="M263.889 604.081a2.383 2.383 0 0 1-.024-1.613q0 .807.024 1.613z" class="prefix__cls-7" data-name="Path 3990"/>
                        </g>
                    </g>
                    <g id="prefix__Group_5224" data-name="Group 5224">
                        <g id="prefix__Group_5223" data-name="Group 5223">
                            <path id="prefix__Path_3991" d="M261.064 599.265c-.017.033-1.348-.6-2.974-1.411s-2.931-1.5-2.914-1.532 1.348.6 2.974 1.411 2.931 1.499 2.914 1.532z" class="prefix__cls-7" data-name="Path 3991"/>
                        </g>
                    </g>
                </g>
                <g id="prefix__Group_5274" data-name="Group 5274">
                    <g id="prefix__Group_5256" data-name="Group 5256">
                        <g id="prefix__Group_5255" data-name="Group 5255">
                            <g id="prefix__Group_5254" data-name="Group 5254">
                                <g id="prefix__Group_5253" data-name="Group 5253">
                                    <g id="prefix__Group_5252" data-name="Group 5252">
                                        <g id="prefix__Group_5228" data-name="Group 5228">
                                            <g id="prefix__Group_5227" data-name="Group 5227">
                                                <g id="prefix__Group_5226" data-name="Group 5226">
                                                    <path id="prefix__Path_3992" d="M263.411 587.288c.03-1.308.037-2.685.037-2.685a2.74 2.74 0 0 1-1.969-2.53 37.071 37.071 0 0 1 .5-7.042 5.894 5.894 0 0 1 6.674 1.9l-.417 10.615a2.277 2.277 0 0 1-2.432 2.112h-.034a2.408 2.408 0 0 1-2.359-2.37z" class="prefix__cls-9" data-name="Path 3992"/>
                                                </g>
                                            </g>
                                        </g>
                                        <g id="prefix__Group_5236" data-name="Group 5236">
                                            <g id="prefix__Group_5231" data-name="Group 5231">
                                                <g id="prefix__Group_5230" data-name="Group 5230">
                                                    <g id="prefix__Group_5229" data-name="Group 5229">
                                                        <path id="prefix__Path_3993" d="M261.853 578.978a.283.283 0 0 0 .264.291.27.27 0 0 0 .3-.237v-.01a.282.282 0 0 0-.264-.292.27.27 0 0 0-.3.237z" class="prefix__cls-7" data-name="Path 3993"/>
                                                    </g>
                                                </g>
                                            </g>
                                            <g id="prefix__Group_5235" data-name="Group 5235">
                                                <g id="prefix__Group_5234" data-name="Group 5234">
                                                    <g id="prefix__Group_5233" data-name="Group 5233">
                                                        <g id="prefix__Group_5232" data-name="Group 5232">
                                                            <path id="prefix__Path_3994" d="M261.748 578.608c.034.038.252-.115.555-.106s.522.166.555.13c.017-.016-.017-.083-.113-.156a.775.775 0 0 0-.443-.149.745.745 0 0 0-.443.13c-.094.068-.127.134-.111.151z" class="prefix__cls-7" data-name="Path 3994"/>
                                                        </g>
                                                    </g>
                                                </g>
                                            </g>
                                        </g>
                                        <g id="prefix__Group_5244" data-name="Group 5244">
                                            <g id="prefix__Group_5239" data-name="Group 5239">
                                                <g id="prefix__Group_5238" data-name="Group 5238">
                                                    <g id="prefix__Group_5237" data-name="Group 5237">
                                                        <path id="prefix__Path_3995" d="M264.929 579.169a.283.283 0 0 0 .264.291.269.269 0 0 0 .3-.235v-.012a.282.282 0 0 0-.264-.292.27.27 0 0 0-.3.237z" class="prefix__cls-7" data-name="Path 3995"/>
                                                    </g>
                                                </g>
                                            </g>
                                            <g id="prefix__Group_5243" data-name="Group 5243">
                                                <g id="prefix__Group_5242" data-name="Group 5242">
                                                    <g id="prefix__Group_5241" data-name="Group 5241">
                                                        <g id="prefix__Group_5240" data-name="Group 5240">
                                                            <path id="prefix__Path_3996" d="M264.909 578.8c.034.038.252-.115.555-.106s.522.166.555.13c.016-.016-.017-.083-.113-.156a.773.773 0 0 0-.443-.149.745.745 0 0 0-.443.13c-.094.068-.127.135-.111.151z" class="prefix__cls-7" data-name="Path 3996"/>
                                                        </g>
                                                    </g>
                                                </g>
                                            </g>
                                        </g>
                                        <g id="prefix__Group_5248" data-name="Group 5248">
                                            <g id="prefix__Group_5247" data-name="Group 5247">
                                                <g id="prefix__Group_5246" data-name="Group 5246">
                                                    <g id="prefix__Group_5245" data-name="Group 5245">
                                                        <path id="prefix__Path_3997" d="M263.75 581.021a1.993 1.993 0 0 0-.49-.1c-.077-.01-.15-.027-.162-.08a.4.4 0 0 1 .058-.228l.244-.584a10.006 10.006 0 0 0 .554-1.529 10.293 10.293 0 0 0-.676 1.481l-.235.588a.453.453 0 0 0-.048.3.2.2 0 0 0 .124.117.537.537 0 0 0 .131.022 1.992 1.992 0 0 0 .5.013z" class="prefix__cls-7" data-name="Path 3997"/>
                                                    </g>
                                                </g>
                                            </g>
                                        </g>
                                        <g id="prefix__Group_5251" data-name="Group 5251">
                                            <g id="prefix__Group_5250" data-name="Group 5250">
                                                <g id="prefix__Group_5249" data-name="Group 5249">
                                                    <path id="prefix__Path_3998" d="M263.448 584.6a5.6 5.6 0 0 0 2.963-.709 2.789 2.789 0 0 1-2.947 1.229z" class="prefix__cls-10" data-name="Path 3998"/>
                                                </g>
                                            </g>
                                        </g>
                                    </g>
                                </g>
                            </g>
                        </g>
                    </g>
                    <g id="prefix__Group_5258" data-name="Group 5258">
                        <g id="prefix__Group_5257" data-name="Group 5257">
                            <path id="prefix__Path_3999" d="M265.88 577.925c-.062.1-.293.053-.551.006s-.487-.1-.51-.209.241-.254.586-.188.539.301.475.391z" class="prefix__cls-7" data-name="Path 3999"/>
                        </g>
                    </g>
                    <g id="prefix__Group_5260" data-name="Group 5260">
                        <g id="prefix__Group_5259" data-name="Group 5259">
                            <path id="prefix__Path_4000" d="M262.864 577.48c-.024.111-.271.151-.555.165s-.535-.006-.568-.114.207-.274.55-.29.598.132.573.239z" class="prefix__cls-7" data-name="Path 4000"/>
                        </g>
                    </g>
                    <g id="prefix__Group_5261" data-name="Group 5261">
                        <path id="prefix__Path_4001" d="M263.755 581.747a.152.152 0 0 0-.168.077.172.172 0 0 0 .069.233.172.172 0 0 0 .165-.3.174.174 0 0 0-.134-.013" class="prefix__cls-10" data-name="Path 4001"/>
                    </g>
                    <g id="prefix__Group_5263" data-name="Group 5263">
                        <g id="prefix__Group_5262" data-name="Group 5262">
                            <path id="prefix__Path_4002" d="M263.827 581.776c.014-.012-.048-.087-.181-.058a.228.228 0 0 0-.166.163.261.261 0 0 0 .091.275.254.254 0 0 0 .291 0 .217.217 0 0 0 .093-.216c-.027-.136-.127-.158-.13-.139a.394.394 0 0 1 .026.145.114.114 0 0 1-.061.1.133.133 0 0 1-.131-.006.137.137 0 0 1-.046-.125.131.131 0 0 1 .07-.1c.071-.039.134-.02.144-.039z" class="prefix__cls-7" data-name="Path 4002"/>
                        </g>
                    </g>
                    <g id="prefix__Group_5273" data-name="Group 5273">
                        <g id="prefix__Group_5264" data-name="Group 5264">
                            <path id="prefix__Path_4003" d="M267.638 579.523c-.262.606-.9 1.073-.811 1.727.057.422.328.816.275 1.238-.066.531-.618.9-.7 1.428-.1.649.536 1.154.788 1.76.367.882-.1 1.874-.114 2.83a3.035 3.035 0 0 0 2.686 2.951 1.639 1.639 0 0 0 1.561-.636 6.45 6.45 0 0 0 .353-1.414c.225-.692.885-1.2 1.024-1.912.253-1.3-1.32-2.379-1.216-3.7a9.185 9.185 0 0 1 .541-1.6 2.35 2.35 0 0 0-.462-2.091c-.388-.462-.952-.765-1.282-1.27a5.587 5.587 0 0 1-.529-1.967 4.955 4.955 0 0 0-7.87-2.9 1.609 1.609 0 0 0 1.171 1.951 1.562 1.562 0 0 0 .2.037c1.748.285 2.559-.044 2.756.657a1.858 1.858 0 0 0 .524 1.6c.731.773 1.407.61 1.105 1.311z" class="prefix__cls-7" data-name="Path 4003"/>
                        </g>
                        <g id="prefix__Group_5266" data-name="Group 5266">
                            <g id="prefix__Group_5265" data-name="Group 5265">
                                <path id="prefix__Path_4004" d="M270.428 591.333a.718.718 0 0 1-.16-.017 2.436 2.436 0 0 1-.445-.12 3.146 3.146 0 0 1-1.353-1 3.564 3.564 0 0 1-.575-1.024 4.11 4.11 0 0 1-.235-1.327 5.446 5.446 0 0 1 .186-1.476 6.547 6.547 0 0 1 .247-.748 7.317 7.317 0 0 0 .284-.742 1.4 1.4 0 0 0 0-.758 4.019 4.019 0 0 0-.294-.708 4.808 4.808 0 0 1-.3-.7 1.523 1.523 0 0 1-.054-.743 5.291 5.291 0 0 1 .573-1.217 2.3 2.3 0 0 0 .234-1.1 2.592 2.592 0 0 0-.576-1.525 4.55 4.55 0 0 0-.439-.428 1.764 1.764 0 0 1 .479.393 2.586 2.586 0 0 1 .632 1.555 2.382 2.382 0 0 1-.229 1.154 5.376 5.376 0 0 0-.552 1.192 2.183 2.183 0 0 0 .352 1.361 4.116 4.116 0 0 1 .3.731 1.513 1.513 0 0 1 0 .828 7.358 7.358 0 0 1-.288.757 6.094 6.094 0 0 0-.244.732 5.3 5.3 0 0 0-.19 1.44 3.725 3.725 0 0 0 .761 2.294 3.19 3.19 0 0 0 1.3 1.012 4.252 4.252 0 0 0 .586.184z" class="prefix__cls-8" data-name="Path 4004"/>
                            </g>
                        </g>
                        <g id="prefix__Group_5268" data-name="Group 5268">
                            <g id="prefix__Group_5267" data-name="Group 5267">
                                <path id="prefix__Path_4005" d="M270.171 578.3a1.793 1.793 0 0 1-.385.057 3.993 3.993 0 0 1-1.064-.028 2.028 2.028 0 0 1-1.343-.815 4.452 4.452 0 0 1-.353-.868 1.422 1.422 0 0 0-.589-.727 4.193 4.193 0 0 0-1.812-.473 3.157 3.157 0 0 1-1.506-.469 1.5 1.5 0 0 1-.617-.863.98.98 0 0 1-.02-.291.314.314 0 0 1 .021-.1 1.927 1.927 0 0 0 .05.378 1.492 1.492 0 0 0 .62.8 3.143 3.143 0 0 0 1.466.424 4.2 4.2 0 0 1 1.871.483 1.555 1.555 0 0 1 .639.792 4.475 4.475 0 0 0 .334.848 1.954 1.954 0 0 0 1.257.789 4.558 4.558 0 0 0 1.043.069 2.511 2.511 0 0 1 .388-.006z" class="prefix__cls-8" data-name="Path 4005"/>
                            </g>
                        </g>
                        <g id="prefix__Group_5270" data-name="Group 5270">
                            <g id="prefix__Group_5269" data-name="Group 5269">
                                <path id="prefix__Path_4006" d="M269.53 576.191a.784.784 0 0 1-.3.044 1.853 1.853 0 0 1-1.3-.518 2.435 2.435 0 0 1-.4-.535 2.223 2.223 0 0 0-.941-1.078 3.081 3.081 0 0 0-1.448-.127 4.448 4.448 0 0 1-1.236-.01 1.537 1.537 0 0 1-.763-.342.882.882 0 0 1-.152-.171c-.029-.044-.042-.067-.038-.07a2.567 2.567 0 0 0 .224.2 1.589 1.589 0 0 0 .745.289 4.659 4.659 0 0 0 1.209-.019 3.11 3.11 0 0 1 1.513.128 1.488 1.488 0 0 1 .617.513 6.968 6.968 0 0 1 .376.626 2.465 2.465 0 0 0 .372.518 1.786 1.786 0 0 0 .444.328 1.924 1.924 0 0 0 .775.216c.193.017.301-.003.303.008z" class="prefix__cls-8" data-name="Path 4006"/>
                            </g>
                        </g>
                        <g id="prefix__Group_5272" data-name="Group 5272">
                            <g id="prefix__Group_5271" data-name="Group 5271">
                                <path id="prefix__Path_4007" d="M271.2 590.779c-.013-.006.069-.172.165-.49a4.44 4.44 0 0 0 .172-1.385 4.246 4.246 0 0 0-.551-1.973c-.189-.338-.476-.64-.71-1.012a1.842 1.842 0 0 1-.26-.624 1.424 1.424 0 0 1 .057-.7 8.11 8.11 0 0 0 .46-1.232 1.7 1.7 0 0 0-.335-1.121 5.307 5.307 0 0 1-.277-.514 1.849 1.849 0 0 1-.146-.54 4.852 4.852 0 0 1 .029-.986 2.6 2.6 0 0 0-.122-1.373 1.232 1.232 0 0 0-.3-.4.057.057 0 0 1 .031.015.5.5 0 0 1 .083.059.942.942 0 0 1 .238.308 2.552 2.552 0 0 1 .17 1.4 4.932 4.932 0 0 0-.013.964 2.472 2.472 0 0 0 .419 1 3.268 3.268 0 0 1 .281.549 1.287 1.287 0 0 1 .078.653 7.587 7.587 0 0 1-.463 1.255 1.3 1.3 0 0 0-.054.633 1.744 1.744 0 0 0 .241.579c.222.357.51.665.706 1.019a4.258 4.258 0 0 1 .539 2.033 4.164 4.164 0 0 1-.218 1.4 3.1 3.1 0 0 1-.149.357.506.506 0 0 1-.071.126z" class="prefix__cls-8" data-name="Path 4007"/>
                            </g>
                        </g>
                    </g>
                </g>
                <g id="prefix__Group_5284" data-name="Group 5284">
                    <g id="prefix__Group_5275" data-name="Group 5275">
                        <path id="prefix__Path_4008" d="M260.673 638.935s-1.741-16.5-1.841-22.6a31.43 31.43 0 0 1 2.741-12.112l11.135-.471s2.2 6.186 2.24 8.785c.077 5.05-1.342 10.036-1.178 14.042l.372 12.354" class="prefix__cls-7" data-name="Path 4008"/>
                    </g>
                    <g id="prefix__Group_5277" data-name="Group 5277">
                        <g id="prefix__Group_5276" data-name="Group 5276">
                            <path id="prefix__Path_4009" d="M274.514 618.652a1.422 1.422 0 0 1-.182.138l-.1.072c-.035.03-.069.067-.108.1a1.64 1.64 0 0 0-.248.278 6.191 6.191 0 0 0-.871 2.208 7.375 7.375 0 0 1-.564 1.57 2.739 2.739 0 0 1-.247.391c-.048.062-.092.129-.145.188l-.172.171a2.768 2.768 0 0 1-.837.537c-.623.273-1.327.4-1.97.725a3.111 3.111 0 0 0-1.429 1.629c-.313.7-.5 1.435-.765 2.122a3.837 3.837 0 0 1-1.162 1.763 3.187 3.187 0 0 1-1.822.571c-.6.035-1.155.018-1.652.093a2.606 2.606 0 0 0-1.246.47 1.74 1.74 0 0 0-.579.815 1.23 1.23 0 0 0-.043.634c.029.145.07.215.061.218a.677.677 0 0 1-.087-.212 1.2 1.2 0 0 1 .019-.655 1.775 1.775 0 0 1 .582-.859 2.665 2.665 0 0 1 1.28-.506c.506-.083 1.068-.071 1.659-.11a3.1 3.1 0 0 0 1.754-.558 3.749 3.749 0 0 0 1.114-1.711c.257-.678.446-1.415.766-2.13a3.237 3.237 0 0 1 1.492-1.691c.668-.332 1.372-.457 1.98-.721a2.668 2.668 0 0 0 .806-.51l.165-.162c.051-.057.094-.12.14-.18a2.786 2.786 0 0 0 .241-.375 7.5 7.5 0 0 0 .57-1.542 5.988 5.988 0 0 1 .922-2.215 1.587 1.587 0 0 1 .262-.275c.041-.036.077-.073.114-.1l.107-.068a1.357 1.357 0 0 1 .195-.113z" class="prefix__cls-12" data-name="Path 4009"/>
                        </g>
                    </g>
                    <g id="prefix__Group_5279" data-name="Group 5279">
                        <g id="prefix__Group_5278" data-name="Group 5278">
                            <path id="prefix__Path_4010" d="M274.583 611.016a1.256 1.256 0 0 1 .014.221 2.742 2.742 0 0 1-.077.631 4.079 4.079 0 0 1-1.258 1.945 7.532 7.532 0 0 1-1.3.952c-.5.3-1.049.578-1.613.9a8.464 8.464 0 0 0-1.65 1.161 6.386 6.386 0 0 0-1.25 1.757 16.256 16.256 0 0 1-1.084 1.91 4.564 4.564 0 0 1-.707.782 4.429 4.429 0 0 1-.841.56 10.412 10.412 0 0 1-1.73.663c-.553.171-1.068.322-1.519.511a5.916 5.916 0 0 0-1.158.62 3.585 3.585 0 0 0-.727.67 3.464 3.464 0 0 0-.436.725 1.3 1.3 0 0 1 .072-.21 2.58 2.58 0 0 1 .323-.548 3.509 3.509 0 0 1 .724-.7 5.9 5.9 0 0 1 1.165-.647 15.95 15.95 0 0 1 1.522-.53 10.531 10.531 0 0 0 1.706-.667 4.379 4.379 0 0 0 .814-.548 4.488 4.488 0 0 0 .683-.761 16.5 16.5 0 0 0 1.072-1.9 6.47 6.47 0 0 1 1.278-1.789 8.454 8.454 0 0 1 1.68-1.173c.569-.318 1.12-.6 1.618-.885a7.528 7.528 0 0 0 1.3-.927 4.115 4.115 0 0 0 1.271-1.888 3.989 3.989 0 0 0 .108-.835z" class="prefix__cls-12" data-name="Path 4010"/>
                        </g>
                    </g>
                    <g id="prefix__Group_5281" data-name="Group 5281">
                        <g id="prefix__Group_5280" data-name="Group 5280">
                            <path id="prefix__Path_4011" d="M258.888 617.215a.173.173 0 0 1-.022-.05 1.2 1.2 0 0 1-.05-.154 1.241 1.241 0 0 1 .026-.62 2.533 2.533 0 0 1 1.637-1.509c.458-.157.978-.253 1.52-.394a2.85 2.85 0 0 0 2.106-1.567 8 8 0 0 0 .386-.928 10.086 10.086 0 0 1 .82-1.982A3.163 3.163 0 0 1 267 608.7a15.347 15.347 0 0 1 1.935-.49 6.407 6.407 0 0 0 1.682-.573 3.526 3.526 0 0 0 1.138-1.025 3.844 3.844 0 0 0 .723-2.094 5.857 5.857 0 0 0-.055-.826 2.725 2.725 0 0 1 .107.827 3.814 3.814 0 0 1-.7 2.148 3.589 3.589 0 0 1-1.162 1.068 6.435 6.435 0 0 1-1.709.6 15.835 15.835 0 0 0-1.916.493 3.042 3.042 0 0 0-1.618 1.259 10.173 10.173 0 0 0-.809 1.955 7.908 7.908 0 0 1-.4.944 2.956 2.956 0 0 1-2.192 1.616c-.549.139-1.067.228-1.518.377a2.5 2.5 0 0 0-1.617 1.434 1.272 1.272 0 0 0-.049.6 1.609 1.609 0 0 1 .048.202z" class="prefix__cls-12" data-name="Path 4011"/>
                        </g>
                    </g>
                    <g id="prefix__Group_5283" data-name="Group 5283">
                        <g id="prefix__Group_5282" data-name="Group 5282">
                            <path id="prefix__Path_4012" d="M273.626 631.164a.732.732 0 0 1 .018.162 1.7 1.7 0 0 1-.047.466 2.651 2.651 0 0 1-.977 1.4 4.353 4.353 0 0 1-1.025.609 13.574 13.574 0 0 1-1.287.445 10.553 10.553 0 0 0-1.4.51 4.035 4.035 0 0 0-1.272.928c-.377.395-.7.826-1.063 1.207a4.871 4.871 0 0 1-1.191.932 5.229 5.229 0 0 1-2.458.639 4.875 4.875 0 0 1-1.692-.281 3.191 3.191 0 0 1-.432-.181.759.759 0 0 1-.142-.079.7.7 0 0 1 .154.054 4.175 4.175 0 0 0 .435.159 5.1 5.1 0 0 0 1.673.236 5.229 5.229 0 0 0 2.4-.652 4.8 4.8 0 0 0 1.156-.914c.353-.375.677-.807 1.062-1.21a4.138 4.138 0 0 1 1.313-.954 10.5 10.5 0 0 1 1.418-.51c.457-.139.891-.268 1.28-.429a4.305 4.305 0 0 0 1.009-.58 2.668 2.668 0 0 0 .985-1.335 3.008 3.008 0 0 0 .083-.622z" class="prefix__cls-12" data-name="Path 4012"/>
                        </g>
                    </g>
                </g>
                <g id="prefix__Group_5287" data-name="Group 5287">
                    <path id="prefix__Path_4013" d="M272.357 596.905l-2.153.051a3.509 3.509 0 0 1-.487 1.221 37.208 37.208 0 0 1-3.543-8.995c.05-.168.11-.354.185-.562a2.374 2.374 0 0 0-.028-.946c-.061-.375-.165-.879-.2-1.112-.1-.711-.21-.823-.458-.742-.337.109.138 2-.138 2.038-.149.022-.329-.625-.383-1.155a8.6 8.6 0 0 0-.468-2.271c-.257-.16-.481.093-.416.621s.149 2.13-.132 2.151-.508-2.685-.508-2.685.044-.589-.281-.575c-.586.025-.128 2.878-.078 3.148.035.188-.269.222-.3.018s-.169-2.706-.765-2.686c-.458.015.354 2.351.1 2.892s-.435-1.839-.872-1.806c-.163.012-.283.044.016 1.391a30.7 30.7 0 0 0 1.045 3.157c.692 3.735 3.731 15.682 8.5 13.495 2.666-1.224 3.747-6.647 3.747-6.647z" class="prefix__cls-9" data-name="Path 4013"/>
                    <g id="prefix__Group_5286" data-name="Group 5286">
                        <g id="prefix__Group_5285" data-name="Group 5285">
                            <path id="prefix__Path_4014" d="M263.17 587.276a.162.162 0 0 0 .062-.009.138.138 0 0 0 .1-.149c-.006-.16-.031-.394-.068-.7a9.919 9.919 0 0 1-.119-1.1c0-.216 0-.449.014-.7a2.442 2.442 0 0 1 .038-.372c.02-.117.1-.251.189-.235h.01a.207.207 0 0 1 .193.177 1.007 1.007 0 0 1 .034.346v.008a21.15 21.15 0 0 0 .276 2.158c.021.1.042.194.072.292.016.05.034.1.054.148a.451.451 0 0 0 .044.077.142.142 0 0 0 .108.068.192.192 0 0 0 .162-.136.744.744 0 0 0 .048-.159 2.4 2.4 0 0 0 .042-.316 9.454 9.454 0 0 0-.017-1.293 2.98 2.98 0 0 1-.027-.647.359.359 0 0 1 .127-.241.14.14 0 0 1 .111-.014.223.223 0 0 1 .061.027.081.081 0 0 1 .028.038 3.262 3.262 0 0 1 .179.65c.046.229.086.462.122.7s.07.474.1.714a4.96 4.96 0 0 0 .119.735 2.628 2.628 0 0 0 .117.365.687.687 0 0 0 .107.183.154.154 0 0 0 .155.056.166.166 0 0 0 .105-.116 1.28 1.28 0 0 0 .027-.4c-.005-.128-.016-.255-.027-.382-.019-.218-.039-.433-.047-.645a2.148 2.148 0 0 1 .008-.311.518.518 0 0 1 .031-.135.113.113 0 0 1 .025-.039.013.013 0 0 0 .01-.006l.033-.01c.172-.071.229.168.274.36s.065.408.105.611c.068.407.155.812.2 1.2a1.389 1.389 0 0 1-.023.556l-.181.554-.005.017v.017a29.782 29.782 0 0 0 1.156 3.737c.409 1.1.818 2.056 1.179 2.835s.683 1.381.906 1.791l.269.462a1.2 1.2 0 0 0 .1.155 1.021 1.021 0 0 0-.079-.167l-.249-.472c-.21-.416-.52-1.022-.869-1.8s-.748-1.737-1.147-2.84a30.79 30.79 0 0 1-1.131-3.724v.034l.181-.547a1.482 1.482 0 0 0 .032-.618c-.046-.4-.131-.8-.2-1.206-.04-.2-.064-.41-.106-.622a1.2 1.2 0 0 0-.1-.32.3.3 0 0 0-.143-.144.318.318 0 0 0-.2-.008l-.043.012a.228.228 0 0 0-.059.033.261.261 0 0 0-.065.092.62.62 0 0 0-.042.176 2.309 2.309 0 0 0-.01.333c.009.219.03.436.047.653.011.126.021.252.027.376a1.155 1.155 0 0 1-.019.347c-.006.027-.019.022 0 .035v.01-.009s.007-.011 0-.012a.043.043 0 0 1-.016-.014.588.588 0 0 1-.079-.14 2.58 2.58 0 0 1-.109-.343 5.111 5.111 0 0 1-.117-.716q-.043-.364-.1-.72c-.037-.237-.078-.472-.125-.7a3.246 3.246 0 0 0-.2-.69.238.238 0 0 0-.081-.091.414.414 0 0 0-.1-.041.276.276 0 0 0-.219.03.484.484 0 0 0-.192.336 1.233 1.233 0 0 0 0 .354c.013.11.023.219.032.328a9.162 9.162 0 0 1 .023 1.273 2.156 2.156 0 0 1-.037.3.683.683 0 0 1-.038.134.231.231 0 0 1-.028.048c-.009.021-.018-.005-.017.03.013-.027 0-.012-.01-.034a.288.288 0 0 1-.031-.054 1.32 1.32 0 0 1-.049-.133c-.029-.092-.05-.187-.071-.281a21.138 21.138 0 0 1-.292-2.141v.008a1.129 1.129 0 0 0-.042-.384.4.4 0 0 0-.1-.172.269.269 0 0 0-.192-.07h.014a.225.225 0 0 0-.223.107.559.559 0 0 0-.079.2 2.4 2.4 0 0 0-.035.388c-.009.248-.011.482 0 .7a9.16 9.16 0 0 0 .142 1.106c.045.3.079.533.093.691a.125.125 0 0 1-.075.135.522.522 0 0 1-.058.022z" class="prefix__cls-10" data-name="Path 4014"/>
                        </g>
                    </g>
                </g>
                <path id="prefix__Path_4015" d="M246.337 600.464a5.58 5.58 0 0 0-1.5.172c-1.335.351-3.639 1.747-3.734 3.472h1.673s-.937 2-.662 1.81a21.309 21.309 0 0 0 2.137-1.925z" class="prefix__cls-9" data-name="Path 4015"/>
                <g id="prefix__Group_5294" data-name="Group 5294">
                    <g id="prefix__Group_5289" data-name="Group 5289">
                        <g id="prefix__Group_5288" data-name="Group 5288">
                            <path id="prefix__Path_4016" d="M269.165 570.435c-.037 0-.189-1.38-.339-3.09s-.242-3.1-.2-3.1.189 1.38.339 3.09.235 3.097.2 3.1z" class="prefix__cls-7" data-name="Path 4016"/>
                        </g>
                    </g>
                    <g id="prefix__Group_5291" data-name="Group 5291">
                        <g id="prefix__Group_5290" data-name="Group 5290">
                            <path id="prefix__Path_4017" d="M276.506 564.327c.03.022-1.1 1.663-2.525 3.665s-2.6 3.609-2.635 3.587 1.1-1.662 2.525-3.665 2.605-3.608 2.635-3.587z" class="prefix__cls-7" data-name="Path 4017"/>
                        </g>
                    </g>
                    <g id="prefix__Group_5293" data-name="Group 5293">
                        <g id="prefix__Group_5292" data-name="Group 5292">
                            <path id="prefix__Path_4018" d="M279.557 571.765c.007.036-1.312.338-2.947.674s-2.967.579-2.974.543 1.312-.338 2.947-.674 2.966-.579 2.974-.543z" class="prefix__cls-7" data-name="Path 4018"/>
                        </g>
                    </g>
                </g>
            </g>
            <g id="prefix__Group_5300" data-name="Group 5300">
                <g id="prefix__Group_5296" data-name="Group 5296">
                    <path id="prefix__Path_4019" d="M191.656 607.263l-9.138 46.986-1.2 6.151 61.01-.3c2.738-.014 5.165-2.445 6.046-6.057l10.818-44.359c.669-2.742-.8-5.594-2.877-5.592l-61.749.065c-1.361 0-2.548 1.272-2.91 3.106z" class="prefix__cls-6" data-name="Path 4019"/>
                </g>
                <g id="prefix__Group_5297" class="prefix__cls-13" data-name="Group 5297">
                    <path id="prefix__Path_4020" d="M191.656 607.263l-9.138 46.986-1.2 6.151 61.01-.3c2.738-.014 5.165-2.445 6.046-6.057l10.818-44.359c.669-2.742-.8-5.594-2.877-5.592l-61.749.065c-1.361 0-2.548 1.272-2.91 3.106z" data-name="Path 4020"/>
                </g>
                <g id="prefix__Group_5298" data-name="Group 5298">
                    <path id="prefix__Path_4021" d="M236.479 651.066l-6.46-52.053a4.1 4.1 0 0 0-3.969-3.72l-14.165.046a3.863 3.863 0 0 0-2.8 1.241l-6.726 7.15-39.394.206a4.191 4.191 0 0 0-3.986 4.386 4.5 4.5 0 0 0 .048.464l6 48.111a4.1 4.1 0 0 0 3.964 3.715l68.656-.136c7.647.159 8.377-2.1 8.377-2.1-8.764 1.943-9.544-7.305-9.545-7.31z" class="prefix__cls-5" data-name="Path 4021"/>
                </g>
                <g id="prefix__Group_5299" class="prefix__cls-13" data-name="Group 5299">
                    <path id="prefix__Path_4022" d="M206.875 640.647l-2.315 2.487-17.834-16.043 2.315-2.487z" class="prefix__cls-14" data-name="Path 4022"/>
                    <path id="prefix__Path_4023" d="M203.59 624.053l2.559 2.3-16.136 17.331-2.559-2.3z" class="prefix__cls-14" data-name="Path 4023"/>
                </g>
            </g>
            <g id="prefix__Group_5309" data-name="Group 5309">
                <g id="prefix__Group_5305" data-name="Group 5305">
                    <g id="prefix__Group_5302" data-name="Group 5302">
                        <g id="prefix__Group_5301" data-name="Group 5301">
                            <path id="prefix__Path_4024" d="M246.283 573.471a.484.484 0 0 1-.292-.423l-.1-2.4a.483.483 0 0 1 .461-.5.488.488 0 0 1 .132.013 1.5 1.5 0 0 0 1.167-.231 1.35 1.35 0 0 0 .6-.884 1.381 1.381 0 0 0-.29-1.038 1.54 1.54 0 0 0-1.019-.613 1.808 1.808 0 0 0-1.834 1.3.482.482 0 0 1-.931-.253 2.778 2.778 0 0 1 2.876-2.007 2.487 2.487 0 0 1 1.677.99 2.345 2.345 0 0 1 .473 1.774 2.312 2.312 0 0 1-1.02 1.53 2.518 2.518 0 0 1-1.308.427l.08 1.849a.483.483 0 0 1-.672.464z" class="prefix__cls-6" data-name="Path 4024"/>
                        </g>
                    </g>
                    <g id="prefix__Group_5304" data-name="Group 5304">
                        <g id="prefix__Group_5303" data-name="Group 5303">
                            <path id="prefix__Path_4025" d="M246.99 574.448a.394.394 0 1 1-.421-.367.393.393 0 0 1 .421.367z" class="prefix__cls-6" data-name="Path 4025"/>
                        </g>
                    </g>
                </g>
                <g id="prefix__Group_5308" data-name="Group 5308">
                    <g id="prefix__Group_5307" data-name="Group 5307">
                        <g id="prefix__Group_5306" data-name="Group 5306">
                            <path id="prefix__Path_4026" d="M237.978 570.086a.929.929 0 0 0 .023-.157l.051-.462a5.486 5.486 0 0 1 .125-.743c.034-.145.052-.306.1-.469l.16-.522a8.91 8.91 0 0 1 1.285-2.462 8.668 8.668 0 0 1 8.012-3.373c.2.019.393.072.592.107a3.9 3.9 0 0 1 .6.143 8.185 8.185 0 0 1 2.312 1.048 8.644 8.644 0 0 1 3.416 4.29 8.425 8.425 0 0 1 .507 2.949 8.279 8.279 0 0 1-.541 3.035l-.116.3-.015.039.016.036 1.9 4.376.109-.124-3.87-1.487-.048-.018-.038.036a8.521 8.521 0 0 1-10.633 1.027 8.893 8.893 0 0 1-2.179-2.029 8.574 8.574 0 0 1-1.653-3.963l-.081-.672-.013-.494-.01-.3a.477.477 0 0 0-.008-.1.554.554 0 0 0-.006.1v.8l.068.678a8.558 8.558 0 0 0 1.627 4.025 8.921 8.921 0 0 0 2.2 2.073 8.643 8.643 0 0 0 10.813-1.009l-.085.018 3.869 1.493.2.075-.086-.2-1.9-4.377v.075l.119-.3a8.439 8.439 0 0 0 .552-3.1 8.6 8.6 0 0 0-.521-3.013 8.791 8.791 0 0 0-3.492-4.37 8.347 8.347 0 0 0-2.356-1.059 4.164 4.164 0 0 0-.6-.144c-.2-.035-.4-.088-.6-.106a8.67 8.67 0 0 0-9.381 5.969l-.154.529c-.051.165-.066.327-.1.474a5.274 5.274 0 0 0-.109.75l-.034.465a1.133 1.133 0 0 0-.027.143z" class="prefix__cls-7" data-name="Path 4026"/>
                        </g>
                    </g>
                </g>
            </g>
        </g>
    </g>
</svg>
