<svg xmlns="http://www.w3.org/2000/svg" id="prefix__Group_2821" width="28.507" height="31.505" data-name="Group 2821" viewBox="0 0 28.507 31.505">
    <defs>
        <style>
            .prefix__cls-1{fill:#c1272d}
        </style>
    </defs>
    <path id="prefix__Path_180" d="M374.589 88.309c.216.052.44.088.651.157a2.982 2.982 0 0 1 2.047 2.807c.005.7 0 1.393 0 2.091v.193h6.677a.764.764 0 0 1 .775.487.748.748 0 0 1-.713 1.015c-.981.005-1.962 0-2.941 0h-.19c-.033.337-.07.667-.1.994q-.174 1.784-.345 3.566-.166 1.742-.335 3.484c-.111 1.161-.227 2.323-.337 3.487l-.3 3.131c-.1 1.061-.206 2.122-.306 3.183s-.2 2.1-.307 3.149a10.735 10.735 0 0 1-.183 1.527 2.936 2.936 0 0 1-2.521 2.207.4.4 0 0 0-.09.028h-11.06a5.646 5.646 0 0 1-.726-.183 2.961 2.961 0 0 1-1.993-2.7c-.1-1.148-.214-2.292-.324-3.438q-.147-1.576-.3-3.149l-.34-3.487q-.151-1.564-.3-3.131l-.306-3.167q-.152-1.583-.3-3.149c-.077-.778-.152-1.555-.229-2.354h-.191c-.981 0-1.962.005-2.941 0a.747.747 0 0 1-.69-1.074.738.738 0 0 1 .716-.425h6.71v-.178-2.057a2.992 2.992 0 0 1 2.608-2.987.915.915 0 0 0 .09-.026zm-12.906 6.759c.052.551.1 1.094.157 1.638q.151 1.58.306 3.165l.3 3.134.34 3.487.3 3.149c.111 1.161.227 2.325.34 3.487s.219 2.323.335 3.484a3.2 3.2 0 0 0 .134.754 1.47 1.47 0 0 0 1.478.948H375.7c.057 0 .116 0 .175-.005a1.507 1.507 0 0 0 1.414-1.393c.049-.633.113-1.269.175-1.9.1-1.066.206-2.132.309-3.2l.3-3.118.309-3.18.3-3.136q.149-1.568.306-3.165l.309-3.183c.031-.317.059-.636.09-.963zm3.608-1.522h10.488c.005-.052.01-.093.01-.134v-2.057a1.482 1.482 0 0 0-1.55-1.545q-3.7-.008-7.393 0a1.484 1.484 0 0 0-1.553 1.558v1.671z" class="prefix__cls-1" data-name="Path 180" transform="translate(-356.283 -88.309)"/>
    <path id="prefix__Path_181" d="M364.855 100.728l-.247 5.281-.126 2.632a.749.749 0 0 1-1.5-.075q.077-1.676.157-3.355.093-1.862.18-3.723.127-2.6.25-5.2.081-1.727.165-3.45a.745.745 0 1 1 1.488.057c-.057 1.3-.121 2.6-.183 3.9l-.185 3.932z" class="prefix__cls-1" data-name="Path 181" transform="translate(-345.728 -82.345)"/>
    <path id="prefix__Path_182" d="M361.647 100.709q.127 2.592.25 5.183c.044.894.088 1.784.126 2.678a.749.749 0 0 1-1.5.062l-.263-5.585-.309-6.386q-.089-1.889-.173-3.772a.736.736 0 0 1 .523-.76.729.729 0 0 1 .842.309.818.818 0 0 1 .118.358c.069 1.321.131 2.642.193 3.963s.126 2.634.19 3.95z" class="prefix__cls-1" data-name="Path 182" transform="translate(-350.772 -82.345)"/>
    <path id="prefix__Path_183" d="M363.02 100.731v7.794a.747.747 0 1 1-1.488.131c-.005-.064 0-.129 0-.193V92.97a1.309 1.309 0 0 1 .036-.348.743.743 0 0 1 1.452.185c.005.07 0 .139 0 .209z" class="prefix__cls-1" data-name="Path 183" transform="translate(-348.021 -82.343)"/>
</svg>
