<svg xmlns="http://www.w3.org/2000/svg" id="prefix__Twitter" width="59.053" height="59.053" viewBox="0 0 59.053 59.053">
    <path id="prefix__back" fill="#55acee" d="M0 29.526a29.526 29.526 0 1 1 29.526 29.527A29.526 29.526 0 0 1 0 29.526z"/>
    <path id="prefix__Shape" fill="#fff" d="M15.821 7.163l.071 1.165-1.177-.143A19.148 19.148 0 0 1 3.508 2.671L1.954 1.126l-.4 1.141A6.86 6.86 0 0 0 3.014 9.3c.942 1 .73 1.141-.895.547a2.776 2.776 0 0 0-1.107-.261 8.516 8.516 0 0 0 .848 3.185 7.6 7.6 0 0 0 3.225 3.042l1.154.547-1.366.024c-1.318 0-1.366.024-1.224.523.471 1.545 2.331 3.185 4.4 3.9l1.46.5-1.271.761a13.255 13.255 0 0 1-6.31 1.759A6.972 6.972 0 0 0 0 24.015c0 .238 2.872 1.569 4.544 2.092a19.887 19.887 0 0 0 15.445-1.759 20.669 20.669 0 0 0 7.84-9.222 24.516 24.516 0 0 0 1.6-7.131c0-1.093.071-1.236 1.389-2.543a15.521 15.521 0 0 0 1.648-1.83c.235-.452.212-.452-.989-.048-2 .713-2.284.618-1.295-.452a6.914 6.914 0 0 0 1.6-2.543c0-.071-.353.048-.753.261a13.135 13.135 0 0 1-2.072.808l-1.271.4-1.154-.784a9.583 9.583 0 0 0-2-1.046 8.043 8.043 0 0 0-4.12.1 6.8 6.8 0 0 0-4.591 6.845z" transform="translate(14.003 17.088)"/>
</svg>
