<svg width="24" height="24" viewBox="0 0 24 24" fill="none" xmlns="http://www.w3.org/2000/svg">
<path d="M5 7H3C2.46973 6.99947 1.96133 6.78859 1.58637 6.41363C1.21141 6.03867 1.00053 5.53027 1 5V3C1.00053 2.46973 1.21141 1.96133 1.58637 1.58637C1.96133 1.21141 2.46973 1.00053 3 1H5C5.53027 1.00053 6.03867 1.21141 6.41363 1.58637C6.78859 1.96133 6.99947 2.46973 7 3V5C6.99947 5.53027 6.78859 6.03867 6.41363 6.41363C6.03867 6.78859 5.53027 6.99947 5 7ZM3 3V5H5.0015L5 3H3ZM13 7H11C10.4697 6.99947 9.96133 6.78859 9.58637 6.41363C9.21141 6.03867 9.00053 5.53027 9 5V3C9.00053 2.46973 9.21141 1.96133 9.58637 1.58637C9.96133 1.21141 10.4697 1.00053 11 1H13C13.5303 1.00053 14.0387 1.21141 14.4136 1.58637C14.7886 1.96133 14.9995 2.46973 15 3V5C14.9995 5.53027 14.7886 6.03867 14.4136 6.41363C14.0387 6.78859 13.5303 6.99947 13 7ZM11 3V5H13.0015L13 3H11ZM21 7H19C18.4697 6.99947 17.9613 6.78859 17.5864 6.41363C17.2114 6.03867 17.0005 5.53027 17 5V3C17.0005 2.46973 17.2114 1.96133 17.5864 1.58637C17.9613 1.21141 18.4697 1.00053 19 1H21C21.5303 1.00053 22.0387 1.21141 22.4136 1.58637C22.7886 1.96133 22.9995 2.46973 23 3V5C22.9995 5.53027 22.7886 6.03867 22.4136 6.41363C22.0387 6.78859 21.5303 6.99947 21 7ZM19 3V5H21.0015L21 3H19ZM5 15H3C2.46973 14.9995 1.96133 14.7886 1.58637 14.4136C1.21141 14.0387 1.00053 13.5303 1 13V11C1.00053 10.4697 1.21141 9.96133 1.58637 9.58637C1.96133 9.21141 2.46973 9.00053 3 9H5C5.53027 9.00053 6.03867 9.21141 6.41363 9.58637C6.78859 9.96133 6.99947 10.4697 7 11V13C6.99947 13.5303 6.78859 14.0387 6.41363 14.4136C6.03867 14.7886 5.53027 14.9995 5 15ZM3 11V13H5.0015L5 11H3Z" fill="#346751"/>
<path d="M13 15H11C10.4697 14.9995 9.96133 14.7886 9.58637 14.4136C9.21141 14.0387 9.00053 13.5303 9 13V11C9.00053 10.4697 9.21141 9.96133 9.58637 9.58637C9.96133 9.21141 10.4697 9.00053 11 9H13C13.5303 9.00053 14.0387 9.21141 14.4136 9.58637C14.7886 9.96133 14.9995 10.4697 15 11V13C14.9995 13.5303 14.7886 14.0387 14.4136 14.4136C14.0387 14.7886 13.5303 14.9995 13 15ZM11 11V13H13.0015L13 11H11Z" fill="#E2AB40"/>
<path d="M21 15H19C18.4697 14.9995 17.9613 14.7886 17.5864 14.4136C17.2114 14.0387 17.0005 13.5303 17 13V11C17.0005 10.4697 17.2114 9.96133 17.5864 9.58637C17.9613 9.21141 18.4697 9.00053 19 9H21C21.5303 9.00053 22.0387 9.21141 22.4136 9.58637C22.7886 9.96133 22.9995 10.4697 23 11V13C22.9995 13.5303 22.7886 14.0387 22.4136 14.4136C22.0387 14.7886 21.5303 14.9995 21 15ZM19 11V13H21.0015L21 11H19ZM5 23H3C2.46973 22.9995 1.96133 22.7886 1.58637 22.4136C1.21141 22.0387 1.00053 21.5303 1 21V19C1.00053 18.4697 1.21141 17.9613 1.58637 17.5864C1.96133 17.2114 2.46973 17.0005 3 17H5C5.53027 17.0005 6.03867 17.2114 6.41363 17.5864C6.78859 17.9613 6.99947 18.4697 7 19V21C6.99947 21.5303 6.78859 22.0387 6.41363 22.4136C6.03867 22.7886 5.53027 22.9995 5 23ZM3 19V21H5.0015L5 19H3ZM13 23H11C10.4697 22.9995 9.96133 22.7886 9.58637 22.4136C9.21141 22.0387 9.00053 21.5303 9 21V19C9.00053 18.4697 9.21141 17.9613 9.58637 17.5864C9.96133 17.2114 10.4697 17.0005 11 17H13C13.5303 17.0005 14.0387 17.2114 14.4136 17.5864C14.7886 17.9613 14.9995 18.4697 15 19V21C14.9995 21.5303 14.7886 22.0387 14.4136 22.4136C14.0387 22.7886 13.5303 22.9995 13 23ZM11 19V21H13.0015L13 19H11ZM21 23H19C18.4697 22.9995 17.9613 22.7886 17.5864 22.4136C17.2114 22.0387 17.0005 21.5303 17 21V19C17.0005 18.4697 17.2114 17.9613 17.5864 17.5864C17.9613 17.2114 18.4697 17.0005 19 17H21C21.5303 17.0005 22.0387 17.2114 22.4136 17.5864C22.7886 17.9613 22.9995 18.4697 23 19V21C22.9995 21.5303 22.7886 22.0387 22.4136 22.4136C22.0387 22.7886 21.5303 22.9995 21 23ZM19 19V21H21.0015L21 19H19Z" fill="#346751"/>
</svg>
