<svg width="24" height="24" viewBox="0 0 24 24" fill="none" xmlns="http://www.w3.org/2000/svg">
<path d="M14.7497 19.4212C14.4955 19.4212 14.2385 19.3717 13.9928 19.27C13.2572 18.9655 12.7819 18.2571 12.7819 17.4651V15.7842C12.7819 15.3527 13.1316 15.0028 13.5632 15.0028C13.9947 15.0028 14.3446 15.3527 14.3446 15.7842V17.4651C14.3446 17.6992 14.5165 17.7955 14.5904 17.8262C14.6656 17.8573 14.8588 17.9115 15.0272 17.7429L20.2094 12.5542C20.5148 12.2486 20.5148 11.7513 20.2094 11.4457L15.0272 6.25721C14.8588 6.0886 14.6656 6.14262 14.5905 6.17375C14.5165 6.20442 14.3446 6.30085 14.3446 6.53492V11.2577C14.3446 12.1194 13.6436 12.8203 12.7819 12.8203H2.78125C2.34973 12.8203 2 12.4706 2 12.0391C2 11.6076 2.34973 11.2577 2.78125 11.2577H12.7819V6.53492C12.7819 5.74299 13.2572 5.03437 13.9928 4.72995C14.7311 4.42447 15.5711 4.59049 16.1327 5.15293L21.315 10.3414C22.2283 11.256 22.2283 12.7441 21.315 13.6587L16.1327 18.8471C15.758 19.2224 15.2593 19.421 14.7497 19.4212Z" fill="#E2AB40"/>
</svg>
