<svg width="258" height="55" viewBox="0 0 258 55" fill="none" xmlns="http://www.w3.org/2000/svg">
<path d="M69.16 23.192C68.0293 23.192 67.0587 22.952 66.248 22.472C65.4373 21.9813 64.8133 21.304 64.376 20.44C63.9387 19.5653 63.72 18.5573 63.72 17.416C63.72 16.2747 63.9387 15.2667 64.376 14.392C64.8133 13.5173 65.4373 12.8347 66.248 12.344C67.0587 11.8533 68.0293 11.608 69.16 11.608C70.504 11.608 71.6027 11.944 72.456 12.616C73.32 13.2773 73.8587 14.2107 74.072 15.416H71.816C71.6773 14.808 71.3787 14.3333 70.92 13.992C70.472 13.64 69.8747 13.464 69.128 13.464C68.0933 13.464 67.2827 13.816 66.696 14.52C66.1093 15.224 65.816 16.1893 65.816 17.416C65.816 18.6427 66.1093 19.608 66.696 20.312C67.2827 21.0053 68.0933 21.352 69.128 21.352C69.8747 21.352 70.472 21.192 70.92 20.872C71.3787 20.5413 71.6773 20.088 71.816 19.512H74.072C73.8587 20.664 73.32 21.5653 72.456 22.216C71.6027 22.8667 70.504 23.192 69.16 23.192ZM75.0243 23L79.1203 11.8H81.4243L85.5203 23H83.3443L82.4483 20.408H78.0803L77.1683 23H75.0243ZM78.6403 18.808H81.8883L80.2563 14.152L78.6403 18.808ZM86.963 23V11.8H89.011L94.275 19.688V11.8H96.323V23H94.275L89.011 15.128V23H86.963ZM98.4943 23V11.8H100.542L105.806 19.688V11.8H107.854V23H105.806L100.542 15.128V23H98.4943ZM109.306 23L113.402 11.8H115.706L119.802 23H117.626L116.73 20.408H112.362L111.45 23H109.306ZM112.922 18.808H116.17L114.538 14.152L112.922 18.808ZM121.244 23V11.8H125.74C126.903 11.8 127.788 12.072 128.396 12.616C129.015 13.1493 129.324 13.8373 129.324 14.68C129.324 15.384 129.132 15.9493 128.748 16.376C128.375 16.792 127.916 17.0747 127.372 17.224C128.012 17.352 128.54 17.672 128.956 18.184C129.372 18.6853 129.58 19.272 129.58 19.944C129.58 20.8293 129.26 21.56 128.62 22.136C127.98 22.712 127.074 23 125.9 23H121.244ZM123.292 16.504H125.436C126.012 16.504 126.455 16.3707 126.764 16.104C127.074 15.8373 127.228 15.4587 127.228 14.968C127.228 14.4987 127.074 14.1307 126.764 13.864C126.466 13.5867 126.012 13.448 125.404 13.448H123.292V16.504ZM123.292 21.336H125.58C126.188 21.336 126.658 21.1973 126.988 20.92C127.33 20.632 127.5 20.232 127.5 19.72C127.5 19.1973 127.324 18.7867 126.972 18.488C126.62 18.1893 126.146 18.04 125.548 18.04H123.292V21.336ZM131.338 23V11.8H133.386V23H131.338ZM139.381 23.192C138.559 23.192 137.834 23.0533 137.205 22.776C136.575 22.488 136.079 22.0827 135.717 21.56C135.354 21.0267 135.167 20.3813 135.157 19.624H137.317C137.338 20.1467 137.525 20.5893 137.877 20.952C138.239 21.304 138.735 21.48 139.365 21.48C139.909 21.48 140.341 21.352 140.661 21.096C140.981 20.8293 141.141 20.4773 141.141 20.04C141.141 19.5813 140.997 19.224 140.709 18.968C140.431 18.712 140.058 18.504 139.589 18.344C139.119 18.184 138.618 18.0133 138.085 17.832C137.221 17.5333 136.559 17.1493 136.101 16.68C135.653 16.2107 135.429 15.5867 135.429 14.808C135.418 14.1467 135.573 13.5813 135.893 13.112C136.223 12.632 136.671 12.264 137.237 12.008C137.802 11.7413 138.453 11.608 139.189 11.608C139.935 11.608 140.591 11.7413 141.157 12.008C141.733 12.2747 142.181 12.648 142.501 13.128C142.831 13.608 143.007 14.1787 143.029 14.84H140.837C140.826 14.4453 140.671 14.0987 140.373 13.8C140.085 13.4907 139.679 13.336 139.157 13.336C138.709 13.3253 138.33 13.4373 138.021 13.672C137.722 13.896 137.573 14.2267 137.573 14.664C137.573 15.0373 137.69 15.336 137.925 15.56C138.159 15.7733 138.479 15.9547 138.885 16.104C139.29 16.2533 139.754 16.4133 140.277 16.584C140.831 16.776 141.338 17 141.797 17.256C142.255 17.512 142.623 17.8533 142.901 18.28C143.178 18.696 143.317 19.2347 143.317 19.896C143.317 20.4827 143.167 21.0267 142.869 21.528C142.57 22.0293 142.127 22.4347 141.541 22.744C140.954 23.0427 140.234 23.192 139.381 23.192Z" fill="#E2AB40"/>
<path d="M64.036 44V34.2H65.212V44H64.036ZM67.2199 44V37.056H68.2839L68.3539 38.302C68.5779 37.8633 68.8999 37.518 69.3199 37.266C69.7399 37.014 70.2159 36.888 70.7479 36.888C71.5692 36.888 72.2226 37.14 72.7079 37.644C73.2026 38.1387 73.4499 38.904 73.4499 39.94V44H72.2739V40.066C72.2739 38.6193 71.6766 37.896 70.4819 37.896C69.8846 37.896 69.3852 38.1153 68.9839 38.554C68.5919 38.9833 68.3959 39.5993 68.3959 40.402V44H67.2199ZM75.6096 44V38.05H74.5596V37.056H75.6096V35.852C75.6096 35.18 75.7776 34.69 76.1136 34.382C76.4496 34.074 76.9396 33.92 77.5836 33.92H78.2836V34.928H77.7656C77.411 34.928 77.159 35.0027 77.0096 35.152C76.8603 35.292 76.7856 35.5347 76.7856 35.88V37.056H78.4936V38.05H76.7856V44H75.6096ZM82.7843 44.168C82.131 44.168 81.543 44.0187 81.0203 43.72C80.4976 43.4213 80.0823 43.0013 79.7743 42.46C79.4756 41.9093 79.3263 41.2653 79.3263 40.528C79.3263 39.7907 79.4803 39.1513 79.7883 38.61C80.0963 38.0593 80.5116 37.6347 81.0343 37.336C81.5663 37.0373 82.159 36.888 82.8123 36.888C83.4656 36.888 84.0536 37.0373 84.5763 37.336C85.099 37.6347 85.5096 38.0593 85.8083 38.61C86.1163 39.1513 86.2703 39.7907 86.2703 40.528C86.2703 41.2653 86.1163 41.9093 85.8083 42.46C85.5003 43.0013 85.0803 43.4213 84.5483 43.72C84.0256 44.0187 83.4376 44.168 82.7843 44.168ZM82.7843 43.16C83.1856 43.16 83.559 43.062 83.9043 42.866C84.2496 42.67 84.5296 42.376 84.7443 41.984C84.959 41.592 85.0663 41.1067 85.0663 40.528C85.0663 39.9493 84.959 39.464 84.7443 39.072C84.539 38.68 84.2636 38.386 83.9183 38.19C83.573 37.994 83.2043 37.896 82.8123 37.896C82.411 37.896 82.0376 37.994 81.6923 38.19C81.347 38.386 81.067 38.68 80.8523 39.072C80.6376 39.464 80.5303 39.9493 80.5303 40.528C80.5303 41.1067 80.6376 41.592 80.8523 41.984C81.067 42.376 81.3423 42.67 81.6783 42.866C82.0236 43.062 82.3923 43.16 82.7843 43.16ZM87.9055 44V37.056H88.9695L89.0675 38.386C89.2821 37.9287 89.6088 37.5647 90.0475 37.294C90.4861 37.0233 91.0275 36.888 91.6715 36.888V38.12H91.3495C90.9388 38.12 90.5608 38.1947 90.2155 38.344C89.8701 38.484 89.5948 38.7267 89.3895 39.072C89.1841 39.4173 89.0815 39.8933 89.0815 40.5V44H87.9055ZM92.9914 44V37.056H94.0554L94.1394 38.064C94.3634 37.6907 94.6621 37.4013 95.0354 37.196C95.4087 36.9907 95.8287 36.888 96.2954 36.888C96.8461 36.888 97.3174 37 97.7094 37.224C98.1107 37.448 98.4187 37.7887 98.6334 38.246C98.8761 37.826 99.2074 37.4947 99.6274 37.252C100.057 37.0093 100.519 36.888 101.013 36.888C101.844 36.888 102.507 37.14 103.001 37.644C103.496 38.1387 103.743 38.904 103.743 39.94V44H102.581V40.066C102.581 39.3473 102.437 38.806 102.147 38.442C101.858 38.078 101.443 37.896 100.901 37.896C100.341 37.896 99.8747 38.1153 99.5014 38.554C99.1374 38.9833 98.9554 39.5993 98.9554 40.402V44H97.7794V40.066C97.7794 39.3473 97.6347 38.806 97.3454 38.442C97.0561 38.078 96.6407 37.896 96.0994 37.896C95.5487 37.896 95.0867 38.1153 94.7134 38.554C94.3494 38.9833 94.1674 39.5993 94.1674 40.402V44H92.9914ZM107.825 44.168C107.246 44.168 106.765 44.07 106.383 43.874C106 43.678 105.715 43.4167 105.529 43.09C105.342 42.7633 105.249 42.4087 105.249 42.026C105.249 41.3167 105.519 40.7707 106.061 40.388C106.602 40.0053 107.339 39.814 108.273 39.814H110.149V39.73C110.149 39.1233 109.99 38.666 109.673 38.358C109.355 38.0407 108.931 37.882 108.399 37.882C107.941 37.882 107.545 37.9987 107.209 38.232C106.882 38.456 106.677 38.7873 106.593 39.226H105.389C105.435 38.722 105.603 38.2973 105.893 37.952C106.191 37.6067 106.56 37.3453 106.999 37.168C107.437 36.9813 107.904 36.888 108.399 36.888C109.369 36.888 110.097 37.1493 110.583 37.672C111.077 38.1853 111.325 38.8713 111.325 39.73V44H110.275L110.205 42.754C110.009 43.146 109.719 43.482 109.337 43.762C108.963 44.0327 108.459 44.168 107.825 44.168ZM108.007 43.174C108.455 43.174 108.837 43.0573 109.155 42.824C109.481 42.5907 109.729 42.2873 109.897 41.914C110.065 41.5407 110.149 41.1487 110.149 40.738V40.724H108.371C107.68 40.724 107.19 40.8453 106.901 41.088C106.621 41.3213 106.481 41.6153 106.481 41.97C106.481 42.334 106.611 42.628 106.873 42.852C107.143 43.0667 107.521 43.174 108.007 43.174ZM115.642 44C115.007 44 114.508 43.846 114.144 43.538C113.78 43.23 113.598 42.6747 113.598 41.872V38.05H112.394V37.056H113.598L113.752 35.39H114.774V37.056H116.818V38.05H114.774V41.872C114.774 42.3107 114.862 42.6093 115.04 42.768C115.217 42.9173 115.53 42.992 115.978 42.992H116.706V44H115.642ZM119.026 35.516C118.792 35.516 118.596 35.4413 118.438 35.292C118.288 35.1333 118.214 34.9373 118.214 34.704C118.214 34.48 118.288 34.2933 118.438 34.144C118.596 33.9947 118.792 33.92 119.026 33.92C119.25 33.92 119.441 33.9947 119.6 34.144C119.758 34.2933 119.838 34.48 119.838 34.704C119.838 34.9373 119.758 35.1333 119.6 35.292C119.441 35.4413 119.25 35.516 119.026 35.516ZM118.438 44V37.056H119.614V44H118.438ZM124.825 44.168C124.172 44.168 123.584 44.0187 123.061 43.72C122.539 43.4213 122.123 43.0013 121.815 42.46C121.517 41.9093 121.367 41.2653 121.367 40.528C121.367 39.7907 121.521 39.1513 121.829 38.61C122.137 38.0593 122.553 37.6347 123.075 37.336C123.607 37.0373 124.2 36.888 124.853 36.888C125.507 36.888 126.095 37.0373 126.617 37.336C127.14 37.6347 127.551 38.0593 127.849 38.61C128.157 39.1513 128.311 39.7907 128.311 40.528C128.311 41.2653 128.157 41.9093 127.849 42.46C127.541 43.0013 127.121 43.4213 126.589 43.72C126.067 44.0187 125.479 44.168 124.825 44.168ZM124.825 43.16C125.227 43.16 125.6 43.062 125.945 42.866C126.291 42.67 126.571 42.376 126.785 41.984C127 41.592 127.107 41.1067 127.107 40.528C127.107 39.9493 127 39.464 126.785 39.072C126.58 38.68 126.305 38.386 125.959 38.19C125.614 37.994 125.245 37.896 124.853 37.896C124.452 37.896 124.079 37.994 123.733 38.19C123.388 38.386 123.108 38.68 122.893 39.072C122.679 39.464 122.571 39.9493 122.571 40.528C122.571 41.1067 122.679 41.592 122.893 41.984C123.108 42.376 123.383 42.67 123.719 42.866C124.065 43.062 124.433 43.16 124.825 43.16ZM129.946 44V37.056H131.01L131.08 38.302C131.304 37.8633 131.626 37.518 132.046 37.266C132.466 37.014 132.942 36.888 133.474 36.888C134.296 36.888 134.949 37.14 135.434 37.644C135.929 38.1387 136.176 38.904 136.176 39.94V44H135V40.066C135 38.6193 134.403 37.896 133.208 37.896C132.611 37.896 132.112 38.1153 131.71 38.554C131.318 38.9833 131.122 39.5993 131.122 40.402V44H129.946ZM141.733 44V34.2H142.909V38.638L146.997 34.2H148.481L144.841 38.106L148.537 44H147.109L144.001 39.016L142.909 40.178V44H141.733ZM149.812 44V37.056H150.876L150.946 38.302C151.17 37.8633 151.492 37.518 151.912 37.266C152.332 37.014 152.808 36.888 153.34 36.888C154.161 36.888 154.814 37.14 155.3 37.644C155.794 38.1387 156.042 38.904 156.042 39.94V44H154.866V40.066C154.866 38.6193 154.268 37.896 153.074 37.896C152.476 37.896 151.977 38.1153 151.576 38.554C151.184 38.9833 150.988 39.5993 150.988 40.402V44H149.812ZM160.987 44.168C160.334 44.168 159.746 44.0187 159.223 43.72C158.701 43.4213 158.285 43.0013 157.977 42.46C157.679 41.9093 157.529 41.2653 157.529 40.528C157.529 39.7907 157.683 39.1513 157.991 38.61C158.299 38.0593 158.715 37.6347 159.237 37.336C159.769 37.0373 160.362 36.888 161.015 36.888C161.669 36.888 162.257 37.0373 162.779 37.336C163.302 37.6347 163.713 38.0593 164.011 38.61C164.319 39.1513 164.473 39.7907 164.473 40.528C164.473 41.2653 164.319 41.9093 164.011 42.46C163.703 43.0013 163.283 43.4213 162.751 43.72C162.229 44.0187 161.641 44.168 160.987 44.168ZM160.987 43.16C161.389 43.16 161.762 43.062 162.107 42.866C162.453 42.67 162.733 42.376 162.947 41.984C163.162 41.592 163.269 41.1067 163.269 40.528C163.269 39.9493 163.162 39.464 162.947 39.072C162.742 38.68 162.467 38.386 162.121 38.19C161.776 37.994 161.407 37.896 161.015 37.896C160.614 37.896 160.241 37.994 159.895 38.19C159.55 38.386 159.27 38.68 159.055 39.072C158.841 39.464 158.733 39.9493 158.733 40.528C158.733 41.1067 158.841 41.592 159.055 41.984C159.27 42.376 159.545 42.67 159.881 42.866C160.227 43.062 160.595 43.16 160.987 43.16ZM167.249 44L165.219 37.056H166.395L167.865 42.502L169.489 37.056H170.819L172.457 42.502L173.913 37.056H175.103L173.073 44H171.869L170.161 38.274L168.453 44H167.249ZM176.404 44V33.92H177.58V44H176.404ZM182.629 44.168C181.966 44.168 181.378 44.0187 180.865 43.72C180.352 43.412 179.946 42.9873 179.647 42.446C179.358 41.9047 179.213 41.2653 179.213 40.528C179.213 39.8 179.358 39.1653 179.647 38.624C179.936 38.0733 180.338 37.6487 180.851 37.35C181.374 37.042 181.976 36.888 182.657 36.888C183.329 36.888 183.908 37.042 184.393 37.35C184.888 37.6487 185.266 38.0453 185.527 38.54C185.788 39.0347 185.919 39.5667 185.919 40.136C185.919 40.2387 185.914 40.3413 185.905 40.444C185.905 40.5467 185.905 40.6633 185.905 40.794H180.375C180.403 41.326 180.524 41.7693 180.739 42.124C180.963 42.4693 181.238 42.7307 181.565 42.908C181.901 43.0853 182.256 43.174 182.629 43.174C183.114 43.174 183.52 43.062 183.847 42.838C184.174 42.614 184.412 42.3107 184.561 41.928H185.723C185.536 42.572 185.177 43.1087 184.645 43.538C184.122 43.958 183.45 44.168 182.629 44.168ZM182.629 37.882C182.069 37.882 181.57 38.0547 181.131 38.4C180.702 38.736 180.454 39.2307 180.389 39.884H184.757C184.729 39.2587 184.514 38.7687 184.113 38.414C183.712 38.0593 183.217 37.882 182.629 37.882ZM190.628 44.168C189.937 44.168 189.33 44.0093 188.808 43.692C188.294 43.3747 187.893 42.9407 187.604 42.39C187.324 41.8393 187.184 41.214 187.184 40.514C187.184 39.814 187.328 39.1933 187.618 38.652C187.907 38.1013 188.308 37.672 188.822 37.364C189.335 37.0467 189.942 36.888 190.642 36.888C191.211 36.888 191.715 37.0047 192.154 37.238C192.592 37.4713 192.933 37.798 193.176 38.218V33.92H194.352V44H193.288L193.176 42.852C192.952 43.188 192.63 43.4913 192.21 43.762C191.79 44.0327 191.262 44.168 190.628 44.168ZM190.754 43.146C191.22 43.146 191.631 43.0387 191.986 42.824C192.35 42.6 192.63 42.292 192.826 41.9C193.031 41.508 193.134 41.0507 193.134 40.528C193.134 40.0053 193.031 39.548 192.826 39.156C192.63 38.764 192.35 38.4607 191.986 38.246C191.631 38.022 191.22 37.91 190.754 37.91C190.296 37.91 189.886 38.022 189.522 38.246C189.167 38.4607 188.887 38.764 188.682 39.156C188.486 39.548 188.388 40.0053 188.388 40.528C188.388 41.0507 188.486 41.508 188.682 41.9C188.887 42.292 189.167 42.6 189.522 42.824C189.886 43.0387 190.296 43.146 190.754 43.146ZM199.013 41.816C198.621 41.816 198.261 41.7647 197.935 41.662L197.235 42.32C197.337 42.3947 197.463 42.46 197.613 42.516C197.771 42.5627 197.995 42.6093 198.285 42.656C198.574 42.6933 198.98 42.7353 199.503 42.782C200.436 42.8473 201.103 43.062 201.505 43.426C201.906 43.79 202.107 44.266 202.107 44.854C202.107 45.2553 201.995 45.638 201.771 46.002C201.556 46.366 201.22 46.6647 200.763 46.898C200.315 47.1313 199.736 47.248 199.027 47.248C198.401 47.248 197.846 47.164 197.361 46.996C196.875 46.8373 196.497 46.59 196.227 46.254C195.956 45.9273 195.821 45.512 195.821 45.008C195.821 44.7467 195.891 44.462 196.031 44.154C196.171 43.8553 196.432 43.5707 196.815 43.3C196.609 43.216 196.432 43.1273 196.283 43.034C196.143 42.9313 196.012 42.8193 195.891 42.698V42.376L197.081 41.2C196.53 40.7333 196.255 40.1173 196.255 39.352C196.255 38.8947 196.362 38.4793 196.577 38.106C196.791 37.7327 197.104 37.4387 197.515 37.224C197.925 37 198.425 36.888 199.013 36.888C199.414 36.888 199.778 36.944 200.105 37.056H202.667V37.938L201.365 37.994C201.635 38.386 201.771 38.8387 201.771 39.352C201.771 39.8093 201.659 40.2247 201.435 40.598C201.22 40.9713 200.907 41.27 200.497 41.494C200.095 41.7087 199.601 41.816 199.013 41.816ZM199.013 40.85C199.507 40.85 199.899 40.724 200.189 40.472C200.487 40.2107 200.637 39.8373 200.637 39.352C200.637 38.876 200.487 38.512 200.189 38.26C199.899 37.9987 199.507 37.868 199.013 37.868C198.509 37.868 198.107 37.9987 197.809 38.26C197.519 38.512 197.375 38.876 197.375 39.352C197.375 39.8373 197.519 40.2107 197.809 40.472C198.107 40.724 198.509 40.85 199.013 40.85ZM196.969 44.896C196.969 45.3627 197.165 45.708 197.557 45.932C197.949 46.1653 198.439 46.282 199.027 46.282C199.605 46.282 200.067 46.156 200.413 45.904C200.767 45.652 200.945 45.316 200.945 44.896C200.945 44.5973 200.823 44.336 200.581 44.112C200.338 43.8973 199.89 43.7713 199.237 43.734C198.723 43.6967 198.28 43.65 197.907 43.594C197.524 43.7993 197.272 44.0187 197.151 44.252C197.029 44.4947 196.969 44.7093 196.969 44.896ZM206.842 44.168C206.179 44.168 205.591 44.0187 205.078 43.72C204.565 43.412 204.159 42.9873 203.86 42.446C203.571 41.9047 203.426 41.2653 203.426 40.528C203.426 39.8 203.571 39.1653 203.86 38.624C204.149 38.0733 204.551 37.6487 205.064 37.35C205.587 37.042 206.189 36.888 206.87 36.888C207.542 36.888 208.121 37.042 208.606 37.35C209.101 37.6487 209.479 38.0453 209.74 38.54C210.001 39.0347 210.132 39.5667 210.132 40.136C210.132 40.2387 210.127 40.3413 210.118 40.444C210.118 40.5467 210.118 40.6633 210.118 40.794H204.588C204.616 41.326 204.737 41.7693 204.952 42.124C205.176 42.4693 205.451 42.7307 205.778 42.908C206.114 43.0853 206.469 43.174 206.842 43.174C207.327 43.174 207.733 43.062 208.06 42.838C208.387 42.614 208.625 42.3107 208.774 41.928H209.936C209.749 42.572 209.39 43.1087 208.858 43.538C208.335 43.958 207.663 44.168 206.842 44.168ZM206.842 37.882C206.282 37.882 205.783 38.0547 205.344 38.4C204.915 38.736 204.667 39.2307 204.602 39.884H208.97C208.942 39.2587 208.727 38.7687 208.326 38.414C207.925 38.0593 207.43 37.882 206.842 37.882ZM218.364 44.168C217.692 44.168 217.099 44.0467 216.586 43.804C216.082 43.552 215.685 43.2067 215.396 42.768C215.116 42.32 214.976 41.7927 214.976 41.186C214.976 40.5233 215.167 39.9353 215.55 39.422C215.942 38.8993 216.506 38.4887 217.244 38.19C216.926 37.8447 216.698 37.518 216.558 37.21C216.418 36.8927 216.348 36.552 216.348 36.188C216.348 35.5627 216.567 35.0493 217.006 34.648C217.454 34.2373 218.065 34.032 218.84 34.032C219.344 34.032 219.782 34.13 220.156 34.326C220.529 34.5127 220.818 34.774 221.024 35.11C221.229 35.446 221.322 35.8287 221.304 36.258H220.142C220.151 35.838 220.02 35.5207 219.75 35.306C219.488 35.0913 219.185 34.984 218.84 34.984C218.42 34.984 218.093 35.096 217.86 35.32C217.626 35.544 217.51 35.8287 217.51 36.174C217.51 36.4727 217.589 36.762 217.748 37.042C217.916 37.322 218.163 37.6347 218.49 37.98L221.584 41.102C221.854 40.71 222.148 40.2387 222.466 39.688L222.9 38.932H224.146L223.53 40.024C223.119 40.7613 222.727 41.3773 222.354 41.872L224.468 44H222.984L221.682 42.684C221.187 43.216 220.674 43.5987 220.142 43.832C219.61 44.056 219.017 44.168 218.364 44.168ZM216.152 41.144C216.152 41.7227 216.357 42.2033 216.768 42.586C217.178 42.9687 217.715 43.16 218.378 43.16C218.872 43.16 219.32 43.0667 219.722 42.88C220.132 42.684 220.534 42.3667 220.926 41.928L217.958 38.918C217.342 39.1607 216.884 39.4687 216.586 39.842C216.296 40.2153 216.152 40.6493 216.152 41.144ZM229.425 44V34.2H230.601L235.823 42.054V34.2H236.999V44H235.823L230.601 36.146V44H229.425ZM239.077 44V34.2H245.041V35.166H240.253V38.61H244.327V39.562H240.253V44H239.077ZM248.852 44V35.166H245.926V34.2H252.954V35.166H250.028V44H248.852Z" fill="#346751"/>
<path d="M24.0346 47.9653C35.0612 47.9653 43.9999 39.0265 43.9999 28C43.9999 16.9734 35.0612 8.03467 24.0346 8.03467C13.0081 8.03467 4.06934 16.9734 4.06934 28C4.06934 39.0265 13.0081 47.9653 24.0346 47.9653Z" stroke="#346751" stroke-width="1.77" stroke-miterlimit="10"/>
<path d="M26.4836 40.5678C24.4688 41.1989 22.6471 41.8365 21.0444 42.4394C15.0804 41.123 10.589 40.4875 8.26846 40.2859C8.14701 40.0928 7.98436 39.8825 7.87159 39.6829C7.30555 38.6767 6.53782 37.7311 6.29492 36.6467C13.1347 37.3031 19.8954 38.6161 26.4836 40.5678Z" fill="#346751"/>
<path d="M9.28516 41.2791C11.4691 41.5371 14.4901 41.9709 18.0511 42.6801C15.7349 43.6842 14.1843 44.4671 13.5489 44.7989C11.9663 43.836 10.5304 42.6506 9.28516 41.2791Z" fill="#346751"/>
<path d="M23.8911 47.7961C22.4075 47.8988 20.9169 47.8099 19.4561 47.5315C23.6265 45.417 31.1672 41.9145 39.5883 40.52C34.2836 47.3472 24.7174 47.9653 23.8911 47.7961Z" fill="#346751"/>
<path d="M41.2175 38.5269C41.083 38.8544 40.5538 39.2621 40.4042 39.5722C29.1897 41.2313 22.7768 44.7533 18.5586 47.2777C17.3593 46.844 15.8369 46.3148 14.6094 45.5557C17.7779 43.4954 27.6825 37.8004 42.1522 36.7117C41.9852 37.3905 41.4842 37.8806 41.2175 38.5269Z" fill="#346751"/>
<path d="M24.8913 33.604H23.178L22.6943 40.5613H25.3749L24.8913 33.604Z" fill="#346751"/>
<path d="M25.3754 40.5613H24.0352V33.604H24.9026L24.9547 34.3262L25.3754 40.5613Z" fill="#346751"/>
<path d="M24.0344 31.7822C16.6781 29.375 12.7744 35.9614 12.7744 35.9614C12.7744 35.9614 19.157 39.0713 24.0344 33.6625C28.9119 39.0692 35.288 35.9592 35.288 35.9592C35.288 35.9592 31.3843 29.3728 24.0344 31.7822Z" fill="#346751"/>
<path d="M35.2883 35.9592C35.2883 35.9592 29.6605 38.7005 24.937 34.5561C24.616 34.2764 24.3125 33.9773 24.0283 33.6604V31.7823C24.7011 31.5576 25.3951 31.4021 26.0995 31.3181C32.122 30.6046 35.2883 35.9592 35.2883 35.9592Z" fill="#346751"/>
<path d="M9.21387 28.1995C9.21387 28.1995 14.074 35.8204 24.0675 33.6647L24.5489 32.4675C18.3724 25.1004 9.21387 28.1995 9.21387 28.1995Z" fill="#346751"/>
<path d="M38.8562 28.1994C38.8562 28.1994 34.007 35.8052 24.0352 33.6733V31.8863C30.1878 25.276 38.8562 28.1994 38.8562 28.1994Z" fill="#346751"/>
<path d="M11.8225 19.7068C11.8225 19.7068 11.6186 30.3964 23.4035 33.064L24.7177 32.01C23.397 20.9386 11.8225 19.7068 11.8225 19.7068Z" fill="#346751"/>
<path d="M36.2469 19.7068C36.2469 19.7068 36.4508 30.3964 24.6659 33.064L23.3604 32.01C24.6724 20.9386 36.2469 19.7068 36.2469 19.7068Z" fill="#346751"/>
<path d="M24.0346 12.2224C24.0346 12.2224 15.3597 22.1205 23.0652 33.066H25.0041C32.7074 22.1205 24.0346 12.2224 24.0346 12.2224Z" fill="#346751"/>
</svg>
