<svg xmlns="http://www.w3.org/2000/svg" width="15.472" height="20.05" viewBox="0 0 15.472 20.05">
    <defs>
        <style>
            .cls-1{fill:#000}
        </style>
    </defs>
    <g id="Group_2767" transform="translate(0 -1)">
        <path id="Path_111" d="M7.9 107.531a7.656 7.656 0 0 1-7.571-6.2 7.569 7.569 0 0 1 3.121-7.859 1.013 1.013 0 0 1 1.032-.189A.985.985 0 0 1 4.713 95 5.993 5.993 0 0 0 3.3 96.331a5.649 5.649 0 0 0-1.137 3.982 5.761 5.761 0 1 0 8.959-5.293A.943.943 0 0 1 10.7 94a.929.929 0 0 1 .744-.763.966.966 0 0 1 .8.162 7.748 7.748 0 0 1 1.626 11.318 7.552 7.552 0 0 1-4.828 2.752 5.517 5.517 0 0 1-.57.062c-.186.008-.378 0-.572 0z" class="cls-1" transform="translate(-.176 -86.484)"/>
        <path id="Path_112" d="M61.556 3.418V11.976a.986.986 0 0 1-1.968.112v-.181V3.462c-.056-.02-.07.031-.094.055-.344.341-.684.685-1.028 1.026a.986.986 0 1 1-1.4-1.388q1.392-1.4 2.791-2.793a.978.978 0 0 1 1.44.006q1.392 1.39 2.78 2.783a.986.986 0 1 1-1.392 1.4c-.371-.37-.736-.738-1.129-1.133z" class="cls-1" transform="translate(-52.842 .951)"/>
    </g>
</svg>
