<svg xmlns="http://www.w3.org/2000/svg" id="settings" width="18" height="18" viewBox="0 0 18 18">
    <defs>
        <style>
            .cls-1{fill:#0f0f0f}
        </style>
    </defs>
    <g id="Group_5334">
        <g id="Group_5333">
            <path id="Path_4056" d="M18 10.488V7.512l-2.441-.481a6.808 6.808 0 0 0-.53-1.276l1.361-2.042-2.1-2.1-2.044 1.358a6.805 6.805 0 0 0-1.277-.53L10.488 0H7.512l-.481 2.441a6.808 6.808 0 0 0-1.277.53L3.712 1.609l-2.1 2.1 1.359 2.045a6.808 6.808 0 0 0-.53 1.276L0 7.512v2.977l2.441.481a6.809 6.809 0 0 0 .53 1.276l-1.362 2.042 2.1 2.1 2.042-1.361a6.807 6.807 0 0 0 1.277.53L7.512 18h2.977l.481-2.441a6.807 6.807 0 0 0 1.277-.53l2.042 1.361 2.1-2.1-1.361-2.042a6.808 6.808 0 0 0 .53-1.276zm-2.967 3.665l-.88.88-1.873-1.248a6.143 6.143 0 0 1-2.218.921l-.441 2.24H8.379l-.441-2.24a6.143 6.143 0 0 1-2.218-.921l-1.873 1.248-.88-.88 1.248-1.873a6.143 6.143 0 0 1-.921-2.218l-2.24-.441V8.379l2.239-.441a6.148 6.148 0 0 1 .922-2.218L2.967 3.847l.88-.88L5.72 4.215a6.143 6.143 0 0 1 2.218-.921l.441-2.24h1.242l.441 2.24a6.142 6.142 0 0 1 2.218.921l1.873-1.249.88.88-1.248 1.874a6.145 6.145 0 0 1 .921 2.218l2.24.441v1.242l-2.239.441a6.141 6.141 0 0 1-.921 2.218z" class="cls-1"/>
        </g>
    </g>
    <g id="Group_5336" transform="translate(5.309 5.309)">
        <g id="Group_5335">
            <path id="Path_4057" d="M154.691 151a3.691 3.691 0 1 0 3.691 3.691 3.7 3.7 0 0 0-3.691-3.691zm0 6.328a2.637 2.637 0 1 1 2.637-2.637 2.64 2.64 0 0 1-2.637 2.637z" class="cls-1" transform="translate(-151 -151)"/>
        </g>
    </g>
</svg>
