<svg xmlns="http://www.w3.org/2000/svg" width="17.698" height="18" viewBox="0 0 17.698 18">
    <defs>
        <style>
            .cls-1{fill:#0f0f0f}
        </style>
    </defs>
    <g id="shop" transform="translate(-1161.924 -536.636)">
        <g id="Group_5334" transform="translate(1161.924 536.636)">
            <g id="Group_5333">
                <g id="Path_4050" transform="translate(12.646 12.656)">
                    <path id="Path_4050-2" d="M1178.687 551h-2.411v3.917h2.411zm-.6 3.315h-1.2V551.6h1.205z" class="cls-1" transform="translate(-1176.165 -550.888)"/>
                    <path id="Path_4051" d="M1178.673 555.014h-2.411a.111.111 0 0 1-.111-.111v-3.917a.111.111 0 0 1 .111-.111h2.411a.111.111 0 0 1 .111.111v3.914a.111.111 0 0 1-.111.114zm-2.3-.222h2.188v-3.7h-2.188zm1.7-.38h-1.2a.111.111 0 0 1-.111-.111v-2.712a.111.111 0 0 1 .111-.111h1.205a.111.111 0 0 1 .078.032.112.112 0 0 1 .033.079v2.712a.111.111 0 0 1-.119.11zm-1.091-.222h.979v-2.49h-.983z" class="cls-1" transform="translate(-1176.151 -550.874)"/>
                </g>
                <g id="Path_4051-2" transform="translate(1.501 9.944)">
                    <path id="Path_4052" d="M1171.873 547.948h-7.232a.9.9 0 0 0-.9.9v5.725h9.039v-5.725a.9.9 0 0 0-.907-.9zm.3 6.027h-7.835v-3.918h7.835zm0-4.52h-7.835v-.6a.3.3 0 0 1 .3-.3h7.232a.3.3 0 0 1 .3.3z" class="cls-1" transform="translate(-1163.626 -547.837)"/>
                    <path id="Path_4053" d="M1172.762 554.675h-9.039a.111.111 0 0 1-.111-.111v-5.725a1.016 1.016 0 0 1 1.015-1.015h7.232a1.016 1.016 0 0 1 1.014 1.015v5.725a.111.111 0 0 1-.111.111zm-8.928-.222h8.817v-5.614a.794.794 0 0 0-.792-.793h-7.232a.794.794 0 0 0-.793.793zm8.326-.38h-7.835a.111.111 0 0 1-.111-.111v-3.917a.111.111 0 0 1 .111-.111h7.835a.111.111 0 0 1 .111.111v3.917a.111.111 0 0 1-.033.078.113.113 0 0 1-.077.032zm-7.724-.222h7.612v-3.7h-7.612zm7.724-4.3h-7.835a.111.111 0 0 1-.111-.111v-.6a.414.414 0 0 1 .412-.413h7.232a.414.414 0 0 1 .412.413v.6a.109.109 0 0 1-.033.078.113.113 0 0 1-.076.034zm-7.724-.222h7.612v-.492a.19.19 0 0 0-.19-.191h-7.232a.191.191 0 0 0-.19.191z" class="cls-1" transform="translate(-1163.612 -547.823)"/>
                </g>
                <g id="Path_4052-2">
                    <path id="Path_4054" d="M1179.5 540.878a.07.07 0 0 0-.01-.025c0-.008 0-.013-.007-.019l-1.469-2.644v-1.127a.3.3 0 0 0-.3-.3h-14.164a.3.3 0 0 0-.3.3v1.137l-1.178 2.653a.02.02 0 0 1 0 .011.291.291 0 0 0-.02.1v13.576h17.476v-13.565a.281.281 0 0 0-.028-.097zm-.793-.2h-3.489l-.7-2.109h3.022zm-4.007.6v3.022a1.206 1.206 0 0 1-1.205 1.205h-1.205a1.206 1.206 0 0 1-1.205-1.205v-3.013zm-3.616-.6v-2.108h2.8l.7 2.109zm-7.232-3.315h13.563v.6h-13.563zm3.131 3.315l.7-2.109h2.8v2.109zm3.5.6v2.712a1.512 1.512 0 0 1-1.51 1.507h-.6a1.511 1.511 0 0 1-1.5-1.507v-2.712zm-6.734-2.712h3.3l-.7 2.109h-3.538zm-1.1 2.712h3.616v2.591a1.63 1.63 0 0 1-1.627 1.628h-.483a1.512 1.512 0 0 1-1.507-1.507zm15.066 12.655h-3.615v-5.123h3.616zm0-5.725h-3.615v-.362a.542.542 0 0 1 .542-.542h2.531a.542.542 0 0 1 .542.542zm1.205 5.725h-.6v-6.086a1.145 1.145 0 0 0-1.145-1.145h-2.531a1.145 1.145 0 0 0-1.145 1.145v6.086h-10.848v-8.47a2.1 2.1 0 0 0 1.507.636h.482a2.229 2.229 0 0 0 1.9-1.075 2.11 2.11 0 0 0 1.835 1.072h.6a2.112 2.112 0 0 0 1.741-.921 1.809 1.809 0 0 0 1.573.921h1.205a1.808 1.808 0 0 0 1.573-.921 2.112 2.112 0 0 0 1.741.921h.61a2.106 2.106 0 0 0 1.507-.636zm0-9.943a1.512 1.512 0 0 1-1.5 1.507h-.6a1.512 1.512 0 0 1-1.507-1.507v-2.712h3.612z" class="cls-1" transform="translate(-1161.938 -536.65)"/>
                    <path id="Path_4055" d="M1179.511 554.636h-17.476a.111.111 0 0 1-.111-.111v-13.562a.464.464 0 0 1 .02-.129.1.1 0 0 1 .01-.036l1.168-2.632v-1.117a.413.413 0 0 1 .412-.413h14.166a.414.414 0 0 1 .413.413v1.1l1.455 2.619a.139.139 0 0 1 .019.052.4.4 0 0 1 .035.133v13.574a.111.111 0 0 1-.111.109zm-17.365-.222h17.254V540.96a.214.214 0 0 0-.016-.051.209.209 0 0 1-.007-.021l-.005-.013-1.47-2.644a.111.111 0 0 1-.013-.054v-1.126a.191.191 0 0 0-.19-.191h-14.163a.191.191 0 0 0-.19.191v1.141a.112.112 0 0 1-.01.044l-1.169 2.635a.278.278 0 0 0-.018.081zm17.45-13.55zm-.693 13.17h-.6a.111.111 0 0 1-.111-.111v-6.085a1.036 1.036 0 0 0-1.034-1.035h-2.531a1.036 1.036 0 0 0-1.034 1.035v6.085a.111.111 0 0 1-.111.111h-10.848a.111.111 0 0 1-.111-.111v-8.47a.112.112 0 0 1 .191-.077 2 2 0 0 0 1.427.6h.482a2.131 2.131 0 0 0 1.807-1.021.112.112 0 0 1 .192 0 2 2 0 0 0 1.738 1.016h.6a2 2 0 0 0 1.65-.873.123.123 0 0 1 .1-.049.112.112 0 0 1 .093.057 1.7 1.7 0 0 0 1.476.865h1.205a1.7 1.7 0 0 0 1.476-.865.11.11 0 0 1 .092-.057.118.118 0 0 1 .1.049 2 2 0 0 0 1.65.873h.61a2 2 0 0 0 1.427-.6.112.112 0 0 1 .191.078v8.472a.111.111 0 0 1-.13.112zm-.491-.222h.38v-8.109a2.228 2.228 0 0 1-1.4.5h-.61a2.221 2.221 0 0 1-1.733-.835 1.925 1.925 0 0 1-1.581.835h-1.205a1.924 1.924 0 0 1-1.581-.835 2.222 2.222 0 0 1-1.733.835h-.6a2.225 2.225 0 0 1-1.837-.978 2.358 2.358 0 0 1-1.9.98h-.482a2.229 2.229 0 0 1-1.4-.5v8.107h10.626v-5.974a1.258 1.258 0 0 1 1.256-1.257h2.531a1.258 1.258 0 0 1 1.256 1.257zm-.714.222h-3.615a.111.111 0 0 1-.111-.111V548.8a.111.111 0 0 1 .111-.111h3.616a.111.111 0 0 1 .111.111v5.122a.111.111 0 0 1-.11.111zm-3.5-.222h3.393v-4.9h-3.394zm3.5-5.5h-3.615a.111.111 0 0 1-.111-.111v-.362a.655.655 0 0 1 .653-.654h2.531a.655.655 0 0 1 .653.654v.362a.111.111 0 0 1-.109.108zm-3.5-.222h3.393v-.251a.432.432 0 0 0-.431-.432h-2.531a.432.432 0 0 0-.431.432zm3.208-2.489h-.6a1.626 1.626 0 0 1-1.618-1.618v-2.713a.111.111 0 0 1 .111-.111h3.611a.111.111 0 0 1 .111.111v2.712a1.628 1.628 0 0 1-1.621 1.618zm-2-4.22v2.6a1.4 1.4 0 0 0 1.4 1.4h.6a1.405 1.405 0 0 0 1.391-1.4v-2.6zm3.5 2.6zm-5.423 1.619h-1.205a1.318 1.318 0 0 1-1.316-1.316v-3.014a.111.111 0 0 1 .111-.111h3.616a.111.111 0 0 1 .111.111v3.014a1.319 1.319 0 0 1-1.321 1.316zm-2.3-4.22v2.9a1.1 1.1 0 0 0 1.094 1.094h1.205a1.1 1.1 0 0 0 1.094-1.094v-2.9zm-2.224 4.22h-.6a1.628 1.628 0 0 1-1.614-1.618v-2.713a.111.111 0 0 1 .111-.111h3.616a.111.111 0 0 1 .111.111v2.712a1.626 1.626 0 0 1-1.627 1.619zm-1.995-4.22v2.6a1.4 1.4 0 0 0 1.393 1.4h.6a1.4 1.4 0 0 0 1.4-1.4v-2.6zm-2.34 4.22h-.483a1.627 1.627 0 0 1-1.618-1.618v-2.713a.111.111 0 0 1 .111-.111h3.616a.111.111 0 0 1 .111.111v2.591a1.744 1.744 0 0 1-1.74 1.74zm-1.878-4.22v2.6a1.4 1.4 0 0 0 1.4 1.4h.483a1.522 1.522 0 0 0 1.516-1.517v-2.48zm15.949-.6h-3.495a.111.111 0 0 1-.106-.076l-.7-2.109a.111.111 0 0 1 .106-.147h3.022a.112.112 0 0 1 .1.058l1.17 2.109a.11.11 0 0 1-.1.165zm-3.409-.222h3.22l-1.047-1.887h-2.8zm-.716.222h-3.5a.111.111 0 0 1-.111-.111v-2.109a.111.111 0 0 1 .111-.111h2.8a.113.113 0 0 1 .106.076l.7 2.109a.11.11 0 0 1-.016.1.109.109 0 0 1-.093.042zm-3.387-.222h3.234l-.629-1.887h-2.6zm-.713.222h-3.5a.109.109 0 0 1-.09-.046.111.111 0 0 1-.016-.1l.7-2.109a.112.112 0 0 1 .106-.076h2.8a.111.111 0 0 1 .111.111v2.109a.111.111 0 0 1-.114.107zm-3.346-.222h3.235v-1.887h-2.605zm-.789.222h-3.538a.112.112 0 0 1-.093-.05.11.11 0 0 1-.008-.106l.938-2.109a.11.11 0 0 1 .1-.067h3.3a.112.112 0 0 1 .09.046.11.11 0 0 1 .015.1l-.7 2.109a.11.11 0 0 1-.107.073zm-3.367-.222h3.287l.628-1.887h-3.083zm14.436-2.49h-13.564a.11.11 0 0 1-.111-.111v-.6a.111.111 0 0 1 .111-.111h13.56a.111.111 0 0 1 .111.111v.6a.111.111 0 0 1-.111.107zm-13.452-.222h13.341v-.38h-13.341z" class="cls-1" transform="translate(-1161.924 -536.636)"/>
                </g>
            </g>
        </g>
    </g>
</svg>
