<svg xmlns="http://www.w3.org/2000/svg" width="18" height="18" viewBox="0 0 18 18">
    <defs>
        <style>
            .cls-1{fill:#0f0f0f}
        </style>
    </defs>
    <g id="shopping-bag" transform="translate(-.247)">
        <path id="Path_4045" d="M81.761 259.055a.528.528 0 0 0-.529.527v2.049a1.545 1.545 0 0 1-3.089 0v-2.049a.528.528 0 0 0-1.057 0v2.049a2.6 2.6 0 0 0 5.2 0v-2.049a.528.528 0 0 0-.525-.527z" class="cls-1" transform="translate(-74.137 -249.953)"/>
        <path id="Path_4046" d="M17.718 0H2.5a.528.528 0 0 0-.528.527v6.137H.775a.528.528 0 0 0-.528.527v10.282A.528.528 0 0 0 .775 18h9.552l7.392-.009a.528.528 0 0 0 .528-.527V.527A.528.528 0 0 0 17.718 0zm-.528 1.053v3.525h-2.8v-1.7a.529.529 0 0 0-1.057 0v1.7H6.89v-1.7a.529.529 0 0 0-1.057 0v1.7h-2.8V1.053zm-6.864 5.611H6.89V5.632h6.44v.952a3.329 3.329 0 0 1-.85 2.279 2.857 2.857 0 0 1-1.626.877V7.191a.528.528 0 0 0-.528-.527zm-7.3-1.033h2.8v1.033h-2.8zM1.3 7.717h8.5v9.229H1.3zm9.551 9.229v-6.141a3.911 3.911 0 0 0 2.4-1.229 4.377 4.377 0 0 0 1.13-2.993v-.951h2.8v11.306z" class="cls-1"/>
    </g>
</svg>
