<svg xmlns="http://www.w3.org/2000/svg" id="Group_17" width="16.192" height="15.4" viewBox="0 0 16.192 15.4">
    <defs>
        <style>
            .cls-1{fill:#0f0f0f}
        </style>
    </defs>
    <g id="Group_15" transform="translate(3.464)">
        <path id="Path_36" d="M933.439 21.462a4.73 4.73 0 1 1 3.346-1.386 4.7 4.7 0 0 1-3.346 1.386zm0-8.254a3.523 3.523 0 1 0 3.523 3.523 3.527 3.527 0 0 0-3.523-3.523z" class="cls-1" transform="translate(-928.709 -12)"/>
    </g>
    <g id="Group_16" transform="translate(0 7.408)">
        <path id="Path_37" d="M941.592 25.764h-14.957a.6.6 0 0 1-.6-.54c-.33-3.144 2.7-5.984 2.827-6.1a.6.6 0 1 1 .821.887 10.139 10.139 0 0 0-1.355 1.634 6.1 6.1 0 0 0-1.1 2.916h13.745a5.987 5.987 0 0 0-.363-1.484 7.7 7.7 0 0 0-1.143-2 10.737 10.737 0 0 0-2.4-2.2.6.6 0 1 1 .683-1 11.858 11.858 0 0 1 2.7 2.5 8.8 8.8 0 0 1 1.317 2.348 6.222 6.222 0 0 1 .43 2.493.6.6 0 0 1-.605.546z" class="cls-1" transform="translate(-926.009 -17.773)"/>
    </g>
</svg>
