<svg xmlns="http://www.w3.org/2000/svg" width="16.899" height="15.725" viewBox="0 0 16.899 15.725">
    <defs>
        <style>
            .cls-1{fill:#0f0f0f}
        </style>
    </defs>
    <g id="wallet" transform="translate(-154.061 -397.256)">
        <g id="Group_5338" transform="translate(154.061 397.256)">
            <g id="Group_5337">
                <path id="Path_4058" d="M169.34 397.256h-11.825a1.622 1.622 0 0 0-1.616 1.623v.02h-.219a1.618 1.618 0 0 0-1.619 1.612v10.847a1.629 1.629 0 0 0 1.619 1.623h11.83a1.623 1.623 0 0 0 1.616-1.623v-.02h.219a1.619 1.619 0 0 0 1.616-1.612v-10.847a1.625 1.625 0 0 0-1.621-1.623zm-1.834 14.944H155.68a.845.845 0 0 1-.837-.845v-10.844a.836.836 0 0 1 .837-.829h11.83a.831.831 0 0 1 .834.828v3.176a1.032 1.032 0 0 1-.208.023h-2.253a2.228 2.228 0 0 0 0 4.456h2.253a1.652 1.652 0 0 0 .208-.02v3.212a.846.846 0 0 1-.838.843zm2.672-2.472a.837.837 0 0 1-.837.829h-.219v-2.692a2.152 2.152 0 0 0 .45-.411l.606-.782zm-1.22-2.746a1.057 1.057 0 0 1-.821.407h-2.253a1.448 1.448 0 0 1 0-2.894h2.253a1.787 1.787 0 0 0 .778-.176 1.83 1.83 0 0 0 .657-.532l.606-.782v2.39zm1.22-5.257l-1.056 1.361v-2.574a1.613 1.613 0 0 0-1.614-1.612h-10.826v-.02a.844.844 0 0 1 .834-.845h11.829a.845.845 0 0 1 .837.845v2.844z" class="cls-1" transform="translate(-154.061 -397.256)"/>
            </g>
        </g>
        <g id="Group_5340" transform="translate(165.44 405.548)">
            <g id="Group_5339">
                <path id="Path_4059" d="M167.493 406.089h-.939a.391.391 0 0 0 0 .782h.939a.391.391 0 0 0 .038-.782z" class="cls-1" transform="translate(-166.182 -406.088)"/>
            </g>
        </g>
    </g>
</svg>
