<?xml version="1.0" encoding="utf-8"?>
<!-- Generator: Adobe Illustrator 26.1.0, SVG Export Plug-In . SVG Version: 6.00 Build 0)  -->
<svg version="1.1" id="Layer_1" xmlns="http://www.w3.org/2000/svg" xmlns:xlink="http://www.w3.org/1999/xlink" x="0px" y="0px"
	 viewBox="0 0 16.9 15.7" style="enable-background:new 0 0 16.9 15.7;" xml:space="preserve">
<style type="text/css">
	.st0{fill:#FFFFFF;}
</style>
<g id="wallet" transform="translate(-154.061 -397.256)">
	<g id="Group_5338" transform="translate(154.061 397.256)">
		<g id="Group_5337">
			<path id="Path_4058" class="st0" d="M15.3,0H3.5C2.6,0,1.8,0.7,1.8,1.6v0H1.6C0.7,1.6,0,2.4,0,3.3v10.8c0,0.9,0.7,1.6,1.6,1.6
				h11.8c0.9,0,1.6-0.7,1.6-1.6v0h0.2c0.9,0,1.6-0.7,1.6-1.6V1.6C16.9,0.7,16.2,0,15.3,0z M13.4,14.9H1.6c-0.5,0-0.8-0.4-0.8-0.8
				V3.3c0-0.5,0.4-0.8,0.8-0.8h11.8c0.5,0,0.8,0.4,0.8,0.8l0,0l0,0v3.2c-0.1,0-0.1,0-0.2,0h-2.3c-1.2,0-2.2,1-2.2,2.2
				c0,1.2,1,2.2,2.2,2.2h2.3c0.1,0,0.1,0,0.2,0v3.2C14.3,14.6,13.9,14.9,13.4,14.9z M16.1,12.5c0,0.5-0.4,0.8-0.8,0.8h-0.2v-2.7
				c0.2-0.1,0.3-0.3,0.4-0.4l0.6-0.8V12.5z M14.9,9.7c-0.2,0.3-0.5,0.4-0.8,0.4h-2.3c-0.8,0-1.4-0.7-1.4-1.5c0-0.8,0.6-1.4,1.4-1.4
				h2.3c0.3,0,0.5-0.1,0.8-0.2c0.3-0.1,0.5-0.3,0.7-0.5l0.6-0.8v2.4L14.9,9.7z M16.1,4.5l-1.1,1.4V3.3c0-0.9-0.7-1.6-1.6-1.6H2.6v0
				c0-0.5,0.4-0.8,0.8-0.8h11.8c0.5,0,0.8,0.4,0.8,0.8L16.1,4.5L16.1,4.5z"/>
		</g>
	</g>
	<g id="Group_5340" transform="translate(165.44 405.548)">
		<g id="Group_5339">
			<path id="Path_4059" class="st0" d="M1.3,0H0.4C0.2,0,0,0.2,0,0.4c0,0.2,0.2,0.4,0.4,0.4h0.9c0.2,0,0.4-0.2,0.4-0.4S1.6,0,1.3,0
				L1.3,0L1.3,0z"/>
		</g>
	</g>
</g>
</svg>
