<svg xmlns="http://www.w3.org/2000/svg" width="16.899" height="18" viewBox="0 0 16.899 18">
  <defs>
    <style>
      .cls-1 {
        fill: #909090;
      }
    </style>
  </defs>
  <g id="Group_5332" data-name="Group 5332" transform="translate(-1234.12 -1146.997)">
    <path id="Path_4047" data-name="Path 4047" class="cls-1" d="M1250.753,1150.9l-7.985-3.854a.461.461,0,0,0-.4,0l-7.983,3.854a.466.466,0,0,0-.262.418v9.363a.465.465,0,0,0,.262.417l7.986,3.855a.46.46,0,0,0,.4,0l7.985-3.855a.466.466,0,0,0,.262-.418v-9.364A.466.466,0,0,0,1250.753,1150.9Zm-7.722,4.56,1.666-.8a.463.463,0,1,0-.4-.834l-1.725.836-.625-.3a.463.463,0,0,0-.4.835l.564.273v8.337l-7.059-3.407v-8.337l5.394,2.6a.464.464,0,1,0,.4-.835l-5.194-2.508,2.085-1,7.533,3.637v2.967a.463.463,0,0,0,.664.417l1.927-.93a.465.465,0,0,0,.263-.417V1153l1.963-.945v8.333l-7.053,3.405Zm2.688-2.327-6.907-3.331,1.037-.505,6.909,3.335Zm2.1-1.012-6.92-3.341,1.664-.8,6.92,3.34Zm-1.626,4.056v-2.242l1-.484v2.243Z" transform="translate(0)"/>
    <path id="Path_4048" data-name="Path 4048" class="cls-1" d="M1246.621,1261.609h0l-1.172-.565a.464.464,0,1,0-.4.835l1.172.565a.463.463,0,0,0,.4-.835Z" transform="translate(-9.567 -102.277)"/>
    <path id="Path_4049" data-name="Path 4049" class="cls-1" d="M1247.724,1250.24h0l-2.249-1.086a.463.463,0,1,0-.4.835l2.249,1.086a.464.464,0,0,0,.4-.835Z" transform="translate(-9.591 -91.61)"/>
  </g>
</svg>
