<svg width="15" height="15" viewBox="0 0 15 15" fill="none" xmlns="http://www.w3.org/2000/svg">
<path d="M7.5 0C3.36451 0 0 3.36451 0 7.5C0 11.6355 3.36451 15 7.5 15C11.6355 15 15 11.6355 15 7.5C15 3.36451 11.6355 0 7.5 0ZM7.5 14.5C3.64025 14.5 0.50001 11.3597 0.50001 7.5C0.50001 3.64025 3.64025 0.50001 7.5 0.50001C11.3597 0.50001 14.5 3.64025 14.5 7.5C14.5 11.3597 11.3597 14.5 7.5 14.5Z" fill="black"/>
<path d="M14.4515 9.75448C13.3025 9.03574 12.5 6.87498 12.5 4.49997C12.5 3.73573 12.5788 2.99473 12.7343 2.29773C12.7643 2.16299 12.6793 2.02922 12.5445 1.99922C12.4092 1.96972 12.276 2.05421 12.246 2.18898C12.0828 2.92172 12 3.69923 12 4.49997C12 7.07848 12.8788 9.36047 14.1865 10.1782C14.2278 10.204 14.2735 10.2162 14.3188 10.2162C14.402 10.2162 14.4835 10.1747 14.531 10.099C14.604 9.98197 14.5685 9.82746 14.4515 9.75448Z" fill="black"/>
<path d="M5.63801 0.286978C5.58677 0.266734 5.53052 0.263218 5.47726 0.278218C2.25249 1.17974 0 4.14948 0 7.49999C0 11.6355 3.36451 15 7.5 15C8.73349 15 9.95751 14.6932 11.0397 14.1127C11.1055 14.0775 11.152 14.0145 11.1667 13.9415L11.247 13.5392L11.2522 13.5065C11.374 12.7415 11.5 11.9507 11.5 11.125C11.5 6.05348 9.14426 1.69797 5.63801 0.286978ZM10.7585 13.4277L10.6998 13.7267C9.71578 14.233 8.61202 14.5 7.50003 14.5C3.64025 14.5 0.50001 11.3597 0.50001 7.49999C0.50001 4.40123 2.564 1.65148 5.53002 0.782974C8.80526 2.15249 11 6.29398 11 11.125C11 11.9112 10.8773 12.6823 10.7585 13.4277Z" fill="black"/>
<path d="M5.83045 13.0135C5.3602 12.853 4.88794 12.6168 4.3862 12.2905C4.27021 12.2153 4.11544 12.248 4.0402 12.3638C3.96497 12.4795 3.99769 12.6343 4.11344 12.7095C4.65046 13.0585 5.1592 13.3128 5.6692 13.4865C5.69594 13.4955 5.72319 13.5 5.74994 13.5C5.85394 13.5 5.95118 13.4345 5.98645 13.331C6.03095 13.2003 5.9612 13.058 5.83045 13.0135Z" fill="black"/>
<path d="M3.19496 11.3435C3.13646 11.2708 3.07247 11.1943 3.0062 11.1155C2.8117 10.8838 2.59095 10.6213 2.47321 10.3873C2.41095 10.264 2.26072 10.214 2.13747 10.2765C2.01421 10.3388 1.96447 10.489 2.02672 10.6123C2.17072 10.8983 2.41122 11.1845 2.62347 11.4373C2.68722 11.513 2.74898 11.5865 2.80496 11.6563C2.85448 11.718 2.92696 11.75 3.00023 11.75C3.05498 11.75 3.11024 11.732 3.15647 11.695C3.26422 11.6085 3.28148 11.4512 3.19496 11.3435Z" fill="black"/>
<path d="M14.5 5.3535C7.18123 5.29525 2.86471 7.74825 0.531215 9.82499C0.428207 9.91675 0.418979 10.0747 0.510707 10.178C0.559955 10.2335 0.628715 10.2617 0.697446 10.2617C0.756449 10.2617 0.815951 10.2407 0.863442 10.1985C3.1312 8.18023 7.34045 5.79424 14.4952 5.85351C14.4962 5.85351 14.4969 5.85351 14.4977 5.85351C14.6347 5.85351 14.7464 5.743 14.7477 5.60574C14.749 5.46775 14.638 5.35476 14.5 5.3535Z" fill="black"/>
<path d="M2.27521 2.49997C2.19895 2.49997 2.12321 2.49671 2.04745 2.49296C1.9087 2.49047 1.79245 2.59295 1.78595 2.73097C1.77921 2.86873 1.8857 2.98597 2.02369 2.99248C2.10719 2.99649 2.19095 2.99998 2.27521 2.99998C5.5837 2.99998 8.27521 6.19623 8.27521 10.125C8.27521 11.8745 7.85046 13.423 7.04696 14.603C6.96921 14.7172 6.99871 14.8727 7.11297 14.9505C7.15598 14.9797 7.20496 14.9937 7.25348 14.9937C7.33349 14.9937 7.41197 14.9554 7.46049 14.8845C8.3205 13.621 8.77524 11.9752 8.77524 10.1249C8.77521 5.92046 5.85921 2.49997 2.27521 2.49997Z" fill="black"/>
</svg>
