<svg width="15" height="15" viewBox="0 0 15 15" fill="none" xmlns="http://www.w3.org/2000/svg">
<g clip-path="url(#clip0_287_4441)">
<path d="M7.50005 6.74493C6.10637 6.74493 4.97253 7.87877 4.97253 9.27244C4.97253 10.6661 6.10637 11.8 7.50005 11.8C8.89372 11.8 10.0276 10.6661 10.0276 9.27244C10.0276 7.87877 8.89372 6.74493 7.50005 6.74493V6.74493ZM7.50005 11.3605C6.34866 11.3605 5.41198 10.4238 5.41198 9.27247C5.41198 8.12111 6.34869 7.18441 7.50005 7.18441C8.6514 7.18441 9.58811 8.12111 9.58811 9.27247C9.58811 10.4238 8.65143 11.3605 7.50005 11.3605V11.3605Z" fill="black"/>
<path d="M7.49999 7.89886C6.74254 7.89886 6.12634 8.51507 6.12634 9.27251C6.12634 10.0299 6.74254 10.6461 7.49999 10.6461C8.25743 10.6461 8.87363 10.0299 8.87363 9.27251C8.87363 8.51507 8.2574 7.89886 7.49999 7.89886ZM7.49999 10.2067C6.98489 10.2067 6.5658 9.7876 6.5658 9.27248C6.5658 8.75735 6.98489 8.33829 7.49999 8.33829C8.01508 8.33829 8.43418 8.75735 8.43418 9.27248C8.43418 9.7876 8.01508 10.2067 7.49999 10.2067Z" fill="black"/>
<path d="M13.793 5.84059C14.0229 5.84059 14.2099 5.65359 14.2099 5.42373V4.90518C14.2099 4.67528 14.0228 4.48828 13.793 4.48828H11.8317C11.6018 4.48828 11.4148 4.67528 11.4148 4.90518V5.42373C11.4148 5.65359 11.6018 5.84059 11.8317 5.84059H13.793ZM11.8542 4.92771H13.7704V5.40114H11.8542V4.92771Z" fill="black"/>
<path d="M1.28933 4.48828C1.05944 4.48828 0.872437 4.67528 0.872437 4.90518V5.42373C0.872437 5.65359 1.05947 5.84059 1.28933 5.84059H1.83367C2.06353 5.84059 2.25053 5.65359 2.25053 5.42373V4.90518C2.25053 4.67528 2.0635 4.48828 1.83367 4.48828H1.28933ZM1.81108 5.40117H1.31186V4.92773H1.81108V5.40117Z" fill="black"/>
<path d="M2.91223 4.9447C2.79085 4.9447 2.6925 5.04308 2.6925 5.16443C2.6925 5.28578 2.79085 5.38416 2.91223 5.38416H4.72041C4.84178 5.38416 4.94013 5.28578 4.94013 5.16443C4.94013 5.04308 4.84178 4.9447 4.72041 4.9447H2.91223Z" fill="black"/>
<path d="M14.3996 3.74717H13.833V3.34302C13.833 3.01197 13.5637 2.74261 13.2326 2.74261H11.3716C11.0405 2.74261 10.7712 3.01194 10.7712 3.34302V3.74717H8.01272C7.89134 3.74717 7.79299 3.84554 7.79299 3.96689C7.79299 4.08824 7.89134 4.18662 8.01272 4.18662H14.3997C14.4884 4.18662 14.5606 4.2588 14.5606 4.34757V6.14223H9.02C8.55992 5.91819 8.04773 5.79327 7.5 5.79327C6.9801 5.79327 6.46445 5.9063 5.98 6.14223H0.43945V4.34757C0.43945 4.25883 0.511637 4.18662 0.600376 4.18662H6.98731C7.10868 4.18662 7.20703 4.08824 7.20703 3.96689C7.20703 3.84554 7.10868 3.74717 6.98731 3.74717H5.99878V2.71387C5.99878 2.45715 5.78992 2.24829 5.5332 2.24829H4.85117C4.59445 2.24829 4.38559 2.45715 4.38559 2.71387V3.7472H3.83974V3.34302C3.83974 3.01197 3.57041 2.74261 3.23933 2.74261H2.15093C1.81988 2.74261 1.55055 3.01194 1.55055 3.34302V3.74717H0.600376C0.269324 3.74717 0 4.01652 0 4.34757V12.1513C0 12.4823 0.269324 12.7517 0.600376 12.7517H14.3996C14.7307 12.7517 15 12.4823 15 12.1513C15 11.8022 15 9.82921 15 9.5361C15 9.41475 14.9017 9.31637 14.7803 9.31637C14.6589 9.31637 14.5605 9.41475 14.5605 9.5361V11.3581H10.283C10.7403 10.749 10.9845 10.0117 10.9789 9.24908C10.9723 8.22308 10.5193 7.24483 9.70774 6.58165H14.5606V8.51068C14.5606 8.63203 14.6589 8.73041 14.7803 8.73041C14.9017 8.73041 15 8.63203 15 8.51068C15 8.4387 15 4.463 15 4.34754C15 4.01652 14.7307 3.74717 14.3996 3.74717V3.74717ZM13.3935 3.74717H11.2106V3.34302C11.2106 3.25428 11.2828 3.18206 11.3716 3.18206H13.2326C13.3213 3.18206 13.3935 3.25425 13.3935 3.34302V3.74717H13.3935ZM4.82504 2.71387C4.82504 2.69996 4.83726 2.68774 4.85117 2.68774H5.5332C5.54711 2.68774 5.55933 2.69996 5.55933 2.71387V3.7472H4.82507V2.71387H4.82504ZM1.99 3.34302C1.99 3.25428 2.06219 3.18206 2.15093 3.18206H3.23933C3.32807 3.18206 3.40029 3.25425 3.40029 3.34302V3.74717H1.99V3.34302ZM0.43945 6.58167H5.29229C4.49994 7.2291 4.02082 8.20527 4.02082 9.27248C4.02082 10.0249 4.26275 10.7527 4.71696 11.3581H0.43945V6.58167ZM0.600376 12.3122C0.511637 12.3122 0.43945 12.24 0.43945 12.1513V11.7975H5.10649C5.31951 11.9997 5.55385 12.172 5.80425 12.3122H0.600376V12.3122ZM14.5605 11.7975V12.1513C14.5605 12.24 14.4884 12.3122 14.3996 12.3122H9.19575C9.44618 12.172 9.68049 11.9998 9.89351 11.7976H14.5605V11.7975ZM10.5396 9.26627C10.5396 9.26832 10.5397 9.2704 10.5397 9.27245C10.5397 10.9485 9.17624 12.3122 7.5 12.3122C5.82511 12.3122 4.46024 10.9497 4.46024 9.27245C4.46024 7.5961 5.82426 6.23272 7.5 6.23272C9.16332 6.23272 10.5364 7.58268 10.5396 9.26627Z" fill="black"/>
</g>
<defs>
<clipPath id="clip0_287_4441">
<rect width="15" height="15" fill="white"/>
</clipPath>
</defs>
</svg>
