<svg width="15" height="15" viewBox="0 0 15 15" fill="none" xmlns="http://www.w3.org/2000/svg">
<g clip-path="url(#clip0_287_4552)">
<path d="M6.22449 6.75491H7.22451V7.25503H6.22449V6.75491Z" fill="black"/>
<path d="M14.7605 6.00738L13.0622 5.76485C12.7525 5.57461 12.4311 5.40431 12.0998 5.25487C11.0055 4.75923 9.81792 4.50347 8.61657 4.5048H8.32154C6.9038 4.50581 5.50875 4.86157 4.26354 5.53962L3.40645 6.00718C2.40316 6.01847 1.41921 6.28531 0.547566 6.78217C0.193334 6.98533 -0.0253906 7.36225 -0.026001 7.7705V9.25508C-0.026001 9.39323 0.0859046 9.50514 0.224057 9.50514H1.06355C1.3366 10.2841 2.18942 10.6943 2.96839 10.4212C3.39719 10.271 3.73423 9.93384 3.88449 9.50514H10.5642C10.8373 10.2841 11.6901 10.6943 12.4691 10.4212C12.8978 10.271 13.2349 9.93384 13.3852 9.50514H13.4749C13.5067 9.50514 13.5383 9.49914 13.5679 9.48734L14.3777 9.1624C14.7394 9.01916 14.9764 8.669 14.975 8.28008V6.2549C14.975 6.13058 14.8836 6.02508 14.7605 6.00738ZM3.45396 9.20513C3.34337 9.74624 2.81508 10.0953 2.27396 9.9847C1.73275 9.87412 1.3837 9.34583 1.49429 8.80461C1.60497 8.2635 2.13327 7.91445 2.67438 8.02504C3.14001 8.12016 3.4743 8.52983 3.4742 9.00513C3.4742 9.07227 3.46739 9.13931 3.45396 9.20513ZM7.97453 9.00513H3.97422C3.97422 8.17662 3.30268 7.50498 2.47417 7.50498C1.64566 7.50498 0.974028 8.17662 0.974028 9.00513H0.474013V7.7705C0.474319 7.5415 0.597008 7.33 0.795793 7.21627C1.61169 6.75043 2.53481 6.50526 3.4742 6.50495H7.97453V9.00513ZM7.97453 6.00494H4.4548L4.50302 5.97859C5.57192 5.3977 6.75924 5.06839 7.97453 5.0158V6.00494ZM8.47455 5.00481H8.61606C9.62362 5.00369 10.622 5.19495 11.5579 5.56841L11.1213 6.00494H8.47455V5.00481ZM12.9546 9.20513C12.8441 9.74624 12.3158 10.0953 11.7745 9.9847C11.2334 9.87412 10.8844 9.34583 10.995 8.80461C11.1055 8.2635 11.6339 7.91445 12.1751 8.02504C12.6407 8.12016 12.975 8.52983 12.9749 9.00513C12.9749 9.07227 12.9681 9.13931 12.9546 9.20513ZM14.475 6.75491H13.725V7.25503H14.475V8.28008C14.4756 8.46432 14.3633 8.63014 14.192 8.69779L13.4749 8.9858C13.4749 8.9628 13.4719 8.94002 13.4704 8.91702C13.4689 8.89403 13.4684 8.86707 13.4659 8.84205C13.4634 8.81702 13.4584 8.792 13.4544 8.76707C13.4504 8.74205 13.4474 8.71702 13.4424 8.69433C13.4375 8.67155 13.4301 8.64632 13.4236 8.62251C13.4171 8.59881 13.4121 8.5748 13.4046 8.5515C13.3972 8.52831 13.3881 8.50603 13.3797 8.48324C13.3711 8.46055 13.3634 8.43705 13.3546 8.41447C13.3459 8.39198 13.3341 8.37154 13.3236 8.35027C13.3131 8.32901 13.3029 8.30572 13.2912 8.28425C13.2794 8.26278 13.2661 8.24447 13.2548 8.22453C13.2437 8.20449 13.2299 8.1817 13.2157 8.16126C13.2013 8.14071 13.1881 8.12453 13.1744 8.10602C13.1606 8.0875 13.1451 8.06573 13.1291 8.0465C13.1131 8.02727 13.0982 8.01222 13.0826 7.99645C13.0672 7.98078 13.0499 7.95952 13.0327 7.94202C13.0154 7.92453 12.9984 7.91069 12.9812 7.89523C12.9639 7.87976 12.9454 7.86145 12.9264 7.84517C12.9074 7.829 12.8881 7.81649 12.8692 7.80224C12.8502 7.788 12.8311 7.77274 12.8112 7.75941C12.7912 7.74619 12.7687 7.73449 12.7472 7.72045C12.7256 7.70641 12.7081 7.69542 12.6879 7.68474C12.6676 7.67396 12.6424 7.66267 12.6194 7.65168C12.5964 7.64069 12.5784 7.63093 12.5572 7.62197C12.5359 7.61292 12.5071 7.60346 12.4822 7.59451C12.4572 7.58545 12.4409 7.57843 12.4196 7.57172C12.3911 7.56297 12.3619 7.55666 12.3328 7.54944C12.3138 7.54496 12.2956 7.53896 12.2764 7.53499C12.2457 7.52869 12.2141 7.52523 12.1829 7.52065C12.1644 7.51821 12.1467 7.51414 12.1282 7.51241C12.0781 7.50742 12.0282 7.50468 11.9757 7.50468C11.1475 7.50549 10.4763 8.17662 10.4755 9.00482H8.47465V6.50485H11.2248C11.2911 6.50485 11.3547 6.4785 11.4015 6.4316L12.0498 5.78327C12.322 5.91277 12.5866 6.05754 12.8424 6.21685C12.8719 6.23526 12.9049 6.24737 12.9394 6.25235L14.475 6.47159V6.75491Z" fill="black"/>
</g>
<defs>
<clipPath id="clip0_287_4552">
<rect width="15" height="15" fill="white"/>
</clipPath>
</defs>
</svg>
