<svg width="15" height="15" viewBox="0 0 15 15" fill="none" xmlns="http://www.w3.org/2000/svg">
<g clip-path="url(#clip0_287_4670)">
<path d="M14.9919 9.38739C14.9546 8.52796 14.8051 7.57513 14.5809 6.67834C14.3567 5.81891 14.0765 5.01554 13.7402 4.399C12.4324 2.10097 11.0124 2.45595 9.31227 2.90435C8.77046 3.03513 8.19128 3.18459 7.59342 3.24064H7.40659C6.80873 3.18459 6.22955 3.03513 5.68774 2.90435C3.98757 2.47463 2.56765 2.10097 1.25983 4.41768C0.923536 5.03422 0.624606 5.8376 0.419091 6.69702C0.194894 7.59381 0.0454287 8.54665 0.00806238 9.40607C-0.0293039 10.3589 0.0641118 11.0502 0.269626 11.5359C0.475141 11.9843 0.774071 12.2646 1.16642 12.3767C1.5214 12.4701 1.93243 12.4327 2.36214 12.2459C3.09078 11.947 3.93152 11.3117 4.75358 10.5457C5.33276 9.98525 6.41638 9.705 7.5 9.705C8.58362 9.705 9.66725 9.98525 10.2464 10.5457C11.0685 11.3117 11.9092 11.947 12.6379 12.2459C13.0676 12.4141 13.4786 12.4701 13.8336 12.3767C14.2072 12.2646 14.5249 12.003 14.7304 11.5173C14.9359 11.0502 15.0293 10.3589 14.9919 9.38739ZM14.0951 11.2557C13.9831 11.5173 13.8336 11.6667 13.6468 11.7228C13.4412 11.7788 13.1797 11.7415 12.8807 11.6294C12.2268 11.3678 11.4608 10.7886 10.7135 10.0787C10.0035 9.3687 8.75177 9.01373 7.5 9.01373C6.24823 9.01373 4.99646 9.3687 4.26782 10.0413C3.50181 10.7513 2.7358 11.3491 2.10057 11.592C1.80164 11.7041 1.54008 11.7601 1.33457 11.6854C1.14773 11.6294 0.998269 11.4799 0.88617 11.2183C0.736705 10.8634 0.661972 10.2842 0.699339 9.42475C0.736705 8.62138 0.867487 7.70591 1.09168 6.84648C1.2972 6.04311 1.55876 5.29578 1.87638 4.73529C2.90395 2.88566 4.09967 3.18459 5.51959 3.55826C6.09877 3.70772 6.69663 3.85719 7.35054 3.91323C7.36922 3.91323 7.36922 3.91323 7.3879 3.91323H7.59342C7.6121 3.91323 7.6121 3.91323 7.63078 3.91323C8.30338 3.85719 8.90124 3.70772 9.48041 3.55826C10.9003 3.20328 12.0961 2.88566 13.1236 4.73529C13.4412 5.29578 13.7028 6.02443 13.9083 6.84648C14.1138 7.70591 14.2633 8.6027 14.3007 9.42475C14.338 10.2842 14.2633 10.8634 14.0951 11.2557Z" fill="black"/>
<path d="M5.78122 5.74418C5.59439 5.57603 5.37019 5.44525 5.10863 5.42656C5.08995 5.18368 4.97785 4.9408 4.8097 4.77265L4.79101 4.75397C4.5855 4.54845 4.32394 4.43636 4.02501 4.43636C3.72608 4.43636 3.44583 4.56714 3.259 4.75397C3.09085 4.92212 2.96007 5.165 2.94138 5.42656C2.67982 5.44525 2.45562 5.55734 2.26879 5.72549L2.25011 5.74418C2.04459 5.94969 1.9325 6.21125 1.9325 6.51019C1.9325 6.80912 2.06328 7.08936 2.25011 7.27619C2.43694 7.46303 2.66114 7.57512 2.94138 7.59381C2.96007 7.85537 3.07217 8.09825 3.259 8.2664C3.46451 8.47192 3.72608 8.58402 4.02501 8.58402C4.32394 8.58402 4.60418 8.45323 4.79101 8.2664C4.95916 8.07957 5.08995 7.85537 5.10863 7.59381C5.37019 7.57512 5.61307 7.46303 5.78122 7.27619C5.98674 7.07068 6.09883 6.80912 6.09883 6.51019C6.09883 6.21125 5.96805 5.93101 5.78122 5.74418ZM5.31414 6.79043C5.23941 6.86517 5.14599 6.90253 5.0339 6.90253H4.77233C4.5855 6.90253 4.41735 7.052 4.41735 7.25751V7.50039C4.41735 7.61249 4.37999 7.70591 4.30525 7.78064C4.23052 7.85537 4.1371 7.89274 4.02501 7.89274C3.91291 7.89274 3.81949 7.85537 3.74476 7.78064C3.67003 7.70591 3.63266 7.61249 3.63266 7.50039V7.23883C3.63266 7.052 3.4832 6.88385 3.27768 6.88385H3.01612C2.90402 6.88385 2.8106 6.84648 2.73587 6.77175C2.67982 6.7157 2.62377 6.62228 2.62377 6.51019C2.62377 6.39809 2.66114 6.30467 2.73587 6.22994C2.73587 6.22994 2.73587 6.22994 2.75455 6.21126C2.82929 6.15521 2.9227 6.11784 3.01612 6.11784H3.27768C3.46451 6.11784 3.63266 5.96837 3.63266 5.76286V5.5013C3.63266 5.3892 3.67003 5.29578 3.74476 5.22105C3.81949 5.14632 3.91291 5.10895 4.02501 5.10895C4.1371 5.10895 4.23052 5.14632 4.30525 5.22105C4.30525 5.22105 4.30525 5.22105 4.32394 5.23973C4.37999 5.31446 4.41735 5.40788 4.41735 5.5013V5.76286C4.41735 5.94969 4.56682 6.11784 4.77233 6.11784H5.0339C5.14599 6.11784 5.23941 6.15521 5.31414 6.22994C5.38888 6.30467 5.42624 6.39809 5.42624 6.51019C5.42624 6.62228 5.38888 6.7157 5.31414 6.79043Z" fill="black"/>
<path d="M10.7508 5.83758C11.112 5.83758 11.4047 5.54482 11.4047 5.18368C11.4047 4.82253 11.112 4.52977 10.7508 4.52977C10.3897 4.52977 10.0969 4.82253 10.0969 5.18368C10.0969 5.54482 10.3897 5.83758 10.7508 5.83758Z" fill="black"/>
<path d="M10.7508 8.49061C11.112 8.49061 11.4047 8.19784 11.4047 7.8367C11.4047 7.47555 11.112 7.18279 10.7508 7.18279C10.3897 7.18279 10.0969 7.47555 10.0969 7.8367C10.0969 8.19784 10.3897 8.49061 10.7508 8.49061Z" fill="black"/>
<path d="M9.42441 7.16411C9.78555 7.16411 10.0783 6.87134 10.0783 6.5102C10.0783 6.14906 9.78555 5.85629 9.42441 5.85629C9.06327 5.85629 8.77051 6.14906 8.77051 6.5102C8.77051 6.87134 9.06327 7.16411 9.42441 7.16411Z" fill="black"/>
<path d="M12.0774 7.16411C12.4385 7.16411 12.7313 6.87134 12.7313 6.5102C12.7313 6.14906 12.4385 5.85629 12.0774 5.85629C11.7162 5.85629 11.4235 6.14906 11.4235 6.5102C11.4235 6.87134 11.7162 7.16411 12.0774 7.16411Z" fill="black"/>
</g>
<defs>
<clipPath id="clip0_287_4670">
<rect width="15" height="15" fill="white"/>
</clipPath>
</defs>
</svg>
