<svg width="15" height="15" viewBox="0 0 15 15" fill="none" xmlns="http://www.w3.org/2000/svg">
<path d="M4.35326 6.92229H4.18894V5.58986C4.18894 5.43194 4.06095 5.30391 3.90299 5.30391H3.87844V2.5779C3.87844 2.46963 3.81729 2.37061 3.72037 2.32216L1.50753 1.21543C1.41893 1.17113 1.31366 1.17582 1.22933 1.22794C1.14499 1.28002 1.09368 1.37206 1.09368 1.47118V5.30391H1.06912C0.911166 5.30391 0.783177 5.43194 0.783177 5.58986V6.92229H0.618587C0.460631 6.92229 0.332642 7.05031 0.332642 7.20823V14.7141C0.332642 14.872 0.460631 15 0.618587 15H4.35318C4.51114 15 4.63913 14.872 4.63913 14.7141V7.20823C4.63921 7.05031 4.51122 6.92229 4.35326 6.92229ZM1.66564 1.93392L3.30659 2.75462V5.30391H1.66564V1.93392V1.93392ZM1.35518 5.8758H3.61709V6.92229H1.35518V5.8758ZM4.06732 14.4281H0.904608V7.49418H4.06732V14.4281V14.4281Z" fill="black"/>
<path d="M14.3813 11.6008H5.09368C4.93573 11.6008 4.80774 11.7289 4.80774 11.8868C4.80774 12.0447 4.93573 12.1727 5.09368 12.1727H13.9264L13.861 12.3086C13.5018 13.055 12.7345 13.5373 11.9062 13.5373H5.09368C4.93573 13.5373 4.80774 13.6653 4.80774 13.8232C4.80774 13.9812 4.93573 14.1092 5.09368 14.1092H11.9062C12.9529 14.1092 13.9225 13.4998 14.3763 12.5566L14.639 12.0108C14.6816 11.9222 14.6758 11.8178 14.6234 11.7346C14.5711 11.6514 14.4797 11.6008 14.3813 11.6008Z" fill="black"/>
<path d="M4.43346 2.10261C5.49966 1.11553 6.88759 0.57189 8.34168 0.57189C11.5143 0.57189 14.0954 3.15302 14.0954 6.32564C14.0954 8.03609 13.3417 9.64665 12.0276 10.7443C11.9064 10.8456 11.8902 11.0259 11.9915 11.1471C12.048 11.2148 12.1292 11.2497 12.2111 11.2497C12.2757 11.2497 12.3408 11.2279 12.3942 11.1832C13.8389 9.97659 14.6674 8.20606 14.6674 6.3256C14.6673 2.83768 11.8296 0 8.34168 0C6.7431 0 5.21718 0.597702 4.04492 1.683C3.92905 1.79028 3.92208 1.97119 4.02936 2.0871C4.13661 2.20292 4.31752 2.2099 4.43346 2.10261Z" fill="black"/>
<path d="M8.34157 1.76122C10.8585 1.76122 12.9062 3.80889 12.9062 6.32582C12.9062 8.84275 10.8585 10.8904 8.34157 10.8904C7.21003 10.8904 6.12466 10.4734 5.28528 9.71625C5.16808 9.61049 4.98725 9.61976 4.88141 9.73703C4.77565 9.85427 4.78495 10.0351 4.90223 10.1409C5.84684 10.993 7.06828 11.4623 8.34157 11.4623C11.1738 11.4623 13.4781 9.15809 13.4781 6.32582C13.4781 3.49355 11.1738 1.18933 8.34157 1.18933C6.71493 1.18933 5.16747 1.97244 4.20216 3.28417C4.10852 3.41135 4.13578 3.59036 4.26297 3.68396C4.39016 3.77752 4.56909 3.75033 4.66276 3.62314C5.52075 2.45729 6.89603 1.76122 8.34157 1.76122Z" fill="black"/>
<path d="M11.4873 4.07313L6.26906 9.29137C6.15738 9.40304 6.15738 9.5841 6.26906 9.69573C6.32491 9.75155 6.39811 9.77949 6.47128 9.77949C6.54444 9.77949 6.61764 9.75159 6.6735 9.69573L11.8917 4.4775C12.0034 4.36583 12.0034 4.18477 11.8917 4.07313C11.78 3.96146 11.599 3.96146 11.4873 4.07313Z" fill="black"/>
<path d="M7.85804 9.32672C7.74637 9.43839 7.74637 9.61945 7.85804 9.73108C7.9139 9.7869 7.9871 9.81485 8.06026 9.81485C8.13343 9.81485 8.20663 9.78694 8.26248 9.73108L12.1803 5.81325C12.292 5.70158 12.292 5.52052 12.1803 5.40889C12.0686 5.29722 11.8876 5.29722 11.7759 5.40889L7.85804 9.32672Z" fill="black"/>
</svg>
