<svg width="15" height="15" viewBox="0 0 15 15" fill="none" xmlns="http://www.w3.org/2000/svg">
<g clip-path="url(#clip0_287_4689)">
<path d="M8.21323 3.92426L10.2621 1.81992C10.2965 1.78352 10.3168 1.73615 10.3196 1.68618C10.3224 1.63621 10.3074 1.58687 10.2774 1.54687L9.1055 0.0772266C9.08599 0.0535086 9.06156 0.0343166 9.0339 0.0209815C9.00624 0.00764635 8.97601 0.000487051 8.9453 0L6.05476 0C6.02405 0.000487051 5.99382 0.00764635 5.96616 0.0209815C5.9385 0.0343166 5.91407 0.0535086 5.89456 0.0772266L4.72269 1.54687C4.69265 1.58687 4.67772 1.6362 4.68053 1.68614C4.68334 1.73608 4.70371 1.78343 4.73804 1.8198L6.78683 3.92426C5.38536 4.10549 4.10545 4.81343 3.20708 5.90425C2.30872 6.99507 1.8593 8.38697 1.9501 9.79718C2.04091 11.2074 2.66513 12.5302 3.69597 13.4968C4.72681 14.4634 6.08695 15.0013 7.50009 15.0013C8.91322 15.0013 10.2734 14.4634 11.3042 13.4968C12.335 12.5302 12.9593 11.2074 13.0501 9.79718C13.1409 8.38697 12.6915 6.99507 11.7931 5.90425C10.8947 4.81343 9.61481 4.10549 8.21335 3.92426H8.21323ZM6.07034 0.513867L7.0103 1.46977H5.30862L6.07034 0.513867ZM9.69143 1.46977H7.98929L8.92971 0.513867L9.69143 1.46977ZM8.04682 1.87992L7.50003 3.45621L6.95323 1.87992H8.04682ZM8.48042 1.87992H9.63085L7.84433 3.71484L8.48042 1.87992ZM7.50003 1.38281L6.54401 0.410156H8.45604L7.50003 1.38281ZM6.51917 1.88039L7.15573 3.71484L5.36874 1.87992L6.51917 1.88039ZM7.50003 14.5898C6.48119 14.5898 5.48524 14.2877 4.63811 13.7217C3.79097 13.1557 3.13072 12.3511 2.74083 11.4098C2.35093 10.4686 2.24892 9.4328 2.44769 8.43354C2.64645 7.43428 3.13707 6.5164 3.85749 5.79598C4.57792 5.07555 5.4958 4.58493 6.49505 4.38617C7.49431 4.1874 8.53007 4.28942 9.47136 4.67931C10.4126 5.0692 11.2172 5.72946 11.7832 6.57659C12.3492 7.42372 12.6514 8.41968 12.6514 9.43852C12.6498 10.8043 12.1066 12.1136 11.1409 13.0793C10.1751 14.0451 8.86577 14.5883 7.50003 14.5898Z" fill="black"/>
<path d="M7.50004 4.78383C6.57946 4.78385 5.67956 5.05685 4.91414 5.56831C4.14872 6.07977 3.55215 6.80672 3.19987 7.65723C2.84759 8.50773 2.75542 9.4436 2.93503 10.3465C3.11463 11.2494 3.55793 12.0787 4.20888 12.7297C4.85982 13.3806 5.68918 13.8239 6.59206 14.0035C7.49495 14.1831 8.43082 14.091 9.28133 13.7387C10.1318 13.3864 10.8588 12.7898 11.3702 12.0244C11.8817 11.259 12.1547 10.3591 12.1547 9.43852C12.1533 8.20444 11.6625 7.02132 10.7899 6.1487C9.91724 5.27608 8.73411 4.78522 7.50004 4.78383ZM7.50004 13.6828C6.66058 13.6828 5.83997 13.4338 5.142 12.9674C4.44402 12.501 3.90002 11.8382 3.57879 11.0626C3.25756 10.287 3.17352 9.43361 3.33731 8.61028C3.50109 7.78696 3.90534 7.03068 4.49894 6.4371C5.09254 5.84352 5.84882 5.43929 6.67215 5.27553C7.49548 5.11177 8.34889 5.19583 9.12445 5.51708C9.90001 5.83834 10.5629 6.38235 11.0293 7.08034C11.4956 7.77833 11.7446 8.59894 11.7446 9.4384C11.7433 10.5637 11.2957 11.6426 10.5 12.4384C9.70427 13.2341 8.62538 13.6817 7.50004 13.6829V13.6828Z" fill="black"/>
</g>
<defs>
<clipPath id="clip0_287_4689">
<rect width="15" height="15" fill="white"/>
</clipPath>
</defs>
</svg>
