<svg width="15" height="15" viewBox="0 0 15 15" fill="none" xmlns="http://www.w3.org/2000/svg">
<g clip-path="url(#clip0_287_4740)">
<path d="M14.1765 11.8847C11.9138 9.62266 10.0794 6.41064 9.83582 5.97565V4.99329C9.83582 4.79771 9.87748 4.48014 9.95953 4.04938C9.98265 3.9283 9.90334 3.81146 9.78226 3.78857C9.6613 3.76545 9.54468 3.84476 9.52157 3.96584C9.45817 4.29703 9.41834 4.56276 9.40049 4.77036H5.63172C5.56569 4.01184 5.22282 2.6611 5.13756 2.33288C5.21927 2.14234 5.34688 2.01714 5.52586 1.95053C6.1015 1.7371 7.07814 2.17472 7.40578 2.36149C7.47422 2.4004 7.55833 2.4004 7.62665 2.36149C7.95464 2.17472 8.93139 1.73676 9.50726 1.95053C9.6859 2.01714 9.8135 2.14256 9.89556 2.33288C9.86226 2.46014 9.78913 2.74681 9.70948 3.08899C9.68155 3.20915 9.75617 3.32897 9.87599 3.3569C9.99604 3.38482 10.1159 3.31021 10.1438 3.19039C10.25 2.73491 10.3439 2.38014 10.3451 2.3766C10.3564 2.33288 10.3546 2.2871 10.3395 2.24465C10.2422 1.97102 10.0829 1.76594 9.86466 1.63124C9.84417 1.32145 9.72996 0.575409 9.11988 0.0536728C9.06964 0.0108718 9.00326 -0.00789648 8.93815 0.00308986C8.87337 0.0138473 8.81661 0.0527572 8.78296 0.10952C8.76362 0.141907 8.33996 0.865059 8.27965 1.59817C8.24578 1.60927 8.21156 1.62026 8.17677 1.63239C7.88952 1.73138 7.64897 1.84651 7.51645 1.91483C7.38347 1.84651 7.14325 1.73138 6.85578 1.63239C6.82122 1.62026 6.78711 1.60927 6.7529 1.59817C6.69247 0.865059 6.26915 0.141907 6.24981 0.10952C6.21617 0.0527572 6.15941 0.0138473 6.09429 0.00308986C6.02952 -0.00789648 5.96291 0.0108718 5.9129 0.0536728C5.30259 0.575409 5.18837 1.32168 5.16812 1.63124C4.94988 1.76594 4.79058 1.97102 4.6933 2.24465C4.6782 2.2871 4.67637 2.33288 4.68792 2.3766C4.69307 2.39559 5.19696 4.30172 5.19696 4.99329V5.97565C4.9532 6.41064 3.11871 9.62266 0.856099 11.8847C0.811467 11.9292 0.788007 11.9906 0.791325 12.0535C0.794301 12.1166 0.823941 12.1751 0.872693 12.215C0.897183 12.2349 1.4362 12.6714 2.36889 13.1593C2.36855 13.1593 2.36832 13.1596 2.36832 13.1599C2.33056 13.2077 2.31385 13.269 2.32254 13.3294C2.33113 13.3897 2.36409 13.4438 2.41353 13.4792C2.43069 13.4917 2.84245 13.7843 3.55462 14.1116C3.58494 14.1253 3.61641 14.1321 3.64766 14.1321C3.73211 14.1321 3.81291 14.0837 3.85045 14.0022C3.90183 13.8902 3.85285 13.7578 3.74104 13.7064C3.34645 13.525 3.04799 13.3538 2.86808 13.2431C4.68323 10.8616 6.10322 7.58778 6.11752 7.55414C6.16627 7.44118 6.1142 7.31003 6.00125 7.26128C5.88795 7.21253 5.7568 7.2646 5.70805 7.3779C5.69409 7.40994 4.36177 10.4804 2.64355 12.7992C2.03553 12.4859 1.58955 12.188 1.35174 12.0172C3.4832 9.8195 5.20142 6.87275 5.55047 6.25637H9.48197C9.83136 6.87275 11.5496 9.8195 13.681 12.0172C13.4438 12.1876 12.9987 12.4853 12.3892 12.7992C10.6707 10.4804 9.33835 7.40994 9.32438 7.3779C9.27598 7.2646 9.14448 7.21253 9.03153 7.26128C8.91823 7.31003 8.86628 7.44118 8.91503 7.55414C8.92956 7.58778 10.3495 10.8613 12.1645 13.2429C11.5929 13.5936 9.8174 14.554 7.51645 14.554C6.52688 14.554 5.52849 14.3789 4.54911 14.0334C4.43284 13.9924 4.30558 14.0534 4.26461 14.1696C4.22387 14.2856 4.28486 14.413 4.40079 14.4541C5.42801 14.8162 6.47641 15 7.51645 15C10.4587 15 12.5322 13.5413 12.619 13.4792C12.6687 13.4438 12.7014 13.3897 12.71 13.3294C12.7186 13.269 12.7023 13.2077 12.6646 13.1599C12.6642 13.1596 12.6639 13.1593 12.6639 13.1593C13.5963 12.6714 14.1354 12.2349 14.1597 12.215C14.2085 12.1751 14.2382 12.1166 14.2416 12.0535C14.2445 11.9906 14.221 11.9292 14.1765 11.8847V11.8847ZM9.03061 0.601273C9.26167 0.893326 9.35677 1.23013 9.3958 1.4653C9.20102 1.43589 8.98278 1.44184 8.74291 1.48316C8.79612 1.14899 8.92773 0.820427 9.03061 0.601273V0.601273ZM6.00216 0.601273C6.10505 0.820427 6.23642 1.14899 6.28998 1.48316C6.05 1.44184 5.83176 1.43589 5.63698 1.4653C5.67601 1.23013 5.77088 0.893326 6.00216 0.601273ZM9.38984 5.8104H5.64293V5.21633H9.38984V5.8104Z" fill="black"/>
</g>
<defs>
<clipPath id="clip0_287_4740">
<rect width="15" height="15" fill="white"/>
</clipPath>
</defs>
</svg>
