<svg width="15" height="15" viewBox="0 0 15 15" fill="none" xmlns="http://www.w3.org/2000/svg">
<g clip-path="url(#clip0_287_4653)">
<path d="M13.6783 8.94228C13.5925 8.8565 13.4542 8.85732 13.3684 8.94313C13.2826 9.02894 13.2834 9.1689 13.3692 9.25474C13.4121 9.29763 13.4684 9.31908 13.5246 9.31908C13.5808 9.31908 13.6371 9.29763 13.68 9.25474C13.7658 9.1689 13.7658 9.02979 13.68 8.94398L13.6783 8.94228Z" fill="black"/>
<path d="M12.296 8.94165C12.2099 8.85616 12.0715 8.85759 11.9861 8.94378C11.9007 9.02995 11.9021 9.16993 11.9883 9.25536C12.0311 9.29787 12.0871 9.31909 12.143 9.31909C12.1996 9.31909 12.2561 9.29741 12.2991 9.25407C12.3845 9.16791 12.3839 9.02878 12.2977 8.94334L12.296 8.94165Z" fill="black"/>
<path d="M10.915 8.94228C10.8292 8.8565 10.6909 8.85732 10.6051 8.94313C10.5193 9.02894 10.5201 9.1689 10.6059 9.25474C10.6488 9.29763 10.7051 9.31908 10.7613 9.31908C10.8175 9.31908 10.8738 9.29763 10.9167 9.25474C11.0025 9.1689 11.0025 9.02979 10.9167 8.94398L10.915 8.94228Z" fill="black"/>
<path d="M9.53326 8.94228C9.44748 8.8565 9.3092 8.85732 9.22336 8.94313C9.13755 9.02894 9.1384 9.1689 9.22421 9.25474C9.2671 9.29763 9.32335 9.31908 9.37957 9.31908C9.43579 9.31908 9.49204 9.29763 9.53493 9.25474C9.62074 9.1689 9.62074 9.02979 9.53493 8.94398L9.53326 8.94228Z" fill="black"/>
<path d="M8.15167 8.94228C8.06589 8.8565 7.92761 8.85732 7.84177 8.94313C7.75596 9.02894 7.75681 9.1689 7.84262 9.25474C7.88551 9.29763 7.94176 9.31908 7.99798 9.31908C8.0542 9.31908 8.11045 9.29763 8.15334 9.25474C8.23915 9.1689 8.23915 9.02979 8.15334 8.94398L8.15167 8.94228Z" fill="black"/>
<path d="M6.76996 8.94228C6.68418 8.8565 6.54589 8.85732 6.46005 8.94313C6.37424 9.02894 6.37509 9.1689 6.4609 9.25474C6.50379 9.29763 6.56004 9.31908 6.61627 9.31908C6.67249 9.31908 6.72874 9.29763 6.77163 9.25474C6.85744 9.1689 6.85744 9.02979 6.77163 8.94398L6.76996 8.94228Z" fill="black"/>
<path d="M13.0152 7.92466C12.9478 7.82379 12.8113 7.79669 12.7104 7.86411C12.6095 7.93158 12.5824 8.06801 12.6499 8.16889L12.6516 8.17143C12.694 8.2348 12.7635 8.26908 12.8345 8.26908C12.8764 8.26908 12.9189 8.25707 12.9564 8.23199C13.0573 8.16452 13.0844 8.02808 13.0169 7.92721L13.0152 7.92466Z" fill="black"/>
<path d="M11.6054 7.89141C11.5196 7.80563 11.3805 7.80563 11.2947 7.89141C11.2089 7.97725 11.2089 8.11636 11.2947 8.20217L11.2973 8.20472C11.3401 8.24761 11.3964 8.26906 11.4526 8.26906C11.5088 8.26906 11.5651 8.24761 11.608 8.20472C11.6938 8.11888 11.6938 7.97977 11.608 7.89396L11.6054 7.89141Z" fill="black"/>
<path d="M10.222 7.88972C10.1362 7.8039 9.99789 7.80478 9.91208 7.89057C9.82627 7.97638 9.82712 8.11633 9.91293 8.20218C9.95582 8.24507 10.0121 8.26651 10.0683 8.26651C10.1245 8.26651 10.1808 8.24507 10.2237 8.20218C10.3095 8.11633 10.3095 7.97723 10.2237 7.89141L10.222 7.88972Z" fill="black"/>
<path d="M8.84028 7.88972C8.7545 7.8039 8.61622 7.80478 8.53038 7.89057C8.44454 7.97635 8.44542 8.11633 8.53123 8.20218C8.57412 8.24507 8.63037 8.26651 8.68659 8.26651C8.74281 8.26651 8.79906 8.24507 8.84195 8.20218C8.92777 8.11633 8.92777 7.97723 8.84195 7.89141L8.84028 7.88972Z" fill="black"/>
<path d="M7.48467 7.92115C7.41764 7.82002 7.2813 7.7923 7.18014 7.85942C7.07897 7.92645 7.05135 8.0628 7.11841 8.16396L7.12011 8.16651C7.16238 8.23032 7.23222 8.26486 7.30344 8.26486C7.34513 8.26486 7.38729 8.25302 7.42464 8.22824C7.52581 8.16121 7.55343 8.02486 7.48637 7.9237L7.48467 7.92115Z" fill="black"/>
<path d="M10.6349 7.18129C10.6726 7.2068 10.7154 7.21902 10.7577 7.21902C10.8282 7.21902 10.8975 7.18515 10.94 7.12234L10.9417 7.11982C11.0096 7.01927 10.9832 6.88269 10.8827 6.81472C10.7822 6.74669 10.6456 6.77312 10.5776 6.87366L10.5759 6.87618C10.508 6.97673 10.5344 7.11332 10.6349 7.18129V7.18129Z" fill="black"/>
<path d="M9.25387 7.18179C9.29146 7.20695 9.33397 7.21902 9.37604 7.21902C9.44686 7.21902 9.51638 7.18486 9.55874 7.12164L9.56044 7.11912C9.62803 7.01834 9.60111 6.88181 9.50029 6.81425C9.39948 6.74672 9.26299 6.77359 9.19543 6.8744L9.19373 6.87692C9.12617 6.9777 9.15309 7.1142 9.25387 7.18179V7.18179Z" fill="black"/>
<path d="M14.4376 10.4157C14.7477 10.4157 15 10.1634 15 9.85332V9.55294C15 8.37555 14.4574 7.3884 13.4308 6.69819C12.5406 6.0996 11.3469 5.76998 10.0696 5.76998C10.0298 5.76998 9.99023 5.7703 9.95068 5.77094L10.0742 4.86388C10.3814 4.8505 10.6273 4.59714 10.6273 4.28671V3.78324C10.6273 3.46382 10.3678 3.20392 10.0489 3.20392H6.19295V1.85636L7.9403 1.40155C8.31908 1.30223 8.54739 0.913055 8.44913 0.533544C8.35005 0.154325 7.96049 -0.074425 7.58039 0.0236316L5.30168 0.617655C4.98337 0.700917 4.7695 0.977772 4.7695 1.3066V3.20389H0.578467C0.259482 3.20389 0 3.46379 0 3.78321V4.28668C0 4.59711 0.245977 4.85047 0.553154 4.86385L1.83803 14.2946C1.89442 14.7094 2.19551 14.9992 2.57019 14.9992H6.07052H14.0687C14.5822 14.9992 15 14.5814 15 14.0678V13.5119C15 13.3049 14.8312 13.1365 14.6237 13.1365H14.2089V12.5365C14.5827 12.4323 14.8579 12.0887 14.8579 11.6818C14.8579 11.2781 14.5865 10.9368 14.2168 10.8301C14.2676 10.7042 14.3026 10.5656 14.3195 10.4158H14.4376V10.4157ZM5.20893 1.3066C5.20893 1.17878 5.28897 1.07524 5.41269 1.04287L7.69069 0.448993C7.83642 0.411405 7.98595 0.499178 8.0238 0.644169C8.06139 0.789335 7.97391 0.938397 7.82918 0.976366L5.91785 1.47386C5.82103 1.49902 5.75347 1.58647 5.75347 1.68649V3.20387H5.2089V1.3066H5.20893ZM0.996855 4.86514H4.98328C5.10463 4.86514 5.20301 4.76679 5.20301 4.64542C5.20301 4.52404 5.10463 4.42569 4.98328 4.42569H0.578467C0.503115 4.42569 0.439453 4.36203 0.439453 4.28668V3.78321C0.439453 3.70739 0.503115 3.64335 0.578467 3.64335H10.0489C10.1242 3.64335 10.1879 3.70742 10.1879 3.78321V4.28668C10.1879 4.36203 10.1242 4.42569 10.0489 4.42569H6.02736C5.90602 4.42569 5.80764 4.52404 5.80764 4.64542C5.80764 4.76679 5.90602 4.86514 6.02736 4.86514H9.63053L9.50435 5.79195C8.44301 5.87448 7.46584 6.18889 6.70846 6.69819C6.23297 7.01788 5.86151 7.4014 5.59951 7.8379L1.58525 9.18406L0.996855 4.86514ZM1.62516 9.47676C1.62653 9.48089 1.62691 9.48511 1.62688 9.48936L1.62516 9.47676ZM1.64566 9.62729L5.33707 8.38935C5.20617 8.75079 5.1392 9.14011 5.1392 9.55294V9.85332C5.1392 10.1634 5.3915 10.4157 5.70161 10.4157H5.81971C5.83661 10.5656 5.87156 10.7042 5.92239 10.8301C5.55264 10.9369 5.28135 11.2781 5.28135 11.6818C5.28135 11.7567 5.29081 11.8294 5.30836 11.8989L2.1063 13.0083L1.64566 9.62729ZM5.28021 14.5597H2.57019C2.39566 14.5597 2.29541 14.3968 2.27347 14.2353L2.1668 13.4524L5.52337 12.2895C5.63273 12.4055 5.77254 12.4925 5.9303 12.5365V13.1365H5.51546C5.30798 13.1365 5.1392 13.3049 5.1392 13.5119V14.0678C5.1392 14.2483 5.19097 14.4169 5.28021 14.5597ZM14.5605 13.576V14.0678C14.5605 14.3391 14.3399 14.5597 14.0687 14.5597H6.07052C5.79932 14.5597 5.57865 14.3391 5.57865 14.0678V13.576H9.87372C9.99507 13.576 10.0934 13.4776 10.0934 13.3563C10.0934 13.2349 9.99507 13.1365 9.87372 13.1365H6.36976V12.5691H13.7694V13.1365H10.9077C10.7863 13.1365 10.6879 13.2349 10.6879 13.3563C10.6879 13.4776 10.7863 13.576 10.9077 13.576H14.5605ZM14.4184 11.6818C14.4184 11.9288 14.2179 12.1297 13.9714 12.1297H6.16781C5.92134 12.1297 5.72083 11.9288 5.72083 11.6818C5.72083 11.4353 5.92134 11.2348 6.16781 11.2348H6.18583C6.28192 11.3312 6.39445 11.4102 6.52313 11.4676C6.92956 11.6491 7.42078 11.5881 7.77671 11.3201C7.99729 11.5163 8.2662 11.6231 8.54452 11.6231C8.82076 11.6231 9.08769 11.5179 9.30732 11.3245C9.52679 11.5174 9.79336 11.6223 10.0692 11.6223C10.3452 11.6223 10.6118 11.5176 10.8315 11.3249C11.0511 11.5181 11.3182 11.6232 11.5947 11.6232C11.8733 11.6232 12.1424 11.5162 12.3626 11.3202C12.7183 11.5882 13.2091 11.6491 13.6155 11.4678C13.7444 11.4103 13.857 11.3313 13.9532 11.2348H13.9714C14.2179 11.2348 14.4184 11.4353 14.4184 11.6818V11.6818ZM6.26279 10.4157H13.8764C13.8295 10.7315 13.6775 10.9589 13.4365 11.0664C13.159 11.1902 12.8054 11.1331 12.5751 10.9264C12.379 10.7535 12.2225 10.8374 12.1251 10.9389C11.9749 11.0968 11.7866 11.1837 11.5947 11.1837C11.4023 11.1837 11.2137 11.0967 11.0635 10.9389C11.0598 10.935 11.0559 10.9312 11.0519 10.9275C10.8554 10.7494 10.6977 10.8352 10.6005 10.938C10.4481 11.0982 10.2644 11.1828 10.0692 11.1828C9.87738 11.1828 9.689 11.0959 9.5393 10.9385C9.44209 10.8357 9.2848 10.7502 9.08763 10.9266C9.08323 10.9305 9.07901 10.9346 9.07494 10.9389C8.92477 11.0967 8.73642 11.1837 8.54458 11.1837C8.35274 11.1837 8.16439 11.0967 8.01354 10.9382C7.91613 10.8366 7.75893 10.7523 7.56278 10.9276C7.33354 11.1331 6.97972 11.1902 6.70233 11.0663C6.46151 10.9589 6.30967 10.7314 6.26279 10.4157V10.4157ZM5.70161 9.97628C5.63382 9.97628 5.57865 9.92111 5.57865 9.85332V9.55294C5.57865 8.25895 6.32637 7.48458 6.95361 7.06285C7.77211 6.51251 8.87871 6.20943 10.0696 6.20943C11.2604 6.20943 12.3671 6.51251 13.1856 7.06285C13.8128 7.48458 14.5605 8.25895 14.5605 9.55291V9.85329C14.5605 9.92108 14.5054 9.97625 14.4376 9.97625H5.70161V9.97628Z" fill="black"/>
</g>
<defs>
<clipPath id="clip0_287_4653">
<rect width="15" height="15" fill="white"/>
</clipPath>
</defs>
</svg>
