<svg width="15" height="15" viewBox="0 0 15 15" fill="none" xmlns="http://www.w3.org/2000/svg">
<path d="M10.8467 12.0745C10.7067 10.5906 10.7067 9.09676 10.8467 7.61283L10.904 7.0072C10.9332 6.71102 10.879 6.41258 10.7475 6.14557C10.6161 5.87855 10.4126 5.65359 10.1601 5.49607C10.1638 5.48071 10.1657 5.46499 10.1658 5.4492V4.74607C10.1658 4.69171 10.1442 4.63958 10.1058 4.60113C10.0674 4.56268 10.0152 4.54105 9.96088 4.54099H9.63861V4.34295C9.63853 4.19241 9.60099 4.04426 9.52939 3.91184C9.45779 3.77942 9.35437 3.66689 9.22846 3.58439V3.40193C9.22808 3.22033 9.1557 3.0463 9.02718 2.918C8.89867 2.7897 8.72451 2.71762 8.54291 2.71755C8.47021 2.71746 8.40052 2.68854 8.34911 2.63714C8.29771 2.58573 8.26878 2.51603 8.26869 2.44334C8.26869 2.43818 8.26869 2.43302 8.26869 2.42283L8.33783 1.45873C8.34707 1.34558 8.33329 1.23173 8.29732 1.12405C8.26135 1.01637 8.20394 0.917093 8.12855 0.832211C8.05316 0.747329 7.96136 0.6786 7.85868 0.630172C7.756 0.581744 7.64457 0.55462 7.53112 0.550436C7.41767 0.546253 7.30455 0.565098 7.19858 0.605833C7.09261 0.646568 6.996 0.70835 6.91456 0.787449C6.83312 0.866549 6.76856 0.961327 6.72476 1.06606C6.68095 1.1708 6.65883 1.28333 6.65971 1.39685C6.65971 1.41701 6.65971 1.4388 6.66135 1.45837L6.73061 2.42283C6.73338 2.46046 6.72836 2.49827 6.71586 2.53388C6.70337 2.56949 6.68367 2.60214 6.65799 2.6298C6.63232 2.65746 6.60121 2.67952 6.56663 2.69462C6.53204 2.70972 6.49471 2.71753 6.45697 2.71755C6.27533 2.71746 6.10108 2.7895 5.97253 2.91783C5.84398 3.04616 5.77164 3.22029 5.77143 3.40193V3.58439C5.64551 3.66689 5.54209 3.77942 5.47049 3.91184C5.39889 4.04426 5.36136 4.19241 5.36127 4.34295V4.54099H5.039C4.98462 4.54102 4.93248 4.56264 4.89403 4.60109C4.85557 4.63955 4.83396 4.69169 4.83393 4.74607V5.4492C4.83409 5.46499 4.83601 5.48071 4.83967 5.49607C4.58708 5.65365 4.38359 5.87872 4.25216 6.14584C4.12072 6.41297 4.06659 6.71152 4.09588 7.00779L4.15318 7.61353C4.29322 9.09746 4.29322 10.5913 4.15318 12.0752L4.09588 12.6808C4.07485 12.9042 4.10069 13.1295 4.17174 13.3423C4.24279 13.5551 4.35749 13.7507 4.5085 13.9166C4.6595 14.0825 4.84349 14.215 5.04867 14.3057C5.25385 14.3964 5.47572 14.4433 5.70006 14.4433H9.29982C9.52422 14.4433 9.74614 14.3964 9.95136 14.3057C10.1566 14.215 10.3406 14.0824 10.4916 13.9164C10.6426 13.7504 10.7573 13.5547 10.8283 13.3419C10.8993 13.129 10.9251 12.9037 10.904 12.6803L10.8467 12.0745ZM6.18158 3.40193C6.1818 3.32907 6.21092 3.25927 6.26255 3.20785C6.31419 3.15644 6.38411 3.12762 6.45697 3.12771C6.55104 3.12767 6.64408 3.10824 6.73031 3.07065C6.81654 3.03307 6.8941 2.97812 6.95815 2.90924C7.02221 2.84035 7.07139 2.75901 7.10262 2.67029C7.13386 2.58156 7.14648 2.48735 7.13971 2.39353L7.07045 1.42826C7.06963 1.41818 7.06986 1.40705 7.06986 1.39685C7.06999 1.28283 7.11534 1.17351 7.19597 1.09288C7.2766 1.01225 7.38592 0.966897 7.49994 0.966773C7.5592 0.96682 7.61781 0.979086 7.67212 1.00281C7.72642 1.02652 7.77525 1.06119 7.81556 1.10463C7.85586 1.14807 7.88678 1.19935 7.90637 1.25528C7.92597 1.3112 7.93382 1.37057 7.92943 1.42966L7.86064 2.38884C7.85889 2.40724 7.85853 2.42552 7.85853 2.44392C7.85875 2.62536 7.93093 2.79931 8.05922 2.92761C8.18752 3.05591 8.36147 3.12808 8.54291 3.1283C8.61576 3.12823 8.68567 3.15707 8.7373 3.20847C8.78892 3.25988 8.81805 3.32966 8.8183 3.40252V3.43978C8.78936 3.43697 8.75971 3.43533 8.73041 3.43533H6.26947C6.23982 3.43533 6.21088 3.43697 6.18158 3.43978V3.40193ZM5.77143 4.34295C5.77158 4.2109 5.8241 4.08431 5.91747 3.99094C6.01084 3.89758 6.13743 3.84505 6.26947 3.8449H8.73041C8.86245 3.84505 8.98904 3.89758 9.08241 3.99094C9.17578 4.08431 9.2283 4.2109 9.22846 4.34295V4.54099H5.77143V4.34295ZM5.24408 5.24412V4.95115H9.7558V5.24412H5.24408ZM10.4384 12.1132L10.4956 12.7189C10.5114 12.8854 10.4922 13.0534 10.4393 13.212C10.3864 13.3707 10.3009 13.5165 10.1884 13.6402C10.0759 13.764 9.93878 13.8628 9.78585 13.9305C9.63291 13.9981 9.46753 14.0331 9.30029 14.0332H5.70006C5.53281 14.0331 5.36742 13.9981 5.21447 13.9305C5.06153 13.8628 4.9244 13.7639 4.81188 13.6402C4.69935 13.5165 4.61391 13.3706 4.56102 13.2119C4.50813 13.0533 4.48897 12.8853 4.50475 12.7188L4.56193 12.1132C4.70443 10.6036 4.70443 9.08389 4.56193 7.57427L4.50475 6.96853C4.48898 6.80204 4.50816 6.63409 4.56106 6.47544C4.61396 6.31679 4.6994 6.17093 4.81192 6.04721C4.92445 5.92349 5.06157 5.82464 5.2145 5.75697C5.36744 5.68931 5.53282 5.65433 5.70006 5.65427H9.29982C9.46707 5.65433 9.63246 5.68931 9.78541 5.75698C9.93835 5.82465 10.0755 5.92352 10.188 6.04725C10.3005 6.17099 10.386 6.31686 10.4389 6.47552C10.4917 6.63419 10.5109 6.80215 10.4951 6.96865L10.4379 7.57427C10.2956 9.0839 10.2958 10.6036 10.4384 12.1132V12.1132Z" fill="black"/>
<path d="M5.16409 10.2442C5.13713 10.2434 5.11028 10.248 5.0851 10.2576C5.05991 10.2673 5.03689 10.2818 5.01735 10.3004C4.99782 10.319 4.98216 10.3413 4.97128 10.366C4.9604 10.3906 4.95452 10.4172 4.95398 10.4442C4.94659 10.7438 4.9337 11.0468 4.9153 11.3443C4.91197 11.3986 4.93033 11.452 4.96635 11.4927C5.00237 11.5335 5.0531 11.5582 5.10737 11.5616H5.12015C5.17233 11.5615 5.22254 11.5416 5.26053 11.5058C5.29852 11.47 5.32145 11.4211 5.32464 11.369C5.34339 11.0665 5.35652 10.7585 5.36402 10.4538C5.36524 10.3995 5.34488 10.347 5.3074 10.3077C5.26992 10.2683 5.21839 10.2455 5.16409 10.2442V10.2442Z" fill="black"/>
<path d="M7.5 7.30615C7.44562 7.30618 7.39348 7.3278 7.35502 7.36625C7.31657 7.40471 7.29495 7.45685 7.29492 7.51123V12.1758C7.29492 12.2302 7.31653 12.2823 7.35499 12.3208C7.39345 12.3592 7.44561 12.3808 7.5 12.3808C7.55439 12.3808 7.60656 12.3592 7.64502 12.3208C7.68348 12.2823 7.70508 12.2302 7.70508 12.1758V7.5117C7.70513 7.48473 7.69986 7.45802 7.68957 7.43309C7.67929 7.40816 7.66419 7.38551 7.64515 7.36642C7.6261 7.34733 7.60348 7.33218 7.57857 7.32184C7.55367 7.3115 7.52697 7.30617 7.5 7.30615V7.30615Z" fill="black"/>
<path d="M8.90625 8.22266H8.20312C8.14873 8.22266 8.09657 8.24426 8.05811 8.28272C8.01965 8.32118 7.99805 8.37334 7.99805 8.42773C7.99805 8.48212 8.01965 8.53429 8.05811 8.57275C8.09657 8.61121 8.14873 8.63281 8.20312 8.63281H8.90625C8.96064 8.63281 9.0128 8.61121 9.05126 8.57275C9.08972 8.53429 9.11133 8.48212 9.11133 8.42773C9.11133 8.37334 9.08972 8.32118 9.05126 8.28272C9.0128 8.24426 8.96064 8.22266 8.90625 8.22266Z" fill="black"/>
<path d="M8.90625 9.63867H8.20312C8.14873 9.63867 8.09657 9.66028 8.05811 9.69874C8.01965 9.7372 7.99805 9.78936 7.99805 9.84375C7.99805 9.89814 8.01965 9.9503 8.05811 9.98876C8.09657 10.0272 8.14873 10.0488 8.20312 10.0488H8.90625C8.96064 10.0488 9.0128 10.0272 9.05126 9.98876C9.08972 9.9503 9.11133 9.89814 9.11133 9.84375C9.11133 9.78936 9.08972 9.7372 9.05126 9.69874C9.0128 9.66028 8.96064 9.63867 8.90625 9.63867V9.63867Z" fill="black"/>
<path d="M8.90625 11.0546H8.20312C8.14873 11.0546 8.09657 11.0762 8.05811 11.1147C8.01965 11.1532 7.99805 11.2053 7.99805 11.2597C7.99805 11.3141 8.01965 11.3663 8.05811 11.4047C8.09657 11.4432 8.14873 11.4648 8.20312 11.4648H8.90625C8.96064 11.4648 9.0128 11.4432 9.05126 11.4047C9.08972 11.3663 9.11133 11.3141 9.11133 11.2597C9.11133 11.2053 9.08972 11.1532 9.05126 11.1147C9.0128 11.0762 8.96064 11.0546 8.90625 11.0546Z" fill="black"/>
<path d="M8.20312 7.9248H8.55469C8.60908 7.9248 8.66124 7.9032 8.6997 7.86474C8.73816 7.82628 8.75977 7.77412 8.75977 7.71973C8.75977 7.66534 8.73816 7.61317 8.6997 7.57471C8.66124 7.53626 8.60908 7.51465 8.55469 7.51465H8.20312C8.14873 7.51465 8.09657 7.53626 8.05811 7.57471C8.01965 7.61317 7.99805 7.66534 7.99805 7.71973C7.99805 7.77412 8.01965 7.82628 8.05811 7.86474C8.09657 7.9032 8.14873 7.9248 8.20312 7.9248V7.9248Z" fill="black"/>
<path d="M8.20312 9.34076H8.55469C8.60908 9.34076 8.66124 9.31915 8.6997 9.28069C8.73816 9.24223 8.75977 9.19007 8.75977 9.13568C8.75977 9.08129 8.73816 9.02913 8.6997 8.99067C8.66124 8.95221 8.60908 8.9306 8.55469 8.9306H8.20312C8.14873 8.9306 8.09657 8.95221 8.05811 8.99067C8.01965 9.02913 7.99805 9.08129 7.99805 9.13568C7.99805 9.19007 8.01965 9.24223 8.05811 9.28069C8.09657 9.31915 8.14873 9.34076 8.20312 9.34076V9.34076Z" fill="black"/>
<path d="M8.20312 10.7568H8.55469C8.60908 10.7568 8.66124 10.7352 8.6997 10.6968C8.73816 10.6583 8.75977 10.6061 8.75977 10.5518C8.75977 10.4974 8.73816 10.4452 8.6997 10.4067C8.66124 10.3683 8.60908 10.3467 8.55469 10.3467H8.20312C8.14873 10.3467 8.09657 10.3683 8.05811 10.4067C8.01965 10.4452 7.99805 10.4974 7.99805 10.5518C7.99805 10.6061 8.01965 10.6583 8.05811 10.6968C8.09657 10.7352 8.14873 10.7568 8.20312 10.7568V10.7568Z" fill="black"/>
<path d="M8.55469 11.7627H8.20312C8.14873 11.7627 8.09657 11.7843 8.05811 11.8228C8.01965 11.8612 7.99805 11.9134 7.99805 11.9678C7.99805 12.0222 8.01965 12.0743 8.05811 12.1128C8.09657 12.1512 8.14873 12.1729 8.20312 12.1729H8.55469C8.60908 12.1729 8.66124 12.1512 8.6997 12.1128C8.73816 12.0743 8.75977 12.0222 8.75977 11.9678C8.75977 11.9134 8.73816 11.8612 8.6997 11.8228C8.66124 11.7843 8.60908 11.7627 8.55469 11.7627V11.7627Z" fill="black"/>
</svg>
