<svg width="15" height="15" viewBox="0 0 15 15" fill="none" xmlns="http://www.w3.org/2000/svg">
<g clip-path="url(#clip0_287_4559)">
<path d="M0.0406547 5.87611C0.108289 6.20956 0.223074 6.52328 0.381918 6.80856C0.898963 7.73769 1.14158 8.70524 1.14158 9.58185V13.2054C1.14158 13.3674 1.27273 13.4989 1.43455 13.4989H2.60654C2.76824 13.4989 2.89951 13.3674 2.89951 13.2054V9.93031C2.89951 9.26858 3.05171 8.60445 3.33999 8.00876L3.36677 7.96553C4.75403 9.1225 5.86456 10.5972 6.58955 12.2487C6.9228 13.0081 7.66209 13.4989 8.47279 13.4989H10.8688C12.0257 13.4989 12.935 13.4749 13.6119 13.3582C13.948 13.3002 14.9708 13.124 14.9708 12.3246C14.9708 11.8726 14.597 11.2163 14.0185 10.6526C13.6301 10.2739 12.8121 9.61418 11.6993 9.45021C11.6128 9.43749 11.5253 9.46409 11.4604 9.52268C11.1699 9.78538 10.6007 9.97607 10.1071 9.97607C9.40549 9.97607 8.66253 9.57474 8.37906 9.04258C8.37346 9.03215 8.36728 9.02206 8.36052 9.01231L6.40473 6.21644C5.19428 4.48626 3.74923 2.93519 2.10986 1.60645C2.00298 1.51976 1.85043 1.51919 1.74297 1.60507C1.28566 1.97028 0.904113 2.40715 0.608855 2.90354C0.0393958 3.86133 -0.143939 4.95352 0.0388236 5.86728C0.0393958 5.87026 0.039968 5.87324 0.0406547 5.87611V5.87611ZM2.31346 9.93031V12.9117H1.72752V9.58185C1.72752 9.49356 1.72466 9.39838 1.71916 9.29931C1.63001 7.69011 0.932036 6.62762 0.800887 6.33832C1.54384 6.68358 2.24857 7.10589 2.9042 7.59906C2.58788 8.11207 2.31346 9.01208 2.31346 9.93031ZM1.11228 3.20408C1.33155 2.83543 1.60541 2.50393 1.92825 2.21612C3.44837 3.47595 4.79202 4.93414 5.92499 6.55344L7.87094 9.33543C8.2605 10.048 9.19732 10.5633 10.1071 10.5633C10.6841 10.5633 11.3305 10.3574 11.7388 10.0522C12.6257 10.2213 13.2872 10.7588 13.6099 11.0734C14.1186 11.5692 14.3847 12.0781 14.3847 12.3246C14.3847 12.5763 13.9105 12.7109 13.5124 12.7796C12.8765 12.8892 11.9956 12.9117 10.8688 12.9117H8.47279C7.8944 12.9117 7.36569 12.5588 7.12593 12.0124C5.85724 9.12227 3.51245 6.8198 0.587683 5.60332C0.481367 4.88093 0.641585 3.99584 1.11228 3.20408V3.20408Z" fill="black"/>
</g>
<defs>
<clipPath id="clip0_287_4559">
<rect width="15" height="15" fill="white"/>
</clipPath>
</defs>
</svg>
