<svg width="15" height="15" viewBox="0 0 15 15" fill="none" xmlns="http://www.w3.org/2000/svg">
<g clip-path="url(#clip0_287_4525)">
<path d="M8.87361 8.87814H6.12921C5.9569 8.87814 5.81592 9.01912 5.81592 9.19143C5.81592 9.36374 5.9569 9.50472 6.12921 9.50472H8.87361C9.04592 9.50472 9.1869 9.36374 9.1869 9.19143C9.1869 9.01912 9.04592 8.87814 8.87361 8.87814Z" fill="black"/>
<path d="M10.18 10.1626H4.82281C4.6505 10.1626 4.50952 10.3036 4.50952 10.4759C4.50952 10.6482 4.6505 10.7892 4.82281 10.7892H10.18C10.3524 10.7892 10.4933 10.6482 10.4933 10.4759C10.4933 10.3036 10.3524 10.1626 10.18 10.1626Z" fill="black"/>
<path d="M10.18 11.4785H4.82281C4.6505 11.4785 4.50952 11.6194 4.50952 11.7917C4.50952 11.9641 4.6505 12.105 4.82281 12.105H10.18C10.3524 12.105 10.4933 11.9641 10.4933 11.7917C10.4933 11.6194 10.3524 11.4785 10.18 11.4785Z" fill="black"/>
<path d="M12.1005 0.0214981C11.9814 -0.0254951 11.8467 0.0058337 11.759 0.102953L11.0917 0.832915L10.4244 0.106086C10.3085 -0.0223623 10.1111 -0.028628 9.98266 0.0872887C9.97639 0.0935545 9.97012 0.0998202 9.96386 0.106086L9.29655 0.832915L8.62925 0.102953C8.51333 -0.0254951 8.31283 -0.0317609 8.18751 0.0841558C8.18125 0.0904216 8.17498 0.0966874 8.16872 0.102953L7.50141 0.829782L6.83411 0.102953C6.71819 -0.0254951 6.51769 -0.0317609 6.39237 0.0841558C6.3861 0.0904216 6.37984 0.0966874 6.37357 0.102953L5.70627 0.829782L5.03896 0.102953C4.92305 -0.0254951 4.72254 -0.0317609 4.59723 0.0841558C4.59096 0.0904216 4.5847 0.0966874 4.57843 0.102953L3.91113 0.829782L3.24069 0.102953C3.1561 0.00896659 3.02139 -0.0254951 2.90234 0.0214981C2.78329 0.0684914 2.70497 0.184408 2.7081 0.312856V14.6865C2.70497 14.8557 2.83968 14.9967 3.00886 14.9998C3.09971 15.003 3.1843 14.9654 3.24382 14.8996L3.91113 14.1696L4.57843 14.8964C4.69435 15.0249 4.89172 15.0311 5.02017 14.9152C5.02643 14.909 5.0327 14.9027 5.03896 14.8964L5.70627 14.1696L6.37357 14.8964C6.48949 15.0249 6.68999 15.0311 6.81531 14.9152C6.82158 14.909 6.82784 14.9027 6.83411 14.8964L7.50141 14.1696L8.16872 14.8964C8.28463 15.0249 8.48514 15.0311 8.61045 14.9152C8.61672 14.909 8.62298 14.9027 8.62925 14.8964L9.29655 14.1696L9.96386 14.8964C10.0798 15.0249 10.2803 15.0311 10.4056 14.9152C10.4119 14.909 10.4181 14.9027 10.4244 14.8964L11.0917 14.1696L11.759 14.8964C11.8185 14.9622 11.9031 14.9967 11.9908 14.9967C12.0284 14.9967 12.0629 14.9904 12.0974 14.9748C12.2164 14.9278 12.2947 14.8118 12.2916 14.6834V0.309724C12.2979 0.184408 12.2195 0.0684914 12.1005 0.0214981ZM11.0948 13.3895C11.0071 13.3895 10.9225 13.4271 10.863 13.4929L10.1957 14.2229L9.52839 13.496C9.41247 13.3676 9.21197 13.3613 9.08665 13.4772C9.08038 13.4835 9.07412 13.4898 9.06785 13.496L8.40055 14.2229L7.73324 13.496C7.61733 13.3676 7.41682 13.3613 7.29151 13.4772C7.28524 13.4835 7.27898 13.4898 7.27271 13.496L6.60541 14.2229L5.9381 13.496C5.82219 13.3676 5.62168 13.3613 5.49637 13.4772C5.4901 13.4835 5.48383 13.4898 5.47757 13.496L4.80713 14.2229L4.13983 13.4929C4.0803 13.4271 3.99571 13.3895 3.90799 13.3895C3.82027 13.3895 3.73882 13.4271 3.68243 13.4929L3.33468 13.8814V1.11801L3.68243 1.50335C3.73882 1.56914 3.82027 1.60674 3.90799 1.60674C3.99571 1.60674 4.0803 1.56914 4.13983 1.50335L4.80713 0.77339L5.47444 1.50022C5.59035 1.62867 5.79086 1.63493 5.91617 1.51902C5.92244 1.51275 5.9287 1.50649 5.93497 1.50022L6.60227 0.77339L7.26958 1.50022C7.38549 1.62867 7.586 1.63493 7.71131 1.51902C7.71758 1.51275 7.72385 1.50649 7.73011 1.50022L8.39742 0.77339L9.06472 1.50022C9.18064 1.62867 9.38114 1.63493 9.50646 1.51902C9.51272 1.51275 9.51899 1.50649 9.52525 1.50022L10.1926 0.77339L10.8599 1.50335C10.9194 1.56914 11.004 1.60674 11.0917 1.60674C11.1794 1.60674 11.2609 1.56914 11.3173 1.50335L11.6681 1.11487V13.8782L11.3204 13.4929C11.264 13.4271 11.1825 13.3895 11.0948 13.3895Z" fill="black"/>
<path d="M8.47265 5.35994C8.33794 4.937 7.94319 4.65191 7.50146 4.65191C7.28216 4.65191 7.10671 4.47647 7.10671 4.25716C7.10671 4.03786 7.28216 3.86555 7.49832 3.86242C7.71449 3.85929 7.89307 4.03786 7.89307 4.25716C7.89307 4.25716 7.89307 4.25716 7.89307 4.2603C7.89307 4.4326 8.03405 4.57358 8.20636 4.57358C8.37866 4.57358 8.51964 4.4326 8.51964 4.2603C8.51964 3.81856 8.23455 3.42382 7.81161 3.2891V3.09173C7.81161 2.91942 7.67063 2.77844 7.49832 2.77844C7.32602 2.77844 7.18504 2.91942 7.18504 3.09173V3.2891C6.64931 3.46141 6.35482 4.03786 6.52713 4.57358C6.66184 4.99339 7.05659 5.28162 7.49832 5.28162C7.71449 5.27848 7.89307 5.45392 7.8962 5.67323C7.89933 5.89253 7.72389 6.06797 7.50459 6.0711C7.50459 6.06797 7.50459 6.06797 7.50146 6.06797C7.28529 6.06797 7.10671 5.89253 7.10671 5.67323C7.10671 5.50092 6.96573 5.35994 6.79343 5.35994C6.62112 5.35994 6.48014 5.50092 6.48014 5.67323C6.48014 6.11496 6.76523 6.50657 7.18817 6.64442V6.84492C7.18817 7.01723 7.32915 7.15821 7.50146 7.15821C7.67377 7.15821 7.81475 7.01723 7.81475 6.84492V6.64442C8.35047 6.47211 8.64496 5.89566 8.47265 5.35994Z" fill="black"/>
</g>
<defs>
<clipPath id="clip0_287_4525">
<rect width="15" height="15" fill="white"/>
</clipPath>
</defs>
</svg>
