<svg width="15" height="15" viewBox="0 0 15 15" fill="none" xmlns="http://www.w3.org/2000/svg">
<path d="M14.7772 10.9305H13.9918V2.96399C13.9918 2.46726 13.5891 2.06458 13.0923 2.06458H1.83732C1.34059 2.06458 0.937908 2.46726 0.937908 2.96399V10.9305H0.222773C0.0997557 10.9305 0 11.0302 0 11.1532V11.6452C0 12.3577 0.577616 12.9354 1.29014 12.9354H9.68318C9.8062 12.9354 9.90596 12.8356 9.90596 12.7126C9.90596 12.5896 9.8062 12.4898 9.68318 12.4898H1.29014C0.82368 12.4898 0.445546 12.1117 0.445546 11.6452V11.376H1.16071H5.69595C5.70386 11.8072 6.05685 12.1557 6.48998 12.1557H8.50999C8.94309 12.1557 9.29612 11.8072 9.30403 11.376H13.769H14.5545V11.6452C14.5545 12.1117 14.1763 12.4898 13.7099 12.4898H10.7228C10.5998 12.4898 10.5001 12.5896 10.5001 12.7126C10.5001 12.8356 10.5998 12.9354 10.7228 12.9354H13.7099C14.4224 12.9354 15 12.3577 15 11.6452V11.1532C15 11.0302 14.9002 10.9305 14.7772 10.9305ZM8.50996 11.7101H6.48995C6.30254 11.7101 6.14914 11.5615 6.14143 11.376H8.85848C8.85077 11.5615 8.69741 11.7101 8.50996 11.7101ZM13.5462 10.9305H1.38348V2.96399C1.38348 2.7137 1.58707 2.51012 1.83735 2.51012H13.0923C13.3426 2.51012 13.5462 2.7137 13.5462 2.96399V10.9305Z" fill="black"/>
<path d="M12.9373 2.89633H4.30711C4.18409 2.89633 4.08434 2.99609 4.08434 3.1191C4.08434 3.24212 4.18409 3.34188 4.30711 3.34188H12.7146V10.0988H2.2152V3.34185H3.26745C3.39047 3.34185 3.49023 3.24209 3.49023 3.11907C3.49023 2.99606 3.39047 2.8963 3.26745 2.8963H1.99243C1.86941 2.8963 1.76965 2.99606 1.76965 3.11907V10.3216C1.76965 10.4446 1.86941 10.5444 1.99243 10.5444H12.9373C13.0604 10.5444 13.1601 10.4446 13.1601 10.3216V3.1191C13.1601 2.99606 13.0604 2.89633 12.9373 2.89633Z" fill="black"/>
</svg>
