<svg width="15" height="15" viewBox="0 0 15 15" fill="none" xmlns="http://www.w3.org/2000/svg">
<g clip-path="url(#clip0_287_4561)">
<path d="M7.5 13.9791C6.21917 13.9791 5.32336 13.668 4.37493 13.3387C3.27618 12.9572 2.14002 12.5627 0.219727 12.5627C0.0983789 12.5627 0 12.4643 0 12.3429C0 12.2216 0.0983789 12.1232 0.219727 12.1232C2.21414 12.1232 3.43869 12.5484 4.51907 12.9236C6.29329 13.5396 6.87943 13.5396 7.5 13.5396C8.70668 13.5396 9.56848 13.2404 10.4809 12.9236C11.5613 12.5484 12.7859 12.1232 14.7803 12.1232C14.9017 12.1232 15 12.2216 15 12.3429C15 12.4643 14.9017 12.5627 14.7803 12.5627C12.86 12.5627 11.7238 12.9572 10.6251 13.3387C9.67664 13.668 8.78083 13.9791 7.5 13.9791ZM9.74871 12.2869C8.57689 12.2869 7.79622 11.8947 7.5 11.715C7.20378 11.8947 6.42311 12.2869 5.25129 12.2869C3.68177 12.2869 2.14875 11.7354 0.280576 10.4987C0.215742 10.4558 0.178418 10.3818 0.182432 10.3041C0.186445 10.2265 0.231211 10.1567 0.300117 10.1207C0.764678 9.87799 1.26688 9.65258 1.76593 9.46248C1.48333 9.12688 1.22016 8.75616 0.984199 8.3596C0.922148 8.2553 0.956396 8.12045 1.06066 8.05842C1.16493 7.99634 1.29981 8.03062 1.36184 8.13489C1.80803 8.88483 2.3548 9.53493 2.94302 10.015C3.82945 10.7383 5.12558 11.1332 6.89309 11.2163C6.27955 10.6581 5.81889 10.1251 5.49281 9.59745C5.42903 9.49423 5.461 9.35882 5.56424 9.29502C5.66748 9.23124 5.80289 9.26323 5.86667 9.36644C6.18369 9.87952 6.64213 10.4026 7.26138 10.9567C7.2227 10.3797 7.12614 9.8806 6.96894 9.44124C6.72958 8.7723 6.34998 8.2323 5.80843 7.79042C5.65061 7.66163 5.48265 7.53817 5.30684 7.42034C5.30587 7.45898 5.3054 7.49739 5.3054 7.53562C5.3054 7.85414 5.35588 8.17444 5.45543 8.48765C5.4922 8.60332 5.42824 8.72686 5.31261 8.7636C5.197 8.8004 5.0734 8.73641 5.03666 8.62078C4.9234 8.26447 4.86598 7.89937 4.86598 7.53562C4.86598 7.41023 4.87075 7.28294 4.88021 7.154C3.48343 6.34054 1.72989 5.84607 0.463037 5.74576C0.526523 6.22409 0.693486 6.77771 0.943682 7.33298C0.993545 7.4436 0.944268 7.57371 0.833613 7.62357C0.722959 7.67346 0.592852 7.62416 0.543018 7.5135C0.222275 6.80171 0.0346289 6.11373 0.000410156 5.52395C-0.00319336 5.46208 0.0195117 5.40158 0.0629004 5.35734C0.10626 5.3131 0.165703 5.28937 0.228281 5.29163C1.02949 5.32262 1.96972 5.50503 2.90824 5.80936C2.92509 4.97452 3.07875 4.19171 3.34831 3.58031C3.3956 3.47302 3.51879 3.42184 3.62818 3.46382C4.25965 3.70646 4.95527 4.10004 5.60628 4.58141C5.6107 4.57218 5.6151 4.56299 5.61958 4.55373C6.07673 3.60442 6.69249 2.75505 7.35337 2.16208C7.43687 2.08716 7.5634 2.08716 7.64687 2.16208C7.78204 2.28339 7.91789 2.41854 8.05055 2.56382C8.13237 2.65344 8.12607 2.79243 8.03648 2.87425C7.94684 2.95608 7.80788 2.94978 7.72605 2.86019C7.65132 2.77837 7.5757 2.70017 7.49991 2.62631C6.93647 3.17273 6.41394 3.91708 6.01553 4.74439C5.65869 5.48537 5.43108 6.22678 5.34475 6.92124C5.61352 7.08978 5.86172 7.26656 6.0864 7.44987C6.88178 8.09891 7.29316 8.90062 7.50416 9.68296C7.75667 8.75074 8.2239 8.01293 8.91387 7.44987C9.00788 7.37317 9.14631 7.38712 9.22304 7.48119C9.29977 7.5752 9.28576 7.71363 9.19175 7.79036C8.31955 8.5021 7.84231 9.54026 7.74023 10.9544C9.05446 9.77089 9.69478 8.64928 9.69478 7.53559C9.69478 6.34022 9.16351 4.83041 8.3083 3.59537C8.23922 3.49561 8.26409 3.35871 8.36385 3.28963C8.46357 3.22054 8.60051 3.24542 8.66959 3.34517C8.94398 3.74141 9.18527 4.1593 9.38874 4.58528C10.0412 4.10212 10.7388 3.70711 11.3721 3.4638C11.4815 3.42178 11.6046 3.47299 11.6519 3.58028C11.9222 4.19332 12.076 4.97871 12.0921 5.81604C13.019 5.51373 13.9642 5.32283 14.772 5.2916C14.8335 5.28931 14.8939 5.31307 14.9373 5.35731C14.9807 5.40155 15.0034 5.46205 14.9998 5.52392C14.9566 6.26877 14.6782 7.15555 14.2161 8.0209C13.936 8.54557 13.606 9.0319 13.2388 9.46409C13.7364 9.6539 14.237 9.87864 14.7001 10.1206C14.769 10.1566 14.8138 10.2264 14.8178 10.304C14.8218 10.3817 14.7845 10.4557 14.7196 10.4986C14.4141 10.7009 14.1289 10.878 13.8478 11.0402C13.7426 11.1008 13.6083 11.0648 13.5476 10.9597C13.487 10.8546 13.523 10.7202 13.6281 10.6595C13.8014 10.5596 13.9764 10.4537 14.1572 10.3393C13.7568 10.1451 13.3364 9.9665 12.9215 9.81457C12.7334 10.0093 12.5375 10.1901 12.335 10.3553C11.2013 11.2804 9.68593 11.561 8.41113 11.6417C8.7552 11.7534 9.20596 11.8473 9.74889 11.8473C10.7277 11.8473 11.7148 11.6068 12.7666 11.112C12.8764 11.0604 13.0073 11.1075 13.059 11.2173C13.1106 11.3271 13.0635 11.458 12.9537 11.5097C11.8419 12.0327 10.7936 12.2869 9.74871 12.2869V12.2869ZM0.843164 10.3393C2.49067 11.3802 3.86221 11.8474 5.25129 11.8474C5.79806 11.8474 6.25137 11.7522 6.59634 11.6395C4.87002 11.5236 3.5785 11.1007 2.66522 10.3554C2.46516 10.1922 2.2698 10.0108 2.08119 9.8138C1.66553 9.96591 1.24441 10.1448 0.843164 10.3393V10.3393ZM10.1194 7.15875C10.1291 7.28654 10.1341 7.41225 10.1341 7.53565C10.1341 8.75921 9.46893 9.96764 8.10454 11.217C9.89106 11.1364 11.1567 10.7496 12.057 10.015C13.4889 8.84648 14.3713 7.00796 14.5372 5.74555C13.1564 5.85287 11.4263 6.4038 10.1194 7.15875V7.15875ZM9.57226 4.99675C9.80818 5.56391 9.97544 6.13734 10.0632 6.68592C10.5541 6.41543 11.096 6.17241 11.6539 5.96783C11.6545 5.22331 11.541 4.52091 11.3298 3.95519C10.7614 4.19821 10.1476 4.56167 9.57226 4.99675V4.99675ZM3.34608 5.96042C3.91925 6.16986 4.45368 6.41214 4.935 6.6796C5.02055 6.13286 5.18464 5.56418 5.42247 4.99277C4.8486 4.55941 4.2368 4.19745 3.67017 3.95519C3.45973 4.51904 3.34629 5.21862 3.34608 5.96042ZM7.5 1.48965C7.37077 1.48965 7.26562 1.38451 7.26562 1.25528C7.26562 1.12605 7.37077 1.0209 7.5 1.0209C7.62923 1.0209 7.73438 1.12605 7.73438 1.25528C7.73438 1.38451 7.62923 1.48965 7.5 1.48965Z" fill="black"/>
</g>
<defs>
<clipPath id="clip0_287_4561">
<rect width="15" height="15" fill="white"/>
</clipPath>
</defs>
</svg>
