<svg width="15" height="15" viewBox="0 0 15 15" fill="none" xmlns="http://www.w3.org/2000/svg">
<path d="M14.8102 11.4155C13.8193 11.043 12.8285 10.6703 11.8376 10.2976L9.30328 9.34447L11.0033 6.61028C11.8058 5.31975 11.8441 3.75629 11.1059 2.428C10.3676 1.09974 9.01966 0.306702 7.5 0.306702C5.98034 0.306702 4.63236 1.09971 3.89414 2.428C3.15595 3.75629 3.19424 5.31975 3.99668 6.61028L5.69675 9.34447L3.82055 10.0501C2.61489 10.5036 1.3928 10.9632 0.189873 11.4155C0.0756445 11.4585 0 11.5677 0 11.6897C0 11.8118 0.0756152 11.921 0.189814 11.964L7.39685 14.6745C7.4301 14.687 7.46505 14.6933 7.49997 14.6933C7.53489 14.6933 7.56987 14.687 7.60312 14.6745L10.8821 13.4413C11.0336 13.3843 11.1102 13.2154 11.0532 13.0639C10.9963 12.9125 10.8274 12.8358 10.6759 12.8928L7.5 14.0873L1.12526 11.6898C2.09086 11.3267 3.06404 10.9607 4.02683 10.5985L6.01222 9.85186L7.25121 11.8445C7.30468 11.9305 7.39875 11.9828 7.5 11.9828C7.60125 11.9828 7.69532 11.9305 7.74879 11.8445L8.98778 9.85186L11.6313 10.846C12.3791 11.1273 13.1269 11.4086 13.8747 11.6898L12.9785 12.0269C12.8271 12.0838 12.7505 12.2528 12.8074 12.4042C12.8516 12.5217 12.9632 12.5941 13.0817 12.5941C13.1159 12.5941 13.1508 12.5881 13.1848 12.5753L14.8102 11.964C14.9244 11.921 15 11.8118 15 11.6898C15 11.5677 14.9244 11.4585 14.8102 11.4155V11.4155ZM7.5 11.135L4.49426 6.3009C3.80581 5.19369 3.77294 3.85227 4.40628 2.71265C5.03965 1.57303 6.19617 0.892639 7.5 0.892639C8.80383 0.892639 9.96032 1.57303 10.5937 2.71265C11.2271 3.85227 11.1942 5.19369 10.5057 6.3009L7.5 11.135Z" fill="black"/>
<path d="M11.931 13.0267C12.0928 13.0267 12.224 12.8956 12.224 12.7338C12.224 12.572 12.0928 12.4408 11.931 12.4408C11.7692 12.4408 11.6381 12.572 11.6381 12.7338C11.6381 12.8956 11.7692 13.0267 11.931 13.0267Z" fill="black"/>
<path d="M7.50005 2.22595C6.28024 2.22595 5.28784 3.21836 5.28784 4.43813C5.28784 5.65794 6.28024 6.65034 7.50005 6.65034C8.71985 6.65034 9.71226 5.65794 9.71226 4.43813C9.71226 3.21833 8.71985 2.22595 7.50005 2.22595ZM7.50005 6.0644C6.60333 6.0644 5.87378 5.33488 5.87378 4.43813C5.87378 4.35762 5.87987 4.27852 5.89124 4.20109C6.4274 4.20162 6.95293 4.29469 7.45645 4.47888C7.97987 4.6704 8.45401 4.951 8.86906 5.3142C8.57964 5.76493 8.07433 6.0644 7.50005 6.0644ZM9.09752 4.74135C8.66683 4.3941 8.18439 4.12129 7.65778 3.92863C7.15353 3.74415 6.62979 3.6409 6.09567 3.61958C6.37807 3.13697 6.90163 2.81189 7.50002 2.81189C8.39674 2.81189 9.12629 3.54141 9.12629 4.43813C9.12632 4.54178 9.11615 4.64306 9.09752 4.74135V4.74135Z" fill="black"/>
</svg>
