<svg width="15" height="15" viewBox="0 0 15 15" fill="none" xmlns="http://www.w3.org/2000/svg">
<path d="M11.7188 12.2405H4.21875C4.08914 12.2405 3.98438 12.1357 3.98438 12.0061C3.98438 11.8765 4.08914 11.7717 4.21875 11.7717H11.7188C11.8484 11.7717 11.9531 11.8765 11.9531 12.0061C11.9531 12.1357 11.8484 12.2405 11.7188 12.2405Z" fill="black"/>
<path d="M10.7812 7.08421H3.28125C3.15164 7.08421 3.04688 6.97945 3.04688 6.84984C3.04688 6.72023 3.15164 6.61546 3.28125 6.61546H10.7812C10.9109 6.61546 11.0156 6.72023 11.0156 6.84984C11.0156 6.97945 10.9109 7.08421 10.7812 7.08421Z" fill="black"/>
<path d="M7.9688 11.2282H7.0313C6.90169 11.2282 6.79693 11.1234 6.79693 10.9938V10.1309H5.93396C5.80435 10.1309 5.69958 10.0261 5.69958 9.89648V8.95898C5.69958 8.82937 5.80435 8.7246 5.93396 8.7246H6.79693V7.86163C6.79693 7.73202 6.90169 7.62726 7.0313 7.62726H7.9688C8.09841 7.62726 8.20318 7.73202 8.20318 7.86163V8.7246H9.06615C9.19576 8.7246 9.30052 8.82937 9.30052 8.95898V9.89648C9.30052 10.0261 9.19576 10.1309 9.06615 10.1309H8.20318V10.9938C8.20318 11.1234 8.09841 11.2282 7.9688 11.2282ZM7.26568 10.7594H7.73443V9.89648C7.73443 9.76687 7.83919 9.6621 7.9688 9.6621H8.83177V9.19335H7.9688C7.83919 9.19335 7.73443 9.08859 7.73443 8.95898V8.09601H7.26568V8.95898C7.26568 9.08859 7.16091 9.19335 7.0313 9.19335H6.16833V9.6621H7.0313C7.16091 9.6621 7.26568 9.76687 7.26568 9.89648V10.7594Z" fill="black"/>
<path d="M10.3125 3.95836C10.1829 3.95836 10.0781 3.85359 10.0781 3.72398V3.28125C10.0781 3.15164 10.1829 3.04688 10.3125 3.04688C10.4421 3.04688 10.5469 3.15164 10.5469 3.28125V3.72398C10.5469 3.85336 10.4421 3.95836 10.3125 3.95836Z" fill="black"/>
<path d="M10.3125 3.51562H5.625C5.49539 3.51562 5.39062 3.41086 5.39062 3.28125C5.39062 3.15164 5.49539 3.04688 5.625 3.04688H10.3125C10.4421 3.04688 10.5469 3.15164 10.5469 3.28125C10.5469 3.41086 10.4421 3.51562 10.3125 3.51562Z" fill="black"/>
<path d="M4.6875 3.95836C4.55789 3.95836 4.45312 3.85359 4.45312 3.72398V3.28125C4.45312 3.15164 4.55789 3.04688 4.6875 3.04688C4.81711 3.04688 4.92188 3.15164 4.92188 3.28125V3.72398C4.92188 3.85336 4.81711 3.95836 4.6875 3.95836Z" fill="black"/>
<path d="M4.21875 3.04688C4.08914 3.04688 3.98438 2.94211 3.98438 2.8125V1.875C3.98438 1.74539 4.08914 1.64062 4.21875 1.64062C4.34836 1.64062 4.45312 1.74539 4.45312 1.875V2.8125C4.45312 2.94211 4.34836 3.04688 4.21875 3.04688Z" fill="black"/>
<path d="M4.6875 3.51562C4.29984 3.51562 3.98438 3.20016 3.98438 2.8125C3.98438 2.68289 4.08914 2.57812 4.21875 2.57812C4.34836 2.57812 4.45312 2.68289 4.45312 2.8125C4.45312 2.94187 4.55813 3.04688 4.6875 3.04688C4.81711 3.04688 4.92188 3.15164 4.92188 3.28125C4.92188 3.41086 4.81711 3.51562 4.6875 3.51562Z" fill="black"/>
<path d="M10.3125 3.51562C10.1829 3.51562 10.0781 3.41086 10.0781 3.28125C10.0781 3.15164 10.1829 3.04688 10.3125 3.04688C10.4419 3.04688 10.5469 2.94187 10.5469 2.8125C10.5469 2.68289 10.6516 2.57812 10.7812 2.57812C10.9109 2.57812 11.0156 2.68289 11.0156 2.8125C11.0156 3.20016 10.7002 3.51562 10.3125 3.51562Z" fill="black"/>
<path d="M10.7812 3.04688C10.6516 3.04688 10.5469 2.94211 10.5469 2.8125V1.875C10.5469 1.74539 10.6516 1.64062 10.7812 1.64062C10.9109 1.64062 11.0156 1.74539 11.0156 1.875V2.8125C11.0156 2.94211 10.9109 3.04688 10.7812 3.04688Z" fill="black"/>
<path d="M10.7812 2.10938C10.6516 2.10938 10.5469 2.00461 10.5469 1.875C10.5469 1.74563 10.4419 1.64062 10.3125 1.64062C10.1829 1.64062 10.0781 1.53586 10.0781 1.40625C10.0781 1.27664 10.1829 1.17188 10.3125 1.17188C10.7002 1.17188 11.0156 1.48734 11.0156 1.875C11.0156 2.00461 10.9109 2.10938 10.7812 2.10938Z" fill="black"/>
<path d="M10.3125 1.64062H4.6875C4.55789 1.64062 4.45312 1.53586 4.45312 1.40625C4.45312 1.27664 4.55789 1.17188 4.6875 1.17188H10.3125C10.4421 1.17188 10.5469 1.27664 10.5469 1.40625C10.5469 1.53586 10.4421 1.64062 10.3125 1.64062Z" fill="black"/>
<path d="M4.21875 2.10938C4.08914 2.10938 3.98438 2.00461 3.98438 1.875C3.98438 1.48734 4.29984 1.17188 4.6875 1.17188C4.81711 1.17188 4.92188 1.27664 4.92188 1.40625C4.92188 1.53586 4.81711 1.64062 4.6875 1.64062C4.55813 1.64062 4.45312 1.74563 4.45312 1.875C4.45312 2.00461 4.34836 2.10938 4.21875 2.10938Z" fill="black"/>
<path d="M3.28125 12.8906C3.15164 12.8906 3.04688 12.7859 3.04688 12.6562V6.19945C3.04688 6.06984 3.15164 5.96507 3.28125 5.96507C3.41086 5.96507 3.51562 6.06984 3.51562 6.19945V12.6562C3.51562 12.7859 3.41086 12.8906 3.28125 12.8906Z" fill="black"/>
<path d="M4.33448 4.69148C4.26557 4.69148 4.19714 4.66125 4.15097 4.60312C4.07034 4.50187 4.08722 4.35445 4.18823 4.27383C4.35651 4.13977 4.45308 3.93937 4.45308 3.72398C4.45308 3.59437 4.55784 3.48961 4.68745 3.48961C4.81706 3.48961 4.92183 3.59437 4.92183 3.72398C4.92183 4.08281 4.76081 4.4168 4.48026 4.64039C4.43737 4.67461 4.38557 4.69148 4.33448 4.69148V4.69148Z" fill="black"/>
<path d="M3.98792 4.96759C3.91902 4.96759 3.85058 4.93735 3.80441 4.87923C3.72378 4.77798 3.74066 4.63055 3.84167 4.54993L4.18832 4.2736C4.28957 4.19298 4.43746 4.20985 4.51761 4.31087C4.59824 4.41212 4.58136 4.55954 4.48035 4.64016L4.13371 4.91649C4.09058 4.95095 4.03878 4.96759 3.98792 4.96759Z" fill="black"/>
<path d="M3.28125 6.43384C3.15164 6.43384 3.04688 6.32907 3.04688 6.19946C3.04688 5.55376 3.33633 4.95282 3.84164 4.54993C3.94289 4.46907 4.09008 4.48618 4.17094 4.58719C4.25156 4.68844 4.23492 4.83587 4.13367 4.91649C3.74086 5.22962 3.51563 5.69743 3.51563 6.19946C3.51563 6.32907 3.41086 6.43384 3.28125 6.43384Z" fill="black"/>
<path d="M10.6655 4.69148C10.6144 4.69148 10.5628 4.67484 10.5197 4.64039C10.2391 4.4168 10.0781 4.08281 10.0781 3.72398C10.0781 3.59437 10.1829 3.48961 10.3125 3.48961C10.4421 3.48961 10.5469 3.59437 10.5469 3.72398C10.5469 3.93937 10.6434 4.13953 10.8117 4.27383C10.913 4.35469 10.9296 4.50211 10.849 4.60312C10.8028 4.66125 10.7344 4.69148 10.6655 4.69148Z" fill="black"/>
<path d="M11.0121 4.96759C10.9611 4.96759 10.9095 4.95095 10.8664 4.91649L10.5197 4.64016C10.4185 4.5593 10.4018 4.41188 10.4825 4.31087C10.5631 4.20985 10.7107 4.19298 10.8118 4.2736L11.1584 4.54993C11.2596 4.63079 11.2763 4.77821 11.1957 4.87923C11.1495 4.93735 11.0811 4.96759 11.0121 4.96759Z" fill="black"/>
<path d="M11.7188 6.43382C11.5892 6.43382 11.4844 6.32906 11.4844 6.19945C11.4844 5.69718 11.2592 5.2296 10.8664 4.91648C10.7649 4.83562 10.7485 4.6882 10.8291 4.58718C10.9102 4.4857 11.0576 4.46929 11.1584 4.54992C11.6637 4.95281 11.9532 5.55374 11.9532 6.19945C11.9532 6.32906 11.8484 6.43382 11.7188 6.43382Z" fill="black"/>
<path d="M11.7188 12.8906C11.5891 12.8906 11.4844 12.7859 11.4844 12.6562V6.19945C11.4844 6.06984 11.5891 5.96507 11.7188 5.96507C11.8484 5.96507 11.9531 6.06984 11.9531 6.19945V12.6562C11.9531 12.7859 11.8484 12.8906 11.7188 12.8906Z" fill="black"/>
<path d="M4.21875 13.8281C3.57258 13.8281 3.04688 13.3024 3.04688 12.6562C3.04688 12.5266 3.15164 12.4219 3.28125 12.4219C3.41086 12.4219 3.51562 12.5266 3.51562 12.6562C3.51562 13.0439 3.83109 13.3594 4.21875 13.3594C4.34836 13.3594 4.45312 13.4641 4.45312 13.5938C4.45312 13.7234 4.34836 13.8281 4.21875 13.8281Z" fill="black"/>
<path d="M10.7812 13.8281H4.21875C4.08914 13.8281 3.98438 13.7234 3.98438 13.5938C3.98438 13.4641 4.08914 13.3594 4.21875 13.3594H10.7812C10.9109 13.3594 11.0156 13.4641 11.0156 13.5938C11.0156 13.7234 10.9109 13.8281 10.7812 13.8281Z" fill="black"/>
<path d="M10.7812 13.8281C10.6516 13.8281 10.5469 13.7234 10.5469 13.5938C10.5469 13.4641 10.6516 13.3594 10.7812 13.3594C11.1689 13.3594 11.4844 13.0439 11.4844 12.6562C11.4844 12.5266 11.5891 12.4219 11.7188 12.4219C11.8484 12.4219 11.9531 12.5266 11.9531 12.6562C11.9531 13.3024 11.4274 13.8281 10.7812 13.8281Z" fill="black"/>
</svg>
