<svg width="15" height="15" viewBox="0 0 15 15" fill="none" xmlns="http://www.w3.org/2000/svg">
<path d="M12.2293 11.2506L10.2817 10.6014C10.2811 10.6012 10.2805 10.601 10.2799 10.6008L10.0009 10.5078C10.7662 10.3581 11.4712 10.1389 12.0608 9.86549C12.3259 9.7425 12.4958 9.47692 12.4937 9.18879C12.4642 5.24417 11.9147 0 7.50001 0C3.08535 0 2.53577 5.24417 2.50639 9.18879C2.50425 9.47689 2.67417 9.7425 2.93925 9.86546C3.52882 10.1389 4.23385 10.3581 4.99908 10.5078L4.71991 10.6008C4.71941 10.601 4.71895 10.6012 4.71848 10.6013L2.77079 11.2505C2.16241 11.4533 1.75366 12.0204 1.75366 12.6617V14.2641C1.75366 14.6699 2.08378 15 2.48957 15H12.5105C12.9162 15 13.2464 14.6699 13.2464 14.2641V12.6617C13.2464 12.0204 12.8376 11.4533 12.2293 11.2506ZM3.13686 9.43936C3.03842 9.39366 2.97534 9.29669 2.9761 9.19228C2.99655 6.44525 3.30095 4.42368 3.90663 3.01201C4.64066 1.30134 5.81608 0.469717 7.50001 0.469717C9.18394 0.469717 10.3594 1.30134 11.0934 3.01201C11.6991 4.42368 12.0035 6.44525 12.0239 9.19222C12.0247 9.29666 11.9615 9.39363 11.8631 9.43934C11.207 9.74361 10.3947 9.97761 9.51174 10.1174C9.49671 10.0687 9.48848 10.0174 9.48848 9.96457V9.25365C9.48848 9.25269 9.48836 9.25175 9.48833 9.25078L10.0587 8.85152C10.3172 8.67059 10.517 8.42698 10.6439 8.14775C10.8017 8.00376 10.9103 7.85657 10.9849 7.7245C10.9849 7.7245 11.0027 7.72482 11.0077 7.72482C11.2014 7.72482 11.3837 7.65044 11.5224 7.51441C11.6648 7.37487 11.7432 7.18822 11.7432 6.98889V5.99848C11.7432 5.80148 11.6663 5.61636 11.5268 5.47728C11.3873 5.33818 11.2018 5.26143 11.0049 5.26257L10.9639 5.26269C10.9721 5.10299 10.9786 4.93368 10.9835 4.75058C10.9853 4.68724 10.9613 4.62586 10.9171 4.58042C10.8832 4.5457 10.8398 4.52253 10.7929 4.51356C10.6748 4.46355 10.1397 4.19895 9.81637 3.39501C9.79067 3.33111 9.73826 3.28175 9.67299 3.25992C9.60766 3.2381 9.53611 3.24601 9.47717 3.28157C9.09725 3.51076 6.97232 4.44867 4.2463 4.50393C4.18375 4.50521 4.12431 4.53135 4.08115 4.57661C4.03797 4.62187 4.01462 4.68249 4.01629 4.74504C4.02124 4.93031 4.02777 5.10126 4.03604 5.26271L3.99502 5.2626C3.9942 5.2626 3.99341 5.2626 3.99262 5.2626C3.7965 5.2626 3.61211 5.33883 3.47313 5.47731C3.33358 5.61639 3.25677 5.80148 3.25677 5.99851V6.98892C3.25677 7.18828 3.33514 7.3749 3.47752 7.51444C3.61627 7.65047 3.79853 7.72485 3.99224 7.72485C3.99728 7.72485 4.22526 7.72034 4.22526 7.72034C4.30281 8.17682 4.55761 8.58302 4.94125 8.85158L5.51163 9.25084C5.51163 9.25181 5.51148 9.25274 5.51148 9.25371V9.96463C5.51148 10.0175 5.50325 10.0688 5.48822 10.1174C4.60524 9.97764 3.7929 9.74364 3.13686 9.43936ZM7.8758 8.01671H7.62528C7.28857 8.01671 7.01465 8.29066 7.01465 8.62734C7.01465 8.96405 7.2886 9.23798 7.62528 9.23798H7.8758C8.12409 9.23798 8.33787 9.0888 8.4332 8.87555C8.79399 8.85908 9.10674 8.81616 9.37812 8.75458L8.27658 9.52567C8.04792 9.68572 7.7795 9.77033 7.49969 9.77033C7.22058 9.77033 6.95222 9.68572 6.7235 9.52567L5.21066 8.46668C4.89848 8.24813 4.70266 7.90491 4.67348 7.52531L4.51952 5.48256C4.50871 5.32198 4.50004 5.15168 4.49324 4.96658C6.88958 4.87494 8.77425 4.15412 9.48728 3.80707C9.81772 4.46578 10.274 4.77451 10.5092 4.89765C10.5021 5.10885 10.4927 5.30115 10.4805 5.48162L10.3266 7.52493C10.3175 7.64335 10.2921 7.75816 10.2522 7.86677C9.9344 8.12189 9.38647 8.35728 8.44369 8.40448C8.35448 8.17781 8.13382 8.01671 7.8758 8.01671ZM8.01672 8.62734C8.01672 8.70504 7.9535 8.76826 7.8758 8.76826H7.62528C7.54759 8.76826 7.48437 8.70504 7.48437 8.62734C7.48437 8.54965 7.54759 8.48643 7.62528 8.48643H7.8758C7.9535 8.48643 8.01672 8.54965 8.01672 8.62734ZM5.98123 9.96457V9.57952L6.45411 9.91055C6.76214 10.1261 7.12366 10.2401 7.50039 10.2401C7.87636 10.2401 8.23791 10.1261 8.54591 9.91055L9.01879 9.57949V9.96457C9.01879 10.3898 9.28985 10.7659 9.69329 10.9004L9.81531 10.941C9.24493 11.6423 8.37282 12.4517 7.49995 12.7633C6.62714 12.4517 5.75497 11.6423 5.18459 10.941L5.30664 10.9004C5.71015 10.7659 5.98123 10.3898 5.98123 9.96457ZM10.8183 7.25133L10.9327 5.73252L11.0065 5.73226C11.077 5.73202 11.1447 5.75962 11.1952 5.80992C11.2457 5.86022 11.2735 5.92717 11.2735 5.99845V6.98886C11.2735 7.06099 11.2451 7.12846 11.1936 7.17894C11.1421 7.22941 11.0745 7.25663 11.002 7.25499L10.8183 7.25133ZM4.18173 7.25136L3.99801 7.25502C3.92605 7.25643 3.85785 7.22944 3.80635 7.17899C3.75487 7.12852 3.72648 7.06099 3.72648 6.98892V5.99851C3.72648 5.92726 3.75429 5.86031 3.80474 5.80998C3.85519 5.75965 3.92143 5.73237 3.9935 5.73231L4.06727 5.73255L4.18173 7.25136ZM3.75783 14.5303H2.48957C2.34279 14.5303 2.22338 14.4109 2.22338 14.2641V12.6617C2.22338 12.4935 2.26478 12.333 2.3389 12.1909L3.5331 13.3851C3.678 13.53 3.7578 13.7227 3.7578 13.9276V14.5303H3.75783ZM10.7724 13.9276V14.5303H4.22758V13.9276C4.22758 13.5972 4.09891 13.2866 3.86529 13.053L2.6476 11.8353C2.72928 11.7767 2.82027 11.7292 2.91933 11.6962L4.71007 11.0993C5.6546 12.327 6.72487 13.0065 7.42744 13.2348C7.45103 13.2425 7.47555 13.2463 7.50004 13.2463C7.52453 13.2463 7.54905 13.2425 7.57264 13.2348C8.27524 13.0065 9.34548 12.327 10.29 11.0993L12.0808 11.6962C12.1798 11.7292 12.2708 11.7767 12.3525 11.8353L11.1348 13.053C10.9011 13.2866 10.7724 13.5972 10.7724 13.9276ZM12.7766 14.2641C12.7766 14.4109 12.6572 14.5303 12.5105 14.5303H11.2422V13.9276C11.2422 13.7227 11.322 13.53 11.4669 13.3851L12.6611 12.1909C12.7352 12.333 12.7766 12.4935 12.7766 12.6617V14.2641H12.7766Z" fill="black"/>
</svg>
