<svg width="15" height="15" viewBox="0 0 15 15" fill="none" xmlns="http://www.w3.org/2000/svg">
<path d="M1.90552 9.04999H1.49695C1.3756 9.04999 1.27722 9.14837 1.27722 9.26971C1.27722 9.39106 1.3756 9.48944 1.49695 9.48944H1.90552C2.02687 9.48944 2.12525 9.39106 2.12525 9.26971C2.12525 9.14837 2.0269 9.04999 1.90552 9.04999Z" fill="black"/>
<path d="M1.90552 10.5922H1.49695C1.3756 10.5922 1.27722 10.6906 1.27722 10.812C1.27722 10.9333 1.3756 11.0317 1.49695 11.0317H1.90552C2.02687 11.0317 2.12525 10.9333 2.12525 10.812C2.12525 10.6906 2.0269 10.5922 1.90552 10.5922Z" fill="black"/>
<path d="M1.90552 12.1336H1.49695C1.3756 12.1336 1.27722 12.232 1.27722 12.3533C1.27722 12.4746 1.3756 12.573 1.49695 12.573H1.90552C2.02687 12.573 2.12525 12.4746 2.12525 12.3533C2.12525 12.232 2.0269 12.1336 1.90552 12.1336Z" fill="black"/>
<path d="M13.8884 4.1119H12.5149C12.8101 3.46327 13.1055 2.81484 13.4007 2.16618L13.4846 1.98179C13.7148 1.47562 13.4908 0.876766 12.9853 0.646903C12.4801 0.417186 11.8814 0.641425 11.6504 1.14709L10.3011 4.1119H5.85193C5.73059 4.1119 5.63221 4.21028 5.63221 4.33163C5.63221 4.45298 5.73059 4.55136 5.85193 4.55136H10.1011L9.81272 5.1849H3.37298C3.0888 5.1849 2.85762 5.41611 2.85762 5.70026V12.8549C2.85762 13.1386 3.08883 13.3695 3.37298 13.3695H13.3269C13.6111 13.3695 13.8423 13.1386 13.8423 12.8549V9.78712C13.8423 9.66577 13.7439 9.56739 13.6226 9.56739C13.5012 9.56739 13.4029 9.66577 13.4029 9.78712V12.8549C13.4029 12.8956 13.3681 12.93 13.3269 12.93H3.37301C3.33185 12.93 3.2971 12.8956 3.2971 12.8549V5.70026C3.2971 5.6591 3.33188 5.62435 3.37301 5.62435H9.61274L8.96842 7.04013C8.96833 7.0403 8.9683 7.04045 8.96821 7.04062C8.96815 7.04074 8.9681 7.04086 8.96804 7.04098C8.96777 7.04153 8.96763 7.04212 8.96736 7.04268C8.92418 7.1378 8.92623 7.20732 8.92819 7.26864L8.97803 8.73108H6.65253C6.14262 8.73108 5.72774 9.14596 5.72774 9.6559C5.72774 10.1654 6.14262 10.5799 6.65253 10.5799H7.45559C7.57693 10.5799 7.67531 10.4815 7.67531 10.3601C7.67531 10.2388 7.57693 10.1404 7.45559 10.1404H6.65253C6.38493 10.1404 6.1672 9.92306 6.1672 9.6559C6.1672 9.38827 6.38493 9.17054 6.65253 9.17054H9.20537C9.25509 9.17054 9.30548 9.15287 9.34397 9.12132L10.6481 8.06121L10.6542 8.05626C10.7007 8.01885 10.7585 7.97232 10.8013 7.876C10.8013 7.87594 10.8013 7.87591 10.8014 7.87585C10.8014 7.87579 10.8014 7.87576 10.8014 7.8757C11.1433 7.12547 11.4847 6.37479 11.8264 5.62435H13.327C13.3681 5.62435 13.4029 5.65913 13.4029 5.70026V8.76808C13.4029 8.88943 13.5013 8.98781 13.6226 8.98781C13.744 8.98781 13.8423 8.88943 13.8423 8.76808V5.70026C13.8423 5.41608 13.6111 5.1849 13.327 5.1849H12.0265C12.1226 4.97373 12.2188 4.76256 12.3149 4.55136H13.8884C14.259 4.55136 14.5606 4.85253 14.5606 5.22275V13.3316C14.5606 13.7023 14.259 14.0038 13.8884 14.0038H1.11082C0.740625 14.0038 0.439453 13.7023 0.439453 13.3316V5.22275C0.439453 4.85256 0.740625 4.55136 1.11082 4.55136H4.83296C4.95431 4.55136 5.05269 4.45298 5.05269 4.33163C5.05269 4.21028 4.95431 4.1119 4.83296 4.1119H1.11082C0.498311 4.1119 0 4.61021 0 5.22275V13.3316C0 13.9446 0.498311 14.4433 1.11082 14.4433H13.8884C14.5013 14.4433 15 13.9446 15 13.3316V5.22275C15 4.61021 14.5013 4.1119 13.8884 4.1119V4.1119ZM12.0502 1.32937C12.1806 1.04405 12.5184 0.917313 12.8033 1.04692C13.0883 1.1765 13.2145 1.5143 13.0846 1.79985C13.0846 1.79985 10.8225 6.76948 10.4925 7.49376L9.45902 7.0231L12.0502 1.32937ZM9.37462 7.4676L10.2124 7.8491L9.40986 8.5014L9.37462 7.4676Z" fill="black"/>
</svg>
