<svg width="15" height="15" viewBox="0 0 15 15" fill="none" xmlns="http://www.w3.org/2000/svg">
<path d="M9.75586 2.63672C9.95002 2.63672 10.1074 2.47932 10.1074 2.28516C10.1074 2.09099 9.95002 1.93359 9.75586 1.93359C9.5617 1.93359 9.4043 2.09099 9.4043 2.28516C9.4043 2.47932 9.5617 2.63672 9.75586 2.63672Z" fill="black"/>
<path d="M14.7643 2.14942C14.6315 2.0169 14.4552 1.94398 14.2677 1.94398C14.2672 1.94398 14.2667 1.94398 14.2662 1.94398L11.7808 1.9491L11.2531 1.2729C10.6351 0.481012 9.7053 0.0272827 8.70103 0.0272827C8.69888 0.0272827 8.62887 0.0274115 8.62887 0.0274115C8.28094 0.0280623 7.94533 0.081989 7.62925 0.180675C7.61363 0.180192 7.59804 0.179532 7.58234 0.179532C7.18603 0.179532 6.81344 0.33387 6.5332 0.614107L3.16349 3.98382C2.61781 4.5295 2.5088 5.37585 2.89845 6.042C2.95819 6.14415 3.02815 6.23862 3.10631 6.32493C2.85305 6.62194 2.60877 6.92724 2.37554 7.24168C1.47111 8.46098 0.687907 9.85042 0.0477249 11.3714C-0.00251467 11.4907 0.0535041 11.6281 0.172809 11.6784C0.202506 11.6909 0.233319 11.6968 0.263618 11.6968C0.355113 11.6968 0.442031 11.6429 0.479739 11.5533C1.10542 10.0668 1.86991 8.71013 2.75202 7.52095C2.97988 7.21376 3.21853 6.91552 3.46599 6.62545C3.58665 6.70061 3.71704 6.76127 3.85514 6.80466C4.10005 6.88164 4.3505 6.91881 4.59827 6.91881C5.36004 6.91881 6.0963 6.56737 6.56742 5.9408C7.165 5.14607 7.60917 4.31684 7.88764 3.47616C7.92835 3.35328 7.86175 3.22067 7.73887 3.17997C7.61596 3.13927 7.48338 3.20589 7.44269 3.32876C7.18025 4.12106 6.75971 4.9051 6.19274 5.65909C5.68754 6.33105 4.80469 6.61174 3.99568 6.35748C3.7036 6.26569 3.45763 6.06961 3.30305 5.80533C3.02098 5.32306 3.09989 4.71033 3.49497 4.31527L6.86468 0.945557C7.05637 0.753854 7.31126 0.648282 7.58234 0.648282C7.85345 0.648282 8.10834 0.753854 8.30003 0.945557C8.39155 1.03711 8.53992 1.03711 8.6315 0.945557C8.72303 0.854033 8.72303 0.705631 8.6315 0.614107C8.59034 0.572942 8.54696 0.534842 8.50203 0.499201C8.54438 0.497272 8.58696 0.496242 8.62976 0.496161C8.62976 0.496161 8.69914 0.496033 8.70103 0.496033C9.55982 0.496033 10.3551 0.884102 10.8836 1.56129L11.4818 2.32792C11.5262 2.38484 11.5944 2.4181 11.6666 2.4181H11.667L12.7842 2.41579V2.66907C12.7842 2.92674 12.9494 3.15149 13.1953 3.22834L14.502 3.63664V3.913C14.502 4.26231 14.2514 4.55455 13.9062 4.60788L10.101 5.19565C10.0802 5.19885 10.0605 5.20552 10.0416 5.21396C9.51091 5.2047 9.0456 4.99484 8.58069 4.55439C8.48674 4.46542 8.33842 4.46935 8.24936 4.56335C8.16032 4.65732 8.16436 4.80566 8.25831 4.89468C8.69519 5.30859 9.1535 5.55588 9.649 5.6451C9.45216 5.90388 9.26362 6.19923 9.08147 6.5342L9.09204 6.29638C9.09888 6.14236 9.01379 5.99908 8.87526 5.93136C8.73676 5.86366 8.57142 5.88453 8.45403 5.98452L7.88784 6.46707C6.85361 7.34854 6.03132 8.47779 5.50993 9.7327C4.98854 10.9876 4.7685 12.3671 4.87361 13.722L4.8872 13.897C4.90786 14.1635 4.89203 14.4305 4.84016 14.6905C4.81484 14.8174 4.89724 14.9409 5.02416 14.9662C5.15121 14.9915 5.27455 14.9092 5.29987 14.7822C5.36013 14.4801 5.37852 14.17 5.35452 13.8608L5.34093 13.6857C5.24154 12.4042 5.44965 11.0995 5.9428 9.91256C6.43596 8.72561 7.21367 7.65756 8.19191 6.82384L8.61542 6.46288L8.55835 7.74662C8.55746 7.76647 8.55806 7.78605 8.55945 7.80545C8.55926 7.8064 8.55896 7.80729 8.55878 7.80825C8.52741 7.9751 8.47785 8.11528 8.40953 8.23116L8.11777 8.52291C8.00975 8.58455 7.88255 8.62449 7.7346 8.64361C7.60623 8.6602 7.51562 8.77772 7.53221 8.9061C7.54749 9.02428 7.64829 9.11046 7.76436 9.11046C7.77437 9.11046 7.7845 9.10981 7.79468 9.1085C8.33916 9.03812 8.72113 8.74637 8.91591 8.25794C8.95468 8.27041 8.99524 8.27893 9.03748 8.28171C9.30685 8.29939 9.74006 8.32834 10.172 8.35732C10.8643 8.40377 11.432 8.93689 11.5217 9.62496L11.5912 10.1576C11.6234 10.4044 11.8272 10.5923 12.0758 10.6043L12.6648 10.6328C12.8224 10.6404 12.9651 10.7186 13.0565 10.8472C13.1479 10.9758 13.1746 11.1363 13.1299 11.2876L12.8649 12.1847C12.7634 12.5283 12.4677 12.7748 12.1115 12.8128L10.2472 13.0116C9.98173 13.04 9.74985 13.1985 9.62688 13.4356C9.50432 13.672 9.50835 13.952 9.63778 14.1845C9.65481 14.2151 9.67154 14.2456 9.68808 14.2762C9.78441 14.4547 9.87467 14.6408 9.95639 14.8295C9.99469 14.9179 10.081 14.9708 10.1716 14.9708C10.2027 14.9708 10.2343 14.9645 10.2646 14.9514C10.3834 14.9 10.438 14.762 10.3865 14.6432C10.2995 14.4422 10.2033 14.2439 10.1006 14.0536C10.0831 14.0211 10.0653 13.9887 10.0473 13.9564C9.99386 13.8604 9.99232 13.7492 10.043 13.6513C10.0941 13.5528 10.1867 13.4895 10.297 13.4778L12.1613 13.2789C12.7064 13.2208 13.1591 12.8434 13.3145 12.3176L13.5795 11.4204C13.6652 11.1302 13.6139 10.8224 13.4386 10.5757C13.2634 10.3291 12.9896 10.1792 12.6875 10.1646L12.0985 10.1361C12.0767 10.1351 12.0588 10.1186 12.056 10.097L11.9865 9.56433C11.868 8.65531 11.118 7.951 10.2033 7.88963C9.77119 7.86062 9.33775 7.83167 9.06821 7.81396C9.04381 7.81236 9.02555 7.79194 9.02664 7.76747L9.03079 7.67416C9.05514 7.65231 9.07541 7.62517 9.08927 7.59319C9.45348 6.75255 9.83508 6.11461 10.2542 5.64629L13.9778 5.07114C14.5531 4.98226 14.9708 4.49518 14.9708 3.913V2.64711C14.9708 2.45902 14.8974 2.28227 14.7643 2.14942V2.14942ZM13.3351 2.78093C13.286 2.76555 13.2529 2.72061 13.2529 2.66907V2.41482L14.2671 2.41273H14.2676C14.3301 2.41273 14.3889 2.43704 14.4332 2.48121C14.4776 2.5255 14.502 2.58441 14.502 2.64711V3.14556L13.3351 2.78093Z" fill="black"/>
<path d="M10.0488 10.2832C10.243 10.2832 10.4004 10.1258 10.4004 9.93164C10.4004 9.73748 10.243 9.58008 10.0488 9.58008C9.85467 9.58008 9.69727 9.73748 9.69727 9.93164C9.69727 10.1258 9.85467 10.2832 10.0488 10.2832Z" fill="black"/>
</svg>
