<svg width="15" height="15" viewBox="0 0 15 15" fill="none" xmlns="http://www.w3.org/2000/svg">
<path d="M14.3088 14.6264L13.188 4.18431C13.1693 4.01619 13.0199 3.88543 12.8518 3.88543H10.7783V3.25031C10.7783 1.45704 9.32127 0 7.528 0C5.73472 0 4.27769 1.45704 4.27769 3.25031V3.88543H2.14817C1.98005 3.88543 1.83061 4.01619 1.81194 4.18431L0.691139 14.6264C0.672459 14.7198 0.709818 14.8132 0.765858 14.8879C0.821898 14.9626 0.915298 15 1.0087 15H13.9913C14.0847 15 14.1781 14.9626 14.2341 14.8879C14.2901 14.8132 14.3275 14.7198 14.3088 14.6264ZM10.4421 5.7721C10.6102 5.7721 10.7409 5.90286 10.7409 6.07098C10.7409 6.2391 10.6102 6.36986 10.4421 6.36986C10.2739 6.36986 10.1432 6.2391 10.1432 6.07098C10.1432 5.90286 10.2739 5.7721 10.4421 5.7721ZM4.95017 3.25031C4.95017 1.83064 6.10832 0.672478 7.528 0.672478C8.94767 0.672478 10.1058 1.83064 10.1058 3.25031V3.88543H4.95017V3.25031ZM4.61393 5.7721C4.78205 5.7721 4.91281 5.90286 4.91281 6.07098C4.91281 6.2391 4.78205 6.36986 4.61393 6.36986C4.44581 6.36986 4.31505 6.2391 4.31505 6.07098C4.31505 5.90286 4.44581 5.7721 4.61393 5.7721ZM1.40098 14.3088L2.44705 4.53923H4.27769V5.15567C3.90409 5.28643 3.64257 5.64135 3.64257 6.0523C3.64257 6.57534 4.07221 7.00498 4.59525 7.00498C5.11828 7.00498 5.54792 6.57534 5.54792 6.0523C5.54792 5.64135 5.2864 5.28643 4.91281 5.15567V4.53923H10.0685V5.15567C9.69487 5.28643 9.43335 5.64135 9.43335 6.0523C9.43335 6.57534 9.86299 7.00498 10.386 7.00498C10.9091 7.00498 11.3387 6.57534 11.3387 6.0523C11.3387 5.64135 11.0772 5.28643 10.7036 5.15567V4.53923H12.6089L13.655 14.3088H1.40098Z" fill="black"/>
</svg>
