<svg width="15" height="15" viewBox="0 0 15 15" fill="none" xmlns="http://www.w3.org/2000/svg">
<g clip-path="url(#clip0_287_4550)">
<path d="M10.3587 0H4.64129C3.98211 0 3.44592 0.53625 3.44592 1.19537V13.8046C3.44592 14.4638 3.98211 15 4.64129 15H10.3587C11.0179 15 11.5541 14.4638 11.5541 13.8046V1.19537C11.5541 0.53625 11.0179 0 10.3587 0V0ZM3.85133 2.14131H11.1487V12.04H3.85133V2.14131ZM4.64129 0.40541H10.3587C10.7943 0.40541 11.1487 0.759814 11.1487 1.19537V1.73593H3.85133V1.19537C3.85133 0.759814 4.20568 0.40541 4.64129 0.40541ZM10.3587 14.5946H4.64129C4.20568 14.5946 3.85133 14.2402 3.85133 13.8046V12.4454H11.1487V13.8046C11.1487 14.2402 10.7943 14.5946 10.3587 14.5946ZM7.5 12.8352C7.09022 12.8352 6.75676 13.1686 6.75676 13.5784C6.75676 13.9882 7.09025 14.3217 7.5 14.3217C7.90974 14.3217 8.24323 13.9882 8.24323 13.5784C8.24323 13.1686 7.90977 12.8352 7.5 12.8352ZM7.5 13.9163C7.31367 13.9163 7.16214 13.7648 7.16214 13.5784C7.16214 13.3921 7.31364 13.2406 7.5 13.2406C7.68635 13.2406 7.83785 13.3921 7.83785 13.5784C7.83785 13.7648 7.68632 13.9163 7.5 13.9163V13.9163ZM6.08106 1.04329C6.08106 0.931318 6.17185 0.840586 6.28376 0.840586H8.7162C8.82811 0.840586 8.9189 0.931318 8.9189 1.04329C8.9189 1.15526 8.82811 1.246 8.7162 1.246H6.28376C6.17185 1.24597 6.08106 1.15526 6.08106 1.04329V1.04329Z" fill="black"/>
</g>
<defs>
<clipPath id="clip0_287_4550">
<rect width="15" height="15" fill="white"/>
</clipPath>
</defs>
</svg>
