<svg width="15" height="15" viewBox="0 0 15 15" fill="none" xmlns="http://www.w3.org/2000/svg">
<g clip-path="url(#clip0_287_4556)">
<path d="M2.84464 8.72125C2.70504 8.70338 2.5935 8.79992 2.57771 8.92337C2.56195 9.04648 2.64509 9.1683 2.78513 9.18622C2.91381 9.20263 3.03093 9.11169 3.04737 8.98349C3.06378 8.85511 2.97304 8.73769 2.84464 8.72125V8.72125Z" fill="black"/>
<path d="M15 9.37608C15 8.20815 14.0507 7.26564 12.8907 7.26564C12.153 7.26564 12.1137 7.18557 11.2252 6.66728C11.3355 6.44606 11.0716 6.2275 10.8751 6.37501L10.8091 6.42455L10.0453 5.97903C10.1755 5.75957 9.90793 5.51822 9.70321 5.67188L9.62252 5.73241L8.86426 5.29008C9.01613 5.07182 8.74247 4.81029 8.53132 4.96876L8.43599 5.04024L6.81657 4.09559C6.4467 3.87979 5.96678 3.98534 5.72499 4.34892L5.64493 4.4693C5.46182 4.74434 5.46197 5.09971 5.64525 5.37464L5.75154 5.53407L5.00537 5.90714C4.53855 6.14055 3.96504 5.99368 3.67116 5.55279L3.25414 4.92724C2.81015 4.26135 1.81633 4.30576 1.43322 5.00801C0.904758 5.97686 0.908538 5.96526 0.83843 6.11248C0.500372 6.77861 0.323623 7.72976 0.461583 8.64477L0.0167955 9.75673C-0.0266226 9.86528 0.0165904 9.98926 0.118134 10.0473C1.22679 10.6808 2.48773 11.0157 3.76464 11.0157H12.8146C13.7639 11.0157 14.6537 10.4298 14.9883 9.44815C14.9951 9.42767 14.9999 9.40095 15 9.37608V9.37608ZM14.5232 9.21588C13.807 9.47071 12.8666 9.6094 12.0974 9.6094C10.9385 9.6094 9.77264 9.55693 8.61309 9.45348L9.62613 8.10283C10.5949 8.48038 11.6133 8.67189 12.6563 8.67189C13.1128 8.67189 13.45 8.24325 13.3384 7.79697C13.9768 7.97838 14.4575 8.53716 14.5232 9.21588V9.21588ZM6.03513 4.72908C6.12795 4.58954 6.19843 4.45313 6.40524 4.45313C6.53922 4.45313 6.48346 4.44396 8.029 5.34549L7.59385 5.67185C7.49029 5.74952 7.46931 5.89644 7.54695 5.99998C7.6245 6.10337 7.77145 6.12461 7.87507 6.04688L8.46845 5.60186L9.21553 6.03766L8.7657 6.37501C8.66214 6.45268 8.64116 6.5996 8.7188 6.70314C8.79635 6.80653 8.9433 6.82777 9.04692 6.75004L9.65495 6.29403L10.402 6.72983L9.93755 7.07817C9.83399 7.15583 9.81301 7.30276 9.89065 7.40629C9.9682 7.50968 10.1152 7.53092 10.2188 7.4532L10.8415 6.9862L11.6316 7.4471C11.9632 7.64052 12.346 7.73445 12.6563 7.73445C12.7862 7.73445 12.8907 7.83886 12.8907 7.96883C12.8907 8.09879 12.7862 8.2032 12.6563 8.2032C11.0027 8.2032 9.41905 7.68535 8.10716 6.75927L6.26456 5.45872L6.03522 5.11471C5.9572 4.99755 5.95714 4.84621 6.03513 4.72908V4.72908ZM1.84472 5.23257C2.05927 4.8392 2.61564 4.81477 2.86411 5.18734L3.28113 5.81289C3.70743 6.45241 4.53879 6.66452 5.21502 6.32647L6.07322 5.89738C7.94902 7.22134 8.28582 7.50476 9.18157 7.91442L8.06644 9.40118C7.78976 9.37259 7.51364 9.3408 7.23807 9.30641C7.16169 8.88444 6.93297 8.52731 6.62872 8.28415C6.19574 7.9376 5.71158 7.66572 5.18983 7.47608L1.37729 6.08954L1.84472 5.23257ZM12.8147 10.5469H3.76464C2.63712 10.5469 1.52278 10.268 0.528907 9.73863L0.85302 8.92836L1.8502 9.06155C1.97893 9.07868 2.09644 8.98816 2.11352 8.86025C2.13066 8.73195 2.04054 8.61406 1.91222 8.59692L0.910003 8.46307C0.830139 7.80283 0.922102 7.12841 1.17321 6.51411L5.02972 7.91662C5.50339 8.08877 5.94285 8.33557 6.33601 8.65024C6.51871 8.79623 6.66481 9.00067 6.74058 9.24122C6.73756 9.24081 3.74589 8.84009 3.71874 8.84009C3.5893 8.84009 3.48451 8.94503 3.48451 9.07446C3.48451 9.19452 3.57492 9.29349 3.69128 9.3072C6.86107 9.73016 8.91438 10.0781 12.0974 10.0781C12.8032 10.0781 13.6171 9.96984 14.3028 9.77706C13.9676 10.2516 13.4179 10.5469 12.8147 10.5469V10.5469Z" fill="black"/>
</g>
<defs>
<clipPath id="clip0_287_4556">
<rect width="15" height="15" fill="white"/>
</clipPath>
</defs>
</svg>
