<svg width="15" height="15" viewBox="0 0 15 15" fill="none" xmlns="http://www.w3.org/2000/svg">
<path d="M5.75062 11.707L7.5 13.4564L9.24938 11.707C9.48141 11.475 9.60938 11.1663 9.60938 10.8382C9.60938 10.1606 9.05813 9.60937 8.38055 9.60937C8.05242 9.60937 7.74375 9.7371 7.51172 9.96937L7.5 9.98109L7.48828 9.96937C7.25602 9.7371 6.94758 9.60937 6.61945 9.60937C5.94188 9.60937 5.39062 10.1606 5.39062 10.8382C5.39062 11.1663 5.51836 11.4748 5.75062 11.707V11.707ZM6.61945 10.0781C6.82242 10.0781 7.0132 10.1571 7.15688 10.3008L7.5 10.6439L7.84313 10.3008C7.9868 10.1573 8.17758 10.0781 8.38055 10.0781C8.79961 10.0781 9.14063 10.4191 9.14063 10.8382C9.14063 11.0412 9.06164 11.2319 8.91797 11.3756L7.5 12.7936L6.08203 11.3756C5.93836 11.2319 5.85938 11.0412 5.85938 10.8382C5.85938 10.4191 6.20039 10.0781 6.61945 10.0781V10.0781Z" fill="black"/>
<path d="M14.7284 3.8925C14.753 3.8257 14.7656 3.75562 14.7656 3.68461V3.64336C14.7656 3.31453 14.498 3.04687 14.1692 3.04687C14.0541 3.04687 13.9423 3.07992 13.846 3.14203L12.4219 4.06007V2.28843L12.3478 2.13984C12.049 1.54289 11.4488 1.17187 10.7813 1.17187C10.1138 1.17187 9.51354 1.54289 9.21471 2.14008L9.14064 2.28843V5.85937H8.20314V2.28843L7.33431 0.550779C7.23681 0.355779 7.04064 0.234373 6.82221 0.234373H6.77135C6.55314 0.234373 6.35674 0.355779 6.25924 0.551013L5.39064 2.28843V3.39492L5.22377 2.94961C5.14056 2.72742 4.92494 2.57812 4.68752 2.57812C4.45009 2.57812 4.23447 2.72742 4.15127 2.94961L3.96634 3.44297L2.71689 0.175545L0.161499 1.02726L2.03205 5.85937H1.64064C0.865093 5.85937 0.23439 6.49007 0.23439 7.26562V13.3594C0.23439 14.1349 0.865093 14.7656 1.64064 14.7656H13.3594C14.1349 14.7656 14.7656 14.1349 14.7656 13.3594V7.26562C14.7656 6.65836 14.3799 6.13711 13.8352 5.94187L14.0649 5.64234L14.7284 3.8925ZM14.1 3.53578C14.1792 3.48445 14.2967 3.54797 14.2969 3.64312V3.68437C14.2969 3.69961 14.2941 3.71484 14.2889 3.7289L13.77 5.12039L12.7976 4.37507L14.1 3.53578ZM11.0096 8.20312L13.1726 5.25351L13.5502 5.54297L11.5113 8.20312H11.0096ZM3.98439 4.92187H5.39064V8.20312H3.98439V4.92187ZM10.0781 8.67187V14.2969H4.92189V8.67187H10.0781ZM7.73439 2.57812V3.04687H5.85939V2.57812H7.73439ZM11.9531 2.57812V3.98437H11.4844V3.75C11.4844 3.36234 11.1689 3.04687 10.7813 3.04687C10.3936 3.04687 10.0781 3.36234 10.0781 3.75V3.98437H9.60939V2.57812H11.9531ZM12.8004 4.96828L10.4281 8.20312H9.73947L12.4341 4.6875L12.8004 4.96828ZM11.4844 4.45312H11.9531V4.54476L11.4844 5.15625V4.45312ZM11.0156 5.76773L10.5469 6.37922V3.75C10.5469 3.62086 10.6521 3.51562 10.7813 3.51562C10.9104 3.51562 11.0156 3.62086 11.0156 3.75V5.76773ZM10.0781 4.45312V6.99093L9.60939 7.60242V4.45312H10.0781ZM10.7813 1.64062C11.1722 1.64062 11.5294 1.8164 11.7694 2.10937H9.79291C10.0331 1.8164 10.3903 1.64062 10.7813 1.64062ZM9.14064 6.32812V8.20312H8.20314V6.32812H9.14064ZM6.67877 0.760545C6.69635 0.725154 6.73197 0.703123 6.77158 0.703123H6.82244C6.86205 0.703123 6.89744 0.725154 6.91525 0.760545L7.58955 2.10937H6.00424L6.67877 0.760545ZM5.85939 3.51562H7.73439V8.20312H5.85939V4.64507V3.51562ZM4.59025 3.11414C4.62049 3.03351 4.75431 3.03351 4.78455 3.11414L5.28681 4.45312H4.08822L4.59025 3.11414ZM2.43939 0.761951L3.71791 4.10554L3.51564 4.64507V8.20312H3.44181L0.776031 1.31648L2.43939 0.761951ZM1.64064 6.32812H2.21345L2.93931 8.20312H1.64064C1.12361 8.20312 0.70314 7.78265 0.70314 7.26562C0.70314 6.74859 1.12361 6.32812 1.64064 6.32812ZM0.70314 13.3594V8.31093C0.952281 8.53453 1.28017 8.67187 1.64064 8.67187H4.45314V14.2969H1.64064C1.12361 14.2969 0.70314 13.8764 0.70314 13.3594V13.3594ZM13.3594 14.2969H10.5469V8.67187H13.3594C13.7199 8.67187 14.0478 8.53453 14.2969 8.31093V13.3594C14.2969 13.8764 13.8764 14.2969 13.3594 14.2969ZM14.2969 7.26562C14.2969 7.78265 13.8764 8.20312 13.3594 8.20312H12.102L13.5249 6.34687C13.9653 6.42539 14.2969 6.80671 14.2969 7.26562V7.26562Z" fill="black"/>
</svg>
