<svg width="15" height="15" viewBox="0 0 15 15" fill="none" xmlns="http://www.w3.org/2000/svg">
<path fill-rule="evenodd" clip-rule="evenodd" d="M7.5 14.9414C7.44141 14.9414 7.38281 14.9121 7.32422 14.8535L6.29883 13.5352C6.26953 13.5059 6.26953 13.4473 6.26953 13.418L6.5625 3.83789C6.5625 3.7207 6.65039 3.63281 6.76758 3.63281C6.88477 3.63281 6.97266 3.7207 6.97266 3.83789L6.67969 13.3594L7.5 14.4141L8.32031 13.3594L8.02734 3.83789C8.02734 3.7207 8.11523 3.63281 8.23242 3.63281C8.34961 3.63281 8.4375 3.7207 8.4375 3.83789L8.73047 13.418C8.73047 13.4473 8.70117 13.5059 8.67188 13.5352L7.64648 14.8535C7.61719 14.9121 7.55859 14.9414 7.5 14.9414Z" fill="black"/>
<path fill-rule="evenodd" clip-rule="evenodd" d="M6.62109 9.46289C6.5625 9.46289 6.50391 9.43359 6.47461 9.4043C6.38672 9.31641 6.38672 9.19922 6.47461 9.11133L8.20312 7.38281C8.29102 7.29492 8.4082 7.29492 8.49609 7.38281C8.58398 7.4707 8.58398 7.58789 8.49609 7.67578L6.76758 9.4043C6.73828 9.43359 6.67969 9.46289 6.62109 9.46289Z" fill="black"/>
<path fill-rule="evenodd" clip-rule="evenodd" d="M6.5625 10.9863C6.50391 10.9863 6.44531 10.957 6.41602 10.9277C6.32812 10.8398 6.32812 10.7227 6.41602 10.6348L8.23242 8.81836C8.32031 8.73047 8.4375 8.73047 8.52539 8.81836C8.61328 8.90625 8.61328 9.02344 8.52539 9.11133L6.70898 10.9277C6.67969 10.957 6.62109 10.9863 6.5625 10.9863Z" fill="black"/>
<path fill-rule="evenodd" clip-rule="evenodd" d="M6.50391 12.5391C6.44531 12.5391 6.38672 12.5098 6.35742 12.4805C6.26953 12.3926 6.26953 12.2754 6.35742 12.1875L8.29102 10.2539C8.37891 10.166 8.49609 10.166 8.58398 10.2539C8.67188 10.3418 8.67188 10.459 8.58398 10.5469L6.65039 12.4805C6.62109 12.5098 6.5625 12.5391 6.50391 12.5391Z" fill="black"/>
<path fill-rule="evenodd" clip-rule="evenodd" d="M6.65039 13.8574C6.5918 13.8574 6.5332 13.8281 6.50391 13.7988C6.41602 13.7109 6.41602 13.5938 6.50391 13.5059L8.32031 11.6895C8.4082 11.6016 8.52539 11.6016 8.61328 11.6895C8.70117 11.7773 8.70117 11.8945 8.61328 11.9824L6.79688 13.7988C6.76758 13.8281 6.70898 13.8574 6.65039 13.8574Z" fill="black"/>
<path fill-rule="evenodd" clip-rule="evenodd" d="M7.5 4.83398C7.44141 4.83398 7.38281 4.80469 7.35352 4.77539L4.36523 1.55273C4.33594 1.49414 4.30664 1.43555 4.30664 1.37695C4.30664 1.31836 4.33594 1.28906 4.39453 1.23047C6.47461 -0.410156 8.55469 -0.410156 10.6055 1.23047C10.6641 1.28906 10.6934 1.31836 10.6934 1.37695C10.6934 1.43555 10.6934 1.49414 10.6348 1.55273L7.64648 4.77539C7.61719 4.80469 7.55859 4.83398 7.5 4.83398ZM4.80469 1.43555L7.5 4.33594L10.1953 1.43555C8.4082 0.0585938 6.62109 0.0585938 4.80469 1.43555Z" fill="black"/>
<path fill-rule="evenodd" clip-rule="evenodd" d="M5.39059 5.06836C5.3027 5.06836 5.2441 5.03906 5.21481 4.95117L3.19333 1.49414C3.13473 1.40625 3.16403 1.28906 3.25192 1.23047C3.36911 1.17187 3.48629 1.20117 3.54489 1.28906L5.39059 4.45312L6.12301 3.19336C6.1816 3.10547 6.29879 3.07617 6.41598 3.13476C6.50387 3.19336 6.53317 3.31054 6.47457 3.39844L5.56637 4.95117C5.53707 5.03906 5.47848 5.06836 5.39059 5.06836Z" fill="black"/>
<path fill-rule="evenodd" clip-rule="evenodd" d="M9.60934 5.06836C9.52145 5.06836 9.46286 5.03906 9.43356 4.95117L8.52536 3.39844C8.46676 3.31054 8.49606 3.19336 8.58395 3.13476C8.70114 3.07617 8.81833 3.10547 8.87692 3.19336L9.60934 4.45312L11.455 1.28906C11.5136 1.20117 11.6308 1.17187 11.748 1.23047C11.8359 1.28906 11.8652 1.40625 11.8066 1.49414L9.78512 4.95117C9.75582 5.03906 9.66793 5.06836 9.60934 5.06836Z" fill="black"/>
<path fill-rule="evenodd" clip-rule="evenodd" d="M12.9199 15H2.08008C1.69922 15 1.40625 14.707 1.40625 14.3262V1.875C1.40625 1.49414 1.69922 1.20117 2.08008 1.20117H4.51172C4.57031 1.20117 4.62891 1.23047 4.6582 1.25977L7.5 4.33594L10.3418 1.25977C10.3711 1.23047 10.4297 1.20117 10.4883 1.20117H12.9199C13.3008 1.20117 13.5938 1.49414 13.5938 1.875V14.3262C13.5938 14.707 13.3008 15 12.9199 15ZM2.08008 1.61133C1.93359 1.61133 1.81641 1.72852 1.81641 1.875V14.3262C1.81641 14.4727 1.93359 14.5898 2.08008 14.5898H12.9199C13.0664 14.5898 13.1836 14.4727 13.1836 14.3262V1.875C13.1836 1.72852 13.0664 1.61133 12.9199 1.61133H10.5762L7.64648 4.77539C7.61719 4.80469 7.55859 4.83398 7.5 4.83398C7.44141 4.83398 7.38281 4.80469 7.35352 4.77539L4.42383 1.61133H2.08008Z" fill="black"/>
<path fill-rule="evenodd" clip-rule="evenodd" d="M5.53708 1.96289C5.47848 1.96289 5.41989 1.93359 5.39059 1.875C5.3027 1.78711 5.332 1.66992 5.41989 1.58203C6.12301 1.05469 6.82614 0.761719 7.49996 0.761719C8.20309 0.761719 8.90621 1.05469 9.58004 1.61133C9.66793 1.66992 9.69723 1.78711 9.60934 1.875C9.55074 1.96289 9.43355 1.99219 9.34566 1.9043C8.1152 0.9375 6.94332 0.9375 5.65426 1.93359C5.62497 1.93359 5.59567 1.96289 5.53708 1.96289Z" fill="black"/>
<path fill-rule="evenodd" clip-rule="evenodd" d="M10.8691 10.0195C10.0781 10.0195 9.43359 9.375 9.43359 8.58398V7.03125C9.43359 6.91406 9.52148 6.82617 9.63867 6.82617H12.0996C12.2168 6.82617 12.3047 6.91406 12.3047 7.03125V8.58398C12.3047 9.375 11.6602 10.0195 10.8691 10.0195ZM9.84375 7.23633V8.58398C9.84375 9.14062 10.3125 9.60938 10.8691 9.60938C11.4258 9.60938 11.8945 9.14062 11.8945 8.58398V7.23633H9.84375Z" fill="black"/>
<path fill-rule="evenodd" clip-rule="evenodd" d="M10.0781 7.23633C10.0488 7.23633 10.0195 7.23633 9.99023 7.20703C9.87305 7.14844 9.84375 7.03125 9.90234 6.94336L10.5762 5.74219C10.6055 5.68359 10.6641 5.625 10.7227 5.625C10.7812 5.625 10.8398 5.6543 10.8984 5.68359L12.0703 6.88477C12.1582 6.97266 12.1582 7.08984 12.0703 7.17773C11.9824 7.26562 11.8652 7.26562 11.7773 7.17773L10.7812 6.18164L10.2539 7.11914C10.2246 7.20703 10.1367 7.23633 10.0781 7.23633Z" fill="black"/>
</svg>
