<svg width="15" height="15" viewBox="0 0 15 15" fill="none" xmlns="http://www.w3.org/2000/svg">
<path d="M14.3262 2.02336H0.673828C0.495175 2.02355 0.323892 2.0946 0.197565 2.22093C0.0712383 2.34725 0.00018613 2.51854 0 2.69719L0 10.6652C0.000217083 10.8439 0.0712792 11.0151 0.197599 11.1415C0.32392 11.2678 0.495184 11.3389 0.673828 11.3391H1.83199L1.47246 11.8594C1.36879 12.0149 1.33036 12.2049 1.36546 12.3884C1.40056 12.5719 1.50638 12.7344 1.66011 12.8406C1.81383 12.9469 2.00316 12.9885 2.18727 12.9564C2.37138 12.9244 2.53553 12.8213 2.64434 12.6694L3.56391 11.3391H11.4361L12.3553 12.6693C12.4641 12.8212 12.6283 12.9243 12.8124 12.9563C12.9965 12.9883 13.1858 12.9468 13.3395 12.8405C13.4933 12.7342 13.5991 12.5718 13.6342 12.3883C13.6693 12.2047 13.6309 12.0147 13.5272 11.8593L13.1677 11.3391H14.3258C14.5045 11.3389 14.6759 11.2679 14.8023 11.1416C14.9287 11.0153 14.9998 10.8439 15 10.6652V2.69719C14.9998 2.51854 14.9288 2.34725 14.8024 2.22093C14.6761 2.0946 14.5048 2.02355 14.3262 2.02336V2.02336ZM2.3073 12.4362C2.27947 12.4764 2.24231 12.5092 2.199 12.5319C2.15569 12.5546 2.10753 12.5665 2.05863 12.5665C2.00349 12.5665 1.9494 12.5514 1.90221 12.5229C1.85502 12.4943 1.81653 12.4535 1.79091 12.4046C1.76529 12.3558 1.75351 12.3009 1.75685 12.2458C1.76018 12.1908 1.77851 12.1377 1.80984 12.0923L2.33051 11.3391H3.06539L2.3073 12.4362ZM13.1902 12.0923C13.2215 12.1377 13.2398 12.1908 13.2432 12.2458C13.2465 12.3009 13.2347 12.3558 13.2091 12.4046C13.1835 12.4535 13.145 12.4943 13.0978 12.5229C13.0506 12.5514 12.9965 12.5665 12.9414 12.5665C12.8925 12.5665 12.8443 12.5546 12.801 12.5319C12.7576 12.5092 12.7204 12.4764 12.6926 12.4362L11.9346 11.3391H12.6695L13.1902 12.0923ZM14.5898 10.6652C14.5898 10.7351 14.5619 10.8022 14.5125 10.8516C14.4631 10.901 14.3961 10.9288 14.3262 10.9289H0.673828C0.603927 10.9288 0.536915 10.901 0.487487 10.8516C0.438059 10.8022 0.410249 10.7351 0.410156 10.6652V2.69719C0.410249 2.62729 0.438059 2.56028 0.487487 2.51085C0.536915 2.46142 0.603927 2.43361 0.673828 2.43352H14.3262C14.3961 2.43361 14.4631 2.46142 14.5125 2.51085C14.5619 2.56028 14.5898 2.62729 14.5898 2.69719V10.6652Z" fill="black"/>
<path d="M13.8574 2.96086H1.14258C1.11564 2.96085 1.08897 2.96614 1.06408 2.97644C1.03919 2.98674 1.01658 3.00185 0.997532 3.02089C0.978485 3.03994 0.96338 3.06255 0.953079 3.08744C0.942779 3.11233 0.937485 3.139 0.9375 3.16594V10.1965C0.9375 10.2509 0.959106 10.303 0.997566 10.3415C1.03603 10.38 1.08819 10.4016 1.14258 10.4016H13.8574C13.9118 10.4016 13.964 10.38 14.0024 10.3415C14.0409 10.303 14.0625 10.2509 14.0625 10.1965V3.16594C14.0625 3.139 14.0572 3.11233 14.0469 3.08744C14.0366 3.06255 14.0215 3.03994 14.0025 3.02089C13.9834 3.00185 13.9608 2.98674 13.9359 2.97644C13.911 2.96614 13.8844 2.96085 13.8574 2.96086V2.96086ZM13.6523 9.99141H1.34766V3.37102H13.6523V9.99141Z" fill="black"/>
<path d="M4.84863 5.61586H5.7041V7.95164C5.7041 8.00603 5.72571 8.05819 5.76417 8.09665C5.80263 8.13511 5.85479 8.15672 5.90918 8.15672C5.96357 8.15672 6.01573 8.13511 6.05419 8.09665C6.09265 8.05819 6.11426 8.00603 6.11426 7.95164V5.61586H6.96973C7.02412 5.61586 7.07628 5.59425 7.11474 5.55579C7.1532 5.51733 7.1748 5.46517 7.1748 5.41078C7.1748 5.35639 7.1532 5.30423 7.11474 5.26577C7.07628 5.22731 7.02412 5.2057 6.96973 5.2057H4.84863C4.79424 5.2057 4.74208 5.22731 4.70362 5.26577C4.66516 5.30423 4.64355 5.35639 4.64355 5.41078C4.64355 5.46517 4.66516 5.51733 4.70362 5.55579C4.74208 5.59425 4.79424 5.61586 4.84863 5.61586Z" fill="black"/>
<path d="M8.90194 8.03051C8.91748 8.0679 8.94375 8.09985 8.97744 8.12233C9.01112 8.1448 9.0507 8.1568 9.0912 8.1568C9.13169 8.1568 9.17127 8.1448 9.20496 8.12233C9.23864 8.09985 9.26491 8.0679 9.28045 8.03051L10.3406 5.48977C10.3517 5.4648 10.3576 5.43789 10.3581 5.4106C10.3586 5.38331 10.3536 5.3562 10.3435 5.33085C10.3334 5.30551 10.3183 5.28244 10.2991 5.263C10.28 5.24356 10.2571 5.22814 10.2319 5.21764C10.2067 5.20714 10.1797 5.20177 10.1524 5.20186C10.1251 5.20194 10.0981 5.20748 10.073 5.21813C10.0479 5.22879 10.0251 5.24435 10.0061 5.26391C9.98704 5.28347 9.9721 5.30663 9.96213 5.33204L9.0912 7.41903L8.22026 5.33204C8.19931 5.28184 8.15929 5.24203 8.10898 5.22135C8.05868 5.20067 8.00222 5.20082 7.95202 5.22176C7.90183 5.24271 7.86201 5.28274 7.84133 5.33305C7.82065 5.38335 7.8208 5.43981 7.84175 5.49001L8.90194 8.03051Z" fill="black"/>
</svg>
