<svg width="15" height="15" viewBox="0 0 15 15" fill="none" xmlns="http://www.w3.org/2000/svg">
<path d="M7.49998 0.9375C7.72681 0.937501 7.95348 0.949084 8.17913 0.972204L8.22708 0.505915C7.58068 0.439591 6.92825 0.462116 6.28796 0.572863L6.36824 1.03469C6.74201 0.969962 7.12065 0.937446 7.49998 0.9375V0.9375Z" fill="black"/>
<path d="M3.6532 2.18258L3.37811 1.80304C2.4767 2.45441 1.74289 3.31056 1.23708 4.301C0.731282 5.29145 0.467953 6.38787 0.468778 7.49999C0.46571 8.58175 0.714798 9.64934 1.19628 10.618L1.61628 10.4099C1.16701 9.50587 0.934614 8.50953 0.937528 7.49999C0.936692 6.46193 1.18247 5.43852 1.65461 4.51404C2.12675 3.58957 2.81175 2.79048 3.6532 2.18258V2.18258Z" fill="black"/>
<path d="M7.72644 14.0586L7.74229 14.5271C8.4017 14.5051 9.05471 14.3903 9.68205 14.186L9.53668 13.7404C8.95123 13.931 8.34181 14.0382 7.72644 14.0586V14.0586Z" fill="black"/>
<path d="M3.28125 7.26562H3.75V12.6562H3.28125V7.26562Z" fill="black"/>
<path d="M4.6875 7.26562H5.15625V12.6562H4.6875V7.26562Z" fill="black"/>
<path d="M6.09375 7.26562H6.5625V12.6562H6.09375V7.26562Z" fill="black"/>
<path d="M14.3985 7.72619L10.1742 5.69424C10.0062 5.61363 9.81296 5.60299 9.63703 5.66464C9.46111 5.7263 9.31682 5.85521 9.23582 6.02311L7.96875 8.6573V6.32812C7.9684 6.01743 7.84482 5.71957 7.62513 5.49987C7.40543 5.28018 7.10757 5.1566 6.79687 5.15625H5.85937V1.40625C5.85937 1.15761 5.7606 0.919153 5.58479 0.743337C5.40897 0.567522 5.17052 0.46875 4.92187 0.46875C4.67323 0.46875 4.43478 0.567522 4.25896 0.743337C4.08315 0.919153 3.98437 1.15761 3.98437 1.40625V5.15625H3.04687C2.73618 5.1566 2.43832 5.28018 2.21862 5.49987C1.99893 5.71957 1.87535 6.01743 1.875 6.32812V12.4219C1.87529 12.6626 1.94955 12.8974 2.08774 13.0944C2.22593 13.2915 2.42136 13.4413 2.64755 13.5236C2.59737 13.6279 2.57372 13.743 2.57868 13.8586C2.58364 13.9742 2.61707 14.0868 2.67599 14.1864C2.73492 14.286 2.81752 14.3696 2.91647 14.4296C3.01541 14.4896 3.12765 14.5243 3.24321 14.5306C3.35878 14.5368 3.4741 14.5145 3.57895 14.4655C3.6838 14.4164 3.77493 14.3423 3.84425 14.2497C3.91358 14.157 3.95896 14.0486 3.97637 13.9342C3.99378 13.8198 3.98268 13.7028 3.94406 13.5937H5.89969C5.86111 13.7028 5.85003 13.8197 5.86746 13.9341C5.88489 14.0485 5.93028 14.1568 5.9996 14.2495C6.06893 14.3421 6.16004 14.4162 6.26487 14.4652C6.36969 14.5142 6.48498 14.5365 6.60052 14.5303C6.71606 14.524 6.82827 14.4894 6.92719 14.4294C7.02612 14.3694 7.10871 14.2859 7.16763 14.1863C7.22655 14.0867 7.25999 13.9741 7.26497 13.8585C7.26996 13.7429 7.24633 13.6279 7.1962 13.5236C7.38044 13.4564 7.54494 13.3441 7.67474 13.1971C7.80453 13.05 7.89549 12.8729 7.93935 12.6817L11.249 14.2737C11.2768 14.2871 11.3069 14.2948 11.3376 14.2966C11.3683 14.2983 11.3991 14.2939 11.4282 14.2838C11.4572 14.2736 11.484 14.2578 11.5069 14.2372C11.5298 14.2167 11.5485 14.1918 11.5618 14.1641L14.5081 8.03899C14.535 7.98297 14.5386 7.91855 14.5181 7.85989C14.4975 7.80123 14.4545 7.75314 14.3985 7.72619V7.72619ZM9.86986 6.09355C9.9049 6.09354 9.9395 6.10145 9.97106 6.11667L13.9841 8.047L13.7809 8.46943L9.76786 6.53913C9.71194 6.51214 9.66899 6.46409 9.64842 6.4055C9.62786 6.34691 9.63135 6.28256 9.65814 6.22654L9.65825 6.2263L9.65824 6.22629C9.67744 6.18649 9.70749 6.15292 9.74492 6.12943C9.78236 6.10595 9.82566 6.09351 9.86986 6.09355V6.09355ZM4.45312 1.40625C4.45312 1.28193 4.50251 1.1627 4.59042 1.07479C4.67833 0.986886 4.79755 0.9375 4.92187 0.9375C5.04619 0.9375 5.16542 0.986886 5.25333 1.07479C5.34124 1.1627 5.39062 1.28193 5.39062 1.40625V5.15625H4.45312V1.40625ZM3.51562 13.8281C3.51562 13.8745 3.50188 13.9198 3.47613 13.9583C3.45037 13.9969 3.41377 14.0269 3.37094 14.0447C3.32811 14.0624 3.28099 14.067 3.23553 14.058C3.19006 14.049 3.1483 14.0266 3.11552 13.9939C3.08274 13.9611 3.06042 13.9193 3.05138 13.8738C3.04233 13.8284 3.04698 13.7813 3.06472 13.7384C3.08245 13.6956 3.1125 13.659 3.15104 13.6332C3.18958 13.6075 3.23489 13.5937 3.28125 13.5937C3.34339 13.5938 3.40296 13.6185 3.4469 13.6625C3.49084 13.7064 3.51555 13.766 3.51562 13.8281V13.8281ZM6.5625 14.0625C6.51614 14.0625 6.47083 14.0488 6.43229 14.023C6.39374 13.9972 6.3637 13.9606 6.34597 13.9178C6.32823 13.875 6.32358 13.8279 6.33263 13.7824C6.34167 13.7369 6.36399 13.6952 6.39677 13.6624C6.42955 13.6296 6.47131 13.6073 6.51677 13.5983C6.56224 13.5892 6.60936 13.5939 6.65219 13.6116C6.69502 13.6293 6.73162 13.6594 6.75738 13.6979C6.78313 13.7365 6.79687 13.7818 6.79687 13.8281C6.7968 13.8903 6.77209 13.9498 6.72815 13.9938C6.68421 14.0377 6.62464 14.0624 6.5625 14.0625V14.0625ZM6.79687 13.125H3.04687C2.86046 13.1248 2.68174 13.0506 2.54993 12.9188C2.41811 12.787 2.34396 12.6083 2.34375 12.4219V6.32812C2.34396 6.14171 2.41811 5.96299 2.54993 5.83118C2.68174 5.69936 2.86046 5.62521 3.04687 5.625H3.98437V6.79687H4.45312V5.625H5.39062V6.79687H5.85937V5.625H6.79687C6.98329 5.62521 7.16201 5.69936 7.29382 5.83118C7.42564 5.96299 7.49979 6.14171 7.5 6.32812V9.6318L6.69595 11.3034C6.65593 11.3866 6.63268 11.4769 6.62755 11.5691C6.62241 11.6613 6.63548 11.7536 6.66602 11.8407C6.69656 11.9278 6.74396 12.0081 6.80552 12.0769C6.86708 12.1458 6.94159 12.2018 7.0248 12.2418L7.4982 12.4695C7.48595 12.6472 7.40676 12.8137 7.27661 12.9353C7.14646 13.057 6.97502 13.1248 6.79687 13.125V13.125ZM11.241 13.7497L7.22799 11.8194C7.17197 11.7924 7.12896 11.7444 7.1084 11.6857C7.08785 11.627 7.09144 11.5626 7.11838 11.5066L9.37094 6.8236C9.42718 6.8803 9.49271 6.92694 9.56468 6.96153L13.5777 8.89183L11.241 13.7497Z" fill="black"/>
<path d="M11.2624 8.29834C10.97 8.15771 10.6425 8.10694 10.3212 8.15245C9.99994 8.19797 9.69939 8.33772 9.45756 8.55404C9.21573 8.77036 9.04347 9.05354 8.96258 9.36776C8.88168 9.68197 8.89577 10.0131 9.00308 10.3193C9.11038 10.6255 9.30607 10.8931 9.56541 11.088C9.82475 11.283 10.1361 11.3967 10.46 11.4148C10.784 11.4329 11.106 11.3544 11.3854 11.1895C11.6648 11.0245 11.889 10.7804 12.0297 10.488C12.2178 10.0958 12.2427 9.645 12.0988 9.2345C11.955 8.824 11.6542 8.48733 11.2624 8.29834V8.29834ZM11.6876 10.0634L11.2674 9.86126C11.3613 9.60221 11.4074 9.32828 11.4035 9.05276L11.4023 8.97154C11.5376 9.11501 11.6346 9.2902 11.6845 9.48099C11.7343 9.67179 11.7354 9.87206 11.6876 10.0634V10.0634ZM10.2306 10.524L10.1688 10.5718L10.1676 10.4937C10.1649 10.291 10.1962 10.0893 10.2603 9.89697L10.639 10.0791C10.5287 10.2492 10.3907 10.3996 10.2306 10.524V10.524ZM10.4635 9.47456C10.5737 9.30441 10.7118 9.15401 10.8719 9.02965L10.9336 8.98184L10.9348 9.05991C10.9376 9.26263 10.9063 9.46437 10.8421 9.65669L10.4635 9.47456ZM10.5531 8.60501C10.585 8.60501 10.617 8.60676 10.6489 8.6094L10.5849 8.65897C10.3672 8.82791 10.182 9.03494 10.0382 9.27L9.61848 9.0681C9.72814 8.92421 9.86952 8.80756 10.0316 8.72724C10.1937 8.64692 10.3722 8.6051 10.5531 8.60501V8.60501ZM9.41466 9.4902L9.83503 9.6924C9.74114 9.95144 9.69504 10.2254 9.69894 10.5009L9.7002 10.5829C9.5646 10.4394 9.46736 10.2641 9.41745 10.0731C9.36754 9.88213 9.36658 9.68165 9.41466 9.4902V9.4902ZM10.4533 10.9444L10.5175 10.8947C10.7352 10.7257 10.9205 10.5187 11.0642 10.2837L11.4844 10.4858C11.3648 10.6425 11.2077 10.7667 11.0275 10.8468C10.8473 10.927 10.6499 10.9605 10.4533 10.9444V10.9444Z" fill="black"/>
<path d="M8.2699 11.7996L8.47285 11.3772L10.5846 12.3921L10.3816 12.8144L8.2699 11.7996Z" fill="black"/>
<path d="M10.5954 3.70145C10.4581 3.56448 10.2721 3.48756 10.0781 3.48756C9.88418 3.48756 9.69815 3.56448 9.56084 3.70145C9.51151 3.75066 9.44468 3.7783 9.375 3.7783C9.30532 3.7783 9.23849 3.75066 9.18916 3.70145L9.13057 3.64285C8.82218 3.33519 8.40436 3.16241 7.96875 3.16241C7.53314 3.16241 7.11532 3.33519 6.80693 3.64285C6.7442 3.70593 6.66958 3.75593 6.58739 3.78997C6.50521 3.82402 6.41708 3.84142 6.32812 3.84118V4.30993C6.47866 4.31034 6.62779 4.28089 6.76687 4.22329C6.90595 4.16568 7.03222 4.08106 7.13838 3.97433C7.35878 3.75442 7.65741 3.63092 7.96875 3.63092C8.28009 3.63092 8.57872 3.75442 8.79912 3.97433L8.85771 4.03292C8.99502 4.16989 9.18105 4.24681 9.375 4.24681C9.56895 4.24681 9.75498 4.16989 9.89229 4.03292C9.9416 3.98369 10.0084 3.95604 10.0781 3.95604C10.1478 3.95604 10.2146 3.98369 10.264 4.03292L10.6959 4.46491C11.536 5.30967 12.6642 5.80604 13.8545 5.85467C13.9553 6.24539 14.0198 6.64459 14.0471 7.04718L14.5148 7.01531C14.4528 6.08647 14.2053 5.17947 13.7868 4.34792L13.3679 4.55832C13.5007 4.82289 13.6154 5.09617 13.7112 5.37628C12.6969 5.29581 11.7449 4.85494 11.0274 4.13343L10.5954 3.70145Z" fill="black"/>
<path d="M8.54966 1.60623L12.4535 3.9919C12.588 4.07454 12.7465 4.10935 12.9033 4.0907C13.06 4.07205 13.2059 4.00103 13.3173 3.88913L14.2282 2.97824C14.2722 2.93428 14.2969 2.87466 14.2969 2.8125C14.2969 2.75033 14.2722 2.69072 14.2282 2.64676L13.7595 2.17801C13.7212 2.13971 13.6708 2.11586 13.6168 2.11053C13.5629 2.10519 13.5088 2.11869 13.4637 2.14874L12.8906 2.5308L11.8205 1.81741L12.375 1.07812C12.4088 1.03298 12.4253 0.977152 12.4213 0.920876C12.4173 0.864599 12.3931 0.811654 12.3532 0.77176L12.1188 0.537385C12.0841 0.502605 12.0392 0.479651 11.9907 0.471774C11.9421 0.463898 11.8923 0.471498 11.8483 0.493499L10.5571 1.13909L10.1232 0.878733C9.89923 0.743984 9.63654 0.688126 9.37708 0.720068C9.11762 0.75201 8.87633 0.869913 8.69169 1.05497L8.50615 1.24051C8.48108 1.26558 8.46202 1.29602 8.45041 1.32952C8.43881 1.36302 8.43495 1.39872 8.43914 1.43393C8.44333 1.46914 8.45545 1.50294 8.4746 1.53279C8.49374 1.56263 8.51941 1.58774 8.54966 1.60623H8.54966ZM9.88207 1.28071L10.4263 1.60724C10.4601 1.62751 10.4985 1.63894 10.5379 1.64045C10.5773 1.64196 10.6164 1.63351 10.6517 1.61588L11.8262 1.02862L11.2969 1.73438C11.2778 1.75988 11.264 1.78901 11.2565 1.81999C11.2491 1.85097 11.248 1.88315 11.2534 1.91457C11.2587 1.94599 11.2705 1.97597 11.2878 2.0027C11.3052 2.02942 11.3278 2.05233 11.3544 2.07L12.7606 3.0075C12.7991 3.03316 12.8444 3.04686 12.8906 3.04686C12.9369 3.04686 12.9821 3.03316 13.0206 3.0075L13.5639 2.64533L13.731 2.8125L12.9859 3.55768C12.9487 3.59498 12.9001 3.61865 12.8478 3.62487C12.7956 3.63108 12.7428 3.61948 12.6979 3.59193L9.04887 1.36196C9.16061 1.26073 9.30197 1.19817 9.45203 1.18354C9.6021 1.16891 9.75288 1.20298 9.88207 1.28071V1.28071Z" fill="black"/>
</svg>
