<svg width="15" height="15" viewBox="0 0 15 15" fill="none" xmlns="http://www.w3.org/2000/svg">
<path d="M13.3301 7.26562H12.8205C12.2955 7.26395 11.7772 7.38304 11.3056 7.61367C10.834 7.84431 10.4218 8.18031 10.1008 8.5957C9.63149 9.20114 9.37624 9.94512 9.375 10.7111V10.7812H8.67188C8.60971 10.7812 8.5501 10.8059 8.50615 10.8499C8.46219 10.8939 8.4375 10.9535 8.4375 11.0156V11.233C8.04726 11.1762 7.69048 10.9809 7.4323 10.6828C7.17412 10.3847 7.03177 10.0037 7.03125 9.60938V9.375C7.03186 9.12041 7.09143 8.86942 7.20529 8.64171C7.31914 8.41399 7.48419 8.21574 7.6875 8.0625L8.65931 7.33362C9.02626 7.05706 9.32416 6.69927 9.52966 6.28828C9.73516 5.87729 9.84267 5.42429 9.84375 4.96479C9.84283 4.14562 9.517 3.36026 8.93776 2.78101C8.35852 2.20176 7.57316 1.87593 6.75398 1.875H6.5625V1.23047C6.56228 1.02852 6.48195 0.834902 6.33915 0.692101C6.19635 0.549299 6.00273 0.468975 5.80078 0.46875H4.04297C3.84102 0.468975 3.6474 0.549299 3.5046 0.692101C3.3618 0.834902 3.28147 1.02852 3.28125 1.23047V1.91895C3.07778 1.98184 2.89978 2.10819 2.77327 2.27951C2.64675 2.45083 2.57837 2.65813 2.57812 2.87109V12.8906H1.64062C1.60985 12.8906 1.57937 12.8967 1.55093 12.9085C1.5225 12.9202 1.49666 12.9375 1.47489 12.9593L1.00614 13.428C0.984379 13.4498 0.967116 13.4756 0.955338 13.5041C0.94356 13.5325 0.937499 13.563 0.9375 13.5938V14.2969C0.9375 14.359 0.962193 14.4186 1.00615 14.4626C1.0501 14.5066 1.10971 14.5312 1.17188 14.5312H5.39062C5.45279 14.5312 5.5124 14.5066 5.55635 14.4626C5.60031 14.4186 5.625 14.359 5.625 14.2969V13.5938C5.625 13.563 5.61894 13.5325 5.60716 13.5041C5.59538 13.4756 5.57812 13.4498 5.55636 13.428L5.08761 12.9593C5.06584 12.9375 5.04 12.9202 5.01157 12.9085C4.98313 12.8967 4.95265 12.8906 4.92188 12.8906H3.98438V4.6875C4.04654 4.6875 4.10615 4.66281 4.1501 4.61885C4.19406 4.5749 4.21875 4.51529 4.21875 4.45312V3.28125H6.79688C7.14121 3.28125 7.47682 3.38959 7.75617 3.59093C8.03551 3.79227 8.24442 4.0764 8.35331 4.40306C8.4622 4.72973 8.46554 5.08238 8.36287 5.41106C8.2602 5.73973 8.05672 6.02777 7.78125 6.23438L7.03125 6.79688C6.59559 7.12525 6.2419 7.55006 5.99792 8.03802C5.75394 8.52598 5.6263 9.06382 5.625 9.60938C5.62589 10.3767 5.91584 11.1154 6.43708 11.6785C6.95832 12.2415 7.67257 12.5875 8.4375 12.6475V12.8906C8.4375 12.9528 8.46219 13.0124 8.50615 13.0564C8.5501 13.1003 8.60971 13.125 8.67188 13.125H9.375V13.3594C9.375 13.4215 9.39969 13.4811 9.44365 13.5251C9.4876 13.5691 9.54721 13.5938 9.60938 13.5938H10.4711C10.6043 13.8747 10.8146 14.112 11.0775 14.2779C11.3403 14.4439 11.645 14.5318 11.9559 14.5312C12.2668 14.5307 12.5711 14.4418 12.8334 14.275C13.0957 14.1081 13.3052 13.8701 13.4374 13.5887C13.736 13.5616 14.0138 13.4239 14.2161 13.2026C14.4185 12.9813 14.5309 12.6924 14.5312 12.3926V8.4668C14.5309 8.14834 14.4042 7.84303 14.179 7.61784C13.9538 7.39266 13.6485 7.26599 13.3301 7.26562V7.26562ZM10.4707 8.88357C10.748 8.52466 11.1042 8.23435 11.5117 8.03507C11.9191 7.8358 12.3669 7.73292 12.8205 7.73438H13.3301C13.5243 7.73459 13.7104 7.81183 13.8477 7.94914C13.985 8.08644 14.0623 8.27261 14.0625 8.4668V10.3125H9.87138C9.94225 9.79184 10.149 9.29901 10.4707 8.88357V8.88357ZM3.75 1.23047C3.75009 1.15279 3.78098 1.07833 3.8359 1.0234C3.89083 0.968479 3.96529 0.937585 4.04297 0.9375H5.80078C5.87846 0.937585 5.95292 0.968479 6.00785 1.0234C6.06277 1.07833 6.09366 1.15279 6.09375 1.23047V1.875H5.625V1.40625C5.625 1.34409 5.60031 1.28448 5.55635 1.24052C5.5124 1.19657 5.45279 1.17188 5.39062 1.17188H4.45312C4.39096 1.17188 4.33135 1.19657 4.2874 1.24052C4.24344 1.28448 4.21875 1.34409 4.21875 1.40625V1.875H3.75V1.23047ZM4.6875 1.875V1.64062H5.15625V1.875H4.6875ZM5.15625 13.6908V14.0625H1.40625V13.6908L1.73769 13.3594H4.82481L5.15625 13.6908ZM3.04688 12.8906V11.9531H3.51562V12.8906H3.04688ZM3.51562 11.4844H3.04688V4.6875H3.51562V11.4844ZM3.98438 2.8125C3.92221 2.8125 3.8626 2.83719 3.81865 2.88115C3.77469 2.9251 3.75 2.98471 3.75 3.04688V4.21875H3.04688V2.87109C3.04704 2.73128 3.10265 2.59725 3.20151 2.49839C3.30037 2.39952 3.43441 2.34391 3.57422 2.34375H6.09375V2.8125H3.98438ZM6.09375 9.60938C6.09486 9.13656 6.20548 8.67043 6.41693 8.24753C6.62838 7.82463 6.93492 7.45646 7.3125 7.17188L8.0625 6.60938C8.41668 6.34374 8.6783 5.97341 8.8103 5.55082C8.94231 5.12824 8.938 4.67483 8.798 4.25483C8.658 3.83483 8.3894 3.46952 8.03025 3.21066C7.67109 2.9518 7.2396 2.8125 6.79688 2.8125H6.5625V2.34375H6.75398C7.44888 2.34454 8.11509 2.62094 8.60646 3.11231C9.09782 3.60368 9.37422 4.2699 9.375 4.96479C9.37408 5.35155 9.28359 5.73283 9.11063 6.07875C8.93767 6.42468 8.68694 6.72584 8.37809 6.95862L7.40625 7.6875C7.14486 7.88453 6.93265 8.13942 6.78627 8.4322C6.63988 8.72497 6.56329 9.04767 6.5625 9.375V9.60938C6.56316 10.1281 6.75462 10.6284 7.1004 11.015C7.44617 11.4016 7.9221 11.6475 8.4375 11.7058V12.177C7.79725 12.1177 7.20216 11.8217 6.76867 11.3468C6.33518 10.8719 6.09451 10.2524 6.09375 9.60938V9.60938ZM8.90625 12.6562V11.25H9.375V12.6562H8.90625ZM11.9531 14.0625C11.7214 14.0625 11.4948 13.9938 11.3021 13.865C11.1094 13.7362 10.9592 13.5532 10.8705 13.3391C10.7818 13.125 10.7586 12.8893 10.8038 12.662C10.849 12.4347 10.9606 12.2259 11.1245 12.062C11.2884 11.8981 11.4972 11.7865 11.7245 11.7413C11.9518 11.6961 12.1875 11.7193 12.4016 11.808C12.6157 11.8967 12.7987 12.0469 12.9275 12.2396C13.0563 12.4323 13.125 12.6589 13.125 12.8906C13.1247 13.2013 13.0011 13.4992 12.7814 13.7189C12.5617 13.9386 12.2638 14.0622 11.9531 14.0625V14.0625ZM13.5825 13.0802C13.6097 12.8483 13.5871 12.6132 13.5162 12.3907C13.4454 12.1682 13.3278 11.9634 13.1714 11.79C13.015 11.6166 12.8234 11.4786 12.6094 11.3852C12.3954 11.2917 12.1639 11.2451 11.9304 11.2483C11.697 11.2515 11.4668 11.3045 11.2555 11.4038C11.0441 11.5031 10.8564 11.6464 10.7049 11.824C10.5533 12.0017 10.4415 12.2096 10.3767 12.434C10.312 12.6583 10.2959 12.8939 10.3295 13.125H9.84375V10.7812H14.0625V12.3926C14.0623 12.5425 14.0162 12.6888 13.9304 12.8117C13.8446 12.9347 13.7232 13.0283 13.5825 13.0802Z" fill="black"/>
<path d="M11.9531 12.1875C11.8141 12.1875 11.6781 12.2287 11.5625 12.306C11.4469 12.3833 11.3567 12.4931 11.3035 12.6216C11.2503 12.75 11.2364 12.8914 11.2635 13.0278C11.2906 13.1642 11.3576 13.2895 11.4559 13.3878C11.5543 13.4861 11.6796 13.5531 11.816 13.5802C11.9523 13.6074 12.0937 13.5934 12.2222 13.5402C12.3507 13.487 12.4605 13.3969 12.5378 13.2813C12.615 13.1656 12.6563 13.0297 12.6563 12.8906C12.656 12.7042 12.5819 12.5255 12.4501 12.3937C12.3183 12.2619 12.1395 12.1877 11.9531 12.1875V12.1875ZM11.9531 13.125C11.9068 13.125 11.8615 13.1113 11.8229 13.0855C11.7844 13.0598 11.7543 13.0231 11.7366 12.9803C11.7189 12.9375 11.7142 12.8904 11.7233 12.8449C11.7323 12.7994 11.7546 12.7577 11.7874 12.7249C11.8202 12.6921 11.8619 12.6698 11.9074 12.6608C11.9529 12.6517 12 12.6564 12.0428 12.6741C12.0856 12.6918 12.1223 12.7219 12.148 12.7604C12.1738 12.799 12.1875 12.8443 12.1875 12.8906C12.1874 12.9528 12.1627 13.0123 12.1188 13.0563C12.0748 13.1002 12.0153 13.1249 11.9531 13.125V13.125Z" fill="black"/>
<path d="M11.4844 9.84375C11.5465 9.84375 11.6061 9.81906 11.6501 9.7751C11.6941 9.73115 11.7188 9.67154 11.7188 9.60938V9.14062C11.7188 9.07846 11.6941 9.01885 11.6501 8.9749C11.6061 8.93094 11.5465 8.90625 11.4844 8.90625C11.4222 8.90625 11.3626 8.93094 11.3186 8.9749C11.2747 9.01885 11.25 9.07846 11.25 9.14062V9.60938C11.25 9.67154 11.2747 9.73115 11.3186 9.7751C11.3626 9.81906 11.4222 9.84375 11.4844 9.84375Z" fill="black"/>
<path d="M12.4219 9.84375C12.484 9.84375 12.5436 9.81906 12.5876 9.7751C12.6316 9.73115 12.6562 9.67154 12.6562 9.60938V9.14062C12.6562 9.07846 12.6316 9.01885 12.5876 8.9749C12.5436 8.93094 12.484 8.90625 12.4219 8.90625C12.3597 8.90625 12.3001 8.93094 12.2561 8.9749C12.2122 9.01885 12.1875 9.07846 12.1875 9.14062V9.60938C12.1875 9.67154 12.2122 9.73115 12.2561 9.7751C12.3001 9.81906 12.3597 9.84375 12.4219 9.84375Z" fill="black"/>
<path d="M13.3594 9.84375C13.4215 9.84375 13.4811 9.81906 13.5251 9.7751C13.5691 9.73115 13.5938 9.67154 13.5938 9.60938V9.14062C13.5938 9.07846 13.5691 9.01885 13.5251 8.9749C13.4811 8.93094 13.4215 8.90625 13.3594 8.90625C13.2972 8.90625 13.2376 8.93094 13.1936 8.9749C13.1497 9.01885 13.125 9.07846 13.125 9.14062V9.60938C13.125 9.67154 13.1497 9.73115 13.1936 9.7751C13.2376 9.81906 13.2972 9.84375 13.3594 9.84375Z" fill="black"/>
</svg>
