<svg width="15" height="15" viewBox="0 0 15 15" fill="none" xmlns="http://www.w3.org/2000/svg">
<g clip-path="url(#clip0_287_4564)">
<path d="M14 0H2.99999C2.73478 0 2.48042 0.105357 2.29288 0.292893C2.10535 0.480429 1.99999 0.734783 1.99999 0.999999V4.9515C1.62045 5.2028 1.30916 5.54431 1.09398 5.94544C0.878795 6.34657 0.766448 6.79479 0.766991 7.24999V8.24999C0.789916 8.96841 0.572817 9.67398 0.149991 10.2552C0.0885834 10.3354 0.0445334 10.4274 0.0206454 10.5255C-0.00324264 10.6236 -0.00644543 10.7256 0.0112409 10.825C0.0286554 10.9226 0.0661843 11.0156 0.121445 11.098C0.176705 11.1804 0.24849 11.2503 0.332241 11.3035C0.459305 11.3799 0.592221 11.4461 0.729741 11.5015C0.479189 11.7679 0.285322 12.0824 0.159885 12.4259C0.0344482 12.7694 -0.0199483 13.1348 -9.08222e-06 13.5V14.25C-9.08222e-06 14.4489 0.0790086 14.6397 0.219661 14.7803C0.360313 14.921 0.551079 15 0.749991 15H6.24999C6.44891 15 6.63967 14.921 6.78032 14.7803C6.92098 14.6397 6.99999 14.4489 6.99999 14.25V13.5C6.99999 13.414 6.99374 13.3325 6.98874 13.25H11C11.1326 13.25 11.2598 13.1973 11.3535 13.1035C11.4473 13.0098 11.5 12.8826 11.5 12.75C11.4997 12.4869 11.3957 12.2346 11.2107 12.0476C11.0256 11.8607 10.7743 11.7542 10.5112 11.7512V11.7512C10.3195 11.7328 10.1403 11.6477 10.005 11.5106C9.86971 11.3735 9.78688 11.1932 9.77099 11.0012H14C14.2652 11.0012 14.5196 10.8959 14.7071 10.7083C14.8946 10.5208 15 10.2665 15 10.0012V0.999999C15 0.734783 14.8946 0.480429 14.7071 0.292893C14.5196 0.105357 14.2652 0 14 0V0ZM0.599991 10.881C0.574851 10.8652 0.553327 10.8443 0.536828 10.8196C0.520328 10.7949 0.509224 10.767 0.504241 10.7377C0.498593 10.7065 0.499616 10.6744 0.507242 10.6436C0.514869 10.6128 0.528926 10.584 0.548491 10.559C1.03811 9.89064 1.29093 9.07814 1.26699 8.24999V7.24999C1.26612 6.95471 1.32352 6.66216 1.43592 6.3891C1.54832 6.11604 1.7135 5.86785 1.92199 5.65874C2.12804 5.44958 2.37372 5.2836 2.64466 5.17049C2.91561 5.05738 3.20639 4.99942 3.49999 5C4.09427 5.00291 4.66313 5.24144 5.08175 5.66325C5.50038 6.08506 5.73459 6.65571 5.73299 7.24999V8.24999C5.70924 9.07854 5.96252 9.89135 6.45274 10.5597C6.47212 10.5847 6.48603 10.6134 6.49357 10.6441C6.5011 10.6748 6.5021 10.7067 6.49649 10.7377C6.49151 10.767 6.48041 10.7949 6.46391 10.8196C6.44741 10.8443 6.42588 10.8652 6.40074 10.881C6.12799 11.0532 5.07499 11.5 3.49999 11.5C1.92499 11.5 0.871741 11.0532 0.599991 10.881ZM6.82499 3.42675L7.64649 4.25H6.99999C6.93369 4.25 6.8701 4.27634 6.82322 4.32322C6.77633 4.3701 6.74999 4.43369 6.74999 4.5V5C6.74999 5.0663 6.72365 5.12989 6.67677 5.17677C6.62989 5.22366 6.5663 5.25 6.49999 5.25H5.36999C4.92823 4.82911 4.35752 4.56939 3.74999 4.51275V2.5C3.74999 2.43369 3.77633 2.37011 3.82322 2.32322C3.8701 2.27634 3.93369 2.25 3.99999 2.25H6.49999C6.5663 2.25 6.62989 2.27634 6.67677 2.32322C6.72365 2.37011 6.74999 2.43369 6.74999 2.5V3.25C6.75001 3.3163 6.77636 3.37987 6.82324 3.42675H6.82499ZM8.49999 4.25C8.5663 4.25 8.62989 4.22366 8.67677 4.17677C8.72365 4.12989 8.74999 4.0663 8.74999 4C8.75067 3.88072 8.7967 3.76617 8.87873 3.67958C8.96077 3.59299 9.07268 3.54085 9.19174 3.53375C9.66326 3.51774 10.1191 3.36034 10.5 3.082C10.8809 3.3603 11.3366 3.51769 11.808 3.53375C11.9271 3.54079 12.0391 3.5929 12.1212 3.6795C12.2033 3.76609 12.2493 3.88068 12.25 4C12.25 4.0663 12.2763 4.12989 12.3232 4.17677C12.3701 4.22366 12.4337 4.25 12.5 4.25C12.5663 4.25 12.6299 4.27634 12.6768 4.32322C12.7237 4.3701 12.75 4.43369 12.75 4.5C12.75 4.5663 12.7237 4.62989 12.6768 4.67677C12.6299 4.72366 12.5663 4.75 12.5 4.75C12.4337 4.75 12.3701 4.77633 12.3232 4.82322C12.2763 4.8701 12.25 4.93369 12.25 5C12.25 5.0715 12.2207 6.74999 10.5 6.74999C8.77924 6.74999 8.74999 5.07075 8.74999 5C8.74999 4.93369 8.72365 4.8701 8.67677 4.82322C8.62989 4.77633 8.5663 4.75 8.49999 4.75C8.43369 4.75 8.3701 4.72366 8.32322 4.67677C8.27633 4.62989 8.24999 4.5663 8.24999 4.5C8.24999 4.43369 8.27633 4.3701 8.32322 4.32322C8.3701 4.27634 8.43369 4.25 8.49999 4.25ZM8.24999 3.7945V3.5C8.25059 2.96975 8.46149 2.46139 8.83644 2.08644C9.21138 1.7115 9.71974 1.50059 10.25 1.5H10.75C11.2802 1.50059 11.7886 1.7115 12.1636 2.08644C12.5385 2.46139 12.7494 2.96975 12.75 3.5V3.7945C12.7417 3.7915 12.734 3.78725 12.725 3.78475C12.6776 3.581 12.5657 3.39798 12.406 3.26287C12.2463 3.12775 12.0473 3.04775 11.8385 3.03475C11.4083 3.02518 10.9958 2.8614 10.6762 2.57325C10.6294 2.52638 10.5658 2.50005 10.4995 2.50005C10.4332 2.50005 10.3696 2.52638 10.3227 2.57325C10.0031 2.86144 9.59053 3.02522 9.16024 3.03475C8.9515 3.04781 8.75253 3.12783 8.59288 3.26294C8.43323 3.39805 8.3214 3.58104 8.27399 3.78475C8.26599 3.78725 8.25824 3.7915 8.24999 3.7945ZM11.2655 8.48949L10.8535 8.19524L11.373 7.50249C11.4969 7.50749 11.6205 7.51875 11.7432 7.53624L11.2655 8.48949ZM12.2465 7.64799C12.5776 7.73256 12.8811 7.90159 13.1273 8.13857C13.3736 8.37555 13.5541 8.67236 13.6512 8.99999H11.321L11.3222 8.99499C11.3435 8.99372 11.3646 8.99096 11.3855 8.98674C11.4531 8.97068 11.5164 8.93997 11.5709 8.89677C11.6254 8.85357 11.6697 8.79894 11.7007 8.73674L12.2465 7.64799ZM10.5 7.83324L10.032 7.20949C10.3417 7.26348 10.6583 7.26348 10.968 7.20949L10.5 7.83324ZM10.8532 8.80949L10.8052 8.99999H10.1947L10.1465 8.80949L10.5 8.55724L10.8532 8.80949ZM9.25674 7.53624C9.37951 7.51875 9.50309 7.50749 9.62699 7.50249L10.1465 8.19499L9.73424 8.48949L9.25674 7.53624ZM9.67899 8.99999H7.34999C7.44714 8.67239 7.62763 8.3756 7.8738 8.13862C8.11998 7.90165 8.42343 7.7326 8.75449 7.64799L9.29999 8.73674C9.33107 8.79897 9.37543 8.85362 9.42995 8.89682C9.48447 8.94001 9.54781 8.97071 9.61549 8.98674C9.63636 8.99084 9.6575 8.99335 9.67874 8.99424L9.67899 8.99999ZM8.26049 5.211C8.28636 5.58475 8.40596 5.94597 8.60826 6.2613C8.81056 6.57664 9.08904 6.83593 9.41799 7.01524C8.30474 7.10599 7.14899 7.66524 6.83524 8.99999H6.30524C6.25675 8.75295 6.23255 8.50175 6.23299 8.24999V7.24999C6.2333 6.71734 6.0785 6.19613 5.78749 5.74999H6.49999C6.69891 5.74999 6.88967 5.67098 7.03032 5.53033C7.17098 5.38967 7.24999 5.19891 7.24999 5V4.75H7.79399C7.83201 4.85701 7.89372 4.95405 7.97449 5.03387C8.05527 5.1137 8.15304 5.17425 8.26049 5.211V5.211ZM6.48549 11.7512C6.41966 11.6628 6.34747 11.5792 6.26949 11.5012C6.40701 11.4458 6.53993 11.3796 6.66699 11.3032C6.78225 11.2296 6.87383 11.1243 6.93074 11H7.22924C7.21341 11.1924 7.13027 11.3731 6.99443 11.5102C6.85858 11.6474 6.67873 11.7323 6.48649 11.75L6.48549 11.7512ZM6.49999 14.25C6.49999 14.3163 6.47365 14.3799 6.42677 14.4268C6.37989 14.4736 6.3163 14.5 6.24999 14.5H0.749991C0.683687 14.5 0.620099 14.4736 0.573214 14.4268C0.52633 14.3799 0.499991 14.3163 0.499991 14.25V13.5C0.499991 12.675 0.754241 12.0842 1.26924 11.692C1.99428 11.9007 2.74551 12.0045 3.49999 12C4.25447 12.0045 5.0057 11.9007 5.73074 11.692C6.24574 12.0842 6.49999 12.675 6.49999 13.5V14.25ZM10.5 12.25C10.6326 12.25 10.7598 12.3027 10.8535 12.3964C10.9473 12.4902 11 12.6174 11 12.75H6.92499C6.88888 12.5787 6.83648 12.4113 6.76849 12.25H10.5ZM7.44774 11.75C7.6103 11.531 7.70951 11.2716 7.73449 11H9.26549C9.29048 11.2716 9.38968 11.531 9.55224 11.75H7.44774ZM14.5 9.99999C14.5 10.1326 14.4473 10.2598 14.3535 10.3535C14.2598 10.4473 14.1326 10.5 14 10.5H6.96974C6.94558 10.4117 6.90477 10.3288 6.84949 10.2557C6.67621 10.0258 6.53865 9.77102 6.44149 9.49999H14.5V9.99999ZM14.5 8.99999H14.1647C13.8507 7.66574 12.695 7.10599 11.582 7.01524C11.9109 6.83593 12.1894 6.57664 12.3917 6.2613C12.594 5.94597 12.7136 5.58475 12.7395 5.211C12.8881 5.16059 13.0173 5.06493 13.1088 4.93742C13.2004 4.80992 13.2498 4.65696 13.25 4.5V3.5C13.2493 2.83718 12.9856 2.20172 12.517 1.73304C12.0483 1.26435 11.4128 1.00073 10.75 0.999999H10.25C9.58718 1.00073 8.95171 1.26435 8.48303 1.73304C8.01435 2.20172 7.75072 2.83718 7.74999 3.5V3.6465L7.24999 3.1465V2.5C7.24999 2.30109 7.17098 2.11032 7.03032 1.96967C6.88967 1.82902 6.69891 1.75 6.49999 1.75H3.99999C3.80108 1.75 3.61031 1.82902 3.46966 1.96967C3.32901 2.11032 3.24999 2.30109 3.24999 2.5V4.51225C2.99269 4.5357 2.7401 4.59607 2.49999 4.6915V0.999999C2.49999 0.867391 2.55267 0.740214 2.64644 0.646446C2.74021 0.552678 2.86738 0.5 2.99999 0.5H14C14.1326 0.5 14.2598 0.552678 14.3535 0.646446C14.4473 0.740214 14.5 0.867391 14.5 0.999999V8.99999Z" fill="black"/>
<path d="M5.99999 3H4.5C4.4337 3 4.37011 3.02634 4.32322 3.07322C4.27634 3.12011 4.25 3.1837 4.25 3.25C4.25 3.31631 4.27634 3.37989 4.32322 3.42678C4.37011 3.47366 4.4337 3.5 4.5 3.5H5.99999C6.0663 3.5 6.12989 3.47366 6.17677 3.42678C6.22365 3.37989 6.24999 3.31631 6.24999 3.25C6.24999 3.1837 6.22365 3.12011 6.17677 3.07322C6.12989 3.02634 6.0663 3 5.99999 3Z" fill="black"/>
<path d="M6 4H5.25C5.1837 4 5.12011 4.02634 5.07322 4.07322C5.02634 4.12011 5 4.1837 5 4.25C5 4.31631 5.02634 4.37989 5.07322 4.42678C5.12011 4.47366 5.1837 4.5 5.25 4.5H6C6.0663 4.5 6.12989 4.47366 6.17677 4.42678C6.22366 4.37989 6.25 4.31631 6.25 4.25C6.25 4.1837 6.22366 4.12011 6.17677 4.07322C6.12989 4.02634 6.0663 4 6 4Z" fill="black"/>
</g>
<defs>
<clipPath id="clip0_287_4564">
<rect width="15" height="15" fill="white"/>
</clipPath>
</defs>
</svg>
