<svg width="15" height="15" viewBox="0 0 15 15" fill="none" xmlns="http://www.w3.org/2000/svg">
<path d="M12.5 1.25H0V13.75H15V1.25H12.5ZM2 13.25H0.5V11.75H2V13.25ZM2 11.25H0.5V9.75H2V11.25ZM2 9.25H0.5V7.75H2V9.25ZM2 7.25H0.5V5.75H2V7.25ZM2 5.25H0.5V3.75H2V5.25ZM2 3.25H0.5V1.75H2V3.25ZM12.5 13.25H2.5V1.75H12.5V13.25ZM14.5 13.25H13V11.75H14.5V13.25ZM14.5 11.25H13V9.75H14.5V11.25ZM14.5 9.25H13V7.75H14.5V9.25ZM14.5 7.25H13V5.75H14.5V7.25ZM14.5 5.25H13V3.75H14.5V5.25ZM14.5 3.25H13V1.75H14.5V3.25Z" fill="black"/>
<path d="M9.46785 7.37509C9.44572 7.33641 9.41366 7.30438 9.375 7.28225L5.875 5.28225C5.75544 5.21322 5.60253 5.25419 5.5335 5.37375C5.51135 5.41213 5.49978 5.45569 5.5 5.5V9.5C5.5001 9.58922 5.54772 9.67163 5.625 9.71625C5.70235 9.76091 5.79766 9.76091 5.875 9.71625L9.375 7.71625C9.49485 7.64769 9.53641 7.49497 9.46785 7.37509ZM6 9.069V5.931L8.746 7.5L6 9.069Z" fill="black"/>
</svg>
