<svg width="15" height="15" viewBox="0 0 15 15" fill="none" xmlns="http://www.w3.org/2000/svg">
<path d="M12.4244 0H2.57555C2.15574 0 1.81421 0.341533 1.81421 0.761339V14.2387C1.81421 14.6585 2.15574 15 2.57555 15H12.4244C12.8442 15 13.1857 14.6585 13.1857 14.2387V0.761339C13.1857 0.341533 12.8442 0 12.4244 0ZM2.30017 3.07775H12.6997V13.4773H2.30017V3.07775ZM12.6997 0.761339V2.59179H5.92868V0.485961H12.4244C12.5762 0.485961 12.6997 0.609492 12.6997 0.761339ZM2.57555 0.485961H5.44272V2.59179H2.30017V0.761339C2.30017 0.609492 2.4237 0.485961 2.57555 0.485961ZM12.4244 14.514H2.57555C2.4237 14.514 2.30017 14.3905 2.30017 14.2387V13.9633H12.6997V14.2387C12.6997 14.3905 12.5762 14.514 12.4244 14.514Z" fill="black"/>
<path d="M7.50001 4.14687C5.50818 4.14687 3.8877 5.76736 3.8877 7.75918C3.8877 9.75101 5.50818 11.3715 7.50001 11.3715C9.49183 11.3715 11.1123 9.75101 11.1123 7.75918C11.1123 5.76736 9.49183 4.14687 7.50001 4.14687ZM7.50001 10.8855C5.77614 10.8855 4.37366 9.48305 4.37366 7.75918C4.37366 6.03531 5.77614 4.63283 7.50001 4.63283C9.22387 4.63283 10.6264 6.03531 10.6264 7.75918C10.6264 9.48305 9.22387 10.8855 7.50001 10.8855Z" fill="black"/>
<path d="M7.49999 2.30021C7.9198 2.30021 8.26133 1.95868 8.26133 1.53887C8.26133 1.11907 7.9198 0.777534 7.49999 0.777534C7.08018 0.777534 6.73865 1.11907 6.73865 1.53887C6.73865 1.95868 7.08018 2.30021 7.49999 2.30021ZM7.49999 1.2635C7.65184 1.2635 7.77537 1.38703 7.77537 1.53887C7.77537 1.69072 7.65184 1.81425 7.49999 1.81425C7.34814 1.81425 7.22461 1.69072 7.22461 1.53887C7.22461 1.38703 7.34814 1.2635 7.49999 1.2635Z" fill="black"/>
<path d="M3.09393 2.30022H4.64901C4.7832 2.30022 4.89199 2.19143 4.89199 2.05724C4.89199 1.92305 4.7832 1.81425 4.64901 1.81425H3.09393C2.95974 1.81425 2.85095 1.92305 2.85095 2.05724C2.85095 2.19143 2.95974 2.30022 3.09393 2.30022Z" fill="black"/>
<path d="M9.05499 1.78186H9.83253C9.96672 1.78186 10.0755 1.67307 10.0755 1.53888C10.0755 1.40469 9.96672 1.2959 9.83253 1.2959H9.05499C8.9208 1.2959 8.81201 1.40469 8.81201 1.53888C8.81201 1.67307 8.9208 1.78186 9.05499 1.78186Z" fill="black"/>
<path d="M10.8693 1.78186H11.6469C11.7811 1.78186 11.8898 1.67307 11.8898 1.53888C11.8898 1.40469 11.7811 1.2959 11.6469 1.2959H10.8693C10.7351 1.2959 10.6263 1.40469 10.6263 1.53888C10.6263 1.67307 10.7351 1.78186 10.8693 1.78186Z" fill="black"/>
<path d="M7.49991 5.18359C6.07974 5.18359 4.92432 6.33901 4.92432 7.75918C4.92432 9.17935 6.07974 10.3348 7.49991 10.3348C8.92008 10.3348 10.0755 9.17935 10.0755 7.75918C10.0755 6.33901 8.92008 5.18359 7.49991 5.18359ZM7.49991 9.84881C6.3477 9.84881 5.41028 8.91139 5.41028 7.75918C5.41028 6.60697 6.3477 5.66955 7.49991 5.66955C8.65212 5.66955 9.58954 6.60697 9.58954 7.75918C9.58954 8.91139 8.65212 9.84881 7.49991 9.84881Z" fill="black"/>
</svg>
