<svg width="15" height="15" viewBox="0 0 15 15" fill="none" xmlns="http://www.w3.org/2000/svg">
<path d="M4.98457 5.3126C5.08485 5.38108 5.11064 5.51785 5.04217 5.61813C4.64639 6.19787 4.43719 6.8757 4.43719 7.57835C4.43719 9.50041 6.0009 11.0641 7.92296 11.0641C9.84502 11.0641 11.4087 9.50041 11.4087 7.57835C11.4087 5.65632 9.84502 4.09261 7.92296 4.09261C7.07855 4.09261 6.26322 4.3999 5.62716 4.95789C5.53588 5.03794 5.397 5.02889 5.31692 4.93764C5.23686 4.84636 5.24595 4.70745 5.3372 4.62739C6.05348 3.99899 6.97179 3.65295 7.92293 3.65295C10.0874 3.65295 11.8484 5.41388 11.8484 7.57838C11.8484 9.74288 10.0874 11.5038 7.92293 11.5038C5.75842 11.5038 3.99747 9.74285 3.99747 7.57835C3.99747 6.78688 4.23314 6.02332 4.67901 5.37023C4.74746 5.26995 4.88426 5.24416 4.98457 5.3126V5.3126Z" fill="black"/>
<path d="M5.44873 6.3242C5.50364 6.21586 5.63595 6.17263 5.74423 6.2275L7.3333 7.03301C7.48021 6.87428 7.69012 6.77468 7.92295 6.77468C8.09842 6.77468 8.26081 6.83137 8.3931 6.92713L9.24964 6.25101C9.34497 6.17576 9.48317 6.19206 9.55842 6.28733C9.63364 6.38265 9.6174 6.52089 9.52207 6.59611L8.66582 7.27203C8.70492 7.3665 8.72662 7.46992 8.72662 7.57834C8.72662 8.02149 8.3661 8.38204 7.92295 8.38204C7.4798 8.38204 7.11929 8.02149 7.11929 7.57834C7.11929 7.52587 7.1245 7.47466 7.13415 7.42498L5.54546 6.61964C5.43712 6.56477 5.39383 6.43248 5.44873 6.3242V6.3242ZM7.92292 7.94238C8.12363 7.94238 8.2869 7.77911 8.2869 7.57837C8.2869 7.37767 8.12363 7.2144 7.92292 7.2144C7.72222 7.2144 7.55895 7.37767 7.55895 7.57837C7.55892 7.77911 7.72222 7.94238 7.92292 7.94238Z" fill="black"/>
<path d="M2.8361 6.73109H3.19298C3.36164 5.78698 3.80702 4.93756 4.44187 4.26991V3.07489C4.44187 2.70614 4.74185 2.40616 5.11061 2.40616H5.42504V2.01023C5.42504 1.88879 5.52348 1.79039 5.64489 1.79039C5.7663 1.79039 5.86473 1.88879 5.86473 2.01023V3.23734C6.48897 2.94017 7.18685 2.77356 7.92298 2.77356C8.6591 2.77356 9.35701 2.94017 9.98122 3.23734V0.802286C9.98122 0.602345 9.81856 0.439689 9.61859 0.439689H6.22733C6.02739 0.439689 5.8647 0.602345 5.8647 0.802286V1.07331C5.8647 1.19475 5.76627 1.29316 5.64486 1.29316C5.52345 1.29316 5.42501 1.19475 5.42501 1.07331V0.802286C5.42504 0.3599 5.78494 0 6.22733 0H9.61862C10.061 0 10.4209 0.3599 10.4209 0.802286V2.40613H10.7353C11.1041 2.40613 11.4041 2.70611 11.4041 3.07486V4.26988C12.2239 5.13208 12.7278 6.29746 12.7278 7.57834C12.7278 8.85921 12.2239 10.0246 11.4041 10.8868V12.0819C11.4041 12.4506 11.1041 12.7506 10.7353 12.7506H10.4209V13.0482C10.4209 13.1696 10.3224 13.268 10.201 13.268C10.0796 13.268 9.98119 13.1696 9.98119 13.0482V11.9194C9.35695 12.2165 8.65908 12.3831 7.92295 12.3831C7.18682 12.3831 6.48892 12.2165 5.8647 11.9194V14.0961C5.8647 14.352 6.07291 14.5603 6.32881 14.5603H9.51711C9.77301 14.5603 9.98122 14.352 9.98122 14.0961V13.9851C9.98122 13.8636 10.0797 13.7652 10.2011 13.7652C10.3225 13.7652 10.4209 13.8636 10.4209 13.9851V14.0961C10.4209 14.5945 10.0155 14.9999 9.51711 14.9999H6.32884C5.8305 14.9999 5.42504 14.5945 5.42504 14.0961V12.7506H5.11064C4.74188 12.7506 4.4419 12.4506 4.4419 12.0819V10.8868C3.77211 10.1824 3.31354 9.27563 3.168 8.26888H2.83612C2.52521 8.26888 2.27227 8.01595 2.27227 7.70506V7.29491C2.27224 6.98402 2.52518 6.73109 2.8361 6.73109V6.73109ZM5.42504 2.84582H5.11064C4.98433 2.84582 4.88159 2.94859 4.88159 3.07486V3.86153C5.05327 3.72077 5.23481 3.59162 5.42507 3.47536V2.84582H5.42504ZM10.7353 2.84582H10.4209V3.47539C10.6111 3.59165 10.7927 3.7208 10.9644 3.86156V3.07489C10.9644 2.94859 10.8616 2.84582 10.7353 2.84582V2.84582ZM10.4209 12.3109H10.7353C10.8617 12.3109 10.9644 12.2082 10.9644 12.0819V11.2952C10.7927 11.436 10.6112 11.5651 10.4209 11.6814V12.3109ZM5.11064 12.3109H5.42504V11.6814C5.23481 11.5651 5.05327 11.436 4.88156 11.2952V12.0819C4.88156 12.2082 4.9843 12.3109 5.11064 12.3109V12.3109ZM7.92298 11.9435C10.3299 11.9435 12.2881 9.98531 12.2881 7.57837C12.2881 5.17145 10.3299 3.21325 7.92298 3.21325C5.51603 3.21325 3.55783 5.17145 3.55783 7.57837C3.55783 9.98531 5.51603 11.9435 7.92298 11.9435V11.9435ZM2.71193 7.70506C2.71193 7.7735 2.76762 7.82919 2.8361 7.82919H3.12465C3.12037 7.74612 3.11814 7.66249 3.11814 7.57834C3.11814 7.44104 3.12427 7.30514 3.13561 7.17075H2.8361C2.76762 7.17075 2.71193 7.22644 2.71193 7.29488V7.70506Z" fill="black"/>
</svg>
