<svg width="24" height="24" viewBox="0 0 24 24" fill="none" xmlns="http://www.w3.org/2000/svg">
<path d="M2.78125 22C2.58136 22 2.38132 21.9237 2.22888 21.7711C1.92371 21.4661 1.92371 20.9714 2.22888 20.6664L14.2533 8.64185L10.9354 5.33832C10.3731 4.77603 10.2069 3.93985 10.5106 3.20682C10.8142 2.47363 11.5232 2 12.3165 2H19.654C20.9476 2 22 3.0524 22 4.34604V11.6835C22 12.477 21.5264 13.1858 20.7933 13.4894C20.0617 13.7926 19.227 13.6275 18.666 13.0687L17.4684 11.8935C17.1605 11.5914 17.1558 11.0967 17.4581 10.7888C17.7602 10.4807 18.2549 10.4761 18.5628 10.7782L19.7626 11.9556C19.7643 11.9574 19.7661 11.9591 19.7678 11.9609C19.9352 12.1282 20.1226 12.076 20.1953 12.0459C20.2681 12.0157 20.4375 11.92 20.4375 11.6835V4.34604C20.4375 3.91391 20.0861 3.5625 19.654 3.5625H12.3165C12.08 3.5625 11.9843 3.73187 11.9541 3.80466C11.924 3.87744 11.8718 4.06497 12.0392 4.23221L15.3559 7.53467C15.652 7.82947 15.8155 8.22223 15.8159 8.64017C15.8162 9.05811 15.6537 9.45117 15.3582 9.74673L3.33362 21.7711C3.18118 21.9237 2.98129 22 2.78125 22Z" fill="#626262"/>
</svg>
