<svg width="100" height="100" viewBox="0 0 100 100" fill="none" xmlns="http://www.w3.org/2000/svg">
<path d="M93.75 34.375H6.25V28.125C6.25 26.399 7.64902 25 9.375 25H90.625C92.351 25 93.75 26.399 93.75 28.125V34.375Z" fill="#8CBAFA"/>
<path d="M90.625 93.75H9.375C7.64902 93.75 6.25 92.351 6.25 90.625V84.375H93.75V90.625C93.75 92.351 92.351 93.75 90.625 93.75Z" fill="#575B7A"/>
<path d="M44.1316 7.74648L12.5 25H87.5L55.8684 7.74648C54.0684 6.76445 52.0506 6.25 50 6.25C47.9494 6.25 45.9316 6.76445 44.1316 7.74648Z" fill="#8CBAFA"/>
<path d="M47.0617 13.2408L28.6395 23.1605C28.3227 23.3313 28.125 23.6619 28.125 24.0219C28.125 24.5621 28.5629 25 29.1031 25H70.8967C71.4369 25 71.8748 24.5621 71.8748 24.0219C71.8748 23.6619 71.6771 23.3313 71.3603 23.1605L52.9381 13.2408C52.0352 12.7545 51.0256 12.5 50 12.5C48.9744 12.5 47.9648 12.7545 47.0617 13.2408Z" fill="#5692D8"/>
<path d="M9.375 40.625H18.75V78.125H9.375V40.625Z" fill="#5692D8"/>
<path d="M14.0625 78.125H9.375V43.75H10.9375C12.6635 43.75 14.0625 45.149 14.0625 46.875V78.125Z" fill="#8CBAFA"/>
<path d="M18.75 40.625H9.375C7.64902 40.625 6.25 39.226 6.25 37.5V34.375H21.875V37.5C21.875 39.226 20.476 40.625 18.75 40.625Z" fill="#5692D8"/>
<path d="M21.875 84.375H6.25V81.25C6.25 79.524 7.64902 78.125 9.375 78.125H18.75C20.476 78.125 21.875 79.524 21.875 81.25V84.375Z" fill="#8CBAFA"/>
<path d="M81.25 40.625H90.625V78.125H81.25V40.625Z" fill="#5692D8"/>
<path d="M85.9375 78.125H81.25V43.75H82.8125C84.5385 43.75 85.9375 45.149 85.9375 46.875V78.125Z" fill="#8CBAFA"/>
<path d="M90.625 40.625H81.25C79.524 40.625 78.125 39.226 78.125 37.5V34.375H93.75V37.5C93.75 39.226 92.351 40.625 90.625 40.625Z" fill="#5692D8"/>
<path d="M93.75 84.375H78.125V81.25C78.125 79.524 79.524 78.125 81.25 78.125H90.625C92.351 78.125 93.75 79.524 93.75 81.25V84.375Z" fill="#8CBAFA"/>
<path d="M33.3335 40.625H42.7085V78.125H33.3335V40.625Z" fill="#5692D8"/>
<path d="M38.021 78.125H33.3335V43.75H34.896C36.622 43.75 38.021 45.149 38.021 46.875V78.125Z" fill="#8CBAFA"/>
<path d="M42.7085 40.625H33.3335C31.6075 40.625 30.2085 39.226 30.2085 37.5V34.375H45.8335V37.5C45.8335 39.226 44.4343 40.625 42.7085 40.625Z" fill="#5692D8"/>
<path d="M45.8335 84.375H30.2085V81.25C30.2085 79.524 31.6075 78.125 33.3335 78.125H42.7085C44.4345 78.125 45.8335 79.524 45.8335 81.25V84.375Z" fill="#8CBAFA"/>
<path d="M57.2915 40.625H66.6665V78.125H57.2915V40.625Z" fill="#5692D8"/>
<path d="M61.979 78.125H57.2915V43.75H58.854C60.58 43.75 61.979 45.149 61.979 46.875V78.125Z" fill="#8CBAFA"/>
<path d="M66.6665 40.625H57.2915C55.5655 40.625 54.1665 39.226 54.1665 37.5V34.375H69.7915V37.5C69.7915 39.226 68.3925 40.625 66.6665 40.625Z" fill="#5692D8"/>
<path d="M69.7915 84.375H54.1665V81.25C54.1665 79.524 55.5655 78.125 57.2915 78.125H66.6665C68.3925 78.125 69.7915 79.524 69.7915 81.25V84.375Z" fill="#8CBAFA"/>
<path d="M50 76.5625C59.4924 76.5625 67.1875 68.8674 67.1875 59.375C67.1875 49.8826 59.4924 42.1875 50 42.1875C40.5076 42.1875 32.8125 49.8826 32.8125 59.375C32.8125 68.8674 40.5076 76.5625 50 76.5625Z" fill="#FFCD34"/>
<path d="M50 43.75C58.6156 43.75 65.625 50.7594 65.625 59.375C65.625 67.9906 58.6156 75 50 75C41.3844 75 34.375 67.9906 34.375 59.375C34.375 50.7594 41.3844 43.75 50 43.75ZM50 40.625C39.6447 40.625 31.25 49.0197 31.25 59.375C31.25 69.7303 39.6447 78.125 50 78.125C60.3553 78.125 68.75 69.7303 68.75 59.375C68.75 49.0197 60.3553 40.625 50 40.625Z" fill="#FF6167"/>
<path d="M54.6875 57.8125C55.5504 57.8125 56.25 57.1129 56.25 56.25V55.1945C56.25 52.5014 54.1896 50.2807 51.5625 50.025V48.4375C51.5625 47.5746 50.8629 46.875 50 46.875C49.1371 46.875 48.4375 47.5746 48.4375 48.4375V50.025C45.8104 50.2807 43.75 52.5014 43.75 55.1945C43.75 57.434 45.1775 59.4145 47.302 60.1227L51.7098 61.592C52.5562 61.8742 53.125 62.6631 53.125 63.5555C53.125 64.6967 52.1967 65.625 51.0555 65.625H48.9445C47.8033 65.625 46.875 64.6965 46.875 63.5555V62.5C46.875 61.6371 46.1754 60.9375 45.3125 60.9375C44.4496 60.9375 43.75 61.6371 43.75 62.5V63.5555C43.75 66.2486 45.8104 68.4693 48.4375 68.725V70.3125C48.4375 71.1754 49.1371 71.875 50 71.875C50.8629 71.875 51.5625 71.1754 51.5625 70.3125V68.725C54.1896 68.4693 56.25 66.2486 56.25 63.5555C56.25 61.316 54.8225 59.3355 52.698 58.6273L48.2902 57.158C47.4438 56.8758 46.875 56.0869 46.875 55.1945C46.875 54.0533 47.8033 53.125 48.9445 53.125H51.0555C52.1967 53.125 53.125 54.0535 53.125 55.1945V56.25C53.125 57.1129 53.8246 57.8125 54.6875 57.8125Z" fill="#FF6167"/>
</svg>
