<svg width="100" height="100" viewBox="0 0 100 100" fill="none" xmlns="http://www.w3.org/2000/svg">
<g clip-path="url(#clip0_324_3254)">
<path d="M86.7797 36.4488L40.1595 83.0698C38.0522 85.1763 34.6365 85.1763 32.5301 83.0698L5.09548 55.6352C2.98901 53.528 2.98901 50.1123 5.09548 48.0058L51.7157 1.38479C53.823 -0.721688 57.2387 -0.721688 59.3451 1.38479L86.7797 28.8194C88.887 30.9258 88.887 34.3423 86.7797 36.4488Z" fill="#8CBAFA"/>
<path d="M86.7797 28.8193L83.3564 25.3953C85.2325 27.2713 85.0448 30.5001 82.9383 32.6066L36.3173 79.2276C34.2108 81.3348 30.982 81.5218 29.106 79.6457L32.53 83.0698C34.6365 85.1762 38.0522 85.1762 40.1594 83.0698L86.7797 36.4487C88.887 34.3423 88.887 30.9258 86.7797 28.8193Z" fill="#5692D8"/>
<path d="M14.06 53.7163C13.6846 53.7163 13.31 53.5729 13.0239 53.2868C12.4517 52.7146 12.4517 51.7876 13.0239 51.2154L35.8595 28.3798C36.4317 27.8076 37.3594 27.8076 37.9308 28.3798C38.503 28.952 38.503 29.8798 37.9308 30.4512L15.0953 53.2876C14.8092 53.5729 14.4346 53.7163 14.06 53.7163Z" fill="#252D4C"/>
<path d="M21.3173 60.9734C20.9419 60.9734 20.5673 60.83 20.2812 60.5439C19.709 59.9717 19.709 59.0447 20.2812 58.4725L43.1168 35.6369C43.689 35.0647 44.6167 35.0647 45.1882 35.6369C45.7604 36.2091 45.7604 37.1369 45.1882 37.7083L22.3526 60.5439C22.0665 60.83 21.6919 60.9734 21.3173 60.9734Z" fill="#252D4C"/>
<path d="M50.9545 12.0109L46.386 16.5786C44.5901 18.3746 44.5901 21.286 46.386 23.0819C48.182 24.8779 51.0941 24.8779 52.8901 23.0819L57.4578 18.5142C59.2538 16.7183 59.2538 13.8069 57.4578 12.0109C55.6619 10.2149 52.7497 10.2149 50.9545 12.0109Z" fill="#FFCD34"/>
<path d="M91.182 50.2168H25.2502C22.2709 50.2168 19.8555 52.6323 19.8555 55.6115V94.4101C19.8555 97.3894 22.2709 99.8049 25.2502 99.8049H91.182C94.162 99.8049 96.5768 97.3894 96.5768 94.4101V55.6115C96.5775 52.6323 94.162 50.2168 91.182 50.2168Z" fill="#FFCD34"/>
<path d="M91.1822 50.2168H86.3535C89.3328 50.2168 91.7483 52.6323 91.7483 55.6115V94.4101C91.7483 97.3894 89.3328 99.8049 86.3535 99.8049H91.1822C94.1622 99.8049 96.5769 97.3894 96.5769 94.4101V55.6115C96.5777 52.6323 94.1622 50.2168 91.1822 50.2168Z" fill="#E69012"/>
<path d="M19.8555 62.4055H96.5776V71.7264H19.8555V62.4055Z" fill="#575B7A"/>
<path d="M91.748 62.4055H96.5767V71.7264H91.748V62.4055Z" fill="#252D4C"/>
<path d="M77.7207 86.6197V92.3685C77.7207 92.8133 78.0808 93.1734 78.5256 93.1734H87.6694C88.1142 93.1734 88.4743 92.8133 88.4743 92.3685V86.6197C88.4743 86.1749 88.1142 85.8148 87.6694 85.8148H78.5256C78.0808 85.8148 77.7207 86.1749 77.7207 86.6197Z" fill="#E9E9EA"/>
<path d="M50.1509 86.6197V92.3685C50.1509 92.8133 50.5117 93.1734 50.9558 93.1734H70.2963C70.7411 93.1734 71.1012 92.8133 71.1012 92.3685V86.6197C71.1012 86.1749 70.7411 85.8148 70.2963 85.8148H50.9558C50.5117 85.8148 50.1509 86.1749 50.1509 86.6197Z" fill="#E9E9EA"/>
<path d="M42.2675 94.6382H32.6323C31.8228 94.6382 31.1675 93.9821 31.1675 93.1733C31.1675 92.3639 31.8228 91.7085 32.6323 91.7085H42.2675C43.077 91.7085 43.7323 92.3639 43.7323 93.1733C43.7323 93.9821 43.077 94.6382 42.2675 94.6382Z" fill="#252D4C"/>
</g>
<defs>
<clipPath id="clip0_324_3254">
<rect width="100" height="100" fill="white"/>
</clipPath>
</defs>
</svg>
