<svg width="100" height="100" viewBox="0 0 100 100" fill="none" xmlns="http://www.w3.org/2000/svg">
<g clip-path="url(#clip0_324_3267)">
<path d="M55.634 100H12.5756C8.13066 100 4.52734 96.3967 4.52734 91.9518V8.04824C4.52734 3.60332 8.13066 0 12.5756 0H55.634C60.0789 0 63.6822 3.60332 63.6822 8.04824V91.9518C63.6822 96.3967 60.0789 100 55.634 100Z" fill="#7B727B"/>
<path d="M55.6338 0H49.5977C54.0426 0 57.6459 3.60332 57.6459 8.04824V91.9518C57.6459 96.3967 54.0426 100 49.5977 100H55.6338C60.0787 100 63.682 96.3967 63.682 91.9518V8.04824C63.682 3.60332 60.0787 0 55.6338 0V0Z" fill="#686169"/>
<path d="M58.4512 8.04819V91.9517C58.4512 93.5074 57.19 94.7687 55.6342 94.7687H12.5758C11.0201 94.7687 9.75879 93.5076 9.75879 91.9517V8.04819C9.75879 6.49253 11.0199 5.2312 12.5758 5.2312H20.6449C21.1141 5.2312 21.5312 5.52886 21.684 5.97241L22.7473 9.06147C22.9 9.50503 23.3172 9.80269 23.7863 9.80269H44.4238C44.893 9.80269 45.3102 9.50503 45.4629 9.06147L46.5262 5.97241C46.6789 5.52886 47.0961 5.2312 47.5652 5.2312H55.6344C57.1898 5.2314 58.4512 6.49253 58.4512 8.04819Z" fill="#E5E5E5"/>
<path d="M55.6338 5.23145H49.5977C51.1533 5.23145 52.4146 6.49258 52.4146 8.04844V91.9519C52.4146 93.5076 51.1535 94.7689 49.5977 94.7689H55.6338C57.1895 94.7689 58.4508 93.5078 58.4508 91.9519V8.04824C58.4508 6.49258 57.1895 5.23145 55.6338 5.23145Z" fill="#D8D6D1"/>
<path d="M41.9518 81.7909H26.2576C23.924 81.7909 22.0322 79.8991 22.0322 77.5655C22.0322 75.2319 23.924 73.3401 26.2576 73.3401H41.9518C44.2854 73.3401 46.1771 75.2319 46.1771 77.5655C46.1771 79.8991 44.2854 81.7909 41.9518 81.7909Z" fill="#8CBAFA"/>
<path d="M91.5234 64.2857H22.1593C19.9778 64.2857 18.2095 62.5173 18.2095 60.3359V19.9457C18.2095 17.7642 19.9778 15.9958 22.1593 15.9958H91.5232C93.7046 15.9958 95.473 17.7642 95.473 19.9457V60.3359C95.4732 62.5173 93.7048 64.2857 91.5234 64.2857Z" fill="#8CBAFA"/>
<path d="M91.5235 15.9958H85.4873C87.6688 15.9958 89.4371 17.7642 89.4371 19.9457V60.3359C89.4371 62.5173 87.6688 64.2857 85.4873 64.2857H91.5235C93.7049 64.2857 95.4733 62.5173 95.4733 60.3359V19.9457C95.4733 17.7644 93.7049 15.9958 91.5235 15.9958Z" fill="#5692D8"/>
<path d="M73.1118 45.4021C73.1069 45.389 73.1016 45.3757 73.0964 45.3626C72.8288 44.7116 72.2014 44.2911 71.4975 44.2911H71.4968C70.7927 44.2913 70.1649 44.7126 69.8977 45.3642C69.8932 45.3755 69.8885 45.3868 69.8843 45.3986L65.5143 56.8724C65.2262 57.6282 65.6059 58.4745 66.362 58.7626C66.5335 58.828 66.7096 58.8589 66.8831 58.8589C67.4731 58.8589 68.0296 58.4995 68.2522 57.915L68.9811 56.0009H73.9801L74.701 57.9109C74.9866 58.6677 75.8319 59.0499 76.5887 58.764C77.3456 58.4784 77.7276 57.6333 77.4419 56.8763L73.1118 45.4021ZM70.0971 53.0712L71.4925 49.4079L72.8749 53.0712H70.0971Z" fill="#252D4C"/>
<path d="M86.1226 44.5578C85.4446 44.1162 84.537 44.3084 84.0958 44.9861L81.6347 48.7668L79.1456 44.9548C78.7032 44.2773 77.7954 44.0871 77.1183 44.5293C76.4409 44.9716 76.2503 45.8791 76.6925 46.5566L80.1706 51.883L80.1569 57.3898C80.155 58.199 80.8093 58.8564 81.6181 58.8584H81.6218C82.4292 58.8584 83.0847 58.2048 83.0866 57.3972L83.1003 51.8853L86.5509 46.5845C86.9923 45.9064 86.8005 44.999 86.1226 44.5578Z" fill="#252D4C"/>
<path d="M61.6877 44.2911H58.4473C58.058 44.2911 57.6848 44.4462 57.4098 44.7218C57.135 44.9976 56.9811 45.3714 56.9824 45.7607V57.3937C56.9824 58.2029 57.6381 58.8585 58.4473 58.8585C59.2565 58.8585 59.9121 58.2029 59.9121 57.3937V53.7956C60.5613 53.7923 61.2746 53.7892 61.6877 53.7892C64.3418 53.7892 66.5012 51.6587 66.5012 49.0402C66.5012 46.4216 64.3418 44.2911 61.6877 44.2911ZM61.6877 50.8593C61.2774 50.8593 60.5731 50.8624 59.9268 50.8656C59.9233 50.1968 59.9203 49.4616 59.9203 49.0398C59.9203 48.6822 59.9184 47.9208 59.9164 47.2206H61.6875C62.7086 47.2206 63.5713 48.0538 63.5713 49.0398C63.5715 50.0263 62.7088 50.8593 61.6877 50.8593Z" fill="#252D4C"/>
<path d="M40.9457 34.3058H28.4709C27.8041 34.3058 27.2637 33.7654 27.2637 33.0986V25.0504C27.2637 24.3836 27.8041 23.8431 28.4709 23.8431H40.9457C41.6125 23.8431 42.1529 24.3836 42.1529 25.0504V33.0986C42.1529 33.7654 41.6125 34.3058 40.9457 34.3058Z" fill="#FFCD34"/>
<path d="M35.9157 56.8061H18.2095V46.3434H35.9157C38.805 46.3434 41.1472 48.6856 41.1472 51.5748C41.1472 54.4639 38.805 56.8061 35.9157 56.8061Z" fill="#FF6167"/>
<path d="M55.1118 26.0139C54.3026 26.0139 53.647 26.6696 53.647 27.4788V29.8932C53.647 30.7024 54.3026 31.3581 55.1118 31.3581C55.921 31.3581 56.5767 30.7024 56.5767 29.8932V27.4788C56.5767 26.6698 55.9208 26.0139 55.1118 26.0139Z" fill="#252D4C"/>
<path d="M80.0015 26.0139C79.1923 26.0139 78.5366 26.6696 78.5366 27.4788V29.8932C78.5366 30.7024 79.1923 31.3581 80.0015 31.3581C80.8106 31.3581 81.4663 30.7024 81.4663 29.8932V27.4788C81.4663 26.6698 80.8106 26.0139 80.0015 26.0139Z" fill="#252D4C"/>
<path d="M85.3809 26.0139C84.5717 26.0139 83.916 26.6696 83.916 27.4788V29.8932C83.916 30.7024 84.5717 31.3581 85.3809 31.3581C86.19 31.3581 86.8457 30.7024 86.8457 29.8932V27.4788C86.8457 26.6698 86.19 26.0139 85.3809 26.0139Z" fill="#252D4C"/>
<path d="M62.9224 26.0139C62.1132 26.0139 61.4575 26.6696 61.4575 27.4788V29.8932C61.4575 30.7024 62.1132 31.3581 62.9224 31.3581C63.7315 31.3581 64.3872 30.7024 64.3872 29.8932V27.4788C64.3872 26.6698 63.7315 26.0139 62.9224 26.0139Z" fill="#252D4C"/>
<path d="M68.624 26.0139C67.8148 26.0139 67.1592 26.6696 67.1592 27.4788V29.8932C67.1592 30.7024 67.8148 31.3581 68.624 31.3581C69.4332 31.3581 70.0889 30.7024 70.0889 29.8932V27.4788C70.0889 26.6698 69.433 26.0139 68.624 26.0139Z" fill="#252D4C"/>
</g>
<defs>
<clipPath id="clip0_324_3267">
<rect width="100" height="100" fill="white"/>
</clipPath>
</defs>
</svg>
