<svg xmlns="http://www.w3.org/2000/svg" width="22.92" height="22.92" viewBox="0 0 22.92 22.92">
  <defs>
    <style>
      .cls-1 {
        fill: #0f0f0f;
      }
    </style>
  </defs>
  <g id="chat" transform="translate(-10 3)">
    <g id="Group_5346" data-name="Group 5346" transform="translate(10 -3)">
      <g id="Group_5345" data-name="Group 5345" transform="translate(0 0)">
        <path id="Path_4058" data-name="Path 4058" class="cls-1" d="M20.974,13.724a.9.9,0,0,0-1.66.671L20.368,17l-3.132-1.381a.9.9,0,0,0-.713,0,8.632,8.632,0,0,1-3.408.688c-4.793,0-8.013-3.753-8.013-7.258,0-4,3.595-7.258,8.013-7.258S21.13,5.047,21.13,9.049a7.3,7.3,0,0,1-.08,1.026.9.9,0,1,0,1.771.264,9.035,9.035,0,0,0,.1-1.29,8.653,8.653,0,0,0-2.9-6.426A10.175,10.175,0,0,0,13.117,0a10.175,10.175,0,0,0-6.9,2.623A8.7,8.7,0,0,0,3.348,8.278,7.238,7.238,0,0,0,0,14.3a6.946,6.946,0,0,0,1.373,4.15L.066,21.689a.9.9,0,0,0,1.191,1.155l3.771-1.662a8.521,8.521,0,0,0,2.986.532c.022,0,.044,0,.066,0a8.474,8.474,0,0,0,4.212-1.142A7.707,7.707,0,0,0,15,17.931a10.3,10.3,0,0,0,1.86-.517l4.8,2.117a.9.9,0,0,0,1.191-1.155ZM8.013,19.92l-.036,0a6.715,6.715,0,0,1-2.616-.535.9.9,0,0,0-.712,0l-2.1.924.676-1.673a.9.9,0,0,0-.149-.916A5.226,5.226,0,0,1,1.791,14.3a5.327,5.327,0,0,1,1.655-3.814,9.038,9.038,0,0,0,2.648,4.84,10.008,10.008,0,0,0,6.514,2.756A6.58,6.58,0,0,1,8.013,19.92Z" transform="translate(0 0)"/>
        <circle id="Ellipse_104" data-name="Ellipse 104" class="cls-1" cx="1" cy="1" r="1" transform="translate(12.398 8.399)"/>
        <circle id="Ellipse_105" data-name="Ellipse 105" class="cls-1" cx="1" cy="1" r="1" transform="translate(15.399 8.399)"/>
        <circle id="Ellipse_106" data-name="Ellipse 106" class="cls-1" cx="1" cy="1" r="1" transform="translate(8.398 8.399)"/>
      </g>
    </g>
  </g>
</svg>
