<svg xmlns="http://www.w3.org/2000/svg" width="18.988" height="21.632" viewBox="0 0 18.988 21.632">
  <defs>
    <style>
      .cls-1 {
        fill: none;
        stroke-linecap: round;
        stroke-linejoin: round;
        stroke-miterlimit: 10;
      }

      .cls-2, .cls-3 {
        stroke: none;
      }

      .cls-3 {
        fill: #0f0f0f;
      }
    </style>
  </defs>
  <g id="Icon_Notification" data-name="Icon / Notification" transform="translate(2 2)">
    <g id="Shape" class="cls-1" transform="translate(0 0)">
      <path class="cls-2" d="M7.493,17.632a1.765,1.765,0,0,1-1.763-1.763H9.257A1.765,1.765,0,0,1,7.493,17.632Zm7.494-2.645H0v-.882l1.763-1.763V7.493a5.621,5.621,0,0,1,1.245-3.57A5.835,5.835,0,0,1,6.171,1.939V1.322a1.322,1.322,0,0,1,2.645,0v.617a5.837,5.837,0,0,1,3.163,1.984,5.62,5.62,0,0,1,1.245,3.57v4.849l1.763,1.763v.881Z"/>
      <path class="cls-3" d="M 7.493433952331543 17.63232040405273 C 8.465463638305664 17.63232040405273 9.256863594055176 16.84157943725586 9.256863594055176 15.86888980865479 L 5.730663776397705 15.86888980865479 C 5.730663776397705 16.84124946594238 6.52143383026123 17.63232040405273 7.493433952331543 17.63232040405273 M 14.98752403259277 14.98750972747803 L 14.98752403259277 14.98677062988281 L 14.98752403259277 14.10546016693115 L 13.22409439086914 12.34269046783447 L 13.22409439086914 7.493420124053955 C 13.22409439086914 6.167420387268066 12.7934741973877 4.932840347290039 11.97879409790039 3.92317008972168 C 11.19061374664307 2.946340084075928 10.06712436676025 2.241530179977417 8.81584358215332 1.939310193061829 L 8.81584358215332 1.322410225868225 C 8.81584358215332 0.6179502010345459 8.197894096374512 2.020263707436243e-07 7.493433952331543 2.020263707436243e-07 C 6.788973808288574 2.020263707436243e-07 6.171023845672607 0.6179502010345459 6.171023845672607 1.322410225868225 L 6.171023845672607 1.939310193061829 C 4.920023918151855 2.241540193557739 3.796933889389038 2.946090221405029 3.008643865585327 3.92317008972168 C 2.194013833999634 4.93289041519165 1.763433933258057 6.16746997833252 1.763433933258057 7.493420124053955 L 1.763433933258057 12.34269046783447 L 3.923645181203028e-06 14.10546016693115 L 3.923645181203028e-06 14.98750972747803 L 14.98679351806641 14.98750972747803 L 14.98752403259277 14.98750972747803 M 7.493433952331543 19.63232040405273 C 5.807912349700928 19.63232040405273 4.377693653106689 18.51816940307617 3.900341987609863 16.98751068115234 L 3.923645181203028e-06 16.98751068115234 C -1.104566097259521 16.98751068115234 -1.999996066093445 16.09208106994629 -1.999996066093445 14.98750972747803 L -1.999996066093445 14.10546016693115 C -1.999996066093445 13.57490062713623 -1.789176106452942 13.06608009338379 -1.413946032524109 12.69097995758057 L -0.2365660816431046 11.51404094696045 L -0.2365660816431046 7.493420124053955 C -0.2365660816431046 5.705460071563721 0.3473539352416992 4.036630153656006 1.452073931694031 2.667350292205811 C 2.205070972442627 1.734013795852661 3.18143892288208 0.9858055114746094 4.282744884490967 0.4846676290035248 C 4.664962768554688 -0.9263554811477661 5.98060417175293 -1.999999761581421 7.493433952331543 -1.999999761581421 C 9.006263732910156 -1.999999761581421 10.32187080383301 -0.9264817237854004 10.70408821105957 0.4845413863658905 C 11.80556201934814 0.9856598377227783 12.78221225738525 1.733926653862 13.53529357910156 2.667270183563232 C 14.64011383056641 4.036520004272461 15.22409439086914 5.705380439758301 15.22409439086914 7.493420124053955 L 15.22409439086914 11.51404094696045 L 16.40147399902344 12.69097995758057 C 16.77670478820801 13.06608009338379 16.98752403259277 13.57490062713623 16.98752403259277 14.10546016693115 L 16.98752403259277 14.98677062988281 C 16.98752403259277 16.09134101867676 16.09209442138672 16.98751068115234 14.98752403259277 16.98751068115234 L 14.98679351806641 16.98751068115234 L 11.08715534210205 16.98751068115234 C 10.60971927642822 18.51816940307617 9.179247856140137 19.63232040405273 7.493433952331543 19.63232040405273 Z"/>
    </g>
  </g>
</svg>
