<svg width="290" height="42" viewBox="0 0 290 42" fill="none" xmlns="http://www.w3.org/2000/svg">
<path d="M21.0347 40.9306C32.0612 40.9306 41 31.9918 41 20.9653C41 9.93877 32.0612 1 21.0347 1C10.0082 1 1.0694 9.93877 1.0694 20.9653C1.0694 31.9918 10.0082 40.9306 21.0347 40.9306Z" stroke="#346751" stroke-width="1.77" stroke-miterlimit="10"/>
<path d="M23.4832 33.5331C21.4685 34.1642 19.6468 34.8018 18.0441 35.4047C12.0801 34.0883 7.58863 33.4529 5.2681 33.2512C5.14665 33.0582 4.98399 32.8478 4.87122 32.6483C4.30518 31.642 3.53745 30.6964 3.29456 29.6121C10.1343 30.2684 16.895 31.5815 23.4832 33.5331V33.5331Z" fill="#346751"/>
<path d="M6.28516 34.2444C8.46906 34.5025 11.4901 34.9362 15.0511 35.6454C12.7349 36.6495 11.1843 37.4324 10.5489 37.7642C8.96631 36.8013 7.53039 35.6159 6.28516 34.2444V34.2444Z" fill="#346751"/>
<path d="M20.8916 40.7614C19.408 40.8641 17.9174 40.7752 16.4565 40.4968C20.627 38.3823 28.1677 34.8798 36.5888 33.4854C31.2841 40.3125 21.7179 40.9306 20.8916 40.7614Z" fill="#346751"/>
<path d="M38.2175 31.4922C38.0831 31.8197 37.5539 32.2274 37.4043 32.5376C26.1898 34.1966 19.7769 37.7186 15.5587 40.243C14.3594 39.8093 12.8369 39.2801 11.6094 38.5211C14.7779 36.4608 24.6825 30.7657 39.1523 29.677C38.9853 30.3558 38.4843 30.8459 38.2175 31.4922Z" fill="#346751"/>
<path d="M21.8914 26.5693H20.1781L19.6945 33.5266H22.375L21.8914 26.5693Z" fill="#346751"/>
<path d="M22.3749 33.5266H21.0347V26.5693H21.9022L21.9542 27.2915L22.3749 33.5266Z" fill="#346751"/>
<path d="M21.0347 24.7476C13.6784 22.3403 9.77466 28.9267 9.77466 28.9267C9.77466 28.9267 16.1572 32.0367 21.0347 26.6279C25.9122 32.0345 32.2882 28.9245 32.2882 28.9245C32.2882 28.9245 28.3845 22.3381 21.0347 24.7476Z" fill="#346751"/>
<path d="M32.2882 28.9246C32.2882 28.9246 26.6604 31.6658 21.9369 27.5214C21.6159 27.2418 21.3124 26.9427 21.0282 26.6257V24.7476C21.701 24.5229 22.395 24.3674 23.0993 24.2835C29.1219 23.57 32.2882 28.9246 32.2882 28.9246Z" fill="#346751"/>
<path d="M6.21362 21.1648C6.21362 21.1648 11.0737 28.7857 21.0672 26.63L21.5487 25.4329C15.3722 18.0657 6.21362 21.1648 6.21362 21.1648Z" fill="#346751"/>
<path d="M35.8557 21.1648C35.8557 21.1648 31.0065 28.7705 21.0347 26.6386V24.8516C27.1873 18.2413 35.8557 21.1648 35.8557 21.1648Z" fill="#346751"/>
<path d="M8.82262 12.6721C8.82262 12.6721 8.61876 23.3618 20.4036 26.0293L21.7179 24.9753C20.3971 13.904 8.82262 12.6721 8.82262 12.6721Z" fill="#346751"/>
<path d="M33.2468 12.6721C33.2468 12.6721 33.4507 23.3618 21.6658 26.0293L20.3602 24.9753C21.6723 13.904 33.2468 12.6721 33.2468 12.6721Z" fill="#346751"/>
<path d="M21.0347 5.18774C21.0347 5.18774 12.3598 15.0858 20.0653 26.0314H22.0041C29.7074 15.0858 21.0347 5.18774 21.0347 5.18774Z" fill="#346751"/>
<path d="M58.092 25.94C63.2067 26.22 66.6693 26.36 68.48 26.36C68.9093 26.36 69.2453 26.2387 69.488 25.996C69.7493 25.7347 69.88 25.3893 69.88 24.96V22.44H63.44C61.48 22.44 60.052 22.0013 59.156 21.124C58.2787 20.228 57.84 18.8 57.84 16.84V16C57.84 14.04 58.2787 12.6213 59.156 11.744C60.052 10.848 61.48 10.4 63.44 10.4H73.268V14.32H64.56C63.44 14.32 62.88 14.88 62.88 16V16.56C62.88 17.68 63.44 18.24 64.56 18.24H69.6C71.4293 18.24 72.7733 18.6693 73.632 19.528C74.4907 20.3867 74.92 21.7307 74.92 23.56V24.96C74.92 26.7893 74.4907 28.1333 73.632 28.992C72.7733 29.8507 71.4293 30.28 69.6 30.28C68.648 30.28 67.64 30.2613 66.576 30.224L64 30.112C62.096 30.0187 60.1267 29.888 58.092 29.72V25.94ZM86.6778 30H76.5978V26.08H79.1178V14.32H76.5978V10.4H86.6778V14.32H84.1578V26.08H86.6778V30ZM92.6956 30H87.2356L94.6556 10.4H100.256L107.676 30H102.216L100.956 26.5H93.9556L92.6956 30ZM95.2156 22.86H99.6956L97.4556 16.28L95.2156 22.86ZM125.875 19.08L121.955 26.08H118.035L114.115 19.08V30H109.075V10.4H114.395L119.995 20.76L125.595 10.4H130.915V30H125.875V19.08ZM157.8 29.72C153.637 30.0933 150.184 30.28 147.44 30.28C145.611 30.28 144.267 29.8507 143.408 28.992C142.549 28.1333 142.12 26.7893 142.12 24.96V16C142.12 14.04 142.559 12.6213 143.436 11.744C144.332 10.848 145.76 10.4 147.72 10.4H157.8V14.32H148.84C147.72 14.32 147.16 14.88 147.16 16V24.96C147.16 25.3893 147.281 25.7347 147.524 25.996C147.785 26.2387 148.112 26.36 148.504 26.36C148.896 26.36 149.325 26.36 149.792 26.36C150.259 26.3413 150.744 26.3227 151.248 26.304C151.752 26.2853 152.256 26.2667 152.76 26.248C153.283 26.2293 153.945 26.192 154.748 26.136C155.569 26.08 156.587 26.0147 157.8 25.94V29.72ZM163.543 30H158.083L165.503 10.4H171.103L178.523 30H173.063L171.803 26.5H164.803L163.543 30ZM166.063 22.86H170.543L168.303 16.28L166.063 22.86ZM197.002 30H191.682L184.962 18.24V30H179.922V10.4H185.242L191.962 22.16V10.4H197.002V30ZM217.455 30H212.135L205.415 18.24V30H200.375V10.4H205.695L212.415 22.16V10.4H217.455V30ZM224.328 30H218.868L226.288 10.4H231.888L239.308 30H233.848L232.588 26.5H225.588L224.328 30ZM226.848 22.86H231.328L229.088 16.28L226.848 22.86ZM240.707 10.4H251.907C253.737 10.4 255.081 10.82 255.939 11.66C256.798 12.4813 257.227 13.7413 257.227 15.44C257.227 16.56 256.985 17.4747 256.499 18.184C256.014 18.8747 255.417 19.36 254.707 19.64C256.219 20.0507 257.246 21.0587 257.787 22.664C257.974 23.2427 258.067 23.9147 258.067 24.68C258.067 26.5093 257.638 27.8533 256.779 28.712C255.921 29.5707 254.577 30 252.747 30H240.707V10.4ZM253.027 23.84C253.027 22.72 252.467 22.16 251.347 22.16H245.747V26.08H251.347C252.467 26.08 253.027 25.52 253.027 24.4V23.84ZM252.187 16C252.187 14.88 251.627 14.32 250.507 14.32H245.747V18.24H250.507C251.627 18.24 252.187 17.68 252.187 16.56V16ZM269.826 30H259.746V26.08H262.266V14.32H259.746V10.4H269.826V14.32H267.306V26.08H269.826V30ZM271.756 25.94C276.871 26.22 280.333 26.36 282.144 26.36C282.573 26.36 282.909 26.2387 283.152 25.996C283.413 25.7347 283.544 25.3893 283.544 24.96V22.44H277.104C275.144 22.44 273.716 22.0013 272.82 21.124C271.943 20.228 271.504 18.8 271.504 16.84V16C271.504 14.04 271.943 12.6213 272.82 11.744C273.716 10.848 275.144 10.4 277.104 10.4H286.932V14.32H278.224C277.104 14.32 276.544 14.88 276.544 16V16.56C276.544 17.68 277.104 18.24 278.224 18.24H283.264C285.093 18.24 286.437 18.6693 287.296 19.528C288.155 20.3867 288.584 21.7307 288.584 23.56V24.96C288.584 26.7893 288.155 28.1333 287.296 28.992C286.437 29.8507 285.093 30.28 283.264 30.28C282.312 30.28 281.304 30.2613 280.24 30.224L277.664 30.112C275.76 30.0187 273.791 29.888 271.756 29.72V25.94Z" fill="#010002"/>
</svg>
