<svg width="42" height="42" viewBox="0 0 42 42" fill="none" xmlns="http://www.w3.org/2000/svg">
<path d="M21.0348 40.9306C32.0613 40.9306 41 31.9918 41 20.9653C41 9.93877 32.0613 1 21.0348 1C10.0082 1 1.06946 9.93877 1.06946 20.9653C1.06946 31.9918 10.0082 40.9306 21.0348 40.9306Z" stroke="#346751" stroke-width="1.77" stroke-miterlimit="10"/>
<path d="M23.4832 33.5331C21.4685 34.1642 19.6468 34.8018 18.0441 35.4047C12.0801 34.0883 7.58863 33.4529 5.2681 33.2512C5.14665 33.0582 4.98399 32.8478 4.87122 32.6483C4.30518 31.642 3.53745 30.6964 3.29456 29.6121C10.1343 30.2684 16.895 31.5815 23.4832 33.5331Z" fill="#346751"/>
<path d="M6.28516 34.2444C8.46906 34.5025 11.4901 34.9362 15.0511 35.6454C12.7349 36.6495 11.1843 37.4324 10.5489 37.7642C8.96631 36.8013 7.53039 35.6159 6.28516 34.2444Z" fill="#346751"/>
<path d="M20.8916 40.7614C19.408 40.8641 17.9174 40.7752 16.4565 40.4968C20.627 38.3823 28.1677 34.8798 36.5888 33.4854C31.2841 40.3125 21.7179 40.9306 20.8916 40.7614Z" fill="#346751"/>
<path d="M38.2175 31.4922C38.083 31.8197 37.5538 32.2274 37.4042 32.5376C26.1897 34.1966 19.7768 37.7186 15.5586 40.243C14.3593 39.8093 12.8369 39.2801 11.6094 38.5211C14.7779 36.4608 24.6825 30.7657 39.1522 29.677C38.9852 30.3558 38.4842 30.8459 38.2175 31.4922Z" fill="#346751"/>
<path d="M21.8914 26.5693H20.1781L19.6945 33.5266H22.375L21.8914 26.5693Z" fill="#346751"/>
<path d="M22.3749 33.5266H21.0347V26.5693H21.9022L21.9542 27.2915L22.3749 33.5266Z" fill="#346751"/>
<path d="M21.0347 24.7476C13.6784 22.3403 9.77466 28.9267 9.77466 28.9267C9.77466 28.9267 16.1572 32.0367 21.0347 26.6279C25.9121 32.0345 32.2882 28.9245 32.2882 28.9245C32.2882 28.9245 28.3845 22.3381 21.0347 24.7476Z" fill="#346751"/>
<path d="M32.2882 28.9246C32.2882 28.9246 26.6604 31.6658 21.9369 27.5214C21.6159 27.2418 21.3124 26.9427 21.0282 26.6257V24.7476C21.701 24.5229 22.395 24.3674 23.0993 24.2835C29.1219 23.57 32.2882 28.9246 32.2882 28.9246Z" fill="#346751"/>
<path d="M6.21362 21.1648C6.21362 21.1648 11.0737 28.7857 21.0672 26.63L21.5487 25.4329C15.3722 18.0657 6.21362 21.1648 6.21362 21.1648Z" fill="#346751"/>
<path d="M35.8557 21.1648C35.8557 21.1648 31.0065 28.7705 21.0347 26.6386V24.8516C27.1873 18.2413 35.8557 21.1648 35.8557 21.1648Z" fill="#346751"/>
<path d="M8.82262 12.6721C8.82262 12.6721 8.61876 23.3618 20.4036 26.0293L21.7179 24.9753C20.3971 13.904 8.82262 12.6721 8.82262 12.6721Z" fill="#346751"/>
<path d="M33.2468 12.6721C33.2468 12.6721 33.4507 23.3618 21.6658 26.0293L20.3602 24.9753C21.6723 13.904 33.2468 12.6721 33.2468 12.6721Z" fill="#346751"/>
<path d="M21.0348 5.18774C21.0348 5.18774 12.3599 15.0858 20.0653 26.0314H22.0042C29.7075 15.0858 21.0348 5.18774 21.0348 5.18774Z" fill="#346751"/>
</svg>
