<svg width="45" height="41" viewBox="0 0 45 41" fill="none" xmlns="http://www.w3.org/2000/svg">
<path d="M37.8996 40.6534C39.0258 39.9415 40.0661 39.1058 41.01 38.1876C42.2112 37.3932 43.3588 36.5162 44.4207 35.5567C44.485 35.4845 44.2598 35.2369 44.1525 35.2679C42.8118 35.794 41.5891 36.5472 40.538 37.4963C39.3475 38.2392 38.3501 39.2193 37.5993 40.3645C37.5564 40.4573 37.8138 40.6946 37.8996 40.6534Z" fill="url(#paint0_linear_404_3266)"/>
<path d="M41.9377 2.42245C41.3585 7.68415 41.1762 12.9768 41.4014 18.2591C41.4872 23.7478 41.6696 29.3087 42.3238 34.7664C42.4096 35.468 43.5251 35.4267 43.4715 34.7149C43.0424 29.3397 42.5812 24.0057 42.5062 18.6202C42.4311 13.2347 42.8816 7.88018 42.8601 2.50499C42.8601 2.00977 42.0021 1.91692 41.9377 2.42245Z" fill="url(#paint1_linear_404_3266)"/>
<path d="M39.2671 38.1009C39.5567 35.2947 39.2993 32.3956 39.2993 29.579C39.2993 26.5149 39.621 23.3888 39.3958 20.335C39.3851 20.2215 39.2885 20.1389 39.1705 20.1492C39.0847 20.1596 39.0097 20.2215 38.9882 20.304C38.5377 23.2547 38.3554 26.2363 38.4412 29.2179C38.2696 32.1893 38.3983 35.1709 38.8381 38.1216C38.881 38.235 39.0097 38.2866 39.1169 38.2454C39.192 38.2247 39.2456 38.1628 39.2671 38.1009Z" fill="url(#paint2_linear_404_3266)"/>
<path d="M42.0148 1.41344C39.2369 0.918218 36.4268 0.670609 33.606 0.680926C30.4205 0.515853 27.2351 0.402365 24.0603 0.299195C17.8181 0.0928535 11.5866 0 5.35511 0C4.4649 0 4.57215 1.23805 5.41947 1.29995C8.44405 1.49597 11.415 2.15627 14.4289 2.36261C15.1153 2.41419 15.0831 1.46502 14.5254 1.27932C11.533 0.474585 8.45477 0.0515853 5.35511 0L5.41947 1.29995C11.5115 1.28963 17.6036 1.37217 23.7064 1.54756C26.7524 1.64041 29.7985 1.7539 32.8445 1.88802C35.8691 2.19753 38.9259 2.26975 41.9612 2.10468C42.1649 2.08405 42.3151 1.91897 42.3044 1.72295C42.2829 1.57851 42.1757 1.44439 42.0148 1.41344Z" fill="url(#paint3_linear_404_3266)"/>
<path d="M37.0887 4.06493C37.196 3.63162 36.9064 3.1983 36.4666 3.10545C36.3379 3.07449 36.2092 3.07449 36.0912 3.10545L28.8194 2.74435L12.0984 1.52694C12.0876 1.65074 12.0876 1.77455 12.0769 1.89835L2.89589 1.43408C2.57413 14.0209 2.26309 26.7728 0.0750941 39.2048C-0.0750626 39.6278 1.57058e-05 40.0921 0.268153 40.4532C0.55774 40.6595 0.900956 40.7524 1.2549 40.7214C13.2567 41.0619 25.2478 41.0929 37.2603 40.7937C37.2067 28.5576 37.1423 16.3113 37.0887 4.06493Z" fill="url(#paint4_linear_404_3266)"/>
<path d="M36.6961 3.16423C35.0444 2.62774 33.4248 2.00872 31.8482 1.29684L31.6122 2.33886C35.1838 2.4214 39.0128 2.86503 42.5629 2.4833C42.9705 2.44203 43.0777 1.83333 42.6273 1.75079C39.0664 1.1524 35.1731 1.36906 31.5586 1.23494C30.9687 1.2143 30.84 2.03967 31.3226 2.27696C32.91 3.18486 34.7333 3.65945 36.5781 3.64913C36.8355 3.63881 36.9535 3.25708 36.6961 3.16423Z" fill="url(#paint5_linear_404_3266)"/>
<defs>
<linearGradient id="paint0_linear_404_3266" x1="44.2008" y1="40.9309" x2="41.1134" y2="35.8602" gradientUnits="userSpaceOnUse">
<stop stop-color="#E37506"/>
<stop offset="1" stop-color="#FFB546"/>
</linearGradient>
<linearGradient id="paint1_linear_404_3266" x1="43.4001" y1="36.9496" x2="39.8104" y2="36.6462" gradientUnits="userSpaceOnUse">
<stop stop-color="#E37506"/>
<stop offset="1" stop-color="#FFB546"/>
</linearGradient>
<linearGradient id="paint2_linear_404_3266" x1="39.4383" y1="39.1755" x2="37.6002" y2="39.0298" gradientUnits="userSpaceOnUse">
<stop stop-color="#E37506"/>
<stop offset="1" stop-color="#FFB546"/>
</linearGradient>
<linearGradient id="paint3_linear_404_3266" x1="41.0341" y1="2.48422" x2="40.8864" y2="-0.55617" gradientUnits="userSpaceOnUse">
<stop stop-color="#E37506"/>
<stop offset="1" stop-color="#FFB546"/>
</linearGradient>
<linearGradient id="paint4_linear_404_3266" x1="36" y1="43" x2="11" y2="12.5" gradientUnits="userSpaceOnUse">
<stop stop-color="#E37506"/>
<stop offset="1" stop-color="#FFB546"/>
</linearGradient>
<linearGradient id="paint5_linear_404_3266" x1="42.5178" y1="3.77142" x2="42.0417" y2="0.733893" gradientUnits="userSpaceOnUse">
<stop stop-color="#E37506"/>
<stop offset="1" stop-color="#FFB546"/>
</linearGradient>
</defs>
</svg>
