<svg width="442" height="81" viewBox="0 0 442 81" fill="none" xmlns="http://www.w3.org/2000/svg">
<path d="M40.6387 80C62.4539 80 80.1387 62.3152 80.1387 40.5C80.1387 18.6848 62.4539 1 40.6387 1C18.8234 1 1.13867 18.6848 1.13867 40.5C1.13867 62.3152 18.8234 80 40.6387 80Z" stroke="#346751" stroke-width="1.77" stroke-miterlimit="10"/>
<path d="M45.483 65.3645C41.4969 66.6131 37.8927 67.8745 34.7219 69.0673C22.9226 66.4629 14.0366 65.2057 9.44553 64.8067C9.20526 64.4248 8.88346 64.0086 8.66034 63.6139C7.54047 61.623 6.02157 59.7523 5.54102 57.6069C19.073 58.9055 32.4487 61.5033 45.483 65.3645V65.3645Z" fill="#346751"/>
<path d="M11.457 66.7717C15.7777 67.2823 21.7547 68.1405 28.8 69.5435C24.2175 71.5301 21.1497 73.079 19.8925 73.7355C16.7615 71.8304 13.9206 69.4852 11.457 66.7717V66.7717Z" fill="#346751"/>
<path d="M40.3545 79.6653C37.4194 79.8684 34.4703 79.6925 31.5801 79.1418C39.8311 74.9584 54.7498 68.0289 71.4105 65.27C60.9155 78.7771 41.9893 79.9999 40.3545 79.6653Z" fill="#346751"/>
<path d="M74.6326 61.3269C74.3666 61.9748 73.3196 62.7814 73.0236 63.395C50.8365 66.6774 38.1489 73.6454 29.8036 78.6398C27.4308 77.7817 24.4188 76.7347 21.9902 75.233C28.2589 71.1568 47.8544 59.8895 76.4819 57.7356C76.1515 59.0786 75.1603 60.0483 74.6326 61.3269Z" fill="#346751"/>
<path d="M42.3347 51.5872H38.9451L37.9883 65.3517H43.2916L42.3347 51.5872Z" fill="#346751"/>
<path d="M43.2903 65.3517H40.6387V51.5872H42.3549L42.4579 53.016L43.2903 65.3517Z" fill="#346751"/>
<path d="M40.6385 47.983C26.0846 43.2203 18.3613 56.2511 18.3613 56.2511C18.3613 56.2511 30.9888 62.404 40.6385 51.703C50.2883 62.3997 62.9029 56.2468 62.9029 56.2468C62.9029 56.2468 55.1797 43.216 40.6385 47.983Z" fill="#346751"/>
<path d="M62.9003 56.2469C62.9003 56.2469 51.7659 61.6703 42.4208 53.4708C41.7857 52.9176 41.1853 52.3258 40.623 51.6987V47.983C41.9542 47.5385 43.3271 47.2309 44.7206 47.0648C56.6359 45.6532 62.9003 56.2469 62.9003 56.2469Z" fill="#346751"/>
<path d="M11.3125 40.8948C11.3125 40.8948 20.9279 55.9722 40.6994 51.7073L41.6519 49.3389C29.432 34.7634 11.3125 40.8948 11.3125 40.8948Z" fill="#346751"/>
<path d="M69.9612 40.8948C69.9612 40.8948 60.3672 55.9422 40.6387 51.7244V48.1889C52.8113 35.1109 69.9612 40.8948 69.9612 40.8948Z" fill="#346751"/>
<path d="M16.477 24.0925C16.477 24.0925 16.0737 45.2413 39.3892 50.5188L41.9894 48.4336C39.3764 26.5296 16.477 24.0925 16.477 24.0925Z" fill="#346751"/>
<path d="M64.796 24.0925C64.796 24.0925 65.1993 45.2413 41.8838 50.5188L39.3008 48.4336C41.8966 26.5296 64.796 24.0925 64.796 24.0925Z" fill="#346751"/>
<path d="M40.6378 9.28516C40.6378 9.28516 23.475 28.8678 38.7198 50.5229H42.5557C57.7962 28.8678 40.6378 9.28516 40.6378 9.28516Z" fill="#346751"/>
<path d="M104.17 45.65C109.65 45.95 113.36 46.1 115.3 46.1C115.76 46.1 116.12 45.97 116.38 45.71C116.66 45.43 116.8 45.06 116.8 44.6V41.9H109.9C107.8 41.9 106.27 41.43 105.31 40.49C104.37 39.53 103.9 38 103.9 35.9V35C103.9 32.9 104.37 31.38 105.31 30.44C106.27 29.48 107.8 29 109.9 29H120.43V33.2H111.1C109.9 33.2 109.3 33.8 109.3 35V35.6C109.3 36.8 109.9 37.4 111.1 37.4H116.5C118.46 37.4 119.9 37.86 120.82 38.78C121.74 39.7 122.2 41.14 122.2 43.1V44.6C122.2 46.56 121.74 48 120.82 48.92C119.9 49.84 118.46 50.3 116.5 50.3C115.48 50.3 114.4 50.28 113.26 50.24L110.5 50.12C108.46 50.02 106.35 49.88 104.17 49.7V45.65ZM134.798 50H123.998V45.8H126.698V33.2H123.998V29H134.798V33.2H132.098V45.8H134.798V50ZM141.245 50H135.395L143.345 29H149.345L157.295 50H151.445L150.095 46.25H142.595L141.245 50ZM143.945 42.35H148.745L146.345 35.3L143.945 42.35ZM176.794 38.3L172.594 45.8H168.394L164.194 38.3V50H158.794V29H164.494L170.494 40.1L176.494 29H182.194V50H176.794V38.3ZM211 49.7C206.54 50.1 202.84 50.3 199.9 50.3C197.94 50.3 196.5 49.84 195.58 48.92C194.66 48 194.2 46.56 194.2 44.6V35C194.2 32.9 194.67 31.38 195.61 30.44C196.57 29.48 198.1 29 200.2 29H211V33.2H201.4C200.2 33.2 199.6 33.8 199.6 35V44.6C199.6 45.06 199.73 45.43 199.99 45.71C200.27 45.97 200.62 46.1 201.04 46.1C201.46 46.1 201.92 46.1 202.42 46.1C202.92 46.08 203.44 46.06 203.98 46.04C204.52 46.02 205.06 46 205.6 45.98C206.16 45.96 206.87 45.92 207.73 45.86C208.61 45.8 209.7 45.73 211 45.65V49.7ZM217.154 50H211.304L219.254 29H225.254L233.204 50H227.354L226.004 46.25H218.504L217.154 50ZM219.854 42.35H224.654L222.254 35.3L219.854 42.35ZM253.002 50H247.302L240.102 37.4V50H234.702V29H240.402L247.602 41.6V29H253.002V50ZM274.916 50H269.216L262.016 37.4V50H256.616V29H262.316L269.516 41.6V29H274.916V50ZM282.28 50H276.43L284.38 29H290.38L298.33 50H292.48L291.13 46.25H283.63L282.28 50ZM284.98 42.35H289.78L287.38 35.3L284.98 42.35ZM299.829 29H311.829C313.789 29 315.229 29.45 316.149 30.35C317.069 31.23 317.529 32.58 317.529 34.4C317.529 35.6 317.269 36.58 316.749 37.34C316.229 38.08 315.589 38.6 314.829 38.9C316.449 39.34 317.549 40.42 318.129 42.14C318.329 42.76 318.429 43.48 318.429 44.3C318.429 46.26 317.969 47.7 317.049 48.62C316.129 49.54 314.689 50 312.729 50H299.829V29ZM313.029 43.4C313.029 42.2 312.429 41.6 311.229 41.6H305.229V45.8H311.229C312.429 45.8 313.029 45.2 313.029 44V43.4ZM312.129 35C312.129 33.8 311.529 33.2 310.329 33.2H305.229V37.4H310.329C311.529 37.4 312.129 36.8 312.129 35.6V35ZM331.028 50H320.228V45.8H322.928V33.2H320.228V29H331.028V33.2H328.328V45.8H331.028V50ZM333.096 45.65C338.576 45.95 342.286 46.1 344.226 46.1C344.686 46.1 345.046 45.97 345.306 45.71C345.586 45.43 345.726 45.06 345.726 44.6V41.9H338.826C336.726 41.9 335.196 41.43 334.236 40.49C333.296 39.53 332.826 38 332.826 35.9V35C332.826 32.9 333.296 31.38 334.236 30.44C335.196 29.48 336.726 29 338.826 29H349.356V33.2H340.026C338.826 33.2 338.226 33.8 338.226 35V35.6C338.226 36.8 338.826 37.4 340.026 37.4H345.426C347.386 37.4 348.826 37.86 349.746 38.78C350.666 39.7 351.126 41.14 351.126 43.1V44.6C351.126 46.56 350.666 48 349.746 48.92C348.826 49.84 347.386 50.3 345.426 50.3C344.406 50.3 343.326 50.28 342.186 50.24L339.426 50.12C337.386 50.02 335.276 49.88 333.096 49.7V45.65ZM352.923 45.5H358.323V50H352.923V45.5ZM367.33 34.7V50H362.08V38.75H359.83V34.7H367.33ZM362.08 28.7H367.33V32.9H362.08V28.7ZM386.54 45.5C386.54 47 386.11 48.18 385.25 49.04C384.41 49.88 383.24 50.3 381.74 50.3H374.84C373.34 50.3 372.16 49.88 371.3 49.04C370.46 48.18 370.04 47 370.04 45.5V38.6C370.04 37.1 370.46 35.93 371.3 35.09C372.16 34.23 373.34 33.8 374.84 33.8H381.74C383.24 33.8 384.41 34.23 385.25 35.09C386.11 35.93 386.54 37.1 386.54 38.6V45.5ZM381.29 39.05C381.29 38.25 380.89 37.85 380.09 37.85H376.49C375.69 37.85 375.29 38.25 375.29 39.05V45.05C375.29 45.85 375.69 46.25 376.49 46.25H380.09C380.89 46.25 381.29 45.85 381.29 45.05V39.05Z" fill="#010002"/>
</svg>
