<svg width="178" height="41" viewBox="0 0 178 41" fill="none" xmlns="http://www.w3.org/2000/svg">
<g clip-path="url(#clip0_412_3513)">
<path d="M54.9412 28.7592C54.244 28.637 53.5683 28.4259 52.9248 28.1148V25.8146C53.6005 26.148 54.3191 26.4035 55.0592 26.5702C55.7778 26.7369 56.5178 26.8258 57.2472 26.8258C57.9765 26.8702 58.6951 26.6924 59.3172 26.3035C59.7784 25.9813 60.0465 25.4368 60.0251 24.8479C60.0358 24.459 59.9285 24.0811 59.7033 23.77C59.4352 23.4478 59.1134 23.1922 58.7487 23.0144C58.3304 22.7922 57.6869 22.5144 56.8182 22.1588C55.7349 21.7588 54.7481 21.1254 53.933 20.292C53.3324 19.5808 53.0106 18.6697 53.0428 17.7252C53.0321 16.9696 53.2466 16.2251 53.6649 15.6028C54.1153 14.9583 54.7267 14.4694 55.4346 14.1694C56.2604 13.8249 57.1614 13.6471 58.0516 13.6693C58.7809 13.6582 59.4995 13.7249 60.2074 13.8694C60.8509 14.0027 61.473 14.2138 62.0629 14.4916V16.7251C60.9582 16.1473 59.7355 15.8473 58.502 15.8362C57.7942 15.7917 57.097 15.9584 56.4857 16.3251C56.0352 16.6362 55.7563 17.1585 55.7778 17.7252C55.7671 18.1141 55.8743 18.4808 56.0995 18.7919C56.3355 19.0808 56.6251 19.3142 56.9576 19.4808C57.3115 19.6697 57.9658 19.9698 58.8989 20.3698C59.6819 20.692 60.4326 21.0921 61.1405 21.5699C61.6553 21.9254 62.0736 22.3921 62.3739 22.9477C62.6635 23.5478 62.8137 24.2034 62.7922 24.8701C62.8459 26.0479 62.3418 27.1925 61.4301 27.9036C60.2396 28.7037 58.8345 29.0926 57.4081 28.9815C56.5822 28.9926 55.7563 28.9148 54.9412 28.7592Z" fill="black"/>
<path d="M66.3535 13.9805H68.9276V20.0809H75.749V13.9805H78.3124V28.6703H75.749V22.2921H68.9276V28.6815H66.3535V13.9805V13.9805Z" fill="black"/>
<path d="M85.5406 28.0371C84.4145 27.4148 83.4814 26.4814 82.8378 25.3369C81.5293 22.8478 81.5293 19.8365 82.8378 17.3475C83.4814 16.2029 84.4145 15.2584 85.5406 14.6362C87.9432 13.3472 90.8069 13.3472 93.2094 14.6362C94.3355 15.2584 95.2687 16.2029 95.9122 17.3475C97.2207 19.8365 97.2207 22.8367 95.9122 25.3258C95.2687 26.4703 94.3355 27.4037 93.2094 28.026C92.0296 28.6816 90.7211 29.0149 89.3804 28.9927C88.0504 29.0149 86.7204 28.6927 85.5406 28.0371ZM91.858 25.9369C92.598 25.5147 93.2201 24.8813 93.6277 24.1035C94.5071 22.3811 94.5071 20.3254 93.6384 18.592C93.2308 17.8253 92.6195 17.1808 91.8687 16.7474C91.1072 16.3141 90.2491 16.0807 89.3696 16.0918C88.4902 16.0807 87.6321 16.3029 86.8599 16.7474C86.1091 17.1808 85.4977 17.8142 85.0795 18.592C84.2107 20.3143 84.2107 22.3811 85.0902 24.1035C85.5085 24.8702 86.1305 25.5036 86.8706 25.9369C87.6321 26.3703 88.4902 26.5925 89.3589 26.5814C90.2491 26.5925 91.1072 26.3703 91.858 25.9369Z" fill="black"/>
<path d="M100.449 13.9805H106.134C107.496 13.9139 108.826 14.3694 109.877 15.2584C110.831 16.1473 111.346 17.4363 111.293 18.7697C111.378 20.1032 110.864 21.4032 109.898 22.2922C108.815 23.1478 107.485 23.5812 106.123 23.5034H103.034V28.6704H100.46V13.9805H100.449ZM105.801 21.3032C107.732 21.3032 108.708 20.4587 108.708 18.7809C108.708 17.0585 107.743 16.1918 105.801 16.1918H103.023V21.3032H105.801Z" fill="black"/>
<path d="M117.385 16.1917H113.105V13.9805H124.249V16.1917H119.97V28.6815H117.396L117.385 16.1917Z" fill="black"/>
<path d="M127.392 13.9805H136.991V16.1917H129.966V20.2253H135.178V22.4366H129.966V26.4702H136.991V28.6815H127.392V13.9805Z" fill="black"/>
<path d="M140.338 13.9805H149.937V16.1917H142.912V20.2253H148.125V22.4366H142.912V26.4702H149.937V28.6815H140.338V13.9805Z" fill="black"/>
<path d="M153.283 13.9805H155.718L162.357 24.2145V13.9805H164.931V28.6703H162.496L155.857 18.4141V28.6703H153.283V13.9805Z" fill="black"/>
<path d="M168.899 13.9805H171.474V28.6703H168.899V13.9805Z" fill="black"/>
<path d="M175.432 13.9805H178.006V28.6703H175.432V13.9805Z" fill="black"/>
<path d="M37.8998 40.6533C39.026 39.9414 40.0664 39.1057 41.0102 38.1875C42.2115 37.3931 43.3591 36.5162 44.4209 35.5567C44.4853 35.4845 44.26 35.2368 44.1528 35.2678C42.8121 35.794 41.5894 36.5471 40.5383 37.4963C39.3478 38.2391 38.3503 39.2192 37.5995 40.3644C37.5566 40.4573 37.814 40.6946 37.8998 40.6533Z" fill="url(#paint0_linear_412_3513)"/>
<path d="M41.9375 2.42233C41.3583 7.68403 41.176 12.9767 41.4012 18.259C41.487 23.7477 41.6693 29.3086 42.3236 34.7663C42.4094 35.4679 43.5248 35.4266 43.4712 34.7147C43.0422 29.3395 42.581 24.0056 42.5059 18.6201C42.4308 13.2346 42.8813 7.88005 42.8599 2.50487C42.8599 2.00965 42.0018 1.91679 41.9375 2.42233Z" fill="url(#paint1_linear_412_3513)"/>
<path d="M39.2673 38.101C39.5569 35.2947 39.2995 32.3957 39.2995 29.5791C39.2995 26.5149 39.6213 23.3889 39.396 20.335C39.3853 20.2215 39.2888 20.139 39.1708 20.1493C39.085 20.1596 39.0099 20.2215 38.9885 20.3041C38.538 23.2547 38.3557 26.2364 38.4415 29.218C38.2699 32.1893 38.3986 35.1709 38.8383 38.1216C38.8812 38.2351 39.0099 38.2867 39.1172 38.2454C39.1922 38.2248 39.2459 38.1629 39.2673 38.101Z" fill="url(#paint2_linear_412_3513)"/>
<path d="M42.015 1.41344C39.2371 0.918218 36.4271 0.670609 33.6063 0.680926C30.4208 0.515853 27.2353 0.402365 24.0606 0.299195C17.8184 0.0928535 11.5869 0 5.35536 0C4.46514 0 4.5724 1.23805 5.41971 1.29995C8.44429 1.49597 11.4153 2.15627 14.4291 2.36261C15.1155 2.41419 15.0834 1.46502 14.5256 1.27932C11.5332 0.474585 8.45502 0.0515853 5.35536 0L5.41971 1.29995C11.5118 1.28963 17.6038 1.37217 23.7066 1.54756C26.7527 1.64041 29.7987 1.7539 32.8447 1.88802C35.8693 2.19753 38.9261 2.26975 41.9614 2.10468C42.1652 2.08405 42.3153 1.91897 42.3046 1.72295C42.2832 1.57851 42.1759 1.44439 42.015 1.41344Z" fill="url(#paint3_linear_412_3513)"/>
<path d="M37.089 4.06493C37.1962 3.63162 36.9066 3.1983 36.4669 3.10545C36.3382 3.07449 36.2095 3.07449 36.0915 3.10545L28.8196 2.74435L12.0986 1.52694C12.0879 1.65074 12.0879 1.77455 12.0771 1.89835L2.89614 1.43408C2.57437 14.0209 2.26334 26.7728 0.0753382 39.2048C-0.0748185 39.6278 0.000259846 40.0921 0.268397 40.4532C0.557985 40.6595 0.9012 40.7524 1.25514 40.7214C13.2569 41.0619 25.248 41.0929 37.2606 40.7937C37.2069 28.5576 37.1426 16.3113 37.089 4.06493Z" fill="url(#paint4_linear_412_3513)"/>
<path d="M36.6966 3.16405C35.0448 2.62756 33.4253 2.00853 31.8487 1.29666L31.6127 2.33868C35.1843 2.42122 39.0133 2.86485 42.5634 2.48312C42.971 2.44185 43.0782 1.83314 42.6278 1.75061C39.0669 1.15222 35.1735 1.36888 31.5591 1.23476C30.9692 1.21412 30.8405 2.03949 31.3231 2.27678C32.9105 3.18468 34.7338 3.65926 36.5786 3.64895C36.836 3.63863 36.954 3.2569 36.6966 3.16405Z" fill="url(#paint5_linear_412_3513)"/>
<path d="M28.7873 14.258V13.5049L28.7764 14.4128C28.7764 14.3612 28.7764 14.3096 28.7873 14.258Z" fill="#F8F8FF"/>
<path d="M28.7873 14.258V13.5049L28.7764 14.4128C28.7764 14.3612 28.7764 14.3096 28.7873 14.258Z" fill="#F8F8FF"/>
<path d="M28.2835 6.47899C27.5971 8.52177 25.3769 13.3708 19.6173 13.1335C13.8577 12.8962 12.4312 7.95433 12.0773 5.82901C11.4874 5.60204 11.1978 4.95206 11.4338 4.38462C11.6697 3.81719 12.3454 3.53863 12.9353 3.7656C13.3858 3.94099 13.6754 4.37431 13.6539 4.83858C13.6432 5.1584 13.4823 5.44728 13.2249 5.64331C13.5038 7.49006 14.6943 11.7923 19.6602 11.9883C24.5725 12.1843 26.5138 8.04718 27.1359 6.21074C26.6747 5.78774 26.664 5.08618 27.1037 4.64255C27.5434 4.19892 28.2728 4.1886 28.734 4.6116C29.1952 5.0346 29.1952 5.74648 28.7554 6.19011C28.6267 6.32423 28.4551 6.41709 28.2835 6.47899Z" fill="white"/>
<path d="M26.9285 34.0171C27.6867 34.0171 28.3014 33.4259 28.3014 32.6966C28.3014 31.9672 27.6867 31.376 26.9285 31.376C26.1703 31.376 25.5557 31.9672 25.5557 32.6966C25.5557 33.4259 26.1703 34.0171 26.9285 34.0171Z" fill="#F8F8FF"/>
<path d="M9.28497 34.0171C10.0432 34.0171 10.6578 33.4259 10.6578 32.6966C10.6578 31.9672 10.0432 31.376 9.28497 31.376C8.52676 31.376 7.91211 31.9672 7.91211 32.6966C7.91211 33.4259 8.52676 34.0171 9.28497 34.0171Z" fill="#F8F8FF"/>
<path d="M29.1486 16.9632V16.1997L29.1374 17.1076C29.1263 17.0663 29.1374 17.0148 29.1486 16.9632Z" fill="#F8F8FF"/>
<path d="M34.1787 16.0552L32.1623 16.0655L30.1352 16.0552C29.5989 16.1171 29.1806 16.5504 29.1699 17.0766L29.2342 27.765L24.2576 21.0383C24.1289 20.8526 23.9251 20.7288 23.6999 20.6772L23.6248 20.6669H23.5605C23.539 20.6669 23.5283 20.6669 23.5068 20.6669H9.31703C8.85583 20.6463 8.38391 20.7185 7.94416 20.8629C7.5795 20.9867 7.23628 21.1931 6.94669 21.451C6.66783 21.6986 6.46405 21.9978 6.33534 22.3279C6.19591 22.689 6.12083 23.0708 6.12083 23.4525C6.12083 23.8446 6.19591 24.2263 6.34607 24.5874C6.4855 24.9175 6.70001 25.227 6.97887 25.485C7.26846 25.7429 7.60095 25.9492 7.97634 26.073C8.39463 26.2175 8.8451 26.2897 9.29557 26.2897H14.0577C14.4545 26.2587 14.8514 26.3722 15.1731 26.6095C15.452 26.8571 15.5914 27.2182 15.57 27.5793C15.5914 27.9301 15.4413 28.2809 15.1731 28.5285C14.8621 28.7864 14.4653 28.9102 14.0577 28.8896H5.64891C5.14482 28.9102 4.7587 29.3126 4.78015 29.7872C4.8016 30.2411 5.17699 30.6125 5.64891 30.6229H14.047C14.1864 30.6229 14.3258 30.6229 14.4545 30.6125C14.5832 30.6229 14.7227 30.6229 14.8621 30.6229H29.9957C30.0923 30.6229 30.1781 30.6022 30.2639 30.5816C30.7143 30.4784 31.0468 30.0967 31.0683 29.6531V17.871H34.2001C34.7257 17.8503 35.1225 17.4273 35.1011 16.9218C35.0796 16.4472 34.672 16.0655 34.1787 16.0552ZM23.85 23.2668C24.4828 24.3088 25.0942 25.227 25.6841 26.0215L27.8935 29.034H23.8929V26.0937C23.8929 25.4231 23.8608 24.4842 23.7964 23.2668H23.85ZM14.047 24.8247H9.3063C8.95236 24.835 8.61987 24.7215 8.35173 24.5048C8.11577 24.2676 7.98707 23.9477 8.00852 23.6176C7.98707 23.2874 8.11577 22.9573 8.35173 22.72C8.61987 22.493 8.96308 22.3795 9.31703 22.4002H18.0368C18.1977 22.5446 18.2835 22.7406 18.2835 22.947V29.034H16.9965C17.0179 28.9825 17.0501 28.9309 17.0715 28.869C17.211 28.4975 17.2753 28.0952 17.2753 27.7031C17.3397 26.8984 17.0394 26.1143 16.4602 25.5366C15.763 25.0207 14.9157 24.7628 14.047 24.8247ZM20.1927 29.0237V22.9367C20.1927 22.5137 20.5466 22.1732 20.9863 22.1732H22.0053V29.0237H20.1927Z" fill="#F8F8FF"/>
</g>
<defs>
<linearGradient id="paint0_linear_412_3513" x1="37.2803" y1="40.9213" x2="48.1892" y2="31.0667" gradientUnits="userSpaceOnUse">
<stop stop-color="#FF6900"/>
<stop offset="1" stop-color="#FFB546"/>
</linearGradient>
<linearGradient id="paint1_linear_412_3513" x1="41.208" y1="36.8908" x2="46.8227" y2="36.5164" gradientUnits="userSpaceOnUse">
<stop stop-color="#FF6900"/>
<stop offset="1" stop-color="#FFB546"/>
</linearGradient>
<linearGradient id="paint2_linear_412_3513" x1="38.3172" y1="39.1435" x2="41.1913" y2="38.9638" gradientUnits="userSpaceOnUse">
<stop stop-color="#FF6900"/>
<stop offset="1" stop-color="#FFB546"/>
</linearGradient>
<linearGradient id="paint3_linear_412_3513" x1="3.00681" y1="2.48004" x2="3.3766" y2="-3.52378" gradientUnits="userSpaceOnUse">
<stop stop-color="#FF6900"/>
<stop offset="1" stop-color="#FFB546"/>
</linearGradient>
<linearGradient id="paint4_linear_412_3513" x1="-1.71432" y1="42.93" x2="72.728" y2="-7.02203" gradientUnits="userSpaceOnUse">
<stop stop-color="#FF6900"/>
<stop offset="1" stop-color="#FFB546"/>
</linearGradient>
<linearGradient id="paint5_linear_412_3513" x1="30.4805" y1="3.76697" x2="31.6569" y2="-2.15359" gradientUnits="userSpaceOnUse">
<stop stop-color="#FF6900"/>
<stop offset="1" stop-color="#FFB546"/>
</linearGradient>
<clipPath id="clip0_412_3513">
<rect width="178" height="41" fill="white"/>
</clipPath>
</defs>
</svg>
