<svg width="24" height="24" viewBox="0 0 24 24" fill="none" xmlns="http://www.w3.org/2000/svg">
<g clip-path="url(#clip0_2171_7548)">
<path d="M17.0937 21.3937L17.9636 20.5914L19.0578 22.8222C19.2371 23.1877 19.6046 23.3994 19.9859 23.3994C20.1382 23.3994 20.2927 23.3656 20.4383 23.2949L20.4383 23.2948C20.9505 23.0455 21.1634 22.4293 20.9127 21.9184L19.8121 19.6748L20.9406 19.3735C21.9486 19.1307 22.2432 17.8475 21.4336 17.1988L21.3398 17.3158L21.4336 17.1988L17.0908 13.7188C16.8442 13.5212 16.5602 13.4313 16.2822 13.4313C15.6178 13.4313 14.9824 13.9493 14.9824 14.715V20.4838C14.9824 21.2333 15.6039 21.7293 16.2451 21.7293C16.5413 21.7293 16.8433 21.6245 17.0937 21.3937L16.9985 21.2904L17.0937 21.3937ZM18.7831 17.8363L18.783 17.8359L18.7732 17.8406L17.231 18.5828C17.2308 18.5829 17.2306 18.583 17.2304 18.5831C17.1674 18.6129 17.1062 18.646 17.047 18.6823V16.3242L18.8842 17.7963L18.7831 17.8363ZM14.0118 11.2522C14.0118 11.821 14.4745 12.2811 15.0441 12.2811C15.6137 12.2811 16.0764 11.821 16.0765 11.2522V9.73399C16.4249 9.46582 16.65 9.04511 16.65 8.57158C16.65 7.76006 15.9898 7.10323 15.1765 7.10323C14.5562 7.10323 14.0255 7.48514 13.8081 8.02607H8.69694C8.45963 7.53236 7.95381 7.19112 7.36764 7.19112C6.55437 7.19112 5.89411 7.848 5.89411 8.65947C5.89411 9.24419 6.23709 9.74807 6.73235 9.98426V14.5653C6.21335 14.7921 5.85 15.3085 5.85 15.9104C5.85 16.7219 6.51025 17.3787 7.32352 17.3787C7.92687 17.3787 8.44529 17.0173 8.67316 16.4998H12.4853C13.0549 16.4998 13.5176 16.0397 13.5176 15.4709C13.5176 14.9021 13.0549 14.442 12.4853 14.442H8.79705V10.0839H14.0118V11.2522ZM12.9265 21.3414H5.77941C4.88864 21.3414 4.1647 20.6194 4.1647 19.7336V4.26498C4.1647 3.37913 4.88864 2.65718 5.77941 2.65718H16.6274C17.5182 2.65718 18.2421 3.37913 18.2421 4.26498V12.241C18.2421 12.8098 18.7049 13.2699 19.2745 13.2699C19.8441 13.2699 20.3068 12.8098 20.3068 12.241V4.26498C20.3068 2.24309 18.6558 0.59939 16.6274 0.59939H5.77941C3.751 0.59939 2.1 2.24309 2.1 4.26498V19.7336C2.1 21.7555 3.751 23.3992 5.77941 23.3992H12.9265C13.4961 23.3992 13.9588 22.9391 13.9588 22.3703C13.9588 21.8015 13.4961 21.3414 12.9265 21.3414Z" fill="white" stroke="white" stroke-width="0.3"/>
</g>
<defs>
<clipPath id="clip0_2171_7548">
<rect width="24" height="24" fill="white" transform="translate(0 -0.000610352)"/>
</clipPath>
</defs>
</svg>
