<svg width="24" height="14" viewBox="0 0 24 14" fill="none" xmlns="http://www.w3.org/2000/svg">
<path d="M10.6764 0.585886L0.531144 10.8865C0.362842 11.0557 0.229258 11.257 0.138097 11.4788C0.0469349 11.7005 -9.0115e-08 11.9384 -7.96134e-08 12.1787C-6.91119e-08 12.4189 0.0469349 12.6568 0.138097 12.8785C0.229258 13.1003 0.362842 13.3016 0.531144 13.4708C0.867577 13.8097 1.32268 14 1.79706 14C2.27144 14 2.72655 13.8097 3.06298 13.4708L12.0411 4.46228L20.9295 13.4708C21.2659 13.8097 21.721 14 22.1954 14C22.6698 14 23.1249 13.8097 23.4613 13.4708C23.631 13.3022 23.766 13.1012 23.8584 12.8794C23.9509 12.6576 23.999 12.4194 24 12.1787C23.999 11.9379 23.9509 11.6997 23.8584 11.4779C23.766 11.2561 23.631 11.0551 23.4613 10.8865L13.316 0.585886C13.1479 0.401158 12.9438 0.25373 12.7166 0.152894C12.4895 0.0520577 12.2442 4.18463e-07 11.9962 4.29303e-07C11.7482 4.40142e-07 11.503 0.0520577 11.2758 0.152894C11.0487 0.25373 10.8446 0.401158 10.6764 0.585886Z" fill="white"/>
</svg>
