<svg width="32" height="32" viewBox="0 0 32 32" fill="none" xmlns="http://www.w3.org/2000/svg">
<path d="M24.3303 8.50748C22.7767 7.80324 21.1155 7.29141 19.3789 7C19.1656 7.3736 18.9164 7.87609 18.7447 8.27584C16.8985 8.00685 15.0693 8.00685 13.2571 8.27584C13.0854 7.87609 12.8305 7.3736 12.6154 7C10.8768 7.29141 9.21375 7.80511 7.66019 8.51121C4.52664 13.099 3.67719 17.5729 4.10192 21.9832C6.18025 23.4869 8.1944 24.4004 10.1746 24.9981C10.6635 24.3462 11.0995 23.6532 11.4752 22.9228C10.7598 22.6594 10.0745 22.3344 9.42706 21.957C9.59883 21.8338 9.76684 21.7049 9.92918 21.5723C13.8782 23.3618 18.1689 23.3618 22.0708 21.5723C22.2349 21.7049 22.403 21.8338 22.5729 21.957C21.9235 22.3362 21.2364 22.6613 20.5209 22.9247C20.8966 23.6532 21.3308 24.3481 21.8215 25C23.8036 24.4023 25.8196 23.4888 27.898 21.9832C28.3964 16.8705 27.0466 12.4377 24.3303 8.50748ZM12.0132 19.2709C10.8277 19.2709 9.85556 18.1986 9.85556 16.8929C9.85556 15.5872 10.807 14.5131 12.0132 14.5131C13.2194 14.5131 14.1915 15.5853 14.1708 16.8929C14.1727 18.1986 13.2194 19.2709 12.0132 19.2709ZM19.9868 19.2709C18.8013 19.2709 17.8291 18.1986 17.8291 16.8929C17.8291 15.5872 18.7805 14.5131 19.9868 14.5131C21.1929 14.5131 22.1651 15.5853 22.1444 16.8929C22.1444 18.1986 21.1929 19.2709 19.9868 19.2709Z" fill="white"/>
</svg>
