<svg width="37" height="36" viewBox="0 0 37 36" fill="none" xmlns="http://www.w3.org/2000/svg">
<path d="M18.1216 35.2963C27.6741 35.2963 35.4179 27.5524 35.4179 17.9999C35.4179 8.4474 27.6741 0.703552 18.1216 0.703552C8.56905 0.703552 0.825195 8.4474 0.825195 17.9999C0.825195 27.5524 8.56905 35.2963 18.1216 35.2963Z" fill="#2C3635"/>
<path fill-rule="evenodd" clip-rule="evenodd" d="M1.50784 18C1.50784 8.83608 8.93667 1.40725 18.1006 1.40725C27.2645 1.40725 34.6933 8.83608 34.6933 18C34.6933 20.7425 34.028 23.3296 32.8499 25.6086C27.5593 26.0955 23.0038 27.2862 19.3333 28.6151L19.2638 28.5953L18.9131 23.7006C23 27.2503 27.8474 24.8925 27.8474 24.8925C27.8474 24.8925 27.0526 23.5502 25.508 22.405C29.1399 20.9696 30.9272 18.1689 30.9272 18.1689C30.9272 18.1689 28.9761 17.5087 26.3564 17.6232C28.7387 14.3674 28.6737 10.8071 28.6737 10.8071C28.6737 10.8071 24.8782 11.2131 21.6941 13.7613C21.5562 8.26735 18.1006 4.32801 18.1006 4.32801C18.1006 4.32801 14.6511 8.26052 14.5017 13.747C11.3158 11.2115 7.52739 10.8071 7.52739 10.8071C7.52739 10.8071 7.46242 14.3662 9.84349 17.6216C7.2243 17.5081 5.27382 18.169 5.27382 18.169C5.27382 18.169 7.05895 20.9663 10.6967 22.4024C9.14979 23.5482 8.35382 24.8925 8.35382 24.8925C8.35382 24.8925 13.2193 27.2591 17.3109 23.6808L17.0158 27.9871C12.514 26.8301 7.93119 26.0149 3.31214 25.5325C2.15846 23.272 1.50784 20.712 1.50784 18ZM14.2515 34.144C17.7534 32.1082 22.8912 29.538 31.2098 28.1732C30.9829 28.4651 30.7465 28.7493 30.5009 29.0253C24.3311 30.2007 18.7898 32.603 15.2435 34.3477C14.9093 34.2897 14.5785 34.2217 14.2515 34.144ZM15.0461 30.3868C13.1019 31.2959 11.5939 32.1553 10.5689 32.7889C10.2384 32.6202 9.91436 32.4408 9.59714 32.2511C10.3052 31.8937 11.4248 31.3556 12.9172 30.714C10.3051 30.1884 8.03071 29.8384 6.24294 29.6067C5.96558 29.3234 5.69829 29.0302 5.44165 28.7276C7.53829 28.961 10.852 29.4719 15.0461 30.3868ZM18.1006 0C8.15946 0 0.100586 8.05888 0.100586 18C0.100586 27.9411 8.15946 36 18.1006 36C28.0417 36 36.1006 27.9411 36.1006 18C36.1006 8.05888 28.0417 0 18.1006 0Z" fill="#5DB5A5"/>
</svg>
