<svg width="32" height="32" viewBox="0 0 32 32" fill="none" xmlns="http://www.w3.org/2000/svg">
<path d="M16 4C9.37097 4 4 9.37097 4 16C4 22.629 9.37097 28 16 28C22.629 28 28 22.629 28 16C28 9.37097 22.629 4 16 4ZM21.8935 12.221L19.9242 21.5016C19.779 22.1597 19.3871 22.3194 18.8403 22.0097L15.8403 19.7984L14.3935 21.1919C14.2339 21.3516 14.0984 21.4871 13.7887 21.4871L14.0016 18.4339L19.5613 13.4113C19.8032 13.1984 19.5081 13.0774 19.1887 13.2903L12.3177 17.6161L9.35645 16.6919C8.7129 16.4887 8.69839 16.0484 9.49194 15.7387L21.0613 11.2774C21.5984 11.0839 22.0677 11.4081 21.8935 12.221Z" fill="white"/>
</svg>
