<svg width="24" height="24" viewBox="0 0 24 24" fill="none" xmlns="http://www.w3.org/2000/svg">
<path fill-rule="evenodd" clip-rule="evenodd" d="M24 10.4773C24 5.09053 18.5997 0.708063 11.9612 0.708063C5.32364 0.708063 -0.0773926 5.09053 -0.0773926 10.4773C-0.0773926 15.3066 4.20549 19.351 9.99078 20.1157C10.3829 20.2002 10.9165 20.3742 11.0515 20.7093C11.1729 21.0137 11.1309 21.4905 11.0902 21.7979C11.0902 21.7979 10.949 22.6474 10.9185 22.8283L10.9139 22.8551C10.8567 23.181 10.7125 24.0036 11.9612 23.4773C13.2462 22.9358 18.8944 19.395 21.4201 16.4879H21.4197C23.1644 14.5748 24 12.6333 24 10.4773ZM9.51528 7.87418H8.67084C8.54137 7.87418 8.43613 7.97918 8.43613 8.10819V13.3538C8.43613 13.483 8.54137 13.5878 8.67084 13.5878H9.51528C9.64475 13.5878 9.74976 13.483 9.74976 13.3538V8.10819C9.74976 7.97918 9.64475 7.87418 9.51528 7.87418ZM14.4831 7.87418H15.3275C15.4572 7.87418 15.562 7.97918 15.562 8.10819V13.3538C15.562 13.483 15.4572 13.5878 15.3275 13.5878H14.4831C14.4623 13.5878 14.4423 13.5848 14.4231 13.5797L14.4212 13.5792L14.4196 13.579C14.4143 13.5774 14.4093 13.5758 14.4037 13.5737L14.3992 13.5721L14.3968 13.5711C14.3926 13.5695 14.3892 13.5679 14.3852 13.5663C14.3816 13.5647 14.3776 13.5628 14.3742 13.5608L14.3725 13.5599C14.3708 13.5591 14.3692 13.5583 14.3675 13.5573C14.3626 13.5545 14.3578 13.5515 14.3529 13.5485L14.3515 13.5473L14.3506 13.5467C14.3282 13.5315 14.3077 13.5123 14.2911 13.4888L11.8842 10.2383V13.3538C11.8842 13.483 11.7792 13.5878 11.6495 13.5878H10.8053C10.6759 13.5878 10.5706 13.483 10.5706 13.3538V8.10819C10.5706 7.97918 10.6759 7.87418 10.8053 7.87418H11.6495C11.6525 7.87418 11.6548 7.87464 11.6578 7.87464L11.6618 7.87482L11.6659 7.875L11.6698 7.87533L11.673 7.87565C11.6761 7.87595 11.6792 7.87626 11.6823 7.87695C11.6855 7.87718 11.689 7.87764 11.6922 7.8781L11.6983 7.87949L11.7056 7.8811L11.7101 7.88235L11.7137 7.88341C11.7185 7.88456 11.7232 7.88618 11.7278 7.8878L11.7354 7.89056C11.74 7.89218 11.7444 7.89425 11.7488 7.89632L11.7488 7.89633L11.7513 7.89738L11.7534 7.89844L11.7562 7.8998L11.763 7.90355L11.7686 7.90695C11.7712 7.9081 11.7735 7.90949 11.7758 7.9111C11.7783 7.91266 11.7808 7.91439 11.7833 7.91614L11.788 7.91941L11.7897 7.92067C11.7906 7.92134 11.7915 7.92201 11.7923 7.92273C11.7929 7.92321 11.7935 7.92371 11.794 7.92426C11.7984 7.92749 11.8025 7.93095 11.8065 7.93464C11.8081 7.93603 11.8095 7.93718 11.8109 7.93857C11.8157 7.94318 11.8203 7.9478 11.8249 7.9531L11.8266 7.95449C11.833 7.96211 11.8392 7.96995 11.8448 7.97826L14.2486 11.2246V8.10819C14.2486 7.97918 14.3536 7.87418 14.4831 7.87418ZM7.47974 12.2743H5.18529V8.10854C5.18529 7.97907 5.08029 7.87407 4.95105 7.87407H4.10638C3.97691 7.87407 3.8719 7.97907 3.8719 8.10854V13.3532V13.3536C3.8719 13.4167 3.89706 13.4737 3.93745 13.5157L3.93894 13.5174L3.94068 13.5191L3.94414 13.5223C3.98637 13.563 4.04314 13.5879 4.10615 13.5879H4.10638H7.47974C7.60921 13.5879 7.71376 13.4827 7.71376 13.3532V12.5088C7.71376 12.3793 7.60921 12.2743 7.47974 12.2743ZM20.2248 8.95319C20.2248 9.08288 20.1203 9.18766 19.9908 9.18766H17.6966V10.0741H19.9908C20.1203 10.0741 20.2248 10.1793 20.2248 10.3088V11.1532C20.2248 11.2827 20.1203 11.3877 19.9908 11.3877H17.6966V12.2743H19.9908C20.1203 12.2743 20.2248 12.3795 20.2248 12.5088V13.3534C20.2248 13.4827 20.1203 13.5879 19.9908 13.5879H16.6175H16.617C16.5542 13.5879 16.4972 13.5627 16.4552 13.5223C16.4541 13.5214 16.4527 13.5203 16.4518 13.5191C16.4513 13.5188 16.4509 13.5184 16.4505 13.518C16.4498 13.5172 16.4491 13.5164 16.4485 13.5157C16.4081 13.4737 16.383 13.4167 16.383 13.3536V13.3534V8.10877V8.10854C16.383 8.04577 16.4079 7.989 16.4481 7.947C16.4492 7.94561 16.4504 7.94423 16.4518 7.94284C16.4524 7.94192 16.4536 7.94123 16.4545 7.9403C16.4968 7.89946 16.5538 7.87407 16.617 7.87407H16.6175H19.9908C20.1203 7.87407 20.2248 7.97931 20.2248 8.10877V8.95319Z" fill="white"/>
</svg>
