<svg width="26" height="26" viewBox="0 0 26 26" fill="none" xmlns="http://www.w3.org/2000/svg">
<g clip-path="url(#clip0_2248_4546)">
<path fill-rule="evenodd" clip-rule="evenodd" d="M12.9578 0.766983C20.1495 0.766983 25.9999 5.51465 25.9999 11.3504C25.9999 13.6859 25.0946 15.7893 23.2045 17.8618H23.205C20.4688 21.0112 14.3499 24.8471 12.9578 25.4336C11.6051 26.0038 11.7613 25.1127 11.8232 24.7596C11.825 24.7495 11.8267 24.7398 11.8283 24.7306C11.8613 24.5346 12.0143 23.6143 12.0143 23.6143C12.0583 23.2813 12.1038 22.7648 11.9723 22.435C11.826 22.072 11.248 21.8835 10.8232 21.792C4.55581 20.9634 -0.0839844 16.582 -0.0839844 11.3504C-0.0839844 5.51465 5.76713 0.766983 12.9578 0.766983ZM5.61724 13.297H8.10289C8.24315 13.297 8.35641 13.4107 8.35641 13.551V14.4658C8.35641 14.606 8.24315 14.72 8.10289 14.72H4.44841H4.44816C4.37991 14.72 4.31841 14.693 4.27265 14.649L4.2689 14.6455C4.26817 14.6449 4.26756 14.6443 4.26701 14.6437C4.26643 14.6431 4.26591 14.6424 4.2654 14.6418C4.22165 14.5963 4.1944 14.5345 4.1944 14.4663V14.4658V8.78407C4.1944 8.64382 4.30815 8.53006 4.44841 8.53006H5.36347C5.50348 8.53006 5.61724 8.64382 5.61724 8.78407V13.297ZM10.3081 8.53007H9.39324C9.25298 8.53007 9.13898 8.64383 9.13898 8.78358V14.4663C9.13898 14.6063 9.25298 14.7198 9.39324 14.7198H10.3081C10.4483 14.7198 10.5621 14.6063 10.5621 14.4663V8.78358C10.5621 8.64383 10.4483 8.53007 10.3081 8.53007ZM16.6047 8.53007H15.6899C15.5496 8.53007 15.4359 8.64383 15.4359 8.78358V12.1597L12.8317 8.64282C12.8257 8.63382 12.8189 8.62532 12.8119 8.61707L12.8102 8.61557C12.8052 8.60982 12.8002 8.60482 12.7949 8.59982C12.7936 8.59851 12.7923 8.59738 12.7908 8.59611L12.7902 8.59557C12.7859 8.59157 12.7814 8.58782 12.7767 8.58432C12.7752 8.58286 12.7736 8.58166 12.772 8.58043L12.7702 8.57907L12.7651 8.57552L12.765 8.57551C12.7624 8.57362 12.7597 8.57175 12.7569 8.57007C12.7544 8.56832 12.7519 8.56682 12.7492 8.56557C12.7447 8.56282 12.7402 8.56007 12.7357 8.55782L12.7327 8.55635C12.7317 8.55586 12.7308 8.55539 12.7298 8.55495C12.7291 8.55463 12.7284 8.55433 12.7277 8.55407L12.7276 8.55405C12.7229 8.55181 12.7182 8.54957 12.7132 8.54782L12.7049 8.54482L12.7049 8.5448C12.6999 8.54306 12.6949 8.54132 12.6897 8.54007L12.6875 8.53938L12.6851 8.53875L12.6809 8.53757L12.6728 8.53577L12.6664 8.53432C12.6629 8.53382 12.6592 8.53332 12.6557 8.53307C12.6523 8.53232 12.6489 8.53199 12.6456 8.53167L12.6422 8.53132C12.6393 8.53098 12.6364 8.53087 12.6335 8.53076L12.6328 8.53074L12.6292 8.53057C12.6276 8.53057 12.6261 8.53045 12.6247 8.53032C12.6232 8.5302 12.6218 8.53007 12.6202 8.53007H11.7056C11.5654 8.53007 11.4514 8.64383 11.4514 8.78358V14.4663C11.4514 14.6063 11.5654 14.7198 11.7056 14.7198H12.6202C12.7607 14.7198 12.8744 14.6063 12.8744 14.4663V11.0912L15.4819 14.6125C15.4999 14.638 15.5221 14.6588 15.5464 14.6753C15.5471 14.6758 15.5481 14.6765 15.5489 14.6773L15.5489 14.6773C15.5519 14.6792 15.5549 14.681 15.558 14.6829C15.5602 14.6842 15.5624 14.6855 15.5646 14.6868C15.5665 14.6879 15.5682 14.6888 15.57 14.6896L15.5719 14.6905C15.5756 14.6928 15.5799 14.6948 15.5839 14.6965L15.5888 14.6986L15.5964 14.7018C15.5989 14.7028 15.6014 14.7038 15.6039 14.7045C15.6069 14.7057 15.6099 14.7067 15.6128 14.7077C15.6155 14.7086 15.6183 14.7094 15.6211 14.7103C15.6219 14.7103 15.6228 14.7105 15.6236 14.7107L15.6249 14.711C15.6456 14.7165 15.6674 14.7198 15.6899 14.7198H16.6047C16.7452 14.7198 16.8587 14.6063 16.8587 14.4663V8.78358C16.8587 8.64383 16.7452 8.53007 16.6047 8.53007ZM21.6566 9.95311C21.7969 9.95311 21.9101 9.83961 21.9101 9.69911V8.78432C21.9101 8.64407 21.7969 8.53006 21.6566 8.53006H18.0021H18.0016C17.9331 8.53006 17.8714 8.55757 17.8256 8.60182L17.8235 8.6036L17.8226 8.60457C17.8211 8.60607 17.8199 8.60757 17.8186 8.60907C17.7751 8.65457 17.7481 8.71607 17.7481 8.78407V8.78432V14.466V14.4663C17.7481 14.5345 17.7754 14.5963 17.8191 14.6418C17.8197 14.6426 17.8205 14.6435 17.8212 14.6443C17.8217 14.6447 17.8222 14.6452 17.8226 14.6455C17.8236 14.6468 17.8251 14.648 17.8264 14.649C17.8719 14.6928 17.9336 14.72 18.0016 14.72H18.0021H21.6566C21.7969 14.72 21.9101 14.606 21.9101 14.466V13.551C21.9101 13.411 21.7969 13.297 21.6566 13.297H19.1712V12.3364H21.6566C21.7969 12.3364 21.9101 12.2227 21.9101 12.0824V11.1677C21.9101 11.0274 21.7969 10.9134 21.6566 10.9134H19.1712V9.95311H21.6566Z" fill="#5C6D69"/>
</g>
<defs>
<clipPath id="clip0_2248_4546">
<rect width="26" height="26" fill="white"/>
</clipPath>
</defs>
</svg>
