<svg width="24" height="24" viewBox="0 0 24 24" fill="none" xmlns="http://www.w3.org/2000/svg">
<path d="M23.9998 10.4775C23.9998 5.09065 18.5995 0.708191 11.961 0.708191C5.3234 0.708191 -0.0776367 5.09065 -0.0776367 10.4775C-0.0776367 15.3067 4.20525 19.3511 9.99054 20.1159C10.3826 20.2003 10.9162 20.3743 11.0512 20.7094C11.1726 21.0138 11.1306 21.4906 11.09 21.798C11.09 21.798 10.9487 22.6475 10.9183 22.8284C10.8659 23.1328 10.6764 24.0188 11.961 23.4774C13.246 22.936 18.8942 19.3952 21.4199 16.4881H21.4194C23.1641 14.5749 23.9998 12.6334 23.9998 10.4775Z" fill="white"/>
<path d="M9.51518 7.87406H8.67074C8.54127 7.87406 8.43604 7.97907 8.43604 8.10807V13.3536C8.43604 13.4829 8.54127 13.5876 8.67074 13.5876H9.51518C9.64465 13.5876 9.74966 13.4829 9.74966 13.3536V8.10807C9.74966 7.97907 9.64465 7.87406 9.51518 7.87406Z" fill="#2C3635"/>
<path d="M15.3272 7.87406H14.4828C14.3533 7.87406 14.2483 7.97907 14.2483 8.10807V11.2245L11.8445 7.97814C11.8389 7.96983 11.8327 7.96199 11.8262 7.95437L11.8246 7.95299C11.82 7.94768 11.8154 7.94306 11.8105 7.93845C11.8092 7.93706 11.8078 7.93591 11.8062 7.93453C11.8022 7.93083 11.7981 7.92737 11.7937 7.92414C11.7919 7.92229 11.7898 7.92091 11.7877 7.91929C11.7835 7.91652 11.7796 7.91352 11.7755 7.91099C11.7732 7.90937 11.7708 7.90799 11.7683 7.90683C11.7642 7.90429 11.76 7.90175 11.7558 7.89968C11.7533 7.89852 11.751 7.89714 11.7485 7.89622C11.7441 7.89414 11.7397 7.89206 11.7351 7.89045C11.7323 7.88952 11.73 7.8886 11.7275 7.88768C11.7228 7.88606 11.7182 7.88445 11.7134 7.88329C11.7108 7.88237 11.7081 7.88191 11.7053 7.88099C11.7007 7.88006 11.6963 7.87891 11.6919 7.87798C11.6887 7.87752 11.6852 7.87706 11.682 7.87683C11.6778 7.87591 11.6737 7.87568 11.6695 7.87522C11.6656 7.87475 11.6617 7.87475 11.6575 7.87452C11.6545 7.87452 11.6522 7.87406 11.6492 7.87406H10.805C10.6755 7.87406 10.5703 7.97907 10.5703 8.10807V13.3536C10.5703 13.4829 10.6755 13.5876 10.805 13.5876H11.6492C11.7789 13.5876 11.8839 13.4829 11.8839 13.3536V10.2381L14.2908 13.4886C14.3074 13.5122 14.3279 13.5313 14.3503 13.5466C14.351 13.547 14.3519 13.5477 14.3526 13.5484C14.3575 13.5514 14.3623 13.5544 14.3672 13.5572C14.3695 13.5586 14.3716 13.5595 14.3739 13.5606C14.3773 13.5627 14.3812 13.5646 14.3849 13.5662C14.3889 13.5678 14.3923 13.5694 14.3965 13.571C14.3988 13.572 14.4011 13.5729 14.4034 13.5736C14.4089 13.5756 14.414 13.5773 14.4193 13.5789C14.4205 13.5789 14.4216 13.5793 14.4228 13.5796C14.4419 13.5846 14.462 13.5876 14.4828 13.5876H15.3272C15.4569 13.5876 15.5617 13.4829 15.5617 13.3536V8.10807C15.5617 7.97907 15.4569 7.87406 15.3272 7.87406Z" fill="#2C3635"/>
<path d="M7.47942 12.2743H5.18497V8.10854C5.18497 7.97908 5.07997 7.87407 4.95073 7.87407H4.10606C3.97659 7.87407 3.87158 7.97908 3.87158 8.10854V13.3532V13.3537C3.87158 13.4167 3.89674 13.4737 3.93712 13.5157C3.93805 13.5168 3.93897 13.518 3.94036 13.5191C3.94151 13.5203 3.94266 13.5212 3.94382 13.5223C3.98605 13.563 4.04282 13.5879 4.10583 13.5879H4.10606H7.47942C7.60889 13.5879 7.71344 13.4827 7.71344 13.3532V12.5088C7.71344 12.3793 7.60889 12.2743 7.47942 12.2743Z" fill="#2C3635"/>
<path d="M19.9907 9.18766C20.1201 9.18766 20.2247 9.08289 20.2247 8.95319V8.10877C20.2247 7.97931 20.1201 7.87407 19.9907 7.87407H16.6173H16.6168C16.5536 7.87407 16.4966 7.89946 16.4544 7.94031C16.4534 7.94123 16.4523 7.94192 16.4516 7.94285C16.4502 7.94423 16.449 7.94562 16.4479 7.947C16.4077 7.989 16.3828 8.04577 16.3828 8.10854V8.10877V13.3534V13.3537C16.3828 13.4167 16.408 13.4737 16.4484 13.5157C16.4493 13.5168 16.4504 13.5182 16.4516 13.5191C16.4525 13.5203 16.4539 13.5214 16.455 13.5224C16.4971 13.5627 16.5541 13.5879 16.6168 13.5879H16.6173H19.9907C20.1201 13.5879 20.2247 13.4827 20.2247 13.3534V12.5088C20.2247 12.3795 20.1201 12.2743 19.9907 12.2743H17.6964V11.3877H19.9907C20.1201 11.3877 20.2247 11.2827 20.2247 11.1532V10.3088C20.2247 10.1793 20.1201 10.0741 19.9907 10.0741H17.6964V9.18766H19.9907Z" fill="#2C3635"/>
</svg>
