<svg width="32" height="32" viewBox="0 0 32 32" fill="none" xmlns="http://www.w3.org/2000/svg">
<path d="M12.5332 26C9.76035 26 7.17558 25.2227 5 23.8816C6.84714 23.9968 10.1069 23.7209 12.1345 21.857C9.08435 21.7221 7.7088 19.4675 7.52938 18.5041C7.78854 18.6004 9.02454 18.716 9.72229 18.4462C6.21363 17.5984 5.67537 14.6308 5.79498 13.7252C6.45285 14.1684 7.56925 14.3225 8.00783 14.284C4.73839 12.0294 5.91459 8.63793 6.49273 7.90568C8.83899 11.0385 12.3553 12.7979 16.7055 12.8958C16.6234 12.5491 16.5801 12.1882 16.5801 11.8174C16.5801 9.15684 18.8115 7 21.564 7C23.0022 7 24.2981 7.5888 25.2077 8.53061C26.1688 8.31357 27.6151 7.80549 28.3222 7.36613C27.9658 8.59939 26.8562 9.62819 26.1851 10.0095C26.1906 10.0225 26.1796 9.99647 26.1851 10.0095C26.7746 9.92355 28.3698 9.62809 29 9.21602C28.6884 9.90886 27.512 11.0608 26.5466 11.7057C26.7262 19.3401 20.6656 26 12.5332 26Z" fill="white"/>
</svg>
