<svg width="20" height="20" viewBox="0 0 20 20" fill="none" xmlns="http://www.w3.org/2000/svg">
<path fill-rule="evenodd" clip-rule="evenodd" d="M3.59736 3.25286e-06H16.167C18.1415 0.00279503 19.7396 1.64464 19.7368 3.64522V16.3823C19.7338 18.3831 18.1137 20.0025 16.1396 20H3.56981C1.5959 19.9973 -0.00247672 18.3548 2.8811e-06 16.3542V3.61731C0.00289575 1.61686 1.62373 -0.00264893 3.59736 3.25286e-06ZM17.3719 8.90907C17.3719 5.65079 14.1484 3 10.1859 3C6.2239 3 3 5.65079 3 8.90907C3 11.8301 5.55647 14.2764 9.00974 14.739C9.24378 14.7901 9.56228 14.8953 9.64286 15.098C9.71532 15.2821 9.69025 15.5705 9.66601 15.7565C9.66601 15.7565 9.5817 16.2703 9.56352 16.3797L9.56073 16.3959C9.52662 16.5931 9.44054 17.0906 10.1859 16.7722C10.9529 16.4448 14.3244 14.3031 15.832 12.5447H15.8317C16.8731 11.3875 17.3719 10.2131 17.3719 8.90907ZM6.14139 9.99586H7.51096C7.58824 9.99586 7.65064 10.0594 7.65064 10.1377V10.6484C7.65064 10.7267 7.58824 10.7904 7.51096 10.7904H5.49724C5.45964 10.7904 5.42575 10.7753 5.40054 10.7508L5.39847 10.7488C5.39765 10.7481 5.3971 10.7474 5.39654 10.7467C5.37244 10.7213 5.35742 10.6865 5.35742 10.6484V7.47614C5.35742 7.39783 5.4201 7.33432 5.49738 7.33432H6.00157C6.07871 7.33432 6.14139 7.39783 6.14139 7.47614V9.99586ZM8.72618 7.33446H8.22213C8.14485 7.33446 8.08203 7.39797 8.08203 7.476V10.6489C8.08203 10.727 8.14485 10.7904 8.22213 10.7904H8.72618C8.80346 10.7904 8.86614 10.727 8.86614 10.6489V7.476C8.86614 7.39797 8.80346 7.33446 8.72618 7.33446ZM12.1949 7.33446H11.6908C11.6136 7.33446 11.5509 7.39797 11.5509 7.476V9.36101L10.116 7.39741C10.1127 7.39239 10.109 7.38764 10.1051 7.38304L10.1042 7.3822C10.1014 7.37899 10.0987 7.3762 10.0958 7.3734L10.0932 7.37103C10.0908 7.3688 10.0883 7.3667 10.0857 7.36475C10.0846 7.36363 10.0834 7.36279 10.0821 7.36182C10.0797 7.36014 10.0773 7.35833 10.0748 7.35679C10.0735 7.35582 10.0721 7.35498 10.0706 7.35428C10.0698 7.35384 10.0691 7.3534 10.0684 7.35297C10.0667 7.35189 10.0649 7.35085 10.0631 7.34995L10.0615 7.34913L10.0587 7.34786L10.0587 7.34785C10.0561 7.3466 10.0535 7.34534 10.0507 7.34437L10.0462 7.34269C10.0446 7.34213 10.043 7.34157 10.0414 7.34106C10.0402 7.34068 10.039 7.34034 10.0378 7.34004L10.0353 7.33931L10.033 7.33865L10.025 7.33683L10.019 7.33613C10.0179 7.33587 10.0167 7.33571 10.0156 7.33557C10.0149 7.33549 10.0142 7.33542 10.0135 7.33535L10.0116 7.33516L10.0091 7.33495L10.0044 7.33474L10.002 7.3346L9.99948 7.33446H9.49557C9.41829 7.33446 9.35547 7.39797 9.35547 7.476V10.6489C9.35547 10.727 9.41829 10.7904 9.49557 10.7904H9.99948C10.0769 10.7904 10.1396 10.727 10.1396 10.6489V8.7644L11.5762 10.7305C11.5861 10.7448 11.5984 10.7563 11.6118 10.7655L11.6131 10.7667L11.6218 10.772L11.6234 10.7728L11.6258 10.7741L11.6302 10.7764L11.6324 10.7774L11.6393 10.7803L11.6435 10.7819C11.6468 10.7831 11.6498 10.7841 11.653 10.7851L11.6538 10.7852L11.655 10.7855C11.6665 10.7886 11.6784 10.7904 11.6908 10.7904H12.1949C12.2723 10.7904 12.3349 10.727 12.3349 10.6489V7.476C12.3349 7.39797 12.2723 7.33446 12.1949 7.33446ZM14.9787 8.12886C15.056 8.12886 15.1184 8.06548 15.1184 7.98704V7.47628C15.1184 7.39797 15.056 7.33432 14.9787 7.33432H12.9652C12.9274 7.33432 12.8931 7.34967 12.8679 7.37438C12.8675 7.37477 12.8671 7.37509 12.8667 7.37544C12.8665 7.37559 12.8664 7.37575 12.8662 7.37592L12.864 7.37843C12.8401 7.40383 12.8252 7.43817 12.8252 7.47614V10.6486C12.8252 10.6867 12.8402 10.7213 12.8643 10.7467C12.8649 10.7474 12.8656 10.7482 12.8662 10.7488L12.8667 10.7493L12.8683 10.7508C12.8934 10.7752 12.9274 10.7904 12.9649 10.7904H14.9787C15.056 10.7904 15.1184 10.7267 15.1184 10.6486V10.1377C15.1184 10.0595 15.056 9.99586 14.9787 9.99586H13.6093V9.45956H14.9787C15.056 9.45956 15.1184 9.39604 15.1184 9.31773V8.80698C15.1184 8.72867 15.056 8.66502 14.9787 8.66502H13.6093V8.12886H14.9787Z" fill="#CECECE"/>
</svg>
