<svg width="24" height="25" viewBox="0 0 24 25" fill="none" xmlns="http://www.w3.org/2000/svg">
<path d="M20.4375 19.0894C20.006 19.0894 19.6562 19.4391 19.6562 19.8706C19.6562 20.7322 18.9553 21.4331 18.0938 21.4331H5.90625C5.04469 21.4331 4.34375 20.7322 4.34375 19.8706V11.1987C4.34375 10.7672 3.99398 10.4175 3.5625 10.4175C3.13102 10.4175 2.78125 10.7672 2.78125 11.1987V19.8706C2.78125 21.5937 4.18313 22.9956 5.90625 22.9956H18.0938C19.8169 22.9956 21.2188 21.5937 21.2188 19.8706C21.2188 19.4391 20.869 19.0894 20.4375 19.0894ZM19.6562 2.99561H4.34375C3.05141 2.99561 2 4.04701 2 5.33936V7.68311C2 8.11459 2.34977 8.46436 2.78125 8.46436H19.6562V15.9253C19.6562 16.3568 20.006 16.7065 20.4375 16.7065C20.869 16.7065 21.2188 16.3568 21.2188 15.9253V8.46436C21.6502 8.46436 22 8.11459 22 7.68311V5.33936C22 4.04701 20.9486 2.99561 19.6562 2.99561ZM20.4375 6.90186H3.5625V5.33936C3.5625 4.90857 3.91297 4.55811 4.34375 4.55811H19.6562C20.087 4.55811 20.4375 4.90857 20.4375 5.33936V6.90186Z" fill="#346751"/>
<path d="M13.7188 11.5894C14.1502 11.5894 14.5 11.2396 14.5 10.8081C14.5 10.3766 14.1502 10.0269 13.7188 10.0269H10.2031C9.77164 10.0269 9.42188 10.3766 9.42188 10.8081C9.42188 11.2396 9.77164 11.5894 10.2031 11.5894H13.7188Z" fill="#346751"/>
</svg>
