<svg width="24" height="25" viewBox="0 0 24 25" fill="none" xmlns="http://www.w3.org/2000/svg">
<path d="M21.9981 13.0006C21.9981 14.9743 21.4122 16.8938 20.3039 18.5515C19.6921 19.3905 18.464 18.5661 19.0051 17.6831C22.775 12.1779 18.6599 4.50815 11.9989 4.56397C7.34707 4.56393 3.56235 8.34864 3.56235 13.0006C3.50642 19.4977 10.8423 23.63 16.3634 20.2223C16.7324 19.9988 17.2128 20.1167 17.4362 20.4858C17.6598 20.8548 17.5418 21.3351 17.1728 21.5587C13.3572 23.9311 8.06258 23.3046 4.92863 20.0709C-1.34124 13.7883 3.12435 3.00998 11.9991 3.00162C17.3734 2.89077 22.1094 7.62586 21.9981 13.0006ZM11.999 15.3441C12.4305 15.3441 12.7802 14.9944 12.7802 14.563V13.7818H16.3346C17.371 13.7405 17.3702 12.2603 16.3346 12.2194H12.7802V6.75122C12.739 5.71475 11.2588 5.71554 11.2179 6.75122V12.2194H10.4367C9.40023 12.2607 9.40101 13.7409 10.4367 13.7818H11.2179V14.563C11.2179 14.9944 11.5676 15.3441 11.999 15.3441Z" fill="#346751"/>
</svg>
