<svg width="24" height="25" viewBox="0 0 24 25" fill="none" xmlns="http://www.w3.org/2000/svg">
<path d="M21.2188 19.6942H15.8751V10.1711C15.8751 9.51078 16.4123 8.97359 17.0726 8.97359H18.0527C18.713 8.97359 19.2502 9.51078 19.2502 10.1711V16.5692C19.2502 17.0007 19.6 17.3504 20.0315 17.3504C20.463 17.3504 20.8127 17.0007 20.8127 16.5692V10.1711C20.8127 8.64921 19.5746 7.41109 18.0527 7.41109H17.0726C15.5507 7.41109 14.3126 8.64921 14.3126 10.1711V11.3173H12.1349C10.613 11.3173 9.37492 12.5555 9.37492 14.0773V15.2236H7.58789C6.06602 15.2236 4.82789 16.4617 4.82789 17.9836V19.6829C4.11543 19.5935 3.5625 18.9839 3.5625 18.2476V5.99765C3.5625 5.56617 3.21273 5.2164 2.78125 5.2164C2.34977 5.2164 2 5.56617 2 5.99765V18.2476C2 19.9068 3.34984 21.2566 5.00898 21.2566H21.2188C21.6502 21.2566 22 20.9069 22 20.4754C22 20.0439 21.6502 19.6942 21.2188 19.6942ZM6.39039 17.9836C6.39039 17.3233 6.92758 16.7861 7.58789 16.7861H9.37492V19.6942H6.39039V17.9836ZM10.9374 14.0773C10.9374 13.417 11.4746 12.8798 12.1349 12.8798H14.3126V19.6942H10.9374V14.0773Z" fill="#346751"/>
<path d="M5.3754 11.9032C5.53115 11.9032 5.68853 11.8568 5.82544 11.7601L11.7606 7.56821C11.6692 7.96465 11.8992 8.36981 12.2943 8.49024C12.3702 8.5134 12.4469 8.52442 12.5224 8.52442C12.8571 8.52442 13.1668 8.30754 13.2694 7.97075L13.9177 5.84387C13.9881 5.61297 13.9479 5.36254 13.8086 5.16536C13.6693 4.96821 13.4468 4.84649 13.2056 4.83563L10.9844 4.73543C10.554 4.7159 10.1882 5.04965 10.1688 5.48067C10.1501 5.89325 10.4551 6.24551 10.8592 6.29196L4.924 10.4838C4.57157 10.7327 4.48763 11.2202 4.73657 11.5727C4.8888 11.7882 5.13021 11.9032 5.3754 11.9032Z" fill="#346751"/>
</svg>
