<svg width="24" height="25" viewBox="0 0 24 25" fill="none" xmlns="http://www.w3.org/2000/svg">
<path d="M15.9743 18.674C15.7419 18.3104 15.2589 18.2041 14.8953 18.4363C14.5317 18.6686 14.4253 19.1517 14.6576 19.5153L15.3778 20.6425H13.8178V17.078C13.8178 16.6543 13.4884 16.2936 13.0651 16.2785C12.6206 16.2627 12.2553 16.6183 12.2553 17.0593V20.3642L8.69011 19.2607V5.62786L12.2553 6.73138V10.1389C12.2553 10.5625 12.5848 10.9233 13.0081 10.9383C13.4526 10.9541 13.8178 10.5985 13.8178 10.1576V6.93661H15.8205C16.4084 6.93661 16.9411 7.26161 17.2107 7.78477C17.4084 8.16829 17.8795 8.31903 18.2631 8.12126C18.6466 7.92356 18.7973 7.45243 18.5996 7.06892C18.0607 6.02353 16.9959 5.37411 15.8205 5.37411H13.1547L8.13992 3.82196C8.13992 3.82196 8.13988 3.82196 8.13984 3.82193C7.99047 3.77376 7.82953 3.77427 7.67976 3.82134C7.67914 3.82153 7.67851 3.82173 7.67793 3.82193L4.20098 4.8981C2.88453 5.3056 2 6.50532 2 7.88341V18.2074C2 19.2128 2.46547 20.1691 3.27586 20.7641C3.82234 21.1653 4.46223 21.3727 5.11558 21.3727C5.42656 21.3727 5.74066 21.3257 6.04902 21.2302L7.90894 20.6545L12.7879 22.1647C12.8305 22.1789 12.9279 22.1976 12.9295 22.1978C12.9655 22.2028 13.0013 22.2053 13.0369 22.2053C13.0427 22.2053 13.0485 22.2052 13.0543 22.2051H15.8206C16.2177 22.2051 16.6046 22.1314 16.9711 21.9863C17.1198 21.9273 17.2514 21.8286 17.3411 21.6962C17.5216 21.4299 17.5194 21.0924 17.3544 20.8341L15.9743 18.674ZM5.58699 19.7375C5.10789 19.8859 4.60148 19.8002 4.19777 19.5025C3.79406 19.2049 3.5625 18.7465 3.5625 18.2449V7.88341C3.5625 7.19435 4.00473 6.5945 4.66301 6.39079L7.12769 5.6279V19.2607L5.58699 19.7375Z" fill="#346751"/>
<path d="M18.1644 9.76526C16.0494 9.76526 14.3287 11.4878 14.3287 13.605C14.3287 15.2553 15.3744 16.7043 16.9086 17.2342L17.5061 18.1693C17.6496 18.394 17.8978 18.5299 18.1644 18.5299C18.431 18.5299 18.6792 18.394 18.8228 18.1693L19.4203 17.2342C20.9544 16.7043 22.0001 15.2553 22.0001 13.605C22.0001 11.4878 20.2794 9.76526 18.1644 9.76526ZM18.7254 15.8126C18.5329 15.8615 18.3663 15.9818 18.2593 16.1492L18.1644 16.2978L18.0694 16.1492C17.9625 15.9819 17.7959 15.8615 17.6034 15.8126C16.5952 15.5566 15.8912 14.6489 15.8912 13.6051C15.8912 12.3494 16.9109 11.3278 18.1643 11.3278C19.4178 11.3278 20.4376 12.3494 20.4376 13.605C20.4376 14.6488 19.7335 15.5566 18.7254 15.8126Z" fill="#346751"/>
<path d="M18.9301 13.5147C18.8668 13.2026 18.6157 12.9554 18.302 12.8986C17.9727 12.8389 17.6326 13.0047 17.4754 13.2995C17.3241 13.5832 17.3651 13.9404 17.5769 14.1824C17.7946 14.4313 18.1579 14.5158 18.4633 14.389C18.8025 14.2481 19.0034 13.8756 18.9301 13.5147Z" fill="#346751"/>
</svg>
