<svg width="24" height="25" viewBox="0 0 24 25" fill="none" xmlns="http://www.w3.org/2000/svg">
<path d="M16.4967 5.56793L17.0045 4.90387C17.2667 4.56116 17.757 4.4957 18.0997 4.75784C18.4424 5.01999 18.5078 5.51025 18.2457 5.85297L17.7379 6.51703C17.5841 6.71814 17.3518 6.82388 17.1169 6.82388C16.9513 6.82388 16.7844 6.77139 16.6428 6.66306C16.3001 6.40106 16.2347 5.91064 16.4967 5.56793ZM21.0474 15.3441L20.2661 15.0706C19.8589 14.9281 19.4131 15.1428 19.2706 15.5501C19.1281 15.9573 19.3427 16.403 19.7499 16.5456L20.5312 16.819C20.6166 16.8489 20.7036 16.8631 20.7892 16.8631C21.1119 16.8631 21.414 16.6615 21.5266 16.3397C21.6692 15.9325 21.4546 15.4866 21.0474 15.3441ZM6.34049 6.51703C6.4943 6.71814 6.72669 6.82373 6.96167 6.82373C7.12723 6.82373 7.29401 6.77139 7.43561 6.66306C7.77832 6.40106 7.84378 5.91064 7.58164 5.56793L7.07382 4.90387C6.81183 4.56116 6.32141 4.49585 5.9787 4.75784C5.63599 5.01999 5.57068 5.51025 5.83267 5.85297L6.34049 6.51703ZM3.73429 14.8753L2.95304 15.1488C2.54578 15.2913 2.33124 15.7372 2.47376 16.1443C2.58637 16.4662 2.88834 16.6676 3.21106 16.6676C3.29666 16.6676 3.38379 16.6534 3.46924 16.6235L4.25049 16.3501C4.65775 16.2076 4.87229 15.7619 4.72977 15.3546C4.58725 14.9475 4.1417 14.7328 3.73429 14.8753ZM12.0001 20.6128C11.5688 20.6128 11.2189 20.9625 11.2189 21.394V22.2144C11.2189 22.6459 11.5688 22.9956 12.0001 22.9956C12.4316 22.9956 12.7814 22.6459 12.7814 22.2144V21.394C12.7814 20.9625 12.4316 20.6128 12.0001 20.6128ZM18.5687 18.651L17.7408 16.1845C17.6035 15.7755 17.1603 15.5551 16.7516 15.6924C16.3426 15.8298 16.1223 16.2726 16.2595 16.6817L17.0857 19.1434C17.1935 19.4812 16.9656 19.6786 16.893 19.7311C16.8013 19.7977 16.5581 19.9306 16.2813 19.7289L13.214 17.5061C12.4806 16.9714 11.4951 16.9714 10.7588 17.5082L7.69242 19.7649C7.41745 19.9654 7.17438 19.8325 7.08267 19.7659C7.00989 19.7131 6.78101 19.5148 6.89133 19.1737L8.06336 15.5333C8.34259 14.6709 8.03864 13.7329 7.3082 13.2004L4.25003 10.9618C3.97309 10.7599 4.0242 10.49 4.05899 10.3831C4.09378 10.276 4.21219 10.0269 4.55567 10.0269H8.3371C9.23981 10.0269 10.0365 9.43939 10.3201 8.56369L11.492 4.92096C11.5981 4.59351 11.8741 4.55811 11.9879 4.55811C12.1016 4.55811 12.3778 4.59351 12.4834 4.91959L13.6562 8.56506C13.9392 9.43939 14.736 10.0269 15.6386 10.0269H19.4447C19.7882 10.0269 19.9066 10.276 19.9414 10.3833C19.9762 10.49 20.0273 10.76 19.7495 10.9625L17.6718 12.4821C17.3236 12.737 17.2478 13.2257 17.5024 13.5741C17.7571 13.9223 18.246 13.998 18.5942 13.7433L20.6708 12.2244C21.4139 11.6826 21.7108 10.77 21.427 9.89914C21.143 9.02756 20.365 8.46436 19.4447 8.46436H15.6386C15.4192 8.46436 15.2152 8.3078 15.1431 8.08517L13.9703 4.4397C13.6862 3.56247 12.9082 2.99561 11.9879 2.99561C11.0677 2.99561 10.2895 3.56247 10.0049 4.44107L8.83301 8.0838C8.76053 8.3078 8.55652 8.46436 8.3371 8.46436H4.55567C3.63541 8.46436 2.85721 9.02756 2.57324 9.89914C2.28958 10.77 2.58637 11.6827 3.32825 12.2235L6.38642 14.4621C6.57105 14.5966 6.64749 14.8337 6.57639 15.0533L5.40436 18.6937C5.11994 19.5724 5.41886 20.49 6.16593 21.0313C6.53671 21.2999 6.96121 21.4343 7.38602 21.4343C7.81372 21.4342 8.24188 21.2981 8.61572 21.0254L11.6821 18.7688C11.8649 18.6354 12.1106 18.6354 12.2952 18.77L15.3627 20.9927C16.1052 21.534 17.0656 21.5355 17.8098 20.9966C18.5568 20.4553 18.8557 19.5377 18.5712 18.6591C18.5704 18.6563 18.5696 18.6537 18.5687 18.651Z" fill="#E2AB40"/>
</svg>
