<svg width="24" height="25" viewBox="0 0 24 25" fill="none" xmlns="http://www.w3.org/2000/svg">
<path d="M20.928 21.4331H9.36977C8.50746 21.4331 7.71465 20.9999 7.24891 20.2742C7.24571 20.2692 7.24246 20.2643 7.23918 20.2594L4.14875 15.6757C3.86723 15.251 3.64457 14.4841 4.18258 14.106C4.53371 13.8592 5.00317 13.8906 5.31949 14.1753L8.06461 18.074C8.562 18.8096 9.38672 19.2494 10.2746 19.2527C10.2782 19.2527 14.8392 19.2528 14.8392 19.2528C15.2707 19.2528 15.6205 18.903 15.6205 18.4715C15.6205 18.04 15.2707 17.6903 14.8392 17.6903H10.2914C10.2894 17.6903 10.2874 17.6902 10.2854 17.6902C9.76969 17.6902 9.35012 17.2612 9.35012 16.7338C9.35012 16.2065 9.76969 15.7774 10.2857 15.7774L17.6257 15.7744H17.6267C18.2997 15.7744 18.9323 16.0364 19.4082 16.5121C19.8845 16.9881 20.1467 17.6211 20.1467 18.2944C20.1467 18.7259 20.4965 19.0757 20.928 19.0757C21.3595 19.0757 21.7092 18.7259 21.7092 18.2944C21.7092 17.2037 21.2843 16.1782 20.5129 15.4071C19.7418 14.6363 18.7169 14.2119 17.6267 14.2119H17.625L10.2854 14.2149C9.36981 14.2149 8.56774 14.7142 8.13285 15.457L6.55406 13.2148C6.52926 13.1796 6.50153 13.1464 6.47125 13.1157C5.61738 12.2509 4.27688 12.1298 3.28406 12.8277C2.67785 13.2537 2.32598 13.9053 2.29317 14.6625C2.26574 15.2949 2.46313 15.9627 2.84887 16.5428C2.84977 16.5442 2.85074 16.5456 2.85164 16.547L5.93887 21.1259C6.69406 22.2968 7.9759 22.9956 9.36977 22.9956H20.928C21.3595 22.9956 21.7093 22.6458 21.7093 22.2144C21.7093 21.7829 21.3595 21.4331 20.928 21.4331ZM8.04258 12.241H14.9882C16.1236 12.241 17.0473 11.3172 17.0473 10.1819V5.05471C17.0473 3.91932 16.1236 2.99561 14.9882 2.99561H8.04258C6.90719 2.99561 5.98344 3.91932 5.98344 5.05471V10.1818C5.98348 11.3172 6.90719 12.241 8.04258 12.241ZM12.3008 4.55811V6.41721L11.864 6.19939C11.7542 6.14467 11.6348 6.11729 11.5154 6.11729C11.3959 6.11729 11.2765 6.14467 11.1667 6.19939L10.7299 6.41721V4.55811H12.3008ZM7.54598 5.05471C7.54598 4.78088 7.76875 4.55811 8.04262 4.55811H9.1675V7.67979C9.1675 7.95041 9.30754 8.20174 9.5377 8.34412C9.76782 8.48654 10.0552 8.49971 10.2974 8.37893L11.5154 7.77154L12.7335 8.37893C12.8435 8.43381 12.9629 8.46103 13.0821 8.46103C13.225 8.46103 13.3677 8.42182 13.4932 8.34412C13.7233 8.20174 13.8634 7.95037 13.8634 7.67979V4.55811H14.9883C15.2621 4.55811 15.4849 4.78088 15.4849 5.05471V10.1818C15.4849 10.4556 15.2621 10.6784 14.9883 10.6784H8.04258C7.76871 10.6784 7.54594 10.4556 7.54594 10.1818V5.05471H7.54598Z" fill="#346751"/>
</svg>
